<svg enable-background="new 0 0 400 400" viewBox="0 0 400 400" xmlns="http://www.w3.org/2000/svg"><path d="m362.1 8.8c1.1.8 2.1 1.6 3.1 2.4l-1 1.1c-1.3-1.1-2.3-2-3-2.5zm1.9 4.8c.5.2.9.4 1.4.5-.6 2.3-1.3 4.5-1.9 6.8l-1.5-.5c.8-2.1 1.4-4.3 2-6.8zm-1-9.4c1.3.9 2.4 1.8 3.4 2.5l-1 1.1c-1.4-1.2-2.4-2.1-3.2-2.6zm3.7 2.2v-1.4h10.3v1.2c-.5 3.6-1.8 6.8-4 9.4 1.5 1.6 3.4 2.8 5.7 3.8-.3.4-.7.8-1.1 1.4-2.3-1.1-4.1-2.5-5.6-4.1-1.6 1.6-3.6 3.1-5.9 4.3-.3-.5-.7-.9-1-1.3 2.4-1.1 4.4-2.5 6-4.1-1.9-2.5-3-5.6-3.3-9.3h-1.1zm8.8 0h-6.4c.3 3.3 1.3 6 3 8.2 2-2.3 3.1-5.1 3.4-8.2z" fill="#fbfcfa"/><path d="m385.3 3.8h1.3v2.2h2.8v-2.2h1.3v2.2h4.1v9.1h1.7v1.3h-16.9v-1.3h1.7v-9.1h4.1v-2.2zm.4 13.1.7 1.2c-1.8.9-3.8 1.9-6 2.9-.2-.4-.5-.8-.8-1.3 2.3-1 4.3-1.9 6.1-2.8zm-3.1-6.4h2.8v-3.2h-2.8zm0 4.6h2.8v-3.3h-2.8zm4-4.6h2.8v-3.2h-2.8zm0 4.6h2.8v-3.3h-2.8zm3.7 1.9c2.1.9 4.1 1.8 6.1 2.7l-.7 1.3c-2.2-1.1-4.2-2-6.1-2.9zm3.2-9.7h-2.8v3.2h2.8zm-2.8 7.8h2.8v-3.3h-2.8z" fill="#fbfcfa"/><path d="m82.68 188.62c24.46 3.18 45.84-1.09 67.35-2.72 5.6-.42 11.2-1.02 16.8-1.05 25.98-.11 51.96-.07 77.94.01 1.7.01 3.51.55 5.07 1.29 7.19 3.4 14.64 3.13 22.1 1.55 9.01-1.91 17.97-4.05 26.91-6.26 5.08-1.26 10.03-1.67 15.34-1.15 9.58.95 19.24 1.02 28.88 1.31 7.44.23 13.76 2.34 17.48 9.39.05.09.11.18.16.28 3.48 7.01 2.87 9.28-3.89 12.98-13.22 7.24-27.21 11.96-42.45 11.2-6.72-.34-13.53-1.4-20.02-3.17-15.05-4.12-30.22-4.35-45.62-3.31-13 .88-26.04 1.17-39.06 1.42-2.85.06-5.81-.91-8.57-1.86-3.42-1.19-6.71-1.42-10.24-.64-5.17 1.15-10.42 1.88-15.59 3.02-4.35.96-8.54 1-12.79-.48-2.49-.87-5.2-1.11-7.66-2.04-3.86-1.45-7.29-1.03-10.82 1.06-1.56.92-3.59 1.17-5.44 1.4-2.52.31-5.09.56-7.61.37-9.15-.67-17 2.4-23.99 8.03-1.89 1.52-3.72 1.69-5.82.55-1.01-.55-2.23-.74-3.23-1.31-9.14-5.3-18.81-5.11-28.87-3.5-9.62 1.54-19.35 2.35-29.03 3.42-.75.08-1.81-.05-2.3-.52-3.56-3.5-6.01-7.45-4.42-12.76.03-.1.09-.2.1-.3 1.23-11.53 10.13-13.72 19.08-14.67 10.89-1.16 21.92-1.17 30.21-1.54z" fill="#010101"/></svg>