<svg enable-background="new 0 0 400 400" viewBox="0 0 400 400" xmlns="http://www.w3.org/2000/svg"><path d="m275.6 27.8c6 .9 9.5 4.3 9.7 10.2.9 28.1-.1 56-11.6 82.3-3 6.8-7 13.2-10.7 19.8-.5.8-1.2 1.5-2 2.2-5.6 5-11.5 9.8-16.8 15-6.3 6.2-13.7 10.5-21.9 13.8-12.3 5-24.5 10.1-36.5 15.7-16.8 7.9-29.3 20.5-38.6 36.6-9.4 16.3-13.9 34.1-15.7 52.6-2.2 22.9-3.6 45.8-5.2 68.7-.5 6.9.1 13.9-.3 20.8-.3 5.3-3.2 8.1-7.5 7.9-1.3-.1-2.9-1-3.6-2.1-4.2-6.6-4.6-14.1-3.9-21.5 1.7-18.2 2.5-36.4 3.4-54.6.5-10.9 3.7-21.7 5.7-32.6 3.7-19.8 9.7-38.7 19.7-56.3.9-1.6 2-3.2 3.3-4.5 7.1-7 14.1-14.1 21.5-20.6 9.1-7.9 20.9-10.8 31.7-15.6 10.7-4.7 21.9-8.4 32.1-14.1 15.7-8.8 28.1-21.4 33.7-38.9 3.1-9.6 4.6-19.8 6.6-29.7 2.4-11.7 2.9-23.4 2.1-35.3-.5-6.9 1.5-13.4 4.8-19.8z" fill="#000001"/><g fill="#fafafb"><path d="m362.1 8.8c1.1.8 2.1 1.6 3.1 2.4l-1 1.1c-1.3-1.1-2.3-2-3-2.5zm1.9 4.8c.5.2.9.4 1.4.5-.6 2.3-1.3 4.5-1.9 6.8l-1.5-.5c.8-2.1 1.4-4.3 2-6.8zm-1-9.4c1.3.9 2.4 1.8 3.4 2.5l-1 1.1c-1.4-1.2-2.4-2.1-3.2-2.6zm3.7 2.2v-1.4h10.3v1.2c-.5 3.6-1.8 6.8-4 9.4 1.5 1.6 3.4 2.8 5.7 3.8-.3.4-.7.8-1.1 1.4-2.3-1.1-4.1-2.5-5.6-4.1-1.6 1.6-3.6 3.1-5.9 4.3-.3-.5-.7-.9-1-1.3 2.4-1.1 4.4-2.5 6-4.1-1.9-2.5-3-5.6-3.3-9.3h-1.1zm8.8 0h-6.4c.3 3.3 1.3 6 3 8.2 2-2.3 3.1-5.1 3.4-8.2z"/><path d="m385.3 3.8h1.3v2.2h2.8v-2.2h1.3v2.2h4.1v9.1h1.7v1.3h-16.9v-1.3h1.7v-9.1h4.1v-2.2zm.4 13.1.7 1.2c-1.8.9-3.8 1.9-6 2.9-.2-.4-.5-.8-.8-1.3 2.3-1 4.3-1.9 6.1-2.8zm-3.1-6.4h2.8v-3.2h-2.8zm0 4.6h2.8v-3.3h-2.8zm4-4.6h2.8v-3.2h-2.8zm0 4.6h2.8v-3.3h-2.8zm3.7 1.9c2.1.9 4.1 1.8 6.1 2.7l-.7 1.3c-2.2-1.1-4.2-2-6.1-2.9zm3.2-9.7h-2.8v3.2h2.8zm-2.8 7.8h2.8v-3.3h-2.8z"/></g></svg>