<svg enable-background="new 0 0 400 400" viewBox="0 0 400 400" xmlns="http://www.w3.org/2000/svg"><path d="m378.6 9.2.8-1c.9.7 1.9 1.4 2.9 2.3l-.9 1.1c-1.1-.9-2-1.7-2.8-2.4zm.5 10.7c.9-2.1 1.6-4.3 2.3-6.7.4.2.8.4 1.3.6-.7 2.1-1.5 4.3-2.2 6.6zm.4-15.2.9-.9c1 .8 2 1.6 2.8 2.4l-1 1c-1-.9-1.9-1.8-2.7-2.5zm12.5-1.3h1.2v1.4h2.7v1.1h-2.7v2.7h-1.2v-.5h-1.8v1.3h4.9v3.8h-1.2v-.5h-3.7c0 .4-.1.9-.1 1.2h5.1v1h-5.2c0 .5-.1.9-.2 1.2h6v1h-5.2c1.1 1.3 2.9 2 5.5 2.2-.4.4-.7.8-.9 1.3-2.9-.5-4.8-1.6-5.7-3.5h-.1c-.8 1.7-2.7 2.9-5.9 3.6-.2-.4-.6-.8-.9-1.1 2.8-.6 4.6-1.4 5.4-2.5h-4.8v-1h5.3c.1-.3.2-.7.2-1.2h-4.9v-1h5c0-.4 0-.8.1-1.2h-3.6v.5h-1.2v-3.8h4.9v-1.3h-1.8v.5h-1.2v-2.7h-2.6v-1.1h2.6v-1.4h1.2v1.4h4.7v-1.4zm-6.7 8.4h3.6c0-.4 0-.9 0-1.4h-3.6zm1.9-4.7h4.7v-1.2h-4.7zm6.7 3.3h-3.7v1.4h3.7z" fill="#fafbfc"/><path d="m384.7 21.4h1.3v2.2h2.8v-2.2h1.3v2.2h4.1v9.1h1.7v1.3h-16.9v-1.3h1.7v-9.1h4.1v-2.2zm.3 13.2.7 1.2c-1.8.9-3.8 1.9-6 2.9-.2-.4-.5-.8-.8-1.3 2.4-1 4.4-2 6.1-2.8zm-3.1-6.5h2.8v-3.2h-2.8zm0 4.6h2.8v-3.3h-2.8zm4.1-4.6h2.8v-3.2h-2.8zm0 4.6h2.8v-3.3h-2.8zm3.6 1.9c2.1.9 4.1 1.8 6.1 2.7l-.7 1.3c-2.2-1.1-4.2-2-6.1-2.9zm3.3-9.7h-2.8v3.2h2.8zm-2.8 7.8h2.8v-3.3h-2.8z" fill="#fafbfc"/><path d="m215.51 365.19c-6.06 1.32-6.74 1.37-9.09-3.96-3.71-8.4-7.13-16.97-10.12-25.66-5.68-16.51-10.98-33.16-16.42-49.76-.39-1.2-.76-2.45-.83-3.69-.36-5.92-.39-11.86-.93-17.76-1.37-14.87 1.46-29.36 3.58-43.92.18-1.26.74-2.57.53-3.76-1.38-7.69 4.66-13.18 5.83-20.08.9-5.29 2.98-9.96 5.79-14.59 5.22-8.58 9.91-17.48 12.5-27.35 2.1-8 1.65-15.81-1.41-23.36-3.39-8.35-7.33-16.48-7.01-25.83.02-.49-.41-1.26-.83-1.45-3.05-1.31-4.21-4.04-5.3-6.83-5.06-13.01-10.3-25.95-15.04-39.08-2.03-5.62-3.1-11.6-4.34-17.47-.38-1.79.1-3.76.18-5.62 6.8-.21 11.97 3.86 13.84 10.16 1.37 4.64 2.12 10.13 5.11 13.5 9.79 11.01 13.6 25.03 20.37 37.52 1.26 2.33 2.17 4.84 3.45 7.15 3.24 5.84 5.37 11.86 4.63 18.74-.21 1.97.64 4.18 1.42 6.11 5.04 12.53 4.12 25.12.47 37.71-3.6 12.42-9.3 23.91-17.02 34.24-6.54 8.76-8.88 18.58-9.03 29.19-.05 3.18-.17 6.38.11 9.54.83 9.27-1.91 18.05-3.42 27-.37 2.23-.63 4.67-.16 6.83 2.57 11.68 5.37 23.32 8.15 34.96.26 1.11.75 2.19 1.32 3.19 9.21 16.2 13.19 33.79 13.9 52.25.01.66-.14 1.28-.23 2.08z" fill="#010104"/></svg>