<svg enable-background="new 0 0 400 400" viewBox="0 0 400 400" xmlns="http://www.w3.org/2000/svg"><g fill="#010000"><path d="m267.26 100.86c-4.12.44-7.88.63-11.56 1.29-5.81 1.04-10.7-4.42-8.77-10.1.24-.7 1.02-1.42 1.72-1.73 5.59-2.45 11.08-5.3 16.89-7.04 6.36-1.9 13.09-2.54 19.56-4.12 3.65-.9 7.28-2.27 10.61-4.01 7.11-3.7 14.26-2.3 21.32-.42 3.7.99 4.8 4.27 3.4 7.85-3.89 9.96-7.67 19.96-11.73 29.84-4.64 11.29-11.69 20.52-23.06 25.96-5.77 2.76-6.82 4.6-5.09 10.76 2.79 9.96 6.18 19.75 9.29 29.63 3.15 9.99 6.21 20.01 9.43 29.98.59 1.82.25 3.03-.7 4.65-2.28 3.91-3.95 8.18-6.22 12.1-2.36 4.08-4.66 8.36-7.81 11.79-8.95 9.76-18.5 18.98-27.48 28.72-7.04 7.64-11.46 16.54-10.12 27.4.12.93.7 2.46 1.24 2.54 1.1.15 2.33-.42 3.46-.84.45-.17.75-.74 1.15-1.08 4.79-4.02 9.43-8.22 14.42-11.98 4.37-3.3 9.34-5.39 15.48-4.74.32 2.04.7 4.09.96 6.14.42 3.3.71 6.61 1.16 9.91.62 4.58 1.54 9.12 1.95 13.71.51 5.58.66 11.2.91 16.81.58 13.3-1.93 26.13-5.78 38.78-.7 2.3-2.37 3.18-4.18 2.99-1.01-.11-2-1.85-2.68-3.04-.44-.76-.36-1.85-.43-2.8-.81-11.82-1.58-23.65-2.4-35.47-.34-4.86-.63-9.73-1.19-14.57-.22-1.94-.73-4.01-1.72-5.67-1.7-2.86-3.63-2.83-6.03-.58-6.53 6.11-13.4 11.76-22.12 14.5-4.83 1.52-5.25 1.29-7.77-3.04-3.18-5.45-4.5-11.4-2.94-17.44 3.07-11.86 6.37-23.68 10.24-35.3 1.28-3.84 4.72-6.93 6.94-10.51 1.18-1.9 2.3-4.02 2.7-6.18 2.67-14.36 5.13-28.75 7.66-43.14.13-.73.37-1.47.31-2.19-.9-11.45 1.46-22.52 3.51-33.67.74-4 .25-8.22.43-12.34.09-1.97-1-2.75-2.64-2.8-2.74-.1-5.49-.01-8.23.06-1.37.03-2.75.36-4.11.28-2.83-.16-4.1-2.08-5.09-4.52-.98-2.42.8-3.2 2.06-4.38 5.29-4.94 10.86-9.43 17.93-11.67.75-.24 1.75-1.13 1.84-1.82 1.15-9.21 2.16-18.46 3.28-28.5zm30.23-11c-1.25.15-2.61.04-3.73.51-4 1.67-7.95 3.48-11.84 5.38-.67.33-1.35 1.36-1.41 2.12-.48 5.9-1.07 11.82-1.07 17.73 0 2.33 1.39 4.67 2.14 7 2.5-.93 5.23-1.48 7.45-2.86 5.06-3.17 6.87-8.7 8.92-13.9 1.46-3.72 2.92-7.52 3.6-11.42.59-3.4-.05-4.8-4.06-4.56zm-22.52 95.08c-.25.09-.5.17-.75.26-.3 2.05-.6 4.1-.9 6.15-1.32 9-2.85 17.98-3.85 27.01-.36 3.25.57 6.65.91 9.98 3.44-2.18 6.11-4.18 8.18-6.68 2.64-3.19 5-6.92 4.32-11.23-1.04-6.53-2.55-13.01-4.27-19.41-.6-2.18-2.4-4.05-3.64-6.08z"/><path d="m146.37 130.82c-3.07-.57-5.74-1.05-8.4-1.57-1.66-.32-3.29-.9-4.96-1.03-4.03-.31-5.16.89-4.66 4.83 2.06 16.28 1.69 32.55-.02 48.84-.52 4.93-.2 9.94-.45 14.9-.27 5.23-6.62 8.47-11 5.59-.65-.43-.88-1.81-.94-2.78-.74-12.91-1.41-25.83-2.11-38.75-.07-1.23-.23-2.46-1.04-3.77-.83 2.79-1.84 5.54-2.46 8.37-1.77 8.06-3.54 16.13-4.95 24.26-.41 2.37.09 5.05.77 7.42 1.14 3.96 2.9 7.73 4.14 11.67 1.08 3.44 2.72 6.45 5.62 8.61 3.05 2.28 6.23 4.39 9.81 6.9-.51 1.75-1.46 4.33-1.93 6.99-.23 1.26.1 2.9.78 3.99 1.45 2.33 3.16 4.53 5 6.57 10.18 11.22 11.22 24.21 8.28 38.39-1.97 9.5-6.75 17.48-11.55 25.56-.37.63-1.25 1.17-1.98 1.32-2.99.62-8.43-2.03-10.07-4.74-4.18-6.88-8.3-13.8-12.59-20.61-1.4-2.21-3.25-4.14-5.2-6.59-.79 1.36-1.29 2.35-1.9 3.27-2.62 3.93-5.54 7.7-7.81 11.82-1.76 3.19-2.94 6.75-3.99 10.25-1.05 3.49-2.1 6.77-6.24 7.55-.68.13-1.81-.09-2.11-.55-.43-.67-.7-1.98-.32-2.53 6.64-9.68 7.83-21.13 10.53-32.08 1.78-7.2 3.39-14.43 5.13-21.64.29-1.22.69-2.48 1.35-3.53 1.77-2.84 4.52-2.93 6.69-.39 5.02 5.89 8.26 12.72 11.13 19.85 2.41 5.97 5.39 11.71 8.16 17.54.35.73.91 1.35 1.46 2.17 5.76-6.57 6.62-14.22 5.1-21.97-.97-4.98-2.99-9.95-5.47-14.39-5.01-8.96-10.48-17.67-16.08-26.28-6.26-9.62-8.7-20.3-8.42-31.44.28-11.09 1.55-22.17 2.75-33.21.82-7.47 1.75-15 3.61-22.25 1.6-6.26 4.12-12.41 7.08-18.18 2.91-5.67 2.97-9.68-1.24-14.44-6.24-7.07-11.45-14.81-13.2-24.26-1.73-9.35 1.07-17.75 6.32-25.47 2.26-3.32 4.52-6.66 6.55-10.13 2.79-4.77 6.4-8.44 11.96-9.69.95-.22 2.1-.21 3.01.12 5.55 1.99 10.47 4.95 14.57 9.32 6.23 6.64 12.79 12.98 18.93 19.7 2.22 2.43 3.78 5.52 5.37 8.45 1.02 1.88.17 3.45-2 3.56-1.82.09-3.72-.22-5.5-.69-1.51-.4-2.84-1.5-4.35-1.88-2.36-.6-4.25-.23-5.08 2.71-1.25 4.48-2.71 8.92-4.42 13.25-1.78 4.5-3.83 8.91-6.01 13.23-1.67 3.31-1.56 5.05 1.08 7.56 2.92 2.78 5.88 5.52 8.66 8.43 2.94 3.02 4.81 6.63 4.61 11.85zm-15.89-67.91c-.61-1.01-1.08-2.49-2.08-3.3-2.04-1.64-4.28-3.11-6.64-4.24-1.11-.53-2.84-.5-4-.02-4.99 2.07-6.32 7.11-8.59 11.31-4.27 7.91-3.26 15.21 2.77 21.91 2.98 3.31 3.42 3.55 6.99 1.07.81-.56 1.49-1.51 1.91-2.42 2.53-5.47 5.07-10.94 7.39-16.5.96-2.31 1.41-4.84 2.25-7.81z"/><path d="m193.89 72.52c6.65 3.5 10.22 8.32 12.12 14.22 7.48 23.26 14.99 46.51 22.03 69.9 2.96 9.81 3.38 20.09 1.62 30.24-1.74 10.08-6.7 18.7-13.94 25.79-5.9 5.78-12.37 10.97-18.43 16.59-1.05.97-1.8 2.84-1.78 4.28.06 5.4.43 10.8.82 16.19.82 11.24-2.65 21.15-9.72 29.69-5.4 6.52-13.1 8.19-21.17 8.39-.83.02-1.88-.84-2.5-1.57-5.05-5.98-7.1-13.07-7.75-20.74-1.01-11.87 1.52-23.41 2.88-35.07.18-1.57-.36-3.48-1.18-4.87-1.33-2.27-3-4.39-4.82-6.3-5.62-5.94-7.57-13.59-10.03-20.99-1.64-4.95-.61-9.92.91-14.69 1.32-4.16 1.71-8.2.75-12.46-.25-1.12-.06-2.55.43-3.6 8.58-18.41 17.25-36.79 25.89-55.17.23-.48.38-1.02.72-1.41 6.08-7.01 8.6-15.96 13.13-23.81 2.94-5.08 6.63-9.72 10.02-14.61zm.04 35.88c-3.49 6.73-6.97 13.14-10.19 19.68-5.36 10.89-10.61 21.84-15.76 32.83-.82 1.76-1 3.84-1.32 5.8-.33 1.96.6 2.9 2.62 2.96 11.09.36 22.18.86 33.28 1.09 2.27.05 4.61-.67 6.8-1.39.82-.27 1.74-1.5 1.88-2.41.84-5.38.84-10.68-1.69-15.78-1.36-2.73-2.28-5.69-3.36-8.56-2.97-7.91-6-15.78-6.55-24.39-.26-3.88-1.17-7.79-5.71-9.83zm-5.39 75.35c-.05-.48-.11-.95-.16-1.43-8.28.99-16.55 2.01-24.84 2.97-1.72.2-2.38.92-2.73 2.73-2.26 11.91 1.64 21.68 10.08 29.92.75.73 2 1.14 3.08 1.32 8.94 1.47 16.84-.85 23.45-7.01 5.58-5.2 10.88-10.7 16.41-15.94 2.98-2.82 3.27-6.37 2.86-9.96-.46-4.07-3.01-5.42-7.07-4.89-7 .92-14.05 1.54-21.08 2.29zm-16.68 93.1c11.99-11.64 13.83-24.86 10.67-39.23-1.17-5.31-2.43-5.71-7.38-3.44-.87.4-1.71.85-2.61 1.17-1.77.62-2.75 1.66-2.76 3.69-.04 8.36-.43 16.73-.18 25.08.13 4.01 1.38 7.99 2.26 12.73z"/></g><path d="m361.2 9.6.8-1c.9.7 1.9 1.4 2.9 2.3l-.9 1.1c-1-1-2-1.8-2.8-2.4zm.5 10.6c.9-2.1 1.6-4.3 2.3-6.7.4.2.8.4 1.3.6-.7 2.1-1.5 4.3-2.2 6.6zm.4-15.2.9-.9c1 .8 2 1.6 2.8 2.4l-1 1c-.9-.9-1.8-1.7-2.7-2.5zm12.5-1.2h1.2v1.4h2.7v1.1h-2.7v2.7h-1.2v-.6h-1.8v1.3h4.9v3.8h-1.2v-.5h-3.7c0 .4-.1.9-.1 1.2h5.1v1h-5.2c0 .5-.1.9-.2 1.2h6v1h-5.2c1.1 1.3 2.9 2 5.5 2.2-.4.4-.7.8-.9 1.3-2.9-.5-4.8-1.6-5.7-3.5h-.1c-.8 1.7-2.7 2.9-5.9 3.6-.2-.4-.6-.8-.9-1.1 2.8-.6 4.6-1.4 5.4-2.5h-4.8v-1h5.3c.1-.3.2-.7.2-1.2h-4.9v-1h5c0-.4 0-.8.1-1.2h-3.5v.5h-1.2v-3.8h4.9v-1.3h-1.8v.5h-1.2v-2.7h-2.7v-1h2.6v-1.4h1.2v1.4h4.7v-1.4zm-6.6 8.3h3.6c0-.4 0-.9 0-1.4h-3.6zm1.9-4.6h4.7v-1.3h-4.7zm6.6 3.2h-3.7v1.4h3.7z" fill="#fafafb"/><path d="m385.3 3.8h1.3v2.2h2.8v-2.2h1.3v2.2h4.1v9.1h1.7v1.3h-16.9v-1.3h1.7v-9.1h4.1v-2.2zm.4 13.1.7 1.2c-1.8.9-3.8 1.9-6 2.9-.2-.4-.5-.8-.8-1.3 2.3-1 4.3-1.9 6.1-2.8zm-3.1-6.4h2.8v-3.2h-2.8zm0 4.6h2.8v-3.3h-2.8zm4-4.6h2.8v-3.2h-2.8zm0 4.6h2.8v-3.3h-2.8zm3.7 1.9c2.1.9 4.1 1.8 6.1 2.7l-.7 1.3c-2.2-1.1-4.2-2-6.1-2.9zm3.2-9.7h-2.8v3.2h2.8zm-2.8 7.8h2.8v-3.3h-2.8z" fill="#fafafb"/></svg>