<svg enable-background="new 0 0 400 400" viewBox="0 0 400 400" xmlns="http://www.w3.org/2000/svg"><path d="m97.2 251.1c1.4-9.6 2.9-19.2 4.3-28.8.3-2 1.3-2.9 3.3-2.8.4 0 .9 0 1.3-.1 6.4-.6 6.7-.6 8.3 5.6 1.1 4.4 1.9 9.2 1.7 13.7-.8 16.7 1.2 33.1 4.5 49.4 2.4 12.1 5.6 24.1 9.1 36 6.1 20.8 20.5 31.2 42.1 32.5 11.6.7 21.3-4 31.4-7.9.8-.3 1.5-1.3 2.1-2 17.1-20.3 21.3-43.3 14.3-68.7-6.1-22.3-12.6-44.4-17.5-67-6.3-28.6-7.7-57.6-.2-86.4 4.5-17.4 14.1-32 25.6-45.6 11.5-13.7 25-25.2 39.5-35.7 6-4.4 11.8-8.9 17.7-13.4 3.7-2.8 9-2.3 11.7 1.1 2.4 2.9 1.8 8.2-1.5 11.1-10.7 9.6-21.3 19.3-32.2 28.7-11.7 10-22.7 20.6-31.8 33.2-12 16.5-17 34.9-16.5 55.1.5 19.4 4.5 38.1 8.9 56.9 3.7 15.8 7.5 31.6 11.1 47.4 4.5 19.7 4.4 39.7 2.2 59.7-1.2 10.5-4.6 20-10.8 28.5-7.3 10-17.3 15.9-29 19.3-19.4 5.6-38.1 4.2-55.7-6.1-4.1-2.4-7.4-6.5-10.7-10.2-15.2-16.5-23.6-36.3-27.5-58.2-2.6-14.9-4.8-29.9-4.9-45.1-.2-.1-.5-.1-.8-.2z" fill="#000001"/><g fill="#fafafb"><path d="m362.1 8.8c1.1.8 2.1 1.6 3.1 2.4l-1 1.1c-1.3-1.1-2.3-2-3-2.5zm1.9 4.8c.5.2.9.4 1.4.5-.6 2.3-1.3 4.5-1.9 6.8l-1.5-.5c.8-2.1 1.4-4.3 2-6.8zm-1-9.4c1.3.9 2.4 1.8 3.4 2.5l-1 1.1c-1.4-1.2-2.4-2.1-3.2-2.6zm3.7 2.2v-1.4h10.3v1.2c-.5 3.6-1.8 6.8-4 9.4 1.5 1.6 3.4 2.8 5.7 3.8-.3.4-.7.8-1.1 1.4-2.3-1.1-4.1-2.5-5.6-4.1-1.6 1.6-3.6 3.1-5.9 4.3-.3-.5-.7-.9-1-1.3 2.4-1.1 4.4-2.5 6-4.1-1.9-2.5-3-5.6-3.3-9.3h-1.1zm8.8 0h-6.4c.3 3.3 1.3 6 3 8.2 2-2.3 3.1-5.1 3.4-8.2z"/><path d="m385.3 3.8h1.3v2.2h2.8v-2.2h1.3v2.2h4.1v9.1h1.7v1.3h-16.9v-1.3h1.7v-9.1h4.1v-2.2zm.4 13.1.7 1.2c-1.8.9-3.8 1.9-6 2.9-.2-.4-.5-.8-.8-1.3 2.3-1 4.3-1.9 6.1-2.8zm-3.1-6.4h2.8v-3.2h-2.8zm0 4.6h2.8v-3.3h-2.8zm4-4.6h2.8v-3.2h-2.8zm0 4.6h2.8v-3.3h-2.8zm3.7 1.9c2.1.9 4.1 1.8 6.1 2.7l-.7 1.3c-2.2-1.1-4.2-2-6.1-2.9zm3.2-9.7h-2.8v3.2h2.8zm-2.8 7.8h2.8v-3.3h-2.8z"/></g></svg>