<svg enable-background="new 0 0 400 400" viewBox="0 0 400 400" xmlns="http://www.w3.org/2000/svg"><path d="m378.6 9.2.8-1c.9.7 1.9 1.4 2.9 2.3l-.9 1.1c-1.1-.9-2-1.7-2.8-2.4zm.5 10.7c.9-2.1 1.6-4.3 2.3-6.7.4.2.8.4 1.3.6-.7 2.1-1.5 4.3-2.2 6.6zm.4-15.2.9-.9c1 .8 2 1.6 2.8 2.4l-1 1c-1-.9-1.9-1.8-2.7-2.5zm12.5-1.3h1.2v1.4h2.7v1.1h-2.7v2.7h-1.2v-.5h-1.8v1.3h4.9v3.8h-1.2v-.5h-3.7c0 .4-.1.9-.1 1.2h5.1v1h-5.2c0 .5-.1.9-.2 1.2h6v1h-5.2c1.1 1.3 2.9 2 5.5 2.2-.4.4-.7.8-.9 1.3-2.9-.5-4.8-1.6-5.7-3.5h-.1c-.8 1.7-2.7 2.9-5.9 3.6-.2-.4-.6-.8-.9-1.1 2.8-.6 4.6-1.4 5.4-2.5h-4.8v-1h5.3c.1-.3.2-.7.2-1.2h-4.9v-1h5c0-.4 0-.8.1-1.2h-3.6v.5h-1.2v-3.8h4.9v-1.3h-1.8v.5h-1.2v-2.7h-2.6v-1.1h2.6v-1.4h1.2v1.4h4.7v-1.4zm-6.7 8.4h3.6c0-.4 0-.9 0-1.4h-3.6zm1.9-4.7h4.7v-1.2h-4.7zm6.7 3.3h-3.7v1.4h3.7z" fill="#fafbfc"/><path d="m384.7 21.4h1.3v2.2h2.8v-2.2h1.3v2.2h4.1v9.1h1.7v1.3h-16.9v-1.3h1.7v-9.1h4.1v-2.2zm.3 13.2.7 1.2c-1.8.9-3.8 1.9-6 2.9-.2-.4-.5-.8-.8-1.3 2.4-1 4.4-2 6.1-2.8zm-3.1-6.5h2.8v-3.2h-2.8zm0 4.6h2.8v-3.3h-2.8zm4.1-4.6h2.8v-3.2h-2.8zm0 4.6h2.8v-3.3h-2.8zm3.6 1.9c2.1.9 4.1 1.8 6.1 2.7l-.7 1.3c-2.2-1.1-4.2-2-6.1-2.9zm3.3-9.7h-2.8v3.2h2.8zm-2.8 7.8h2.8v-3.3h-2.8z" fill="#fafbfc"/><g fill="#010104"><path d="m160.19 254.62c-1.06-1.7-2.17-3.04-2.81-4.57-1.13-2.69-2.95-2.96-5.57-2.55-5.65.89-11.34 1.54-17.03 2.1-1.27.12-2.67-.41-3.92-.87-3.17-1.18-6.3-2.48-9.73-3.86-.78 1.1-1.7 2.12-2.3 3.31-1.93 3.82-5.18 5.94-9.17 6.64-9.16 1.6-18.34 3.47-27.58 4.15-10.21.75-20.52.37-30.78.34-3.23-.01-6.18-1.05-8.68-3.34-1.79-1.63-4-2.79-5.84-4.38-1.24-1.08-2.52-2.37-3.17-3.84-2.27-5.12-.45-7.96 4.95-8.09 15.37-.35 29.79-4.93 44.14-9.85 1.19-.41 2.48-1.03 3.65-.92 13.13 1.31 25.3-3.08 37.69-6.15 6.16-1.53 12.23-3.71 18.49-4.54 7.84-1.05 15.82-1.1 23.74-1.44 11.85-.52 23.71-.89 35.56-1.39 1.45-.06 2.91-.49 4.32-.9 20.27-5.77 40.61-11.23 61.57-13.96.32-.04.63-.13.94-.13 3.28-.05 6.82-.88 9.77.08 2.88.94 5.16 3.73 7.83 5.81 2.32-4.27 6.68-5.52 11.18-7.05 10.15-3.44 20.36-1.26 30.55-1.14 4.54.05 9.1.33 13.61.86 2.15.25 4.35 1.07 6.24 2.13 1.04.58 2.04 2.22 2.06 3.39.03 2.38 1.31 3.2 3.13 2.94 2.02-.29 4.09-.98 5.87-1.97 2.38-1.33 3.59-.64 4.21 1.71.61 2.32.58 4.26-1.6 6.19-10.62 9.38-23.09 13.8-37.05 14.79-10.36.74-20.67 2.04-31.04 2.6-4.24.23-8.54-.91-12.82-1.31-1.42-.13-2.95-.15-4.29.25-3.55 1.03-7.11 2.14-10.52 3.54-13.44 5.53-27.81 6.35-41.93 8.25-11.95 1.61-24 2.55-36.02 3.6-9.05.79-17.33 3.76-25.15 8.22-.7.4-1.45.78-2.5 1.35z"/><path d="m359.19 155.73c-6.64 2.46-12.35 4.58-18.07 6.68-5.36 1.97-10.79 3.77-16.08 5.92-4.5 1.83-8.96 2.93-13.85 1.96-8.95-1.79-17.68 1.22-26.54 1.44-14.61.35-29.22.8-43.83.87-10.48.05-20.97-.43-31.45-.78-1.15-.04-2.64-.48-3.33-1.28-1.7-1.96-3.4-2.22-5.85-1.6-7.08 1.8-14.24 3.25-21.34 4.97-5.26 1.28-10.5 2.3-15.97 1.5-10.74-1.58-21.33-.18-31.81 2.12-13.67 3-27.11 2.66-40.34-2.27-.9-.34-2.53.05-3.27.71-5.6 5.01-11.8 7.12-19.33 5.29-3.78-.92-7.78-.91-11.64-1.56-1.49-.25-2.86-1.19-4.3-1.77-3.68-1.48-7.43-2.79-11.02-4.46-1.7-.79-3.74-1.94-4.49-3.48-1.74-3.58-2.91-7.47-4.03-11.31-.21-.71.7-2.13 1.47-2.67 5.51-3.87 11.55-5.02 18.11-3.18 7.43 2.09 14.87 4.2 22.32 6.2 1.29.35 2.74.48 4.05.27 20.69-3.36 41.41-6.59 62.03-10.36 4.44-.81 8.49-3.65 12.77-5.44 1.09-.46 2.49-.94 3.53-.63 13.84 4.03 27.69 2.57 41.58.35 3.02-.48 6.1-.78 9.15-.79 14.1-.08 28.2.17 42.3-.13 6.01-.13 11.55.61 16.61 3.94 1.47.97 2.62.78 4.27-.04 8.52-4.21 17.57-4.12 26.68-2.56.9.15 1.7 1.15 2.45 1.85 1.87 1.73 4.02 2.64 6.39 1.43 9.68-4.94 19.62-3.31 29.49-1.13 5.34 1.18 10.59 2.93 15.7 4.9 2.55.96 4.68 3.02 7.64 5.04z"/></g></svg>