<svg enable-background="new 0 0 400 400" viewBox="0 0 400 400" xmlns="http://www.w3.org/2000/svg"><path d="m222.31 350.69c-.95-.59-1.36-.85-2.14-1.34-.1 2.31-2.59 4.36 1.09 6.28 1.62.85-.32 9.18-2.15 10.24-1.84 1.06-2.6.2-2.97-1.7-1.8-9.25-3.72-18.48-5.56-27.72-1.1-5.49-2.6-10.96-3.1-16.51-.85-9.47-1.07-18.99-1.51-28.49-.12-2.53-.09-5.06-.05-7.6.13-7.83.15-15.66.49-23.48.54-12.37 1.2-24.74 2.01-37.1.56-8.46 1.54-16.89 2.15-25.34.13-1.82-.48-3.69-.73-5.54-.08-.59-.35-1.48-.08-1.73 3.55-3.24.75-7.83 2.63-11.68 1.72-3.52 2.19-8.06 1.92-12.06-.45-6.59-1.98-13.1-2.99-19.66-.66-4.29-1.33-8.58-1.77-12.89-.62-6.12-4.02-10.86-7.48-15.54-1.68-2.27-3.62-1.82-5.04.74-3.73 6.73-4.46 14.27-6.1 21.6-2.95 13.21-6.59 26.19-12.84 38.35-2.4 4.66-3.7 9.89-5.58 14.82-.52 1.36-1.36 2.59-2.01 3.9-2.52 5.1-5.16 10.16-7.49 15.35-1.38 3.07-2.01 6.51-3.52 9.5-1.04 2.07-3.02 3.67-4.58 5.48-.21-.2-.42-.39-.63-.59 1.29-7.81 2.63-15.62 3.85-23.44.52-3.35.45-6.82 1.28-10.08 2.58-10.12 5.3-20.21 8.29-30.21 1.91-6.37 4.54-12.51 6.56-18.84.89-2.78.93-5.82 1.61-8.68 2.8-11.83 5.77-23.62 8.49-35.47.4-1.76-.2-3.74-.39-6.35 1.88-1.67 1.78-4.55.63-7.43-1.4-3.53-3.43-6.85-4.48-10.46-1.55-5.35-5.25-9.55-7.24-14.55-2.91-7.31-5.09-14.9-2.4-22.89.27-.8.54-1.61.91-2.36.41-.84.94-1.62 1.42-2.42 3.11.07 5.09 1.56 6.27 4.22 1.52 3.41 3.64 6.11 7.42 7.32 1.06.34 2 1.49 2.71 2.47 7.39 10.21 14.72 20.47 22.06 30.71.43.6 1.05 1.12 1.31 1.79 3.57 9.2 11.31 15.73 15.63 24.45 1.22 2.46 2.89 4.74 3.84 7.3.74 1.98.68 4.26.98 6.41.13.9-.06 2.18.46 2.62 2.06 1.75 2.35 4.32 3.52 6.43 3.9 7.06 4.36 14.48 3.74 22.19-.47 5.89-.9 11.79-1.43 17.68-.1 1.14-.4 2.31-.85 3.37-3.1 7.36-3.68 15.02-3.91 22.96-.21 7.34-2.34 14.61-3.22 21.96-1.5 12.48-2.67 24.99-4 37.49-.11 1.05-.31 2.09-.53 3.12-.52 2.49-1.24 4.94-1.58 7.45-2.83 21-3.15 42.13-3.28 63.27-.03 4.96.73 9.92.9 14.9.11 2.4-.31 4.83-.54 7.78z" fill="#010000"/><g fill="#fafafb"><path d="m361.2 9.6.8-1c.9.7 1.9 1.4 2.9 2.3l-.9 1.1c-1-1-2-1.8-2.8-2.4zm.5 10.6c.9-2.1 1.6-4.3 2.3-6.7.4.2.8.4 1.3.6-.7 2.1-1.5 4.3-2.2 6.6zm.4-15.2.9-.9c1 .8 2 1.6 2.8 2.4l-1 1c-.9-.9-1.8-1.7-2.7-2.5zm12.5-1.2h1.2v1.4h2.7v1.1h-2.7v2.7h-1.2v-.6h-1.8v1.3h4.9v3.8h-1.2v-.5h-3.7c0 .4-.1.9-.1 1.2h5.1v1h-5.2c0 .5-.1.9-.2 1.2h6v1h-5.2c1.1 1.3 2.9 2 5.5 2.2-.4.4-.7.8-.9 1.3-2.9-.5-4.8-1.6-5.7-3.5h-.1c-.8 1.7-2.7 2.9-5.9 3.6-.2-.4-.6-.8-.9-1.1 2.8-.6 4.6-1.4 5.4-2.5h-4.8v-1h5.3c.1-.3.2-.7.2-1.2h-4.9v-1h5c0-.4 0-.8.1-1.2h-3.5v.5h-1.2v-3.8h4.9v-1.3h-1.8v.5h-1.2v-2.7h-2.7v-1h2.6v-1.4h1.2v1.4h4.7v-1.4zm-6.6 8.3h3.6c0-.4 0-.9 0-1.4h-3.6zm1.9-4.6h4.7v-1.3h-4.7zm6.6 3.2h-3.7v1.4h3.7z"/><path d="m385.3 3.8h1.3v2.2h2.8v-2.2h1.3v2.2h4.1v9.1h1.7v1.3h-16.9v-1.3h1.7v-9.1h4.1v-2.2zm.4 13.1.7 1.2c-1.8.9-3.8 1.9-6 2.9-.2-.4-.5-.8-.8-1.3 2.3-1 4.3-1.9 6.1-2.8zm-3.1-6.4h2.8v-3.2h-2.8zm0 4.6h2.8v-3.3h-2.8zm4-4.6h2.8v-3.2h-2.8zm0 4.6h2.8v-3.3h-2.8zm3.7 1.9c2.1.9 4.1 1.8 6.1 2.7l-.7 1.3c-2.2-1.1-4.2-2-6.1-2.9zm3.2-9.7h-2.8v3.2h2.8zm-2.8 7.8h2.8v-3.3h-2.8z"/></g></svg>