<svg enable-background="new 0 0 400 400" viewBox="0 0 400 400" xmlns="http://www.w3.org/2000/svg"><path d="m205.4 102c5.8 1.2 11.4 2 16.9 3.5 11.3 3 22.1 7.2 30.6 15.7 14.8 14.9 16.2 41.1 2.6 57.3-7.2 8.6-16.4 14.2-26.7 18.9-17.9 8.2-25.5 19.9-20.7 38.5 3.6 13.7 10.5 25.9 17.7 38 10.7 18.1 26.3 30.4 45 39.2 10.6 5 21.3 9.6 31.9 14.7 3.6 1.8 7.1 4.1 10.1 6.7 1.5 1.3 2.7 4.1 2.4 6-.5 2.8-3.5 3.5-6.1 3.5-2.3-.1-4.7-.2-6.9-1-20.8-7.4-41.2-15.9-59.9-27.9-22.5-14.4-36.4-35.3-44.5-60.4-3-9.2-5.4-18.4-5.7-28.2-.5-16.4 7.7-28.2 20.2-37.5 3.8-2.9 8.4-4.8 12.7-7 1.9-1 3.9-1.6 5.8-2.3 17.7-6.9 24.6-26 13-43.6-8.1-12.2-19.9-16.8-33.2-18.7-27.8-4-49.8 6-65.9 28.9-15.6 22.2-23.7 47-25.3 73.9-1.1 17.9-2.5 35.8-2.9 53.6-.4 16 .5 32 .7 48.1.2 10.8.2 21.7.2 32.5 0 2.1-.3 4.3-1.2 6.1-.7 1.3-2.6 2.7-3.9 2.8-1.5 0-3.7-1-4.5-2.3-4.3-6.6-5.8-14-6.1-21.7-.7-23.2-1.8-46.4-1.9-69.6-.1-15.3 2.1-30.7 1.8-46-.3-19.1 7-36.2 12.1-54 1.7-5.9 3.9-11.3 8-16 2.6-2.9 3.7-7 6-10.3 3.4-4.9 6.9-10 11.1-14.3 11.1-11.4 24.3-20.1 38.7-27 13-6.2 14.8-14.4 9.6-26.6-3.7-8.7-7.9-17.2-12-25.8-1.8-3.8-3.2-7.6-1.3-11.7.4-.9 1.8-1.7 2.8-1.8 7.9-1 12 4.5 15.7 10 7.5 10.8 12.5 22.7 14.2 35.7.8 5.9-.6 12.1-1 18.1 0 .7-.1 1.4-.1 2z" fill="#000001"/><g fill="#fafafb"><path d="m362.1 8.8c1.1.8 2.1 1.6 3.1 2.4l-1 1.1c-1.3-1.1-2.3-2-3-2.5zm1.9 4.8c.5.2.9.4 1.4.5-.6 2.3-1.3 4.5-1.9 6.8l-1.5-.5c.8-2.1 1.4-4.3 2-6.8zm-1-9.4c1.3.9 2.4 1.8 3.4 2.5l-1 1.1c-1.4-1.2-2.4-2.1-3.2-2.6zm3.7 2.2v-1.4h10.3v1.2c-.5 3.6-1.8 6.8-4 9.4 1.5 1.6 3.4 2.8 5.7 3.8-.3.4-.7.8-1.1 1.4-2.3-1.1-4.1-2.5-5.6-4.1-1.6 1.6-3.6 3.1-5.9 4.3-.3-.5-.7-.9-1-1.3 2.4-1.1 4.4-2.5 6-4.1-1.9-2.5-3-5.6-3.3-9.3h-1.1zm8.8 0h-6.4c.3 3.3 1.3 6 3 8.2 2-2.3 3.1-5.1 3.4-8.2z"/><path d="m385.3 3.8h1.3v2.2h2.8v-2.2h1.3v2.2h4.1v9.1h1.7v1.3h-16.9v-1.3h1.7v-9.1h4.1v-2.2zm.4 13.1.7 1.2c-1.8.9-3.8 1.9-6 2.9-.2-.4-.5-.8-.8-1.3 2.3-1 4.3-1.9 6.1-2.8zm-3.1-6.4h2.8v-3.2h-2.8zm0 4.6h2.8v-3.3h-2.8zm4-4.6h2.8v-3.2h-2.8zm0 4.6h2.8v-3.3h-2.8zm3.7 1.9c2.1.9 4.1 1.8 6.1 2.7l-.7 1.3c-2.2-1.1-4.2-2-6.1-2.9zm3.2-9.7h-2.8v3.2h2.8zm-2.8 7.8h2.8v-3.3h-2.8z"/></g></svg>