<svg enable-background="new 0 0 400 400" viewBox="0 0 400 400" xmlns="http://www.w3.org/2000/svg"><path d="m186.01 80.57c2.52-5.47 2.66-5.54 8.05-2.64 7.2 3.87 12.6 9.81 17.01 16.42 7.63 11.45 14.68 23.28 21.98 34.94.45.71.76 1.61 1.38 2.1 6.25 4.88 9.72 11.7 12.73 18.7 5.08 11.8 13.5 21.23 21.48 30.95 4.54 5.53 7.8 11.52 9.52 18.41.54 2.15 1.21 4.28 1.93 6.38 1.71 5.01 4.22 9.38 8.98 12.26 14.94 9.03 24.53 23.15 34.6 36.77 7.36 9.97 14.28 20.27 21.68 30.21 2.7 3.63 6.45 6.46 9.32 9.98 3.17 3.88 5.88 8.14 8.76 12.21-2.55 2.51-4.75 2.49-6.63.97-6.23-5.05-12.76-9.85-18.32-15.58-4.64-4.78-8.8-9.99-14.41-13.75-11.74-7.87-21.33-17.89-30.15-28.88-12.28-15.29-25.47-29.86-37.54-45.31-7.86-10.07-14.39-21.18-21.58-31.78-7.09-10.46-13.47-21.26-17.87-33.19-2.17-5.9-6.15-10.55-11.87-13.6-2.55-1.36-4.34-1.35-5.42 1.62-.76 2.08-1.78 4.1-2.23 6.24-.88 4.2-2.85 7.45-6.78 9.38-.76.37-1.38 1.01-2.15 1.35-3.51 1.56-5.12 4.32-5.78 8.04-.35 1.99-1.33 4.02-2.5 5.7-7.59 10.99-15.25 21.93-23.04 32.78-1.93 2.69-3.24 5.42-3.2 8.73.03 2.12-.82 3.59-2.82 4.47-3.95 1.75-6.82 4.79-9.79 7.88-11.31 11.73-20.17 25.36-30.15 38.12-9.96 12.74-21.25 24.23-33.96 34.26-1.83 1.44-4.32 2.17-6.61 2.87-1.88.58-2.61 1.55-3.04 3.44-.39 1.69-1.26 3.67-2.57 4.68-7.47 5.77-13.25 13.03-18.85 20.51-4.11 5.5-9.35 8.65-14.34 9.16-.57-3.67-.04-6.62 2.66-9.78 6.46-7.55 12.61-15.43 18.18-23.65 3.3-4.87 6.88-8.92 12.12-11.64 1.46-.76 2.5-2.61 3.38-4.16 1.74-3.1 2.84-6.63 4.89-9.47 18.8-26.04 37.89-51.88 58.57-76.49 2.88-3.43 3.08-7.53 4.44-11.36.59-1.66 1.22-3.4 2.25-4.79 6.86-9.3 13.96-18.42 20.69-27.81 2.1-2.93 3.44-6.44 4.93-9.77.73-1.62 1.18-3.42 1.45-5.19.91-5.97 3.61-10.67 8.99-13.73 1.04-.59 1.81-1.76 2.54-2.78 2.34-3.28 4.44-6.73 6.91-9.91 3.9-5.01 6.17-10.32 4.51-16.8-.28-1.1.1-2.35-.13-3.47-.27-1.34-.88-2.61-1.34-3.91-.27-.01-.57-.05-.86-.09z" fill="#010000"/><g fill="#fafafb"><path d="m361.2 9.6.8-1c.9.7 1.9 1.4 2.9 2.3l-.9 1.1c-1-1-2-1.8-2.8-2.4zm.5 10.6c.9-2.1 1.6-4.3 2.3-6.7.4.2.8.4 1.3.6-.7 2.1-1.5 4.3-2.2 6.6zm.4-15.2.9-.9c1 .8 2 1.6 2.8 2.4l-1 1c-.9-.9-1.8-1.7-2.7-2.5zm12.5-1.2h1.2v1.4h2.7v1.1h-2.7v2.7h-1.2v-.6h-1.8v1.3h4.9v3.8h-1.2v-.5h-3.7c0 .4-.1.9-.1 1.2h5.1v1h-5.2c0 .5-.1.9-.2 1.2h6v1h-5.2c1.1 1.3 2.9 2 5.5 2.2-.4.4-.7.8-.9 1.3-2.9-.5-4.8-1.6-5.7-3.5h-.1c-.8 1.7-2.7 2.9-5.9 3.6-.2-.4-.6-.8-.9-1.1 2.8-.6 4.6-1.4 5.4-2.5h-4.8v-1h5.3c.1-.3.2-.7.2-1.2h-4.9v-1h5c0-.4 0-.8.1-1.2h-3.5v.5h-1.2v-3.8h4.9v-1.3h-1.8v.5h-1.2v-2.7h-2.7v-1h2.6v-1.4h1.2v1.4h4.7v-1.4zm-6.6 8.3h3.6c0-.4 0-.9 0-1.4h-3.6zm1.9-4.6h4.7v-1.3h-4.7zm6.6 3.2h-3.7v1.4h3.7z"/><path d="m385.3 3.8h1.3v2.2h2.8v-2.2h1.3v2.2h4.1v9.1h1.7v1.3h-16.9v-1.3h1.7v-9.1h4.1v-2.2zm.4 13.1.7 1.2c-1.8.9-3.8 1.9-6 2.9-.2-.4-.5-.8-.8-1.3 2.3-1 4.3-1.9 6.1-2.8zm-3.1-6.4h2.8v-3.2h-2.8zm0 4.6h2.8v-3.3h-2.8zm4-4.6h2.8v-3.2h-2.8zm0 4.6h2.8v-3.3h-2.8zm3.7 1.9c2.1.9 4.1 1.8 6.1 2.7l-.7 1.3c-2.2-1.1-4.2-2-6.1-2.9zm3.2-9.7h-2.8v3.2h2.8zm-2.8 7.8h2.8v-3.3h-2.8z"/></g></svg>