<svg enable-background="new 0 0 400 400" viewBox="0 0 400 400" xmlns="http://www.w3.org/2000/svg"><path d="m362.1 8.8c1.1.8 2.1 1.6 3.1 2.4l-1 1.1c-1.3-1.1-2.3-2-3-2.5zm1.9 4.8c.5.2.9.4 1.4.5-.6 2.3-1.3 4.5-1.9 6.8l-1.5-.5c.8-2.1 1.4-4.3 2-6.8zm-1-9.4c1.3.9 2.4 1.8 3.4 2.5l-1 1.1c-1.4-1.2-2.4-2.1-3.2-2.6zm3.7 2.2v-1.4h10.3v1.2c-.5 3.6-1.8 6.8-4 9.4 1.5 1.6 3.4 2.8 5.7 3.8-.3.4-.7.8-1.1 1.4-2.3-1.1-4.1-2.5-5.6-4.1-1.6 1.6-3.6 3.1-5.9 4.3-.3-.5-.7-.9-1-1.3 2.4-1.1 4.4-2.5 6-4.1-1.9-2.5-3-5.6-3.3-9.3h-1.1zm8.8 0h-6.4c.3 3.3 1.3 6 3 8.2 2-2.3 3.1-5.1 3.4-8.2z" fill="#fbfcfa"/><path d="m385.3 3.8h1.3v2.2h2.8v-2.2h1.3v2.2h4.1v9.1h1.7v1.3h-16.9v-1.3h1.7v-9.1h4.1v-2.2zm.4 13.1.7 1.2c-1.8.9-3.8 1.9-6 2.9-.2-.4-.5-.8-.8-1.3 2.3-1 4.3-1.9 6.1-2.8zm-3.1-6.4h2.8v-3.2h-2.8zm0 4.6h2.8v-3.3h-2.8zm4-4.6h2.8v-3.2h-2.8zm0 4.6h2.8v-3.3h-2.8zm3.7 1.9c2.1.9 4.1 1.8 6.1 2.7l-.7 1.3c-2.2-1.1-4.2-2-6.1-2.9zm3.2-9.7h-2.8v3.2h2.8zm-2.8 7.8h2.8v-3.3h-2.8z" fill="#fbfcfa"/><g fill="#010101"><path d="m252.73 54.61c-1.66 15.84 1.03 31.53 1.48 47.29.2 6.82-.96 13.69-1.61 20.52-1.87 19.67-.45 39.15 2.79 58.59 2.77 16.61 5.48 33.25 7.53 49.97.76 6.22-.58 12.67-.68 19.02-.04 2.24.44 4.61 1.23 6.7 1.69 4.45 3.48 8.9 5.7 13.1 4.26 8.06 5.75 16.85 6.77 25.65 1.6 13.88 6.04 26.78 11.95 39.29 3.35 7.08 5.6 14.41 4.86 22.39-.31 3.36-4.38 7.04-7.68 6.64-.73-.09-1.45-.78-2.05-1.34-5.3-4.89-11.15-9.33-15.7-14.85-4.6-5.57-8.47-11.94-11.67-18.44-11.42-23.23-20.65-47.32-27.81-72.22-1.84-6.41-1.91-12.84-1.14-19.2 1.58-13.14-.4-25.67-4.56-38.09-1.32-3.94-1.69-8.25-2.14-12.43-2.02-18.57-.21-37.04 1.76-55.5.98-9.17 1.96-18.35 2.47-27.55.14-2.58-1.07-5.37-2.17-7.84-2.44-5.53-3.52-10.1 2.02-15.14 5.18-4.71 6.01-11.96 6.11-18.89.13-9.36 3.56-17.52 8.79-25.11 1.1-1.59 2.16-1.89 3.96-1.45 6.47 1.58 9.61 5.27 9.77 11.87.07 2.35.02 4.69.02 7.02zm-7.81 218.27v8.56c3.19-2.24 3.18-3.59 0-8.56z"/><path d="m131.31 51.29c4.55 3.4 7.32 8 8.67 13.11 2.86 10.82 5.4 21.75 7.58 32.73 1.96 9.86 3.27 19.85 4.84 29.79.23 1.46.44 2.95.42 4.42-.47 27.36.76 54.66 2.29 81.98.38 6.89-1.83 13.99-3.24 20.91-7.07 34.86-13.89 69.77-21.64 104.48-2.23 9.98-6.83 19.57-13.9 27.51-1.67 1.88-6.97 2.24-8.85.58-.45-.39-.61-1.28-.64-1.95-.88-23.3-1.83-46.6-2.42-69.91-.07-2.84 1.65-5.84 2.96-8.56 1.74-3.63 2.69-7.25 2.17-11.3-.38-2.93-.15-5.95-.54-8.88-1.59-11.86 1.9-23.13 3.91-34.55 2.61-14.81 5.8-29.51 8.13-44.36.91-5.79.23-11.83.16-17.76-.35-29.14-.74-58.29-1.13-87.43-.08-6.15-.33-12.29-.25-18.44.02-1.35.82-3.02 1.81-3.97 3.06-2.93 6.38-5.58 9.67-8.4z"/></g></svg>