<svg enable-background="new 0 0 400 400" viewBox="0 0 400 400" xmlns="http://www.w3.org/2000/svg"><path d="m385.2 377.6.6-.7c.6.4 1.3.9 1.9 1.5l-.6.7c-.8-.5-1.4-1-1.9-1.5zm.3 7.1c.6-1.4 1.1-2.9 1.5-4.5.3.1.6.3.9.4-.5 1.4-1 2.9-1.5 4.4zm.2-10.1.6-.6c.7.5 1.3 1.1 1.9 1.6l-.7.7c-.6-.6-1.2-1.2-1.8-1.7zm8.4-.8h.8v.9h1.8v.7h-1.8v1.8h-.8v-.3h-1.2v.9h3.3v2.6h-.8v-.4h-2.5c0 .3 0 .6-.1.8h3.4v.7h-3.5c0 .3-.1.6-.1.8h4v.7h-3.5c.7.9 1.9 1.3 3.6 1.5-.2.2-.4.5-.6.9-1.9-.3-3.2-1.1-3.8-2.3-.5 1.1-1.8 2-3.9 2.4-.2-.3-.4-.5-.6-.8 1.9-.4 3.1-.9 3.6-1.7h-3.2v-.7h3.5c.1-.2.1-.5.2-.8h-3.3v-.7h3.4c0-.2 0-.5 0-.8h-2.4v.3h-.8v-2.6h3.3v-.9h-1.2v.3h-.8v-1.8h-1.8v-.7h1.8v-.9h.8v.9h3.2zm-4.4 5.5h2.4c0-.3 0-.6 0-.9h-2.4zm1.2-3.1h3.2v-.8h-3.2zm4.4 2.2h-2.4v.9h2.5v-.9z" fill="#fcfafa"/><path d="m389.2 385.8h.9v1.5h1.9v-1.5h.9v1.5h2.7v6h1.1v.9h-11.3v-.9h1.1v-6h2.7zm.2 8.7.5.8c-1.2.6-2.5 1.3-4 1.9-.2-.3-.3-.6-.6-.8 1.6-.6 3-1.3 4.1-1.9zm-2-4.3h1.9v-2.1h-1.9zm0 3.1h1.9v-2.2h-1.9zm2.7-3.1h1.9v-2.1h-1.9zm0 3.1h1.9v-2.2h-1.9zm2.4 1.3c1.4.6 2.7 1.2 4.1 1.8l-.5.9c-1.5-.7-2.8-1.4-4.1-1.9zm2.2-6.5h-1.9v2.1h1.9zm-1.9 5.2h1.9v-2.2h-1.9z" fill="#fcfafa"/><path d="m307.62 206.18c-10.56 8.1-22.24 9.1-34.13 8.55-8.55-.4-17.06-1.57-25.59-2.37-1.9-.18-3.8-.38-5.7-.38-37.75-.02-75.5.21-113.24-.16-10.42-.1-20.82-2.12-31.25-3.02-4.93-.42-9.91-.33-14.87-.32-3.17.01-5.28 1.54-6.19 4.76-2.35 8.35-4.94 16.63-7.19 25.01-1.4 5.21-2.27 10.55-3.51 15.81-1.13 4.8.18 9.06 2.73 12.98 3.47 5.34 3.22 7.59-1.79 12.08-.19-.04-.45-.02-.57-.14-4.36-4.32-5.85-4.33-10.52-.08-1.09 1-2.15 2.05-3.34 2.92-4.2 3.07-10.29 2.87-14.11-.58-.65-.59-.89-1.83-.99-2.81-1.66-16.55-3.32-33.11-4.88-49.67-2.06-21.93.61-43.62 4.17-65.17 2.35-14.19 5.83-28.19 8.69-42.3.53-2.64 1.62-3.29 4.3-2.91 17.2 2.42 26.1 14.05 24.57 31.3-.76 8.52-.3 17.16-.18 25.75.01.88 1.32 2.25 2.27 2.51 5.19 1.4 10.42 3.35 15.69 3.57 11.63.47 23.29.02 34.94-.09 2.97-.03 5.93-.31 8.89-.31 58.85-.02 117.7-.04 176.55.06 2.77 0 4.08-.75 5.05-3.35 3.75-10.07 5.63-20.37 4.74-31.14-1.03-12.42 4.68-18.99 18.51-21.47 8.95-1.6 8.95-1.61 13.92 5.95.99 1.51 1.95 3.03 2.89 4.57 1.79 2.94 2.84 5.46.69 9.21-1.83 3.2-2.22 7.52-2.29 11.36-.13 6.66.66 13.34.72 20.01.06 6.45-.37 12.89-.47 19.34-.03 2.06-.08 4.28.58 6.18 3.73 10.79 5.99 21.86 6.46 33.25.55 13.22-3.42 25.32-10.17 36.49-1.2 1.99-4.11 2.87-6.01 4.52-5.26 4.56-11.57 5.76-18.21 6.24-1.89.14-2.82-.29-3.52-2.13-4.28-11.23-5.67-22.84-4.1-34.68 1.44-10.85.92-21.2-5.73-30.39-2.28-3.15-5.1-5.88-7.81-8.95z" fill="#010100"/></svg>