<svg enable-background="new 0 0 400 400" viewBox="0 0 400 400" xmlns="http://www.w3.org/2000/svg"><path d="m374.8 390.4.4-.4c.7.5 1.3 1 1.8 1.4l-.5.5c-.5-.6-1.1-1.1-1.7-1.5zm1 7.3-.6-.3c.5-1.4 1.1-2.8 1.5-4.3.2.1.4.2.6.3-.5 1.3-1 2.8-1.5 4.3zm-.4-10.3.4-.4c.4.3 1 .8 1.7 1.4l-.5.5c-.4-.5-1-1-1.6-1.5zm2.5.3h1.7v-1h.6v1h3.5v-1h.6v1h1.8v.5h-1.8v1.4h-2v1h3.2v2h-3.2v.9h3.3v.5h-3.4c0 .3-.1.6-.1.9h4v.5h-3.7c.7.9 1.9 1.5 3.8 1.7-.1.2-.2.4-.3.6-2.1-.4-3.5-1.1-4-2.1-.4 1-1.8 1.7-4 2.2-.1-.2-.2-.4-.3-.6 2.1-.4 3.4-1 3.8-1.8h-3.4v-.5h3.6c.1-.3.1-.6.2-.9h-3.3v-.5h3.4c0-.3 0-.6 0-.9h-3.2v-2h3.3v-1h-2.1v-1.4h-1.7v-.5zm1.1 3.5v1h2.7c0-.3 0-.4 0-.4 0-.1 0-.2 0-.2 0-.1 0-.2 0-.3h-2.7zm1.2-3v.9h3.5v-.9zm4.7 3h-2.6v.6.4h2.6z" fill="#fbfafc"/><path d="m393.6 386.7h.6v1.5h2.7v6.1h1.1v.6h-11v-.6h1.1v-6.1h2.7v-1.5h.6v1.5h2.1v-1.5zm-2.7 8.8.4.6c-1.2.6-2.5 1.3-3.8 1.9-.1-.2-.2-.4-.3-.6 1.2-.6 2.5-1.2 3.7-1.9zm-2.2-6.7v2.4h2.1v-2.4zm0 3v2.5h2.1v-2.5zm2.8-3v2.4h2.1v-2.4zm0 3v2.5h2.1v-2.5zm6 6.1c-1.4-.7-2.7-1.3-3.9-1.8l.3-.6c1.5.6 2.7 1.2 3.9 1.7zm-1.2-9.1h-2.1v2.4h2.1zm-2.1 3v2.5h2.1v-2.5z" fill="#fbfafc"/><path d="m85.24 184.98c-1.27 4.31.11 7.59 3.7 10.34-8.13 4.28-8.57 10.98-7.33 18.7 1.21 7.5 2.13 15.13 2.24 22.72.3 21.21 0 42.42.15 63.63.06 8.79.91 17.58.98 26.37.1 12.07-5.24 21.83-14.06 29.69-3.1 2.76-7.33 2.92-11.21 1.85-3.64-1-7.13-2.62-10.58-4.18-.93-.42-1.7-1.54-2.21-2.52-5.59-10.65-8.29-21.99-7.56-34.01 1.14-18.89.19-37.64-1.68-56.49-1.85-18.63-2.05-37.45-2.52-56.19-.52-20.56-.36-41.13-.83-61.69-.17-7.18-1.67-14.32-1.98-21.5-.29-6.71 1.09-13.22 3.82-19.48 4.9-11.26 9.47-22.66 14.32-33.94.61-1.42 1.87-2.83 3.2-3.63 17.2-10.27 36.03-14.4 55.87-14.65 12.29-.16 24.59-.24 36.88-.59 4.3-.12 8.66-.6 12.85-1.54 4.68-1.04 9.05-1.66 13.97-.64 10.49 2.17 21.25 1.84 31.45-1.37 7.21-2.27 14.29-2.43 21.57-2.11 25.83 1.12 51.66 2.29 77.49 3.35 8.46.35 16.94.33 25.4.72 3.24.15 6.55.66 9.65 1.6 5.82 1.76 9.86 5.06 11.64 11.58 2.27 8.34 5.88 16.31 8.78 24.49.62 1.74 1.04 3.71.92 5.54-2.14 31.66-2.62 63.37-1.97 95.07.4 19.17 1.85 38.32 2.92 57.47.49 8.79 1.21 17.56 1.78 26.34.06.94.07 1.97-.25 2.82-4.62 12.36-4.66 25.29-4.94 38.21-.24 10.92-2.54 21.42-6.39 31.62-.64 1.69-1.45 2.52-3.29 2.81-4.5.71-9.01 1.47-13.4 2.65-2.44.66-3.47-.24-4.49-2.09-3.38-6.15-5.14-12.82-5.58-19.72-.84-13.12-1.28-26.26-1.92-39.39-.51-10.59-.92-21.19-1.66-31.76-.47-6.74-.29-13.27 2.32-19.65.6-1.47.25-3.45-.03-5.13-.93-5.61-3.09-11.24-2.87-16.78.56-14.35-1.3-28.32-4.29-42.24-.35-1.62-.37-3.36-.25-5.03.52-7.3.84-14.63 1.82-21.86.88-6.48.04-12.67-1.62-18.83-2.33-8.65-3.56-17.45-3.62-26.37-.03-4.04-1.79-6.68-4.87-8.97-6.57-4.89-13.85-5.38-21.51-3.8-9.89 2.04-19.7 1.84-29.67.09-3.99-.7-8.64-.4-12.42.98-7.28 2.66-14.62 1.79-21.98 1.98-30.72.79-61.44 1.9-92.16 2.27-11.39.14-21.36 4.86-31.97 7.49-2.95.73-6.81 1.14-8.38 3.16-1.58 2.04-.89 5.88-1.11 8.93-.58 8.04-1.01 16.09-1.7 24.11-.43 4.95-.36 9.75 2.38 14.09 3.56 5.63 3.66 11.19.01 16.81-.4.61-.52 1.4-.9 2.03-1.85 3-1.88 5.9.31 8.75.38.49.58 1.13.86 1.7 1.71 3.47.01 6.22-4.08 6.19z" fill="#010000"/></svg>