<svg enable-background="new 0 0 400 400" viewBox="0 0 400 400" xmlns="http://www.w3.org/2000/svg"><path d="m286.22 185.77c-7.71-4.09-12.74-12.27-18.29-19.78-9.1-12.32-19.18-23.75-29.99-34.55-12.6-12.58-25.38-24.97-38.26-37.25-2.31-2.2-5.49-3.52-8.34-5.13-1.69-.95-3.03-.47-4.4 1.04-4.84 5.34-9.93 10.45-14.75 15.81-3.58 3.98-7.51 7.38-12.29 9.87-1.19.62-2.34 2.24-2.58 3.57-.83 4.58-2.92 8.22-6.5 11.2-13.47 11.21-21.46 26.63-31.01 40.82-8.04 11.95-15.72 24.15-23.68 36.16-2.28 3.44-4.6 6.98-7.54 9.8-4.14 3.97-6.88 8.48-7.97 14.04-.5 2.55-1.99 3.81-4.45 3.23-4.81-1.13-9.56-2.53-14.33-3.84-.28-.08-.55-.31-.75-.54-2.61-2.97-3.15-13.6-1.11-17.01 6.24-10.44 13.79-19.78 22.8-27.97 1.18-1.08 2.15-2.67 2.62-4.2 1.32-4.33 3.84-7.87 6.35-11.58 11.22-16.57 21.92-33.49 33.22-50 9.63-14.06 19.82-27.74 29.77-41.59 10.6-8.03 14.91-20.57 22.22-30.96 2.44-3.46 5.22-6.68 7.77-10.06 1.13-1.5 2.3-1.76 4.1-1.15 4.2 1.43 8.47 2.72 12.76 3.85 1.79.47 2.73 1.28 3.06 3.08 2.47 13.71 11.44 23.61 20.93 32.49 16.7 15.63 30.97 33.07 43.32 52.22 1.11 1.72 2.82 3.06 4.27 4.55.95.97 2.07 1.81 2.92 2.86 9.13 11.41 18.36 22.75 27.28 34.33 4.25 5.51 7.88 11.51 11.84 17.25 6.44 9.33 12.69 18.8 19.53 27.83 2.74 3.62 2.13 7 1.61 10.72-.04.31-.14.64-.31.89-3.25 4.69-13.41 6.25-17.2 2.19-9.17-9.84-18.08-19.92-27-29.99-1.52-1.72-2.73-3.8-3.73-5.89-.84-1.67-1.12-3.6-1.89-6.31z" fill="#010105"/><path d="m113.72 359.09c-3.57-1.1-6.9-2.13-10.22-3.16-.4-.13-.92-.21-1.15-.5-3.83-4.85-8.88-8.91-10.06-15.49-.4-2.22.03-3.95 1.6-5.76 6.95-8 13.71-16.16 20.54-24.27.75-.89 1.75-1.69 2.18-2.72 4.51-10.91 13.64-18.19 20.93-26.92 19.59-23.43 37.89-47.82 54.91-73.2 2.11-3.14 5.95-5.18 9.2-7.43.72-.5 2.64-.1 3.47.56 3.71 2.94 7.65 5.75 10.71 9.3 4.34 5.04 8.19 10.55 11.84 16.13 5.73 8.75 12.38 16.6 20.44 23.31 2.15 1.79 4.11 4.06 5.49 6.49 5.19 9.17 12.6 16.47 19.7 24.02 4.03 4.28 7.65 8.77 10.08 14.14 5.9 13.06 15.87 23.18 24.64 34.17 1.98 2.48 3.63 5.22 5.62 7.69 3.75 4.65 4.18 10.03 3.65 15.61-.09.99-.93 2.02-1.66 2.82-3.1 3.42-6.38 6.69-9.4 10.17-2.42 2.8-5.17 3.89-8.72 2.65-.82-.29-1.82-1.28-1.98-2.09-2.08-10.21-8.18-18.01-14.36-26.06-11.54-15.03-22.15-30.77-33.53-45.93-5.64-7.52-12.07-14.44-18.23-21.56-5.53-6.4-11.22-12.67-16.75-19.08-2.91-3.38-6.05-6.26-10.74-6.7-.92-.09-2.06-.19-2.76.25-4.24 2.67-8.77 4.79-11.25 9.8-7.48 15.14-19.1 27.42-29.02 40.87-13.26 17.99-26.7 35.85-39.96 53.85-1.99 2.68-3.38 5.82-5.21 9.04z" fill="#010105"/><g fill="#fafbfa"><path d="m377.9 391.2c-.2.3-.4.5-.6.8-.7-.6-1.4-1-2.2-1.5.2-.3.4-.5.5-.8.6.4 1.4.8 2.3 1.5zm-1.8 6.1c-.2-.2-.5-.4-.9-.6.4-.6.8-1.2 1.2-1.9s.7-1.3.9-1.9c.3.3.5.5.8.7-.7 1.3-1.4 2.6-2 3.7zm2.2-9c-.3.3-.5.5-.6.8-.6-.6-1.3-1.1-2-1.5.3-.3.5-.5.6-.7.6.5 1.3.9 2 1.4zm.3.2v-.9h2 4.5c-.3 1.3-.6 2.5-1 3.6s-.9 2.1-1.4 3c.4.5 1 1 1.6 1.4s1.2.8 1.9 1.1c-.3.2-.5.4-.8.8-.4-.3-1-.7-1.6-1.2s-1.2-1.1-1.6-1.6c-.5.6-1.1 1.1-1.7 1.6s-1.4.9-2.1 1.4c-.1-.3-.3-.5-.7-.8.6-.2 1.2-.5 1.9-1s1.4-1.1 2-1.8c-.5-.8-.9-1.6-1.2-2.5s-.6-2-.8-3.2c-.4.1-.7.1-1 .1zm2.5 2.7c.3 1 .7 1.7 1 2.2.3-.5.6-1.1 1-2s.6-1.9.9-3h-3.2-.4c.1.9.3 1.8.7 2.8z"/><path d="m396.5 388.5v1.5 3.6h1.5v.9c-.4 0-1 0-1.7 0h-7.9c-.5 0-.9 0-1.2 0v-.9h1.3v-3.5c0-.7 0-1.2 0-1.6h2.4c0-.8 0-1.4 0-1.7h1c0 .3-.1.8-.1 1.7h1.5c0-.8 0-1.4 0-1.7h1c0 .3-.1.9-.1 1.7zm-8.2 9.2c-.2-.3-.5-.5-.8-.8.8-.3 1.4-.6 1.9-.9s1-.7 1.4-1.1c.3.3.6.5.9.8-1.6 1-2.8 1.6-3.4 2zm2.6-6.8v-1.6h-1.5v1.6zm0 2.7v-1.9h-1.5v1.9zm2.4-2.7v-1.6h-1.5v1.6zm0 2.7v-1.9h-1.5v1.9zm.2 2 .7-.8c.4.2.9.5 1.6.8s1.3.7 1.8 1c-.3.3-.5.5-.8.8-.4-.3-1.5-1-3.3-1.8zm2-4.7v-1.6h-1.4v1.6zm0 2.7v-1.9h-1.4v1.9z"/></g></svg>