<svg enable-background="new 0 0 400 400" viewBox="0 0 400 400" xmlns="http://www.w3.org/2000/svg"><path d="m31.1 325.86c13.57-5.41 26.24-10.5 38.93-15.52 18.7-7.4 37.37-14.87 56.16-22.05 3.49-1.33 5.6-3.42 7.23-6.53 4.12-7.86 5.86-16.37 6.33-25.08.92-16.91-.12-33.68-4.75-50.09-.06-.2-.1-.41-.15-.62-1.74-6.57-4.64-12.25-11.37-15.07-.96-.4-1.9-1.01-2.67-1.72-5.75-5.3-12.65-6.1-20.06-5.57-5.28.38-10.59.37-15.89.3-8.09-.1-13.48-4.82-14.76-12.61-.24-1.46-.28-2.48 1.61-3.1 51.12-16.65 102.21-33.4 153.33-50.03 6.74-2.19 13.65-3.87 20.52-5.62 1.55-.39 3.37-.4 4.93-.01 9.65 2.43 19.19 5.29 28.9 7.47 8.46 1.89 14.64 6.87 20.07 13.13 6.82 7.86 9.33 17.36 10.34 27.48 1.15 11.57 1.71 23.25-.99 34.5-2.2 9.16-6.44 17.84-9.86 26.7-2.51 6.51-5.22 12.93-7.66 19.47-.6 1.62-.49 3.51-.76 5.67 3.98.29 7.64.45 11.27.84 8.2.88 16.39 1.91 24.59 2.78 2.4.25 4.84.11 7.26.27 7.16.47 14.38.61 21.47 1.64 5.97.86 8.51 4.2 8.12 10.22-.33 5.02-1.49 10.01-2.61 14.94-.23 1.03-1.76 2.01-2.91 2.55-8.3 3.92-17.19 5.18-26.24 5.53-12.49.48-25.05.22-37.46 1.5-12.82 1.32-25.52 3.91-38.21 6.29-35.52 6.67-70.64 15.03-104.96 26.4-12.32 4.08-24.07 9.88-36.06 14.95-5.85 2.48-11.79 4.79-17.43 7.69-12.44 6.39-25.18 6.46-37.85 1.61-8.16-3.13-15.98-7.25-23.65-11.47-2.05-1.11-3.02-4.24-4.76-6.84zm134.02-52.26c2.14-.26 3.4-.32 4.63-.57 17.76-3.5 35.57-6.79 53.25-10.62 12.33-2.67 24.35-6.48 35.23-13.21 2.96-1.83 5.15-4.06 6.59-7.38 7.83-18.12 14.4-36.67 18.73-55.92 3.77-16.76 1.73-32.68-8.95-46.77-.86-1.14-2.35-2.16-3.72-2.5-6.06-1.49-12.18-2.75-18.31-3.98-1.39-.28-2.94-.32-4.32-.02-8.9 1.93-17.73 4.18-26.66 5.92-7.27 1.42-13.89 4.15-20.25 7.89-14.34 8.42-29.01 16.21-44.78 21.75-5.19 1.83-10.21 4.11-15.38 6.02-2.1.78-2.51 2.1-1.25 3.54 1.91 2.18 3.94 4.44 6.37 5.92 4.89 2.98 8.67 6.51 10.26 12.28 1.17 4.27 2.75 8.49 4.71 12.46 3.77 7.63 4 15.71 3.73 23.89-.3 9.11-.95 18.21-1.07 27.32-.04 4.53.75 9.03 1.19 13.98z" fill="#000001"/><path d="m275.39 72.78c-4.9.4-9.84 1.1-14.79 1.15-11.69.11-22.81 3.06-33.95 6.12-11.84 3.25-23.85 5.95-35.54 9.67-7.72 2.46-15.02 6.25-22.48 9.53-6.59 2.9-13.14 5.87-19.67 8.92-1.5.7-2.93 1.7-4.18 2.79-3.58 3.14-7.05 6.41-10.83 9.87-1.8-1.02-3.9-1.74-5.36-3.13-6.29-6-13.84-9.61-21.9-12.5-7.25-2.6-11.75-7.71-13.04-15.99.96-.27 1.97-.64 3.01-.85 8.29-1.73 16.59-3.4 24.88-5.18 1.74-.37 3.5-.91 5.09-1.68 24.07-11.67 49.62-18.24 75.97-21.91 9.44-1.31 18.94-2.19 28.43-3.02 3.12-.27 6.32.17 9.47.37 7.08.45 14.14 1.11 21.23 1.4 9 .37 14.32 5.77 13.66 14.44z" fill="#000001"/><g fill="#fafbfa"><path d="m37.59 393.81c-.92.31-1.52.05-2-.78-.7-1.2-1.52-2.34-2.47-3.78v4.59c-.55.03-.95.05-1.41.07-.03-.37-.06-.64-.06-.91 0-1.91 0-3.81 0-5.7 1.13-.41 1.77-.03 2.29.91.62 1.11 1.38 2.14 2.31 3.19v-4.2h1.35v6.61z"/><path d="m12.94 393.88v-6.75c1.9.19 3.93-.54 5.37 1.29.8 1.01.78 2.88.03 3.97-1.37 1.97-3.4 1.51-5.4 1.49m1.45-1.22c2.04.12 2.92-.58 2.89-2.21-.03-1.51-.98-2.19-2.89-2z"/><path d="m11.81 393.87h-5.49c.68-2.18 2.47-3.48 3.51-5.45h-3.08v-1.21h5.29c-.71 2.13-2.44 3.48-3.47 5.51.86 0 1.63.04 2.39-.01.79-.05 1.14.21.85 1.16"/><path d="m39.33 393.86v-6.61h3.7v1.07h-2.22v1.52c.68.04 1.34.09 2.07.13v1.07c-.72.05-1.38.09-2.1.14v1.48h2.4v1.19h-3.85z"/><path d="m27.71 388.56c-1.15-.3-2.46-.61-3.1.64-.37.73-.41 1.93-.06 2.67.63 1.35 1.99.93 3.17.68.35.94-.01 1.32-.93 1.46-1.62.25-3.05-.27-3.76-1.48-.73-1.24-.6-3.03.31-4.17.88-1.11 2.71-1.7 4-1.16.32.13.44.74.65 1.12-.1.08-.19.16-.28.24"/><path d="m49.15 387.24v1.07c-.59.02-1.17.05-1.87.08v5.44h-1.48v-5.44h-1.85c-.05-.4-.08-.73-.13-1.15z"/><path d="m20.06 387.21h1.33v6.62h-1.33z"/><path d="m30.68 393.25c-.49.38-.8.79-1.05.76-.32-.05-.6-.45-.9-.7.26-.24.51-.64.8-.67.29-.04.62.3 1.15.61"/></g></svg>