<svg enable-background="new 0 0 400 400" viewBox="0 0 400 400" xmlns="http://www.w3.org/2000/svg"><path d="m362.1 8.8c1.1.8 2.1 1.6 3.1 2.4l-1 1.1c-1.3-1.1-2.3-2-3-2.5zm1.9 4.8c.5.2.9.4 1.4.5-.6 2.3-1.3 4.5-1.9 6.8l-1.5-.5c.8-2.1 1.4-4.3 2-6.8zm-1-9.4c1.3.9 2.4 1.8 3.4 2.5l-1 1.1c-1.4-1.2-2.4-2.1-3.2-2.6zm3.7 2.2v-1.4h10.3v1.2c-.5 3.6-1.8 6.8-4 9.4 1.5 1.6 3.4 2.8 5.7 3.8-.3.4-.7.8-1.1 1.4-2.3-1.1-4.1-2.5-5.6-4.1-1.6 1.6-3.6 3.1-5.9 4.3-.3-.5-.7-.9-1-1.3 2.4-1.1 4.4-2.5 6-4.1-1.9-2.5-3-5.6-3.3-9.3h-1.1zm8.8 0h-6.4c.3 3.3 1.3 6 3 8.2 2-2.3 3.1-5.1 3.4-8.2z" fill="#fbfcfa"/><path d="m385.3 3.8h1.3v2.2h2.8v-2.2h1.3v2.2h4.1v9.1h1.7v1.3h-16.9v-1.3h1.7v-9.1h4.1v-2.2zm.4 13.1.7 1.2c-1.8.9-3.8 1.9-6 2.9-.2-.4-.5-.8-.8-1.3 2.3-1 4.3-1.9 6.1-2.8zm-3.1-6.4h2.8v-3.2h-2.8zm0 4.6h2.8v-3.3h-2.8zm4-4.6h2.8v-3.2h-2.8zm0 4.6h2.8v-3.3h-2.8zm3.7 1.9c2.1.9 4.1 1.8 6.1 2.7l-.7 1.3c-2.2-1.1-4.2-2-6.1-2.9zm3.2-9.7h-2.8v3.2h2.8zm-2.8 7.8h2.8v-3.3h-2.8z" fill="#fbfcfa"/><path d="m133.29 296.14c-2.27 0-4.67.47-6.8-.09-5.87-1.53-11.84-2.63-16.91-6.69-4.29-3.43-9.49-5.51-15.69-5.99 0 4.69-.84 9.41.18 13.68 2.12 8.87 3.75 18.31 11.45 24.56 5.58 4.53 9.09 10.46 12.74 16.43 2.41 3.94 5.25 7.69 8.35 11.13 3.64 4.04 6.35 8.97 11.54 11.62 1.39.71 1.86 3.22 2.44 5.12-6.72-1.81-13.2-3.23-17.9-8.9-4.43-5.35-10.29-9.51-13.27-16.08-.17-.38-.43-.9-.75-.99-6.03-1.66-6.26-8.07-9.74-11.81-3.69-3.97-5.73-8.83-7.46-13.87-.89-2.6-1.89-5.17-2.98-7.7-2.86-6.66-4.45-13.4-4.46-20.85-.02-19.13-.85-38.26-1.36-57.39-.1-3.68.22-7.53-3.68-9.79-.25-.15-.6-.51-.56-.73.58-3.99-2.51-6-4.57-8.58-.25-.32-.56-.76-.53-1.11.43-5.61-1.95-10.43-3.91-15.46-.92-2.35-.9-5.25-.65-7.83.94-9.48 3.26-18.73 8.79-26.53 2.72-3.84 6.93-6.85 10.96-9.48 5.04-3.29 10.58-5.79 15.9-8.65 3.97-2.13 4.32-6.52 6.15-9.98.15-.28-.31-.97-.6-1.39-2.58-3.82-3.51-8.11-3.73-12.64-.06-1.26-.28-2.53-.59-3.76-1.19-4.72-2.65-5.86-7.49-5.64-11.64.52-23.28 1.08-34.92 1.67-4.96.25-9.51-1.81-11.15-5.47 6.55-.88 13-1.76 19.45-2.61 11.24-1.48 22.48-2.93 33.72-4.41 3.06-.4 3.78-1.86 2.91-5.03-2.13-7.71-7.75-10.48-15.1-11.04-4.46-.34-8.87-1-12.46-4.07-.46-.39-.84-.87-1.69-1.76 3.06-.19 5.57-.38 8.09-.48 2.22-.09 4.46.03 6.68-.14 5.23-.4 6.91-3.37 4.39-8.04-3.28-6.05-6.47-12.2-10.34-17.87-1.33-1.95-4.44-2.95-6.94-3.8-3.74-1.27-4.94-1.97-6.6-5.7 5.1-1.34 9.92-3.38 15.4-2.9 14.35 1.23 28.73 2.05 43.05 3.49 5.1.51 10.08 2.29 15.09 3.58 2.13.55 2.56 2.23 2.47 4.23-.09 2.17-1.67 2.12-3.13 2.34-.42.07-.84.2-1.26.19-4.27-.08-6.13 2.17-6.51 6.27-.13 1.39-1.2 2.66-1.67 4.04-1 2.97-1.96 5.96-2.81 8.98-.86 3.05.69 4.63 3.55 5.03 2.82.39 5.67.65 8.51.79 2.68.13 4.82 1.04 6.7 3.69-5.28.51-10.07 1.05-14.88 1.42-5.05.39-8.85 2.35-10.67 7.42-1.46 4.08-3.1 8.1-4.74 12.11-.7 1.72-.32 2.92 1.03 4.19 2.62 2.47 5.12 5.08 7.58 7.71 4.32 4.63 6.37 10.16 6.36 16.48 0 3.71-.22 7.44.1 11.13.14 1.57 1.01 3.68 2.23 4.41 2.47 1.48 5.37 2.92 8.16 3.07 11.49.62 22.17 4.45 33.05 7.54 6.62 1.88 13.25 3.75 19.79 5.87 3.51 1.14 6.93 1.57 10.57.94 6.52-1.13 13.06-1.54 19.46-4.02 7.64-2.97 16.02-2.48 24.39-2.15.11.77.25 1.35.28 1.95.02.51-.09 1.02-.17 1.81-7.71 1.04-15.35 2.19-23.01 3.04-2.19.24-4.54-.14-6.71-.67-2.44-.6-3.35 1.01-4.11 2.53-.74 1.49-1.64 3.05.55 4.67 9.1 6.75 18.94 8.03 29.82 5.41 6.34-1.53 12.94-2.06 19.45-2.78 1.71-.19 3.52.6 5.26 1.32-3.01 2.32-5.8 4.21-9.73 4.25-3.86.04-7.77.92-11.54 1.87-1.21.31-2.08 2.02-3.1 3.08 1.13.68 2.23 1.43 3.4 2.02 1.02.51 2.34.58 3.18 1.27 9.93 8.15 22.11 11.87 33.45 17.28 6.15 2.93 12.65 2.05 18.96 3.06 7.32 1.17 14.71 1.92 21.99 3.28 3.11.58 6.03 2.23 8.92 3.96-11.01 4.76-22.37.46-33.54 1.99-.23 1.76-.46 3.52-.62 4.66 6.36 3.6 12.37 6.99 18.36 10.43.5.29.88.89 1.15 1.43 1.88 3.77 3.72 7.56 5.69 11.58-1.59 2.05-3.31 2.66-6.01.62-5.23-3.94-11.07-7.1-14.6-12.98-.6-1-1.97-1.52-2.96-2.29-1.74-1.35-3.89-2.43-5.1-4.16-3.15-4.51-7.89-5.68-12.68-7-4.71 7.07.63 15.74-4.05 23.27-3.35-5.58-7.72-10.09-6.9-17.13.47-4.05.06-8.24-.31-12.34-.26-2.9-2.08-4.9-4.76-6.28-14.21-7.33-28.37-14.76-42.55-22.16-.66-.34-1.29-.85-1.99-.97-10.46-1.83-18.91-8.36-28.56-12.07-3.71-1.43-7.71-2.07-11.52-3.25-1.52-.47-2.88-1.42-4.31-2.17-1.06-.55-2.2-1.72-3.14-1.57-7.45 1.21-14.57-.96-21.7-2.22-10.51-1.86-20.94-4.26-31.31-6.8-3.64-.89-7.2-2.53-10.46-4.41-3.76-2.17-7.44-2.09-11.32-1-12.72 3.58-22.12 11.48-28.42 22.86-3.72 6.71-3 14.39-3.02 21.8 0 .29.16.62.32.87 4.06 6.37 5.93 13.5 7.45 20.81.69 3.34 3 5.66 6.36 6.46 5.06 1.2 9.98 1.66 14.17-2.64 2.35-2.42 5.27-4.27 7.77-6.56 1.55-1.41 3.24-2.94 4.08-4.78 2.27-4.92 3.42-9.68-3.06-13.26-2.59-1.43-5.3-2.64-7.96-3.91-3.81-1.83-7.56-3.8-11.47-5.37-2.2-.88-4.69-1.01-7.01-1.63-1.78-.48-3.5-1.21-5.17-2.31 4.11-3.98 8.69-6.42 13.93-4.76 8.83 2.8 17.65 5.65 25.01 11.89 6.37 5.39 6.28 13.2 5.15 19.5-.15.84-1.05 1.55-1.6 2.32-3.26 4.57-6.52 9.13-9.76 13.71-1.25 1.77-.86 3.2 1.07 4.08 3.07 1.39 6.09 3.14 9.32 3.9 10 2.34 19.28 6.27 28.14 11.4 5.22 3.02 10.66 5.67 15.97 8.53 1.11.6 2.4 1.17 3.12 2.13 2.76 3.66 6.6 4.25 10.74 4.2 1.27-.02 2.59.1 3.81-.17 9.93-2.21 19.31.23 28.59 3.35 1.21.41 2.14 1.64 3.2 2.48-.15.47-.3.94-.44 1.42-4.88.54-9.75 1.19-14.64 1.6-3.11.26-3.87.88-3.02 3.88.57 2 1.51 3.96 2.63 5.72.37.59 1.8.51 2.74.73 1.14.27 2.52.22 3.37.87 2.02 1.53 3.9 3.28 5.64 5.13 4.3 4.57 9.65 6.26 15.76 6.2 5.83-.06 11.66-.1 17.49.02 2.32.05 4.74.38 5.53 3.54-4.1 2.29-8.5 2.86-13.12 2.61-2.11-.11-4.85-1.13-5.95 1.54-1.16 2.81.56 4.99 2.61 6.92 2.78 2.61 5.49 5.31 8.13 8.06 3.29 3.43 5.42 7.5 6.58 12.15-2.58 1.65-4.65 1.23-6.76-.83-2.2-2.14-4.84-3.83-6.97-6.02-1.63-1.67-2.8-3.79-4.12-5.75-.46-.69-.65-2.09-1.12-2.16-5.92-.93-7.58-7.11-12.26-9.72-5.36-2.98-9.46-7.61-13.67-12.17-4.26-4.62-10.28-7.58-14.64-12.13-7.67-7.99-17.49-12.04-27.18-16.4-12.54-5.65-25.03-11.49-37.86-16.41-6.8-2.6-13.76-4.61-20.19-8.21-2.25-1.26-5.33-1.06-8.05-1.41-3.15-.41-6.32-.84-9.48-.92-.81-.02-2.35 1.23-2.36 1.91-.01 2.16.21 4.45.96 6.47 1.25 3.37 1.14 6.48.75 10.09-.63 5.8.42 11.79.92 17.68.05.58 1.15 1.14 1.84 1.59 5.15 3.36 10.24 6.81 15.51 9.97 2.39 1.43 5.15 2.26 7.74 3.34.68.28 1.56.32 2.05.78 4.99 4.66 9.91 9.38 14.86 14.09-.13.22-.28.45-.44.68zm-18.41-253.1c-2.74.46-5.25.74-7.68 1.35-1.72.43-2.7 1.61-1.93 3.59.91 2.35 1.77 4.73 2.67 7.09 1.53 4.01 3.26 7.96 4.54 12.05.77 2.46.98 5.04 4.08 5.73 2.69.6 6.54-.78 7.5-3.51 2.02-5.73 3.65-11.61 5.11-17.52.78-3.14-1.05-5.41-3.99-6.31-3.38-1.05-6.91-1.68-10.3-2.47zm6.14 86.85c6.36-3.43 6.17-6.74 4.21-10.27-1.77-3.19-4.72-5.72-7.57-9.03-2.64 7.67-1.08 13.62 3.36 19.3z" fill="#010101"/></svg>