<svg enable-background="new 0 0 400 400" viewBox="0 0 400 400" xmlns="http://www.w3.org/2000/svg"><path d="m165.24 266.26c1.47-5.76 2.58-11.31 6.67-16.17 5.33-6.34 9.19-13.91 13.87-20.82 2.96-4.36 5.88-8.85 9.49-12.63 6.4-6.7 8.36-14.53 5.36-22.83-2.85-7.89-3.72-15.74-3.39-23.93.04-1.07-.25-2.4-.89-3.22-3.62-4.65-4.85-10.06-5.29-15.72-.79-10.14-1.71-20.28-2.14-30.43-.35-8.24 1.49-16.28 4.39-23.93 4.32-11.38 9.13-22.57 13.76-33.83.27-.67.67-1.36 1.2-1.83 5.13-4.52 8.17-10.46 11.39-16.32 1.85-3.37 4.34-6.38 6.81-9.94 3.09 4.06 3.62 7.68 2.38 11.68-1.97 6.39-4.46 12.48-8.28 18.09-9.32 13.7-15.81 28.71-19.63 44.85-2.73 11.57-1.45 23.19-.22 34.79 1.53 14.39 4.45 28.44 10.58 41.68 2.25 4.86 2.25 10.04 1.63 15.29-.11.93.56 2.46 1.33 2.91 3.91 2.29 6.28 5.58 7.27 9.94 2.83 12.38 6.32 24.64 8.36 37.15 4.18 25.65 2.29 50.74-9.83 74.3-1.95 3.79-4.86 7.11-7.45 10.55-4.59 6.08-9.13 12.22-14 18.07-2.95 3.54-6.29 6.84-9.87 9.73-1.93 1.56-4.72 2.04-7.13 3.01-.37-.28-.74-.56-1.11-.84.5-1.47.62-3.27 1.57-4.34 5.37-6.02 9.16-12.88 12.09-20.37 1.64-4.2 3.66-8.37 6.19-12.08 12.75-18.68 18.01-39.36 16.6-61.74-.6-9.49-1.78-18.99-3.35-28.37-.61-3.62-2.81-7.06-4.7-10.33-1.52-2.63-4.8-2.35-6.92-.1-10.83 11.48-21.73 22.9-32.65 34.3-1.22 1.26-2.72 2.29-4.09 3.43z" fill="#010000"/><g fill="#fafafb"><path d="m361.2 9.6.8-1c.9.7 1.9 1.4 2.9 2.3l-.9 1.1c-1-1-2-1.8-2.8-2.4zm.5 10.6c.9-2.1 1.6-4.3 2.3-6.7.4.2.8.4 1.3.6-.7 2.1-1.5 4.3-2.2 6.6zm.4-15.2.9-.9c1 .8 2 1.6 2.8 2.4l-1 1c-.9-.9-1.8-1.7-2.7-2.5zm12.5-1.2h1.2v1.4h2.7v1.1h-2.7v2.7h-1.2v-.6h-1.8v1.3h4.9v3.8h-1.2v-.5h-3.7c0 .4-.1.9-.1 1.2h5.1v1h-5.2c0 .5-.1.9-.2 1.2h6v1h-5.2c1.1 1.3 2.9 2 5.5 2.2-.4.4-.7.8-.9 1.3-2.9-.5-4.8-1.6-5.7-3.5h-.1c-.8 1.7-2.7 2.9-5.9 3.6-.2-.4-.6-.8-.9-1.1 2.8-.6 4.6-1.4 5.4-2.5h-4.8v-1h5.3c.1-.3.2-.7.2-1.2h-4.9v-1h5c0-.4 0-.8.1-1.2h-3.5v.5h-1.2v-3.8h4.9v-1.3h-1.8v.5h-1.2v-2.7h-2.7v-1h2.6v-1.4h1.2v1.4h4.7v-1.4zm-6.6 8.3h3.6c0-.4 0-.9 0-1.4h-3.6zm1.9-4.6h4.7v-1.3h-4.7zm6.6 3.2h-3.7v1.4h3.7z"/><path d="m385.3 3.8h1.3v2.2h2.8v-2.2h1.3v2.2h4.1v9.1h1.7v1.3h-16.9v-1.3h1.7v-9.1h4.1v-2.2zm.4 13.1.7 1.2c-1.8.9-3.8 1.9-6 2.9-.2-.4-.5-.8-.8-1.3 2.3-1 4.3-1.9 6.1-2.8zm-3.1-6.4h2.8v-3.2h-2.8zm0 4.6h2.8v-3.3h-2.8zm4-4.6h2.8v-3.2h-2.8zm0 4.6h2.8v-3.3h-2.8zm3.7 1.9c2.1.9 4.1 1.8 6.1 2.7l-.7 1.3c-2.2-1.1-4.2-2-6.1-2.9zm3.2-9.7h-2.8v3.2h2.8zm-2.8 7.8h2.8v-3.3h-2.8z"/></g></svg>