<svg enable-background="new 0 0 400 400" viewBox="0 0 400 400" xmlns="http://www.w3.org/2000/svg"><path d="m378.6 9.2.8-1c.9.7 1.9 1.4 2.9 2.3l-.9 1.1c-1.1-.9-2-1.7-2.8-2.4zm.5 10.7c.9-2.1 1.6-4.3 2.3-6.7.4.2.8.4 1.3.6-.7 2.1-1.5 4.3-2.2 6.6zm.4-15.2.9-.9c1 .8 2 1.6 2.8 2.4l-1 1c-1-.9-1.9-1.8-2.7-2.5zm12.5-1.3h1.2v1.4h2.7v1.1h-2.7v2.7h-1.2v-.5h-1.8v1.3h4.9v3.8h-1.2v-.5h-3.7c0 .4-.1.9-.1 1.2h5.1v1h-5.2c0 .5-.1.9-.2 1.2h6v1h-5.2c1.1 1.3 2.9 2 5.5 2.2-.4.4-.7.8-.9 1.3-2.9-.5-4.8-1.6-5.7-3.5h-.1c-.8 1.7-2.7 2.9-5.9 3.6-.2-.4-.6-.8-.9-1.1 2.8-.6 4.6-1.4 5.4-2.5h-4.8v-1h5.3c.1-.3.2-.7.2-1.2h-4.9v-1h5c0-.4 0-.8.1-1.2h-3.6v.5h-1.2v-3.8h4.9v-1.3h-1.8v.5h-1.2v-2.7h-2.6v-1.1h2.6v-1.4h1.2v1.4h4.7v-1.4zm-6.7 8.4h3.6c0-.4 0-.9 0-1.4h-3.6zm1.9-4.7h4.7v-1.2h-4.7zm6.7 3.3h-3.7v1.4h3.7z" fill="#fafbfc"/><path d="m384.7 21.4h1.3v2.2h2.8v-2.2h1.3v2.2h4.1v9.1h1.7v1.3h-16.9v-1.3h1.7v-9.1h4.1v-2.2zm.3 13.2.7 1.2c-1.8.9-3.8 1.9-6 2.9-.2-.4-.5-.8-.8-1.3 2.4-1 4.4-2 6.1-2.8zm-3.1-6.5h2.8v-3.2h-2.8zm0 4.6h2.8v-3.3h-2.8zm4.1-4.6h2.8v-3.2h-2.8zm0 4.6h2.8v-3.3h-2.8zm3.6 1.9c2.1.9 4.1 1.8 6.1 2.7l-.7 1.3c-2.2-1.1-4.2-2-6.1-2.9zm3.3-9.7h-2.8v3.2h2.8zm-2.8 7.8h2.8v-3.3h-2.8z" fill="#fafbfc"/><path d="m205.55 259.86c5.29-1.5 10.57-3.05 14.92-7.31 6.36-6.21 13.23-11.91 20.01-17.69 1.92-1.63 2.83-3.45 3.2-5.88 1.59-10.58 3.06-21.18 5.11-31.68.79-4.05 2.78-7.94 4.65-11.7 1.65-3.32 2.35-6.63 2.45-10.33.52-19.5 1.71-38.99 1.71-58.48 0-11.6-1.61-23.22-2.78-34.81-1.09-10.74-3.32-21.39-1.61-32.26.82-5.2 2.43-10.05 6.08-14.3 8.31 8.62 14.01 18.46 15.53 30.33 2.21 17.22 4.76 34.44 5.98 51.74.8 11.35-.35 22.86-.87 34.29-.54 11.96-.94 23.96-2.23 35.85-.94 8.58-3.23 17.01-4.95 25.49-.36 1.76-.98 3.48-1.24 5.25-2.04 14.1-10.91 24-20.74 33.14-7.53 7-15.64 13.36-23.31 20.21-5.28 4.72-11.22 8.22-17.56 11.28-3.75 1.81-7.17 4.38-10.5 6.92-1.85 1.42-2.38 3.58-1.25 5.96 2.34 4.97 2.12 10.03 1.31 15.44-.78 5.23-.1 10.7.06 16.06.25 8.25 1.09 16.51.8 24.74-.26 7.42-5.3 12.7-12.31 14.28-1.32-4.38-2.67-8.79-3.97-13.21-3.46-11.78-6.74-23.62-10.43-35.32-1.75-5.53-4.21-10.85-6.56-16.17-.32-.71-2.04-1.4-2.9-1.19-9.86 2.43-19.65 5.12-29.51 7.53-3.36.82-6.88 1.52-10.3 1.42-2.21-.06-4.82-1.18-6.45-2.69-3.28-3.01-2.64-5.79 1.46-7.17 10.03-3.37 20.13-6.51 30.2-9.74 6.21-2 12.13-4.5 16.51-9.63 2.64-3.09 3.92-6.44 3.58-10.74-.95-11.83-1.51-23.7-2.05-35.56-.1-2.28.64-4.59.98-6.88 1.1-7.54 2.1-15.09 3.32-22.61.37-2.25.95-4.64 2.13-6.54 1.92-3.1 4.66-2.74 6.48.35 5.52 9.36 8.38 19.66 10.36 30.19 2.19 11.71 7.16 22.03 14.69 31.42zm-30.38 22.83c-.58 2.26-1.1 4.26-1.7 6.61 3.66-1.82 3.72-2.1 1.7-6.61z" fill="#010104"/></svg>