<svg enable-background="new 0 0 400 400" viewBox="0 0 400 400" xmlns="http://www.w3.org/2000/svg"><path d="m213.97 260.4c2.22-.71 3.93-1.26 5.86-1.88-.41-.37-.64-.77-.95-.84-5.49-1.27-8.35-5.13-10.41-10.04-1.38-3.31-3.34-6.37-4.93-9.6-4.02-8.2-8.42-16.02-15.44-22.25-2.82-2.5-4.85-6.18-6.45-9.68-1.4-3.06-3.12-5.44-5.66-7.69-13.42-11.91-23.72-26.26-30.95-42.61-2.75-6.21-1.83-13.32-.14-19.76 3.39-12.88 7.46-25.58 11.29-38.34.64-2.13 1.49-4.19 2.16-6.31 1.44-4.54 3.34-8.7 6.28-12.63 2.71-3.64 4.27-8.23 5.87-12.57 1.73-4.69 4.03-8.8 8.23-11.69.95-.65 1.75-1.53 2.87-2.53-1.44-1.58-2.82-3.1-4.37-4.82 4.3-4.08 8.49-8.07 12.63-12 4.94 3 4.31 8.45-1.44 13.8 3.49 2.88 3.47 6.67 1.97 10.34-3.47 8.48-7.52 16.73-10.8 25.29-2.22 5.78-3.56 11.91-5.13 17.92-.15.57.7 1.67 1.36 2.13 2.6 1.82 5.28 3.55 7.99 5.2 2.08 1.26 2.89 2.81 2.26 5.31-.2.78.8 2.67 1.4 2.73 10.61 1.18 16.75 8.9 23.46 15.78 4.95 5.08 9.43 10.68 16.06 13.77 1.7.79 3.46 1.44 5.31 2.2 3.59-5.85 4.12-12.09 4.25-18.31.09-4.54-.46-9.09-.81-13.64-.51-6.66-1.38-13.38.97-19.83.94-2.57 2.74-4.83 4.43-7.72 4.03 6.04 5 11.83 4.31 18-.18 1.58-.21 3.2-.63 4.72-.98 3.54-.27 6.36 2.75 8.64.71.54 1.35 1.8 1.28 2.67-.73 8.18 1.84 15.95 2.87 23.9.99 7.67.23 15.04-3.77 21.79-.71 1.21-2.13 2.29-3.47 2.78-4.27 1.57-8.43.72-12.15-1.65-7.96-5.06-16.1-9.9-23.58-15.59-4.4-3.34-7.7-8.14-11.45-12.31-7.16-7.96-14.28-15.96-21.43-23.93-2.47-2.75-7.41-2.14-9.2 1.11-5.98 10.82-7.4 22.39-5.6 34.47.16 1.08.82 2.15 1.46 3.09 3.41 4.99 6.93 9.89 10.29 14.91.72 1.07 1.4 2.56 1.25 3.75-.37 3.05 1.01 4.74 3.52 5.95 5.74 2.78 9.53 7.32 12.61 12.86 2.23 4 5.43 7.49 8.42 11.01 1.97 2.33 4.34 4.32 6.61 6.53-3.64 3.11-5.27-.86-7.68-1.79-1.57 1.47-1.05 2.42.58 3.39 5.28 3.15 10.53 6.34 15.71 9.63.85.54 1.97 1.73 1.87 2.49-.99 8.11 3.4 14.55 6.81 21.09 2.65 5.08 4.85 9.96 5.07 15.78.1 2.52.87 5.32 2.21 7.45 5.74 9.09 6.14 18.7 3.54 28.74-1.16 4.5-1.82 8.7-.23 13.56 1.35 4.13.47 9.03.34 13.58-.35 12.61-.51 25.26-5.64 37.14-.33.76-.68 1.52-1.01 2.24-5.79-.97-6.19-1.12-6.46-6.91-.27-5.59-.12-11.23.17-16.83.32-6.15.9-12.21-1.45-18.19-2.65-6.73-.84-13.59-.09-20.42.19-1.69.15-3.69-.58-5.14-3.53-7.02-5.08-14.08-2.77-21.92 1.61-5.36 1.05-10.88-1.65-16.32z" fill="#010000"/><g fill="#fafafb"><path d="m361.2 9.6.8-1c.9.7 1.9 1.4 2.9 2.3l-.9 1.1c-1-1-2-1.8-2.8-2.4zm.5 10.6c.9-2.1 1.6-4.3 2.3-6.7.4.2.8.4 1.3.6-.7 2.1-1.5 4.3-2.2 6.6zm.4-15.2.9-.9c1 .8 2 1.6 2.8 2.4l-1 1c-.9-.9-1.8-1.7-2.7-2.5zm12.5-1.2h1.2v1.4h2.7v1.1h-2.7v2.7h-1.2v-.6h-1.8v1.3h4.9v3.8h-1.2v-.5h-3.7c0 .4-.1.9-.1 1.2h5.1v1h-5.2c0 .5-.1.9-.2 1.2h6v1h-5.2c1.1 1.3 2.9 2 5.5 2.2-.4.4-.7.8-.9 1.3-2.9-.5-4.8-1.6-5.7-3.5h-.1c-.8 1.7-2.7 2.9-5.9 3.6-.2-.4-.6-.8-.9-1.1 2.8-.6 4.6-1.4 5.4-2.5h-4.8v-1h5.3c.1-.3.2-.7.2-1.2h-4.9v-1h5c0-.4 0-.8.1-1.2h-3.5v.5h-1.2v-3.8h4.9v-1.3h-1.8v.5h-1.2v-2.7h-2.7v-1h2.6v-1.4h1.2v1.4h4.7v-1.4zm-6.6 8.3h3.6c0-.4 0-.9 0-1.4h-3.6zm1.9-4.6h4.7v-1.3h-4.7zm6.6 3.2h-3.7v1.4h3.7z"/><path d="m385.3 3.8h1.3v2.2h2.8v-2.2h1.3v2.2h4.1v9.1h1.7v1.3h-16.9v-1.3h1.7v-9.1h4.1v-2.2zm.4 13.1.7 1.2c-1.8.9-3.8 1.9-6 2.9-.2-.4-.5-.8-.8-1.3 2.3-1 4.3-1.9 6.1-2.8zm-3.1-6.4h2.8v-3.2h-2.8zm0 4.6h2.8v-3.3h-2.8zm4-4.6h2.8v-3.2h-2.8zm0 4.6h2.8v-3.3h-2.8zm3.7 1.9c2.1.9 4.1 1.8 6.1 2.7l-.7 1.3c-2.2-1.1-4.2-2-6.1-2.9zm3.2-9.7h-2.8v3.2h2.8zm-2.8 7.8h2.8v-3.3h-2.8z"/></g></svg>