<svg enable-background="new 0 0 400 400" viewBox="0 0 400 400" xmlns="http://www.w3.org/2000/svg"><path d="m362.1 8.8c1.1.8 2.1 1.6 3.1 2.4l-1 1.1c-1.3-1.1-2.3-2-3-2.5zm1.9 4.8c.5.2.9.4 1.4.5-.6 2.3-1.3 4.5-1.9 6.8l-1.5-.5c.8-2.1 1.4-4.3 2-6.8zm-1-9.4c1.3.9 2.4 1.8 3.4 2.5l-1 1.1c-1.4-1.2-2.4-2.1-3.2-2.6zm3.7 2.2v-1.4h10.3v1.2c-.5 3.6-1.8 6.8-4 9.4 1.5 1.6 3.4 2.8 5.7 3.8-.3.4-.7.8-1.1 1.4-2.3-1.1-4.1-2.5-5.6-4.1-1.6 1.6-3.6 3.1-5.9 4.3-.3-.5-.7-.9-1-1.3 2.4-1.1 4.4-2.5 6-4.1-1.9-2.5-3-5.6-3.3-9.3h-1.1zm8.8 0h-6.4c.3 3.3 1.3 6 3 8.2 2-2.3 3.1-5.1 3.4-8.2z" fill="#fbfcfa"/><path d="m385.3 3.8h1.3v2.2h2.8v-2.2h1.3v2.2h4.1v9.1h1.7v1.3h-16.9v-1.3h1.7v-9.1h4.1v-2.2zm.4 13.1.7 1.2c-1.8.9-3.8 1.9-6 2.9-.2-.4-.5-.8-.8-1.3 2.3-1 4.3-1.9 6.1-2.8zm-3.1-6.4h2.8v-3.2h-2.8zm0 4.6h2.8v-3.3h-2.8zm4-4.6h2.8v-3.2h-2.8zm0 4.6h2.8v-3.3h-2.8zm3.7 1.9c2.1.9 4.1 1.8 6.1 2.7l-.7 1.3c-2.2-1.1-4.2-2-6.1-2.9zm3.2-9.7h-2.8v3.2h2.8zm-2.8 7.8h2.8v-3.3h-2.8z" fill="#fbfcfa"/><path d="m188.77 333.21c-.47-3.68-1.21-9.51-1.94-15.33-.03-.21-.08-.42-.08-.63-.04-19.24-.13-38.47-.02-57.71.01-2.27 1.63-4.54 1.62-6.8-.04-9.53-.82-19.06-.57-28.58.37-14.19 1.53-28.35 2.04-42.53.28-7.8-.13-15.63-.15-23.45-.04-12.92.91-25.93-.27-38.74-1.46-15.7.75-31.06 1.6-46.58.33-5.98-.58-12.03-.96-18.05-.17-2.64-.79-5.32-.55-7.91.25-2.66.8-5.54 2.14-7.78 2.45-4.1 4.57-4.56 8.36-2.76 6.97 3.31 7.53 3.77 7.05 11.67-.4 6.65-1.49 13.3-1.34 19.93.18 8.14 1.75 16.25 1.93 24.39.21 9.3.28 18.74-1.09 27.89-.58 3.89-.65 7.44-.45 11.28 1.37 26.33 3.66 52.63 2.85 79.06-.21 6.71-.51 13.32-2.3 19.79-1.1 3.96-.84 7.85-.67 11.91.4 9.71.58 19.49-.16 29.17-.83 10.85-.31 21.57.55 32.35.31 3.88.18 7.82-.02 11.71-.32 6.42-1.15 12.73.1 19.27.73 3.81-.91 8.08-1.46 12.14-.3 2.18-.41 4.39-.84 6.54-.7 3.48-1.26 7.06-2.6 10.3-.51 1.25-2.9 2.09-4.57 2.41-2.13.41-2.73-1.4-3.08-3.21-.31-1.55-.52-3.26-1.34-4.55-4.52-7.13-4.78-14.96-3.78-25.2z" fill="#010101"/></svg>