<svg enable-background="new 0 0 400 400" viewBox="0 0 400 400" xmlns="http://www.w3.org/2000/svg"><path d="m362.1 8.8c1.1.8 2.1 1.6 3.1 2.4l-1 1.1c-1.3-1.1-2.3-2-3-2.5zm1.9 4.8c.5.2.9.4 1.4.5-.6 2.3-1.3 4.5-1.9 6.8l-1.5-.5c.8-2.1 1.4-4.3 2-6.8zm-1-9.4c1.3.9 2.4 1.8 3.4 2.5l-1 1.1c-1.4-1.2-2.4-2.1-3.2-2.6zm3.7 2.2v-1.4h10.3v1.2c-.5 3.6-1.8 6.8-4 9.4 1.5 1.6 3.4 2.8 5.7 3.8-.3.4-.7.8-1.1 1.4-2.3-1.1-4.1-2.5-5.6-4.1-1.6 1.6-3.6 3.1-5.9 4.3-.3-.5-.7-.9-1-1.3 2.4-1.1 4.4-2.5 6-4.1-1.9-2.5-3-5.6-3.3-9.3h-1.1zm8.8 0h-6.4c.3 3.3 1.3 6 3 8.2 2-2.3 3.1-5.1 3.4-8.2z" fill="#fbfcfa"/><path d="m385.3 3.8h1.3v2.2h2.8v-2.2h1.3v2.2h4.1v9.1h1.7v1.3h-16.9v-1.3h1.7v-9.1h4.1v-2.2zm.4 13.1.7 1.2c-1.8.9-3.8 1.9-6 2.9-.2-.4-.5-.8-.8-1.3 2.3-1 4.3-1.9 6.1-2.8zm-3.1-6.4h2.8v-3.2h-2.8zm0 4.6h2.8v-3.3h-2.8zm4-4.6h2.8v-3.2h-2.8zm0 4.6h2.8v-3.3h-2.8zm3.7 1.9c2.1.9 4.1 1.8 6.1 2.7l-.7 1.3c-2.2-1.1-4.2-2-6.1-2.9zm3.2-9.7h-2.8v3.2h2.8zm-2.8 7.8h2.8v-3.3h-2.8z" fill="#fbfcfa"/><path d="m125.37 34.73c6.66 1.61 13.08 9.52 13.15 15.9.01.81-.24 1.7-.6 2.44-4.82 9.87-5.44 20.29-4.14 30.96.81 6.69.39 13.3-.8 19.92-.38 2.12-.28 4.41.06 6.56.77 4.97 1.16 9.87-.42 14.77-.31.97-.22 2.1-.24 3.15-.1 5.51-.11 11.02-.28 16.53-.19 6.22 3.3 8.43 8.9 5.46 5.61-2.98 11.1-6.2 16.77-9.04 2.98-1.5 6.25-2.41 9.39-3.6.88-.33 1.87-.54 2.62-1.06 7.15-4.96 15.26-7.71 23.45-10.32 3.02-.96 6.17-1.87 8.82-3.52 6.69-4.17 14.13-6.03 21.59-8.03 3.13-.84 6.16-2.15 9.09-3.55 4.01-1.92 8.03-3.89 11.77-6.26 7.37-4.67 15.48-6.64 24.02-7.26 3.71-.27 6.97-1.25 9.56-4.17 1.46-1.65 8.17-1.42 9.62.2 1.96 2.2.98 4.15-.91 5.74-3.73 3.14-7.55 6.18-11.33 9.25-1.65 1.34-3.42 2.54-4.93 4.01-5.85 5.69-12.61 9.42-20.83 10.45-1.59.2-3.17 1.18-4.57 2.08-9.06 5.87-19.08 9.31-29.3 12.63-9.25 3.01-18.67 6.56-26.77 11.8-14.87 9.62-31.57 14.8-47.48 21.87-1.56.69-3.52.48-5.3.67-2.92.3-4.52 1.6-4.71 4.82-1.82 31.64-3.84 63.27-5.59 94.91-.47 8.45-.22 16.94-.31 25.42-.07 6.62-.89 9.11-4.29 12.69.68.99 1.39 2.02 2.09 3.05 1.35 2 1.24 3.96.61 6.31-1.05 3.91-2.34 8.09-1.95 12 1.08 11.07-1.73 21.47-4.6 31.85-.4 1.43-3.56 2.1-5.64 3.23-3.06-5.11-4.44-10.01-4.4-15.3.14-16.1.28-32.21.51-48.31.06-4.22.07-8.51.81-12.64 1.38-7.66.35-15.22-.21-22.8-.59-8.03-1.78-16.05-1.89-24.08-.08-6.1 1.31-12.2 1.65-18.33.19-3.4-.44-6.84-.66-10.26-.08-1.24-.21-2.51 0-3.72.27-1.55.7-3.13 1.35-4.56 2.39-5.26 2.54-10.25-.97-15.17-.58-.81-.45-2.42-.14-3.51.6-2.13 1.48-4.19 2.4-6.21 1.22-2.68 2.31-5.23-.54-7.64-.45-.39-.6-1.35-.58-2.04.42-17.59.75-35.18 1.42-52.76.18-4.83 1.08-9.71 2.25-14.41.89-3.55 1.12-6.81-.34-10.16-2.14-4.93-.04-9.82.2-14.72.55-11.42 1.37-22.82 1.93-34.23.1-2 .5-3.03 2.65-3.44 4.09-.81 6.57-3.64 8.04-7.57z" fill="#010101"/></svg>