<svg enable-background="new 0 0 400 400" viewBox="0 0 400 400" xmlns="http://www.w3.org/2000/svg"><path d="m378.6 9.2.8-1c.9.7 1.9 1.4 2.9 2.3l-.9 1.1c-1.1-.9-2-1.7-2.8-2.4zm.5 10.7c.9-2.1 1.6-4.3 2.3-6.7.4.2.8.4 1.3.6-.7 2.1-1.5 4.3-2.2 6.6zm.4-15.2.9-.9c1 .8 2 1.6 2.8 2.4l-1 1c-1-.9-1.9-1.8-2.7-2.5zm12.5-1.3h1.2v1.4h2.7v1.1h-2.7v2.7h-1.2v-.5h-1.8v1.3h4.9v3.8h-1.2v-.5h-3.7c0 .4-.1.9-.1 1.2h5.1v1h-5.2c0 .5-.1.9-.2 1.2h6v1h-5.2c1.1 1.3 2.9 2 5.5 2.2-.4.4-.7.8-.9 1.3-2.9-.5-4.8-1.6-5.7-3.5h-.1c-.8 1.7-2.7 2.9-5.9 3.6-.2-.4-.6-.8-.9-1.1 2.8-.6 4.6-1.4 5.4-2.5h-4.8v-1h5.3c.1-.3.2-.7.2-1.2h-4.9v-1h5c0-.4 0-.8.1-1.2h-3.6v.5h-1.2v-3.8h4.9v-1.3h-1.8v.5h-1.2v-2.7h-2.6v-1.1h2.6v-1.4h1.2v1.4h4.7v-1.4zm-6.7 8.4h3.6c0-.4 0-.9 0-1.4h-3.6zm1.9-4.7h4.7v-1.2h-4.7zm6.7 3.3h-3.7v1.4h3.7z" fill="#fafbfc"/><path d="m384.7 21.4h1.3v2.2h2.8v-2.2h1.3v2.2h4.1v9.1h1.7v1.3h-16.9v-1.3h1.7v-9.1h4.1v-2.2zm.3 13.2.7 1.2c-1.8.9-3.8 1.9-6 2.9-.2-.4-.5-.8-.8-1.3 2.4-1 4.4-2 6.1-2.8zm-3.1-6.5h2.8v-3.2h-2.8zm0 4.6h2.8v-3.3h-2.8zm4.1-4.6h2.8v-3.2h-2.8zm0 4.6h2.8v-3.3h-2.8zm3.6 1.9c2.1.9 4.1 1.8 6.1 2.7l-.7 1.3c-2.2-1.1-4.2-2-6.1-2.9zm3.3-9.7h-2.8v3.2h2.8zm-2.8 7.8h2.8v-3.3h-2.8z" fill="#fafbfc"/><path d="m139.37 260.95c3.35 3.47 5.78 6.44 8.66 8.87 4.73 3.99 6.78 3.98 11.69.94 3.47 3.03 3.55 4.17 2.48 8.43-.45 1.8-.17 4.37.84 5.86 5.79 8.49 11.81 16.83 17.97 25.05 1.18 1.58 3.24 2.62 5.07 3.56 1.85.95 3.21 1.98 3.09 4.25-.01.2.1.41.14.62 1.56 7.78 1.56 7.8 9.42 6.91.87-.1 1.85-.48 2.5-1.06 5.8-5.13 9.49-11.58 11.65-18.96.15-.5.38-1.11.21-1.54-2.52-6.48.75-12.23 2.38-18.13.93-3.35.82-6.44.38-9.88-.89-6.9-.86-13.92-1.32-20.89-.11-1.77-.31-3.64-.97-5.25-8.45-20.48-12.82-42.07-17.27-63.63-.6-2.89.2-6.07.41-9.12.26-3.76.9-7.53.77-11.27-.11-2.96.39-5.49 1.59-8.2 3.2-7.25 5.98-14.69 9.02-22.02.63-1.53 1.42-3.16 2.59-4.27 3-2.84 4.72-6.17 5.02-10.26.01-.11 0-.22.04-.31 2.95-6.05 5.47-12.36 9.01-18.05 2.71-4.35 6.76-7.86 10.08-11.85.71-.86 1.42-2.4 1.13-3.29-.76-2.3.09-3.85 1.46-5.44 6.5-7.52 9.66-16.83 13.66-25.68 3.29-7.27 6.77-14.39 12.73-19.94.45-.42.96-.77 1.49-1.19 2.69 1.78 3.14 4.44 2.85 7.07-.34 3.02-.87 6.12-1.95 8.95-4.21 11.07-8.32 22.2-13.18 32.99-2.4 5.34-6.24 10.07-9.62 14.94-3.05 4.39-2.92 9.15-1.85 13.93.81 3.6 2.25 7.05 3.4 10.57.4 1.21 1.23 2.47 1.1 3.61-.76 6.65 2.67 12.04 4.68 17.94 1.53 4.48 1.2 9.59 1.74 14.41.96 8.63 1.95 17.25 2.95 25.87 2.16 18.57-1.85 35.55-12.94 50.75-3.75 5.14-7.54 10.25-11.12 15.5-.79 1.15-1.26 2.91-1.07 4.28 1.69 12.17 4.04 24.28 2.63 36.66-.59 5.15-1.29 10.29-2.05 15.42-.15 1-.6 2.07-1.23 2.87-7.24 9.26-14.47 18.52-21.86 27.65-1.84 2.28-4.15 4.24-6.5 6.02-1.47 1.11-3.35 1.88-5.16 2.3-5.67 1.32-8.25-.7-7.73-6.47.49-5.54-1.14-9.64-5.86-12.73-1.45-.95-2.3-2.85-3.32-4.39-1.55-2.33-2.95-4.76-4.54-7.07-4.32-6.25-9.06-12.24-12.98-18.73-4.08-6.75-8.77-12.4-17.03-14.77-.92 6.38-1.98 12.59-2.65 18.85-.61 5.66.13 11.61-1.35 16.99-3.39 12.38-.21 25.16-3.16 37.48-.87 3.63-1.7 7.17-5.07 10.09-.6-3.71-.94-7.06-1.69-10.31-4.77-20.69-3.6-41.47-.98-62.27.08-.63-.04-1.53.33-1.84 3.87-3.22 2.36-7.34 2.52-11.43.2-4.87 1.66-9.76 3.09-14.49.54-1.85 2.46-3.33 3.68-4.9zm93.6-140.44c-.36.04-.72.08-1.08.12-1.21 2.23-2.54 4.39-3.6 6.69-1.63 3.56-3.87 6.57-7.32 8.49-1.93 1.07-2.28 2.48-1.67 4.48.76 2.49.27 4.69-1.61 6.69-3.06 3.25-5.16 6.95-4.57 11.7.08.66-.22 1.52-.63 2.08-3.8 5.25-3.43 11.12-2.72 17.07.74 6.18 1.85 12.37 1.99 18.57.1 4.81.67 9.23 3.44 13.19 2.06 2.94 2.58 6.11 2.01 9.63-.32 1.96-.79 4.37.03 5.94 2.63 5.1 5.83 9.91 8.81 14.85 4.33-2.9 5-3.84 6.51-7.98.54-1.47 1.29-2.92 2.18-4.21 8.68-12.5 11.94-26.45 9.89-41.34-2.7-19.71-6.07-39.33-9.28-58.97-.38-2.4-1.57-4.67-2.38-7z" fill="#010104"/></svg>