<svg enable-background="new 0 0 400 400" viewBox="0 0 400 400" xmlns="http://www.w3.org/2000/svg"><path d="m65.28 365.83c-5.42-9.39-8.05-19.53-7.83-29.97.39-18.63 1.25-37.28 2.82-55.85 2.18-25.71 3.74-51.4 2.22-77.17-.93-15.86-2.8-31.67-3.86-47.52-2.14-31.86 3.98-62.34 15.19-92.08 2.81-7.46 6.76-11.86 14.52-14.25 12.32-3.8 24.24-8.89 36.38-13.29 1.56-.56 3.56-.74 5.13-.3 24.64 6.88 49.77 10.52 75.32 10.35 19.7-.13 39.39-1.26 59.08-1.91 14.93-.49 29.86-1.15 44.79-1.32 8.69-.1 16.94 2.4 24.75 6.23 8.2 4.02 11.5 11.32 9.21 20.03-.43 1.66-1.11 2.07-2.84 2.02-19.17-.47-38.35-.8-57.53-1.19-17.48-.35-34.96-1.13-52.44-.91-8.5.11-16.99 1.95-25.46 3.21-8.17 1.21-16.26 3.16-24.47 3.85-5.3.45-10.74-.73-16.1-1.27-11.48-1.17-22.93-2.9-34.44-3.45-9.78-.46-18.18 3.53-24.43 11.36-.71.89-1.31 1.92-1.76 2.97-11.52 26.79-15.81 54.74-14.05 83.81 1.7 28.04 2.93 56.11 4.32 84.17.07 1.45-.27 2.95-.6 4.39-3.03 13.42-6.39 26.78-8.99 40.29-.92 4.75-.15 9.86.09 14.8.48 9.84 1.49 19.67 1.62 29.52.16 12.86-7.61 21.43-20.64 23.48z" fill="#010105"/><g fill="#fafbfa"><path d="m377.9 391.2c-.2.3-.4.5-.6.8-.7-.6-1.4-1-2.2-1.5.2-.3.4-.5.5-.8.6.4 1.4.8 2.3 1.5zm-1.8 6.1c-.2-.2-.5-.4-.9-.6.4-.6.8-1.2 1.2-1.9s.7-1.3.9-1.9c.3.3.5.5.8.7-.7 1.3-1.4 2.6-2 3.7zm2.2-9c-.3.3-.5.5-.6.8-.6-.6-1.3-1.1-2-1.5.3-.3.5-.5.6-.7.6.5 1.3.9 2 1.4zm.3.2v-.9h2 4.5c-.3 1.3-.6 2.5-1 3.6s-.9 2.1-1.4 3c.4.5 1 1 1.6 1.4s1.2.8 1.9 1.1c-.3.2-.5.4-.8.8-.4-.3-1-.7-1.6-1.2s-1.2-1.1-1.6-1.6c-.5.6-1.1 1.1-1.7 1.6s-1.4.9-2.1 1.4c-.1-.3-.3-.5-.7-.8.6-.2 1.2-.5 1.9-1s1.4-1.1 2-1.8c-.5-.8-.9-1.6-1.2-2.5s-.6-2-.8-3.2c-.4.1-.7.1-1 .1zm2.5 2.7c.3 1 .7 1.7 1 2.2.3-.5.6-1.1 1-2s.6-1.9.9-3h-3.2-.4c.1.9.3 1.8.7 2.8z"/><path d="m396.5 388.5v1.5 3.6h1.5v.9c-.4 0-1 0-1.7 0h-7.9c-.5 0-.9 0-1.2 0v-.9h1.3v-3.5c0-.7 0-1.2 0-1.6h2.4c0-.8 0-1.4 0-1.7h1c0 .3-.1.8-.1 1.7h1.5c0-.8 0-1.4 0-1.7h1c0 .3-.1.9-.1 1.7zm-8.2 9.2c-.2-.3-.5-.5-.8-.8.8-.3 1.4-.6 1.9-.9s1-.7 1.4-1.1c.3.3.6.5.9.8-1.6 1-2.8 1.6-3.4 2zm2.6-6.8v-1.6h-1.5v1.6zm0 2.7v-1.9h-1.5v1.9zm2.4-2.7v-1.6h-1.5v1.6zm0 2.7v-1.9h-1.5v1.9zm.2 2 .7-.8c.4.2.9.5 1.6.8s1.3.7 1.8 1c-.3.3-.5.5-.8.8-.4-.3-1.5-1-3.3-1.8zm2-4.7v-1.6h-1.4v1.6zm0 2.7v-1.9h-1.4v1.9z"/></g></svg>