<svg enable-background="new 0 0 400 400" viewBox="0 0 400 400" xmlns="http://www.w3.org/2000/svg"><path d="m385.2 377.6.6-.7c.6.4 1.3.9 1.9 1.5l-.6.7c-.8-.5-1.4-1-1.9-1.5zm.3 7.1c.6-1.4 1.1-2.9 1.5-4.5.3.1.6.3.9.4-.5 1.4-1 2.9-1.5 4.4zm.2-10.1.6-.6c.7.5 1.3 1.1 1.9 1.6l-.7.7c-.6-.6-1.2-1.2-1.8-1.7zm8.4-.8h.8v.9h1.8v.7h-1.8v1.8h-.8v-.3h-1.2v.9h3.3v2.6h-.8v-.4h-2.5c0 .3 0 .6-.1.8h3.4v.7h-3.5c0 .3-.1.6-.1.8h4v.7h-3.5c.7.9 1.9 1.3 3.6 1.5-.2.2-.4.5-.6.9-1.9-.3-3.2-1.1-3.8-2.3-.5 1.1-1.8 2-3.9 2.4-.2-.3-.4-.5-.6-.8 1.9-.4 3.1-.9 3.6-1.7h-3.2v-.7h3.5c.1-.2.1-.5.2-.8h-3.3v-.7h3.4c0-.2 0-.5 0-.8h-2.4v.3h-.8v-2.6h3.3v-.9h-1.2v.3h-.8v-1.8h-1.8v-.7h1.8v-.9h.8v.9h3.2zm-4.4 5.5h2.4c0-.3 0-.6 0-.9h-2.4zm1.2-3.1h3.2v-.8h-3.2zm4.4 2.2h-2.4v.9h2.5v-.9z" fill="#fcfafa"/><path d="m389.2 385.8h.9v1.5h1.9v-1.5h.9v1.5h2.7v6h1.1v.9h-11.3v-.9h1.1v-6h2.7zm.2 8.7.5.8c-1.2.6-2.5 1.3-4 1.9-.2-.3-.3-.6-.6-.8 1.6-.6 3-1.3 4.1-1.9zm-2-4.3h1.9v-2.1h-1.9zm0 3.1h1.9v-2.2h-1.9zm2.7-3.1h1.9v-2.1h-1.9zm0 3.1h1.9v-2.2h-1.9zm2.4 1.3c1.4.6 2.7 1.2 4.1 1.8l-.5.9c-1.5-.7-2.8-1.4-4.1-1.9zm2.2-6.5h-1.9v2.1h1.9zm-1.9 5.2h1.9v-2.2h-1.9z" fill="#fcfafa"/><g fill="#010100"><path d="m60.11 311.7c-1.88 3.23-2.36 3.34-4.7.96-1.17-1.19-2.15-2.56-3.23-3.86-2.93 2.6-.1 3.94-.09 5.96-.48-.52-.87-1.22-1.47-1.52-.83-.42-2.42-1.01-2.64-.73-2.25 2.91-3.97.97-5.81-.57-1.42.76-2.8 1.49-4.16 2.21-1.46-1.71-3.08-3.18-4.14-4.97-.98-1.65-1.9-3.65-1.93-5.51-.18-11.03-.12-22.06-.06-33.09.01-2.15.59-4.29.59-6.44.03-60.31.02-120.62.02-180.93 0-1.36 0-2.71 0-4.48 1.52 0 2.76-.02 3.99 0 27.45.42 54.9.86 82.34 1.24 4.98.07 9.96-.16 14.95-.17 8.38-.03 16.77-.26 25.13.06 8.12.31 16.19.45 24.34.31 21.6-.37 43.22.65 64.84 1.07 4.07.08 8.25-1.31 12.12 1.08.21.13.74.1.88-.07 2.43-2.94 5.41-1.22 8.27-1.13 4.95.16 9.92-.09 14.88-.03 2.27.03 4.53.41 6.8.61.51.04 1.19.19 1.53-.07 3.22-2.44 6.48-.54 9.75-.26 4.25.36 8.52.44 13.29.67-.05 2.88-4.07 3.81-5.38 6.9 2.85.15 5.66.29 9.14.47-.67-1.64-1.29-3.16-2.15-5.29 1.62.57 2.82.99 4.33 1.52-.53-1.86-.99-3.45-1.63-5.7 1.53.23 2.73.04 3.18.53 1.88 2.08 3.84 1.35 6.11.89 2.43-.49 5.01-.3 7.53-.29 7.3.04 14.6.12 21.9.21 3.88.05 4.41.58 4.41 4.43v232.89 3.39c-5.19 0-10.22.01-15.26-.01-1.27 0-2.54-.15-3.81-.15-40.3-.04-80.6-.07-120.89-.12-21.53-.02-43.05-.05-64.58-.11-15.69-.04-31.38-.11-47.07-.24-1.82-.02-3.64-.53-5.44-.82-.74.47-1.75 1.59-2.69 1.53-.75-.04-1.62-1.42-2.1-2.37-1.74-3.5-2.81-3.96-6.46-2.5-.53.21-1.38.53-1.68.29-1.73-1.36-3.23-1.68-4.96.08-.32.32-2.07-.06-2.42-.61-1.58-2.41-3-2.17-4.75.31 0-1.25 0-2.07 0-3.2-2.62.7-5.18.85-6.57-2.26-1.33 1.02-2.42 1.84-3.69 2.81-1.72-2.86-3.52-2.76-5.26.32-1.8-1.08-3.47-2.11-5.3-3.24zm235.98-176.78c-1.08-.93-2.08-1.78-3.07-2.63-1.15.92-2.13 1.71-2.75 2.2-5.11-2.44-9.68-1.91-14.12.73-.82-.93-1.52-1.71-2.3-2.6-1.34.9-2.62 1.75-4.06 2.72-.91-1.21-1.72-2.28-2.16-2.86-2.01.59-3.33 1.2-4.69 1.3-1.31.09-2.7-.2-3.97-.6-2.95-.94-5.65-.79-8.2 1.16-.29.22-1.14-.35-1.75-.45-.95-.16-1.93-.2-2.88-.37-2.7-.47-5.4-1.57-8.04.26-.11.08-.58-.23-.8-.44-1.29-1.25-2.51-1.07-3.97-.17-.63.38-1.66.15-2.51.12-.67-.02-1.61-.47-1.95-.18-2.46 2.15-4.68 1.63-6.25-.04-1.94.38-3.34.66-4.73.93-.08-.28-.15-.56-.23-.85.86-1.01 1.73-2.02 2.58-3.01-3.64-4.06-3.63-4.05-8.28-1.64-.91.47-1.89.79-2.75 1.14 0-1.47 0-2.72 0-4.88-2.86 3.17-4.9 1.41-7.54-.18-1.81 2.18-3.63 4.36-5.45 6.54-.12-.32-.23-.63-.35-.95-2.14-.12-4.27-.24-6.15-.35.18-1.17.39-2.51.59-3.84-1.46.42-2.92.83-4.73 1.35-.68-.6-1.71-1.5-2.74-2.41-1.09-.96-2.17-1.93-3.52-3.13-1.31 3.87-3.97 1.98-6.17 1.98-2.26 0-4.52 0-6.43 0 .23.6.63 1.63 1.03 2.67-2.94-1.48-2.94-1.48-7.24.54-1.33-1.93-3.03-1.64-4.84-.58-.43.25-1.31.57-1.41.43-2.24-2.94-4.44-.97-6.68-.06-.32.13-.95.06-1.15-.17-2.26-2.64-3.84-.64-4.99.38-1.57-.68-2.87-1.24-4.51-1.96.59 1.97.94 3.12 1.28 4.27-.3.13-.61.27-.91.4-.69-.54-1.38-1.09-1.63-1.28-2.85 1.63-5.22 3.68-7.92 4.33-2.59.62-5.53-.23-9.12-.48-.37.23-1.52.95-2.86 1.78-2.13-3.29-4.4-.55-6.66-.12-.68-.8-1.28-1.52-2.3-2.72-3.64 2.84-7.23 5.65-11.02 8.61-.36-.22-1.25-.77-2.45-1.51-3.29 2.58-6.57 5.17-10 7.86-.52-.3-1.42-.81-2.26-1.29-2.96 1.92-5.62 4-9.4 2.18-1.37-.66-4.66 2.91-4.59 4.76.97-.59 1.88-1.14 3.46-2.1 0 1.68.44 3.24-.08 3.69-2.47 2.13-.78 3.28.16 4.65.18 1.31.35 2.63.51 3.75 1.71-.55 3.06-1.36 3.43-1.04 1.97 1.72 4.99 2.81 4.35 6.28 3.54.08 4.76 1.54 4.31 4.92-.11.83-.52 1.79-.25 2.46 1.68 4.08 1.9 8.14.4 12.31-.2.56-.03 1.26-.03 1.84 1.5-.65 2.67-1.15 3.84-1.66l.42.75c-.5.72-1 1.44-1.63 2.36 3.24 2.82 4.8 6.02 3.88 10.41-.34 1.63.8 3.67 1.56 5.4.65 1.48 1.73 2.76 2.63 4.16 2.99-1.79 4.14-1.45 4.38 1.59 3.86.39 5.25 1.78 5.86 6.79.42 3.43 1.51 6.31 4.51 8.47 2.42-1.72 4.19-.69 6.15 1.26 3.98 3.96 8.26 7.63 12.34 11.49.88.84 1.47 1.99 2.18 3.01.92 1.3 1.83 2.6 3.08 4.39-1.03 3.93 3.32 6.22 4.63 10.01 1.39-.69 2.39-1.19 4.15-2.07 1.2 2.77 2.29 5.28 3.47 8 .61-.22 1.65-.59 3.23-1.15-.11 1.72-.2 3.05-.32 4.84 6.76-1.58 9.05 4.27 12.45 7.51 1.55-.89 2.8-1.61 4.05-2.33.09.19.18.37.27.56-.79 1.14-1.58 2.27-2.38 3.41.16.4.31.81.47 1.21 4.69-4.14 6.06-.31 7.93 2.51-2.6 3.44.78 5.09 1.8 7.21 1.72-.48 3.02-.85 4.32-1.22.17.24.33.48.5.73-2.89 2.65-.34 4.27.92 5.99 1.11 1.51 2.52 1.64 4.07.24.33-.3 1.93.11 2.26.63 1.71 2.74 3.56 4.37 6.78 2.05.44-.32 1.25-.31 1.84-.19 1.97.41 3.91.95 5.89 1.44-1.46 1.38-.65 2.66.77 4.11 2.44 2.51 4.65 5.23 6.99 7.83 1.94 2.15 3.66 2.19 5.59.07 1.06-1.16 1.99-2.45 2.87-3.55 1.51.56 2.81 1.05 4.11 1.54.13-.28.26-.57.39-.85-.52-.49-1.04-.97-1.93-1.8 1.87-.54 3.24-.94 3.88-1.13.33-1.43.41-3.31.86-3.4 1.22-.26 2.6.24 4.15.48-2.01-3.99-1.55-5.02 1.66-5.64 2.09-.4 4.1-1.32 6.09-2.14 3.03-1.24.74-3.84 1.35-6.43 1.78 2.33 3.32 1.99 5.01.44.37-.34 1.73.53 2.65.59 1.16.07 3.15.21 3.35-.27.76-1.84.95-3.92 1.34-5.91.14-.74 0-1.68.41-2.2 1.63-2.06 3.42-3.98 4.82-5.57 1.9.54 3.39.96 4.88 1.38.1-.28.2-.55.3-.83-.69-1.03-1.37-2.07-2.54-3.83 2.07.31 3.47.53 4.86.74-.26-.16-.52-.32-.77-.47.89-1.72 1.66-3.52 2.7-5.13.8-1.23 1.96-2.22 2.94-3.34 3.17-3.58 3.16-3.58-.05-7.01-.06-.06.12-.36.4-1.12 1.36.89 2.64 1.73 4.55 2.98.26-2.17.47-3.9.7-5.74.87.5 1.74.99 2.61 1.49 1.41-1.06 3.24-1.76 3.79-3.03.51-1.18-.33-2.95-.6-4.62.82.56 1.56 1.05 2.37 1.61 3.19-2.72 6.42-5.16 9.25-7.99 1.66-1.66 3.35-3.79 3.86-5.98.94-4.08 2.32-7.63 6.09-9.91-1.52-1.19-2.72-2.14-4.21-3.32 3.56-2.49 7.23-4.68 3.21-10.02 2.02.22 3.21.35 4.76.52-1.26-3.74 2.15-2.49 3.41-3.44.05-1.68.03-3.49.84-4.78 1.73-2.77 3.71-5.43 5.94-7.82 1.8-1.93 4.17-3.34 2.27-6.5-.24-.4.16-1.19.27-1.88 1.02.83 1.9 1.55 2.8 2.28.7-2.58 1.27-4.72 1.93-7.16-.53-.8-1.28-1.94-2.17-3.29 1.39-1.63 2.56-3.47 4.15-4.78 6.37-5.25 5.07-7.36-1.96-10.61 1.37-1.69 2.69-3.26 3.94-4.88.54-.71 1.53-1.88 1.32-2.23-1.37-2.25.49-3.52 1.24-5.14.81-1.74 1.52-3.53 2.27-5.3-.15-.22-.31-.44-.46-.66-2.95 3.12-5.02.78-6.92-.84-1.38.96-2.49 1.73-3.61 2.5-.17-.24-.34-.48-.51-.73.66-1.14 1.32-2.28 2.21-3.79-1.92.56-3.24.95-4.46 1.3.39-1.88.68-3.25.96-4.61-1.32.41-2.64.81-4.82 1.48.63-1.25 1.09-2.15 1.54-3.06.26-.52.49-1.05.73-1.58-.52-.21-1.09-.67-1.56-.59-3.05.49-6.07 1.1-9.68 1.78-.43-.32-1.52-1.13-2.65-1.96-1.13.77-2.14 1.49-3.27 2.29zm36.67-26.8c.55 1.79.93 4.08 1.3 4.08 3.99 0 8.63 1.71 11.06-3.75-1.92-2.68-4.05-5.65-6.3-8.79-3.11 2.69-6.02 5.21-9.33 8.07 1.68.2 2.78.33 3.27.39zm-27.77-19.25c.47.29.94.58 1.41.87.92-1.25 1.84-2.49 2.76-3.74-.59-.3-1.63-.95-1.71-.85-.89 1.17-1.66 2.46-2.46 3.72zm-4.52 158.72c.19.26.39.51.58.77 1.01-.44 2.33-.64 2.9-1.41.35-.47-.44-1.8-.73-2.75-.28.02-.56.03-.85.05-.63 1.11-1.26 2.23-1.9 3.34z"/><path d="m113.14 160.98c.52 1.56.81 2.42 1.13 3.39 1.23-.58 2.36-1.12 3.7-1.75.43.63.87 1.27 1.42 2.07 2.64-1.74 4.47-1.21 5.96 1.78 1.64 3.3 2.78 3.28 6.18.64 1.18.83 2.39 1.67 3.9 2.73.72-.91 1.43-1.81 2.17-2.74 1.22.9 2.3 1.7 3.6 2.65 1.79-2.54 3.83-2.66 6.05-.65.32.29 1.22.51 1.38.34 2.09-2.28 4.07-1.31 6.09.07.16.11.51.18.6.09 2.42-2.56 5.59.11 8.29-1.15.65-.3 2.33.66 2.97 1.48 2.9 3.71 6.48 6.07 11.26 6.26 1.21.05 2.44-.32 3.66-.41.99-.07 1.98-.05 2.97 0 .96.04 1.92.2 2.88.24.91.04 1.83-.04 2.73.01 2 .1 4 .25 5.92.37 1.8-.14 3.31-.25 4.82-.39.31-.03.72-.36.89-.25 3.43 2.27 6.69-.78 10.07-.3 2.45.35 4.91.61 8.03.99.32-.28 1.26-1.1 2.32-2.03 1.07.47 2.16.95 4.04 1.79-.83-2.01-1.36-3.29-2.18-5.28 1.12.59 1.78.75 2.16 1.18.48.53.57 1.5 1.12 1.88 1.14.78 2.47 1.3 3.72 1.93.3-1.19.6-2.38.96-3.79.66.17 1.74.46 3.03.8.06-1.35.12-2.51.2-4.29 1.4.88 2.31 1.44 3.3 2.06 1.16-.84 2.35-1.7 3.48-2.53 4.09 2.11 8.06 4.2 12.55 1.84 1.68-.1 3.48-.62 5.01-.18 1.77.5 3.3 1.84 5.05 2.88-.73 1.53-1.32 2.74-1.9 3.95 3.19 2.37-.76 3.84-.59 6.11 2.14 4.42 1.62 6.54-2.59 9.82-2.93 2.28-5.93 4.46-8.73 6.89-.9.79-1.88 2.31-1.74 3.34.77 5.41-1.65 9.05-5.8 12.01-1.28.91-2.35 2.12-3.67 3.34.81 1.4 1.58 2.73 2.39 4.15-.77.95-1.5 1.84-2.34 2.87.49.89.99 1.82 1.49 2.74-.17.11-.34.22-.51.34-.44-.6-.78-1.32-1.34-1.76-1.41-1.12-3.02-1.64-3.61.69-.52 2.05-.43 4.25-.85 6.34-.24 1.17-.87 2.3-1.5 3.35-.92 1.53-1.99 2.96-3.06 4.54.94 1.05 1.77 1.98 2.62 2.93-2.19 1.86-4.33 3.68-6.46 5.49.56.27 1.11.55 1.67.82 0 1.68-.01 3.35.01 5.03.01.72-.02 1.47.15 2.17 1.01 4.31-1.84 7.12-6.35 6.83-4.68-.3-7.28-3.32-9.82-6.86-1.23 1.12-2.23 2.02-3.19 2.89-4.62-2.44-4.63-2.53-3.16-7.59.16-.56-.09-1.39-.44-1.9-.53-.77-1.29-1.4-1.99-2.05-3.71-3.43-3.91-3.46-8.28-1.03-.43-1.29-.84-2.52-1.11-3.3 1.33-.5 2.53-.95 3.49-1.31-1.17-1.98-1.92-3.25-3.03-5.13-3.42.14-5.48-3.18-7.71-6.08-1.36.93-2.38 1.62-3.39 2.31-.27-.13-.55-.27-.82-.4.58-1.71 1.16-3.42 1.81-5.33-.52-.34-1.3-.84-2.24-1.45.52-1.42 1.03-2.82 1.78-4.9-1.66.63-2.54.96-3.81 1.44.38-1.02.66-1.73 1.1-2.89-3.42-.59-6.76-1.17-10.1-1.74-.09.32-.18.63-.26.95-.07-.69-.14-1.38-.23-2.26-1.07 0-2.09 0-3.09 0-.11-1.65-.21-3.1-.33-4.92-1.04.45-1.5.63-1.95.86-.37.18-.72.42-1.16.67.73-7.78-3.19-10.39-10.19-10.17-.1-.91-.27-2.44-.43-3.97-1.13.38-2.25.76-3.91 1.32.45-1.52.84-2.87 1.25-4.27-.85.32-1.68.63-2.89 1.08 2.44-4.98 1.16-7-3.89-7.38-1.86-.14-3.67-.83-5.52-1.12-1.02-.16-2.1-.03-3.15-.03-.02.28-.04.56-.07.83-1.03-1.14-2.06-2.29-2.73-3.03-.26-1.97.13-4.48-.83-5.22-1.65-1.27-3.94-3.58-6.63-.03-.13-1.89-.21-2.98-.29-4.23-1.38-.11-2.62-.21-4.01-.33-.92-2.19-1.84-4.38-2.97-7.06-.12-.02-.91-.17-1.79-.33.04-.75.08-1.46.14-2.8-3.52 2.47-5.66.05-8.03-1.87-.63.94-1.14 1.7-1.94 2.89 0-3.04 0-5.56 0-8.21 2.26.44 4.21 3.72 7.09.23z"/></g></svg>