<svg enable-background="new 0 0 400 400" viewBox="0 0 400 400" xmlns="http://www.w3.org/2000/svg"><path d="m362.1 8.8c1.1.8 2.1 1.6 3.1 2.4l-1 1.1c-1.3-1.1-2.3-2-3-2.5zm1.9 4.8c.5.2.9.4 1.4.5-.6 2.3-1.3 4.5-1.9 6.8l-1.5-.5c.8-2.1 1.4-4.3 2-6.8zm-1-9.4c1.3.9 2.4 1.8 3.4 2.5l-1 1.1c-1.4-1.2-2.4-2.1-3.2-2.6zm3.7 2.2v-1.4h10.3v1.2c-.5 3.6-1.8 6.8-4 9.4 1.5 1.6 3.4 2.8 5.7 3.8-.3.4-.7.8-1.1 1.4-2.3-1.1-4.1-2.5-5.6-4.1-1.6 1.6-3.6 3.1-5.9 4.3-.3-.5-.7-.9-1-1.3 2.4-1.1 4.4-2.5 6-4.1-1.9-2.5-3-5.6-3.3-9.3h-1.1zm8.8 0h-6.4c.3 3.3 1.3 6 3 8.2 2-2.3 3.1-5.1 3.4-8.2z" fill="#fbfcfa"/><path d="m385.3 3.8h1.3v2.2h2.8v-2.2h1.3v2.2h4.1v9.1h1.7v1.3h-16.9v-1.3h1.7v-9.1h4.1v-2.2zm.4 13.1.7 1.2c-1.8.9-3.8 1.9-6 2.9-.2-.4-.5-.8-.8-1.3 2.3-1 4.3-1.9 6.1-2.8zm-3.1-6.4h2.8v-3.2h-2.8zm0 4.6h2.8v-3.3h-2.8zm4-4.6h2.8v-3.2h-2.8zm0 4.6h2.8v-3.3h-2.8zm3.7 1.9c2.1.9 4.1 1.8 6.1 2.7l-.7 1.3c-2.2-1.1-4.2-2-6.1-2.9zm3.2-9.7h-2.8v3.2h2.8zm-2.8 7.8h2.8v-3.3h-2.8z" fill="#fbfcfa"/><path d="m253.48 365.8c-6.19-12.36-12.3-24.57-18.41-36.78-5.4-10.8-10.61-21.69-16.25-32.36-3.75-7.09-6.18-14.45-7.69-22.34-1.45-7.55-3.8-14.98-6.34-22.25-1.98-5.65-5.55-10.41-11.56-13.73-6.82 9.27-13.43 18.61-20.43 27.64-4.45 5.75-9.17 11.37-14.35 16.46-4.4 4.31-10.08 6.9-16.53 8.61 1.1-5.32.6-10.44 4.48-15.03 2.95-3.49 4.75-8.28 6.03-12.78 2.49-8.75 6.21-16.65 12.78-23.04 1.95-1.89 3.01-4 2.6-6.77-.73-4.99.78-9.24 3.81-13.27 3.44-4.56 6.11-9.71 9.64-14.19 5.88-7.46 6.02-15.41 3.45-24.03-1.61-5.38-4.42-9.27-9.17-12.64-18.43-13.1-30.89-30.78-38.08-52.29 2.46-2.29 5.39-3.31 8.5-2.96 6.53.74 11.97 2.99 15.5 9.39 5.62 10.16 14.93 16.59 24.85 22.1 3.02 1.68 6.23 3.01 9.52 4.57 4.61-7.48 5.4-15.1 2.63-22.85-3.39-9.48-6.97-18.87-8.31-28.93-.12-.94-.93-1.86-1.6-2.63-16.04-18.35-16.84-38.83-8.65-60.93 6.02 1.61 9.7 5.75 12.99 10.3 6.67 9.2 10.28 19.88 14.53 30.26 7.58 18.53 10.71 38.05 13.39 57.7.56 4.09.89 8.26 1.95 12.23 2.56 9.66-.25 18.93-1.6 28.29-1.48 10.27-3.29 20.49-4.83 30.76-.24 1.6-.13 3.4.36 4.93 12.84 39.9 25.89 79.73 38.5 119.7 1.84 5.83 1.66 12.32 2.31 18.51.37 3.48.26 7.03.87 10.45.76 4.11-1.01 6.35-4.89 7.9z" fill="#010101"/></svg>