<svg enable-background="new 0 0 400 400" viewBox="0 0 400 400" xmlns="http://www.w3.org/2000/svg"><path d="m362.1 8.8c1.1.8 2.1 1.6 3.1 2.4l-1 1.1c-1.3-1.1-2.3-2-3-2.5zm1.9 4.8c.5.2.9.4 1.4.5-.6 2.3-1.3 4.5-1.9 6.8l-1.5-.5c.8-2.1 1.4-4.3 2-6.8zm-1-9.4c1.3.9 2.4 1.8 3.4 2.5l-1 1.1c-1.4-1.2-2.4-2.1-3.2-2.6zm3.7 2.2v-1.4h10.3v1.2c-.5 3.6-1.8 6.8-4 9.4 1.5 1.6 3.4 2.8 5.7 3.8-.3.4-.7.8-1.1 1.4-2.3-1.1-4.1-2.5-5.6-4.1-1.6 1.6-3.6 3.1-5.9 4.3-.3-.5-.7-.9-1-1.3 2.4-1.1 4.4-2.5 6-4.1-1.9-2.5-3-5.6-3.3-9.3h-1.1zm8.8 0h-6.4c.3 3.3 1.3 6 3 8.2 2-2.3 3.1-5.1 3.4-8.2z" fill="#fbfcfa"/><path d="m385.3 3.8h1.3v2.2h2.8v-2.2h1.3v2.2h4.1v9.1h1.7v1.3h-16.9v-1.3h1.7v-9.1h4.1v-2.2zm.4 13.1.7 1.2c-1.8.9-3.8 1.9-6 2.9-.2-.4-.5-.8-.8-1.3 2.3-1 4.3-1.9 6.1-2.8zm-3.1-6.4h2.8v-3.2h-2.8zm0 4.6h2.8v-3.3h-2.8zm4-4.6h2.8v-3.2h-2.8zm0 4.6h2.8v-3.3h-2.8zm3.7 1.9c2.1.9 4.1 1.8 6.1 2.7l-.7 1.3c-2.2-1.1-4.2-2-6.1-2.9zm3.2-9.7h-2.8v3.2h2.8zm-2.8 7.8h2.8v-3.3h-2.8z" fill="#fbfcfa"/><path d="m113.8 34.62v4.09c0 25.24.04 50.48-.07 75.71-.01 2.45-.9 4.91-1.48 7.34-.22.92-.68 1.78-1.05 2.66-1.83 4.4-4.9 8.73-5.14 13.21-.24 4.33 3.06 8.74 3.65 13.27.58 4.41-.18 9.02-.57 13.52-.46 5.38-1.24 10.74-1.67 16.12-.1 1.22.36 2.73 1.08 3.72 5.36 7.34 12.59 12.6 20.39 16.94 18.82 10.47 38.67 18.23 60.06 21.57 6.75 1.05 13.28.68 19.93-1.86 9.75-3.72 19.04-8.06 27.77-13.8 10.62-6.98 21.54-13.51 32.29-20.29 7.69-4.85 12.41-11.61 13.44-20.85.72-6.42 1.81-12.79 2.66-19.19.7-5.22 3.39-9.17 7.23-12.65 1.73-1.57 3.15-3.67 4.15-5.79 1.33-2.83.88-5.44-1.29-8.15-5.74-7.19-7.11-15.47-4.61-24.3 2.25-7.94 4.63-15.85 7.03-23.75 1.98-6.49 6.69-9.74 13.48-9.27 3.48.24 6.94.74 10.49 1.13.16.77.37 1.37.38 1.97.59 26.07 1.42 52.14 1.67 78.22.23 23.65-1.09 47.21-4.56 70.68-1.7 11.49-1.53 23.26-2.09 34.9-.5 10.47-.33 21-1.42 31.41-.58 5.54-2.7 11.1-5.03 16.23-2.97 6.54-6.8 12.69-10.43 18.91-.64 1.1-2.03 2.08-3.27 2.46-3.03.92-6.15 1.64-9.28 2.1-2.45.36-3.89 1.41-4.91 3.72-2.21 5.04-4.65 9.98-7.18 14.87-.61 1.18-1.8 2.4-3.01 2.87-10.09 3.87-19.78 8.49-29.27 13.72-16.35 9.01-34.04 11.69-52.58 9.8-15.79-1.61-31.13-5-46.04-10.4-1.83-.66-3.66-1.7-5.09-3.01-11.77-10.7-23.38-21.58-35.2-32.21-2.45-2.21-5.46-3.92-8.44-5.38-3.89-1.9-7.97-3.45-12.05-4.9-2.34-.83-3.88-2.21-4.33-4.56-1.31-6.73-3.24-13.45-3.55-20.24-.57-12.27.07-24.59-.18-36.88-.31-15.58-.9-31.15-1.56-46.71-.9-21.18-2.04-42.36-2.92-63.54-.1-2.35.68-4.79 1.31-7.12 7.95-29.54 15.95-59.07 23.94-88.6 1.04-3.83 6.09-7.68 10.05-7.7 2.32 0 4.62.01 7.27.01zm-2.1 198.41c-1.97 6.33-4.38 12.34-5.69 18.59-3.6 17.3.38 30.08 15.65 40.46 15.32 10.42 30.14 21.59 44.88 32.82 13.13 10.01 27.56 12.49 43.2 8.49 14.61-3.73 28.49-9.47 41.9-16.37 2.04-1.05 4.29-2.04 6.52-2.29 8.01-.88 14.42-4.16 18.78-11.13.83-1.33 1.93-2.56 3.12-3.59 2.38-2.07 3.09-4.77 3.02-7.68-.39-15.67-.77-31.34-1.37-47.01-.13-3.4-1.15-6.77-1.81-10.44-1.57.53-2.56.83-3.53 1.2-17.67 6.81-35.32 13.67-53.03 20.37-1.96.74-4.36 1.01-6.43.68-22.79-3.64-45.52-7.68-68.34-11.08-11.12-1.66-21.74-4.26-31.36-10.25-1.54-.95-3.22-1.63-5.51-2.77z" fill="#010101"/></svg>