<svg enable-background="new 0 0 400 400" viewBox="0 0 400 400" xmlns="http://www.w3.org/2000/svg"><path d="m70.3 195.2c0-31.7-.1-63.5 0-95.2 0-10.5 1.1-20.9 3.2-31.3 3.7-17.4 14.4-28 30.7-33.7 9.6-3.4 19.6-4.2 29.6-5.3 21-2.4 42-.8 62.9-.6 20.6.3 41.1.6 61.6 1.3 9.9.4 19.9 1.3 29.7 2.9 17.2 2.9 27 14.4 32.4 30.2 3.5 10.1 2.7 20.8 3.3 31.2 3.4 59.6 2.5 119.4 2.6 179.1 0 26.5-3.6 52.7-12.4 77.9-.6 1.6-1.5 3.2-2.7 4.4-8.8 8.7-19.8 12.2-31.8 14.1-19.1 3-38.3 2.7-57.5 3.1-23.6.6-47.3.6-71 .9-16.2.2-32.2-1.4-47.7-6.8-4.2-1.5-8.3-3.1-12.3-4.9-1.2-.5-2.2-1.4-3.1-2.4-9.3-10.8-14.1-23.5-15.5-37.4-1.3-13.3-2.3-26.7-2.5-40-.4-29.2-.1-58.4-.1-87.6.3.1.5.1.6.1zm17.3 11.4c0 32-.1 63.9 0 95.9.1 12.9 1.2 25.6 7.8 37.2 3 5.2 6.5 9.9 12.6 11.4 7.6 1.9 15.2 4.5 22.9 4.7 35 1.2 70.1 1.8 105.1 2.2 19.3.2 37.9-3.3 55.8-11 6.7-2.9 10.1-7 11.5-14.1 3.6-17.7 4.1-35.6 4.4-53.5.8-39.1.3-78.3.2-117.5 0-25.3-.1-50.6-.2-76 0-7.7-1.7-15.1-5.2-22.1-3.6-7.2-8.9-12.5-17.2-13.6-6.7-.9-13.4-1.5-20.1-1.8-17.7-.8-35.3-1.4-53-2-13.3-.5-26.5-1.2-39.8-1.2-12.8 0-25.6.8-38.4 1.2-13 .6-25.3 3.2-36 11.4-1.3 1-2.4 2.6-3 4.1-5 12.9-7.3 26.4-7.4 40.2-.1 34.9 0 69.7 0 104.5z" fill="#000001"/><g fill="#fafafb"><path d="m362.1 8.8c1.1.8 2.1 1.6 3.1 2.4l-1 1.1c-1.3-1.1-2.3-2-3-2.5zm1.9 4.8c.5.2.9.4 1.4.5-.6 2.3-1.3 4.5-1.9 6.8l-1.5-.5c.8-2.1 1.4-4.3 2-6.8zm-1-9.4c1.3.9 2.4 1.8 3.4 2.5l-1 1.1c-1.4-1.2-2.4-2.1-3.2-2.6zm3.7 2.2v-1.4h10.3v1.2c-.5 3.6-1.8 6.8-4 9.4 1.5 1.6 3.4 2.8 5.7 3.8-.3.4-.7.8-1.1 1.4-2.3-1.1-4.1-2.5-5.6-4.1-1.6 1.6-3.6 3.1-5.9 4.3-.3-.5-.7-.9-1-1.3 2.4-1.1 4.4-2.5 6-4.1-1.9-2.5-3-5.6-3.3-9.3h-1.1zm8.8 0h-6.4c.3 3.3 1.3 6 3 8.2 2-2.3 3.1-5.1 3.4-8.2z"/><path d="m385.3 3.8h1.3v2.2h2.8v-2.2h1.3v2.2h4.1v9.1h1.7v1.3h-16.9v-1.3h1.7v-9.1h4.1v-2.2zm.4 13.1.7 1.2c-1.8.9-3.8 1.9-6 2.9-.2-.4-.5-.8-.8-1.3 2.3-1 4.3-1.9 6.1-2.8zm-3.1-6.4h2.8v-3.2h-2.8zm0 4.6h2.8v-3.3h-2.8zm4-4.6h2.8v-3.2h-2.8zm0 4.6h2.8v-3.3h-2.8zm3.7 1.9c2.1.9 4.1 1.8 6.1 2.7l-.7 1.3c-2.2-1.1-4.2-2-6.1-2.9zm3.2-9.7h-2.8v3.2h2.8zm-2.8 7.8h2.8v-3.3h-2.8z"/></g></svg>