<svg enable-background="new 0 0 400 400" viewBox="0 0 400 400" xmlns="http://www.w3.org/2000/svg"><path d="m378.6 9.2.8-1c.9.7 1.9 1.4 2.9 2.3l-.9 1.1c-1.1-.9-2-1.7-2.8-2.4zm.5 10.7c.9-2.1 1.6-4.3 2.3-6.7.4.2.8.4 1.3.6-.7 2.1-1.5 4.3-2.2 6.6zm.4-15.2.9-.9c1 .8 2 1.6 2.8 2.4l-1 1c-1-.9-1.9-1.8-2.7-2.5zm12.5-1.3h1.2v1.4h2.7v1.1h-2.7v2.7h-1.2v-.5h-1.8v1.3h4.9v3.8h-1.2v-.5h-3.7c0 .4-.1.9-.1 1.2h5.1v1h-5.2c0 .5-.1.9-.2 1.2h6v1h-5.2c1.1 1.3 2.9 2 5.5 2.2-.4.4-.7.8-.9 1.3-2.9-.5-4.8-1.6-5.7-3.5h-.1c-.8 1.7-2.7 2.9-5.9 3.6-.2-.4-.6-.8-.9-1.1 2.8-.6 4.6-1.4 5.4-2.5h-4.8v-1h5.3c.1-.3.2-.7.2-1.2h-4.9v-1h5c0-.4 0-.8.1-1.2h-3.6v.5h-1.2v-3.8h4.9v-1.3h-1.8v.5h-1.2v-2.7h-2.6v-1.1h2.6v-1.4h1.2v1.4h4.7v-1.4zm-6.7 8.4h3.6c0-.4 0-.9 0-1.4h-3.6zm1.9-4.7h4.7v-1.2h-4.7zm6.7 3.3h-3.7v1.4h3.7z" fill="#fafbfc"/><path d="m384.7 21.4h1.3v2.2h2.8v-2.2h1.3v2.2h4.1v9.1h1.7v1.3h-16.9v-1.3h1.7v-9.1h4.1v-2.2zm.3 13.2.7 1.2c-1.8.9-3.8 1.9-6 2.9-.2-.4-.5-.8-.8-1.3 2.4-1 4.4-2 6.1-2.8zm-3.1-6.5h2.8v-3.2h-2.8zm0 4.6h2.8v-3.3h-2.8zm4.1-4.6h2.8v-3.2h-2.8zm0 4.6h2.8v-3.3h-2.8zm3.6 1.9c2.1.9 4.1 1.8 6.1 2.7l-.7 1.3c-2.2-1.1-4.2-2-6.1-2.9zm3.3-9.7h-2.8v3.2h2.8zm-2.8 7.8h2.8v-3.3h-2.8z" fill="#fafbfc"/><path d="m263.49 319.38c5.84 1.06 10.88 2.66 15.96 2.76 14.5.29 29.01.09 43.52-.16 5.49-.09 9.97 1.73 13.56 5.68 2.65 2.92 2.35 4.59-.81 6.92-8.83 6.5-19.04 9.72-29.57 11.79-8.07 1.59-16.35 2.11-24.49 3.42-6.58 1.06-13.25 2.02-19.58 4-14.73 4.61-29.59 4.35-44.64 2.71-2.05-.22-4.56.17-6.28 1.23-3.95 2.44-8.23 1.92-12.37 2-37.08.77-74.15 1.95-111.15 4.69-3.12.23-6.16 1.43-9.25 2.12-1.65.37-3.32.88-4.97.88-5.6 0-7.13-1.49-6.57-6.91.37-3.54-1.27-7.87 3.21-10.17 3.35-1.72 6.54-3.89 10.06-5.07 3.47-1.17 7.26-1.41 10.93-1.93 6.19-.88 12.41-1.52 18.57-2.56 2.57-.43 5.09-1.46 7.49-2.51 8.18-3.58 7.06-8.26 2.19-15.28-2.28-3.28-4.68-6.51-6.59-10-1.46-2.67-2.19-5.72-3.32-8.58-2.2-5.55-4.86-10.75-9.9-14.43-5.1-3.73-8.97-8.58-12.31-13.97-4.58-7.38-9.45-14.58-14.29-21.8-2.94-4.38-6.49-8.04-11.69-9.85-1.26-.44-2.67-1.67-3.13-2.88-.94-2.43-1.31-5.09-1.84-7.67-.73-3.54 2.54-4.35 4.38-5.92 8.11-6.92 14.28-15.32 19.4-24.56 5.08-9.17 9.85-18.53 15.25-27.51 2.98-4.96 6.86-9.4 10.52-13.92 21.62-26.7 43.28-53.36 64.97-80 1.19-1.46 2.62-2.78 4.12-3.91 7.72-5.78 15.55-11.42 23.22-17.27 1.19-.91 2.19-2.54 2.53-4.01 1.01-4.43 1.72-8.94 2.4-13.45.31-2.07.96-3.61 3.19-4.15.91-.22 1.71-.88 2.62-1.12 2.71-.71 4.9-3.54 8.24-1.81 4.39 2.27 8.2 5.14 9.43 10.14 1.14 4.61 1.71 9.37 2.63 14.04.32 1.63.65 3.38 1.46 4.79 16.65 28.7 29.04 59.28 40.19 90.44 1.45 4.05 4.54 7.52 6.87 11.26.78 1.25 1.78 2.41 2.3 3.76 4.42 11.67 8.93 23.3 13.08 35.07 4.53 12.84 8.14 26 7.17 39.76-.51 7.34-2.2 14.62-3.78 21.84-.36 1.66-2.23 3.3-3.81 4.33-4.29 2.81-7.11 6.42-8.14 11.51-2.08 10.3-8.45 18.33-14.3 26.63-2.02 2.86-3.98 5.74-6.68 9.63zm-53.14-250.52c-6.41 8.74-12.25 16.4-17.74 24.32-3.5 5.05-7.51 9.33-12.91 12.37-1.41.79-2.49 2.48-3.29 3.98-2.23 4.17-3.68 8.87-6.42 12.65-10.01 13.82-20.56 27.25-30.63 41.02-11.06 15.12-23.14 29.27-37.71 41.15-3.83 3.12-8.83 5.57-11.17 9.57-2.43 4.14-1.99 9.87-3.35 14.75-1.86 6.66.95 11.38 5.68 15.33 3.9 3.25 8.15 6.08 12.19 9.17.97.75 2.11 1.64 2.51 2.72 3.64 9.74 10.79 16.82 17.76 24.09 2.25 2.34 4.45 4.89 5.99 7.71 6.97 12.72 13.99 25.43 20.35 38.46 2.59 5.31 6.46 7.24 11.64 7.58 3.36.22 6.77-.07 10.15-.27 3.69-.21 7.47-1.26 11.03-.75 8.71 1.25 16.8-.34 24.71-3.76.68-.29 1.43-.43 2.1-.73 2.42-1.09 4.84-1.29 7.36-.28 6.83 2.74 12.7.38 17.93-3.89 6.68-5.47 12.44-11.83 16.82-19.34 6.25-10.7 12.21-21.58 18.78-32.08 4.04-6.47 6.56-13.21 7.01-20.76.39-6.63 1.69-13.45-2.05-19.57-5.39-8.82-8.43-18.49-10.43-28.48-3.7-18.48-9.37-36.26-17.7-53.18-2.61-5.31-5.69-10.43-7.76-15.94-5.7-15.17-11.19-30.4-19.03-44.65-3.77-6.86-7.61-13.66-11.82-21.19z" fill="#010104"/></svg>