<svg enable-background="new 0 0 400 400" viewBox="0 0 400 400" xmlns="http://www.w3.org/2000/svg"><path d="m100.71 174.52c9.08-4.17 18.54-6.46 28.16-8.01 13.07-2.11 26.23-3.63 39.27-5.89 5.36-.93 10.59-2.9 15.68-4.91 1.68-.66 3.31-2.69 4-4.46 4.98-12.84 5.13-26.17 2.71-39.47-3.01-16.56-6.64-33.01-10.02-49.5-1.17-5.7-1.21-11.37.55-16.96 3.03-9.6 17.61-13.93 25.32-7.41 1.36 1.15 2.33 3.01 2.92 4.73.72 2.08 1.22 4.37 1.16 6.55-.23 8.03 2.98 15.02 5.97 22.15.8 1.9 1.01 4.31.69 6.35-1.08 6.8-2.87 13.49-3.68 20.31-.4 3.45.26 7.21 1.28 10.59 2.3 7.66.73 14.79-1.68 22.04-.98 2.93-1.69 6.19-1.48 9.23.36 5.04 3.67 8.26 8.13 10.53 10.33 5.26 21.34 5.84 32.56 4.95 11.29-.9 22.55-2.5 33.85-2.86 11.66-.38 22.85 2.43 33.65 8.13-5.29 4.97-11.24 8.27-17.6 10.87-10.83 4.43-22.32 5.82-33.81 6.9-8.54.8-17.13.98-25.7 1.43-1.02.05-2.04.01-3.67.01 1.82-1.99 3.2-3.5 4.65-5.08-3.08-1.98-5.45-1.77-8.17.73-5 4.58-10.46 8.65-15.57 13.11-1.01.88-1.88 2.6-1.84 3.9 1.05 32.85 2.24 65.7 3.34 98.55.06 1.76.56 2.81 2.08 3.82 9.74 6.49 20.56 7.29 31.76 6.34 8.19-.7 15.92-2.58 23.3-6.6 11.69-6.38 23.76-12.08 35.94-18.21 1.68 4.93 2.77 9.85.17 14.26-4.64 7.84-5.29 15.72-2.36 24.22.58 1.67.15 3.98-.49 5.74-3.83 10.43-7.8 20.82-11.9 31.15-.49 1.23-1.86 2.61-3.1 2.98-25.87 7.63-52.29 11.84-79.27 11.57-22.03-.22-44.05-1.22-66.07-1.86-16.52-.49-33.05-1.08-49.57-1.35-3.72-.06-6.02-1.55-8.24-4.23-12.06-14.59-17.01-31.59-16.62-50.17.16-7.79 1.55-15.56 2.6-23.31.14-1.06 1.38-2.59 2.35-2.81 2.73-.61 5.79-1.44 8.35-.77 6.26 1.66 12.03 4.45 16.28 9.8 16.72 21.05 42.86 23.37 63.87 14.55.74-.31 1.41-.92 1.95-1.54 10.69-12.31 16.69-26.61 16.54-42.92-.17-18.76-1.15-37.51-1.9-56.26-.04-.99-.98-2.26-1.86-2.87-15.07-10.41-31.52-13.15-49.36-9.21-4.57 1.01-9.55 1.35-14.16.7-10-1.4-17-8.29-20.96-19.53z" fill="#010100"/><g fill="#fbfafc"><path d="m342.2 3.2-6.3 9.2h6.1v1.2h-8.2v-.5l6.2-9.1h-5.7v-1.2h7.8v.4z"/><path d="m344 13.7v-10.9h3.1c1.6 0 3 .5 4.1 1.4 1.1 1 1.6 2.2 1.6 3.9s-.5 3-1.6 4-2.5 1.5-4.2 1.5h-3zm1.4-9.6v8.4h1.6c1.4 0 2.5-.4 3.2-1.1.8-.8 1.2-1.8 1.2-3.2s-.4-2.4-1.2-3.1-1.8-1-3.1-1z"/><path d="m356.3 2.8v10.9h-1.4v-10.9z"/><path d="m366.6 13.2c-.8.4-1.8.6-3 .6-1.6 0-2.8-.5-3.7-1.5s-1.4-2.3-1.4-3.9c0-1.7.5-3.2 1.6-4.2s2.4-1.6 4-1.6c1 0 1.9.1 2.6.4v1.5c-.8-.4-1.6-.6-2.6-.6-1.2 0-2.2.4-3 1.2s-1.1 1.9-1.1 3.3c0 1.3.4 2.3 1.1 3.1s1.6 1.1 2.8 1.1c1.1 0 2-.2 2.8-.7v1.3z"/><path d="m368.2 13c0-.3.1-.5.3-.6.2-.2.4-.3.6-.3.3 0 .5.1.7.3s.3.4.3.6-.1.5-.3.6c-.2.2-.4.3-.7.3s-.5-.1-.6-.3c-.2-.2-.3-.4-.3-.6z"/><path d="m381.1 13.7h-1.7l-5.5-8.4c-.2-.2-.3-.5-.4-.7 0 .2.1.8.1 1.5v7.6h-1.4v-10.9h1.8l5.3 8.3c.3.4.4.6.4.8 0-.3-.1-.8-.1-1.6v-7.5h1.4v10.9z"/><path d="m389.7 13.7h-5.8v-10.9h5.6v1.2h-4.2v3.5h3.9v1.2h-3.9v3.7h4.4z"/><path d="m398.4 4.1h-3.1v9.6h-1.4v-9.6h-3.1v-1.3h7.7v1.3z"/></g></svg>