<svg enable-background="new 0 0 400 400" viewBox="0 0 400 400" xmlns="http://www.w3.org/2000/svg"><path d="m200.9 148.8c-3.1-20.5-6.2-40.9-9.2-61-7.2 0-14.2-.2-21.1 0-17.2.5-34.5 1.2-51.7 1.7-7.7.2-15.4.1-23.2-.1-5.2-.2-7.9-3.1-7.9-7.5 0-2.1.6-3.7 2.8-4.2 5.7-1.2 11.4-3 17.1-3.4 13.1-.7 26.3-.4 39.4-1.1 14-.8 28-2.4 41.9-3.8 16.7-1.6 33.4-3.1 50.1-5.1 15.4-1.8 30.7-4.1 46-6.2 2.3-.3 3.8-1.5 4-3.7.3-2.5.4-5.1.1-7.5-.7-6-.5-11.7 3.5-16.7 1.6-2 3.1-2.1 5.1-1 3.3 1.8 5.3 4.7 5.5 8.2 1.4 22.4 7.2 44.7 4.3 67.3-1.1 8.8-3.4 17.5-5.3 26.2-.3 1.2-1.3 2.3-2.2 3.2-13.4 13-30.1 18.9-47.9 22.4-8.7 1.7-17.4 3.1-26.1 4.7-.9.2-1.7.4-2.5.7-4.5 1.5-4.7 2.1-4 6.7 6.8 41 13.5 82 20.5 122.9 3.1 18.5 6.9 36.9 10.1 55.4 1 6.1 1.6 12.3 1.7 18.4.1 5.6-3.1 8.5-8 8.6-1.8 0-3-.5-3.9-2.3-4.5-8.7-5.9-18.2-7.2-27.7-2.8-19.7-5.9-39.3-9.1-58.9-6.2-38.3-12.6-76.5-18.9-114.8-.7-4.3-1.3-5.3-5.7-4.9-5.6.5-11.1 1.7-16.7 2.5-15.1 2.2-30.2 4.5-45.2 6.7-11.7 1.7-23.4 3.4-35.1 5-1.3.2-2.6.3-4 .3-3 .1-6-1.1-6.4-4.1-.4-2.8.5-6 1.2-8.8.1-.6 2.1-.8 3.3-1 34.1-5.5 68.3-11 102.4-16.5.8-.3 1.5-.4 2.3-.6zm4.7-62.8c.1 1.1.1 1.8.2 2.4 3.6 18.2 7.4 36.3 10.8 54.6.6 3.4 2 4 5 3.9 14.4-.7 28.5-3.3 42.3-7.5 7.8-2.4 15-5.7 21.7-10.5 2.9-2.1 4.9-4.6 5.9-8.1 3.7-13.2 4.6-26.5 2.6-40-.5-3.2-1.8-6.2-2.7-9.3-28.9 4.9-57.2 9.7-85.8 14.5z" fill="#000001"/><g fill="#fafafb"><path d="m362.1 8.8c1.1.8 2.1 1.6 3.1 2.4l-1 1.1c-1.3-1.1-2.3-2-3-2.5zm1.9 4.8c.5.2.9.4 1.4.5-.6 2.3-1.3 4.5-1.9 6.8l-1.5-.5c.8-2.1 1.4-4.3 2-6.8zm-1-9.4c1.3.9 2.4 1.8 3.4 2.5l-1 1.1c-1.4-1.2-2.4-2.1-3.2-2.6zm3.7 2.2v-1.4h10.3v1.2c-.5 3.6-1.8 6.8-4 9.4 1.5 1.6 3.4 2.8 5.7 3.8-.3.4-.7.8-1.1 1.4-2.3-1.1-4.1-2.5-5.6-4.1-1.6 1.6-3.6 3.1-5.9 4.3-.3-.5-.7-.9-1-1.3 2.4-1.1 4.4-2.5 6-4.1-1.9-2.5-3-5.6-3.3-9.3h-1.1zm8.8 0h-6.4c.3 3.3 1.3 6 3 8.2 2-2.3 3.1-5.1 3.4-8.2z"/><path d="m385.3 3.8h1.3v2.2h2.8v-2.2h1.3v2.2h4.1v9.1h1.7v1.3h-16.9v-1.3h1.7v-9.1h4.1v-2.2zm.4 13.1.7 1.2c-1.8.9-3.8 1.9-6 2.9-.2-.4-.5-.8-.8-1.3 2.3-1 4.3-1.9 6.1-2.8zm-3.1-6.4h2.8v-3.2h-2.8zm0 4.6h2.8v-3.3h-2.8zm4-4.6h2.8v-3.2h-2.8zm0 4.6h2.8v-3.3h-2.8zm3.7 1.9c2.1.9 4.1 1.8 6.1 2.7l-.7 1.3c-2.2-1.1-4.2-2-6.1-2.9zm3.2-9.7h-2.8v3.2h2.8zm-2.8 7.8h2.8v-3.3h-2.8z"/></g></svg>