<svg enable-background="new 0 0 400 400" viewBox="0 0 400 400" xmlns="http://www.w3.org/2000/svg"><path d="m73.49 367.36c-1.86-6.55-.68-11.99.61-17.3 1.88-7.71 4.04-15.36 6.37-22.95.72-2.34 2.07-4.63 3.61-6.56 4.3-5.39 7.13-11.48 9.44-17.9 1.18-3.28 2.47-6.55 4.01-9.67 2.82-5.74 6.48-10.76 11.44-15.03 13.27-11.4 26.1-23.31 39.42-34.66 5.95-5.07 12.59-9.34 19.02-13.83 2.1-1.46 3.46-3.15 4.29-5.59 8.73-25.54 17.57-51.05 26.32-76.58 2.17-6.31 6.05-11.38 11.09-15.58 3.5-2.92 7.22-5.56 10.81-8.37 8.4-6.56 13.93-15.63 20.63-23.67 4.48-5.37 8.48-11.16 13.15-16.35 3.68-4.08 5.6-8.62 5.87-13.95.15-2.97 1.45-4.98 3.82-6.83 10.68-8.37 21.16-16.99 31.84-25.37 1.33-1.04 3.51-1.84 5.1-1.57 5.09.86 10.23 1.88 15.08 3.58 5.94 2.08 7.32 5.17 6.17 11.36-.87 4.69-1.39 9.16.68 13.92 1.37 3.16 1.35 7.04 1.45 10.61.26 9.9-.8 19.7-3.72 29.18-3.11 10.12-3.16 20.41-2.8 30.82.44 12.4.95 24.81.62 37.2-.21 7.9-1.55 15.82-2.98 23.63-2.92 15.95-3.17 32.02-2.98 48.15.03 2.48-.49 5.04-1.19 7.43-2.91 9.95-6.15 19.81-8.92 29.8-.84 3-2.07 4.68-5.43 4.65-4.82-6.21-6.96-13.55-8.04-21.29-1.57-11.23-.86-22.46.39-33.63 1.33-11.89 3.19-23.72 4.83-35.57.58-4.16-.02-7.89-4.01-10.2-3.58-2.07-8.3-1.14-12 1.68-2.05 1.57-4.48 3.01-6.95 3.59-6.69 1.55-12.95 3.96-18.71 7.66-13.45 8.63-26.87 17.32-40.29 26-.71.46-1.3 1.09-1.97 1.61-6.15 4.76-9.84 10.69-11.54 18.58-5.24 24.21-11.22 48.27-16.9 72.38-.24 1.03-.5 2.08-.52 3.13-.06 5.16-3.3 7.4-7.69 8.85-2.07.69-3.08.03-4.01-1.73-2.8-5.29-4.01-11.03-3.9-16.87.23-11.76.94-23.51 1.43-35.27.17-4.23.47-8.48.33-12.71-.17-5.11-2.44-6.5-7.1-4.78-.2.07-.4.13-.61.19-6.1 1.73-10.82 4.71-14.7 10.31-3.61 5.21-9.46 8.92-14.49 13.09-4.48 3.71-9.19 7.13-13.8 10.69-1.82 1.41-2.65 3.23-2.27 5.55.37 2.27-.32 4.15-2.11 5.63-6.32 5.19-8.54 12.7-11.1 19.97-1.95 5.54-4.17 10.87-8.55 14.99-4.23 3.99-6.32 9.11-8.1 14.49-1.09 3.28-2.54 6.54-4.41 9.43-1.29 2.04-3.57 3.43-6.03 5.66zm225.19-315.64c-.53.31-.75.38-.89.52-18.52 19.21-35.5 39.57-47.66 63.56-10.55 20.82-22.55 40.96-29.58 63.42-1.05 3.35-1.59 6.85-2.54 11.07 2.18-.81 3.27-1.17 4.32-1.62 13.62-5.8 27.18-11.77 40.89-17.36 6.27-2.55 11.97-5.69 16.72-10.57 1.04-1.07 2.87-1.65 4.42-1.89 3.31-.52 6.67-.67 10.04-.97.3-2.93.59-5.56.85-8.19 2.04-20.76 4.15-41.52 6.06-62.29.76-8.31 1.32-16.66 1.45-25 .07-3.81-.57-7.85-4.08-10.68z" fill="#010000"/><g fill="#fafafb"><path d="m361.2 9.6.8-1c.9.7 1.9 1.4 2.9 2.3l-.9 1.1c-1-1-2-1.8-2.8-2.4zm.5 10.6c.9-2.1 1.6-4.3 2.3-6.7.4.2.8.4 1.3.6-.7 2.1-1.5 4.3-2.2 6.6zm.4-15.2.9-.9c1 .8 2 1.6 2.8 2.4l-1 1c-.9-.9-1.8-1.7-2.7-2.5zm12.5-1.2h1.2v1.4h2.7v1.1h-2.7v2.7h-1.2v-.6h-1.8v1.3h4.9v3.8h-1.2v-.5h-3.7c0 .4-.1.9-.1 1.2h5.1v1h-5.2c0 .5-.1.9-.2 1.2h6v1h-5.2c1.1 1.3 2.9 2 5.5 2.2-.4.4-.7.8-.9 1.3-2.9-.5-4.8-1.6-5.7-3.5h-.1c-.8 1.7-2.7 2.9-5.9 3.6-.2-.4-.6-.8-.9-1.1 2.8-.6 4.6-1.4 5.4-2.5h-4.8v-1h5.3c.1-.3.2-.7.2-1.2h-4.9v-1h5c0-.4 0-.8.1-1.2h-3.5v.5h-1.2v-3.8h4.9v-1.3h-1.8v.5h-1.2v-2.7h-2.7v-1h2.6v-1.4h1.2v1.4h4.7v-1.4zm-6.6 8.3h3.6c0-.4 0-.9 0-1.4h-3.6zm1.9-4.6h4.7v-1.3h-4.7zm6.6 3.2h-3.7v1.4h3.7z"/><path d="m385.3 3.8h1.3v2.2h2.8v-2.2h1.3v2.2h4.1v9.1h1.7v1.3h-16.9v-1.3h1.7v-9.1h4.1v-2.2zm.4 13.1.7 1.2c-1.8.9-3.8 1.9-6 2.9-.2-.4-.5-.8-.8-1.3 2.3-1 4.3-1.9 6.1-2.8zm-3.1-6.4h2.8v-3.2h-2.8zm0 4.6h2.8v-3.3h-2.8zm4-4.6h2.8v-3.2h-2.8zm0 4.6h2.8v-3.3h-2.8zm3.7 1.9c2.1.9 4.1 1.8 6.1 2.7l-.7 1.3c-2.2-1.1-4.2-2-6.1-2.9zm3.2-9.7h-2.8v3.2h2.8zm-2.8 7.8h2.8v-3.3h-2.8z"/></g></svg>