<svg enable-background="new 0 0 400 400" viewBox="0 0 400 400" xmlns="http://www.w3.org/2000/svg"><path d="m125.16 34.7c10.77.82 20.74 3.47 29.23 9.58 18.8 13.55 39.44 24.01 59.21 35.92 2.03 1.22 3.94 2.86 5.45 4.68 5.22 6.28 10.34 12.64 15.28 19.14 3.06 4.03 6.48 7.49 10.94 9.95 4.32 2.38 7.82 5.62 10.71 9.69 11.87 16.67 22.05 34.2 27.32 54.15 1.17 4.44 1.85 9.2 1.67 13.76-.48 12.2 1.7 24.05 3.54 35.98.31 2.01.16 4.23-.35 6.2-1.13 4.4-2.44 8.78-4.02 13.04-1.31 3.52-2.82 7.03-4.79 10.22-2.96 4.8-4.02 10.06-4.24 15.45-.29 7-2.51 13.13-6.19 19.02-4.2 6.74-7.83 13.83-11.87 20.66-1.04 1.76-2.46 3.54-4.14 4.66-20.54 13.77-41.92 26.1-64.65 35.86-5.72 2.45-12.34 2.77-18.49 4.26-9.54 2.31-19 4.98-28.58 7.12-7.75 1.73-15.61 3.13-23.63 1.65-1.04-.19-2.09-.37-3.11-.64-7.17-1.89-8.95-4.18-8.7-11.55.03-.79.91-2.03 1.63-2.24 3.72-1.08 7.48-2.16 11.3-2.74 3.75-.57 7.63-.26 11.37-.86 3.85-.62 4.61-2 4.54-5.83-.4-23.32-.85-46.64-1.1-69.97-.06-5.5.3-11.05 1.11-16.48.38-2.55 2.46-4.8 3.49-7.31.97-2.37 2.18-4.87 2.25-7.34.55-20.03.85-40.07 1.24-60.1.01-.74-.11-1.53.1-2.22 3.98-12.81 1.63-25.86 1.5-38.82-.02-2.26.38-4.63 1.09-6.79 4.54-13.89 7.57-28.08 7.16-42.73-.18-6.39-1.47-12.81-2.86-19.08-.54-2.46-2.43-4.85-4.23-6.77-4.14-4.4-8.7-8.39-12.91-12.72-4.38-4.51-6.7-9.92-6.27-16.8zm59.69 62.71c-.33 1-.67 1.87-.92 2.77-3.65 13.38-7.32 26.75-10.89 40.16-.51 1.9-.75 3.97-.64 5.93.84 15.12 2.15 30.26-1.44 45.23-2.91 12.17-2.85 24.27.56 36.35.47 1.66.42 3.6.12 5.32-.75 4.38-1.77 8.72-2.7 13.06-4.45 20.71-9.04 41.38-13.3 62.13-1.61 7.82-1.76 15.77.06 23.68.62 2.69 1.7 4.12 4.65 3.7 3.14-.44 6.36-.44 9.45-1.09 16.32-3.45 30.67-11.43 44.77-19.91 12.21-7.35 23.15-16.07 30.51-28.63 1.39-2.37 3.02-4.63 4.75-6.76 5.44-6.69 9.15-14.12 10.73-22.67.86-4.67 2.76-9.15 3.55-13.83.91-5.38 1.88-10.93 1.51-16.32-1.5-21.58-6.66-42.44-13.73-62.83-3.37-9.71-8.14-18.47-16.12-25.44-5.73-5-10.64-10.94-15.99-16.38-4.98-5.06-9.92-10.18-15.15-14.98-5.53-5.08-11.91-8.71-19.78-9.49z" fill="#010000"/><path d="m198.44 182.11c6.82 4.77 10.39 11.28 12.95 18.28 6.96 19.02 11.2 38.62 11.42 58.96.07 5.84-3.2 8.83-9.12 8.32-2.72-.23-5.44-.9-8.05-1.72-1.04-.33-2.02-1.46-2.62-2.47-5.9-9.89-8.8-20.83-10.66-32.05-2.16-13.08-2.59-26.17 1.76-38.97 1.18-3.45 2.81-6.76 4.32-10.35z" fill="#010000"/><g fill="#fafafb"><path d="m361.2 9.6.8-1c.9.7 1.9 1.4 2.9 2.3l-.9 1.1c-1-1-2-1.8-2.8-2.4zm.5 10.6c.9-2.1 1.6-4.3 2.3-6.7.4.2.8.4 1.3.6-.7 2.1-1.5 4.3-2.2 6.6zm.4-15.2.9-.9c1 .8 2 1.6 2.8 2.4l-1 1c-.9-.9-1.8-1.7-2.7-2.5zm12.5-1.2h1.2v1.4h2.7v1.1h-2.7v2.7h-1.2v-.6h-1.8v1.3h4.9v3.8h-1.2v-.5h-3.7c0 .4-.1.9-.1 1.2h5.1v1h-5.2c0 .5-.1.9-.2 1.2h6v1h-5.2c1.1 1.3 2.9 2 5.5 2.2-.4.4-.7.8-.9 1.3-2.9-.5-4.8-1.6-5.7-3.5h-.1c-.8 1.7-2.7 2.9-5.9 3.6-.2-.4-.6-.8-.9-1.1 2.8-.6 4.6-1.4 5.4-2.5h-4.8v-1h5.3c.1-.3.2-.7.2-1.2h-4.9v-1h5c0-.4 0-.8.1-1.2h-3.5v.5h-1.2v-3.8h4.9v-1.3h-1.8v.5h-1.2v-2.7h-2.7v-1h2.6v-1.4h1.2v1.4h4.7v-1.4zm-6.6 8.3h3.6c0-.4 0-.9 0-1.4h-3.6zm1.9-4.6h4.7v-1.3h-4.7zm6.6 3.2h-3.7v1.4h3.7z"/><path d="m385.3 3.8h1.3v2.2h2.8v-2.2h1.3v2.2h4.1v9.1h1.7v1.3h-16.9v-1.3h1.7v-9.1h4.1v-2.2zm.4 13.1.7 1.2c-1.8.9-3.8 1.9-6 2.9-.2-.4-.5-.8-.8-1.3 2.3-1 4.3-1.9 6.1-2.8zm-3.1-6.4h2.8v-3.2h-2.8zm0 4.6h2.8v-3.3h-2.8zm4-4.6h2.8v-3.2h-2.8zm0 4.6h2.8v-3.3h-2.8zm3.7 1.9c2.1.9 4.1 1.8 6.1 2.7l-.7 1.3c-2.2-1.1-4.2-2-6.1-2.9zm3.2-9.7h-2.8v3.2h2.8zm-2.8 7.8h2.8v-3.3h-2.8z"/></g></svg>