<svg enable-background="new 0 0 400 400" viewBox="0 0 400 400" xmlns="http://www.w3.org/2000/svg"><path d="m378.6 9.2.8-1c.9.7 1.9 1.4 2.9 2.3l-.9 1.1c-1.1-.9-2-1.7-2.8-2.4zm.5 10.7c.9-2.1 1.6-4.3 2.3-6.7.4.2.8.4 1.3.6-.7 2.1-1.5 4.3-2.2 6.6zm.4-15.2.9-.9c1 .8 2 1.6 2.8 2.4l-1 1c-1-.9-1.9-1.8-2.7-2.5zm12.5-1.3h1.2v1.4h2.7v1.1h-2.7v2.7h-1.2v-.5h-1.8v1.3h4.9v3.8h-1.2v-.5h-3.7c0 .4-.1.9-.1 1.2h5.1v1h-5.2c0 .5-.1.9-.2 1.2h6v1h-5.2c1.1 1.3 2.9 2 5.5 2.2-.4.4-.7.8-.9 1.3-2.9-.5-4.8-1.6-5.7-3.5h-.1c-.8 1.7-2.7 2.9-5.9 3.6-.2-.4-.6-.8-.9-1.1 2.8-.6 4.6-1.4 5.4-2.5h-4.8v-1h5.3c.1-.3.2-.7.2-1.2h-4.9v-1h5c0-.4 0-.8.1-1.2h-3.6v.5h-1.2v-3.8h4.9v-1.3h-1.8v.5h-1.2v-2.7h-2.6v-1.1h2.6v-1.4h1.2v1.4h4.7v-1.4zm-6.7 8.4h3.6c0-.4 0-.9 0-1.4h-3.6zm1.9-4.7h4.7v-1.2h-4.7zm6.7 3.3h-3.7v1.4h3.7z" fill="#fafbfc"/><path d="m384.7 21.4h1.3v2.2h2.8v-2.2h1.3v2.2h4.1v9.1h1.7v1.3h-16.9v-1.3h1.7v-9.1h4.1v-2.2zm.3 13.2.7 1.2c-1.8.9-3.8 1.9-6 2.9-.2-.4-.5-.8-.8-1.3 2.4-1 4.4-2 6.1-2.8zm-3.1-6.5h2.8v-3.2h-2.8zm0 4.6h2.8v-3.3h-2.8zm4.1-4.6h2.8v-3.2h-2.8zm0 4.6h2.8v-3.3h-2.8zm3.6 1.9c2.1.9 4.1 1.8 6.1 2.7l-.7 1.3c-2.2-1.1-4.2-2-6.1-2.9zm3.3-9.7h-2.8v3.2h2.8zm-2.8 7.8h2.8v-3.3h-2.8z" fill="#fafbfc"/><path d="m231.8 365.61c.77-2.48 1.36-4.66 2.13-6.78.54-1.48 1.52-2.82 1.95-4.32.65-2.26.56-4.38-2.04-5.61-3.83-1.8-5.25-5.24-6.77-9.01-2.85-7.11-3.69-14.29-2.69-21.76 1.04-7.76-.11-15.17-3.24-22.3-4.04-9.22-5.9-18.69-3.61-28.71.62-2.71-.08-5.09-1.76-7.42-1.05-1.46-1.51-3.45-1.88-5.28-1.04-5.08-1.59-10.28-2.91-15.29-1.34-5.09-3.46-9.96-5.05-14.99-.44-1.4-.68-3.17-.21-4.48 1.27-3.5 1.28-6.95-.16-10.23-1.99-4.52-4.07-9.06-6.67-13.25-2.22-3.57-8-2.95-10.23.69-5.16 8.43-8.34 17.49-9.76 27.31-1 6.9-3.04 13.64-4.11 20.53-.83 5.39-1.35 10.92-1.13 16.35.22 5.56-.56 10.52-4.56 14.83 3.21 3.07 3.64 6.57 2.92 10.62-.53 2.98-.53 6.15-.17 9.17 1.7 13.94-1.23 27.44-3.52 41.01-.3 1.77-.66 3.54-.99 5.31-.85 4.59-.85 4.59-6.26 4.97.6-8.01-2.41-16.19 1.95-23.94.38-.68.02-2.4-.6-2.92-4.27-3.57-4.84-8.52-5.25-13.5-.3-3.69-.12-7.42-.44-11.11-.34-3.81-1.14-7.64 4.03-8.67-.15-.56-.15-.87-.26-.92-4.06-1.79-4.54-5.06-4.36-9.07.3-6.77.27-13.58.02-20.35-.18-4.73.23-9.05 4.7-12.33-5.15-3.31-3.77-7.63-2.73-11.89.25-1.03.47-2.08.86-3.06 3.3-8.45 4.93-17.22 5.87-26.23.4-3.78 1.91-7.6 3.61-11.05 3.54-7.18 5-14.81 5.86-22.63.36-3.29 1-6.28 3.32-8.97 2.92-3.38 4.05-7.65 4-12.12-.06-4.88-.09-9.76-.53-14.61-.13-1.38-1.43-3.4-2.6-3.74-1.21-.35-3.2.65-4.34 1.65-3.25 2.85-6.37 5.87-9.31 9.04-7.05 7.6-14.01 15.3-20.89 23.06-.65.73-.82 2.19-.69 3.25.31 2.68-.84 4.51-2.89 5.92-5.59 3.84-11.48 7.06-18.18 8.61-1.2-4.65-1.11-4.84 2.87-6.76 7.76-3.73 7.68-3.73 7.38-12.31-.09-2.51.14-5.09.69-7.53.58-2.58 2.18-4.31 5.04-5.1 1.9-.52 3.83-1.88 5.13-3.4 2.82-3.28 5.35-6.84 7.82-10.41 9.16-13.25 18.15-26.62 27.42-39.79 1.94-2.76 2.29-5.32 2.01-8.54-.79-9.16-1.93-18.39-1.52-27.52.38-8.45 2.59-16.83 3.99-25.22 4.84.78 7.11 3.02 7.15 7.52.11 14.48 4.06 28.26 7.21 42.19.27 1.2 1.69 2.88-.99 3.3-.1.02-.24 1.2 0 1.63.52.9 1.24 1.71 1.95 2.48 7.5 8.08 14.91 16.25 22.58 24.18 3.51 3.63 7.63 6.65 11.28 10.15 1.54 1.48 2.52 3.53 3.84 5.26 1.51 1.97 2.76 4.39 4.73 5.7 9.93 6.61 18.19 14.75 24.54 24.89 2.52 4.02 5.56 7.71 8.42 11.61-3.32 2.64-6.56 2.15-9.57.14-2.81-1.88-5.39-4.11-8.03-6.24-5.03-4.06-9.87-8.39-15.1-12.16-2.86-2.07-6.41-3.16-9.57-4.85-1.44-.77-2.92-1.72-3.97-2.95-4.83-5.63-9.51-11.38-14.5-17.39-1.64 2.92-3.58 2.8-6.23 1.38-2.9-1.56-5.16.12-5.17 3.36-.02 6.15-.09 12.3.06 18.45.03 1.34.55 3.01 1.46 3.94 7.64 7.87 12.36 17.26 15.23 27.76 1.28 4.68 3.08 9.23 4.8 13.79 1.51 4 2.63 8.02 2.25 12.37-.09.99.08 2.26.65 3.01 6.68 8.89 7.34 19.35 8.06 29.84.45 6.55 1.27 13.08 1.68 19.64.09 1.37-.52 3.06-1.38 4.17-3.15 4.07-3.38 6.85-.86 11.37 1.38 2.48 2.59 5.09 3.5 7.77.53 1.54.98 3.66.33 4.94-3.62 7.18-1.15 14.32-.34 21.49.57 5.05 1.18 10.1 1.44 15.16.22 4.24-1.73 7.54-5.54 9.43.1.43.09.74.18.77 4.23 1.59 4.86 4.72 4.28 8.81-.68 4.82-.97 9.71-1.12 14.57-.08 2.61-1.04 3.7-4.51 3.32z" fill="#010104"/></svg>