<svg enable-background="new 0 0 400 400" viewBox="0 0 400 400" xmlns="http://www.w3.org/2000/svg"><path d="m378.6 9.2.8-1c.9.7 1.9 1.4 2.9 2.3l-.9 1.1c-1.1-.9-2-1.7-2.8-2.4zm.5 10.7c.9-2.1 1.6-4.3 2.3-6.7.4.2.8.4 1.3.6-.7 2.1-1.5 4.3-2.2 6.6zm.4-15.2.9-.9c1 .8 2 1.6 2.8 2.4l-1 1c-1-.9-1.9-1.8-2.7-2.5zm12.5-1.3h1.2v1.4h2.7v1.1h-2.7v2.7h-1.2v-.5h-1.8v1.3h4.9v3.8h-1.2v-.5h-3.7c0 .4-.1.9-.1 1.2h5.1v1h-5.2c0 .5-.1.9-.2 1.2h6v1h-5.2c1.1 1.3 2.9 2 5.5 2.2-.4.4-.7.8-.9 1.3-2.9-.5-4.8-1.6-5.7-3.5h-.1c-.8 1.7-2.7 2.9-5.9 3.6-.2-.4-.6-.8-.9-1.1 2.8-.6 4.6-1.4 5.4-2.5h-4.8v-1h5.3c.1-.3.2-.7.2-1.2h-4.9v-1h5c0-.4 0-.8.1-1.2h-3.6v.5h-1.2v-3.8h4.9v-1.3h-1.8v.5h-1.2v-2.7h-2.6v-1.1h2.6v-1.4h1.2v1.4h4.7v-1.4zm-6.7 8.4h3.6c0-.4 0-.9 0-1.4h-3.6zm1.9-4.7h4.7v-1.2h-4.7zm6.7 3.3h-3.7v1.4h3.7z" fill="#fafbfc"/><path d="m384.7 21.4h1.3v2.2h2.8v-2.2h1.3v2.2h4.1v9.1h1.7v1.3h-16.9v-1.3h1.7v-9.1h4.1v-2.2zm.3 13.2.7 1.2c-1.8.9-3.8 1.9-6 2.9-.2-.4-.5-.8-.8-1.3 2.4-1 4.4-2 6.1-2.8zm-3.1-6.5h2.8v-3.2h-2.8zm0 4.6h2.8v-3.3h-2.8zm4.1-4.6h2.8v-3.2h-2.8zm0 4.6h2.8v-3.3h-2.8zm3.6 1.9c2.1.9 4.1 1.8 6.1 2.7l-.7 1.3c-2.2-1.1-4.2-2-6.1-2.9zm3.3-9.7h-2.8v3.2h2.8zm-2.8 7.8h2.8v-3.3h-2.8z" fill="#fafbfc"/><path d="m203.33 366.23c1.37-8.15 2.62-15.44 3.82-22.75 2.78-16.93 5.61-33.85 8.22-50.81.44-2.86.24-5.94-.3-8.8-.36-1.89-1.87-3.56-3-5.58-6.47 4.34-12.34 8.31-18.25 12.22-1.13.75-2.38 1.78-3.61 1.83-5.21.2-7.44 3.66-9.39 7.75-1.99 4.19-4.18 5.23-8.37 4-.96-.28-2.29-1.43-2.37-2.29-1.27-12.4-4.72-24.92-1.27-37.25 2.69-9.61 7.1-18.74 10.84-28.05.37-.92 1.37-1.59 2.12-2.34 9.74-9.75 19.5-19.5 29.24-29.25 3.27-3.27 3.63-7.12 1.18-10.94-3.81-5.91-4.58-12.7-5.3-19.44-.81-7.58-1.23-15.2-1.93-22.8-.13-1.44-.55-2.94-1.21-4.22-.95-1.84-2.5-2.71-4.75-2.08-7.03 1.98-14.22 3.51-21.04 6.04-1.92.71-3.12 4.14-4.02 6.55-.8 2.17-1.64 4.05-4.03 4.28-1.09.1-2.72-.47-3.34-1.31-5.54-7.5-5.5-7.55-13.87-3.52-1.81.87-3.58 1.83-5.37 2.75-5.81 2.97-8.68 1.29-9.16-6.02 3.18-.61 6.42-1.47 9.72-1.8 4.62-.46 9.12-1.09 12.56-4.52.93-.92 1.65-2.43 1.76-3.73.37-4.33.56-8.68.56-13.02.01-9.58 3.34-18.05 8.56-25.84 1.33-1.98 3.1-3.76 4.97-5.26 6.78-5.44 13.53-10.95 20.62-15.96 4.1-2.9 5.67-6.76 6.03-11.27.35-4.43.18-8.9.16-13.35-.04-8.91 3.9-16.48 7.78-24.27 3.88 2.16 4.93 5.52 4.85 9.26-.09 4.45-.69 8.88-.69 13.33 0 4.44.29 8.89.77 13.3.44 4.08 1.66 4.82 5.34 3.15 7.5-3.4 14.86-7.12 22.36-10.54 2.97-1.36 6.16-2.26 9.24-3.38 2.23-.81 3.68.61 4.31 2.2.46 1.15.22 3.36-.61 4.12-4.3 3.98-5.64 9.15-6.3 14.55-.81 6.63-1.15 13.31-1.94 19.94-.28 2.34-.98 4.74-1.99 6.88-2.95 6.22-6.1 12.34-9.32 18.43-.75 1.42-1.92 2.78-3.22 3.74-4.1 3.01-8.43 5.7-12.49 8.76-1.16.87-2.39 2.64-2.35 3.95.37 10.15.96 20.29 1.64 30.43.58 8.81 2.53 17.37 5.05 25.82.6 2 .82 4.17.84 6.27.04 3.28-1.17 5.92-3.7 8.36-6.02 5.79-11.6 12.03-17.42 18.03-4.64 4.78-9.19 9.67-14.13 14.13-2.89 2.6-4.81 5.53-5.94 9.14-2.53 8.14-3.98 16.43-3.53 25.68 3.13-.99 6.14-1.43 8.58-2.85 3.34-1.95 6.34-4.26 10.65-2.41-.15-1.77-.77-3.38-.26-4.45.58-1.21 2.21-1.89 3.34-2.85 4.77-4.05 9.54-8.09 14.27-12.18 4.27-3.69 8.76-6.98 14.78-8.72-.24 3.07-.57 5.85-.65 8.64-.26 9-.61 18.01-.56 27.01.03 5.77-.57 11.35-2.11 16.93-3.12 11.33-5.98 22.73-8.98 34.09-.27 1.01-.75 1.97-1.15 2.94-2.14 5.16-4.58 10.21-6.35 15.49-1.79 5.36-4.28 10.02-9.89 13.86zm.53-244.56c-.3-3.38-.33-6.81-.99-10.11-.63-3.18-1.72-6.31-2.98-9.3-.86-2.04-2.51-2.61-4.65-1.14-2.26 1.56-4.58 3.2-7.12 4.16-7.24 2.75-10.38 8.31-11.02 15.52-.54 6.07-.73 12.18-.88 18.28-.05 2.06 1.42 3.09 3.43 2.52 4.86-1.37 9.76-2.65 14.47-4.42 7.01-2.65 11.49-7.17 9.74-15.51zm36.86-36.01c.15-4.45-3.24-6.41-6.45-4.77-5.47 2.79-10.92 5.62-16.28 8.6-.88.49-1.69 1.86-1.77 2.88-.53 6.55-.99 13.1-1.15 19.67-.07 2.71.43 5.49 1.09 8.14 1.45 5.85 3.34 6.54 8.22 2.88 1.8-1.36 3.39-3.24 4.51-5.2 1.24-2.17 1.81-4.72 2.69-7.09 2.39-6.42 4.81-12.83 7.18-19.26.83-2.27 1.54-4.58 1.96-5.85z" fill="#010104"/></svg>