<svg enable-background="new 0 0 400 400" viewBox="0 0 400 400" xmlns="http://www.w3.org/2000/svg"><path d="m378.6 9.2.8-1c.9.7 1.9 1.4 2.9 2.3l-.9 1.1c-1.1-.9-2-1.7-2.8-2.4zm.5 10.7c.9-2.1 1.6-4.3 2.3-6.7.4.2.8.4 1.3.6-.7 2.1-1.5 4.3-2.2 6.6zm.4-15.2.9-.9c1 .8 2 1.6 2.8 2.4l-1 1c-1-.9-1.9-1.8-2.7-2.5zm12.5-1.3h1.2v1.4h2.7v1.1h-2.7v2.7h-1.2v-.5h-1.8v1.3h4.9v3.8h-1.2v-.5h-3.7c0 .4-.1.9-.1 1.2h5.1v1h-5.2c0 .5-.1.9-.2 1.2h6v1h-5.2c1.1 1.3 2.9 2 5.5 2.2-.4.4-.7.8-.9 1.3-2.9-.5-4.8-1.6-5.7-3.5h-.1c-.8 1.7-2.7 2.9-5.9 3.6-.2-.4-.6-.8-.9-1.1 2.8-.6 4.6-1.4 5.4-2.5h-4.8v-1h5.3c.1-.3.2-.7.2-1.2h-4.9v-1h5c0-.4 0-.8.1-1.2h-3.6v.5h-1.2v-3.8h4.9v-1.3h-1.8v.5h-1.2v-2.7h-2.6v-1.1h2.6v-1.4h1.2v1.4h4.7v-1.4zm-6.7 8.4h3.6c0-.4 0-.9 0-1.4h-3.6zm1.9-4.7h4.7v-1.2h-4.7zm6.7 3.3h-3.7v1.4h3.7z" fill="#fafbfc"/><path d="m384.7 21.4h1.3v2.2h2.8v-2.2h1.3v2.2h4.1v9.1h1.7v1.3h-16.9v-1.3h1.7v-9.1h4.1v-2.2zm.3 13.2.7 1.2c-1.8.9-3.8 1.9-6 2.9-.2-.4-.5-.8-.8-1.3 2.4-1 4.4-2 6.1-2.8zm-3.1-6.5h2.8v-3.2h-2.8zm0 4.6h2.8v-3.3h-2.8zm4.1-4.6h2.8v-3.2h-2.8zm0 4.6h2.8v-3.3h-2.8zm3.6 1.9c2.1.9 4.1 1.8 6.1 2.7l-.7 1.3c-2.2-1.1-4.2-2-6.1-2.9zm3.3-9.7h-2.8v3.2h2.8zm-2.8 7.8h2.8v-3.3h-2.8z" fill="#fafbfc"/><path d="m95.56 265.27c7.89-.58 6.53-1.13 9.74 4.65 5.45 9.83 7.81 20.35 4.73 31.5-.8 2.88-.31 5.22.95 7.84 5.69 11.82 11.2 23.72 16.68 35.64 1.5 3.26 3.76 5.48 7.34 6.83 2.56-5.53 4.78-11.03 7.59-16.21 3.32-6.11 6.81-12.2 10.86-17.83 4.14-5.75 6.4-11.76 6.35-18.86-.13-18.24-.1-36.48.03-54.72.02-2.49-.87-3.54-3.03-4.33-4.52-1.65-8.96-.97-13.46-.02-1.64.35-3.37.58-5.03.46-5.01-.35-9.49-1.4-11.31-7.21-1.13-3.6-2.94-7.05-4.88-10.32-4.9-8.28-5.63-17.67-7.51-26.75-2.37-11.4-4.81-22.81-6.62-34.3-1.51-9.58-1.11-19.24 1.4-28.71.89-3.37 2.68-4.01 5.3-1.67 4.15 3.71 8.79 4.74 14.16 3.39 2.29-.57 4.03-1.66 4.55-3.86 1.07-4.5 2.53-9.07 2.61-13.63.26-15.37-.74-30.64-3.57-45.86-1.02-5.49 1-11.66 2.29-17.37.31-1.37 3.11-2.49 4.97-3.12 2.35-.8 2.9 1.47 3.71 3.01 3.91 7.43 5.75 15.46 6.52 23.73.97 10.51.87 20.97-2.89 31.06-.15.4-.15.95-.42 1.18-5.62 4.76-2.21 11.32-3.32 16.97-.13.65 1.04 1.93 1.88 2.33 5.36 2.49 10.92 2.28 16.46.67 5.18-1.51 10.33-3.13 15.46-4.8 5.38-1.75 7.55-5.99 5.95-11.55-.56-1.93-1.48-3.75-1.98-5.69-.76-2.96-1.83-5.99-1.82-8.99.03-10.81.22-21.63.83-32.41.38-6.66 2.4-13.03 6.05-19.46 2.97 11.49 5.68 22.43 8.65 33.29 2.39 8.72 4.62 17.39 3.16 26.57-.28 1.8.07 3.84.65 5.6 1.29 3.92 3.83 5.48 7.86 5.14 6.33-.55 12.67-1.08 18.98-1.84 1.56-.19 3.2-.96 4.48-1.9 3.07-2.26 6-4.72 8.86-7.24.64-.56 1.29-1.86 1.07-2.54-4.34-13.22-4.26-26.96-4.44-40.59-.1-7.87 1.1-15.79 2.07-23.64.2-1.63.04-4.67 3.46-4.21 3.75.51 5.4 2.06 5.39 5.74-.02 5.23 1.55 9.93 3.83 14.56.94 1.9 1.45 4.22 1.47 6.35.13 13.47.06 26.94.07 40.4 0 4.51.43 5.13 4.75 6.51 5.73 1.83 11.51 1.2 17.32.41 6.59-.9 13.06-.47 18.42 3.91 2.09 1.71 4.19 4.21 4.83 6.73 1.65 6.54 3.14 13.25 3.51 19.95.61 11.3 1.06 22.72.1 33.97-.55 6.42-3.92 12.63-6.22 18.86-1.76 4.76-2.83 10.3-6.04 13.84-3.21 3.55-8.63 5.15-13.17 7.42-5.68 2.84-11.3 5.92-17.23 8.12-9.36 3.47-12.28 7.6-11.45 19.21.42 5.85 2.22 11.61 3.51 17.39.21.95.85 1.98 1.59 2.62 5.66 4.96 9.34 11.16 11.79 18.19 2.36 6.77 7.14 11.36 13.3 14.75 1.63.9 2.61.68 3.71-.78 3.66-4.87 6.29-10.17 6.01-16.38-.35-7.62-1.36-15.21-1.56-22.83-.12-4.49.58-9.04 1.38-13.48.23-1.27 2.09-3.14 3.2-3.13 1.58.01 3.82 1.08 4.63 2.4 5.07 8.24 8.04 17.32 8.72 26.95 1.03 14.57-.41 29.01-3.39 43.29-.23 1.08-.71 2.26-1.44 3.07-2.78 3.06-5.57 6.13-8.63 8.89-1.6 1.44-3.66 2.61-5.71 3.27-5.53 1.77-10.31 1.64-15.44-2.68-7.94-6.69-14.53-14.11-18.99-23.43-5.02-10.49-10.33-20.87-14.77-31.61-1.75-4.24-1.72-9.3-2.09-14.02-.42-5.48-.37-10.99-.57-16.49-.03-.72-.26-1.46-.49-2.16-2.16-6.64-2.8-6.93-9.68-6.24-12.65 1.27-25.32 2.43-37.98 3.54-6.04.53-7.52 1.66-7.86 7.81-.19 3.45.26 6.98.75 10.42.72 5.11 1.19 10.06-2.11 14.62-.65.9-.75 2.41-.66 3.61.32 4.44.61 8.9 1.28 13.29 1.51 9.88-.71 19.4-2.58 28.95-2.18 11.16-5.64 21.95-10.42 32.26-5.66 12.2-15.79 18.72-28.61 21.45-3.4.72-6.92.91-10.35 1.52-1.9.33-3.08-.26-4.34-1.7-12.06-13.74-19.24-29.76-22.67-47.6-3.33-17.24-3.73-34.51-.48-51.97zm47.39-103.37c0-.29 0-.57 0-.86-4.55 0-9.11.16-13.65-.08-1.96-.1-2.56.64-3.06 2.25-1.6 5.15-3.44 10.23-4.9 15.42-.44 1.57-.4 3.57.17 5.1 4 10.7 8.29 21.29 12.25 32 .89 2.39 2.3 3.17 4.54 3.53 11.45 1.85 21.67-1.18 29.91-9.02 9.58-9.11 18.5-18.92 27.57-28.55 3.69-3.92 2.47-7.51-2.91-8.84-2.97-.74-6.16-.71-9.04-1.65-7.82-2.57-15.53-5.49-23.3-8.23-1.38-.48-2.83-.98-4.27-1.02-4.42-.14-8.86-.05-13.31-.05zm53.62 47.32c4.52-.73 8.75-1.5 13.01-2.09 15.61-2.15 31.3-3.86 46.82-6.53 7.53-1.3 14.76-4.34 22.11-6.65 2.09-.66 2.83-1.98 2.38-4.36-.68-3.63-.84-7.36-1.24-11.05-1.18-10.92-2.73-21.77-.52-32.84.83-4.14-.17-8.8-1.04-13.07-.81-3.98-3.34-4.96-7.18-3.79-4.92 1.49-7.89 4.83-10.04 9.42-2.27 4.85-5.07 9.46-7.76 14.11-4.26 7.35-4.26 13.6 3.12 18.03 4.43 2.66 8.68 5.62 12.99 8.43-3.21 11.24-10.68 14.97-21.28 10.72-1.08-.43-2.12-1.02-3.24-1.3-6.25-1.55-12.48-3.17-18.8-4.41-1.51-.3-3.57.37-4.9 1.29-6.38 4.37-12.41 9.27-18.94 13.38-4.09 2.58-4.83 6.21-5.49 10.71zm-23.05-61.83c3.57 2.35 6.76 4.25 9.71 6.46 2.48 1.86 5.15 2.71 8.19 2.91 6.13.41 12.28.72 18.36 1.52 6.27.82 11.77-1.15 16.16-5.02 7.83-6.9 15.09-14.45 22.79-21.92-3.78-1.01-7.52-2.07-11.3-2.99-.63-.15-1.46.14-2.11.43-11.66 5.3-24.04 8.01-36.53 10.42-8.51 1.65-16.85 3.98-25.27 8.19z" fill="#010104"/></svg>