<svg enable-background="new 0 0 400 400" viewBox="0 0 400 400" xmlns="http://www.w3.org/2000/svg"><path d="m56.2 210.98c.56-2.05.49-4.05 1.46-4.99 17.17-16.72 34.58-33.22 54.2-47.09 7.14-5.05 14.83-9.49 22.73-13.27 4.93-2.36 10.72-2.91 16.1-4.37 2.43-.66 4.98-1.19 7.16-2.36 11.09-5.91 22.46-10.64 35.13-12.27 7.59-.98 12.55-6.84 16.77-12.76 8.22-11.54 9.42-24.82 8.03-38.32-.69-6.68-2.37-13.39-4.62-19.72-2.8-7.85-.58-13.59 5.43-18.54.98-.81 1.98-1.59 3.57-2.87 1.75 2.86 3.71 5.44 5.02 8.32 5.06 11.14 6.63 23.14 8.31 35.1 1.26 9.02.61 17.94-.88 26.89-.59 3.51-.65 7.19-.31 10.73.32 3.28 2.02 5.75 5.78 6.6 5.36 1.22 10.55 3.15 15.9 4.42 11.91 2.81 22 9.78 33.21 14.21 16.01 6.32 29.23 17 42.63 27.39 3.67 2.85 5.64 6.78 6.27 11.4.5 3.69-1.42 6-5.07 5.26-3.97-.8-8.08-1.62-10.37-5.83-1.42-2.6-6.32-4.04-8.94-2.88-.61.27-1.07 1.21-1.31 1.94-1.84 5.62-1.29 11.27-.24 16.96.96 5.18 2.35 10.37.77 15.97-3.54.36-7.15.73-11.61 1.18 3.33 2.22 6.02 3.86 8.52 5.76.87.66 1.83 1.94 1.82 2.93-.19 13.03-.18 26.08-.95 39.09-.89 15.23-5.81 29.66-9.92 44.23-1.17 4.16-2.52 8.28-4.4 12.46-.31-2.28-.59-4.57-.95-6.85-1.83-11.61-3.68-23.21-5.52-34.82-.13-.84-.36-1.67-.37-2.51-.33-22.6.17-45.11 4.08-67.5 2.13-12.18 2.75-24.62 4.12-36.93.22-1.96-.47-3.03-2.2-3.97-10.41-5.69-20.71-11.57-31.15-17.2-2.08-1.12-4.56-1.75-6.92-2.05-9.99-1.24-18.84-5.45-27.46-10.25-2.47-1.37-4.51-1.42-7.07-.36-9.78 4.04-19.64 7.91-29.5 11.75-1.43.56-3.07.81-4.62.83-6.68.09-13.36.18-20.04-.02-3.62-.11-6.8.62-9.97 2.4-13.74 7.73-27.62 15.21-41.34 22.98-5.19 2.94-8.66 7.4-9.6 13.5-.1.62-.4 1.4-.15 1.86 3.63 6.7 1.88 14.68 5.23 21.5.76 1.55-.23 3.92-.26 5.91-.15 9.53-.42 19.07-.31 28.6.19 16.47-.79 32.82-3.73 49.06-.72 4.01-.83 8.33-.21 12.34 1.52 9.78-.04 18.74-5.36 27.07-.5.79-.89 1.66-1.49 2.78.82.7 1.66 1.34 2.4 2.06 2.66 2.62 3.21 5.58 2.29 9.29-2.25 9.12-8.45 14.8-16.44 19.71-.24-3-.73-5.79-.64-8.57.36-11.97.37-23.98 1.52-35.88.79-8.18-1.24-15.77-2.46-23.57-.75-4.81-2.2-9.54-2.58-14.37-.29-3.62.49-7.35 1.01-10.99 3-20.97 6.11-41.93 9.08-62.9.55-3.87.81-7.8.91-11.72.07-2.77-.26-5.64-3.27-7.04-2.33-1.09-6.88.25-9.04 2.48-3.98 4.1-7.82 8.36-12 12.25-4.14 3.83-9.34 5.26-16.18 5.56z" fill="#010000"/><g fill="#fafafb"><path d="m361.2 9.6.8-1c.9.7 1.9 1.4 2.9 2.3l-.9 1.1c-1-1-2-1.8-2.8-2.4zm.5 10.6c.9-2.1 1.6-4.3 2.3-6.7.4.2.8.4 1.3.6-.7 2.1-1.5 4.3-2.2 6.6zm.4-15.2.9-.9c1 .8 2 1.6 2.8 2.4l-1 1c-.9-.9-1.8-1.7-2.7-2.5zm12.5-1.2h1.2v1.4h2.7v1.1h-2.7v2.7h-1.2v-.6h-1.8v1.3h4.9v3.8h-1.2v-.5h-3.7c0 .4-.1.9-.1 1.2h5.1v1h-5.2c0 .5-.1.9-.2 1.2h6v1h-5.2c1.1 1.3 2.9 2 5.5 2.2-.4.4-.7.8-.9 1.3-2.9-.5-4.8-1.6-5.7-3.5h-.1c-.8 1.7-2.7 2.9-5.9 3.6-.2-.4-.6-.8-.9-1.1 2.8-.6 4.6-1.4 5.4-2.5h-4.8v-1h5.3c.1-.3.2-.7.2-1.2h-4.9v-1h5c0-.4 0-.8.1-1.2h-3.5v.5h-1.2v-3.8h4.9v-1.3h-1.8v.5h-1.2v-2.7h-2.7v-1h2.6v-1.4h1.2v1.4h4.7v-1.4zm-6.6 8.3h3.6c0-.4 0-.9 0-1.4h-3.6zm1.9-4.6h4.7v-1.3h-4.7zm6.6 3.2h-3.7v1.4h3.7z"/><path d="m385.3 3.8h1.3v2.2h2.8v-2.2h1.3v2.2h4.1v9.1h1.7v1.3h-16.9v-1.3h1.7v-9.1h4.1v-2.2zm.4 13.1.7 1.2c-1.8.9-3.8 1.9-6 2.9-.2-.4-.5-.8-.8-1.3 2.3-1 4.3-1.9 6.1-2.8zm-3.1-6.4h2.8v-3.2h-2.8zm0 4.6h2.8v-3.3h-2.8zm4-4.6h2.8v-3.2h-2.8zm0 4.6h2.8v-3.3h-2.8zm3.7 1.9c2.1.9 4.1 1.8 6.1 2.7l-.7 1.3c-2.2-1.1-4.2-2-6.1-2.9zm3.2-9.7h-2.8v3.2h2.8zm-2.8 7.8h2.8v-3.3h-2.8z"/></g></svg>