<svg enable-background="new 0 0 400 400" viewBox="0 0 400 400" xmlns="http://www.w3.org/2000/svg"><path d="m255.7 176.3c-4.8-8-7.7-15.8-14-21.6-7.1-6.5-13.2-14-20.6-20.1-13.4-10.9-29.5-17-45.5-23.3-19.4-7.7-39.6-12.1-59.9-16.7-6.6-1.5-12.9-4.5-19.2-7-4.5-1.8-1.8-5.7-1.9-8.7-.1-2.8 2.2-2.8 3.9-2.8 4.1-.1 8.3-.6 12.1.3 14.1 3.2 28.2 6.5 42.1 10.4 25.3 7.1 49.4 17.1 71.6 31.3 5.4 3.5 9.8 8.6 14.9 12.6 9.8 7.7 17.5 17.1 24 27.6 2 3.3 4.3 6.4 6.7 9.9 10.1-9.7 18-20.4 19.9-34.4 1.7-12.4-1.4-24.1-6-35.5-.4-1.1-1.4-2-2.2-2.8-26.1-24.6-57-39.7-91.9-47.2-7.5-1.6-15-3.8-22.4-5.9-3.6-1.1-6.6-3.3-8-7-1.8-4.8.3-7.8 5.5-7.6 12.7.6 25.1 2.9 36.9 7.2 25.5 9.4 50 21.2 73.7 34.5 13.4 7.5 21.3 19.6 26.4 33.7 4.2 11.7 6.1 23.7 2.4 35.8-4.5 15.1-10.8 29.3-23.2 39.8-4.7 3.9-5.5 7.6-3.3 13.3 3.4 9.1 6.4 18.4 8.7 27.8 2 8.6 3.1 17.4 4.2 26.1 3.4 26.7 6.8 53.5 9.9 80.3 1.2 10.8 1.6 21.8 2.1 32.7.1 2.6-.5 5.3-1.5 7.7-.8 1.9-2.2 3.9-3.8 5.2-3.7 2.8-5.9 2-6.8-2.5-1-4.7-1.9-9.5-2.3-14.4-1.6-16.7-3-33.5-4.3-50.2-1-11.8-1.8-23.6-2.8-35.4-1.4-16.7-5.9-32.8-10.6-48.8-3-10.5-6-21-9.1-31.7-1.2.3-2.3.6-3.3.9-19.4 6.1-39.4 9.1-59.7 8.4-14.6-.5-28.5-4.5-42.5-8.5-17.9-5.1-36-10-52.7-18.6-3.9-2-7.5-4.7-10.7-7.6-2.8-2.5-4.8-6.9-2.8-9.8 1.4-1.9 6.3-2.3 9.4-1.9 3.5.4 7 2.1 10 3.9 18.7 11 38.5 19.3 60 22.8 25.2 4.2 50.5 6 75.8 1.1 3.6-.6 6.8-2 10.8-3.3z" fill="#000001"/><path d="m183.2 256.3c17.4 0 34.7-.1 52.1 0 6.7.1 13.5.4 20.2 1 2.6.2 5.5 1.2 7.7 2.5 3.6 2.2 3.2 6.1-.4 8.2-7.8 4.3-16.3 4.3-24.8 4.2-16.9-.2-33.8-.7-50.7-.6-21.2.1-42.4.6-63.6.8-6.6.1-13.1-.8-18.8-4.4-1.4-.9-2.2-3.1-2.5-4.8-.1-.7 1.5-2 2.6-2.6 5.4-3.3 11.3-4.3 17.7-4.2 20.2.3 40.5.1 60.7.1-.2 0-.2-.1-.2-.2z" fill="#000001"/><g fill="#fafafb"><path d="m362.1 8.8c1.1.8 2.1 1.6 3.1 2.4l-1 1.1c-1.3-1.1-2.3-2-3-2.5zm1.9 4.8c.5.2.9.4 1.4.5-.6 2.3-1.3 4.5-1.9 6.8l-1.5-.5c.8-2.1 1.4-4.3 2-6.8zm-1-9.4c1.3.9 2.4 1.8 3.4 2.5l-1 1.1c-1.4-1.2-2.4-2.1-3.2-2.6zm3.7 2.2v-1.4h10.3v1.2c-.5 3.6-1.8 6.8-4 9.4 1.5 1.6 3.4 2.8 5.7 3.8-.3.4-.7.8-1.1 1.4-2.3-1.1-4.1-2.5-5.6-4.1-1.6 1.6-3.6 3.1-5.9 4.3-.3-.5-.7-.9-1-1.3 2.4-1.1 4.4-2.5 6-4.1-1.9-2.5-3-5.6-3.3-9.3h-1.1zm8.8 0h-6.4c.3 3.3 1.3 6 3 8.2 2-2.3 3.1-5.1 3.4-8.2z"/><path d="m385.3 3.8h1.3v2.2h2.8v-2.2h1.3v2.2h4.1v9.1h1.7v1.3h-16.9v-1.3h1.7v-9.1h4.1v-2.2zm.4 13.1.7 1.2c-1.8.9-3.8 1.9-6 2.9-.2-.4-.5-.8-.8-1.3 2.3-1 4.3-1.9 6.1-2.8zm-3.1-6.4h2.8v-3.2h-2.8zm0 4.6h2.8v-3.3h-2.8zm4-4.6h2.8v-3.2h-2.8zm0 4.6h2.8v-3.3h-2.8zm3.7 1.9c2.1.9 4.1 1.8 6.1 2.7l-.7 1.3c-2.2-1.1-4.2-2-6.1-2.9zm3.2-9.7h-2.8v3.2h2.8zm-2.8 7.8h2.8v-3.3h-2.8z"/></g></svg>