<svg enable-background="new 0 0 400 400" viewBox="0 0 400 400" xmlns="http://www.w3.org/2000/svg"><path d="m362.1 8.8c1.1.8 2.1 1.6 3.1 2.4l-1 1.1c-1.3-1.1-2.3-2-3-2.5zm1.9 4.8c.5.2.9.4 1.4.5-.6 2.3-1.3 4.5-1.9 6.8l-1.5-.5c.8-2.1 1.4-4.3 2-6.8zm-1-9.4c1.3.9 2.4 1.8 3.4 2.5l-1 1.1c-1.4-1.2-2.4-2.1-3.2-2.6zm3.7 2.2v-1.4h10.3v1.2c-.5 3.6-1.8 6.8-4 9.4 1.5 1.6 3.4 2.8 5.7 3.8-.3.4-.7.8-1.1 1.4-2.3-1.1-4.1-2.5-5.6-4.1-1.6 1.6-3.6 3.1-5.9 4.3-.3-.5-.7-.9-1-1.3 2.4-1.1 4.4-2.5 6-4.1-1.9-2.5-3-5.6-3.3-9.3h-1.1zm8.8 0h-6.4c.3 3.3 1.3 6 3 8.2 2-2.3 3.1-5.1 3.4-8.2z" fill="#fbfcfa"/><path d="m385.3 3.8h1.3v2.2h2.8v-2.2h1.3v2.2h4.1v9.1h1.7v1.3h-16.9v-1.3h1.7v-9.1h4.1v-2.2zm.4 13.1.7 1.2c-1.8.9-3.8 1.9-6 2.9-.2-.4-.5-.8-.8-1.3 2.3-1 4.3-1.9 6.1-2.8zm-3.1-6.4h2.8v-3.2h-2.8zm0 4.6h2.8v-3.3h-2.8zm4-4.6h2.8v-3.2h-2.8zm0 4.6h2.8v-3.3h-2.8zm3.7 1.9c2.1.9 4.1 1.8 6.1 2.7l-.7 1.3c-2.2-1.1-4.2-2-6.1-2.9zm3.2-9.7h-2.8v3.2h2.8zm-2.8 7.8h2.8v-3.3h-2.8z" fill="#fbfcfa"/><g fill="#010101"><path d="m191.77 284.68c-1.12-3.21-2.26-5.62-2.8-8.15-1.99-9.4-3.58-18.88-5.69-28.25-3.8-16.88-4.36-34.02-4.44-51.19-.06-15.37-.14-30.69-2.86-45.92-.67-3.72.52-7.76.7-11.65.14-3.11.72-6.4-.05-9.31-4.11-15.64-3.74-31.23-.29-46.88.18-.82.31-1.73.73-2.42 4.33-6.98 3.99-14.33 1.63-21.75-3.11-9.76-.24-17.63 7.34-24.39 4.93 3.49 6.88 8.74 7.3 14.17.87 11.39 1 22.83 1.42 34.26.08 2.12.22 4.24.13 6.36-.23 5.66 1.04 10.86 4.23 15.61.72 1.08 1.17 2.53 1.25 3.83.74 12.06 1.25 24.13 2.13 36.18.24 3.2 1.68 6.3 2.29 9.5.27 1.42.37 3.3-.34 4.42-3.17 5.04-2.81 10.24-2.01 15.84 1.13 7.94 1.94 15.98 2.05 23.99.28 20.03.52 40.08-.14 60.09-.23 6.9-2.75 13.86-5.13 20.47-.76 2.11-4.43 3.18-7.45 5.19z"/><path d="m259.04 167.48c3.16.73 6.7 1.42 10.14 2.41.86.25 1.85 1.38 2.07 2.28 3.36 13.89 7.02 27.73 9.73 41.75 1.66 8.6 2.07 17.47 2.6 26.24.73 12.21 3.44 24.06 5.44 36.07 4.71 28.23 5.97 56.68 2.99 85.23-.54 5.16-4.41 7.1-9.04 4.7-2.97-1.54-5.3-3.56-6.96-6.65-5.14-9.62-8.37-19.56-7.54-30.7 1.31-17.56-1.5-34.9-3.43-52.27-.6-5.37-.75-10.85-1.92-16.09-1.94-8.65-3.83-17.43-7.05-25.64-4.57-11.64-4.77-22.91-1.9-34.96 2.49-10.44 3.28-21.29 4.87-32.37z"/><path d="m119.78 157.97c4.61 6.13 9.12 11.38 12.69 17.21 1.72 2.8 2.19 6.67 2.33 10.09.76 17.77 1.6 35.56 1.69 53.34.08 16.94-.27 33.92-1.35 50.82-.47 7.36-2.7 14.74-5.04 21.8-3.14 9.46-6.38 18.8-7.49 28.81-.21 1.86-3.01 4.03-5.1 4.9-1.76.73-4.28-.01-6.33-.58-.56-.16-.84-2.01-.92-3.12-.71-9.62-1.34-19.24-2.01-28.86-.07-.94.05-2.06-.41-2.79-3.89-6.18-3.09-13.28-4.02-20.02-2.89-20.94-.16-41.6 2.67-62.33 2.29-16.72 5.92-33.09 10.13-49.4 1.61-6.2 2.06-12.71 3.16-19.87z"/></g></svg>