<svg enable-background="new 0 0 400 400" viewBox="0 0 400 400" xmlns="http://www.w3.org/2000/svg"><path d="m181.57 187.72c4.16 11.91 3.25 23.75.93 35.63-1.89 9.65-3 19.47-6.69 28.72-.44 1.11.19 3.14 1.03 4.2 3.1 3.91 7.64 5.69 12.35 5.53 9.71-.33 19.4-1.31 29.09-2.12 1.99-.17 3.96-.71 5.92-1.16 9.12-2.08 14.18-9.96 12.11-19.18-.6-2.65-1.64-5.27-2.89-7.69-3.75-7.24-7.65-14.4-11.62-21.52-.85-1.53-2.18-2.83-3.41-4.12-6.72-7.06-13.66-13.92-20.15-21.19-5.01-5.6-8.56-12.35-9.64-19.75-.73-5.02.28-10.32.77-15.47.56-5.8 1.49-11.56 2.11-17.35.23-2.1.17-4.25.02-6.35-.48-6.84-2.27-8.07-8.63-6.19-16.25 4.8-32.51 9.52-48.73 14.41-2.03.61-4.07 1.77-5.67 3.17-6.98 6.13-15.31 7.31-24.09 6.96-2.05-.08-4.19-3.39-4.1-6.07.07-2.22.09-4.49.54-6.65.25-1.19 1.13-2.49 2.1-3.24 10.65-8.18 22.72-13.54 35.52-17.23 13.96-4.02 27.83-8.22 40.53-15.5 2.66-1.53 5.26-3.17 7.84-4.85 9.63-6.27 12.91-15.49 11.3-26.4-1.5-10.14-.01-19.36 5.86-27.85 1.02-1.47 1.93-1.76 3.66-1.35 7.64 1.8 11.86 6.69 11.92 14.67.04 5.82-.49 11.65-.53 17.48-.02 3.27.5 6.55.66 9.83.31 6.26 4.26 10.41 8.33 14.47 9.45 9.44 21.05 15.6 32.86 21.43 10.74 5.3 20.64 11.76 28.4 21.05 2.62 3.14 4.82 6.62 7.37 10.16-2.57 1.7-4.6 3.24-6.83 4.38-.76.39-2.2.05-3.06-.43-22.19-12.4-44.35-24.87-66.52-37.32-1-.56-2.02-1.11-3.24-1.78-4.31 6.79-6.85 14.11-8.42 21.81-2.32 11.39-2.32 22.76.92 33.98.55 1.92 1.7 3.9 3.11 5.3 14.63 14.48 27.34 30.47 37.31 48.48 8.22 14.83 10.64 30.66 6.64 47.32-.44 1.82-1.21 2.61-2.98 3.11-10.29 2.92-20.39 6.75-30.84 8.73-7.33 1.39-15.15.62-22.71.22-6.84-.36-13.57-2.03-20.5-.25-7.33 1.88-12.18 5.9-12.79 13.73-.81 10.44-1.31 20.91-1.95 31.36-.6 9.72-1.03 19.46-1.9 29.16-.42 4.64-2.79 8.71-6.17 11.91-1.54 1.47-3.61 2.68-5.66 3.25-5.25 1.49-8.43-.53-9.55-5.75-2.18-10.19-2.06-20.52-.5-30.7 2.61-17.07 3.17-34.14 1.8-51.33-.17-2.11.3-4.44 1.07-6.44 10.26-26.68 20.7-53.29 30.86-80 1.32-3.5 3.1-5.27 6.84-5.22z" fill="#010105"/><g fill="#fafbfa"><path d="m377.9 391.2c-.2.3-.4.5-.6.8-.7-.6-1.4-1-2.2-1.5.2-.3.4-.5.5-.8.6.4 1.4.8 2.3 1.5zm-1.8 6.1c-.2-.2-.5-.4-.9-.6.4-.6.8-1.2 1.2-1.9s.7-1.3.9-1.9c.3.3.5.5.8.7-.7 1.3-1.4 2.6-2 3.7zm2.2-9c-.3.3-.5.5-.6.8-.6-.6-1.3-1.1-2-1.5.3-.3.5-.5.6-.7.6.5 1.3.9 2 1.4zm.3.2v-.9h2 4.5c-.3 1.3-.6 2.5-1 3.6s-.9 2.1-1.4 3c.4.5 1 1 1.6 1.4s1.2.8 1.9 1.1c-.3.2-.5.4-.8.8-.4-.3-1-.7-1.6-1.2s-1.2-1.1-1.6-1.6c-.5.6-1.1 1.1-1.7 1.6s-1.4.9-2.1 1.4c-.1-.3-.3-.5-.7-.8.6-.2 1.2-.5 1.9-1s1.4-1.1 2-1.8c-.5-.8-.9-1.6-1.2-2.5s-.6-2-.8-3.2c-.4.1-.7.1-1 .1zm2.5 2.7c.3 1 .7 1.7 1 2.2.3-.5.6-1.1 1-2s.6-1.9.9-3h-3.2-.4c.1.9.3 1.8.7 2.8z"/><path d="m396.5 388.5v1.5 3.6h1.5v.9c-.4 0-1 0-1.7 0h-7.9c-.5 0-.9 0-1.2 0v-.9h1.3v-3.5c0-.7 0-1.2 0-1.6h2.4c0-.8 0-1.4 0-1.7h1c0 .3-.1.8-.1 1.7h1.5c0-.8 0-1.4 0-1.7h1c0 .3-.1.9-.1 1.7zm-8.2 9.2c-.2-.3-.5-.5-.8-.8.8-.3 1.4-.6 1.9-.9s1-.7 1.4-1.1c.3.3.6.5.9.8-1.6 1-2.8 1.6-3.4 2zm2.6-6.8v-1.6h-1.5v1.6zm0 2.7v-1.9h-1.5v1.9zm2.4-2.7v-1.6h-1.5v1.6zm0 2.7v-1.9h-1.5v1.9zm.2 2 .7-.8c.4.2.9.5 1.6.8s1.3.7 1.8 1c-.3.3-.5.5-.8.8-.4-.3-1.5-1-3.3-1.8zm2-4.7v-1.6h-1.4v1.6zm0 2.7v-1.9h-1.4v1.9z"/></g></svg>