<svg enable-background="new 0 0 400 400" viewBox="0 0 400 400" xmlns="http://www.w3.org/2000/svg"><path d="m179.92 112.21c-.54 2.81-2.04 5.85-1.43 8.38 1.66 6.94.8 13.44-1.56 19.92-1.65 4.53-1.58 9.17-.93 13.8.69 4.9-.16 9.14-2.84 13.51-7.54 12.27-14.42 24.95-21.93 37.24-1.96 3.21-5.21 5.69-8.05 8.3-2.17 1.99-4.63 3.67-7.23 5.69-1.63-3.93-1.11-7.67-.15-11.27 1.39-5.21 3.17-10.32 4.8-15.46.16-.5.31-1.07.66-1.42 4.86-5.01 5.61-11.53 7.26-17.92 2.05-7.95 5.45-15.55 8.29-23.3.58-1.59 1.13-3.21 1.88-4.72 5.18-10.46 7.6-21.4 6.58-33.14-.28-3.28.73-6.71 1.38-10.03.46-2.37.02-4.05-1.79-5.88-8.69-8.77-16.38-18.36-21.75-29.57-3.85-8.04-4.34-16.58-2.26-25.14.55-2.26 2.6-4.15 4.47-6.98 1.77 6.95 7.25 12.15 2.86 19.09.82.34 1.27.65 1.76.71 6.33.77 9.65 4.44 11.12 10.55.96 3.98 2.91 7.72 4.27 11.61.55 1.56 1.2 2.54 3.05 2.57 2.88.05 5.06 1.42 7.11 3.52 5.39 5.55 11.19 10.71 16.53 16.31 5.26 5.51 11.04 10.16 18.02 13.26.97.43 1.84 1.08 2.81 1.48 24.73 10.3 37.42 31.13 47.31 54.32 2.98 6.99 2.66 14.12-.69 20.94-.99 2.02-2.59 3.81-4.19 5.43-1.78 1.8-4.01 3.16-5.81 4.94-5.95 5.86-13.04 9.45-21.04 11.78-8.4 2.45-13.77 9-18.24 16-5.59 8.75-8.71 18.56-10.52 28.76-.21 1.16.04 2.55.51 3.64 3.75 8.73 4.75 17.8 4.54 27.27-.45 20.46-.18 40.93-.52 61.39-.08 4.58-1.06 9.27-2.39 13.68-1.45 4.78-4.52 5.74-8.99 3.71-1.83-.83-3.9-6.13-2.33-8.6 6.18-9.71 2.47-19.71 1.71-29.7-1.47-19.33-2.52-38.69-4.1-58.01-.49-6.06-1.61-12.18-3.33-18-2.19-7.43-2.19-14.13 3.08-20.27 1.38-1.6 2.65-3.33 3.77-5.12 5.95-9.51 13.74-17 23.38-22.81 8.93-5.39 17.03-11.93 23.45-20.27.9-1.16 1.52-2.78 1.65-4.24.46-5.17.67-10.37.93-15.56.04-.71.04-1.59-.33-2.14-3.35-5.1-6.33-10.53-10.3-15.11-4.49-5.19-9.84-9.63-14.89-14.33-1.06-.99-2.35-1.8-3.64-2.46-2.07-1.07-4.25-1.9-6.35-2.91-8.36-4.03-17.43-6.78-24.27-13.6-.45.05-.89.11-1.33.16z" fill="#010000"/><g fill="#fafafb"><path d="m361.2 9.6.8-1c.9.7 1.9 1.4 2.9 2.3l-.9 1.1c-1-1-2-1.8-2.8-2.4zm.5 10.6c.9-2.1 1.6-4.3 2.3-6.7.4.2.8.4 1.3.6-.7 2.1-1.5 4.3-2.2 6.6zm.4-15.2.9-.9c1 .8 2 1.6 2.8 2.4l-1 1c-.9-.9-1.8-1.7-2.7-2.5zm12.5-1.2h1.2v1.4h2.7v1.1h-2.7v2.7h-1.2v-.6h-1.8v1.3h4.9v3.8h-1.2v-.5h-3.7c0 .4-.1.9-.1 1.2h5.1v1h-5.2c0 .5-.1.9-.2 1.2h6v1h-5.2c1.1 1.3 2.9 2 5.5 2.2-.4.4-.7.8-.9 1.3-2.9-.5-4.8-1.6-5.7-3.5h-.1c-.8 1.7-2.7 2.9-5.9 3.6-.2-.4-.6-.8-.9-1.1 2.8-.6 4.6-1.4 5.4-2.5h-4.8v-1h5.3c.1-.3.2-.7.2-1.2h-4.9v-1h5c0-.4 0-.8.1-1.2h-3.5v.5h-1.2v-3.8h4.9v-1.3h-1.8v.5h-1.2v-2.7h-2.7v-1h2.6v-1.4h1.2v1.4h4.7v-1.4zm-6.6 8.3h3.6c0-.4 0-.9 0-1.4h-3.6zm1.9-4.6h4.7v-1.3h-4.7zm6.6 3.2h-3.7v1.4h3.7z"/><path d="m385.3 3.8h1.3v2.2h2.8v-2.2h1.3v2.2h4.1v9.1h1.7v1.3h-16.9v-1.3h1.7v-9.1h4.1v-2.2zm.4 13.1.7 1.2c-1.8.9-3.8 1.9-6 2.9-.2-.4-.5-.8-.8-1.3 2.3-1 4.3-1.9 6.1-2.8zm-3.1-6.4h2.8v-3.2h-2.8zm0 4.6h2.8v-3.3h-2.8zm4-4.6h2.8v-3.2h-2.8zm0 4.6h2.8v-3.3h-2.8zm3.7 1.9c2.1.9 4.1 1.8 6.1 2.7l-.7 1.3c-2.2-1.1-4.2-2-6.1-2.9zm3.2-9.7h-2.8v3.2h2.8zm-2.8 7.8h2.8v-3.3h-2.8z"/></g></svg>