<svg enable-background="new 0 0 400 400" viewBox="0 0 400 400" xmlns="http://www.w3.org/2000/svg"><path d="m362.1 8.8c1.1.8 2.1 1.6 3.1 2.4l-1 1.1c-1.3-1.1-2.3-2-3-2.5zm1.9 4.8c.5.2.9.4 1.4.5-.6 2.3-1.3 4.5-1.9 6.8l-1.5-.5c.8-2.1 1.4-4.3 2-6.8zm-1-9.4c1.3.9 2.4 1.8 3.4 2.5l-1 1.1c-1.4-1.2-2.4-2.1-3.2-2.6zm3.7 2.2v-1.4h10.3v1.2c-.5 3.6-1.8 6.8-4 9.4 1.5 1.6 3.4 2.8 5.7 3.8-.3.4-.7.8-1.1 1.4-2.3-1.1-4.1-2.5-5.6-4.1-1.6 1.6-3.6 3.1-5.9 4.3-.3-.5-.7-.9-1-1.3 2.4-1.1 4.4-2.5 6-4.1-1.9-2.5-3-5.6-3.3-9.3h-1.1zm8.8 0h-6.4c.3 3.3 1.3 6 3 8.2 2-2.3 3.1-5.1 3.4-8.2z" fill="#fbfcfa"/><path d="m385.3 3.8h1.3v2.2h2.8v-2.2h1.3v2.2h4.1v9.1h1.7v1.3h-16.9v-1.3h1.7v-9.1h4.1v-2.2zm.4 13.1.7 1.2c-1.8.9-3.8 1.9-6 2.9-.2-.4-.5-.8-.8-1.3 2.3-1 4.3-1.9 6.1-2.8zm-3.1-6.4h2.8v-3.2h-2.8zm0 4.6h2.8v-3.3h-2.8zm4-4.6h2.8v-3.2h-2.8zm0 4.6h2.8v-3.3h-2.8zm3.7 1.9c2.1.9 4.1 1.8 6.1 2.7l-.7 1.3c-2.2-1.1-4.2-2-6.1-2.9zm3.2-9.7h-2.8v3.2h2.8zm-2.8 7.8h2.8v-3.3h-2.8z" fill="#fbfcfa"/><path d="m197.15 366.12c-2.5-8.84-5-17.69-7.51-26.53-2.91-10.29-6.37-20.46-8.56-30.9-1.75-8.33-1.88-17-2.91-25.5-.18-1.52-.9-3.26-1.94-4.34-6.11-6.33-12.43-12.46-18.57-18.76-1.29-1.32-2.42-2.96-3.13-4.66-9.36-22.13-18.62-44.3-27.96-66.44-.55-1.31-1.27-2.99-2.39-3.56-9-4.53-13.29-12.75-17.05-21.36-5.1-11.67-9.66-23.53-10.7-36.4-.23-2.82-.03-5.68-.03-8.74 2.87-.53 5.45-1.27 8.04-1.34 1.07-.03 2.6 1.13 3.19 2.17 8.52 14.76 16.66 29.76 25.45 44.37 5.99 9.97 12.7 19.53 19.36 29.07 4.39 6.29 8.35 12.71 10.62 20.11 2.13 6.93 7.08 11.64 13.28 15.74 2.85-4.46 3.99-9.07 2.69-14.15-.42-1.63-1.13-3.19-1.71-4.78-2.6-7.18-4.06-14.3.92-21.15 1.36-1.86 1.59-3.84.68-5.99-.33-.77-.34-1.68-.68-2.44-4.78-10.79-2.69-21.64.26-32.27 2.98-10.74 2.69-21.26.09-31.92-.36-1.47-.26-3.16.03-4.67 1.22-6.34 2.97-12.6 3.8-18.99.59-4.56.05-9.27-.06-13.91-.14-6.25-.56-12.5-.5-18.75.1-10.05 4.61-18.05 12.15-24.64 8.12 3.98 11.23 11.07 12.87 19.31 2.83 14.28 2.13 28.51-.85 42.61-2.74 12.93-2.08 25.9-1.59 38.92.91 24.57 1.67 49.15 2.4 73.73.17 5.83 2.32 10.2 8.07 12.77.59-.86 1.2-1.7 1.75-2.57 17.2-26.85 34.51-53.64 51.51-80.61 5.3-8.41 9.63-17.42 14.63-26.02 2.96-5.08 6.88-9.39 12.26-12.44 6.67 7.66 9.36 16.71 6.8 26.29-3.05 11.4-7.49 22.44-11.41 33.61-.37 1.05-1.22 1.97-1.96 2.86-8.2 9.91-14.34 20.94-18.11 33.26-3.82 12.52-8.6 24.66-16.29 35.32-5.26 7.29-11.23 14.08-16.94 21.05-8.46 10.33-16.7 20.87-25.58 30.84-4.2 4.72-5.57 9.92-6.16 15.8-1.08 10.84-.27 21.59 1.07 32.34 1.15 9.15 1.16 18.24-3.49 26.62-1.42 2.55-3.27 4.86-4.92 7.28-.3-.08-.61-.16-.92-.24z" fill="#010101"/></svg>