<svg enable-background="new 0 0 400 400" viewBox="0 0 400 400" xmlns="http://www.w3.org/2000/svg"><path d="m378.6 9.2.8-1c.9.7 1.9 1.4 2.9 2.3l-.9 1.1c-1.1-.9-2-1.7-2.8-2.4zm.5 10.7c.9-2.1 1.6-4.3 2.3-6.7.4.2.8.4 1.3.6-.7 2.1-1.5 4.3-2.2 6.6zm.4-15.2.9-.9c1 .8 2 1.6 2.8 2.4l-1 1c-1-.9-1.9-1.8-2.7-2.5zm12.5-1.3h1.2v1.4h2.7v1.1h-2.7v2.7h-1.2v-.5h-1.8v1.3h4.9v3.8h-1.2v-.5h-3.7c0 .4-.1.9-.1 1.2h5.1v1h-5.2c0 .5-.1.9-.2 1.2h6v1h-5.2c1.1 1.3 2.9 2 5.5 2.2-.4.4-.7.8-.9 1.3-2.9-.5-4.8-1.6-5.7-3.5h-.1c-.8 1.7-2.7 2.9-5.9 3.6-.2-.4-.6-.8-.9-1.1 2.8-.6 4.6-1.4 5.4-2.5h-4.8v-1h5.3c.1-.3.2-.7.2-1.2h-4.9v-1h5c0-.4 0-.8.1-1.2h-3.6v.5h-1.2v-3.8h4.9v-1.3h-1.8v.5h-1.2v-2.7h-2.6v-1.1h2.6v-1.4h1.2v1.4h4.7v-1.4zm-6.7 8.4h3.6c0-.4 0-.9 0-1.4h-3.6zm1.9-4.7h4.7v-1.2h-4.7zm6.7 3.3h-3.7v1.4h3.7z" fill="#fafbfc"/><path d="m384.7 21.4h1.3v2.2h2.8v-2.2h1.3v2.2h4.1v9.1h1.7v1.3h-16.9v-1.3h1.7v-9.1h4.1v-2.2zm.3 13.2.7 1.2c-1.8.9-3.8 1.9-6 2.9-.2-.4-.5-.8-.8-1.3 2.4-1 4.4-2 6.1-2.8zm-3.1-6.5h2.8v-3.2h-2.8zm0 4.6h2.8v-3.3h-2.8zm4.1-4.6h2.8v-3.2h-2.8zm0 4.6h2.8v-3.3h-2.8zm3.6 1.9c2.1.9 4.1 1.8 6.1 2.7l-.7 1.3c-2.2-1.1-4.2-2-6.1-2.9zm3.3-9.7h-2.8v3.2h2.8zm-2.8 7.8h2.8v-3.3h-2.8z" fill="#fafbfc"/><g fill="#010104"><path d="m48.87 287.74c-3.8-.33-7.16-.84-10.51-.85-2.51-.01-4.02-1-4.14-3.33-.49-9.16-3.97-18.45.7-27.44 1.82-3.51.65-6.57-.87-9.59-1.51-3-1.68-5.36.8-8.21 3.53-4.07 4.32-9.01 2.66-14.33-2.17-6.96-1.83-14.05 1.45-20.45 4.7-9.18 5.66-18.93 6.11-28.9.19-4.33 3.54-6.54 7.63-5.05 1.77.64 3.36 1.76 5.03 2.66 1.78.96 3.5.85 4.22-1.15.72-1.99 2.45-4.31-.22-6.2-1.2-.85-2.59-1.44-3.91-2.11-4.06-2.03-5.4-4.26-4.9-8.84.09-.83.9-1.94 1.66-2.28 5.31-2.36 10.7-4.5 16.03-6.81 1.93-.83 3.89-1.71 5.59-2.92 2.29-1.63 2.81-3.58 2.32-6.91-3.26.08-6.37.18-8.58 3.34-1.04 1.49-7.24 1.48-7.76-.09-.71-2.18-1.36-5.72-.2-6.97 7.88-8.49 12.72-18.73 17.51-28.99 2.37-5.07 4.15-10.41 6.01-15.7.58-1.65 1.21-2.52 3.07-2.29 1.68.2 3.41.01 5.07.27 3.07.47 4.91 3.29 4.17 6.33-.14.58-.77 1.17-1.33 1.5-3.72 2.2-4.96 4.49-3.94 8.63.75 3.06 1.88 6.06 3.1 8.98 2.28 5.47 4.64 10.91 7.17 16.27 1.44 3.05 1.79 5.99.65 9.17-.46 1.29-.55 2.71-1.01 4-.73 2.05-.18 3.46 1.37 5.01 4.29 4.29 6.27 9.45 5.19 15.62-.31 1.76-.25 3.59-.37 5.39-.24 3.54.8 6.39 3.29 9.18 7.58 8.49 14.1 17.81 18.81 28.19 1.8 3.96 2.71 8.45 3.29 12.8.54 4.05-4.5 7.83-8.41 6.49-4.03-1.39-8.27-2.67-10.01-7.44-.59-1.61-1.97-3.01-3.23-4.28-5.97-6.04-6.4-9.53-1.86-16.57.46-.71.89-1.43 1.34-2.15-2.93-1.67-2.93-1.67-8.59.84-2.62-3.98-3.43-8.55-4.02-13.13-.7-5.46-1.4-10.96-1.57-16.45-.12-4-1.72-6.9-5.17-8.32-5.21-2.14-7.19-6.52-8.98-11.22-.18-.48-.41-.94-.83-1.87-.45.82-.73 1.28-.97 1.76-3.4 6.81-6.31 13.93-10.3 20.37-7.23 11.68-11.17 24.22-13.03 37.79-2.01 14.66-3.52 29.46-8.1 43.68-2.26 7.02-4.12 14.18-6.1 21.29-.28.99-.21 2.09-.33 3.48 3.61.31 7.05.72 10.5.86 3.29.13 6.22.87 8.71 3.17 1.31 1.22 3.02 2.03 4.29 3.28 3.65 3.6 7.54 4.99 12.38 2.29.84-.47 2.34-.34 3.3.07 10.03 4.35 20.56 5.47 31.35 5.35 3.81-.04 7.63.22 11.42.56 1.14.1 2.41.74 3.26 1.52 2.58 2.36 5.16 4.76 7.41 7.43 1.88 2.23 3.97 2.69 6.7 2.38 7.26-.84 14.54-1.85 21.83-2.06 4.7-.13 9.48.76 14.14 1.67 16.19 3.16 32.57 4.06 49 4.15 3.24.02 4.98 1.27 6.77 3.55 3.69 4.68 3.9 4.81 8.91 1.86 6.35-3.75 12.75-5.49 20.39-4.95 18.28 1.27 36.62 1.54 54.94 2.29 2.03.08 3.51-.42 5.14-1.73 1.32-1.06 3.44-1.65 5.17-1.57 3.68.16 6.59-.81 8.97-3.69 2.29-2.78 4.63-5.56 7.24-8.03 3.05-2.89 3.75-6.34 3-10.15-.53-2.68.06-4.86 1.93-6.66 3.19-3.07 6.47-6.04 10.25-9.55.95 3.19 1.72 5.65 2.4 8.13.12.45-.01 1.03-.18 1.5-1.64 4.53-3.67 8.95-4.91 13.59-2.31 8.61-7.29 15.22-14.91 19.36-14.64 7.95-29.8 14.8-46.25 18.17-13.15 2.69-26.52 2.89-39.89 2.66-.86-.01-1.97-.91-2.49-1.71-.83-1.28-1.27-2.83-2.01-4.58-7.22 7.06-15.64 7.29-24.56 5.92-10.13-1.55-20.3-2.76-31.03-4.19-.12-2.55-.3-5.79-.44-9.04-.16-3.59-1.47-4.91-5.63-5.28v10.94c-9.79 1.75-19.22 1.44-28.72.28-11.46-1.41-22.98-2.39-34.45-3.74-1.63-.19-3.44-1.06-4.65-2.18-3.71-3.45-7.17-7.17-10.95-11.01-2.17 2.67-4.09 5.03-6.37 7.82-.97-2.73-1.82-5.11-2.76-7.75-3.25 1.49-6.25 2.75-9.15 4.22-1.65.84-2.95.96-4.09-.7-1.33-1.94-3.2-2.56-5.51-2.3-1.36.16-2.77-.11-4.13.05-5.24.64-9.76-.38-13.13-4.9-.6-.8-2.22-1.26-3.31-1.18-3.15.25-6.26 1.02-9.42 1.28-1.93.16-4.17.25-5.79-.57-1.39-.7-2.86-2.72-2.91-4.2-.01-1.38 1.8-2.8 3.24-4.83zm73.41 4.47c-2.44-1.79-6.04-.21-9.87 4.06.75 1.07 1.51 2.17 1.99 2.86 2.69-2.36 5.26-4.62 7.88-6.92zm130.38 24.18c-1.41-2.12-2.71-4.07-4.01-6.02-.21.09-.42.18-.63.27.32 2.22.64 4.44 1 6.93 1.34-.44 2.32-.75 3.64-1.18zm25.86-2.64c-.47 1.91-.8 3.28-1.27 5.22 2.39-.97 4.16-1.69 6.4-2.6-1.91-.97-3.29-1.68-5.13-2.62zm-213.12-25.95c-.23.05-.46.1-.69.16.31 1.55.62 3.09 1.05 5.23 1.14-1.05 1.85-1.71 2.69-2.49-1.27-1.22-2.16-2.06-3.05-2.9z"/><path d="m319.91 152.82c.65 2.37 1.48 4.78 1.91 7.25.16.93-.34 2.44-1.06 2.96-5.9 4.26-6.72 10.38-7.1 17.02-.39 6.85-1.44 13.68-2.54 20.47-.43 2.67-1.62 5.25-2.74 7.75-2.16 4.83-5.23 8.65-10.96 9.5-4.46.67-7.97 3.12-11.11 6.28-2.33 2.35-7.53 2.5-9.85.1-4.33-4.49-8.59-9.09-12.49-13.95-3.13-3.89-4.6-8.72-4.35-13.67.13-2.56 1.76-5.05 2.85-7.91-3.97-1.39-8.27-2.76-12.45-4.44-1.32-.53-2.48-1.74-3.39-2.9-.96-1.23-1.59-2.75-2.28-4.17-6.19-12.72-13.08-24.97-23.92-34.43-3.4-2.97-4.79-6.61-4.63-10.9.14-3.75-1.28-5.83-5.1-6.49-2.37-.41-4.63-1.42-7.1-2.21 0-4.35-.18-8.6.06-12.82.17-2.98-1.33-3.72-3.77-3.71-.84 0-1.69.14-2.51.32-1.62.33-3.42 1.33-4.06-1.31-.58-2.41.29-3.67 2.81-4.22 2.73-.6 5.36-1.67 8.53-2.69-5.1-2.8-5.06-6.87-3.73-11.22.97-3.17 2.1-6.29 3.51-9.37.22 7.53 3.85 13.4 8.21 18.96 1.7 2.17 3.24 4.48 5.09 6.52 6.29 6.93 9.59 15.01 10.11 24.36.09 1.69 1.37 3.38 2.3 4.94.59.98 1.53 1.75 2.36 2.57 6.92 6.78 12.79 14.25 17.4 22.88 2.91 5.46 7.06 10.3 10.94 15.19 8.95 11.29 18.14 22.38 27.03 33.72 1.17 1.49 1.14 3.94 1.58 5.97.26 1.19.35 2.42.52 3.62.42.04.83.09 1.25.13 1.5-7.09 3.61-14.12 4.32-21.29.62-6.17 2.85-11.08 6.94-15.46 1.58-1.69 2.9-3.62 4.54-5.69-4.61-4.33-3.47-9.05-1.19-13.97 1.15-2.46 1.3-6.75 2.94-7.34 3.26-1.17 7.24-.35 11.13-.35z"/><path d="m349.42 162.95c-5.05 0-9.5.1-13.94-.09-.88-.04-2.05-1-2.5-1.84-2.03-3.83-3.75-7.84-5.83-11.64-.53-.96-1.91-1.89-3-2.03-3.57-.45-7.18-.66-10.78-.7-2.67-.03-4.09-1.35-4.04-3.78.07-3.46.09-7.05 1.02-10.34 1.85-6.62 4.27-13.07 6.54-19.57.29-.84.91-1.7 1.62-2.23 3.74-2.78 7.55-5.46 11.71-8.45 3.41 5.59 6.74 11.06 10.22 16.78-1.22 1.62-2.47 3.28-3.86 5.12 5.45 4.51 7.81 10.67 9.63 17.19.5 1.78.32 3.05-1.16 4.13-1.62 1.17-1.79 2.46-.93 4.36 1.86 4.1 3.41 8.36 5.3 13.09z"/><path d="m139.47 213.46c1.72-7.73 3.26-14.74 4.88-21.73.15-.66.8-1.23 1.25-1.8 2.74-3.49 5.29-7.17 8.3-10.41 3.28-3.53 6.79-6.92 10.58-9.89 3.26-2.55 7.95-.88 9.19 3.09.87 2.8 1.22 5.78 1.56 8.71.09.77-.59 1.71-1.09 2.46-4.58 6.85-9.2 13.67-13.79 20.51-2.47 3.68-4.84 7.43-7.35 11.08-.65.94-1.59 1.71-2.49 2.43-2.36 1.9-5.45 4.12-7.96 2.56-1.87-1.17-2.2-4.83-3.08-7.01z"/><path d="m359.36 256.98c-2.86-1.15-5.58-2.25-8.81-3.55-.86 2.53-1.8 4.96-2.51 7.45-.69 2.41-1.97 3.92-5.23 3.97-3.34-17.88-2.38-36.08-3.01-54.33 1.43 3 2.86 5.99 4.27 9 2.25 4.8 4.98 6.49 10.74 6.44.35-1.09.73-2.26 1.13-3.51-3.34-1.78-7.57-2.37-7.6-7.22 5.3-1.49 8.43-.79 9.84 2.33.35.78.61 2.01.24 2.63-1.5 2.49-.6 4.69.43 6.93 1.1 2.4 2.26 4.78 3.37 7.17 1.87 4.05 2.84 7.82.06 12.23-1.77 2.79-1.92 6.61-2.92 10.46z"/><path d="m191.64 114.57c1.26 6.76 2.68 13.17 3.56 19.65.37 2.73.02 5.74-.75 8.4-.9 3.12-2.58 6.01-3.98 8.97-1.05 2.23-2.18 4.12-5.21 4.36-2.54.2-3.66 2.04-3.17 4.83.9 5.05-.54 6.39-5.52 5.49-3.02-.55-6.09-.92-9.04-1.72-1.17-.32-2.56-1.4-2.95-2.47-.34-.92.24-2.63 1-3.45 3.69-3.94 7.42-7.89 11.46-11.46 2.95-2.6 4.25-5.64 4.33-9.4.17-8.2 3.44-15.17 8.57-21.39.52-.63 1.11-1.19 1.7-1.81z"/><path d="m356.4 205.51c-1.44.51-2.11.75-2.6.92-1.6-3.22-2.65-6.7-4.8-9.28-2.06-2.47-5.29-3.95-7.94-5.97-1.3-.99-2.67-2.02-3.57-3.34-.8-1.17-1.1-2.73-1.4-4.17-1.58-7.59-.79-9.09 6.28-12.32 2.79-1.27 8.07 1.31 9.57 4.91.67 1.62 1 3.45 1.12 5.21.16 2.31.13 4.66-.12 6.97-.64 5.92-1.35 11.8 3.46 17.07z"/></g></svg>