<svg enable-background="new 0 0 400 400" viewBox="0 0 400 400" xmlns="http://www.w3.org/2000/svg"><path d="m378.6 9.2.8-1c.9.7 1.9 1.4 2.9 2.3l-.9 1.1c-1.1-.9-2-1.7-2.8-2.4zm.5 10.7c.9-2.1 1.6-4.3 2.3-6.7.4.2.8.4 1.3.6-.7 2.1-1.5 4.3-2.2 6.6zm.4-15.2.9-.9c1 .8 2 1.6 2.8 2.4l-1 1c-1-.9-1.9-1.8-2.7-2.5zm12.5-1.3h1.2v1.4h2.7v1.1h-2.7v2.7h-1.2v-.5h-1.8v1.3h4.9v3.8h-1.2v-.5h-3.7c0 .4-.1.9-.1 1.2h5.1v1h-5.2c0 .5-.1.9-.2 1.2h6v1h-5.2c1.1 1.3 2.9 2 5.5 2.2-.4.4-.7.8-.9 1.3-2.9-.5-4.8-1.6-5.7-3.5h-.1c-.8 1.7-2.7 2.9-5.9 3.6-.2-.4-.6-.8-.9-1.1 2.8-.6 4.6-1.4 5.4-2.5h-4.8v-1h5.3c.1-.3.2-.7.2-1.2h-4.9v-1h5c0-.4 0-.8.1-1.2h-3.6v.5h-1.2v-3.8h4.9v-1.3h-1.8v.5h-1.2v-2.7h-2.6v-1.1h2.6v-1.4h1.2v1.4h4.7v-1.4zm-6.7 8.4h3.6c0-.4 0-.9 0-1.4h-3.6zm1.9-4.7h4.7v-1.2h-4.7zm6.7 3.3h-3.7v1.4h3.7z" fill="#fafbfc"/><path d="m384.7 21.4h1.3v2.2h2.8v-2.2h1.3v2.2h4.1v9.1h1.7v1.3h-16.9v-1.3h1.7v-9.1h4.1v-2.2zm.3 13.2.7 1.2c-1.8.9-3.8 1.9-6 2.9-.2-.4-.5-.8-.8-1.3 2.4-1 4.4-2 6.1-2.8zm-3.1-6.5h2.8v-3.2h-2.8zm0 4.6h2.8v-3.3h-2.8zm4.1-4.6h2.8v-3.2h-2.8zm0 4.6h2.8v-3.3h-2.8zm3.6 1.9c2.1.9 4.1 1.8 6.1 2.7l-.7 1.3c-2.2-1.1-4.2-2-6.1-2.9zm3.3-9.7h-2.8v3.2h2.8zm-2.8 7.8h2.8v-3.3h-2.8z" fill="#fafbfc"/><g fill="#010104"><path d="m151.38 40.73c4.11 1.01 6.68 3.59 8.24 6.87 3 6.3 5.57 12.79 8.33 19.2.42.96.65 2.21 1.39 2.79 3.99 3.14 4.88 7.78 6.21 12.21 2.31 7.71 4.44 15.47 6.97 23.1 1.61 4.84 1.61 9.57.33 14.37-4.74 17.75-10.89 34.95-19.69 51.14-3.64 6.71-6.97 13.54-8.75 21.04-.43 1.82-1.17 3.7-2.24 5.21-5.87 8.23-7.7 17.99-10.91 27.27-3.93 11.38-3.65 22.45-.66 34 2.11 8.15 2.58 16.73 3.8 25.12.12.83.19 1.72.56 2.45 8.45 16.4 13.15 34.09 17.96 51.75.4 1.47 1.26 2.88 2.17 4.13 4.02 5.48 6.83 11.45 7.59 18.26.56 5.01-.15 5.76-5.65 6.02-.53-8.17-6.06-14.16-9.54-21.09-1.04-2.08-2.58-3.95-3.39-6.1-3.2-8.47-6.21-17-9.27-25.52-1.42-3.96-2.64-8.01-4.22-11.91-5.72-14.16-8.44-29.04-10.78-44.02-.47-3.03-.75-6.1-1.33-9.12-1.92-9.89-.11-19.33 3.24-28.61 3.3-9.16 6.32-18.44 9.96-27.46 2.61-6.45 6.09-12.55 9.08-18.86.85-1.79 1.29-3.77 2-5.64 1.49-3.94 2.83-7.94 4.57-11.76 5.8-12.78 11.01-25.78 12.08-39.92.99-13-.07-25.87-5.86-37.86-3.4-7.03-7.27-13.84-10.71-20.86-2.46-5.01-3.82-10.29-1.48-16.2z"/><path d="m245.93 352.75c-4.61-6.34-9.11-12.46-13.54-18.64-1.11-1.54-1.78-3.42-2.97-4.88-6.59-8.1-7.94-18.2-10.75-27.74-.06-.2-.12-.41-.13-.62-.51-12.69-1.52-25.39-1.39-38.07.12-12.39 3.92-24.34 10.42-34.63 4.81-7.62 7.5-15.5 9.51-23.93.19-.81.4-1.71.88-2.35 7.04-9.33 9.77-20.58 13.9-31.2.54-1.38.84-2.87 1.52-4.17 4.65-8.88 4.74-17.8 2.06-27.48-2.88-10.37-3.28-21.46-6.47-31.69-5.66-18.11-6.62-36.79-8.65-55.37-.31-2.86.23-5.51 3.15-7.21 3.94 2.35 5.83 6.18 6.56 10.38 1.16 6.67 1.72 13.44 2.65 20.15.43 3.12 1.03 6.24 1.73 9.31 3.62 15.78 6.93 31.64 11.08 47.28 2.94 11.07 1.76 21.57-1.6 32.17-.86 2.71-1.15 5.59-1.72 8.39-.15.72-.17 1.54-.54 2.13-6.63 10.55-9.58 22.54-13.52 34.15-.2.6-.34 1.28-.72 1.75-6.94 8.56-8.62 19.14-11.46 29.3-1.79 6.42-3.74 12.81-6.04 19.06-2.26 6.17-3.29 12.34-2.88 18.94.73 11.86 1.24 23.71 4.92 35.14.54 1.68 1.57 3.2 2.32 4.82 2.75 5.94 5.42 11.92 8.23 17.83 1.43 3.01 3.35 5.81 4.57 8.9.8 2.02.83 4.38.99 6.6.03.36-1.01.82-2.11 1.68z"/><path d="m214.75 85.29c-3.23 1.21-4.27.25-5.77-2.5-7.62-13.93-8.22-29.62-11.87-44.54-.18-.73.05-2.11.52-2.35.99-.5 2.36-.81 3.39-.52.99.28 1.82 1.33 2.59 2.16 2.03 2.21 3.83 4.67 6.03 6.68 2.36 2.16 3.29 4.83 2.9 7.68-1.06 7.85.86 15.33 2.11 22.95.57 3.46.1 7.08.1 10.44z"/><path d="m180.42 282.66c-2.65-9.11-3.43-17.54-2.81-25.99.39-5.29 1.53-10.63 3.17-15.67.79-2.44 3.36-4.43 5.42-6.29 1.83-1.65 3.91-1.04 4.63 1.4.58 1.96.76 4.19.52 6.23-1.03 8.71-2.13 17.43-3.51 26.09-.64 4.04-1.76 8.06-3.17 11.9-.39 1.08-2.6 1.48-4.25 2.33z"/><path d="m215.49 193.12c-3.48-4.19-5.32-9.12-5.46-14.5-.19-7.4.12-14.81.03-22.21-.03-2.36.94-4.52 2.92-4.53 2.13-.01 4.58 1.19 6.27 2.6 1.02.85 1.1 3.1 1.17 4.75.29 6.74.51 13.49.55 20.24.02 2.93-.4 5.87-.77 8.78-.33 2.66-1.88 4.34-4.71 4.87z"/></g></svg>