<svg enable-background="new 0 0 400 400" viewBox="0 0 400 400" xmlns="http://www.w3.org/2000/svg"><path d="m103.52 239.42c-2.97-4.52-2.06-9.13 2.33-12.04 9.33-6.19 19.85-8.15 30.78-8.75 12.48-.69 24.95-1.64 37.44-2.17 4.2-.18 8.44.57 12.66.86 4.29.29 6.29-.47 7.36-4.69 1.06-4.2 1.82-8.94.98-13.09-5.64-27.78-5.73-56.05-8-84.12-1.34-16.59-2.38-33.2-3.47-49.81-.13-2.01-.84-3.19-2.64-4.2-10.16-5.7-10.11-5.63-22.62-3.58-10.56 1.73-21.15 3.27-31.75 4.63-7.43.96-13.27-1.82-16.01-7.2-2.36-4.64-2.23-9.64-1.68-14.61.08-.7 1.56-1.67 2.49-1.8 7.02-.95 14.05-1.87 21.1-2.49 7.91-.69 15.85-1.45 23.78-1.43 6.43.01 12.86 1.02 19.27 1.77 18.94 2.22 37.89 4.43 56.8 6.91 4.36.57 8.55 2.42 12.89 3.3 2.94.59 6.11 1.12 9 .62 9.09-1.57 17.96 8.25 18.47 14.53.28 3.48-2.07 5.28-4.6 6.58-2.23 1.15-4.54.86-6.73-.99-1.43-1.2-3.58-2.38-5.32-2.26-15.99 1.11-31.68-2.02-47.5-3.17-1.26-.09-2.53-.15-4.16-.25 0 4.92-.33 9.74.05 14.5 2.42 30.22 5.03 60.42 7.51 90.63 1.18 14.37 2.24 28.75 3.22 43.13.17 2.45 1.07 3.67 3.46 3.92 9.78 1.03 19.55 2.12 29.34 3.11 5.38.54 10.76 1.06 16.16 1.31 2.83.13 5.71-.17 8.52-.59 7.44-1.1 16.65 4.66 18.16 11.83 2.89 13.76 5.74 27.54 8.3 41.37 2.97 16.09 2.46 32.32.92 48.5-.9 9.37-2.46 18.69-3.95 27.99-.23 1.42-1.44 2.9-2.59 3.9-1.41 1.23-3.2 2.06-4.88 2.95-2.44 1.29-4.38 1.93-7.43.01-2.81-1.76-7.19-2.22-10.58-1.61-7.9 1.4-15.63 3.76-23.42 5.78-1.01.26-2.17.56-2.88 1.24-3.43 3.35-7.24 3.24-11.34 1.62-3.34-1.33-6.49-1.77-8.92 1.84-.42.62-1.65.86-2.54.96-26.81 3.09-53.54 2.63-80.03-2.7-6.27-1.26-12.26-3.93-18.39-5.93-4.52-1.48-7.2-4.97-9.72-8.7-8.49-12.57-12.8-26.67-15.07-41.45-2.67-17.36-3.56-34.79-.93-52.27.38-2.51.86-5.01 1.43-7.49.96-4.19 1.01-4.18 4.73-6.4zm172.33 5.38c.51-3.5-.6-6.56-3.36-8.7-.96-.74-2.91-1.31-3.82-.83-9.09 4.8-18.01 3.84-26.94-.31-.57-.27-1.2-.53-1.81-.57-1.74-.11-3.59-.49-5.22-.08-9.13 2.32-18.18 4.94-27.31 7.22-2.72.68-5.62.74-8.45.83-6.1.2-12.21.28-18.32.33-2.48.02-4.97 0-7.43-.25-3.74-.38-7.45-1.36-11.17-1.36-3.23-.01-6.48.93-9.7 1.54-7.83 1.49-15.61 2.63-23.57.4-2.34-.66-5.06-.24-7.57.02-2.92.31-4.47 1.81-4.78 5.12-1.83 19.6-1.42 39.17.23 58.74.17 2.07 1.03 4.41 2.34 5.99 2.63 3.18 2.77 6.1.77 9.56-1.91 3.3 1.8 11.17 5.45 11.92 19.6 4.01 39.2 8.03 58.81 11.98 1.52.31 3.18.31 4.71.06 6.16-1.04 12.28-2.28 18.43-3.37 18.22-3.23 36.27-7.69 55.03-6.87 3.41.15 7-1.37 10.33-2.61 1.64-.61 3.72-2.07 4.15-3.57 1.84-6.38 4.13-12.88 4.39-19.41.39-9.58-.47-19.26-1.45-28.83-.66-6.39-2.92-12.61-3.6-18.99-.65-5.92-.14-11.97-.14-17.96zm-84.82 113.59c-.97-1.47-1.92-2.89-2.86-4.31-.19.13-.38.26-.58.39.28 1.49.57 2.99.88 4.63 1.22-.34 2.18-.6 2.56-.71z" fill="#010000"/><g fill="#fafafb"><path d="m361.2 9.6.8-1c.9.7 1.9 1.4 2.9 2.3l-.9 1.1c-1-1-2-1.8-2.8-2.4zm.5 10.6c.9-2.1 1.6-4.3 2.3-6.7.4.2.8.4 1.3.6-.7 2.1-1.5 4.3-2.2 6.6zm.4-15.2.9-.9c1 .8 2 1.6 2.8 2.4l-1 1c-.9-.9-1.8-1.7-2.7-2.5zm12.5-1.2h1.2v1.4h2.7v1.1h-2.7v2.7h-1.2v-.6h-1.8v1.3h4.9v3.8h-1.2v-.5h-3.7c0 .4-.1.9-.1 1.2h5.1v1h-5.2c0 .5-.1.9-.2 1.2h6v1h-5.2c1.1 1.3 2.9 2 5.5 2.2-.4.4-.7.8-.9 1.3-2.9-.5-4.8-1.6-5.7-3.5h-.1c-.8 1.7-2.7 2.9-5.9 3.6-.2-.4-.6-.8-.9-1.1 2.8-.6 4.6-1.4 5.4-2.5h-4.8v-1h5.3c.1-.3.2-.7.2-1.2h-4.9v-1h5c0-.4 0-.8.1-1.2h-3.5v.5h-1.2v-3.8h4.9v-1.3h-1.8v.5h-1.2v-2.7h-2.7v-1h2.6v-1.4h1.2v1.4h4.7v-1.4zm-6.6 8.3h3.6c0-.4 0-.9 0-1.4h-3.6zm1.9-4.6h4.7v-1.3h-4.7zm6.6 3.2h-3.7v1.4h3.7z"/><path d="m385.3 3.8h1.3v2.2h2.8v-2.2h1.3v2.2h4.1v9.1h1.7v1.3h-16.9v-1.3h1.7v-9.1h4.1v-2.2zm.4 13.1.7 1.2c-1.8.9-3.8 1.9-6 2.9-.2-.4-.5-.8-.8-1.3 2.3-1 4.3-1.9 6.1-2.8zm-3.1-6.4h2.8v-3.2h-2.8zm0 4.6h2.8v-3.3h-2.8zm4-4.6h2.8v-3.2h-2.8zm0 4.6h2.8v-3.3h-2.8zm3.7 1.9c2.1.9 4.1 1.8 6.1 2.7l-.7 1.3c-2.2-1.1-4.2-2-6.1-2.9zm3.2-9.7h-2.8v3.2h2.8zm-2.8 7.8h2.8v-3.3h-2.8z"/></g></svg>