<svg enable-background="new 0 0 400 400" viewBox="0 0 400 400" xmlns="http://www.w3.org/2000/svg"><path d="m378.6 9.2.8-1c.9.7 1.9 1.4 2.9 2.3l-.9 1.1c-1.1-.9-2-1.7-2.8-2.4zm.5 10.7c.9-2.1 1.6-4.3 2.3-6.7.4.2.8.4 1.3.6-.7 2.1-1.5 4.3-2.2 6.6zm.4-15.2.9-.9c1 .8 2 1.6 2.8 2.4l-1 1c-1-.9-1.9-1.8-2.7-2.5zm12.5-1.3h1.2v1.4h2.7v1.1h-2.7v2.7h-1.2v-.5h-1.8v1.3h4.9v3.8h-1.2v-.5h-3.7c0 .4-.1.9-.1 1.2h5.1v1h-5.2c0 .5-.1.9-.2 1.2h6v1h-5.2c1.1 1.3 2.9 2 5.5 2.2-.4.4-.7.8-.9 1.3-2.9-.5-4.8-1.6-5.7-3.5h-.1c-.8 1.7-2.7 2.9-5.9 3.6-.2-.4-.6-.8-.9-1.1 2.8-.6 4.6-1.4 5.4-2.5h-4.8v-1h5.3c.1-.3.2-.7.2-1.2h-4.9v-1h5c0-.4 0-.8.1-1.2h-3.6v.5h-1.2v-3.8h4.9v-1.3h-1.8v.5h-1.2v-2.7h-2.6v-1.1h2.6v-1.4h1.2v1.4h4.7v-1.4zm-6.7 8.4h3.6c0-.4 0-.9 0-1.4h-3.6zm1.9-4.7h4.7v-1.2h-4.7zm6.7 3.3h-3.7v1.4h3.7z" fill="#fafbfc"/><path d="m384.7 21.4h1.3v2.2h2.8v-2.2h1.3v2.2h4.1v9.1h1.7v1.3h-16.9v-1.3h1.7v-9.1h4.1v-2.2zm.3 13.2.7 1.2c-1.8.9-3.8 1.9-6 2.9-.2-.4-.5-.8-.8-1.3 2.4-1 4.4-2 6.1-2.8zm-3.1-6.5h2.8v-3.2h-2.8zm0 4.6h2.8v-3.3h-2.8zm4.1-4.6h2.8v-3.2h-2.8zm0 4.6h2.8v-3.3h-2.8zm3.6 1.9c2.1.9 4.1 1.8 6.1 2.7l-.7 1.3c-2.2-1.1-4.2-2-6.1-2.9zm3.3-9.7h-2.8v3.2h2.8zm-2.8 7.8h2.8v-3.3h-2.8z" fill="#fafbfc"/><path d="m312.39 320.73c.24 1.11.42 1.83.53 2.55.29 1.9.98 3.98 3.13 3.65 1.85-.28 4.3-1.35 5.1-2.83 2.85-5.22 3.02-11.01 1.53-16.69-2.08-7.92-3.03-15.78-.59-23.82.26-.84-.56-2.32-1.31-3.11-5.05-5.31-5.05-5.26-2.22-12.1.46-1.12 1.06-2.63.68-3.59-3.91-9.66-1.59-19.45-.84-29.21.46-5.95 2.26-11.94-.64-17.8-.39-.78-.15-1.88-.16-2.83-.01-4.01-.01-8.03-.01-12.52-4.45.53-8.64.82-12.75 1.57-12.58 2.28-25.16.6-37.74.27-17.05-.45-34.1-1.5-51.15-1.51-11.73-.01-23.49.95-35.16 2.19-6 .64-11.31-1.13-16.78-2.55-2.9-.75-5.53-.93-8.28.32-8.61 3.91-17.9 2.44-26.89 3.38-9.93 1.04-18.99-2.53-28.33-4.57-1.48-.32-2.52-2.36-3.94-3.35-1.09-.76-2.52-1.72-3.68-1.58-8.48 1.04-14.39-2.67-18.3-9.82-1.13-2.06-1.37-4.63-1.89-6.99-.91-4.14-1.5-8.36-2.63-12.43-1.48-5.34-.49-10.54.41-15.73.58-3.33.31-5.69-3.09-7.57-1.73-.96-3.39-3.45-3.64-5.43-1.07-8.39-1.94-16.83-2.23-25.28-.26-7.61.26-15.25.56-22.87.24-6.12-.93-11.58-6.1-15.57-.99-.76-1.77-1.82-2.58-2.79-3.62-4.32-5.69-8.8-2.08-14.28 1.9-2.88 3.37-6.05 5.03-9.1.88-1.62 2.16-1.8 3.74-1.09 4.57 2.03 9.28 2.38 14.26 1.9 7.48-.72 15.02-.82 22.52-1.44 3.1-.26 5.58.27 7.54 2.79.57.73 1.4 1.25 2.26 2 3.9-3.54 8.09-3.86 13.07-2.6 2.94.74 6.51-.16 9.6-1.02 5.91-1.64 11.65-3.85 17.52-5.66 1.9-.58 3.95-.79 5.94-.89 3.92-.19 7.59.48 10.31 3.77.72.87 1.71 1.51 2.65 2.32 7.45-9.99 17.92-9.44 28.45-8.81 7.82.47 15.7 1.52 23.47.98 6.64-.47 13.2-2.65 19.7-4.43 3.91-1.07 7.61-1.87 11.78-1.24 14.44 2.19 28.97 1.13 43.48.78 8.67-.21 17.18.88 24.56 6.06 2.39 1.68 4.56 3.68 6.83 5.53-.28.43-.56.86-.84 1.29-4.63 1.33-9.2 2.97-13.9 3.91-5.01 1-8.86 3.16-10.89 7.98-1.12 2.65-2.95 2.99-5.58 2.38-4.95-1.15-9.94-2.28-14.98-2.82-3.41-.37-6.99-.09-10.38.55-8.94 1.68-17.87 2.14-26.84.55-7.81-1.38-15.39.45-23.03 1.42-8.83 1.12-17.72 2-26.42 3.78-6.16 1.26-12 4.01-18.07 5.79-2.65.78-5.53 1.18-8.28 1.09-5.61-.18-11.2-1.16-16.8-1.16-5.48 0-10.95.92-16.43 1.25-9.2.55-18.4 1.13-27.61 1.32-2.53.05-5.12-1.13-7.63-1.92-3.95-1.23-6.79-.44-8.12 3.49-1.23 3.63-1.66 7.62-1.91 11.49-.24 3.68-.15 7.47.43 11.1.91 5.77.13 11.18-2.36 16.36-1.29 2.68-1.3 5.17-.1 7.89 1.15 2.6 1.93 5.37 2.95 8.31-2.33 1.62-4.64 3.23-7.23 5.03 6.65 5.67 7.92 13 7.73 21.06-.1 4.05.78 8.17 1.63 12.17.22 1.04 1.95 1.81 3.07 2.59.39.27 1.03.19 1.55.24 5.17.45 9.99 1.69 13.61 5.79 1.2 1.36 2.29 1.39 3.73.1 3.46-3.1 7.75-4.34 12.28-4.5 3.91-.14 7.83.14 11.75.16 18.75.12 37.5.28 56.24.28 11.13 0 22.26-.61 33.38-.34 5.88.14 11.75 1.42 17.59 2.45 4.41.78 8.63.75 13-1.38-.14 1.34-.63 2.57-.28 3.47.44 1.1 1.42 2.35 2.47 2.74.83.31 2.77-.28 3.08-.97 1.85-4.22 5.17-4.79 9.27-4.8 14.63-.05 29.27-.89 43.87-.31 5.86.23 11.61 3.33 17.4 5.17 1.3.41 2.62.9 3.76 1.62.98.62 2.12 1.51 2.42 2.51.19.63-.85 2.09-1.68 2.48-7.63 3.63-7.78 10.62-3.22 17.95 5.09 8.18 7.8 17.16 8.98 26.57 2.43 19.29 2.46 38.7 2.17 58.11-.01.92-.08 1.99-.53 2.74-4.6 7.74-3.83 15.51-.23 23.3 1.15 2.49 2.38 4.94 3.71 7.68-4.43 4.22-8.83 8.47-13.33 12.64-.54.5-1.53.63-2.33.7-5.38.48-10.77 1.14-16.16 1.27-5.47.13-10.25 2.22-15.18 4.15-2.3.9-4.88 1.43-7.35 1.51-12.29.38-24.62.06-36.86.97-8.72.65-17.33 2.83-25.98 4.38-9.59 1.72-19.15 3.67-28.77 5.15-2.48.38-5.16-.79-7.77-.93-1.66-.08-3.75-.11-4.97.77-4.77 3.46-9.87 4.05-15.59 3.49-8.74-.85-17.55-1.46-26.33-1.46-6.64 0-13.29 1.06-19.93 1.72-8.86.87-17.76 1.47-26.55 2.83-6.45.99-12.7 3.31-19.13 4.48-5.88 1.07-11.65-.35-16.29-4.07-3.98-3.19-8.05-6.67-8.55-12.49-.25-2.92.51-5.02 2.48-7.39 4.94-5.95 11.42-5.43 17.99-5.51 5.25-.07 10.5-.73 15.75-.82 2.35-.04 4.7.84 7.07 1 2.01.13 4.23.32 6.05-.36 8.28-3.11 16.88-4.06 25.59-4.05 7.62.01 15.24.68 22.86.73 3.67.02 7.34-.81 11.02-1.1 2.94-.23 5.9-.41 8.83-.26 7.51.38 15.01.98 22.52 1.45 1.04.06 2.37.27 3.1-.25 4.92-3.51 10.35-2.32 15.66-1.85 3.15.28 6.08.15 8.88-1.44 3.33-1.89 6.81-2.53 10.66-1.57 9.41 2.34 18.75.17 28.08-.87 16.62-1.82 33.23-3.79 50.16-5.74zm-131.58-134.39c-4.85-3.81-6.12-3.52-10.4 2.18.86 1.21 1.75 2.46 2.75 3.87 2.68-2.12 5.06-4 7.65-6.05zm38.63 154.81c-6.23 2.5-6.83 3.14-4.28 5.51 1.62-.55 3.29-1.13 5.24-1.8-.35-1.34-.65-2.51-.96-3.71zm22.53-156.86v5.77c2.39-.18 3.96-.63 3.78-3.5-.17-2.69-1.78-2.34-3.78-2.27z" fill="#010104"/></svg>