<svg enable-background="new 0 0 400 400" viewBox="0 0 400 400" xmlns="http://www.w3.org/2000/svg"><path d="m203.8 34.89c2.81.48 3.2 2.12 2.98 4.42-.66 6.86-.41 13.89-1.87 20.56-2.56 11.72.16 23.37-.62 35.04-.75 11.09-.62 22.25-.63 33.38 0 3.57.81 7.13 1.2 10.7.3 2.68 1.81 4.24 4.38 4.68 6.04 1.04 12.06 2.22 18.14 2.9 6.85.77 13.29 2.51 19.24 6.01.8.47 1.84.55 2.56 1.09.52.39 1.13 1.46.93 1.87-1.57 3.31-.21 6.29 1.03 9.16 3.38 7.81 4.78 15.84 4.75 24.4-.03 11.76.73 23.52 1.4 35.27.15 2.7 1.14 5.39 2.03 7.99 1.51 4.41 1.68 8.88 1.36 13.47-.54 7.91-.71 15.75.69 23.72.89 5.07.19 10.58-.68 15.75-2.23 13.42-1.25 26.83-.8 40.28.2 5.99-.28 12-.47 18.5-1.49-.32-2.62-.24-2.91-.69-1.76-2.77-4.31-5.07-3.69-9.05 1.13-7.21 1.88-14.48 2.53-21.75.17-1.91-.79-3.9-.88-5.87-.07-1.67.43-3.36.54-5.04.06-.91.19-2.27-.32-2.69-2.53-2.1-2.07-4.89-2.12-7.6-.26-13.46-.5-26.92-.82-40.39-.05-1.88-.3-3.82-.84-5.62-2.79-9.28-3.07-18.72-2.38-28.31.17-2.39-.43-4.94-1.17-7.26-.84-2.66-2-5.13-.26-7.87.33-.52.17-1.39.13-2.09-.15-2.89-.36-5.79-.5-8.68-.06-1.16.41-2.56-.08-3.43-2.47-4.37-1.74-9.05-1.74-13.68.02-10.89.05-11.1-10.55-13.23-3.81-.77-6.09-2.77-8.18-5.85-.07 1.42-.14 2.85-.23 4.88-2.5-.23-4.86-.37-7.2-.68-11.96-1.61-12.68-1.28-11.68 10.46 1.57 18.34.44 36.67 1.21 54.95.34 7.96 1.15 15.96 1.06 23.97-.02 2.28-.85 4.71-1.91 6.77-1.83 3.56-4.13 6.89-6.42 10.61 2.54 1.07 4.91 2.07 7.24 3.05-2.65 9.84 1.34 18.99 1.91 28.39.07 1.13.3 2.45-.16 3.37-2.49 4.96-1.81 10.05-1.08 15.22.86 6.09 1.4 12.22 2.32 18.29.39 2.54-.45 4.13-2.64 5.05-2 .84-3.49.01-5.08-1.43-4.11-3.71-5.84-8.02-5.82-13.67.04-9.21-.98-18.41-1.13-27.62-.08-5.06.82-10.13 1.04-15.21.16-3.78-.11-7.57-.12-11.36-.03-8.56-.35-17.14.06-25.68.31-6.41.21-12.67-1.32-18.92-.37-1.49-.45-3.19-.15-4.69.96-4.86 1.05-4.84 6.15-5.23 1.78-.14 2.34-1.34 2.31-4.6-1.42.32-3.3 1.37-4.27.82-1.33-.76-2.58-2.65-2.8-4.21-.87-6.17-1.46-12.38-1.91-18.6-.62-8.56-.82-17.15-1.57-25.69-.39-4.48-2.35-6.11-6.34-6.68-.42-.06-.86-.19-1.26-.12-9.57 1.72-19.42.53-28.95 3-2.3.6-5.01-.38-7.92-.68v3.27c0 7.64.06 15.27-.06 22.91-.02 1.47-.78 2.92-1.17 4.38-.18.68-.43 1.37-.46 2.06-.11 2.81-.05 5.64-.24 8.45-.27 4.11-.67 8.21-1.07 12.31-.46 4.72-1.05 9.44-1.43 14.17-.19 2.38-.07 4.78-.02 7.17.01.62.56 1.42.33 1.84-2.75 4.9-.62 10.05-.68 15.04-.06 5.26 1.23 10.53 1.43 15.81.18 4.64-.51 9.3-.52 13.95-.07 17.5-.05 35-.02 52.49.01 8.89.25 17.78.11 26.66-.07 4.48-1.9 6.08-6.7 6.7-2.53-5.57-4.33-11.27-3.37-17.64.28-1.85-.28-3.84-.52-5.76-.1-.83-.48-1.64-.52-2.47-.42-9.53-1.23-19.07-1.08-28.6.27-17.05 1.17-34.09 1.73-51.13.47-14.2.57-28.41 1.4-42.59.24-4.06 2.58-7.97-.19-12.03-.4-.59.23-1.83.3-2.78.82-11.93 1.35-23.89 2.54-35.78.54-5.42 2.35-10.72 3.67-16.05.14-.56.84-1.31 1.33-1.36.53-.04 1.29.53 1.64 1.05 2.8 4.13 3.77 4.38 7.06.55 3.85-4.47 7.64-7.59 14.39-6.71 4.9.64 10.26.33 15.16-2.16 1.58-.8 4.18.02 6.2.54 3.2.82 4.38-.8 4.58-3.47.21-2.63-.05-5.29.04-7.94.17-4.84.57-9.68.65-14.52.09-5.49-.1-10.99-.09-16.48 0-3.81.23-7.61.18-11.42-.04-2.92-.6-5.84-.48-8.74.12-2.6.96-5.15 1.28-7.75.17-1.39.19-2.91-.18-4.25-2.02-7.41-.61-14.8 1.31-21.77 1.25-4.37 5.13-7.96 7.75-11.8z" fill="#010000"/><g fill="#fafafb"><path d="m361.2 9.6.8-1c.9.7 1.9 1.4 2.9 2.3l-.9 1.1c-1-1-2-1.8-2.8-2.4zm.5 10.6c.9-2.1 1.6-4.3 2.3-6.7.4.2.8.4 1.3.6-.7 2.1-1.5 4.3-2.2 6.6zm.4-15.2.9-.9c1 .8 2 1.6 2.8 2.4l-1 1c-.9-.9-1.8-1.7-2.7-2.5zm12.5-1.2h1.2v1.4h2.7v1.1h-2.7v2.7h-1.2v-.6h-1.8v1.3h4.9v3.8h-1.2v-.5h-3.7c0 .4-.1.9-.1 1.2h5.1v1h-5.2c0 .5-.1.9-.2 1.2h6v1h-5.2c1.1 1.3 2.9 2 5.5 2.2-.4.4-.7.8-.9 1.3-2.9-.5-4.8-1.6-5.7-3.5h-.1c-.8 1.7-2.7 2.9-5.9 3.6-.2-.4-.6-.8-.9-1.1 2.8-.6 4.6-1.4 5.4-2.5h-4.8v-1h5.3c.1-.3.2-.7.2-1.2h-4.9v-1h5c0-.4 0-.8.1-1.2h-3.5v.5h-1.2v-3.8h4.9v-1.3h-1.8v.5h-1.2v-2.7h-2.7v-1h2.6v-1.4h1.2v1.4h4.7v-1.4zm-6.6 8.3h3.6c0-.4 0-.9 0-1.4h-3.6zm1.9-4.6h4.7v-1.3h-4.7zm6.6 3.2h-3.7v1.4h3.7z"/><path d="m385.3 3.8h1.3v2.2h2.8v-2.2h1.3v2.2h4.1v9.1h1.7v1.3h-16.9v-1.3h1.7v-9.1h4.1v-2.2zm.4 13.1.7 1.2c-1.8.9-3.8 1.9-6 2.9-.2-.4-.5-.8-.8-1.3 2.3-1 4.3-1.9 6.1-2.8zm-3.1-6.4h2.8v-3.2h-2.8zm0 4.6h2.8v-3.3h-2.8zm4-4.6h2.8v-3.2h-2.8zm0 4.6h2.8v-3.3h-2.8zm3.7 1.9c2.1.9 4.1 1.8 6.1 2.7l-.7 1.3c-2.2-1.1-4.2-2-6.1-2.9zm3.2-9.7h-2.8v3.2h2.8zm-2.8 7.8h2.8v-3.3h-2.8z"/></g></svg>