<svg enable-background="new 0 0 400 400" viewBox="0 0 400 400" xmlns="http://www.w3.org/2000/svg"><path d="m362.1 8.8c1.1.8 2.1 1.6 3.1 2.4l-1 1.1c-1.3-1.1-2.3-2-3-2.5zm1.9 4.8c.5.2.9.4 1.4.5-.6 2.3-1.3 4.5-1.9 6.8l-1.5-.5c.8-2.1 1.4-4.3 2-6.8zm-1-9.4c1.3.9 2.4 1.8 3.4 2.5l-1 1.1c-1.4-1.2-2.4-2.1-3.2-2.6zm3.7 2.2v-1.4h10.3v1.2c-.5 3.6-1.8 6.8-4 9.4 1.5 1.6 3.4 2.8 5.7 3.8-.3.4-.7.8-1.1 1.4-2.3-1.1-4.1-2.5-5.6-4.1-1.6 1.6-3.6 3.1-5.9 4.3-.3-.5-.7-.9-1-1.3 2.4-1.1 4.4-2.5 6-4.1-1.9-2.5-3-5.6-3.3-9.3h-1.1zm8.8 0h-6.4c.3 3.3 1.3 6 3 8.2 2-2.3 3.1-5.1 3.4-8.2z" fill="#fbfcfa"/><path d="m385.3 3.8h1.3v2.2h2.8v-2.2h1.3v2.2h4.1v9.1h1.7v1.3h-16.9v-1.3h1.7v-9.1h4.1v-2.2zm.4 13.1.7 1.2c-1.8.9-3.8 1.9-6 2.9-.2-.4-.5-.8-.8-1.3 2.3-1 4.3-1.9 6.1-2.8zm-3.1-6.4h2.8v-3.2h-2.8zm0 4.6h2.8v-3.3h-2.8zm4-4.6h2.8v-3.2h-2.8zm0 4.6h2.8v-3.3h-2.8zm3.7 1.9c2.1.9 4.1 1.8 6.1 2.7l-.7 1.3c-2.2-1.1-4.2-2-6.1-2.9zm3.2-9.7h-2.8v3.2h2.8zm-2.8 7.8h2.8v-3.3h-2.8z" fill="#fbfcfa"/><path d="m115.35 203.67c6.73-2.75 13.6-2.36 20.55-1.3 6.99 1.07 14 2.06 21.01 2.96 1.44.18 2.97-.05 4.42-.32 7.63-1.41 8.19-1.98 9.57-9.57.55-3.01.99-6.04 1.49-9.13-.56-.3-.99-.66-1.47-.77-6.58-1.53-11.09-5.78-14.87-11.08-.78-1.1-1.76-2.18-2.88-2.92-16.45-10.9-26.18-26.67-33.01-44.73-5.17-13.67-7.6-27.96-10.66-42.13-.72-3.31-1.49-6.61-2.34-9.89-2.04-7.82-.96-15.32 2.02-22.69.66-1.64 1.46-2.28 3.29-2.05 4.41.55 8.86.88 13.28 1.31.52.05 1.07.11 1.53.34 10.13 4.93 12.95 18.77 5.56 27.25-3.56 4.08-4.43 8.8-3.25 13.97 1.77 7.73 3.31 15.52 5.47 23.14 1.08 3.81 3.17 7.38 5.06 10.92 6.98 13.1 14.2 26.07 23.68 37.57 4.61 5.6 10.69 8.85 18.09 9.46 2.62.22 4.17-.58 5.6-2.9 19.35-31.38 38.87-62.67 58.18-94.08 1.88-3.06 3.13-6.7 3.85-10.24.52-2.54.12-5.51-.69-8.02-1.11-3.43-1.09-6.68.97-9.4 3.57-4.71 7.57-9.1 11.48-13.54.47-.53 1.52-.78 2.29-.76 6.61.15 13.09.92 19.12 3.96 5.35 2.7 7.94 7.05 8.21 12.96.3 6.8-1.19 12.52-6.45 17.69-5.23 5.14-10.72 9.11-17.76 10.91-3.35.85-5.65 2.8-7.62 5.67-5.39 7.87-10.98 15.6-16.68 23.25-3.41 4.58-7.2 8.88-10.77 13.35-14.15 17.69-26.64 36.42-35.32 57.47-2.95 7.15-5.08 14.57-5.47 22.77 11.54 1.18 22.6 5.32 34.33 2.72 3.19-.71 3.25-.46 4.99 2.84-5.39 3.74-11.35 5.24-17.9 5.14-4.96-.08-9.95.2-14.9.65-3.85.35-7.77 4.27-8.2 8.93-.52 5.64-.98 11.51 0 17.02 2.1 11.83 1.79 23.53.59 35.39-1.91 18.87-2.96 37.84-5.15 56.68-1.23 10.59-3.95 21.01-6.21 31.46-.24 1.1-1.87 1.9-2.86 2.84-.31-.17-.61-.34-.92-.51-.13-.74-.35-1.47-.39-2.22-.8-14.8-1.61-29.6-2.34-44.41-.1-2.08-.12-4.27.4-6.26 1.6-6.14 2.04-12.27.9-18.53-3.28-18.07-1.32-36.04.5-54.11.67-6.67-1.12-13.61-2.04-20.4-.37-2.75-2.57-4.07-5.26-4.21-1.58-.08-3.17.11-4.75.27-13.61 1.39-26.56-1.53-39.2-6.13-4.14-1.48-5.67-3.28-7.07-6.59z" fill="#010101"/></svg>