<svg enable-background="new 0 0 400 400" viewBox="0 0 400 400" xmlns="http://www.w3.org/2000/svg"><path d="m204.8 27.8c7.7 1.6 10.7 5 10.3 12.5-.2 4.2-1.4 8.3-1.7 12.5-.2 3.3 0 6.6.4 9.9.2 2.5 1.6 3.6 4.5 3.6 19.9-.1 39.8-.1 59.7 0 4 0 8 .3 11.9.9 2.1.3 4.4 1.2 5.9 2.6 3.4 3 3 6.4-1.2 8-4.2 1.5-8.7 2.9-13.1 3.1-7.1.3-14.3-.5-21.5-.6-10.1-.1-20.1-.1-30.2 0-22.4.1-44.9.3-67.3.4-8.8.1-17.7 0-26.5.4-3 .1-6.1 1-9 2-8.5 2.8-10.1 10.2-11.4 17.8-2 11.6-.1 23.1.1 34.7.2 14.2-.6 28.5-.8 42.7-.5 41.5-1 82.9-1.5 124.4-.2 20.6-.5 41.1-.8 61.7 0 1.9-.3 3.8-.8 5.5-.8 3-3 4.1-6 4.2s-4.2-1.5-5-4.1c-2.9-8.9-3.4-18-3.2-27.2 1.2-62.3 2.4-124.7 3.9-187 .4-19.3 1.3-38.6 2.4-57.9.4-6.1 2.1-12.2 3.3-18.2.2-1 1.3-2 2.2-2.7 8.7-6.7 18.6-9.2 29.4-9.3 19.6-.3 39.1-.9 58.7-1.2 2.3 0 3-1.1 3.1-2.9.3-4.2.6-8.4.7-12.6 0-8.1.4-15.8 3.5-23.2z" fill="#000001"/><g fill="#fafafb"><path d="m362.1 8.8c1.1.8 2.1 1.6 3.1 2.4l-1 1.1c-1.3-1.1-2.3-2-3-2.5zm1.9 4.8c.5.2.9.4 1.4.5-.6 2.3-1.3 4.5-1.9 6.8l-1.5-.5c.8-2.1 1.4-4.3 2-6.8zm-1-9.4c1.3.9 2.4 1.8 3.4 2.5l-1 1.1c-1.4-1.2-2.4-2.1-3.2-2.6zm3.7 2.2v-1.4h10.3v1.2c-.5 3.6-1.8 6.8-4 9.4 1.5 1.6 3.4 2.8 5.7 3.8-.3.4-.7.8-1.1 1.4-2.3-1.1-4.1-2.5-5.6-4.1-1.6 1.6-3.6 3.1-5.9 4.3-.3-.5-.7-.9-1-1.3 2.4-1.1 4.4-2.5 6-4.1-1.9-2.5-3-5.6-3.3-9.3h-1.1zm8.8 0h-6.4c.3 3.3 1.3 6 3 8.2 2-2.3 3.1-5.1 3.4-8.2z"/><path d="m385.3 3.8h1.3v2.2h2.8v-2.2h1.3v2.2h4.1v9.1h1.7v1.3h-16.9v-1.3h1.7v-9.1h4.1v-2.2zm.4 13.1.7 1.2c-1.8.9-3.8 1.9-6 2.9-.2-.4-.5-.8-.8-1.3 2.3-1 4.3-1.9 6.1-2.8zm-3.1-6.4h2.8v-3.2h-2.8zm0 4.6h2.8v-3.3h-2.8zm4-4.6h2.8v-3.2h-2.8zm0 4.6h2.8v-3.3h-2.8zm3.7 1.9c2.1.9 4.1 1.8 6.1 2.7l-.7 1.3c-2.2-1.1-4.2-2-6.1-2.9zm3.2-9.7h-2.8v3.2h2.8zm-2.8 7.8h2.8v-3.3h-2.8z"/></g></svg>