<svg enable-background="new 0 0 400 400" viewBox="0 0 400 400" xmlns="http://www.w3.org/2000/svg"><path d="m362.1 8.8c1.1.8 2.1 1.6 3.1 2.4l-1 1.1c-1.3-1.1-2.3-2-3-2.5zm1.9 4.8c.5.2.9.4 1.4.5-.6 2.3-1.3 4.5-1.9 6.8l-1.5-.5c.8-2.1 1.4-4.3 2-6.8zm-1-9.4c1.3.9 2.4 1.8 3.4 2.5l-1 1.1c-1.4-1.2-2.4-2.1-3.2-2.6zm3.7 2.2v-1.4h10.3v1.2c-.5 3.6-1.8 6.8-4 9.4 1.5 1.6 3.4 2.8 5.7 3.8-.3.4-.7.8-1.1 1.4-2.3-1.1-4.1-2.5-5.6-4.1-1.6 1.6-3.6 3.1-5.9 4.3-.3-.5-.7-.9-1-1.3 2.4-1.1 4.4-2.5 6-4.1-1.9-2.5-3-5.6-3.3-9.3h-1.1zm8.8 0h-6.4c.3 3.3 1.3 6 3 8.2 2-2.3 3.1-5.1 3.4-8.2z" fill="#fbfcfa"/><path d="m385.3 3.8h1.3v2.2h2.8v-2.2h1.3v2.2h4.1v9.1h1.7v1.3h-16.9v-1.3h1.7v-9.1h4.1v-2.2zm.4 13.1.7 1.2c-1.8.9-3.8 1.9-6 2.9-.2-.4-.5-.8-.8-1.3 2.3-1 4.3-1.9 6.1-2.8zm-3.1-6.4h2.8v-3.2h-2.8zm0 4.6h2.8v-3.3h-2.8zm4-4.6h2.8v-3.2h-2.8zm0 4.6h2.8v-3.3h-2.8zm3.7 1.9c2.1.9 4.1 1.8 6.1 2.7l-.7 1.3c-2.2-1.1-4.2-2-6.1-2.9zm3.2-9.7h-2.8v3.2h2.8zm-2.8 7.8h2.8v-3.3h-2.8z" fill="#fbfcfa"/><g fill="#010101"><path d="m250.1 218.32c-12.48 22.12-24.52 43.43-47.25 55.85-1.49-2.85-1.91-4.99.65-7.44 13.58-13 24.73-27.83 33.25-44.66 2.67-5.28 5.99-10.24 9.17-15.24 1.14-1.79 1.3-3.36.68-5.35-7.66-24.32-15.37-48.63-22.79-73.02-2.03-6.66-3.37-13.56-4.62-20.42-.81-4.43-.31-8.83 3.42-12.59 9.23 14.07 19.72 27.17 22.46 44.27.33 2.07 1.1 4.07 1.76 6.08 2.6 7.94 5.19 15.88 7.86 23.79 1.97 5.84 4.07 8.47 8.43 10.5 1.69-8.14 9.74-13.5 9.41-22.37-.22-5.86-.53-11.96-2.31-17.46-3.16-9.77-4.23-19.85-6.13-29.82-.24-1.24-.33-2.62-.96-3.66-6.22-10.29-6.93-22.1-9.22-33.45-1.28-6.32-.69-12.62.89-19.02 4.94.77 8.12 3.71 9.89 7.82 2.17 5.03 3.93 10.27 5.51 15.53 2.73 9.12 5.2 18.31 7.75 27.49.37 1.31.97 2.75.75 4.01-1.47 8.55 1.47 16.55 2.89 24.73 1 5.74 2.15 11.46 2.83 17.24 1.2 10.06-2.09 19.25-6.24 28.17-1.24 2.66-2.82 5.2-4.49 7.63-4.94 7.2-6.9 15-4.61 23.53 2.02 7.56 4.55 14.98 6.55 22.54 1.3 4.89 1.92 9.96 3.07 14.89 1.75 7.5 3.69 14.96 5.57 22.43.39 1.54 1.25 3.07 1.2 4.58-.43 12.77 3.37 24.93 5.14 37.38.23 1.65.45 3.49-.05 5.01-1.73 5.31-.81 10.3 1.56 15.07 1.87 3.77 1.31 7.12-.96 10.84-.43-1.09-.76-1.9-1.08-2.71-2.95-7.36-6.41-14.56-8.72-22.11-3.61-11.81-6.23-23.92-9.64-35.8-4.64-16.18-8.92-32.43-12.15-48.97-.67-3.44-2.39-6.77-4.14-9.86-1.1-1.93-3.15-3.28-5.33-5.43z"/><path d="m177.05 236.76c-2.9 0-5.33.18-7.72-.09-.95-.11-2.03-1.04-2.64-1.89-5.45-7.64-10.82-15.34-16.69-23.72-1.63-.23-3.13 1.09-4.39 3.59-3.95 7.89-5.41 16.42-7.24 24.92-5.38 24.94-10.9 49.86-16.55 74.74-2.86 12.59-5.97 25.13-9.26 37.62-.9 3.41-2.56 6.74-4.44 9.74-1.19 1.89-3.45 3.11-5.22 4.63-.3-.22-.61-.43-.91-.65.64-4.96 1.28-9.92 1.93-14.88 1.39-10.6 3.06-21.13 3.18-31.91.06-5.12 2.81-10.15 3.75-15.33 1.86-10.3 3.27-20.67 4.98-31 .41-2.49 1.2-4.92 1.93-7.35 6.06-20.07 12.14-40.13 18.25-60.18.36-1.19.87-2.41 1.62-3.38 3.35-4.35 3.99-9.12 1.98-14.09-1.67-4.11-3.84-8-5.7-12.03-1.67-3.62-3.35-7.24-4.83-10.93-8.45-21-7.59-42.74-4.72-64.54.42-3.21 2.68-6.16 3.97-9.27.42-1.01.97-2.44.57-3.22-1.45-2.8-.64-5.29.31-7.92 5.36-14.82 10.67-29.65 16.01-44.53 5.53 2.88 7.64 9 5.39 15.16-2.11 5.77-4.34 11.49-6.54 17.22-3.59 9.33-6.01 18.9-6.92 28.91-1.52 16.65-2.09 33.24 1.62 49.68.86 3.79 2.23 7.52 3.85 11.06 1.05 2.28 2.97 4.15 5.07 6.97 7.56-18.4 14.79-35.79 30.86-47.9 1.6 5.91 1.04 11.37-.85 16.34-4.23 11.16-9.08 22.09-13.73 33.09-2.1 4.97-4.6 9.78-6.42 14.85-.69 1.91-.22 4.37.17 6.5.4 2.16.95 4.47 2.13 6.27 7.62 11.62 10.65 25.05 15.28 37.85.6 1.68 1.15 3.39 1.92 5.67z"/><path d="m105.19 147.82c.93 1.69 1.49 2.69 2.25 4.07-1.18.52-2.24.99-3.88 1.71.6-2.14 1.04-3.7 1.63-5.78z"/></g></svg>