<svg enable-background="new 0 0 400 400" viewBox="0 0 400 400" xmlns="http://www.w3.org/2000/svg"><path d="m378.6 9.2.8-1c.9.7 1.9 1.4 2.9 2.3l-.9 1.1c-1.1-.9-2-1.7-2.8-2.4zm.5 10.7c.9-2.1 1.6-4.3 2.3-6.7.4.2.8.4 1.3.6-.7 2.1-1.5 4.3-2.2 6.6zm.4-15.2.9-.9c1 .8 2 1.6 2.8 2.4l-1 1c-1-.9-1.9-1.8-2.7-2.5zm12.5-1.3h1.2v1.4h2.7v1.1h-2.7v2.7h-1.2v-.5h-1.8v1.3h4.9v3.8h-1.2v-.5h-3.7c0 .4-.1.9-.1 1.2h5.1v1h-5.2c0 .5-.1.9-.2 1.2h6v1h-5.2c1.1 1.3 2.9 2 5.5 2.2-.4.4-.7.8-.9 1.3-2.9-.5-4.8-1.6-5.7-3.5h-.1c-.8 1.7-2.7 2.9-5.9 3.6-.2-.4-.6-.8-.9-1.1 2.8-.6 4.6-1.4 5.4-2.5h-4.8v-1h5.3c.1-.3.2-.7.2-1.2h-4.9v-1h5c0-.4 0-.8.1-1.2h-3.6v.5h-1.2v-3.8h4.9v-1.3h-1.8v.5h-1.2v-2.7h-2.6v-1.1h2.6v-1.4h1.2v1.4h4.7v-1.4zm-6.7 8.4h3.6c0-.4 0-.9 0-1.4h-3.6zm1.9-4.7h4.7v-1.2h-4.7zm6.7 3.3h-3.7v1.4h3.7z" fill="#fafbfc"/><path d="m384.7 21.4h1.3v2.2h2.8v-2.2h1.3v2.2h4.1v9.1h1.7v1.3h-16.9v-1.3h1.7v-9.1h4.1v-2.2zm.3 13.2.7 1.2c-1.8.9-3.8 1.9-6 2.9-.2-.4-.5-.8-.8-1.3 2.4-1 4.4-2 6.1-2.8zm-3.1-6.5h2.8v-3.2h-2.8zm0 4.6h2.8v-3.3h-2.8zm4.1-4.6h2.8v-3.2h-2.8zm0 4.6h2.8v-3.3h-2.8zm3.6 1.9c2.1.9 4.1 1.8 6.1 2.7l-.7 1.3c-2.2-1.1-4.2-2-6.1-2.9zm3.3-9.7h-2.8v3.2h2.8zm-2.8 7.8h2.8v-3.3h-2.8z" fill="#fafbfc"/><g fill="#010104"><path d="m124.94 205.67c3.49-.54 7.11-1.72 10.67-1.53 6.87.37 13.49-.39 20.09-2.16 2-.53 4.16-.45 6.25-.61 4.95-.38 9.95-.37 14.82-1.19 4.48-.76 4.93-1.78 4.9-6.24-.15-18.66-.33-37.32-.51-55.98-.01-.73-.1-1.45-.15-2.12-2.2-1.72-5.99 1.33-7.31-3.14 2.34-1.05 4.87-2.01 7.2-3.32.83-.46 1.86-2.02 1.63-2.68-4.69-13.47-1.31-27.11-.97-40.67.08-3.07.35-6.14.59-9.2.09-1.15-.03-2.61.6-3.38 2.38-2.91 1.7-5.88 1.23-9.21-1.45-10.17.41-19.8 6.35-29.61 1.19 3.4 2.54 6.01 2.97 8.76.96 6.17 1.38 12.41 2.17 18.61.4 3.16-.66 5.02-3.85 5.65-.88.17-1.7.69-2.05.84 2 2.36 3.87 4.86 6.05 7.05 1.53 1.53 3.32 3.19 5.31 3.81 15.11 4.72 28.51 12.93 42.15 20.6 3.2 1.8 5.68 5.02 8.19 7.85 2.06 2.31 4.47 3.64 7.32 4.71 2.14.81 4.17 2.3 5.82 3.93 4.12 4.09 8 8.43 11.97 12.66.44.46 1.19.85 1.28 1.37.4 2.11.6 4.26.87 6.4-2 .23-4.15 1.06-5.95.57-4.09-1.1-7.94-2.93-10.63-6.51-3.27-4.35-7.96-6.3-12.95-8.04-3.72-1.3-7.2-3.39-10.65-5.36-2.2-1.25-4.28-2.78-6.19-4.45-9.04-7.87-20.17-11.36-31.21-15.05-.68-.23-1.41-.32-2.28-.51-3.13 6.45-3.75 13.26-3.98 20.15 3.66 4.18 1.23 8.97 1.39 13.52.32 8.88.99 17.76 1.09 26.64.03 3.06-1.28 6.11-1.82 9.19-.37 2.06-.98 4.27-.59 6.24 1.44 7.33.21 14.32-2.02 21.25-.25.79-.39 1.61-.62 2.54 5.03 3 10.42 3.59 15.98 3.48 5.61-.1 11.23-.28 16.84-.13 4.01.11 7.36 1.98 9.67 5.29 1.65 2.37 1.04 3.91-1.75 4.6-2.56.63-5.21.91-7.8 1.4-1.86.35-3.81.54-5.53 1.26-3.04 1.28-5.2 3.47-4.44 7.13 1.26 6.13-1.79 11.35-3.42 16.86-.19.65-.78 1.33-1.37 1.69-3.96 2.42-3.75 5.64-2.82 9.74.73 3.26-.18 6.88-.31 10.34-.18 4.74-.26 9.49-.46 14.23-.24 5.5-.56 11-.85 16.5-.06 1.14-.16 2.28-.28 4.01 4.23 0 8.2.04 12.17-.01 2.64-.03 5.37-.64 7.9-.15 1.68.33 3.56 1.85 4.44 3.37 1.02 1.74.3 3.68-1.34 5.39-2.37 2.47-4.92 4.13-8.39 4.58-5.54.72-11.03 1.9-16.59 2.51-2.5.27-3.87 1.14-4.39 3.54-.18.82-.46 1.65-.86 2.39-3.9 7.28-4.03 14.86-2.32 22.76.37 1.71-.38 4.01-1.34 5.59-2.22 3.66-2.35 7.32-1.21 11.26.56 1.93 1.05 3.9 1.37 5.88.43 2.67-.73 4.44-3.32 5.4-1.81.67-3.23.47-3.73-1.51-1.03-4.06-2.27-8.13-2.71-12.26-.6-5.55-.45-11.17-.76-16.75-.29-5.29-.66-10.57-1.14-15.85-.45-4.94-1.45-5.65-6.32-5.78-7.91-.23-15.87-.2-23.72-1.05-7-.76-12.9-4.62-18.32-8.98-.97-.78-1.8-2.16-2.01-3.39-.5-2.88.6-3.89 3.47-3.35 2.39.46 5.08.15 6.74 2.82.36.58 2.56.58 3.56.11 5.43-2.6 5.4-2.68 9.28 1.66 1.58 1.77 3.15 2.58 4.82.11 1.43-2.12 3.47-3.01 5.99-2.94.11 0 .21-.02.32-.02 13.06-.46 11.17-3.45 11.75-13.51.04-.66-.2-1.58-.66-1.98-3.95-3.48-4.66-8.26-5-13.01-.41-5.74-2.62-10.72-4.91-15.89-2.13-4.83-3.01-10.27-4.03-15.52-.6-3.09-1.43-5.86-3.52-8.3-1.99-2.33-4.02-4.73-5.48-7.4-2.64-4.86-6.99-6.1-11.92-6.36-2.54-.13-5.09-.08-7.63.01-7.41.21-10.52-2.71-10.83-11.15zm63.08 67.51c.44.17.88.35 1.32.52 1.59-2.39 4.29-4.67 4.55-7.21.68-6.62 2.46-12.87 3.96-19.28 2.13-9.11 2.2-18.69 3.23-28.06.2-1.84-.29-2.8-2.1-3.59-8.55-3.72-17.26-1.69-25.89-.75-3.87.42-5.41 4.1-3.86 7.79.45 1.06 1.35 1.94 1.74 3.01 3.03 8.42 6.52 16.73 8.76 25.36 1.15 4.43-.1 9.53 6 10.55-2.21 4.91 1.81 7.87 2.29 11.66z"/><path d="m115.95 212.95c.92-1.65 1.78-3.33 2.82-4.9.16-.24 1.6-.06 1.63.1.18.83.45 2.01.03 2.54-.93 1.17-2.26 2.01-3.42 2.99-.35-.24-.7-.48-1.06-.73z"/></g></svg>