<svg enable-background="new 0 0 400 400" viewBox="0 0 400 400" xmlns="http://www.w3.org/2000/svg"><path d="m378.6 9.2.8-1c.9.7 1.9 1.4 2.9 2.3l-.9 1.1c-1.1-.9-2-1.7-2.8-2.4zm.5 10.7c.9-2.1 1.6-4.3 2.3-6.7.4.2.8.4 1.3.6-.7 2.1-1.5 4.3-2.2 6.6zm.4-15.2.9-.9c1 .8 2 1.6 2.8 2.4l-1 1c-1-.9-1.9-1.8-2.7-2.5zm12.5-1.3h1.2v1.4h2.7v1.1h-2.7v2.7h-1.2v-.5h-1.8v1.3h4.9v3.8h-1.2v-.5h-3.7c0 .4-.1.9-.1 1.2h5.1v1h-5.2c0 .5-.1.9-.2 1.2h6v1h-5.2c1.1 1.3 2.9 2 5.5 2.2-.4.4-.7.8-.9 1.3-2.9-.5-4.8-1.6-5.7-3.5h-.1c-.8 1.7-2.7 2.9-5.9 3.6-.2-.4-.6-.8-.9-1.1 2.8-.6 4.6-1.4 5.4-2.5h-4.8v-1h5.3c.1-.3.2-.7.2-1.2h-4.9v-1h5c0-.4 0-.8.1-1.2h-3.6v.5h-1.2v-3.8h4.9v-1.3h-1.8v.5h-1.2v-2.7h-2.6v-1.1h2.6v-1.4h1.2v1.4h4.7v-1.4zm-6.7 8.4h3.6c0-.4 0-.9 0-1.4h-3.6zm1.9-4.7h4.7v-1.2h-4.7zm6.7 3.3h-3.7v1.4h3.7z" fill="#fafbfc"/><path d="m384.7 21.4h1.3v2.2h2.8v-2.2h1.3v2.2h4.1v9.1h1.7v1.3h-16.9v-1.3h1.7v-9.1h4.1v-2.2zm.3 13.2.7 1.2c-1.8.9-3.8 1.9-6 2.9-.2-.4-.5-.8-.8-1.3 2.4-1 4.4-2 6.1-2.8zm-3.1-6.5h2.8v-3.2h-2.8zm0 4.6h2.8v-3.3h-2.8zm4.1-4.6h2.8v-3.2h-2.8zm0 4.6h2.8v-3.3h-2.8zm3.6 1.9c2.1.9 4.1 1.8 6.1 2.7l-.7 1.3c-2.2-1.1-4.2-2-6.1-2.9zm3.3-9.7h-2.8v3.2h2.8zm-2.8 7.8h2.8v-3.3h-2.8z" fill="#fafbfc"/><path d="m221.15 366.07c-.51-5.46-1.04-10.91-1.54-16.37-.67-7.39-1.28-14.78-2-22.16-.1-.98-.55-2.03-1.11-2.85-8.29-12.18-8.24-12.44-22.51-16.13-7.1-1.84-12.99-4.94-18.14-10.21-6.21-6.37-12.99-12.18-19.59-18.15-1.37-1.24-2-2.42-1.73-4.36 1.45-10.71 2.56-21.46 4.2-32.14.48-3.14 2.64-5.99 3.46-9.12 1.99-7.59.76-15.1-.99-22.61-2.23-9.57-4.53-19.15-6.11-28.83-.75-4.61-.08-9.5.34-14.23.13-1.52 1.18-3.29 2.36-4.33 9.26-8.21 18.27-16.78 28.16-24.17 5.92-4.43 13.29-6.91 19.99-10.3 9.75-4.93 10.32-14.25 8.11-21.79-1.03-3.51-4.85-6.25-7.61-9.15-.44-.46-2.02-.04-2.99.26-7.17 2.24-14.29 4.65-21.49 6.8-2.71.81-5.57 1.37-8.38 1.49-2.84.12-5.08-1.2-5.79-4.35-.66-2.91.07-4.8 2.76-6.6 5.34-3.59 10.43-7.59 15.4-11.69 3.05-2.52 3.84-5.72 2.06-9.68-2.25-5.01-4.02-10.24-5.9-15.41-1.52-4.17-3.07-8.07-6.9-11.01-4.64-3.57-3.7-8.52-1.66-13.56 7.13.72 12.74 4.19 17.39 9.39 1.83 2.05 3.46 4.29 4.99 6.58 12.5 18.79 24.72 37.77 37.54 56.34 4.4 6.38 6.37 13.03 7.17 20.53 2.05 19.26 1.58 38.53.95 57.81-.37 11.23-.71 22.46-1.08 33.69-.03 1.06.2 2.29-.26 3.14-3.25 5.96-2.88 12.42-2.09 18.68 1.62 12.96-.27 25.81-.44 38.71-.06 4.45-.6 8.9-.51 13.34.11 5.3-1.2 10.02-4.61 14.08-1.37 1.63-1.27 3.05-.2 4.83 2.02 3.35 3.87 6.81 5.62 10.32.44.88.64 2.37.19 3.13-4.51 7.51-6.23 15.88-8.02 24.29-.85 3.99-2.41 7.87-4.09 11.61-.81 1.79-2.63 3.13-4 4.67-.32-.17-.63-.33-.95-.49zm7.33-196.31c-.53-7.7-2.08-13.85-7.43-18.13-3.97-3.17-8.75-5.58-13.78-3.51-10.38 4.28-20.27 9.6-29.44 16.19-2.23 1.6-3.49 3.37-4.04 6.03-2.12 10.23-4.22 19.63 2.03 30.15 9.97 16.79 6.64 34.54-6.36 49.26-.86.97-1.47 2.62-1.38 3.89.78 10.68 4.59 19.83 13.26 26.74 6.79 5.41 13.1 11.44 19.93 16.8 2.65 2.08 6.01 3.57 9.28 4.46 4.6 1.25 8.4-2.22 8.25-6.91-.31-9.85-.48-19.71-1.01-29.55-.44-8.11-.1-16.03 2.89-23.72 1.22-3.14 2.11-6.45 2.78-9.76.42-2.07.42-4.32.15-6.43-.53-4.16-2.21-8.35-1.92-12.42.5-7.04 2.16-14 3.29-21.01 1.25-7.73 2.45-15.47 3.5-22.08z" fill="#010104"/></svg>