<svg enable-background="new 0 0 400 400" viewBox="0 0 400 400" xmlns="http://www.w3.org/2000/svg"><path d="m92.1 347.1c7.3-3.6 14.9-5.4 22.6-5.4 16.9 0 33.8.6 50.7.7 13.4.1 26.7-.3 40.1-.6.4 0 .8-.2 1.4-.4 0-36.2 0-72.3 0-108.5-10.1-2.5-20.4-2.8-30.6-2.4-11.2.4-22.5 1.4-33.7 1.5-7.9.1-15.4-2.4-22.6-5.8-7.9-3.7-10.7-10.8-11.6-18.4-1.1-9.9-1.6-19.8-1.6-29.7-.2-40.9-.1-81.8 0-122.8 0-1.7.8-3.5 1.6-5.1 1.3-2.9 3.4-2.5 5.6-1 5 3.4 6.8 8.5 6.7 14.1-.1 7.3-1.1 14.5-1.3 21.8-.1 4.9.3 9.9 1 14.8.4 3.2 2.3 4.9 6.1 4.8 33.4-.4 66.8-.6 100.2-.9 10.9-.1 21.9-.1 32.8.2 7.2.2 11.6 3.8 13.2 10 .6 2.4.2 4-2.1 5.5-7.7 4.8-15.9 5.1-24.6 4.2-6.6-.7-13.2-1.1-19.8-1.1-4.7 0-4.8.5-4.8 5.1-.2 22.2-.4 44.5-.5 66.7-.4 47.7-.8 95.3-1.1 143v4.8c7.3 0 14.3-.1 21.3 0 25.8.2 51.5.5 77.3.8 2.8 0 5.5.3 8.3.7 5.9.8 8.7 4.9 7.2 10.7-.3 1-1.5 2.1-2.6 2.5-6.8 3.2-14.2 4.1-21.6 4.1-38.1-.3-76.3-1-114.4-1-25.5 0-51.1.8-76.6 1.2-7.7.1-15.2-1.2-22.4-3.7-2.1-.7-3.4-1.6-3.3-4.1-.2-2.1-.6-4.2-.9-6.3zm113-223.4c-28-.3-55.6-.7-83.1-1-.2.9-.4 1.3-.4 1.8-.5 19.7-1.3 39.3-1.3 59 0 8.4 2.1 16.6 5.9 24.3 1.5 3 3.3 4.9 6.9 5.2 11.4 1.1 22.8 2.6 34.2 3.5 11.9.9 23.8.7 35.6-1.6 3-.6 4.4-1.6 4.3-5.1-.6-16.7-.9-33.4-1.3-50-.3-11.9-.5-23.7-.8-36.1z" fill="#000001"/><g fill="#fafafb"><path d="m362.1 8.8c1.1.8 2.1 1.6 3.1 2.4l-1 1.1c-1.3-1.1-2.3-2-3-2.5zm1.9 4.8c.5.2.9.4 1.4.5-.6 2.3-1.3 4.5-1.9 6.8l-1.5-.5c.8-2.1 1.4-4.3 2-6.8zm-1-9.4c1.3.9 2.4 1.8 3.4 2.5l-1 1.1c-1.4-1.2-2.4-2.1-3.2-2.6zm3.7 2.2v-1.4h10.3v1.2c-.5 3.6-1.8 6.8-4 9.4 1.5 1.6 3.4 2.8 5.7 3.8-.3.4-.7.8-1.1 1.4-2.3-1.1-4.1-2.5-5.6-4.1-1.6 1.6-3.6 3.1-5.9 4.3-.3-.5-.7-.9-1-1.3 2.4-1.1 4.4-2.5 6-4.1-1.9-2.5-3-5.6-3.3-9.3h-1.1zm8.8 0h-6.4c.3 3.3 1.3 6 3 8.2 2-2.3 3.1-5.1 3.4-8.2z"/><path d="m385.3 3.8h1.3v2.2h2.8v-2.2h1.3v2.2h4.1v9.1h1.7v1.3h-16.9v-1.3h1.7v-9.1h4.1v-2.2zm.4 13.1.7 1.2c-1.8.9-3.8 1.9-6 2.9-.2-.4-.5-.8-.8-1.3 2.3-1 4.3-1.9 6.1-2.8zm-3.1-6.4h2.8v-3.2h-2.8zm0 4.6h2.8v-3.3h-2.8zm4-4.6h2.8v-3.2h-2.8zm0 4.6h2.8v-3.3h-2.8zm3.7 1.9c2.1.9 4.1 1.8 6.1 2.7l-.7 1.3c-2.2-1.1-4.2-2-6.1-2.9zm3.2-9.7h-2.8v3.2h2.8zm-2.8 7.8h2.8v-3.3h-2.8z"/></g></svg>