<svg enable-background="new 0 0 400 400" viewBox="0 0 400 400" xmlns="http://www.w3.org/2000/svg"><g fill="#010000"><path d="m133.97 349.21c-.49 2.25-.71 3.26-.98 4.51 1.75.68 3.4 1.32 5.33 2.07-4.64 5.88-10.95 4.58-17.49 4.03.84-.99 1.72-1.94 2.5-2.97.65-.86 1.5-1.76 1.69-2.75.44-2.29 1.5-3.44 3.9-3.87 1.11-.2 2.04-1.59 3-2.5 3.31-3.17 6.54-6.43 9.92-9.53 2.14-1.96 4.65-3.53 6.72-5.56 6.13-6 12.06-12.2 18.2-18.18 1.33-1.29 3.15-2.13 4.84-2.99 2.7-1.37 4.94-3.08 6.37-5.9.56-1.11 1.84-2.06 3.01-2.6 3.65-1.7 6.68-4.07 8.78-7.51 1.68-2.77 3.97-4.22 7.26-4.04 1.91.1 3.13-.65 3.57-2.69.72-3.36 2.79-5.85 5.52-7.85.94-.69 1.79-1.5 2.66-2.27 3.76-3.34 7.13-7.52 13.87-5.43-2.81-5.73 1.11-7.51 4.07-10.01 2.83-2.38 5.55-4.96 7.94-7.78 3.14-3.7 8.26-5.04 10.74-9.6.64-1.18 3.16-1.58 4.9-1.89 4.23-.77 6.33-3.04 6.71-7.4.14-1.6 1.23-3.46 2.47-4.54 2.41-2.09 5.13-2.14 7.73.66-1.73-4.03.6-6.15 3.14-8.22 1.23-1 2.35-2.14 3.51-3.23 2.73-2.53 4.33-2.37 5.9 1.09 3.49 7.71 4.39 16.02-1.69 22.31-7.25 7.49-11.32 17.06-18.19 24.66-4.86 5.37-9.88 10.51-17.5 11.76-1.76.29-2.57 1.12-2.37 2.99.09.89.1 2.35-.41 2.67-5.45 3.47-7.68 10.06-13.29 13.39-5.53 3.28-10.73 7.12-16.29 10.34-2.32 1.35-5.15 1.89-7.82 2.52-2.19.52-3.41 1.7-3.41 3.87-.01 4.63-2.39 6.98-6.71 8.34-2.36.74-4.3 2.76-6.46 4.16-.78.51-1.6 1.1-2.48 1.28-2.38.5-4.06 1.61-4.43 4.65-4.36-2.1-6.82.89-9.38 3.37-3.71 3.6-7.91 6.26-12.79 8.01-3.48 1.25-6.85 2.81-10.23 4.34-4.19 1.87-8.34 4.57-12.33-1.71zm66.94-45.66c.17-.33.34-.65.51-.98-.97-.77-2.13-2.33-2.87-2.15-1.5.36-2.77 1.67-4.21 2.64 2.59 3.25 4.55.71 6.57.49zm60.56-63.69c-.68.08-1.35.17-2.03.25-.12 1.66-.24 3.32-.36 4.98 1.38-.26 2.77-.53 4.15-.79-.58-1.48-1.17-2.96-1.76-4.44zm-73.59 73.61c-1.22-1.14-2.17-2.47-2.57-2.32-.94.35-1.76 1.32-2.28 2.23-.14.24 1.04 1.75 1.55 1.72.94-.07 1.83-.85 3.3-1.63z"/><path d="m205.98 84.66c.81.52 1.54 1.27 2.41 1.51 1.63.44 3.57.46 3.19-1.97-.93-5.91 2.49-8.63 7.09-11.03 3.21-1.67 6.09-3.75 10.02-3.25.66.09 2.1-1.19 2.17-1.94.54-5.42 3.37-9 7.61-12.38 7.69-6.12 14.73-13.04 22.14-19.51.94-.82 2.44-1.33 3.71-1.4 3.35-.17 4.32 1.68 2.84 4.61-.48.94-.76 2.49-.31 3.3 2.92 5.21 2.95 5.47-1.33 9.68-.45.44-.92.86-1.44 1.35-.3-.12-.55-.28-.83-.33-1.52-.28-3.97-1.23-4.39-.67-1.1 1.47-2.38 4.36-1.69 5.34 2.75 3.92.35 7.09-1.97 8.56-9.17 5.83-13.66 15.46-20.17 23.42-5.53 6.75-11.69 12.52-20.06 15.5-2.21.79-3.5 2.31-4.65 4.39-1.28 2.32-3.01 4.64-5.1 6.22-7.44 5.6-15.08 10.95-22.74 16.24-1.19.82-2.94 1.31-4.37 1.19-2.21-.19-3.18.51-3.36 2.62-.16 1.87-1.27 2.79-3.06 2.99-4.3.48-6.97 3.11-9.76 6.24-3.27 3.66-7.21 6.9-11.35 9.56-8.26 5.32-16.83 10.18-25.34 15.09-1.78 1.03-3.91 1.45-6.17 2.26.08-1.65.26-2.92.17-4.17-.18-2.6.93-4.19 3.4-4.95.8-.25 1.59-.64 2.25-1.15 1.66-1.26 3.51-2.55.81-4.87 1.5-.8 2.83-1.28 3.85-2.12 1.47-1.21 2.72-2.7 4.08-4.05 2.37-2.34 4.71-4.72 7.16-6.97 1.89-1.74 4.2-2.88 4.93-5.88.31-1.27 2.67-2.12 4.2-2.98 1.8-1 3.59-1.88 3.69-4.31.02-.39.27-.83.54-1.13 3.63-4.1 7.28-8.18 10.93-12.26.14-.16.3-.3.47-.42 4.17-3.05 7.1-1.93 7.84 3.11.23 1.55-.32 3.28.15 4.71.46 1.38 1.77 2.48 2.71 3.71.87-.95 1.87-1.82 2.58-2.88.9-1.34 1.56-2.83 2.53-4.66-.14-.22-.73-.95-1.15-1.76-1.81-3.52-3-6.97.32-10.45 2.68-2.81 4.84-6.15 7.68-8.76 5.7-5.24 11.69-10.13 17.77-15.35zm9.32-5.72c-.44 2.32-1.52 4.67 1.15 5.96.58.28 2.57-.83 2.77-1.6.76-2.84-1.14-3.91-3.92-4.36zm33.58-23.15c1.46-1.6 2.29-2.52 3.13-3.44-1.06-.78-2.05-1.76-3.24-2.2-.3-.11-1.62 1.49-1.77 2.41-.12.72.87 1.6 1.88 3.23zm-37.4 38.3c.33.17.66.33.99.5.72-.39 1.58-.65 2.14-1.2.83-.81 1.45-1.83 2.16-2.77-1.22.15-2.65-.04-3.59.55-.84.53-1.15 1.92-1.7 2.92zm-12.01 15.97c-.44.38-.89.76-1.33 1.15v3.89c1.11-.37 2.05-.68 2.98-.99.31-.43.63-.85.94-1.28-.86-.92-1.73-1.85-2.59-2.77z"/><path d="m122.71 261.16c-.24-.28-.33-.35-.37-.44-1.78-4.32-.82-7.7 2.91-10.73 3.18-2.59 5.77-5.91 8.77-8.75 1.2-1.14 2.67-2.19 4.21-2.72 4.11-1.42 6.55-4.17 8.16-8.14.7-1.71 2.22-3.31 3.77-4.39 3.46-2.44 7.14-4.54 9.35-8.38.34-.59 1.04-1.07 1.68-1.37 8.67-4.12 15.61-10.57 22.61-16.9 3.19-2.88 6.55-2.97 9.56.32.93 1.02 1.74 2.15 2.74 3.09 2.26 2.1 4.47 1.86 5.53-.93.73-1.93 1.09-4.35.63-6.32-.77-3.25-2.34-6.32-3.71-9.82 3.21-2.19 5.56-6.04 10.44-6.06.82 0 1.95-1.23 2.4-2.15 2.12-4.35 5.29-7.29 9.68-9.52 2.79-1.42 4.8-4.37 7.1-6.7 2.08-2.1 4.08-4.27 6.17-6.47 1.23.74 2.29 1.37 4.1 2.46 1.39-3.28 2.71-6.38 4.01-9.45 2.64.83 5.29 1.47 7.76 2.55.82.36 1.48 1.82 1.6 2.84.11.94-.6 1.98-.97 2.97-1.51 4.02-3.23 7.97-4.5 12.07-1.38 4.43-3.22 8.42-6.69 11.67-1.46 1.37-2.69 3.3-3.28 5.21-.79 2.53-1.98 4.11-4.68 4.28-4.15.26-6.25 2.42-6.23 6.59.01 2.6-1.47 4.14-3.43 5.67-12.21 9.49-24.24 19.21-36.54 28.59-3.25 2.48-7.2 4.05-11.05 6.16 0-3.24.86-6.11-.2-7.69-1.54-2.29-4.35-3.83-6.84-5.33-1.37-.82-3.01-.7-3.93 1.29-.75 1.62-1.92 2.81-.01 4.67 1.42 1.38 2.61 3.49 2.91 5.42.53 3.48-1.6 5.45-5.16 5.67-.72.04-1.55.08-2.13.45-6.55 4.12-14.12 6.62-19.62 12.41-1.98 2.08-4.3 3.13-7.35 2.95-1.16-.07-3.09 1.02-3.48 2.04-1.14 3-3.26 3.19-5.92 2.89zm101.2-86.12c-4.49-3.23-5.02-3.23-9.76.05 2.03 1.46 3.76 3.42 5.82 3.85.98.21 2.58-2.48 3.94-3.9zm-8.05 10.73c-1.35-1.75-2.61-3.37-4.34-5.6-.3 3.82-2.36 6.96 1.08 9.85 1.16-1.51 2.17-2.83 3.26-4.25zm-25.94 22.51c.11-.27.22-.54.32-.82-1.86-.97-3.64-2.21-5.61-2.75-.69-.19-1.85 1.35-2.8 2.11.85.71 1.66 1.93 2.56 2.01 1.82.15 3.69-.33 5.53-.55z"/><path d="m256.43 134.87c2.31 1.92 2.57 5.64.4 9.26-1.55 2.58-3.92 2.13-6.17 1.26-.72-.27-1.62-1.14-1.68-1.8-.1-1 .15-2.39.81-3.04 1.98-1.98 4.25-3.67 6.64-5.68z"/><path d="m192.56 189.72c2.36 2.03 5.32 2.23 5.27 5.61-1.13.33-2.21.65-3.65 1.07-.48-1.97-.93-3.85-1.62-6.68z"/></g><path d="m361.2 9.6.8-1c.9.7 1.9 1.4 2.9 2.3l-.9 1.1c-1-1-2-1.8-2.8-2.4zm.5 10.6c.9-2.1 1.6-4.3 2.3-6.7.4.2.8.4 1.3.6-.7 2.1-1.5 4.3-2.2 6.6zm.4-15.2.9-.9c1 .8 2 1.6 2.8 2.4l-1 1c-.9-.9-1.8-1.7-2.7-2.5zm12.5-1.2h1.2v1.4h2.7v1.1h-2.7v2.7h-1.2v-.6h-1.8v1.3h4.9v3.8h-1.2v-.5h-3.7c0 .4-.1.9-.1 1.2h5.1v1h-5.2c0 .5-.1.9-.2 1.2h6v1h-5.2c1.1 1.3 2.9 2 5.5 2.2-.4.4-.7.8-.9 1.3-2.9-.5-4.8-1.6-5.7-3.5h-.1c-.8 1.7-2.7 2.9-5.9 3.6-.2-.4-.6-.8-.9-1.1 2.8-.6 4.6-1.4 5.4-2.5h-4.8v-1h5.3c.1-.3.2-.7.2-1.2h-4.9v-1h5c0-.4 0-.8.1-1.2h-3.5v.5h-1.2v-3.8h4.9v-1.3h-1.8v.5h-1.2v-2.7h-2.7v-1h2.6v-1.4h1.2v1.4h4.7v-1.4zm-6.6 8.3h3.6c0-.4 0-.9 0-1.4h-3.6zm1.9-4.6h4.7v-1.3h-4.7zm6.6 3.2h-3.7v1.4h3.7z" fill="#fafafb"/><path d="m385.3 3.8h1.3v2.2h2.8v-2.2h1.3v2.2h4.1v9.1h1.7v1.3h-16.9v-1.3h1.7v-9.1h4.1v-2.2zm.4 13.1.7 1.2c-1.8.9-3.8 1.9-6 2.9-.2-.4-.5-.8-.8-1.3 2.3-1 4.3-1.9 6.1-2.8zm-3.1-6.4h2.8v-3.2h-2.8zm0 4.6h2.8v-3.3h-2.8zm4-4.6h2.8v-3.2h-2.8zm0 4.6h2.8v-3.3h-2.8zm3.7 1.9c2.1.9 4.1 1.8 6.1 2.7l-.7 1.3c-2.2-1.1-4.2-2-6.1-2.9zm3.2-9.7h-2.8v3.2h2.8zm-2.8 7.8h2.8v-3.3h-2.8z" fill="#fafafb"/></svg>