<svg enable-background="new 0 0 400 400" viewBox="0 0 400 400" xmlns="http://www.w3.org/2000/svg"><path d="m252.4 158c8 8.2 13.2 17.6 15.9 28.3 3 11.7 2.2 22.9-3.1 34.1-4.2 9-11.4 15.3-17.2 22.9-7.8 10.2-15.3 20.7-19.2 33.1-6.2 19.6-3.7 38.4 5.9 56.4 5.9 11 12 21.9 17.7 33 .9 1.7 1.2 5 .2 6-1.6 1.5-4.4 1.8-6.8 2.2-.7.1-1.9-.7-2.4-1.4-10-14.7-20.6-29.2-26.6-46-9.5-26.8-7.2-53 8-77.3 5.5-8.8 12.9-16.3 19.3-24.5 3.2-4.1 6.3-8.2 9.3-12.5 3.2-4.5 3.8-9.7 2.4-14.9-1.8-6.6-3.2-13.5-6.3-19.5-2.9-5.6-7.7-10.1-11.8-15-.4-.5-1.7-.6-2.4-.5-5 1.2-10.2 2-15 3.9-9.6 4-18.9 8.5-28.3 13-1.3.6-2.5 1.8-3.5 2.9-11.9 12.7-20.6 27.6-28.4 43-3.9 7.8-7.2 15.9-10.6 23.9-1.7 4-4 7-8.4 8.1-2.2.5-3.9 0-4.4-2.2-.4-2.3-.9-5-.2-7.1 2.8-7.6 6-15.2 9.3-22.6 4.1-9.4 8.2-18.8 12.8-28 6.7-13.4 16.4-24 29.2-32.2 16.5-10.5 35.1-14.8 53.2-20.4 2.5-.8 5.1-1.5 7.6-2.3 7.3-2.2 12-7.6 12.1-15.3.1-4.2-1.5-8.4-2.2-12.6-.7-4.3-2.3-8.9-1.5-12.9 1.6-7.8 3.6-8.4 10.2-3.9 4.2 2.8 5.8 7.5 6.5 12.3 1.3 9.8 1.7 19.6-.9 29.3-.5 1.9-1.8 3.8-3.2 5-5.5 4.6-11.2 8.9-17.2 13.7z" fill="#000001"/><path d="m257.6 28.1c6 1 10.3 4.3 12.2 9.4 4.9 12.9 5.3 26.1.1 39.1-.6 1.5-1.9 3-3.3 4-10.3 8.3-22.1 12.7-35.3 13.4-14.4.7-28 4.2-40 12.5-5.2 3.6-10 8.1-14.4 12.7-12.7 13.7-25 27.7-37.5 41.6-3.4 3.8-6.6 7.8-12.3 8.3-4.8.5-6.2-1.1-5.1-6 .8-3.4 2.8-6.8 5.1-9.5 12.2-13.9 24.6-27.6 37-41.2 9.2-10.1 19.9-18.9 32.2-24.6 7.7-3.6 16.7-4.5 25.2-6.4 8.3-1.8 16.7-2.8 25-4.9 4.3-1.1 8.4-3.4 11-7.5 3.6-5.8 3.4-11.8.9-17.8-2.5-5.9-3.8-12-2.4-18.4.5-1.4 1.1-3 1.6-4.7z" fill="#000001"/><g fill="#fafafb"><path d="m362.1 8.8c1.1.8 2.1 1.6 3.1 2.4l-1 1.1c-1.3-1.1-2.3-2-3-2.5zm1.9 4.8c.5.2.9.4 1.4.5-.6 2.3-1.3 4.5-1.9 6.8l-1.5-.5c.8-2.1 1.4-4.3 2-6.8zm-1-9.4c1.3.9 2.4 1.8 3.4 2.5l-1 1.1c-1.4-1.2-2.4-2.1-3.2-2.6zm3.7 2.2v-1.4h10.3v1.2c-.5 3.6-1.8 6.8-4 9.4 1.5 1.6 3.4 2.8 5.7 3.8-.3.4-.7.8-1.1 1.4-2.3-1.1-4.1-2.5-5.6-4.1-1.6 1.6-3.6 3.1-5.9 4.3-.3-.5-.7-.9-1-1.3 2.4-1.1 4.4-2.5 6-4.1-1.9-2.5-3-5.6-3.3-9.3h-1.1zm8.8 0h-6.4c.3 3.3 1.3 6 3 8.2 2-2.3 3.1-5.1 3.4-8.2z"/><path d="m385.3 3.8h1.3v2.2h2.8v-2.2h1.3v2.2h4.1v9.1h1.7v1.3h-16.9v-1.3h1.7v-9.1h4.1v-2.2zm.4 13.1.7 1.2c-1.8.9-3.8 1.9-6 2.9-.2-.4-.5-.8-.8-1.3 2.3-1 4.3-1.9 6.1-2.8zm-3.1-6.4h2.8v-3.2h-2.8zm0 4.6h2.8v-3.3h-2.8zm4-4.6h2.8v-3.2h-2.8zm0 4.6h2.8v-3.3h-2.8zm3.7 1.9c2.1.9 4.1 1.8 6.1 2.7l-.7 1.3c-2.2-1.1-4.2-2-6.1-2.9zm3.2-9.7h-2.8v3.2h2.8zm-2.8 7.8h2.8v-3.3h-2.8z"/></g></svg>