<svg enable-background="new 0 0 400 400" viewBox="0 0 400 400" xmlns="http://www.w3.org/2000/svg"><path d="m216.27 366.33c-1.13-5.4-2.2-10.13-3.07-14.9-.37-2.04-1.24-3.34-3.1-4.39-7.48-4.21-14.71-8.87-22.3-12.84-7.29-3.81-13.12-9.14-18.6-15.12-20.36-22.23-37.79-46.51-52.05-73.1-4.04-7.54-8.79-14.77-13.86-21.67-8.48-11.54-12.13-24.4-13-38.52-1.55-25.3 1.47-50.17 6.16-74.9 3.25-17.16 7.01-34.23 10.44-51.36.5-2.5 1.51-4.04 3.96-5.08 3.98-1.7 7.72-3.66 9.5-8.27 1.2-3.12 7.73-4.02 10.31-1.84 4.94 4.17 9.87 8.36 14.75 12.6.77.67 1.5 1.54 1.88 2.46 4.13 10.07 8.13 20.2 12.28 30.27 4.24 10.3 5.18 20.89 3.1 31.78-.27 1.41-.23 3.03-2.44 3.02-1.94-.01-3.81 1.36-5.42-1.39-4.87-8.32-10-16.49-15.22-24.59-3.33-5.17-7.23-9.88-12.86-13.45-1.67 8.48-3.2 16.59-4.87 24.66-3.76 18.15-7.72 36.25-11.34 54.43-1.75 8.77-2.44 17.68-.37 26.51.61 2.61 1.86 5.12 3.1 7.53 3.92 7.62 8.04 15.13 11.97 22.74 3.55 6.88 8.19 12.3 16.71 13.52 1.69-4.27 3.39-8.47 5.02-12.69 5.27-13.62 10.51-27.25 15.79-40.86.34-.88.82-1.73 1.36-2.5 2.64-3.7 5.29-3.72 8.02-.09 5.69 7.56 7.4 16.1 5.8 25.27-1.86 10.65-5.28 20.85-11.8 29.53-2.77 3.69-6.83 6.7-10.85 9.12-5.91 3.56-6.77 8.8-2.99 15.36 4.54 7.89 9.84 15.34 14.88 22.93.68 1.03 1.69 1.89 2.66 2.68 10.98 9.02 21.87 18.15 33.04 26.93 4.32 3.39 7.29 7.53 9.73 12.29 1.73 3.37 3.46 6.84 5.82 9.76 1.61 1.99 4.31 3.11 6.83 4.83 2.23-5.25 4.13-9.82 6.11-14.36 5.92-13.59 12.19-27.03 17.72-40.77 4.38-10.87 5.54-22.41 4.06-34.07-.3-2.36-1.4-4.85-2.8-6.8-8.36-11.71-13.49-24.91-18.11-38.35-3.24-9.42-6.01-18.96-6.66-29.38 2.58-.34 5.05-.84 7.52-.89.75-.02 1.57 1.16 2.28 1.88 7.81 7.9 15.52 15.91 23.47 23.67 2.06 2.01 4.85 3.27 7.48 4.99 5.5-8.27 9.59-16.68 12.57-25.67 5.81-17.54 5.75-35.46 3.33-53.47-.94-7.01-2.55-13.95-4.17-20.85-.53-2.26-1.79-4.48-3.18-6.38-3.56-4.88-7.42-9.54-11.1-14.33-3.44-4.49-7.92-7.14-13.45-8.36-2-.44-3.11.01-4.26 1.56-6.17 8.35-12.5 16.6-18.63 24.98-5.26 7.19-11.45 13.07-20.35 15.37-1.83.47-3.73.73-6.03 1.16 0-6.38-.04-12.49.06-18.6.01-.72.74-1.48 1.24-2.15 1.72-2.29 3.37-4.64 5.25-6.79 13.64-15.62 23.68-33.51 32.87-51.93 1.25-2.5 2.73-2.92 5.21-2.63 10.83 1.27 19.48 6.34 25.91 15.01 3.2 4.32 5.74 9.13 8.8 13.57 2.87 4.17 6.16 8.06 8.99 12.26 1.67 2.48 3.15 5.19 4.14 8 2.77 7.87 5.03 15.92 7.86 23.77 7.57 21.05 8.31 42.35 1.96 63.7-5.94 19.98-12.67 39.72-18.73 59.67-1.74 5.73-2.78 11.75-3.37 17.72-.95 9.45-4.55 18.02-7.81 26.72-5.43 14.47-10.89 28.93-16.41 43.36-.67 1.75-1.69 3.41-2.79 4.93-6.36 8.74-12.56 17.62-19.29 26.07-3.99 5.01-8.79 9.39-13.41 13.88-1.26 1.25-3.14 1.76-5.25 2.85z" fill="#010000"/><g fill="#fafafb"><path d="m361.2 9.6.8-1c.9.7 1.9 1.4 2.9 2.3l-.9 1.1c-1-1-2-1.8-2.8-2.4zm.5 10.6c.9-2.1 1.6-4.3 2.3-6.7.4.2.8.4 1.3.6-.7 2.1-1.5 4.3-2.2 6.6zm.4-15.2.9-.9c1 .8 2 1.6 2.8 2.4l-1 1c-.9-.9-1.8-1.7-2.7-2.5zm12.5-1.2h1.2v1.4h2.7v1.1h-2.7v2.7h-1.2v-.6h-1.8v1.3h4.9v3.8h-1.2v-.5h-3.7c0 .4-.1.9-.1 1.2h5.1v1h-5.2c0 .5-.1.9-.2 1.2h6v1h-5.2c1.1 1.3 2.9 2 5.5 2.2-.4.4-.7.8-.9 1.3-2.9-.5-4.8-1.6-5.7-3.5h-.1c-.8 1.7-2.7 2.9-5.9 3.6-.2-.4-.6-.8-.9-1.1 2.8-.6 4.6-1.4 5.4-2.5h-4.8v-1h5.3c.1-.3.2-.7.2-1.2h-4.9v-1h5c0-.4 0-.8.1-1.2h-3.5v.5h-1.2v-3.8h4.9v-1.3h-1.8v.5h-1.2v-2.7h-2.7v-1h2.6v-1.4h1.2v1.4h4.7v-1.4zm-6.6 8.3h3.6c0-.4 0-.9 0-1.4h-3.6zm1.9-4.6h4.7v-1.3h-4.7zm6.6 3.2h-3.7v1.4h3.7z"/><path d="m385.3 3.8h1.3v2.2h2.8v-2.2h1.3v2.2h4.1v9.1h1.7v1.3h-16.9v-1.3h1.7v-9.1h4.1v-2.2zm.4 13.1.7 1.2c-1.8.9-3.8 1.9-6 2.9-.2-.4-.5-.8-.8-1.3 2.3-1 4.3-1.9 6.1-2.8zm-3.1-6.4h2.8v-3.2h-2.8zm0 4.6h2.8v-3.3h-2.8zm4-4.6h2.8v-3.2h-2.8zm0 4.6h2.8v-3.3h-2.8zm3.7 1.9c2.1.9 4.1 1.8 6.1 2.7l-.7 1.3c-2.2-1.1-4.2-2-6.1-2.9zm3.2-9.7h-2.8v3.2h2.8zm-2.8 7.8h2.8v-3.3h-2.8z"/></g></svg>