<svg enable-background="new 0 0 400 400" viewBox="0 0 400 400" xmlns="http://www.w3.org/2000/svg"><path d="m378.6 9.2.8-1c.9.7 1.9 1.4 2.9 2.3l-.9 1.1c-1.1-.9-2-1.7-2.8-2.4zm.5 10.7c.9-2.1 1.6-4.3 2.3-6.7.4.2.8.4 1.3.6-.7 2.1-1.5 4.3-2.2 6.6zm.4-15.2.9-.9c1 .8 2 1.6 2.8 2.4l-1 1c-1-.9-1.9-1.8-2.7-2.5zm12.5-1.3h1.2v1.4h2.7v1.1h-2.7v2.7h-1.2v-.5h-1.8v1.3h4.9v3.8h-1.2v-.5h-3.7c0 .4-.1.9-.1 1.2h5.1v1h-5.2c0 .5-.1.9-.2 1.2h6v1h-5.2c1.1 1.3 2.9 2 5.5 2.2-.4.4-.7.8-.9 1.3-2.9-.5-4.8-1.6-5.7-3.5h-.1c-.8 1.7-2.7 2.9-5.9 3.6-.2-.4-.6-.8-.9-1.1 2.8-.6 4.6-1.4 5.4-2.5h-4.8v-1h5.3c.1-.3.2-.7.2-1.2h-4.9v-1h5c0-.4 0-.8.1-1.2h-3.6v.5h-1.2v-3.8h4.9v-1.3h-1.8v.5h-1.2v-2.7h-2.6v-1.1h2.6v-1.4h1.2v1.4h4.7v-1.4zm-6.7 8.4h3.6c0-.4 0-.9 0-1.4h-3.6zm1.9-4.7h4.7v-1.2h-4.7zm6.7 3.3h-3.7v1.4h3.7z" fill="#fafbfc"/><path d="m384.7 21.4h1.3v2.2h2.8v-2.2h1.3v2.2h4.1v9.1h1.7v1.3h-16.9v-1.3h1.7v-9.1h4.1v-2.2zm.3 13.2.7 1.2c-1.8.9-3.8 1.9-6 2.9-.2-.4-.5-.8-.8-1.3 2.4-1 4.4-2 6.1-2.8zm-3.1-6.5h2.8v-3.2h-2.8zm0 4.6h2.8v-3.3h-2.8zm4.1-4.6h2.8v-3.2h-2.8zm0 4.6h2.8v-3.3h-2.8zm3.6 1.9c2.1.9 4.1 1.8 6.1 2.7l-.7 1.3c-2.2-1.1-4.2-2-6.1-2.9zm3.3-9.7h-2.8v3.2h2.8zm-2.8 7.8h2.8v-3.3h-2.8z" fill="#fafbfc"/><path d="m260.38 124.45c-5.83-8.36-7.78-17.58-9.11-27.12-.81-5.82-2.16-11.63-3.89-17.25-.74-2.41-3.06-4.33-4.88-6.75-3.39 3.1-6.34 5.53-8.96 8.27-3.32 3.47-3.14 5.93.06 9.44 3.83 4.2 6.37 9.01 6.15 14.85-.04.97-1.03 2.61-1.76 2.72-1.98.31-4.48 2.17-6.04-.44-2.22-3.74-5.2-4.4-9.36-4.17-4.75.27-8 1.57-9.34 6.41-.36 1.3-1.07 2.55-1.83 3.69-4.41 6.56-5.63 13.52-3.87 21.34.59 2.63-.87 5.74-1.49 8.61-.59 2.67-1.31 5.31-2.05 8.26 8.07 1.77 15.9 3.5 23.74 5.22 1.65.36 3.35.6 4.95 1.13 4.03 1.35 7.58.41 11.55-.96 3.6-1.24 7.88-.73 11.84-.62 2.51.07 4.7.02 6.88-1.56 2.45-1.78 5.24-1.57 8.19-.76 6.86 1.86 10.23 6.51 11.45 13.49-7.65 0-15.26-.23-22.85.07-6.11.24-12.18 1.22-18.28 1.71-3.24.26-4.4 2.04-4.35 5.78-1.75-.53-3.25-.94-4.72-1.43-3.38-1.13-6.77-3.34-10.1-3.24-9.49.28-18.96 1.45-28.41 2.44-.89.09-2.09 1.2-2.42 2.1-1.28 3.56-2.92 7.17-3.24 10.86-.68 7.72-2.29 15.6 1.28 23.16.4.85.38 2.18.01 3.06-2.76 6.58-1.75 13.31-.99 20.05.58 5.16 1.36 10.32 1.57 15.49.13 3.29-.64 6.62-.97 9.93-.13 1.32-.4 2.68-.23 3.96.62 4.58 1.61 9.12 2.06 13.72.56 5.69.94 11.42.97 17.14.02 4.4-.22 8.88-1.09 13.18-.67 3.32-.43 6.29.87 9.23 1.39 3.14 1.39 6.15.68 9.52-.54 2.54.18 5.37.44 8.05.12 1.26.48 2.49.74 3.74 1.57 7.3 2.15 7.93 9.74 9.12 3.87.61 7.86.53 11.66 1.38 3.3.74 6.61 1.99 9.51 3.71 1.9 1.13 1.83 2.77-.56 4.58-6.59 5-14.28 4.9-21.8 5.35-3.95.24-7.06 1.46-10.08 3.85-1.1.87-3 1.02-4.54 1.02-7.38 0-14.79-.62-22.13-.12-6.36.43-11.47-2.52-16.91-4.67-2.73-1.08-2.57-5.18-.05-6.72 5.39-3.3 11.45-4.28 17.55-5.12.21-.03.42-.04.63-.07 9.58-1.23 12.53-4.31 11.75-13.96-.76-9.48-2.19-18.93-3.64-28.34-1.14-7.43-3.3-14.74-3.96-22.19-.55-6.26.28-12.66.73-18.98.77-10.89 2.18-21.76 2.46-32.65.19-7.59-1.02-15.21-1.65-22.82-.96-11.51-2.04-23.02-2.91-34.54-.14-1.9-.82-2.83-2.51-3.48-3.72-1.44-7.44-1.44-11.21-.31-6.81 2.04-13.44 2.19-20.07-1-6.51-3.13-13.38-5.29-20.7-5.57-2.62-.1-3.24-1.66-2.71-3.9.93-3.98 2.44-7.31 7.34-7.74 9.26-.8 18.49-2.13 27.76-2.68 6.64-.39 13.33.17 19.99.27 1.8.03 3.63.13 5.4-.14 3.75-.56 6.51-1.97 7.57-6.35 2.15-8.84 4.91-17.53 7.5-26.26.44-1.49 1.09-3.01 1.98-4.28 11.05-15.58 20.69-32.02 29.86-48.75.99-1.8 2.37-3.53 3.94-4.85 9.07-7.66 18.25-15.19 27.4-22.77 3.85-3.18 7.42-2.3 9.5 2.36.25.57.56 1.22.51 1.81-.69 8.18 2.5 15.54 4.55 23.2 4.67 17.46 4.66 35.14 1.97 52.97-.71 4.65-4.05 4.76-7.07 6.32z" fill="#010104"/></svg>