<svg enable-background="new 0 0 400 400" viewBox="0 0 400 400" xmlns="http://www.w3.org/2000/svg"><path d="m378.6 9.2.8-1c.9.7 1.9 1.4 2.9 2.3l-.9 1.1c-1.1-.9-2-1.7-2.8-2.4zm.5 10.7c.9-2.1 1.6-4.3 2.3-6.7.4.2.8.4 1.3.6-.7 2.1-1.5 4.3-2.2 6.6zm.4-15.2.9-.9c1 .8 2 1.6 2.8 2.4l-1 1c-1-.9-1.9-1.8-2.7-2.5zm12.5-1.3h1.2v1.4h2.7v1.1h-2.7v2.7h-1.2v-.5h-1.8v1.3h4.9v3.8h-1.2v-.5h-3.7c0 .4-.1.9-.1 1.2h5.1v1h-5.2c0 .5-.1.9-.2 1.2h6v1h-5.2c1.1 1.3 2.9 2 5.5 2.2-.4.4-.7.8-.9 1.3-2.9-.5-4.8-1.6-5.7-3.5h-.1c-.8 1.7-2.7 2.9-5.9 3.6-.2-.4-.6-.8-.9-1.1 2.8-.6 4.6-1.4 5.4-2.5h-4.8v-1h5.3c.1-.3.2-.7.2-1.2h-4.9v-1h5c0-.4 0-.8.1-1.2h-3.6v.5h-1.2v-3.8h4.9v-1.3h-1.8v.5h-1.2v-2.7h-2.6v-1.1h2.6v-1.4h1.2v1.4h4.7v-1.4zm-6.7 8.4h3.6c0-.4 0-.9 0-1.4h-3.6zm1.9-4.7h4.7v-1.2h-4.7zm6.7 3.3h-3.7v1.4h3.7z" fill="#fafbfc"/><path d="m384.7 21.4h1.3v2.2h2.8v-2.2h1.3v2.2h4.1v9.1h1.7v1.3h-16.9v-1.3h1.7v-9.1h4.1v-2.2zm.3 13.2.7 1.2c-1.8.9-3.8 1.9-6 2.9-.2-.4-.5-.8-.8-1.3 2.4-1 4.4-2 6.1-2.8zm-3.1-6.5h2.8v-3.2h-2.8zm0 4.6h2.8v-3.3h-2.8zm4.1-4.6h2.8v-3.2h-2.8zm0 4.6h2.8v-3.3h-2.8zm3.6 1.9c2.1.9 4.1 1.8 6.1 2.7l-.7 1.3c-2.2-1.1-4.2-2-6.1-2.9zm3.3-9.7h-2.8v3.2h2.8zm-2.8 7.8h2.8v-3.3h-2.8z" fill="#fafbfc"/><g fill="#010104"><path d="m246.81 193.63c3.09 2.2 6.11 1.6 8.57-.02 3.46-2.28 6.28-1.32 9.34.54 4.08 2.5 5.7 1.94 7.93-2.41 3.41-6.64 5.03-13.7 4.83-21.14-.24-8.71.73-17.13 5.21-24.85.35-.6.45-1.75.1-2.27-3.19-4.7-3.1-9.97-3.03-15.31.1-7.38.02-14.76.02-22.94-5.34 1.13-9.64 2.06-13.95 2.96-5.07 1.06-10.11 2.41-15.23 3.09-5.92.79-7.1-.17-9.24-5.65-1.08-2.76-2.14-5.53-3.21-8.3-.07-.19-.07-.41-.23-1.41 3.18-.86 6.42-2.26 9.75-2.52 6.1-.47 12.28-.65 18.38-.26 11.84.76 20.06-3.85 23.65-13.97.45-1.26.61-2.68.63-4.03.07-5.49.03-10.98.03-17.14 1.41.81 2.49 1.19 3.25 1.91 3.43 3.2 4.13 10.94 1.38 14.77-1.9 2.66-2.03 5.13.11 7.81 3.96 4.95 4.63 10.7 3.91 16.84-.58 4.98-3.97 7.12-8.67 8.72 2.12 1.81 3.74 3.45 5.6 4.73 2.2 1.51 2.82 3.3 2.46 5.92-1.05 7.77-1.88 15.57-2.77 23.36-.11.94-.22 1.92-.05 2.83.8 4.11.33 8.11-.25 12.25-1.33 9.42-2.09 18.92-3.09 28.38-.22 2.11-.12 4.33-.78 6.29-2.7 8-1.57 16.13-1.23 24.24.17 4-2.24 6.09-6.31 5.53-2.95-.41-3.06-.35-4.62 2.95 1.78.8 3.72 1.39 5.31 2.49 1.25.87 2.79 2.3 2.92 3.61.32 3.09.42 6.41-.37 9.38-1.58 5.92-3.75 11.68-5.86 17.44-.37 1.02-1.51 2-2.54 2.49-7.26 3.46-14.4 7.34-21.96 9.98-5.37 1.88-11.34 2.04-16.87 2.95-1.77-3.29-.93-4.91 1.91-6.4 6.85-3.59 13.55-7.46 20.21-11.37 1.57-.92 3.24-2.22 4.08-3.77 3.35-6.12 6.48-12.36 9.52-18.65 2.62-5.41 2.68-11.27 2.44-17.13-.03-.7-.22-1.52-.63-2.04-2.54-3.24-5.16-6.42-7.88-9.76-4.44 5.13-9.9 5.36-15.89 4.6-9.12-1.16-18.29-1.86-27.44-2.74-.53-.05-1.16.15-1.57-.07-5.93-3.14-11.55-.82-17.18.97-4.05 1.29-8.26 1.71-12.35 3.35-3.48 1.4-8.55 1.13-12.08-.36-7.21-3.05-14.25-2.53-21.52-1.46-2.4.36-4.82.89-7.23.89-4.79 0-6.62-2.42-5.33-6.97.57-2.01 1.65-3.88 2.49-5.82.31.09.62.17.92.26.27.64.45 1.35.84 1.91.78 1.12 1.76 3.1 2.53 3.04 1.7-.13 3.97-.85 4.85-2.13 2.38-3.45 5.08-4.84 9.17-3.56 4.47 1.4 8.58.04 12.49-2.1 3.76-2.05 7.96-3.19 11.36-.33 3.12 2.63 5.45 1.64 8.64.72 9.69-2.79 19.52-1.82 29.25.07.82.16 1.75 1.31 2.08 2.21 1.35 3.6 5.52 6.09 9.12 5.03.7-.21 1.29-1.21 1.66-1.97.9-1.79 1.59-3.65 2.42-5.66z"/><path d="m96.64 366.1c0-7.26-.17-14.21.13-21.14.07-1.52 1.79-2.97 2.84-4.61-2.88-4.07-3.08-8.82-1.79-13.52 3.15-11.52.98-23.2 1.47-34.79.72-16.83 1.14-33.7 5.11-50.19 1.13-4.7 2.25-9.54 6.64-12.81-3.64-4.32-5.42-8.98-4.25-14.51.86-4.08 4.98-6.42 8.95-4.95 3.32 1.24 5.08 3.88 5.71 7.11.66 3.41 1.01 6.92 1.1 10.39.1 3.79-.63 7.39-4.5 9.43-.92.49-1.67 1.29-2.66 2.07 6.39 6.6-.95 9.61-2.93 14.04.04.12.04.4.17.48 4.3 2.45 4.4 6.01 3.5 10.45-1.64 8.07-2.67 16.26-3.99 24.64 4.95 1.69 9.73 3.35 14.53 4.93.54.18 1.35.16 1.8-.12 7.38-4.65 15.89-4.85 24.1-6.21 2.3-.38 4.68-.54 6.85-1.29 7.41-2.56 14.85-1.69 22.29-.5 4.97.79 9.7.1 14.35-1.6 5.17-1.9 10.37-3.71 15.46-5.79 3.98-1.63 7.97-2.51 12.31-2.49 1.6.01 3.63-1.45 4.71-2.83 1.81-2.31 4.06-2.99 6.28-1.03 1.97 1.74 3.87 3.57 6.12 5.66-2.95 1.19-5.5 2.41-8.17 3.25-4.76 1.5-8.78 3.95-12.1 7.75-.98 1.12-2.77 1.89-4.29 2.1-5.66.78-11.36 1.54-17.06 1.76-5.32.2-9.73 2.48-14.27 4.77-1.54.77-3.39 1.23-5.11 1.27-7.1.14-14.2.06-21.31.06-5.82 0-5.82 0-10.16-3.96-.66.55-1.34 1.12-2.01 1.67-4.14-3-4.81-2.94-6.98 1.64-1.06 2.25-2.5 3.43-4.89 3.89-6.84 1.31-13.63 2.82-20.48 4.07-1.6.29-2.17.85-2.16 2.4.03 8.17-2.19 15.86-4.84 23.5-.62 1.8-.36 3.91-.5 5.87-.44 6.51-.41 13.1-1.47 19.51-.69 4.32-3.7 7.7-8.5 9.63z"/><path d="m210.04 99.25c2.24-3.13 4.7-2.6 7.45-2.7 6.47-.24 11.24 3.45 16.51 5.97 1.48.71 2.45 2.6 3.45 4.09.27.4-.02 1.72-.41 1.93-2.85 1.48-5.73 3.79-8.73 3.99-19.44 1.35-38.9 2.23-58.36 3.25-.73.04-1.53.05-2.19-.21-7.15-2.78-14.16-1.38-21.06.85-4.02 1.29-7.79 1.33-11.7-.33-1.02-.43-3.01-.33-3.64.36-5.84 6.4-14.22 6.99-21.96 10.12 0-4.65-.11-8.94.02-13.22.38-11.85 1.07-23.69 1.24-35.54.19-13.57 2.32-26.74 6.36-39.68.93-2.98 2.26-3.25 4.78-2.38 4.46 1.54 6.13 4.3 5.26 9.09-.89 4.89-2.07 9.75-2.6 14.68-.24 2.22.31 4.85 1.37 6.82 1.7 3.18 2.73 6.14 2.28 9.88-.64 5.24-.59 10.56-.77 15.85-.04 1.26.04 2.56.36 3.77.69 2.62 1.9 4.14 5.2 3.32 11.94-2.98 24.2-2.22 36.35-2.57 8.69-.24 17.38-.17 26.07-.25.84-.01 1.74.07 2.53-.17 4.54-1.4 8.91-2.12 12.19 3.08zm-17.06 3.05c-2 1.15-3.85 2.21-5.69 3.27.03.4.07.81.1 1.21 2.78.2 5.56.4 9.03.65-1.42-2.12-2.34-3.5-3.44-5.13zm-70.6 5.89c-1.2-3.46-3.53-2.31-5.83-2.32.25 1.21.45 2.17.68 3.31 1.71-.33 3.23-.62 5.15-.99zm46.44-6.85c-.57 1.84-1.01 3.26-1.62 5.24 1.8-.74 2.9-1.2 4.15-1.72-.88-1.24-1.5-2.09-2.53-3.52z"/><path d="m119.48 156.69c-2.04.28-4.08.68-6.13.8-1.43.08-3.91.12-4.12-.46-.64-1.8-.55-3.91-.46-5.89.03-.71.9-1.38 1.68-2.5-3.75-1.99-3.15-5.23-2.37-8.54.17-.71.27-1.52.1-2.21-.97-3.99.87-5.9 4.56-6.98 2.82-.83 5.48-2.23 8.21-3.37 2.94-1.22 4.72-.73 5.61 2.31.69 2.36.78 5.01.62 7.5-.94 15-2.07 29.99-3.03 45-.27 4.25 4.43 10.08 9.48 12.07 1.87.73 3.87 1.13 5.69 1.95 1.6.72 3.29 1.58 4.49 2.81 2.01 2.05 1.61 4.08-.73 5.77-1.02.74-2.05 1.47-3.26 2.35.74 1.43 1.44 2.78 2.54 4.91-2.57.4-4.79 1.12-6.94.97-2.49-.17-4.97-1-7.39-1.76-3.84-1.2-4.46-3.16-2.26-6.45.23-.34.39-.74.64-1.23-5.93-3.86-10.14.29-15.22 3.42.78-3.05 1.56-5.49 1.97-8 .18-1.07-.02-2.79-.72-3.31-5.93-4.4-5.37-10.52-4.73-16.69.51-4.94 1.06-9.89 1.77-14.8.13-.92.95-2.04 1.77-2.49 2.74-1.51 5.63-2.76 8.45-4.12-.05-.36-.14-.71-.22-1.06z"/></g></svg>