<svg enable-background="new 0 0 400 400" viewBox="0 0 400 400" xmlns="http://www.w3.org/2000/svg"><path d="m128.58 195.47c5.72-.06 8.63 2.91 11.35 7.37 6.56 10.75 13.41 21.38 20.92 31.48 8.02 10.79 19.66 15.22 33.04 16.03 1.81-6.69 1.46-13.36.69-19.96-2.02-17.3-5.69-34.26-11.4-50.73-.62-1.79-2.19-3.64-3.83-4.62-9.29-5.52-18.65-10.92-28.13-16.1-11.9-6.51-19.79-16.37-24.87-28.72-.32-.77-.73-1.66-.62-2.43 1.48-10.44-3.13-19.64-5.67-29.3-1.35-5.14-2.19-10.67-1.86-15.94.49-7.86-.01-5.88 7.54-6.99 2.63 8.18 4.93 16.54 8.01 24.61 3.99 10.47 8.13 20.92 13.04 30.98 6.14 12.58 16.81 20.44 29.78 25.66 2.14-4.91 2.77-10.16 1.28-14.93-4.57-14.61-1.49-28.67 1.7-42.89 1.97-8.82 5.99-15.49 13.75-20.93 18.48-12.96 36.25-26.92 54.33-40.45 1.51-1.13 2.79-2.94 5.21-1.35 2.65 1.74 5.71 3.49 5.04 6.99-.78 4.1-2.49 8.04-4.03 11.95-.31.79-1.6 1.29-2.53 1.72-7.19 3.37-14.61 6.3-21.57 10.1-13.27 7.25-24.79 16.67-33.24 29.42-6.02 9.09-8.08 19.17-7.16 30.01.9 10.57 3.97 20.5 7.82 30.02 10.81-.35 18.99-6.14 26.95-12.07 5.41-4.04 10.52-8.58 15.27-13.38 5.73-5.78 12.49-8.46 20.56-8.7 1.38 2.39 1.36 4.23-.87 6.36-9.65 9.24-18.98 18.81-28.71 27.96-3.58 3.37-7.84 6.06-11.97 8.79-5.21 3.45-10.64 6.56-15.88 9.98-.81.53-1.64 2.01-1.48 2.88 3.63 20.11 7.36 40.21 11.15 60.29.55 2.93 3.86 3.85 6.38 1.84 11.35-9.06 22.72-18.11 33.98-27.27 4.93-4.01 9.61-8.32 14.44-12.45 3.25-2.77 6.6-3.45 10.88-2.19 0 4.98.08 10.05-.08 15.11-.03.84-.97 1.81-1.71 2.46-20.2 17.49-40.41 34.97-60.71 52.35-2.13 1.82-2.72 3.28-1.91 6.1.78 2.72.7 5.84.31 8.7-1.56 11.44-3.13 22.88-5.17 34.24-2.89 16.02-11.18 29.64-20.36 42.66-1.89 2.69-5.67 4.14-8.75 5.84-1.2.67-2.88.48-5.3.81 1.68-5.85 2.41-11.65 4.91-16.55 8.18-16.02 15.12-32.42 18.54-50.17 1.91-9.91 2.43-19.74-.94-29.5-.97-2.8-2.34-4.04-5.55-4.36-12.61-1.26-23.88-6.38-34.3-13.32-8.66-5.77-16.99-11.99-23.37-20.41-8.68-11.42-10.58-23.71-4.9-37z" fill="#010105"/><g fill="#fafbfa"><path d="m377.9 391.2c-.2.3-.4.5-.6.8-.7-.6-1.4-1-2.2-1.5.2-.3.4-.5.5-.8.6.4 1.4.8 2.3 1.5zm-1.8 6.1c-.2-.2-.5-.4-.9-.6.4-.6.8-1.2 1.2-1.9s.7-1.3.9-1.9c.3.3.5.5.8.7-.7 1.3-1.4 2.6-2 3.7zm2.2-9c-.3.3-.5.5-.6.8-.6-.6-1.3-1.1-2-1.5.3-.3.5-.5.6-.7.6.5 1.3.9 2 1.4zm.3.2v-.9h2 4.5c-.3 1.3-.6 2.5-1 3.6s-.9 2.1-1.4 3c.4.5 1 1 1.6 1.4s1.2.8 1.9 1.1c-.3.2-.5.4-.8.8-.4-.3-1-.7-1.6-1.2s-1.2-1.1-1.6-1.6c-.5.6-1.1 1.1-1.7 1.6s-1.4.9-2.1 1.4c-.1-.3-.3-.5-.7-.8.6-.2 1.2-.5 1.9-1s1.4-1.1 2-1.8c-.5-.8-.9-1.6-1.2-2.5s-.6-2-.8-3.2c-.4.1-.7.1-1 .1zm2.5 2.7c.3 1 .7 1.7 1 2.2.3-.5.6-1.1 1-2s.6-1.9.9-3h-3.2-.4c.1.9.3 1.8.7 2.8z"/><path d="m396.5 388.5v1.5 3.6h1.5v.9c-.4 0-1 0-1.7 0h-7.9c-.5 0-.9 0-1.2 0v-.9h1.3v-3.5c0-.7 0-1.2 0-1.6h2.4c0-.8 0-1.4 0-1.7h1c0 .3-.1.8-.1 1.7h1.5c0-.8 0-1.4 0-1.7h1c0 .3-.1.9-.1 1.7zm-8.2 9.2c-.2-.3-.5-.5-.8-.8.8-.3 1.4-.6 1.9-.9s1-.7 1.4-1.1c.3.3.6.5.9.8-1.6 1-2.8 1.6-3.4 2zm2.6-6.8v-1.6h-1.5v1.6zm0 2.7v-1.9h-1.5v1.9zm2.4-2.7v-1.6h-1.5v1.6zm0 2.7v-1.9h-1.5v1.9zm.2 2 .7-.8c.4.2.9.5 1.6.8s1.3.7 1.8 1c-.3.3-.5.5-.8.8-.4-.3-1.5-1-3.3-1.8zm2-4.7v-1.6h-1.4v1.6zm0 2.7v-1.9h-1.4v1.9z"/></g></svg>