<svg enable-background="new 0 0 400 400" viewBox="0 0 400 400" xmlns="http://www.w3.org/2000/svg"><path d="m185.6 237.2c-18.6-4.6-36.4-8.9-54.1-13.2 0-.1.1-.3.1-.4 13 .8 26 1.6 39 2.3 12.4.7 24.7 1.4 36.8-2.4 8.4-2.7 15.6-7 21.7-13.7-6.8-5.6-14.6-8.9-22.8-11.4-14.1-4.5-28.7-6.1-43.4-7.4-15.1-1.2-30.2-2.2-45.3-3.3 5-2.7 10.6-3.9 16.3-4.7 14.9-2.2 29.5-.3 44.1 2.3 15.8 2.9 31.5 5.9 47.2 8.8 6.7 1.2 9.8-.9 11.1-7.5.4-2.4.5-4.8.4-7.2 0-.9-.5-2-1.1-2.6-9.7-8.9-19.9-17-32.9-20.4-4.6-1.2-9.6-1.6-14.4-1.8-15.8-.8-31.7-1.4-47.6-2.1 0-.4 0-.9-.1-1.3 1.6-.4 3.1-.8 4.7-1.2 8.9-1.8 17.7-3.8 26.6-5.4 3.2-.6 5.2-2.1 5.7-5 1.2-6.8 2.8-13.7 3-20.6.3-11.6-.3-23.2-.4-34.8 0-2.4-.9-3.6-3-4.5-3.8-1.5-7.3-1.4-11.2.4-3.7 1.8-7.9 2.7-11.8 4-1.1.4-2.3.9-3.1 1.6-5.3 4.7-10.3 9.7-15.7 14.3-3.1 2.7-5.2 5.9-6.8 9.6-6.6 14.6-13.3 29.1-20 43.7-.4.9-.9 1.7-1.5 2.5.3-10.7 2.8-20.9 6.4-30.8 3.4-9.2 6.9-18.4 10.5-27.5.6-1.6 1.8-3.1 3-4.2 7.3-6.1 14.4-12.5 22.1-18 3.1-2.2 7.5-2.8 11.4-3.7 3.2-.8 6.6-.9 9.8-1.4 7.3-1.1 11.2-5.4 11.7-12.8.7-8.6 1.4-17.2 2.2-25.8.1-.9.3-1.7.6-3.3 3.1 6.1 4.4 12 5.3 17.9.6 4 1.1 8.1 2.1 12 .6 2.3 1.9 4.4 3.3 6.4 1.8 2.6 4.2 4.3 7.6 4.6 4.5.4 9 1.2 13.5 1.7 14.2 1.8 24.9 9.8 34.1 19.9 9.7 10.7 14 24 15.9 37.9 1.6 11.7 2.2 23.5 3.3 35-.4-1-.9-2.2-1.3-3.5-4.7-14.7-9.4-29.4-14.3-44.1-.6-1.8-1.7-3.6-2.9-5.1-5.3-6.1-11.2-11.7-16.2-18-7.1-8.9-16.5-12.1-27.2-13.1-3.6-.3-7.2-.5-11.2-.8-3.1 20.5-6.2 40.7-9.4 61.2 5.3 2 10.4 3.9 15.6 5.8 9.4 3.5 18.8 7 28.3 10.5 12.5 4.6 17.3 11.9 16.3 25.3-.8 10.5 0 20.7 3.5 30.7 2.3 6.6 4.1 13.3 6.1 20 6.2 21 12.1 42 18.6 62.8 2.6 8.2 6.5 15.9 9.7 23.9.5 1.2 1 2.4 1.1 3.9-.6-.6-1.2-1.2-1.8-1.9-13.1-16.3-21.1-34.7-24.5-55.4-2.6-15.8-8.8-30.3-18.7-43-.7-.9-1.4-1.7-2-2.4-3.9 2.2-7.6 4.5-11.4 6.4-8.3 4.2-17.1 6.3-26.5 5.6-8.5-.6-12.1 2.7-11.6 11.2.3 5.8 1.9 11.5 3.1 17.2.2 1.1 1.7 2.2 2.9 2.6 9.4 3.7 18.7 7.5 28.2 10.6 7.2 2.3 11.6 7.2 14.3 13.7 2 4.8 3.7 10.1 4.2 15.2 1.4 15.2.2 30.2-4.5 44.9-.4 1.2-.9 2.4-2 3.5-.8-6.3-1.6-12.7-2.4-19-1.6-13.4-3.2-26.8-4.9-40.1-.1-1.2-.9-2.5-1.8-3.3-8.1-7.6-18.1-10.2-28.9-10.6-.9 0-2.2 1.2-2.7 2.2-6.1 13-7.5 26.7-5.3 40.8 2.5 16 3.5 31.9-.4 47.7-.1.6-.4 1.2-1.1 1.7-3-31.2-6.1-62.5-9.1-94.2-6.6.6-12.9 1.1-19.3 1.7-.4 0-.8.4-1.1.7-8.2 8.7-16.6 17.5-20.1 29.2-2.4 7.9-3.4 16.2-5 24.3-1 5.3-2 10.5-3 15.8-.4 0-.7.1-1.1.1-1.1-6-2.3-11.9-3.2-17.9-2.2-15.1 1-29.4 6.7-43.3.4-.9 1-1.7 1.7-2.4 1.7-1.6 3.6-3 5.1-4.7 8.6-10.3 20.7-13.8 32.9-17 2.5-.7 4.5-1.7 5.2-4 2.8-7.1 4.9-14.3 7.1-21.9z" fill="#000001"/><g fill="#fafafb"><path d="m362.1 8.8c1.1.8 2.1 1.6 3.1 2.4l-1 1.1c-1.3-1.1-2.3-2-3-2.5zm1.9 4.8c.5.2.9.4 1.4.5-.6 2.3-1.3 4.5-1.9 6.8l-1.5-.5c.8-2.1 1.4-4.3 2-6.8zm-1-9.4c1.3.9 2.4 1.8 3.4 2.5l-1 1.1c-1.4-1.2-2.4-2.1-3.2-2.6zm3.7 2.2v-1.4h10.3v1.2c-.5 3.6-1.8 6.8-4 9.4 1.5 1.6 3.4 2.8 5.7 3.8-.3.4-.7.8-1.1 1.4-2.3-1.1-4.1-2.5-5.6-4.1-1.6 1.6-3.6 3.1-5.9 4.3-.3-.5-.7-.9-1-1.3 2.4-1.1 4.4-2.5 6-4.1-1.9-2.5-3-5.6-3.3-9.3h-1.1zm8.8 0h-6.4c.3 3.3 1.3 6 3 8.2 2-2.3 3.1-5.1 3.4-8.2z"/><path d="m385.3 3.8h1.3v2.2h2.8v-2.2h1.3v2.2h4.1v9.1h1.7v1.3h-16.9v-1.3h1.7v-9.1h4.1v-2.2zm.4 13.1.7 1.2c-1.8.9-3.8 1.9-6 2.9-.2-.4-.5-.8-.8-1.3 2.3-1 4.3-1.9 6.1-2.8zm-3.1-6.4h2.8v-3.2h-2.8zm0 4.6h2.8v-3.3h-2.8zm4-4.6h2.8v-3.2h-2.8zm0 4.6h2.8v-3.3h-2.8zm3.7 1.9c2.1.9 4.1 1.8 6.1 2.7l-.7 1.3c-2.2-1.1-4.2-2-6.1-2.9zm3.2-9.7h-2.8v3.2h2.8zm-2.8 7.8h2.8v-3.3h-2.8z"/></g></svg>