<svg enable-background="new 0 0 400 400" viewBox="0 0 400 400" xmlns="http://www.w3.org/2000/svg"><path d="m362.1 8.8c1.1.8 2.1 1.6 3.1 2.4l-1 1.1c-1.3-1.1-2.3-2-3-2.5zm1.9 4.8c.5.2.9.4 1.4.5-.6 2.3-1.3 4.5-1.9 6.8l-1.5-.5c.8-2.1 1.4-4.3 2-6.8zm-1-9.4c1.3.9 2.4 1.8 3.4 2.5l-1 1.1c-1.4-1.2-2.4-2.1-3.2-2.6zm3.7 2.2v-1.4h10.3v1.2c-.5 3.6-1.8 6.8-4 9.4 1.5 1.6 3.4 2.8 5.7 3.8-.3.4-.7.8-1.1 1.4-2.3-1.1-4.1-2.5-5.6-4.1-1.6 1.6-3.6 3.1-5.9 4.3-.3-.5-.7-.9-1-1.3 2.4-1.1 4.4-2.5 6-4.1-1.9-2.5-3-5.6-3.3-9.3h-1.1zm8.8 0h-6.4c.3 3.3 1.3 6 3 8.2 2-2.3 3.1-5.1 3.4-8.2z" fill="#fbfcfa"/><path d="m385.3 3.8h1.3v2.2h2.8v-2.2h1.3v2.2h4.1v9.1h1.7v1.3h-16.9v-1.3h1.7v-9.1h4.1v-2.2zm.4 13.1.7 1.2c-1.8.9-3.8 1.9-6 2.9-.2-.4-.5-.8-.8-1.3 2.3-1 4.3-1.9 6.1-2.8zm-3.1-6.4h2.8v-3.2h-2.8zm0 4.6h2.8v-3.3h-2.8zm4-4.6h2.8v-3.2h-2.8zm0 4.6h2.8v-3.3h-2.8zm3.7 1.9c2.1.9 4.1 1.8 6.1 2.7l-.7 1.3c-2.2-1.1-4.2-2-6.1-2.9zm3.2-9.7h-2.8v3.2h2.8zm-2.8 7.8h2.8v-3.3h-2.8z" fill="#fbfcfa"/><path d="m161.88 34.87c8.01 5.69 12.69 13.56 15.68 22.63 1.16 3.51 2.42 7.01 3.88 10.41 3.06 7.15 7.03 13.59 12.86 19.03 14.18 13.24 28.06 26.8 41.93 40.37 3.77 3.69 7.34 7.7 8.3 13.25.14.83.26 1.68.27 2.52.08 5.7-4.51 8.57-9.7 6.07-10.62-5.12-20.95-10.63-29.16-19.43-3.85-4.12-8.9-4.6-14.13-3.28-.8.2-1.4 1.26-2.06 1.96-.12.12-.03.42-.1.62-3.28 9.42-.96 17.13 5.42 24.91 9.61 11.71 17.56 24.63 23.23 38.86 5.35 13.43 5.58 27.02 2.45 40.88-.16.69-.51 1.42-.99 1.94-4.51 4.85-4.79 10.69-3.75 16.72.87 5.11 1.9 10.21 3.22 15.23 1.16 4.44 1.07 8.73.14 13.17-1.17 5.59-2.12 11.24-2.99 16.89-.21 1.35-.11 3.08.58 4.17 5.36 8.43 7.38 17.6 6.8 27.49-.47 7.91-.46 15.87-1.16 23.76-.42 4.65-2.48 8.91-5.77 12.87-5.56-6.47-9.12-13.7-9.95-21.96-.66-6.62-.28-13.34-.73-19.99-.41-6.01-1.17-12.01-2.09-17.97-.29-1.88-1.29-3.85-2.48-5.36-2.23-2.84-3.48-5.74-2.3-9.31.64-1.94-.24-2.92-1.93-3.64-1.46-.62-2.76-1.66-4.25-2.13-3.14-.99-3.75-3.28-3.11-5.98 1.09-4.61 1.96-9.37 3.8-13.7 3.85-9.06 2.03-16.65-4.61-23.53-4.9-5.09-9.96-9.83-17.55-11.03-3.57 7.29-5.25 14.94-5.57 22.93-.19 4.76-.04 9.56-.66 14.27-.91 6.84-4.38 12.47-9.8 17.57-.99-4.22-1.68-8.11-2.84-11.86-2.07-6.66-2.24-13.3-.52-20.01 2.17-8.45 2.39-17.06.9-25.55-2.68-15.28 1.04-29.96 3.78-44.68.86-4.62 4.09-8.78 6.15-13.19.52-1.11 1.13-2.44.97-3.56-1.26-8.67.44-17.07 1.85-25.55 1.07-6.44 1.28-13.02 1.98-19.53.14-1.28.71-2.52 1.15-3.75.93-2.62 2.51-5.18 2.75-7.86.55-6.21-1.16-12.11-3.4-17.93-3.95-10.27-7.94-20.55-11.23-31.03-2.79-8.87-1.75-17.62 3.76-25.48.27-.45.64-.83.98-1.23zm40.32 183.87c0-.83.03-1.34 0-1.84-.94-12.76-4.73-24.69-10.72-35.92-2.72-5.11-6.45-9.46-11.5-12.45-.88-.52-2.37-1-3.1-.6-3.03 1.64-5.88 3.62-9.14 5.69 5.89 3.45 8.12 7.95 5.97 14.17-.24.68-.21 1.47-.25 2.21-.24 4.44.24 8.41 4.07 11.69 4.65 3.99 9.02 8.39 13.03 13.02 3.22 3.73 7.28 3.49 11.64 4.03z" fill="#010101"/></svg>