<svg enable-background="new 0 0 400 400" viewBox="0 0 400 400" xmlns="http://www.w3.org/2000/svg"><path d="m122.9 190.98c.79-2.05 1.07-3.75 1.99-4.99 6.55-8.84 13.13-17.67 19.9-26.35 6.83-8.76 13.48-17.72 20.98-25.88 5.7-6.2 9.16-13.71 14.06-20.33 2.93-3.97 2.55-9 1.98-13.57-1.29-10.36.68-20.28 3.09-30.21 1.07-4.42 2.42-8.8 3.09-13.28.39-2.57-.36-5.31-.54-7.97-.05-.7-.1-1.8.28-2.05 2.89-1.87 2.8-5.02 3.66-7.79.37-1.17 1.06-2.24 1.61-3.36 3.11.6 4.12 2.85 4.82 5.2 2.11 7.09 4.11 14.2 6.16 21.31.09.3.29.66.21.91-1.9 5.76 1.37 11.15 1.2 16.83-.13 4.45-.61 8.72-1.33 13.12-.94 5.74-.12 11.77.12 17.67.04.91.92 1.94 1.68 2.62 1.72 1.55 3.39 3.51 5.46 4.25 8.44 3.01 14.91 9.12 22.4 13.61 6.98 4.18 14.35 7.7 21.24 12.02 4.64 2.91 8.8 6.61 13.03 10.13 2.07 1.72 4.2 4.23 2.78 6.75-.57 1-4.51.85-6.54.14-5.17-1.8-10.1-4.27-15.18-6.34-1.64-.67-3.43-1.11-5.18-1.33-4.78-.58-5.3-.28-6.67 4.18-.93 3.03-2.33 5.6-4.87 7.59-.86.68-1.48 1.76-1.99 2.77-2.39 4.7-4.44 9.59-7.1 14.12-5.09 8.68-10.46 17.2-15.83 25.7-1.63 2.57-4.34 4.62-5.38 7.36-2.28 6.02-5.33 12.11-.58 18.66 6.97 9.6 13.68 19.39 20.24 29.27 8.18 12.33 15.77 25.03 25.3 36.46 2.09 2.51 2.43 6.46 3.66 9.72 1.89 5.04 4.13 9.97 5.68 15.11.99 3.28 1.24 6.84 1.37 10.3.07 1.98-2.16 2.54-3.73.8-3.18-3.54-6.22-7.22-9.1-11.01-1.53-2.01-2.56-4.39-3.93-6.53-.48-.75-1.2-1.69-1.97-1.87-3.42-.8-4.66-3.14-5.15-6.29-.13-.88-.73-1.72-1.26-2.49-2.4-3.45-4.87-6.86-7.27-10.3-3.8-5.45-7.57-10.93-11.36-16.38-.54-.78-1.44-1.41-1.72-2.26-3.04-9.24-9.63-16.38-14.45-24.56-.86-1.46-1.57-3.03-2.57-4.38-1.15-1.57-2.55-2.97-4.51-5.2-1.6 4.38-2.84 7.89-4.17 11.38-1.87 4.93-4.21 9.72-5.6 14.77-1.38 5-1.23 10.43-4.69 14.77-.58 14.29-5.49 27.77-7.87 41.72-1.39 8.14-3.16 16.21-4.94 24.27-.42 1.89-1.47 3.66-2.4 5.4-1.48 2.77-3.07 5.49-4.68 8.18-.61 1.03-1.42 1.94-2.53 2.78-.93-5.12-2.71-9.97-1-15.19.67-2.03.48-4.33.78-6.49.31-2.21.74-4.41 1.14-6.61.13-.72.42-1.42.49-2.14.42-4.61.48-9.27 1.27-13.81.68-3.96 2.16-7.78 3.28-11.66.03-.1.11-.19.13-.29 1.19-5.48 2.4-10.96 3.56-16.45.35-1.64.4-3.37.9-4.96 4.21-13.54 8.4-27.1 12.83-40.57 1.07-3.27 3.02-6.25 4.58-9.35 2.24-4.43 2.23-8.73-.67-12.9-3.26-4.68-6.49-9.39-9.72-14.09-.3-.43-.64-.86-.84-1.34-4.45-10.64-8.87-21.29-13.32-31.92-.69-1.66-1.36-3.33-2.21-4.91-2.17-4.02-6.25-4.51-9.33-1.1-3.27 3.62-6.42 7.34-9.68 10.97-4.38 4.85-7.72 6.88-13.09 7.66zm66.76 23.19c4.01-1.44 5.24-4.92 6.93-8.08 2.89-5.39 5.8-10.77 8.89-16.05 4.12-7.03 8.42-13.95 12.64-20.91.55-.9.94-2.01 1.71-2.64 5.93-4.91 7.62-12.42 11.54-17.71-4.21-3.79-7.62-7.84-11.9-10.46-4.66-2.85-9.72-4.79-13.37-9.3-2-2.47-3.71-1.78-5.18 1.15-2.28 4.54-4.45 9.14-6.92 13.58-.5.89-2.49 1.92-3.1 1.59-1.3-.7-2.55-2.08-3.08-3.47-1.03-2.69-1.55-5.57-2.51-9.23-2.06 1.69-3.57 2.63-4.7 3.91-5.33 6.04-10.52 12.19-15.85 18.24-.79.9-1.96 1.9-3.06 2.03-3.76.47-3.8 3.02-3.12 5.56.47 1.73 1.8 3.26 2.84 4.81 2.34 3.49 5.1 6.75 7.05 10.44 3.06 5.79 5.58 11.87 8.35 17.82 3.22 6.88 7.39 13.09 12.84 18.72z" fill="#010000"/><path d="m211.2 148.45c2.96 1.01 3.31 2.9 2.72 5.03-2.21 7.99-4.96 15.99-10.01 22.44-3.02 3.85-3.73 8.06-5.49 12.1-.95 2.18-1.99 4.46-3.55 6.2-1.88 2.08-4.42 1.64-5.8-.7-5.48-9.31-10.52-18.85-12.96-29.48-.63-2.74-.71-5.65-.69-8.48.01-.92.98-2.25 1.85-2.61.68-.29 2.27.33 2.76 1.04 3.72 5.38 7.41 10.8 10.82 16.37 1.74 2.84 2.44 3.3 4.46.69 4.4-5.68 8.57-11.53 12.76-17.36 1.15-1.63 2.05-3.42 3.13-5.24z" fill="#010000"/><g fill="#fafafb"><path d="m361.2 9.6.8-1c.9.7 1.9 1.4 2.9 2.3l-.9 1.1c-1-1-2-1.8-2.8-2.4zm.5 10.6c.9-2.1 1.6-4.3 2.3-6.7.4.2.8.4 1.3.6-.7 2.1-1.5 4.3-2.2 6.6zm.4-15.2.9-.9c1 .8 2 1.6 2.8 2.4l-1 1c-.9-.9-1.8-1.7-2.7-2.5zm12.5-1.2h1.2v1.4h2.7v1.1h-2.7v2.7h-1.2v-.6h-1.8v1.3h4.9v3.8h-1.2v-.5h-3.7c0 .4-.1.9-.1 1.2h5.1v1h-5.2c0 .5-.1.9-.2 1.2h6v1h-5.2c1.1 1.3 2.9 2 5.5 2.2-.4.4-.7.8-.9 1.3-2.9-.5-4.8-1.6-5.7-3.5h-.1c-.8 1.7-2.7 2.9-5.9 3.6-.2-.4-.6-.8-.9-1.1 2.8-.6 4.6-1.4 5.4-2.5h-4.8v-1h5.3c.1-.3.2-.7.2-1.2h-4.9v-1h5c0-.4 0-.8.1-1.2h-3.5v.5h-1.2v-3.8h4.9v-1.3h-1.8v.5h-1.2v-2.7h-2.7v-1h2.6v-1.4h1.2v1.4h4.7v-1.4zm-6.6 8.3h3.6c0-.4 0-.9 0-1.4h-3.6zm1.9-4.6h4.7v-1.3h-4.7zm6.6 3.2h-3.7v1.4h3.7z"/><path d="m385.3 3.8h1.3v2.2h2.8v-2.2h1.3v2.2h4.1v9.1h1.7v1.3h-16.9v-1.3h1.7v-9.1h4.1v-2.2zm.4 13.1.7 1.2c-1.8.9-3.8 1.9-6 2.9-.2-.4-.5-.8-.8-1.3 2.3-1 4.3-1.9 6.1-2.8zm-3.1-6.4h2.8v-3.2h-2.8zm0 4.6h2.8v-3.3h-2.8zm4-4.6h2.8v-3.2h-2.8zm0 4.6h2.8v-3.3h-2.8zm3.7 1.9c2.1.9 4.1 1.8 6.1 2.7l-.7 1.3c-2.2-1.1-4.2-2-6.1-2.9zm3.2-9.7h-2.8v3.2h2.8zm-2.8 7.8h2.8v-3.3h-2.8z"/></g></svg>