<svg enable-background="new 0 0 400 400" viewBox="0 0 400 400" xmlns="http://www.w3.org/2000/svg"><g fill="#010000"><path d="m96.42 255.2c-3.34-3.28-3.52-7.5-.23-10.12 4.73-3.77 7.75-8.62 9.96-14.1 3.27-8.09 7.37-15.7 12.66-22.66 2.05-2.7 3.73-5.68 5.86-8.31 9.17-11.38 12.22-25.14 15.33-38.89 1-4.42 2.17-8.79 3.28-13.26 4.29.55 6.93 2.67 8.02 6.54.45 1.62.92 3.36.78 5-.57 6.79 1.3 13.21 2.6 19.73.2 1.01.11 2.35-.42 3.18-1.49 2.33-1.61 4.61-.21 6.87 1.92 3.11 3.88 6.21 6.06 9.13 5.25 7.04 10.92 13.78 15.89 21.01 3.71 5.4 4.56 11.26 3.42 16.02-1.6-.35-3.25-.59-4.82-1.08-1.61-.5-3.14-1.23-4.95-1.96-.57.73-1.18 1.42-1.68 2.18-8.93 13.53-17.87 27.05-26.74 40.62-.58.88-1.21 2.31-.89 3.11 3.04 7.64.74 15.25.25 22.9-.74 11.62-1.34 23.25-1.6 34.89-.18 8.02-.23 15.96-5.18 22.81-1.41 1.95-3.12 3.68-4.7 5.51-.4-.03-.8-.07-1.2-.1-.6-3.79-1.67-7.57-1.71-11.36-.29-27.13-.36-54.26-.52-81.39-.04-6.93-2.23-13.33-5.29-19.44-.83-1.66-2.08-3.23-3.47-4.48-3.25-2.92-7.26-2.9-10.67-.21-3.25 2.56-6.46 5.16-9.83 7.86zm29.5-24.17c.75 7.69 3.75 14.07 7.81 20 1.81 2.65 6.43 2.39 7.69-.5 3.93-9.01 7.68-18.09 11.36-27.21.65-1.62.78-3.52.86-5.3.26-5.6-2.53-9.26-7.88-10.81-1.73-.5-2.83-.23-4 1.32-4.4 5.84-9.06 11.49-13.45 17.34-1.11 1.49-1.61 3.43-2.39 5.16z"/><path d="m253 365.69c-3.02-10.95-3.57-22-3.73-33.16-.16-11.1-1.09-22.19-1.61-33.29-.12-2.53-.27-5.13.15-7.6.76-4.47.09-8.49-2.04-12.52-2.52-4.76-4.57-9.76-7.01-15.08-3.18 2.03-7.06 2.33-9.1 5.97-1.46 2.6-4.06 2.14-7.19 1.92.53-1.5.6-3.03 1.4-3.76 4.52-4.12 6.15-9.49 7.12-15.22.39-2.3.74-4.61 1.35-6.86 1.19-4.4 2.77-8.55 6.01-12.05 9.78-10.55 15.08-23.95 22.5-36.01.22-.36.34-.81.64-1.09 1.22-1.2.84-4.16 3.67-3.56 3.04.65 5.62 2.03 6.51 5.32.3 1.12.49 2.31.46 3.46-.16 7.24 2.56 13.41 6.98 18.95 4.49 5.63 8.9 11.33 13.52 16.85 5.84 6.97 9.25 14.83 9.7 24.18-2.94.36-5.49.74-8.16-1.18-3.35-2.4-6.76-1.23-8.08 2.58-5.01 14.44-13.05 27.24-21.15 40.05-1.45 2.29-2.28 5.21-2.57 7.94-1.82 16.64-3.46 33.29-5 49.96-.27 2.74-1.42 3.98-4.37 4.2zm9.78-136.68c-3.02 3.99-5.37 7.68-8.3 10.84-3.53 3.81-4.14 8.19-3.59 12.93.36 3.03.82 6.12 1.8 8.99 1.8 5.31 4.01 10.48 6.1 15.83 4.2-2.49 6.63-5.2 7.98-9.18 2.34-6.88 5.48-13.51 7.62-20.44.78-2.54.69-6.39-.75-8.35-2.89-3.92-6.98-6.95-10.86-10.62z"/><path d="m250.02 128.62c-3.43.82-6.28.08-9.09-1.39-6.73-3.53-9.59-2.91-13.85 3.44-7.34 10.97-13.13 22.79-16.67 35.49-1.2 4.3-.56 9.2-.26 13.8.5 7.71 1.48 15.39 2.12 23.1.49 5.86.21 11.68-2.38 17.11-.79 1.66-2.05 3.1-3.2 4.8-.54-.56-.86-.74-.91-.98-1.98-8.43-3.37-17.05-6.02-25.27-3.51-10.9-3.37-22.11-4.43-33.25-1.11-11.69-6.93-21.14-15.15-29.23-2.54-2.5-5.53-3.32-9.03-2.17-2.01.66-4.06 1.34-6.14 1.56-1.3.14-3.36-.17-3.86-1.01-.64-1.08-.63-3.27.08-4.32 3.92-5.78 7.93-11.52 12.29-16.97 4.3-5.37 8.91-10.51 13.62-15.54 11.69-12.49 16.64-26.98 13.71-44.02-.83-4.86-.58-9.75 1.48-14.34 2.33-5.19 5.78-6.07 9.58-1.79 2.01 2.27 3.35 5.7 3.67 8.74.42 4.03-.58 8.2-.75 12.32-.21 5.07-.45 10.16-.19 15.22.22 4.4 1.98 8.17 5.18 11.55 7.71 8.16 15.15 16.59 22.45 25.12 3.66 4.28 6.42 9.21 7.45 14.89.17 1 .19 2.03.3 3.14zm-48.22 15.08c5.36-.11 8.37-2.34 10.17-5.96 4.07-8.23 7.95-16.55 11.79-24.89.41-.89.37-2.38-.1-3.22-3.68-6.48-8.74-11.62-15.42-15.07-1.83-.94-3.17-.77-4.53 1.13-4.56 6.36-9.34 12.57-14.01 18.85-3.03 4.08-3.07 6.59.6 10.01 3.68 3.43 6.08 7.47 7.6 12.18.52 1.61 1.08 3.23 1.9 4.69.58 1.05 1.62 1.86 2 2.28z"/></g><path d="m361.2 9.6.8-1c.9.7 1.9 1.4 2.9 2.3l-.9 1.1c-1-1-2-1.8-2.8-2.4zm.5 10.6c.9-2.1 1.6-4.3 2.3-6.7.4.2.8.4 1.3.6-.7 2.1-1.5 4.3-2.2 6.6zm.4-15.2.9-.9c1 .8 2 1.6 2.8 2.4l-1 1c-.9-.9-1.8-1.7-2.7-2.5zm12.5-1.2h1.2v1.4h2.7v1.1h-2.7v2.7h-1.2v-.6h-1.8v1.3h4.9v3.8h-1.2v-.5h-3.7c0 .4-.1.9-.1 1.2h5.1v1h-5.2c0 .5-.1.9-.2 1.2h6v1h-5.2c1.1 1.3 2.9 2 5.5 2.2-.4.4-.7.8-.9 1.3-2.9-.5-4.8-1.6-5.7-3.5h-.1c-.8 1.7-2.7 2.9-5.9 3.6-.2-.4-.6-.8-.9-1.1 2.8-.6 4.6-1.4 5.4-2.5h-4.8v-1h5.3c.1-.3.2-.7.2-1.2h-4.9v-1h5c0-.4 0-.8.1-1.2h-3.5v.5h-1.2v-3.8h4.9v-1.3h-1.8v.5h-1.2v-2.7h-2.7v-1h2.6v-1.4h1.2v1.4h4.7v-1.4zm-6.6 8.3h3.6c0-.4 0-.9 0-1.4h-3.6zm1.9-4.6h4.7v-1.3h-4.7zm6.6 3.2h-3.7v1.4h3.7z" fill="#fafafb"/><path d="m385.3 3.8h1.3v2.2h2.8v-2.2h1.3v2.2h4.1v9.1h1.7v1.3h-16.9v-1.3h1.7v-9.1h4.1v-2.2zm.4 13.1.7 1.2c-1.8.9-3.8 1.9-6 2.9-.2-.4-.5-.8-.8-1.3 2.3-1 4.3-1.9 6.1-2.8zm-3.1-6.4h2.8v-3.2h-2.8zm0 4.6h2.8v-3.3h-2.8zm4-4.6h2.8v-3.2h-2.8zm0 4.6h2.8v-3.3h-2.8zm3.7 1.9c2.1.9 4.1 1.8 6.1 2.7l-.7 1.3c-2.2-1.1-4.2-2-6.1-2.9zm3.2-9.7h-2.8v3.2h2.8zm-2.8 7.8h2.8v-3.3h-2.8z" fill="#fafafb"/></svg>