<svg enable-background="new 0 0 400 400" viewBox="0 0 400 400" xmlns="http://www.w3.org/2000/svg"><path d="m378.6 9.2.8-1c.9.7 1.9 1.4 2.9 2.3l-.9 1.1c-1.1-.9-2-1.7-2.8-2.4zm.5 10.7c.9-2.1 1.6-4.3 2.3-6.7.4.2.8.4 1.3.6-.7 2.1-1.5 4.3-2.2 6.6zm.4-15.2.9-.9c1 .8 2 1.6 2.8 2.4l-1 1c-1-.9-1.9-1.8-2.7-2.5zm12.5-1.3h1.2v1.4h2.7v1.1h-2.7v2.7h-1.2v-.5h-1.8v1.3h4.9v3.8h-1.2v-.5h-3.7c0 .4-.1.9-.1 1.2h5.1v1h-5.2c0 .5-.1.9-.2 1.2h6v1h-5.2c1.1 1.3 2.9 2 5.5 2.2-.4.4-.7.8-.9 1.3-2.9-.5-4.8-1.6-5.7-3.5h-.1c-.8 1.7-2.7 2.9-5.9 3.6-.2-.4-.6-.8-.9-1.1 2.8-.6 4.6-1.4 5.4-2.5h-4.8v-1h5.3c.1-.3.2-.7.2-1.2h-4.9v-1h5c0-.4 0-.8.1-1.2h-3.6v.5h-1.2v-3.8h4.9v-1.3h-1.8v.5h-1.2v-2.7h-2.6v-1.1h2.6v-1.4h1.2v1.4h4.7v-1.4zm-6.7 8.4h3.6c0-.4 0-.9 0-1.4h-3.6zm1.9-4.7h4.7v-1.2h-4.7zm6.7 3.3h-3.7v1.4h3.7z" fill="#fafbfc"/><path d="m384.7 21.4h1.3v2.2h2.8v-2.2h1.3v2.2h4.1v9.1h1.7v1.3h-16.9v-1.3h1.7v-9.1h4.1v-2.2zm.3 13.2.7 1.2c-1.8.9-3.8 1.9-6 2.9-.2-.4-.5-.8-.8-1.3 2.4-1 4.4-2 6.1-2.8zm-3.1-6.5h2.8v-3.2h-2.8zm0 4.6h2.8v-3.3h-2.8zm4.1-4.6h2.8v-3.2h-2.8zm0 4.6h2.8v-3.3h-2.8zm3.6 1.9c2.1.9 4.1 1.8 6.1 2.7l-.7 1.3c-2.2-1.1-4.2-2-6.1-2.9zm3.3-9.7h-2.8v3.2h2.8zm-2.8 7.8h2.8v-3.3h-2.8z" fill="#fafbfc"/><path d="m187.68 166.57c-13.15-4.8-26.11-9.74-39.23-14.21-4.39-1.49-7.05-4.17-9.23-7.98-5.23-9.13-7.67-19.08-8.41-29.39-1.45-20.31-.22-40.42 5.39-60.17 2.13-7.49 7.32-12.76 11.78-18.61.39-.52 1.7-.65 2.5-.51 8.03 1.41 16.04 2.95 24.07 4.38 1.66.3 3.36.45 5.04.45 18.66.03 37.33.01 55.99.03 6.41.01 12.34 1.71 17.65 5.37 2.83 1.95 4.69 4.52 4.9 8.29-6.09 3.34-12.78 4.89-19.54 6.14-15.35 2.85-30.81 4.85-46.44 4.07-7.06-.35-14.06-1.86-21.11-2.57-2.58-.26-5.31-.06-7.83.52-4.63 1.07-6.48 3.59-6.6 8.27-.48 18.44-.9 36.88-1.42 55.32-.06 2.01.57 3.24 2.18 4.49 7.54 5.82 16.31 7.79 25.52 8.53 6.13.49 12.26.9 18.37 1.53 2.18.22 4.4.76 6.45 1.54 12.34 4.63 24.94 8.04 38.13 9.2 6 .53 9.39 3.68 10.66 8.5.54 2.03.18 3.29-1.66 4.5-5.61 3.68-11.71 5.19-18.38 5.03-4.22-.1-8.45.19-12.68.34-2.62.1-3.79 1.14-3.69 4.12.54 16.3.76 32.61 1.28 48.92.22 7.08.75 14.16 1.44 21.21.14 1.41 1.34 3.07 2.53 3.97 6.42 4.89 13.81 7.73 21.59 9.65 8.57 2.11 15 6.68 17.84 15.65-4.75 3.27-10.1 4.78-15.71 5.37-5.26.55-10.56.8-15.83 1.18-.32.02-.64.05-.95.11-6.85 1.26-8.01 2.32-9.19 9.19-1.98 11.61-1.05 23.24-.08 34.88.69 8.33 1.31 16.68 1.53 25.03.08 2.87-.84 5.88-1.86 8.63-2.42 6.54-9.15 10.37-16.02 9.27-.99-.16-2.06-.99-2.73-1.81-9.61-11.79-12.45-25.42-10.88-40.27 1.38-13.04.91-26-1.44-38.94-.86-4.74-3.25-7.91-7.54-9.27-4.08-1.3-8.4-2.07-12.67-2.54-5.27-.58-10.5-1.27-12.26-7.12-1.03-3.44-.93-7.27-.98-10.93-.01-.7 1.54-1.83 2.54-2.08 7.39-1.85 14.83-3.54 22.26-5.26 4.14-.96 6.27-3.34 6.63-7.61.1-1.15.01-2.33-.07-3.49-.61-9.18-1.57-18.34-1.78-27.53-.31-13.46-.08-26.93-.08-40.4.02-.97.02-1.91.02-2.99z" fill="#010104"/></svg>