<svg enable-background="new 0 0 400 400" viewBox="0 0 400 400" xmlns="http://www.w3.org/2000/svg"><path d="m378.6 9.2.8-1c.9.7 1.9 1.4 2.9 2.3l-.9 1.1c-1.1-.9-2-1.7-2.8-2.4zm.5 10.7c.9-2.1 1.6-4.3 2.3-6.7.4.2.8.4 1.3.6-.7 2.1-1.5 4.3-2.2 6.6zm.4-15.2.9-.9c1 .8 2 1.6 2.8 2.4l-1 1c-1-.9-1.9-1.8-2.7-2.5zm12.5-1.3h1.2v1.4h2.7v1.1h-2.7v2.7h-1.2v-.5h-1.8v1.3h4.9v3.8h-1.2v-.5h-3.7c0 .4-.1.9-.1 1.2h5.1v1h-5.2c0 .5-.1.9-.2 1.2h6v1h-5.2c1.1 1.3 2.9 2 5.5 2.2-.4.4-.7.8-.9 1.3-2.9-.5-4.8-1.6-5.7-3.5h-.1c-.8 1.7-2.7 2.9-5.9 3.6-.2-.4-.6-.8-.9-1.1 2.8-.6 4.6-1.4 5.4-2.5h-4.8v-1h5.3c.1-.3.2-.7.2-1.2h-4.9v-1h5c0-.4 0-.8.1-1.2h-3.6v.5h-1.2v-3.8h4.9v-1.3h-1.8v.5h-1.2v-2.7h-2.6v-1.1h2.6v-1.4h1.2v1.4h4.7v-1.4zm-6.7 8.4h3.6c0-.4 0-.9 0-1.4h-3.6zm1.9-4.7h4.7v-1.2h-4.7zm6.7 3.3h-3.7v1.4h3.7z" fill="#fafbfc"/><path d="m384.7 21.4h1.3v2.2h2.8v-2.2h1.3v2.2h4.1v9.1h1.7v1.3h-16.9v-1.3h1.7v-9.1h4.1v-2.2zm.3 13.2.7 1.2c-1.8.9-3.8 1.9-6 2.9-.2-.4-.5-.8-.8-1.3 2.4-1 4.4-2 6.1-2.8zm-3.1-6.5h2.8v-3.2h-2.8zm0 4.6h2.8v-3.3h-2.8zm4.1-4.6h2.8v-3.2h-2.8zm0 4.6h2.8v-3.3h-2.8zm3.6 1.9c2.1.9 4.1 1.8 6.1 2.7l-.7 1.3c-2.2-1.1-4.2-2-6.1-2.9zm3.3-9.7h-2.8v3.2h2.8zm-2.8 7.8h2.8v-3.3h-2.8z" fill="#fafbfc"/><path d="m238.64 245.64c-2.49-2.53-2.65-5.94-1.53-9.04 3.41-9.42 7.06-18.77 10.93-28.02 1.46-3.49 3.66-6.69 5.73-9.89 2.54-3.93 3.81-7.33 2.21-12.61-1.7-5.61-.53-12.12-.48-18.24.06-8.88 1.3-17.9.08-26.59-1.3-9.34-4.48-18.51-7.63-27.47-1.15-3.27-4.48-5.81-6.95-8.57-1.38-1.54-2.15-2.98-1.26-5.09 2.86-6.79 1.48-13.27-1.88-19.43-3.53-6.49-7.29-12.85-11.19-19.7-4.47 4.75-8.52 9.02-12.53 13.33-3.88 4.18-7.31 8.96-13.89 9.29.16 1.54.28 2.65.43 4.12-3.46 1.26-7 2.54-10.74 3.9.15.75.13 1.52.46 2.09 2.24 3.88 1.27 7.08-1.2 10.67-5.56 8.1-10.64 16.53-15.96 24.9 6.95 4.17 13.83 8.12 20.51 12.39 2.91 1.86 5.66 4.13 8 6.67 3.4 3.69 4.21 8.42 2.78 12.81-12.2-3-24.43-5.91-36.61-9.03-10.1-2.59-19.64-1.21-28.38 4.24-8.44 5.26-16.78 4.68-25.72.88 1.31-4.98 2.57-9.87 3.9-14.74.16-.57.61-1.11 1.04-1.55 10.07-10.26 11.6-22.59 8.76-35.99-1.47-6.93-3.3-13.8-2.34-21.03 1.26-9.48 6.02-16.74 13.84-22.66 3.79 8.24 7.57 16.23 11.11 24.34.52 1.2.25 2.99-.2 4.33-1.04 3.1-.1 5.04 2.83 6.26.96.4 1.81 1.06 2.67 1.58 13.5-9.64 26.32-19.85 36.6-32.88.72-.91 1.65-1.68 2.3-2.63 3.83-5.66 9.01-8.93 15.9-9.65 1.36-.14 2.82-1.29 3.83-2.35 4.45-4.67 8.67-9.56 13.18-14.16.78-.8 2.71-1.1 3.88-.79 6.7 1.8 11.37 6.45 14.04 12.48 4.62 10.43 8.4 21.23 12.72 31.8 3.35 8.23 6.9 16.37 10.53 24.49.92 2.06 1.13 3.79-.32 5.55-2.65 3.23-2.09 6.31-.35 9.9 4.65 9.62 9.04 19.37 13.21 29.2.86 2.04.73 4.77.32 7.04-1.07 5.83-2.59 11.57-3.85 17.36-.21.97-.43 2.31.05 2.99 5.52 7.88 3.28 16.26 1.54 24.51-1.55 7.36-4.79 13.9-9.98 19.55-4.45 4.85-6.03 11.1-6.79 17.49-1.27 10.71-4.2 20.84-9.02 30.58-10.22 20.62-21.41 40.66-33.77 60.06-5.63 8.84-11 17.85-16.55 26.75-3.72 5.98-8.91 9.93-16.08 10.64-1.17.12-2.86-.62-3.63-1.53-2.59-3.09-1.6-9 1.66-11.4 3.16-2.33 6.4-4.55 9.42-7.05.82-.68 1.51-2.34 1.27-3.3-1.03-4.1-.43-7.9 1.01-11.77 11.03-29.63 25.02-57.83 42.09-85.03zm16.95-127.92c4.25-6.33 3.25-11.49-2.46-14.13.8 4.6 1.57 9.01 2.46 14.13zm-22.76-80.38c.42 2.42.77 4.42 1.28 7.33 1.21-2.44 1.98-4 2.88-5.82-1.43-.52-2.58-.94-4.16-1.51z" fill="#010104"/></svg>