<svg enable-background="new 0 0 400 400" viewBox="0 0 400 400" xmlns="http://www.w3.org/2000/svg"><path d="m225.13 365.73c-3.75-11.12-7.55-21.99-11.04-32.96-1.05-3.3-1.19-6.87-1.87-10.3-2.1-10.69-4.73-21.3-6.3-32.07-3.33-22.83-4.12-45.79-1.9-68.81.26-2.71-.63-5.53-.87-8.31-.13-1.44-.17-2.93.01-4.36.32-2.52 1.37-5.04 1.21-7.51-.86-13.34 2.17-26.7-.27-40-.29-1.58-1.13-3.68-2.37-4.36-4.31-2.37-8.72-5.19-13.43-6.1-13.34-2.59-25.7-7.6-38.05-12.99-9.38-4.09-19.12-7.37-28.74-10.93-3.05-1.13-5.49-2.74-6.28-6.11-.45-1.93.06-3.49 2.16-3.82 2.37-.38 4.91-1.01 7.16-.53 20.33 4.34 40.29 9.9 59.24 18.66 5.76 2.66 11.68 4.99 17.45 7.64 2.75 1.27 4.74.39 5.73-2.02.94-2.29 1.49-4.87 1.57-7.35.13-3.91-.55-7.84-.39-11.75.25-6.2.38-12.49 1.54-18.55 1.36-7.12 2.25-14.09 1.88-21.39-.25-5.07 1.03-10.24 1.88-15.33 1.7-10.24 6.17-20.16 2.89-31.16 4.71.36 7.71 2.64 8.82 6.31 1.39 4.6 2.51 9.47 2.56 14.23.1 11.01-.49 22.03-.9 33.04-.05 1.31-.35 2.81-1.06 3.87-2.17 3.24-2.74 6.7-2.65 10.53.16 7.18.66 14.43-1.84 21.4-.2.56-.35 1.35-.1 1.81 2.89 5.31 1.67 10.65.39 16.07-1.17 4.96.65 8.46 5.8 9.33 13.59 2.31 25.41 9.17 37.98 14.06 4.33 1.68 8.5 3.79 12.68 5.82 3.02 1.46 3.86 3.95 2.9 7.33-8.34-1.19-16.62-2.28-24.85-3.63-1.56-.26-2.87-1.77-4.43-2.36-7.5-2.85-14.95-5.87-22.6-8.25-5.27-1.64-7.11.05-7.57 5.6-.07.84-.13 1.75.13 2.52 1.79 5.5 1.57 11.04.55 16.63-1.41 7.79.92 15.36 1.46 23.03.09 1.27.28 2.53.44 3.79.56 4.56.37 9.4 4.84 12.44 4.72 11 14.5 17.46 22.74 25.29 2.61 2.48 5.38 4.91 7.43 7.81 1.82 2.58 3.36 5.67 3.92 8.74.77 4.23 3.2 7.08 6.11 9.69 2.87 2.57 3.74 5.72 3.64 9.43-2.71 1.03-4.97.75-7.56-.63-7.39-3.94-13.08-9.35-17.37-16.6-2.16-3.64-5.38-6.75-8.51-9.7-5.08-4.79-10.47-9.24-16.63-14.61-.56 3.77-1.18 6.76-1.42 9.77-.41 5.15-.71 10.33-.78 15.49-.02 1.8.49 3.77 1.3 5.39 1.7 3.38 2.23 6.72 1.03 10.35-2.27 6.9-1.86 13.73.91 20.39 2.43 5.87.61 11.73-.02 17.54-.39 3.53-.38 6.68 1.83 9.61 2.2 2.91 2.85 6.21 2.66 9.86-.23 4.44-.22 8.91.01 13.35.17 2.93-.85 4.72-3.05 5.67z" fill="#010000"/><g fill="#fafafb"><path d="m361.2 9.6.8-1c.9.7 1.9 1.4 2.9 2.3l-.9 1.1c-1-1-2-1.8-2.8-2.4zm.5 10.6c.9-2.1 1.6-4.3 2.3-6.7.4.2.8.4 1.3.6-.7 2.1-1.5 4.3-2.2 6.6zm.4-15.2.9-.9c1 .8 2 1.6 2.8 2.4l-1 1c-.9-.9-1.8-1.7-2.7-2.5zm12.5-1.2h1.2v1.4h2.7v1.1h-2.7v2.7h-1.2v-.6h-1.8v1.3h4.9v3.8h-1.2v-.5h-3.7c0 .4-.1.9-.1 1.2h5.1v1h-5.2c0 .5-.1.9-.2 1.2h6v1h-5.2c1.1 1.3 2.9 2 5.5 2.2-.4.4-.7.8-.9 1.3-2.9-.5-4.8-1.6-5.7-3.5h-.1c-.8 1.7-2.7 2.9-5.9 3.6-.2-.4-.6-.8-.9-1.1 2.8-.6 4.6-1.4 5.4-2.5h-4.8v-1h5.3c.1-.3.2-.7.2-1.2h-4.9v-1h5c0-.4 0-.8.1-1.2h-3.5v.5h-1.2v-3.8h4.9v-1.3h-1.8v.5h-1.2v-2.7h-2.7v-1h2.6v-1.4h1.2v1.4h4.7v-1.4zm-6.6 8.3h3.6c0-.4 0-.9 0-1.4h-3.6zm1.9-4.6h4.7v-1.3h-4.7zm6.6 3.2h-3.7v1.4h3.7z"/><path d="m385.3 3.8h1.3v2.2h2.8v-2.2h1.3v2.2h4.1v9.1h1.7v1.3h-16.9v-1.3h1.7v-9.1h4.1v-2.2zm.4 13.1.7 1.2c-1.8.9-3.8 1.9-6 2.9-.2-.4-.5-.8-.8-1.3 2.3-1 4.3-1.9 6.1-2.8zm-3.1-6.4h2.8v-3.2h-2.8zm0 4.6h2.8v-3.3h-2.8zm4-4.6h2.8v-3.2h-2.8zm0 4.6h2.8v-3.3h-2.8zm3.7 1.9c2.1.9 4.1 1.8 6.1 2.7l-.7 1.3c-2.2-1.1-4.2-2-6.1-2.9zm3.2-9.7h-2.8v3.2h2.8zm-2.8 7.8h2.8v-3.3h-2.8z"/></g></svg>