<svg enable-background="new 0 0 400 400" viewBox="0 0 400 400" xmlns="http://www.w3.org/2000/svg"><path d="m374.8 390.4.4-.4c.7.5 1.3 1 1.8 1.4l-.5.5c-.5-.6-1.1-1.1-1.7-1.5zm1 7.3-.6-.3c.5-1.4 1.1-2.8 1.5-4.3.2.1.4.2.6.3-.5 1.3-1 2.8-1.5 4.3zm-.4-10.3.4-.4c.4.3 1 .8 1.7 1.4l-.5.5c-.4-.5-1-1-1.6-1.5zm2.5.3h1.7v-1h.6v1h3.5v-1h.6v1h1.8v.5h-1.8v1.4h-2v1h3.2v2h-3.2v.9h3.3v.5h-3.4c0 .3-.1.6-.1.9h4v.5h-3.7c.7.9 1.9 1.5 3.8 1.7-.1.2-.2.4-.3.6-2.1-.4-3.5-1.1-4-2.1-.4 1-1.8 1.7-4 2.2-.1-.2-.2-.4-.3-.6 2.1-.4 3.4-1 3.8-1.8h-3.4v-.5h3.6c.1-.3.1-.6.2-.9h-3.3v-.5h3.4c0-.3 0-.6 0-.9h-3.2v-2h3.3v-1h-2.1v-1.4h-1.7v-.5zm1.1 3.5v1h2.7c0-.3 0-.4 0-.4 0-.1 0-.2 0-.2 0-.1 0-.2 0-.3h-2.7zm1.2-3v.9h3.5v-.9zm4.7 3h-2.6v.6.4h2.6z" fill="#fbfafc"/><path d="m393.6 386.7h.6v1.5h2.7v6.1h1.1v.6h-11v-.6h1.1v-6.1h2.7v-1.5h.6v1.5h2.1v-1.5zm-2.7 8.8.4.6c-1.2.6-2.5 1.3-3.8 1.9-.1-.2-.2-.4-.3-.6 1.2-.6 2.5-1.2 3.7-1.9zm-2.2-6.7v2.4h2.1v-2.4zm0 3v2.5h2.1v-2.5zm2.8-3v2.4h2.1v-2.4zm0 3v2.5h2.1v-2.5zm6 6.1c-1.4-.7-2.7-1.3-3.9-1.8l.3-.6c1.5.6 2.7 1.2 3.9 1.7zm-1.2-9.1h-2.1v2.4h2.1zm-2.1 3v2.5h2.1v-2.5z" fill="#fbfafc"/><path d="m123.36 301.72c-.64 5.15-1.18 9.76-1.79 14.37-.4 3-1.67 5.43-5.38 6.83-.23-3.79-.62-7.3-.61-10.81.01-3.92.46-7.83.56-11.75.05-2.1.17-4.36-.51-6.28-.56-1.59-2.05-3.59-3.48-3.93-1.57-.38-3.79.57-5.29 1.59-3.31 2.24-6.34 4.88-9.48 7.36-2.96 2.35-6.28 4.37-8.76 7.15-2.96 3.31-6.22 5.59-10.53 6.52-2.52.55-4.75 1.49-6.27 3.9-.56.88-2.16 1.1-3.34 1.65-1.72-5.12 1.29-12.84 5.27-15.19 4.65-2.75 9.19-5.67 13.73-8.59 7.05-4.54 8.04-11.78 8.32-19.24.03-.81-.93-1.81-1.67-2.47-4.09-3.69-8.38-7.17-12.35-10.99-2.91-2.8-5.13-6.17-5.63-11.55 2.16 1.05 3.9 1.55 5.21 2.6 7.34 5.9 14.44 12.11 21.92 17.81 2.33 1.78 5.54 2.6 8.48 3.32 3.45.84 4.82-.25 5.67-3.72.25-1.01.27-2.1.28-3.15.02-14.74-.03-29.48.06-44.23.01-2.02-.59-2.97-2.48-3.67-7.25-2.67-14.46-5.45-21.62-8.36-1.47-.6-2.86-1.74-3.91-2.96-1.93-2.25-3.5-4.8-5.35-7.11-3.6-4.51-6.47-9.27-7.81-15.04-1.2-5.15-3.1-6.38-8.4-6.22-6.88.2-13.75.89-20.63 1.06-3.24.08-6.57-.25-9.72-.96-2.96-.67-5.2-2.62-6.11-6.09 13.69-.46 27.09-.91 40.91-1.37.49-4.48.99-8.86 1.44-13.23.99-9.7 1.88-19.41 2.98-29.1.26-2.33-.52-3.43-2.68-3.64-6.1-.59-12.22-1.06-18.32-1.71-2.09-.22-4.15-.79-6.2-1.27-2.47-.57-3.52-1.94-3.54-4.71-.02-2.72 1.08-4.17 3.45-4.24 4.72-.12 9.46.12 14.18.3 3.37.13 6.74.52 10.11.55 2.38.02 4-1.28 4.34-3.78.81-5.97 1.49-11.96 2.41-17.91.52-3.32 1.13-6.69 2.28-9.83.64-1.75 2.45-3.08 4.09-4.37 1.58 11.93 1 23.42-3.29 35.53 7.59.6 14.5 1.24 21.42 1.67 4.33.27 8.69.13 13.03.41 2.24.15 3.58-.83 3.93-2.75.39-2.13.4-4.38.24-6.55-.1-1.33-.62-2.72-1.28-3.9-5.12-9.25-4.3-19.14-3.24-29.37 4.2 2.97 7.16 6.85 8.58 11.48 1.83 5.94 2.95 12.09 4.26 18.18.51 2.38.36 4.68-2.69 5.77 2.15 3.58 3.96 6.12 8.99 5.89 18.1-.81 36.23-.96 54.35-1.3 1.32-.02 2.92.07 3.92.77 3.16 2.21 6.57 2.52 10.25 2.42 6.02-.16 12.04-.04 18.39-.04 0-8.2.16-16.12-.13-24.03-.06-1.65-2.08-3.14-2.75-4.88-1.15-3.01-2.08-6.13-2.82-9.28-.22-.94.49-2.11.96-3.86 6.03 5.6 12.72 10.01 14.46 17.85 1.36 6.1 1.21 12.54 1.7 18.83.15 1.89.2 3.78.31 6 6.51.22 12.82.46 19.13.63 9.85.27 19.71.41 29.56.77 2.24.08 3.6-.61 3.76-2.76.43-5.88.72-11.78 1.01-17.67.17-3.59-.03-7.21.44-10.76.25-1.89 1.58-3.64 2.42-5.45.35.08.7.15 1.05.23 1.39 4.82 2.78 9.64 4.18 14.47 1.82 6.29 3.96 12.48 3.79 19.22-.09 3.78 1.87 4.55 5.62 4.14 7.46-.81 10.86-6.39 13.83-11.87 4.62-8.54 8.4-17.53 12.61-26.29.74-1.54 1.86-2.9 3.05-4.73 3.84 4.23 5.08 8.74 3.94 13.38-2.29 9.33-4.47 18.81-11.27 26.25-.49.54-.87 1.2-1.25 1.84-2.37 3.95-2.2 4.8 1.48 7.45 5.21 3.76 5.21 3.76 6.82 7.8-4.98 0-9.78 0-14.58 0-4.48 0-7.9 1.73-8.8 6.14-1.97 9.56-8.23 16.52-13.22 24.33-2.02 3.16-3.75 6.83-4.27 10.45-.22 1.5 2.83 4.58 4.83 5.05 3.93.93 8.18.63 12.3.67 2.96.03 5.93-.45 8.88-.31 4.81.23 7.72 5.21 5.5 9.45-.51.98-2.16 1.89-3.31 1.92-4.95.13-9.91.02-14.85-.22-3.35-.16-6.68-.66-11.01-1.11.12 6.71.14 12.87.37 19.02.24 6.33.64 12.66 1.05 18.99.32 4.85.55 9.73 1.27 14.53.29 1.92 1.81 3.65 3.2 6.28 1.75-2.61 2.84-4.23 3.92-5.86 3.28-4.94 6.37-10.02 9.87-14.8 3.29-4.48 7.96-7.13 13.6-8.79.18 4.68.4 8.53-3.08 12.63-6.05 7.14-10.96 15.26-16.22 23.06-1.85 2.74-1.52 5.03 1.22 7.58 11.1 10.33 21.8 21.09 32.91 31.4 3.2 2.97 7.19 5.18 11.03 7.36 2.69 1.52 5.02 3.1 5.99 6.17.6 1.9.27 3.59-1.83 3.92-2.43.39-5.28 1.03-7.34.15-3.62-1.54-7.32-3.62-10.06-6.39-11.15-11.34-21.89-23.07-32.92-34.52-1.65-1.71-4.1-2.67-6.6-4.24-1.54 6.04-.56 11.18.1 16.28.69 5.35 1.8 10.65 2.36 16.02.38 3.68-.01 7.38-2.82 10.57-5.32-5.3-7.64-11.58-8.17-18.83-.36-4.93-1.49-9.81-2.39-15.43-11.57 11.29-20.15 25.26-36.93 28.72-.6-4.34-.38-7.84 2.93-11.21 6.91-7.02 13.19-14.66 19.93-21.85 2.37-2.53 5.35-4.48 7.99-6.77 1.19-1.03 2.44-2.11 3.26-3.41 1.97-3.13 1.31-5-1.83-6.91-7.24-4.4-14.5-8.79-21.61-13.38-9.32-6.02-12.53-15.26-13.27-25.67 2.15-1.65 3.32-.73 4.41 1.13 6.71 11.5 16.93 19.06 28.48 25.08.35.18.76.24 1.53.47-.67-16.85-1.32-33.44-1.99-50.26-7.36-.4-14.42-.78-21.49-1.17-8.67-.48-17.35-.96-26.02-1.49-1.73-.11-2.58.26-2.98 2.24-1.82 8.87-1.4 17.74-.12 26.59 1.35 9.32 3.02 18.6 4.55 27.9.79 4.82-.32 6.68-5.03 7.46-1.81-5.27-3.67-10.63-5.49-16.01-.75-2.21-1.33-4.47-2.1-6.66-1.55-4.45-5.39-5.15-8.98-2.08-6.04 5.15-12.3 10.03-18.47 15.01-.66.53-1.65.8-2.06 1.46-4.85 7.82-13.87 10.3-20.49 15.88-2.75 2.31-7.09 2.92-10.83 3.78-1.23.28-2.84-1.07-4.27-1.67.77-1.48 1.16-3.54 2.38-4.34 7.42-4.91 15.04-9.53 22.57-14.26.89-.56 1.96-1.09 2.48-1.92 4.58-7.25 11.68-11.93 17.9-17.48 10.54-9.41 17.43-22.94 17.83-36.32-4.87-.41-9.78-1-14.71-1.21-12.26-.53-24.55-.66-36.8-1.36-14.6-.84-29.17-2.11-43.75-3.19-.3-.02-.6.08-1.77.25-.24 24.67-.48 49.41-.73 75.19 1.56-1.03 2.75-1.48 3.46-2.34 6.6-8.01 13.12-16.09 19.67-24.14 4.05-4.98 8.11-9.95 12.56-15.41 1.14 3.92 2.15 7.01 2.89 10.17.2.86-.14 2.05-.64 2.84-4.19 6.6-8.62 13.05-12.69 19.72-3.72 6.1-7.78 11.81-13.06 16.72-4.33 4.03-8.3 8.47-12.25 12.88-3.09 3.45-2.88 5.97.45 9.05 10.97 10.16 22 20.26 32.94 30.44 1.53 1.42 2.87 3.1 3.99 4.86.53.84.76 2.89.41 3.08-1.09.59-2.76 1.1-3.76.65-2.86-1.3-5.65-2.88-8.21-4.71-8.87-6.34-17.62-12.84-26.45-19.24-.82-.66-1.88-.95-3.35-1.61zm102.09-124.5c-.43-15.91-.87-31.94-1.31-48.07-1.45-.1-2.39-.19-3.33-.23-19.03-.96-38.07-1.91-57.1-2.87-5.6-.28-11.2-.75-16.81-.85-13.74-.26-16.19 2.16-15.89 15.76.21 9.42.68 18.8-1.58 28.13-1.18 4.86.33 6.16 5.33 6.3 22.55.6 45.09 1.28 67.63 1.82 7.5.16 15 .01 23.06.01zm37.02 4.36c7.41-.44 12.9-.92 18.4-1.02 3.36-.06 4.13-1.52 4.19-4.65.26-13.12.1-26.29 2.86-39.24.98-4.58-.72-6.11-5.5-5.59-3.35.36-6.76.68-10.12.49-11-.63-21.99-1.44-32.97-2.32-1.97-.16-2.71.59-2.96 2.31-.64 4.4-1.74 8.79-1.82 13.2-.18 10.04.1 20.1.27 30.14.04 2.67 1.33 4.23 4.22 4.48 8.44.7 16.85 1.56 23.43 2.2zm-138.44-53.59c-.84-.13-1.35-.25-1.87-.28-10.27-.42-20.54-.78-30.81-1.27-1.98-.09-2.74.85-2.89 2.51-1.18 12.54-2.48 25.08-3.39 37.64-.29 3.94 3.2 6.65 7.07 6.8 3.59.15 7.18.53 10.73 1.06 4.3.63 8.65 1.82 12.77-.3 1.48-.76 3.32-2.41 3.5-3.84 1.8-13.97 3.28-27.98 4.89-42.32zm-6.31 55.18c-8.37-.58-16.39-1.1-24.39-1.71-4.38-.33-5.69.71-5.46 5.16.09 1.74.63 3.56 1.38 5.15 4.04 8.47 10.62 14.17 19.63 16.76 2.17.62 4.73.23 7.04-.12.72-.11 1.71-1.65 1.73-2.55.14-7.42.07-14.84.07-22.69z" fill="#010000"/></svg>