<svg enable-background="new 0 0 400 400" viewBox="0 0 400 400" xmlns="http://www.w3.org/2000/svg"><path d="m347.76 89.3c-10.32 2.2-20.22 2.09-29.93.37-24.6-4.36-49.12-9.25-73.69-13.8-2.08-.39-4.35-.04-6.49.27-1.65.24-3.32.8-4.84 1.5-4.9 2.27-9.33 2.07-14.4-.38-3.5-1.69-8.04-1.34-12.14-1.67-7.29-.6-14.58-1.1-21.88-1.47-1.95-.1-4.01.15-5.89.69-4.98 1.44-9.93 3-14.81 4.76-5.73 2.08-11.34 3.27-17.63 2.38-13.68-1.95-27.29.39-40.82 2.16-8.27 1.09-16.42 3.02-24.6 4.73-.91.19-2.35 1.54-2.26 2.16.87 6.05-2.02 10.99-4.73 15.82-2.48 4.43-2.93 8.75-2.05 13.64 1.14 6.35 1.74 12.81 2.52 19.22.1.81-.11 1.65-.2 2.48-.02.21-.07.42-.16.62-5.72 12.75-6.19 26.11-5.29 39.8.74 11.2.97 22.47.72 33.7-.3 13.24-1.32 26.46-2.1 39.69-.9 15.24-1.89 30.47-2.84 45.71-.06.93-.01 1.88-.01 3.12 3.11.19 6.08.18 8.98.59 7.11 1.01 14.15 2.47 21.28 3.24 5.54.6 11.18.74 16.76.53 9.1-.34 18.18-1.62 27.27-1.67 39.34-.19 78.69-.13 118.03-.05 10.39.02 20.49-1.54 30.3-4.81 10.45-3.48 20.98-5.99 32.11-4.57.29.04.6-.08 1.21-.18.13-2.93.43-5.87.38-8.8-.34-19.81 2.91-39.28 5.52-58.8.94-7.04 2.27-14.05 2.73-21.11.3-4.7-.3-9.53-1.07-14.21-1.54-9.34-.3-18.54.51-27.83 1.61-18.57 5.03-36.71 11.59-54.19 1.41-3.75 3.18-7.39 5.13-10.89.54-.96 2.29-1.65 3.53-1.72 1.98-.12 4.06.14 5.97.68 1.35.38 3 1.22 3.64 2.34 4.75 8.39 7.39 17.32 5.99 27.09-2.67 18.63-3.78 37.33-2.01 56.1.78 8.26-1.5 15.89-3.31 23.73-1.01 4.36-1.35 8.93-1.51 13.43-.45 12.48-.35 24.99-1.08 37.45-.29 4.99-1.94 9.96-3.42 14.81-2.11 6.92-2.17 13.61-.05 20.59 1.07 3.51.84 7.48.75 11.23-.02 1.07-1.37 2.6-2.48 3.08-15.98 7.05-31.91 14.24-48.11 20.76-5.41 2.17-11.53 2.59-17.34 3.72-11.85 2.29-23.7 4.6-35.59 6.71-2.42.43-5.21.69-7.44-.08-6.9-2.38-13.58-.87-20.34.27-8.36 1.42-16.72 2.75-25.05 4.31-1.36.25-2.96 1.2-3.71 2.32-1.15 1.72-2.26 1.97-3.92 1.12-.09-.05-.2-.07-.3-.11-14.18-6.14-28.98-8.33-44.34-7.08-1.79.15-3.61.08-5.41.01-16.69-.66-33.27.14-49.49 4.45-6.73 1.79-12.3-1.18-17.72-4-4.16-2.17-8.09-3.98-12.88-3.5-1.54.16-3.15-.26-4.73-.47-3.55-.49-5.81-2.11-6.76-5.94-.56-2.26-2.28-4.44-3.97-6.17-3.04-3.1-6.57-5.7-9.64-8.77-1.03-1.02-1.87-2.86-1.79-4.27 1.02-18.74 2.54-37.45 3.27-56.19.48-12.38-.09-24.79-.23-37.19-.04-3.82-.08-7.64-.38-11.44-.77-9.84-.01-19.39 3.97-28.61.95-2.19.88-4.98.72-7.45-1.08-16.08-2.68-32.13-3.33-48.22-.25-6.24 1.38-12.58 2.4-18.84 2.37-14.53 5.06-29.01 7.26-43.57.68-4.46 3.34-6.55 6.99-7.6 3.69-1.03 7.37-.73 10.48 1.97 4.7 4.08 10.31 5.23 16.33 4.71 8.02-.7 16.02-1.88 24.05-2.16 13.13-.47 26.27-.49 39.41-.5 12.59-.01 24.53-2.72 36.12-7.58 2.77-1.16 6.15-1.4 9.22-1.26 25.19 1.1 50.37 2.38 75.56 3.64 1.25.06 2.51.36 3.7.74 5.24 1.7 10.61 3.12 15.64 5.3 7.38 3.21 14.9 3.19 22.68 2.69 5.99-.38 12.22-.88 18 .34 11.48 2.43 19.38 9.58 22.7 21.16.45 1.59.48 3.3.74 5.22z" fill="#010000"/><path d="m186.81 179.52c6.45 0 12.92-.27 19.36.07 9.06.48 18.18.9 27.14 2.26 12.12 1.84 24.17 4.32 36.14 6.99 7.42 1.66 10.2 5.96 9.64 13.46-.06.84-1.23 2.16-2.05 2.3-19.82 3.46-39.65 6.89-59.52 9.99-2.08.32-4.57-1.2-6.69-2.24-2.01-.99-3.83-1.26-6.03-.69-6.76 1.76-13.58 3.27-20.36 4.95-8.33 2.06-16.23-.08-23.95-2.72-9.2-3.15-18.25-6.77-27.31-10.32-.98-.38-1.95-1.52-2.33-2.53-1.1-2.97-1.82-6.08-2.86-9.08-.61-1.76-.07-2.65 1.48-3.52 7.67-4.29 16.06-6.04 24.65-6.69 10.87-.82 21.79-1.12 32.68-1.64 0-.19.01-.39.01-.59z" fill="#010000"/><g fill="#fafafb"><path d="m361.2 9.6.8-1c.9.7 1.9 1.4 2.9 2.3l-.9 1.1c-1-1-2-1.8-2.8-2.4zm.5 10.6c.9-2.1 1.6-4.3 2.3-6.7.4.2.8.4 1.3.6-.7 2.1-1.5 4.3-2.2 6.6zm.4-15.2.9-.9c1 .8 2 1.6 2.8 2.4l-1 1c-.9-.9-1.8-1.7-2.7-2.5zm12.5-1.2h1.2v1.4h2.7v1.1h-2.7v2.7h-1.2v-.6h-1.8v1.3h4.9v3.8h-1.2v-.5h-3.7c0 .4-.1.9-.1 1.2h5.1v1h-5.2c0 .5-.1.9-.2 1.2h6v1h-5.2c1.1 1.3 2.9 2 5.5 2.2-.4.4-.7.8-.9 1.3-2.9-.5-4.8-1.6-5.7-3.5h-.1c-.8 1.7-2.7 2.9-5.9 3.6-.2-.4-.6-.8-.9-1.1 2.8-.6 4.6-1.4 5.4-2.5h-4.8v-1h5.3c.1-.3.2-.7.2-1.2h-4.9v-1h5c0-.4 0-.8.1-1.2h-3.5v.5h-1.2v-3.8h4.9v-1.3h-1.8v.5h-1.2v-2.7h-2.7v-1h2.6v-1.4h1.2v1.4h4.7v-1.4zm-6.6 8.3h3.6c0-.4 0-.9 0-1.4h-3.6zm1.9-4.6h4.7v-1.3h-4.7zm6.6 3.2h-3.7v1.4h3.7z"/><path d="m385.3 3.8h1.3v2.2h2.8v-2.2h1.3v2.2h4.1v9.1h1.7v1.3h-16.9v-1.3h1.7v-9.1h4.1v-2.2zm.4 13.1.7 1.2c-1.8.9-3.8 1.9-6 2.9-.2-.4-.5-.8-.8-1.3 2.3-1 4.3-1.9 6.1-2.8zm-3.1-6.4h2.8v-3.2h-2.8zm0 4.6h2.8v-3.3h-2.8zm4-4.6h2.8v-3.2h-2.8zm0 4.6h2.8v-3.3h-2.8zm3.7 1.9c2.1.9 4.1 1.8 6.1 2.7l-.7 1.3c-2.2-1.1-4.2-2-6.1-2.9zm3.2-9.7h-2.8v3.2h2.8zm-2.8 7.8h2.8v-3.3h-2.8z"/></g></svg>