<svg enable-background="new 0 0 400 400" viewBox="0 0 400 400" xmlns="http://www.w3.org/2000/svg"><path d="m209.44 312.2c-.14 1.73-.22 2.67-.31 3.79-.72.1-1.43.29-2.13.28-8.58-.17-17.16-.52-25.74-.55-17.11-.06-34.11-.9-51.05-3.66-9.59-1.56-19.37-2.07-29.09-2.77-2.53-.18-4.24-.86-5.21-3.16-1.23-2.92-3.39-3.65-6.14-2.41-9.13 4.12-17.17 1.7-25.09-3.51-9.42-6.2-18.89-12.22-24.92-22.2-2.51-4.15-4.47-8.34-3.66-13.44.38-2.39.01-4.88.24-7.3.41-4.35-.51-8.04-2.9-11.93-1.9-3.09-2.26-7.21-.34-11.13.96-1.96 1.1-4.52.96-6.76-.35-5.62-1.98-11.04.09-16.87 1.03-2.91-.36-6.67-.62-10.05-.06-.82-.33-1.97.09-2.43 2.96-3.26 2.31-7.18 1.9-10.88-.63-5.62.87-10.91 1.6-16.35.48-3.59-.05-7.31-.14-10.98-.03-1.37-.06-2.74-.18-4.1-.23-2.58-.56-5.14-.77-7.72-.1-1.25-.26-2.56.02-3.75 1.54-6.69 3.34-13.32 4.77-20.03.71-3.34.8-6.82 1.23-10.23.14-1.13.31-2.31.75-3.35 3.5-8.41 7.02-16.8 10.66-25.15.41-.94 1.83-2.35 2.29-2.18 1.34.49 2.76 1.45 3.53 2.63.61.93.22 2.48.46 3.72.34 1.75.44 3.72 1.36 5.13 2.3 3.53 2.8 6.76-.09 10.16-.36.42-.5 1.48-.23 1.93 2.09 3.39 1.01 6.83.16 10.18-3.88 15.24-5.11 30.69-3.59 46.31.32 3.29-.18 5.76-2.26 7.4 1.11 2.74 1.98 5.17 3.09 7.48.77 1.59 1.8 3.08 2.84 4.52 9.66 13.47 23.24 15.74 38.42 13.36 3.24-.51 6.48-1.32 9.73-1.4 1.66-.04 3.67.86 4.97 1.98 2.28 1.96 4.45 2.08 7.26 1.45 2.57-.57 5.34-.18 8.03-.27 3.26-.1 6.54-.08 9.78-.41 10.51-1.06 20.94-.52 31.36 1.11 2.92.45 5.92.63 8.87.51 3.86-.16 7.61-.34 11.05 1.9.44.29 1.46.14 1.96-.19 2.48-1.64 4.91-1.41 7.55-.35 2.17.87 4.5 2.19 6.59-.48.37-.47 1.59-.36 2.42-.38 17.59-.44 35.17-.85 52.76-1.28 2.5-.06 4.82 1.38 7.5.68.63-.16 1.82 1.81 3.02 3.09 2.38-5.52 6.96-4.67 12.05-4.1 4.97.56 10.24.34 15.12-.74 6.11-1.35 11.16.36 16.33 3.01 3.19 1.64 6.46 3.21 9.86 4.3 3.78 1.21 5.08.14 4.66-3.71-1.04-9.42.89-18.58 2.18-27.79.52-3.75.46-7.29-.58-10.94-1.8-6.31-2.58-12.67.12-18.99.28-.66.42-1.45.4-2.17-.14-7.73-.21-15.46-.52-23.19-.23-5.67.15-7.77 3.06-11.57-.89-1.02-1.82-2.1-2.87-3.31 1.28-1.08 2.48-2.09 3.68-3.09-.31-.04-.62-.09-.93-.13.15-2.42.21-4.86.5-7.26.15-1.24.95-2.41 1.05-3.65.19-2.49 1.45-4.44 3.76-4.26 2.29.18 5.4.98 6.55 2.63 3.51 5.01 5.42 10.53 3.67 17.05-1.6 5.98.22 11.97 1.79 17.82 1.13 4.19 2.05 8.32 1.54 12.82-.25 2.18 1.09 4.69 2.14 6.83 1.39 2.84 1.47 5.63.89 8.62-.64 3.33-1.28 6.68-1.48 10.05-.11 1.85.67 3.76 1.09 5.63.2.89.72 1.76.73 2.64.07 8.13-.47 16.3.18 24.37 1.69 20.81 3.91 41.57 5.86 62.36.12 1.33.04 2.77-.34 4.04-2.13 7.1-4.31 14.18-6.66 21.21-.46 1.39-1.51 2.83-2.7 3.68-5.24 3.73-9.85 7.82-12.68 13.89-.98 2.11-3.7 3.77-5.99 4.85-14.39 6.75-29.81 9.5-45.47 10.99-6.4.61-12.89.2-19.31.68-4.73.35-9.4 1.42-14.1 2.14-1.05.16-2.11.26-3.16.31-7.59.36-15.18.84-22.78.98-3.99.07-8.02-.28-11.99-.77-2.1-.26-4.85-.15-4.95-3.66-.01-.51-2.04-.93-3.55-1.53zm123.96-80.86c-.39-3.95-.77-7.02-.95-10.09-.08-1.46.36-2.95.36-4.42-.02-5.92-6.32-10.02-11.68-7.52-11.09 5.18-22.87 7.59-34.95 8.7-9.79.9-19.63 1.4-29.37 2.65-3.95.5-7.04-.22-10.01-2.58-3.59-2.86-5.03-2.67-8.69.18-1.36 1.06-3.32 1.88-5.01 1.89-8.47.05-16.97.1-25.42-.46-4.5-.3-8.39.73-12.11 2.83-3.84 2.17-7.85 2.09-12.03 1.68-4.92-.48-9.88-.65-14.81-1.04-2.3-.18-5.02.13-6.76-1-3.1-2-5.78-2.52-8.86-.47-.16.11-.41.09-.61.15-7.66 2.26-15.36.57-23.05.3-2.85-.1-5.96-.9-8.49-.03-4.48 1.52-8.93 1.52-13.47 1.51-8.06 0-16.12-.22-24.17.07-5.69.21-10.54-1.33-15.15-4.58-1.88-1.32-4.36-2.05-6.66-2.44-2.39-.39-3.76.69-3.7 3.63.33 15.37.44 30.73.67 46.1.01.79.12 1.94.63 2.31 4.86 3.47 8.68 8.3 14.76 10.2 7.42 2.32 15.32 3.58 21.66 8.65.37.3.98.37 1.5.41 10.44.86 20.88 1.7 31.32 2.57 1.14.1 2.75-.05 3.33.63 2.85 3.29 5.9 1.51 9.06.89 2.47-.48 5.05-.52 7.58-.5 2.43.02 4.85.4 7.28.57 5.3.36 10.34-.05 15.54-1.92 8.21-2.96 16.95-2.21 25.51-1.26 10.08 1.12 20.1 2.84 30.29.82 5.84-1.16 11.73-1.25 17.68-.34 2.43.37 5.01-.28 7.52-.47 2.7-.2 5.41-.71 8.09-.55 4.95.29 9.96 1.37 14.75-.54 8.68-3.46 18.5-1.36 27-5.63.35-.18.84-.07 1.26-.11 6.54-.58 13.08-1.19 19.63-1.72 5.2-.42 7.7-2.86 7.82-8.06.21-9.11.14-18.24.5-27.34.17-4.98-.12-10.19 2.21-13.67zm-29.1 63.73c-1.38 2.06-2.54 3.32-3.09 4.81-.25.67.77 2.58 1.14 2.56 1.43-.07 2.84-.7 4.4-1.16-.81-2.05-1.43-3.6-2.45-6.21z" fill="#010000"/><path d="m118.49 112.78c7.62-3.56 15.71-4.22 23.9-4.34 7.1-.1 14.21-.14 21.31-.23.95-.01 1.96.06 2.84-.23 8.54-2.9 17.35-2.09 26.14-2.14 17.42-.09 34.72 1.49 52 3.4 3.96.44 7.88 1.62 11.69 2.86 1.71.55 3.38 1.83 4.58 3.21 1.42 1.64 1.4 3.39-.43 5.27-6.49 6.68-14.62 8.65-23.46 8.41-6.77-.19-13.61-.4-20.28-1.45-9.26-1.46-18.44-1.71-27.72-.6-1.95.23-4.12.05-5.96-.59-3.36-1.18-6.35-1.02-9.29 1.44-2.41-4.12-5.88-5.17-11.19-4.1 1.93 1.29 3.12 2.09 4.32 2.89-2.21.24-4.55 1.67-5.85-1.75-.41-1.09-2.65-1.49-4.24-2.3-.43 1.36-.79 2.52-.9 2.86-8.76-1.16-17.28-2.29-25.8-3.43-.52-.07-1.04-.21-1.57-.26-5.32-.54-8.67-3.4-10.09-8.92z" fill="#010000"/><g fill="#fafafb"><path d="m361.2 9.6.8-1c.9.7 1.9 1.4 2.9 2.3l-.9 1.1c-1-1-2-1.8-2.8-2.4zm.5 10.6c.9-2.1 1.6-4.3 2.3-6.7.4.2.8.4 1.3.6-.7 2.1-1.5 4.3-2.2 6.6zm.4-15.2.9-.9c1 .8 2 1.6 2.8 2.4l-1 1c-.9-.9-1.8-1.7-2.7-2.5zm12.5-1.2h1.2v1.4h2.7v1.1h-2.7v2.7h-1.2v-.6h-1.8v1.3h4.9v3.8h-1.2v-.5h-3.7c0 .4-.1.9-.1 1.2h5.1v1h-5.2c0 .5-.1.9-.2 1.2h6v1h-5.2c1.1 1.3 2.9 2 5.5 2.2-.4.4-.7.8-.9 1.3-2.9-.5-4.8-1.6-5.7-3.5h-.1c-.8 1.7-2.7 2.9-5.9 3.6-.2-.4-.6-.8-.9-1.1 2.8-.6 4.6-1.4 5.4-2.5h-4.8v-1h5.3c.1-.3.2-.7.2-1.2h-4.9v-1h5c0-.4 0-.8.1-1.2h-3.5v.5h-1.2v-3.8h4.9v-1.3h-1.8v.5h-1.2v-2.7h-2.7v-1h2.6v-1.4h1.2v1.4h4.7v-1.4zm-6.6 8.3h3.6c0-.4 0-.9 0-1.4h-3.6zm1.9-4.6h4.7v-1.3h-4.7zm6.6 3.2h-3.7v1.4h3.7z"/><path d="m385.3 3.8h1.3v2.2h2.8v-2.2h1.3v2.2h4.1v9.1h1.7v1.3h-16.9v-1.3h1.7v-9.1h4.1v-2.2zm.4 13.1.7 1.2c-1.8.9-3.8 1.9-6 2.9-.2-.4-.5-.8-.8-1.3 2.3-1 4.3-1.9 6.1-2.8zm-3.1-6.4h2.8v-3.2h-2.8zm0 4.6h2.8v-3.3h-2.8zm4-4.6h2.8v-3.2h-2.8zm0 4.6h2.8v-3.3h-2.8zm3.7 1.9c2.1.9 4.1 1.8 6.1 2.7l-.7 1.3c-2.2-1.1-4.2-2-6.1-2.9zm3.2-9.7h-2.8v3.2h2.8zm-2.8 7.8h2.8v-3.3h-2.8z"/></g></svg>