<svg enable-background="new 0 0 400 400" viewBox="0 0 400 400" xmlns="http://www.w3.org/2000/svg"><path d="m110.83 357.46c11.05-7.79 19.9-17.02 24.54-29.65 2.15-5.86 4.31-11.72 6.16-17.68 8.92-28.81 17.97-57.58 23.58-87.3 4.08-21.64 6.62-43.33 4.93-65.4-.48-6.2-.63-12.51-.08-18.69 1.13-12.71-1.27-25.14-2.26-37.68-.38-4.86-1.28-9.69-1.46-14.54-.34-9.14-2.31-17.81-6.65-25.87-1.7-3.15-1.99-6.26-1.12-9.75 1.3-5.23 2.23-10.54 3.37-16.07 5.04.2 9.72 1.59 13.76 4.26 4.39 2.9 8.74 6.07 12.41 9.8 22.8 23.22 45.47 46.57 67.97 70.07 2.76 2.88 4.6 6.8 6.36 10.48 10.17 21.37 17.05 43.81 20.57 67.17 2.87 18.98 1.05 37.64-6.89 55.37-1.06 2.37-2.86 4.41-4.36 6.57-2.77 3.99-4.71 8.03-3.98 13.28.63 4.5-1.68 8.5-4.71 11.74-13.9 14.87-27.89 29.65-41.89 44.42-.85.89-1.95 1.63-3.07 2.17-19.92 9.63-39.79 19.35-59.81 28.76-8.7 4.09-17.59 8.24-27.46 8.24-5.11 0-10.24-1.18-15.33-2.01-.82-.13-1.74-1.1-2.17-1.91-.92-1.77-1.55-3.68-2.41-5.78zm72.4-53.79c1.39-.19 2.34-.27 3.27-.46 1.04-.21 2.06-.48 3.07-.79 10.5-3.22 18.76-9.79 25.68-17.99 10.86-12.88 21.43-26.02 32.04-39.11.81-.99 1.21-2.45 1.42-3.76.91-5.54 1.77-11.09 2.45-16.66.52-4.28 1.54-8.71.96-12.88-2.76-19.92-9.08-38.92-16-57.72-4.46-12.11-10.14-23.55-18.93-33.19-4.72-5.18-10.02-9.61-16.85-12.63.16 2.5.29 4.61.42 6.71.72 11.21 2.12 22.43 2.02 33.63-.19 21.83-1.47 43.65-1.81 65.48-.19 11.67-2.16 22.76-5.9 33.84-4.45 13.21-7.87 26.79-11.4 40.29-1.25 4.86-1.65 9.97-.44 15.24z" fill="#010000"/><g fill="#fafafb"><path d="m361.2 9.6.8-1c.9.7 1.9 1.4 2.9 2.3l-.9 1.1c-1-1-2-1.8-2.8-2.4zm.5 10.6c.9-2.1 1.6-4.3 2.3-6.7.4.2.8.4 1.3.6-.7 2.1-1.5 4.3-2.2 6.6zm.4-15.2.9-.9c1 .8 2 1.6 2.8 2.4l-1 1c-.9-.9-1.8-1.7-2.7-2.5zm12.5-1.2h1.2v1.4h2.7v1.1h-2.7v2.7h-1.2v-.6h-1.8v1.3h4.9v3.8h-1.2v-.5h-3.7c0 .4-.1.9-.1 1.2h5.1v1h-5.2c0 .5-.1.9-.2 1.2h6v1h-5.2c1.1 1.3 2.9 2 5.5 2.2-.4.4-.7.8-.9 1.3-2.9-.5-4.8-1.6-5.7-3.5h-.1c-.8 1.7-2.7 2.9-5.9 3.6-.2-.4-.6-.8-.9-1.1 2.8-.6 4.6-1.4 5.4-2.5h-4.8v-1h5.3c.1-.3.2-.7.2-1.2h-4.9v-1h5c0-.4 0-.8.1-1.2h-3.5v.5h-1.2v-3.8h4.9v-1.3h-1.8v.5h-1.2v-2.7h-2.7v-1h2.6v-1.4h1.2v1.4h4.7v-1.4zm-6.6 8.3h3.6c0-.4 0-.9 0-1.4h-3.6zm1.9-4.6h4.7v-1.3h-4.7zm6.6 3.2h-3.7v1.4h3.7z"/><path d="m385.3 3.8h1.3v2.2h2.8v-2.2h1.3v2.2h4.1v9.1h1.7v1.3h-16.9v-1.3h1.7v-9.1h4.1v-2.2zm.4 13.1.7 1.2c-1.8.9-3.8 1.9-6 2.9-.2-.4-.5-.8-.8-1.3 2.3-1 4.3-1.9 6.1-2.8zm-3.1-6.4h2.8v-3.2h-2.8zm0 4.6h2.8v-3.3h-2.8zm4-4.6h2.8v-3.2h-2.8zm0 4.6h2.8v-3.3h-2.8zm3.7 1.9c2.1.9 4.1 1.8 6.1 2.7l-.7 1.3c-2.2-1.1-4.2-2-6.1-2.9zm3.2-9.7h-2.8v3.2h2.8zm-2.8 7.8h2.8v-3.3h-2.8z"/></g></svg>