<svg enable-background="new 0 0 400 400" viewBox="0 0 400 400" xmlns="http://www.w3.org/2000/svg"><path d="m175.9 243.06c1.22-1.34 2.56-2.28 3.12-3.57.62-1.41 1.15-3.39.61-4.66-1.43-3.41-1.8-6.81-.82-10.24 1.54-5.4.59-10.64-.08-16.03-.63-5.08-.4-10.28-.4-15.42 0-2.84.37-5.68.45-8.53.17-6.01.14-12.03.41-18.04.2-4.56-1.45-8.47-3.58-12.31-.96-1.74-1.69-3.61-2.58-5.39-1.68-3.36-3.47-6.67-5.1-10.06-1.31-2.74-2.42-5.57-3.68-8.34-1.78-3.93-3.25-8.06-5.5-11.71-2.75-4.48-4.82-9.11-6.04-14.21-1.3-5.44-2.89-10.82-4.43-16.48 1.19-.55 2.29-1.07 3.69-1.72 6.82 8.45 13.69 16.78 20.32 25.29 1.52 1.95 2.06 4.65 3.4 6.78.71 1.13 2.19 1.78 3.32 2.65.7-.98 1.7-1.86 2.04-2.95 3.17-10.17 5.15-20.54 4.76-31.25-.02-.63.08-1.38-.2-1.88-4.31-7.57-1.6-15.17-.27-22.82 1.12-6.46 1.83-12.99 2.95-19.44.45-2.59 1.54-5.07 2.41-7.81 4.68 2.17 6.3 5.57 6.48 9.52.26 5.7.07 11.43.07 17.14 0 14.63.06 29.26-.03 43.9-.04 6.36-.43 12.71-.59 19.06-.11 4.38.68 6.11 3.8 8.74 5.19-4.45 10.55-8.77 15.56-13.48 1.85-1.74 2.46-4.8 4.32-6.52 2.92-2.71 6.45-4.75 9.65-7.16 3.1-2.34 6.33-4.56 9.1-7.26 3.34-3.25 6.98-4.52 12.04-3.33-.95 1.72-1.55 3.44-2.65 4.73-6.94 8.15-13.84 16.35-21.06 24.25-4.96 5.43-10.69 10.16-15.58 15.64-13.22 14.8-13.05 14.9-16.47 34.21-1.04 5.87-1.75 11.52-.21 17.52.85 3.31.02 7.17-.58 10.7-1.04 6.16-.9 12.26.29 18.31 2.13 10.84 1.47 21.72 1 32.63-.08 1.83.17 3.88.94 5.51 1.54 3.3 1.89 6.62 1.59 10.18-.45 5.28-.58 10.59-1.04 15.86-.17 2.02.36 3.4 1.96 4.63 9.73 7.49 19.45 14.99 29.1 22.59 4.94 3.88 8.89 8.51 9.86 15.03.17 1.13.14 2.28.25 4.32-4.87-1.89-9.57-3.01-13.5-5.4-7.85-4.77-15.67-9.69-21.64-17-1.47-1.8-4.11-2.65-7.05-4.44-1.04 6.58-2.07 12.16-2.79 17.79-1.26 9.79-2.13 19.63-.72 29.47.46 3.21-.43 5.06-3.77 5.47-.5.06-.96.41-1.8.8.86.32 1.44.59 2.05.75s1.25.23 1.85.33c.91 3.36-1.1 6.89-4.33 7.42-2.14.36-3.51-.08-3.61-2.9-.42-12.39-1.18-24.77-1.59-37.17-.14-4.11.58-8.24.6-12.37.02-4.84-.3-9.67-.48-14.51-.35-.18-.69-.36-1.04-.54-1.62 1.2-3.51 2.15-4.82 3.63-7.34 8.23-14.57 16.55-21.75 24.92-1.5 1.75-2.7 3.79-3.87 5.79-1.24 2.12-2.92 3.25-5.9 3.08 1.13-4.2.4-8.52 4.69-11.82 3.14-2.41 5.65-6.12 7.4-9.75 3.96-8.19 9.1-15.48 14.9-22.39 1.91-2.27 3.53-4.82 5.6-6.91 4.3-4.35 6.17-9.63 6.03-15.53-.16-6.66-.84-13.3-1.2-19.96-.21-3.9-3.82-5.01-5.86-7.34z" fill="#010000"/><g fill="#fafafb"><path d="m361.2 9.6.8-1c.9.7 1.9 1.4 2.9 2.3l-.9 1.1c-1-1-2-1.8-2.8-2.4zm.5 10.6c.9-2.1 1.6-4.3 2.3-6.7.4.2.8.4 1.3.6-.7 2.1-1.5 4.3-2.2 6.6zm.4-15.2.9-.9c1 .8 2 1.6 2.8 2.4l-1 1c-.9-.9-1.8-1.7-2.7-2.5zm12.5-1.2h1.2v1.4h2.7v1.1h-2.7v2.7h-1.2v-.6h-1.8v1.3h4.9v3.8h-1.2v-.5h-3.7c0 .4-.1.9-.1 1.2h5.1v1h-5.2c0 .5-.1.9-.2 1.2h6v1h-5.2c1.1 1.3 2.9 2 5.5 2.2-.4.4-.7.8-.9 1.3-2.9-.5-4.8-1.6-5.7-3.5h-.1c-.8 1.7-2.7 2.9-5.9 3.6-.2-.4-.6-.8-.9-1.1 2.8-.6 4.6-1.4 5.4-2.5h-4.8v-1h5.3c.1-.3.2-.7.2-1.2h-4.9v-1h5c0-.4 0-.8.1-1.2h-3.5v.5h-1.2v-3.8h4.9v-1.3h-1.8v.5h-1.2v-2.7h-2.7v-1h2.6v-1.4h1.2v1.4h4.7v-1.4zm-6.6 8.3h3.6c0-.4 0-.9 0-1.4h-3.6zm1.9-4.6h4.7v-1.3h-4.7zm6.6 3.2h-3.7v1.4h3.7z"/><path d="m385.3 3.8h1.3v2.2h2.8v-2.2h1.3v2.2h4.1v9.1h1.7v1.3h-16.9v-1.3h1.7v-9.1h4.1v-2.2zm.4 13.1.7 1.2c-1.8.9-3.8 1.9-6 2.9-.2-.4-.5-.8-.8-1.3 2.3-1 4.3-1.9 6.1-2.8zm-3.1-6.4h2.8v-3.2h-2.8zm0 4.6h2.8v-3.3h-2.8zm4-4.6h2.8v-3.2h-2.8zm0 4.6h2.8v-3.3h-2.8zm3.7 1.9c2.1.9 4.1 1.8 6.1 2.7l-.7 1.3c-2.2-1.1-4.2-2-6.1-2.9zm3.2-9.7h-2.8v3.2h2.8zm-2.8 7.8h2.8v-3.3h-2.8z"/></g></svg>