<svg enable-background="new 0 0 400 400" viewBox="0 0 400 400" xmlns="http://www.w3.org/2000/svg"><path d="m378.6 9.2.8-1c.9.7 1.9 1.4 2.9 2.3l-.9 1.1c-1.1-.9-2-1.7-2.8-2.4zm.5 10.7c.9-2.1 1.6-4.3 2.3-6.7.4.2.8.4 1.3.6-.7 2.1-1.5 4.3-2.2 6.6zm.4-15.2.9-.9c1 .8 2 1.6 2.8 2.4l-1 1c-1-.9-1.9-1.8-2.7-2.5zm12.5-1.3h1.2v1.4h2.7v1.1h-2.7v2.7h-1.2v-.5h-1.8v1.3h4.9v3.8h-1.2v-.5h-3.7c0 .4-.1.9-.1 1.2h5.1v1h-5.2c0 .5-.1.9-.2 1.2h6v1h-5.2c1.1 1.3 2.9 2 5.5 2.2-.4.4-.7.8-.9 1.3-2.9-.5-4.8-1.6-5.7-3.5h-.1c-.8 1.7-2.7 2.9-5.9 3.6-.2-.4-.6-.8-.9-1.1 2.8-.6 4.6-1.4 5.4-2.5h-4.8v-1h5.3c.1-.3.2-.7.2-1.2h-4.9v-1h5c0-.4 0-.8.1-1.2h-3.6v.5h-1.2v-3.8h4.9v-1.3h-1.8v.5h-1.2v-2.7h-2.6v-1.1h2.6v-1.4h1.2v1.4h4.7v-1.4zm-6.7 8.4h3.6c0-.4 0-.9 0-1.4h-3.6zm1.9-4.7h4.7v-1.2h-4.7zm6.7 3.3h-3.7v1.4h3.7z" fill="#fafbfc"/><path d="m384.7 21.4h1.3v2.2h2.8v-2.2h1.3v2.2h4.1v9.1h1.7v1.3h-16.9v-1.3h1.7v-9.1h4.1v-2.2zm.3 13.2.7 1.2c-1.8.9-3.8 1.9-6 2.9-.2-.4-.5-.8-.8-1.3 2.4-1 4.4-2 6.1-2.8zm-3.1-6.5h2.8v-3.2h-2.8zm0 4.6h2.8v-3.3h-2.8zm4.1-4.6h2.8v-3.2h-2.8zm0 4.6h2.8v-3.3h-2.8zm3.6 1.9c2.1.9 4.1 1.8 6.1 2.7l-.7 1.3c-2.2-1.1-4.2-2-6.1-2.9zm3.3-9.7h-2.8v3.2h2.8zm-2.8 7.8h2.8v-3.3h-2.8z" fill="#fafbfc"/><g fill="#010104"><path d="m155.23 92.05c5.34-1.66 10.62-1.52 15.87-.58 7.28 1.3 14.52 1.22 21.83.2 1.42-.2 3.07 1.17 4.61 1.81-.04.32-.08.63-.12.95.81-.6 1.62-1.19 2.42-1.8 2.68-2.02 5.55-3.21 9.04-3.36 6.33-.28 12.92-1.43 15.1-8.31 1.95-6.17 2.34-12.84 3.25-19.31.1-.68-.77-1.67-1.42-2.27-3.95-3.69-7.89-7.41-12.01-10.9-1.07-.91-2.79-1.46-4.21-1.47-4.66-.03-9.35-.03-13.96.54-3.82.48-7.5 1.97-11.31 2.66-2.9.52-5.9.6-8.86.63-.84.01-1.96-.68-2.48-1.39-1.35-1.88-2.44-3.94-3.82-6.23 7.52-3.4 14.89-5.68 23.11-3.71 1.55.37 3.43-.53 5.13-.93 2.28-.55 5.02-3.11 5.96 1.62.07.34 1.59.53 2.43.53.41 0 .81-.63 1.24-.94 2.25-1.64 4.83-4.96 6.7-4.59 5.19 1.01 11.06 1.3 14.71 6.38 2.65 3.69 5.76 7.07 8.33 10.81 1.28 1.86 1.92 4.2 2.63 6.39 1 3.06.97 5.9-2.57 7.4 2.97 5.89 2.27 9.05-2.13 14.19-3.76 4.4-7.24 9.08-10.52 13.86-1.46 2.12-1.59 4.27 1 6.55 3.35 2.94 3.51 7.54 3.83 11.79.67 8.98 1.29 17.96 1.9 26.95.06.93.27 2.16-.2 2.77-2.19 2.78-1.19 5.47.2 7.96 5.23 9.44 2.79 19.08 1.25 28.82-.95 6.04-1.19 12.2-1.58 18.31-.4 6.26-1.75 12.19-5.83 17.11-5.3 6.38-6.26 14.2-7.66 21.9-.51 2.8-1.2 5.58-1.72 8.38-.14.78-.03 1.63.07 2.44.33 2.55.98 5.08 1.02 7.63.05 3.05-.51 6.09 1.32 8.92.51.78.41 2.04.39 3.07-.17 10.71-.38 21.41-.58 32.12-.01.74-.02 1.49-.18 2.21-1.85 8.13-3.7 16.27-5.63 24.38-1.03 4.35-2.2 8.69-5.87 11.69-1.27 1.04-2.8 1.75-5.22 3.22 0-3.93-.34-6.97.09-9.89.5-3.44 1.55-6.81 2.57-10.15 2.24-7.34 3.87-14.73 3.56-22.48-.27-6.83.69-13.51 3.14-19.94.4-1.06.75-2.3.59-3.38-1.24-8.54-2.65-17.06-3.93-25.6-1.61-10.77.82-20.89 5.41-30.52 1.1-2.31 3.4-4.03 4.98-6.14 6.05-8.09 8.34-17.23 7.42-27.24-.22-2.42-.14-4.88-.44-7.29-.29-2.37-1.04-4.69-1.33-7.07-.53-4.36-.98-8.74-1.25-13.12-.2-3.28-1.5-4.62-4.69-3.73-1.87.52-3.85 1.44-5.24 2.75-6.75 6.37-14.16 11.74-22.23 16.34-1.9 1.08-2.83 3.89-4.17 5.92-.6.9-1.08 2.59-1.69 2.63-1.29.07-2.88-.4-3.91-1.2-2.23-1.74-4.82-3.5-6.08-5.88-1.09-2.04-.79-4.97-.58-7.47.07-.8 1.76-2.05 2.77-2.1 7.17-.37 13.13-3.56 19.01-7.3 2.7-1.72 5.88-2.69 8.79-4.1.68-.33 1.52-.99 1.67-1.65.94-4.15 3.83-5.96 7.63-7.02 5.93-1.65 6.56-3.14 5.39-9.61-.17-.93-.63-2.02-.33-2.8 1.73-4.45-.11-8.22-1.33-12.44-1.5-5.2-1.36-10.88-1.94-16.35-.08-.73-.21-1.47-.39-2.18-1.55-6-3.5-7-8.63-3.7-3.04 1.95-5.44.92-7.92-.53-2.84-1.66-5.03-1.99-6.81 1.53-1.06 2.09-2.99 1.9-4.92.74-.86-.52-2.31-1.13-2.94-.76-4.46 2.62-9.14 2.29-13.9 1.49-2.82-.47-5.6-1.2-8.43-1.54-3.87-.46-5.55-2.57-5.4-6.62z"/><path d="m169.81 213.1c1.52-9.21 2.86-17.97 4.54-26.66.24-1.25 2.01-2.81 3.32-3.09 1.37-.29 3.32.42 4.5 1.34 2.45 1.92 3.27 9.96 1.59 12.59-.16.26-.39.57-.65.65-4.45 1.32-4.88 5.43-6.12 8.9-1.19 3.33-2.93 5.82-7.18 6.27z"/><path d="m189.91 364.95c3.25-7.36 6.5-14.71 9.75-22.07 1.54 2.61 1.82 4.61.08 6.96-1.56 2.11-2.37 4.9-3.07 7.5-.96 3.55-2.57 6.43-5.9 8.14-.29-.18-.57-.36-.86-.53z"/></g></svg>