<svg enable-background="new 0 0 400 400" viewBox="0 0 400 400" xmlns="http://www.w3.org/2000/svg"><path d="m362.1 8.8c1.1.8 2.1 1.6 3.1 2.4l-1 1.1c-1.3-1.1-2.3-2-3-2.5zm1.9 4.8c.5.2.9.4 1.4.5-.6 2.3-1.3 4.5-1.9 6.8l-1.5-.5c.8-2.1 1.4-4.3 2-6.8zm-1-9.4c1.3.9 2.4 1.8 3.4 2.5l-1 1.1c-1.4-1.2-2.4-2.1-3.2-2.6zm3.7 2.2v-1.4h10.3v1.2c-.5 3.6-1.8 6.8-4 9.4 1.5 1.6 3.4 2.8 5.7 3.8-.3.4-.7.8-1.1 1.4-2.3-1.1-4.1-2.5-5.6-4.1-1.6 1.6-3.6 3.1-5.9 4.3-.3-.5-.7-.9-1-1.3 2.4-1.1 4.4-2.5 6-4.1-1.9-2.5-3-5.6-3.3-9.3h-1.1zm8.8 0h-6.4c.3 3.3 1.3 6 3 8.2 2-2.3 3.1-5.1 3.4-8.2z" fill="#fbfcfa"/><path d="m385.3 3.8h1.3v2.2h2.8v-2.2h1.3v2.2h4.1v9.1h1.7v1.3h-16.9v-1.3h1.7v-9.1h4.1v-2.2zm.4 13.1.7 1.2c-1.8.9-3.8 1.9-6 2.9-.2-.4-.5-.8-.8-1.3 2.3-1 4.3-1.9 6.1-2.8zm-3.1-6.4h2.8v-3.2h-2.8zm0 4.6h2.8v-3.3h-2.8zm4-4.6h2.8v-3.2h-2.8zm0 4.6h2.8v-3.3h-2.8zm3.7 1.9c2.1.9 4.1 1.8 6.1 2.7l-.7 1.3c-2.2-1.1-4.2-2-6.1-2.9zm3.2-9.7h-2.8v3.2h2.8zm-2.8 7.8h2.8v-3.3h-2.8z" fill="#fbfcfa"/><path d="m89.03 236.19c4.24-1.6 7.53-1.12 11.08 1.65 11.02 8.61 22.42 16.73 33.57 25.19 3.02 2.29 5.66 5.09 8.45 7.69 2.51 2.34 5.34 3.75 9.1 3.22.47-5.63 1.21-11.2 1.33-16.79.21-9.9 3.91-19.05 5.62-28.6 2.12-11.87 3.94-23.81 5.25-35.8.97-8.83.95-17.77 1.33-26.67.04-.92.07-2.02-.36-2.77-4.26-7.44-7.44-15.95-13.2-21.99-11.56-12.14-18.99-26.63-27.16-40.84-2.91-5.06-7.01-9.5-10.9-13.92-3-3.4-5.79-6.8-6.42-11.42-.15-1.13.05-2.98.75-3.41 1.55-.95 3.22-2.14 5.39-.27 7.37 6.38 14.71 12.85 22.53 18.66 10.82 8.03 19.47 17.79 26.19 29.4 1.85 3.2 3.76 6.51 6.29 9.15 4.75 4.96 9.98 9.46 15.07 14.21 4.99-5.04 7.55-10.95 8.63-17.8.55-3.46 2.39-6.69 3.47-10.08.41-1.28.76-2.84.41-4.07-5.08-17.68-11.77-34.66-22.14-50.02-3.27-4.85-5.82-10.19-6.24-16.13-.23-3.17.37-6.41.64-10.17 1.26.65 1.76.79 2.12 1.1 19.41 17.31 34.86 37.55 44.7 61.72 1.94 4.76 3.88 9.34 7.15 13.26 1.86 2.23 2.65 4.64 2.71 7.54.11 5.72 1 11.47.59 17.14-.36 5-1.93 9.94-3.14 14.86-2.47 10.07-5.14 20.1-7.52 30.2-.39 1.67-.17 3.83.57 5.38 4.78 9.91 9.8 19.71 14.69 29.57.59 1.2 1.26 2.62 1.13 3.86-.32 3.05.84 4.9 3.4 6.45 1.45.88 2.72 2.37 3.59 3.86 9.17 15.74 18.55 31.37 27.24 47.38 5.14 9.47 9.16 19.54 13.65 29.36.35.75.56 1.64.56 2.47-.04 6.96 2.95 12.67 7.36 17.74 2.91 3.36 4.22 7.19 4.37 11.57.04 1.31.59 2.68 1.17 3.89 1.19 2.48 2.77 4.79 3.82 7.32 1.6 3.85 4.14 6.5 8.16 7.76 1.83.57 3.4 1.53 2.45 3.91-.82 2.05-.98 4.71-4.47 4-6.57-1.33-13.02.08-19.55.82-4.1.46-8.64.19-12.52-1.11-21.75-7.3-44.28-12.72-64.76-23.22-12.93-6.63-24.95-15.16-36.96-23.46-7.7-5.32-15.27-10.61-24.32-13.4-1.2-.37-2.63-1.27-3.18-2.32-5.22-10.03-14.26-16.29-22.49-23.42-7.03-6.09-13.93-12.42-20.21-19.25-5.91-6.41-8.45-14.55-8.99-23.4z" fill="#010101"/></svg>