<svg enable-background="new 0 0 400 400" viewBox="0 0 400 400" xmlns="http://www.w3.org/2000/svg"><path d="m362.1 8.8c1.1.8 2.1 1.6 3.1 2.4l-1 1.1c-1.3-1.1-2.3-2-3-2.5zm1.9 4.8c.5.2.9.4 1.4.5-.6 2.3-1.3 4.5-1.9 6.8l-1.5-.5c.8-2.1 1.4-4.3 2-6.8zm-1-9.4c1.3.9 2.4 1.8 3.4 2.5l-1 1.1c-1.4-1.2-2.4-2.1-3.2-2.6zm3.7 2.2v-1.4h10.3v1.2c-.5 3.6-1.8 6.8-4 9.4 1.5 1.6 3.4 2.8 5.7 3.8-.3.4-.7.8-1.1 1.4-2.3-1.1-4.1-2.5-5.6-4.1-1.6 1.6-3.6 3.1-5.9 4.3-.3-.5-.7-.9-1-1.3 2.4-1.1 4.4-2.5 6-4.1-1.9-2.5-3-5.6-3.3-9.3h-1.1zm8.8 0h-6.4c.3 3.3 1.3 6 3 8.2 2-2.3 3.1-5.1 3.4-8.2z" fill="#fbfcfa"/><path d="m385.3 3.8h1.3v2.2h2.8v-2.2h1.3v2.2h4.1v9.1h1.7v1.3h-16.9v-1.3h1.7v-9.1h4.1v-2.2zm.4 13.1.7 1.2c-1.8.9-3.8 1.9-6 2.9-.2-.4-.5-.8-.8-1.3 2.3-1 4.3-1.9 6.1-2.8zm-3.1-6.4h2.8v-3.2h-2.8zm0 4.6h2.8v-3.3h-2.8zm4-4.6h2.8v-3.2h-2.8zm0 4.6h2.8v-3.3h-2.8zm3.7 1.9c2.1.9 4.1 1.8 6.1 2.7l-.7 1.3c-2.2-1.1-4.2-2-6.1-2.9zm3.2-9.7h-2.8v3.2h2.8zm-2.8 7.8h2.8v-3.3h-2.8z" fill="#fbfcfa"/><path d="m343.36 65.55c5.14 4.84 5.27 11.11 5.77 17.06 1.33 15.72 2.83 31.46 3.24 47.22.56 21.53 1.45 42.99 4.41 64.36.94 6.8.49 13.78 1.12 20.63 1.08 11.59 2.8 23.13 3.7 34.73.57 7.35.08 14.78.15 22.18.03 3.05-.15 6.2.5 9.14 1.46 6.63.6 13.02-.98 19.44-.68 2.77-.96 5.66-1.81 8.38-.93 2.96-2.24 5.82-3.51 8.66-1.07 2.41-2.49 4.68-3.45 7.13-2.99 7.62-8.48 12.52-16.1 15.16-2.1.73-4.22 1.42-6.39 1.9-4.93 1.08-9.48 2.86-13.43 6.11-.86.7-2.06 1.09-3.16 1.37-10.87 2.79-21.75 5.52-32.63 8.27-.62.16-1.24.44-1.85.42-10.36-.42-19.75 4.31-29.82 5.56-9.85 1.22-19.59.83-29.46-.02-9.45-.81-19.13-1.17-28.5-.02-10.3 1.26-20.25.15-30.34-.94-3.46-.37-7.01-.8-10.42-.39-10.04 1.2-19.86-.75-29.75-1.6-4.01-.35-8-1.02-12.01-1.24-10.59-.58-19.98-5.34-29.84-8.4-8.59-2.67-17.03-5.83-25.61-8.55-4.17-1.32-6.91-4.17-8.78-7.73-3.45-6.55-6.63-13.26-9.59-20.05-.72-1.65-.09-3.86-.18-5.82-.09-2.17.22-4.53-.52-6.47-1.75-4.55-2.31-9.12-2.29-13.96.12-22.48.18-44.97-.01-67.45-.07-8 1.05-15.8 2.2-23.67 1.14-7.83 1.52-15.78 1.91-23.69.67-13.65.91-27.32 1.75-40.96.2-3.31 2.19-6.47 3.08-9.78.76-2.8 1.39-5.69 1.6-8.58.14-1.84-.35-3.83-.97-5.61-3.39-9.76.14-19.26.91-28.86.2-2.53.44-5.05 2.8-6.78.43-.32.53-1.59.29-2.24-1.9-5.26-1.21-9.94 1.27-15.1 1.99-4.14 1.96-9.26 2.86-13.93.76-3.96 3.64-5.09 6.82-2.68 4.67 3.53 5.86 8.5 6.04 14.04.15 4.84.57 9.69 1.21 14.49.45 3.35 2.41 4.68 6.14 5.31 13.63 2.3 27.51.17 41.07 2.87 1.55.31 3.27.34 4.59 1.07 4.08 2.28 8.32 2.6 12.86 2.09 14.53-1.66 29-.01 43.47 1.01 16.09 1.14 32.13 1.97 48.22-.13 3.34-.44 6.94.42 10.32 1.14 9.77 2.07 19.48 1.59 28.93-1.17 4.68-1.37 9.09-1.46 13.72-.67 2.19.37 4.41.6 6.6 1 2.99.55 5.84.54 8.54-1.17.75-.48 1.83-.78 2.7-.69 10.54 1.13 20.58-2.12 30.84-3.44 5.18-.67 5.42-.85 6.24-6.09.74-4.68.81-9.47 1.15-14.22.29-3.92 1.44-7.37 5.45-8.91.85-.33 2.56-.11 3 .49 2.65 3.67 5.3 7.38 7.42 11.36 1.4 2.69 1.49 5.77-1.49 8.42zm-48.36 271.18c4.48.84 8.57.45 11.77-1.87 7.51-5.44 15.17-10.85 21.8-17.27 6.44-6.23 10.56-14.31 11.91-23.39.49-3.29.48-6.74.12-10.05-.8-7.24-2.65-14.34-1.57-21.77.54-3.7.78-7.67.02-11.28-.79-3.74-2.31-7.18-.16-10.91.37-.65.23-1.66.16-2.49-.5-5.28-1.15-10.54-1.57-15.82-.53-6.65-1.52-13.34-1.15-19.95.31-5.42.73-10.7-.62-16-.23-.91-.28-1.88-.34-2.83-.67-10.57-1.3-21.15-2-31.72-.37-5.66-1.63-11.23-.01-17 .85-3.02.63-6.45.36-9.65-.95-11.26-4.39-22.28-3-33.77.44-3.62-.93-5.41-4.59-5.77-3.24-.31-6.55-.23-9.79.07-4.21.38-8.37 1.29-12.58 1.71-7.83.77-15.66 1.45-22.57 5.69-.93.57-1.97 2.17-1.81 3.09.54 3.04 1.9 5.93 2.43 8.96 2.39 13.65 2.82 27.38 1.24 41.17-1.22 10.64-9.56 18.24-20.71 18.85-9.43.51-19.03.67-28.15 4.21-1.99.77-5.06-.04-7.18-1.06-4.81-2.3-7.62-6.49-9.33-11.53-2.24-6.6-4.69-13.13-7-19.71-.34-.98-.56-2.05-.61-3.09-.21-5.08-.23-10.18-.54-15.25-.36-5.8-.9-11.6-1.48-17.38-.24-2.44-1.54-3.4-4.26-3.39-9.54.05-19.07-.16-28.61-.47-7.3-.23-14.59-.71-21.88-1.15-6.76-.41-9.39 1.93-9.51 8.68-.03 1.69-.15 3.43.13 5.08 1.78 10.6-.15 21.13-.45 31.69-.24 8.41-2.32 16.83.32 25.27.92 2.93-.76 5.45-3.7 6.08-8.87 1.91-17.81 3.51-26.73 5.15-1 .18-2.11-.09-3.14-.3-2.5-.52-4.46-1.63-5.42-4.31-.32-.88-1.82-1.94-2.74-1.9-5.94.21-9.88-2.9-13.16-7.34-.63-.85-1.34-1.66-2.15-2.34-2.12-1.8-2.64-4.06-2.68-6.76-.14-8.25.03-16.48-1.99-24.64-1.36-5.49-1.93-11.22-2.31-16.88-.23-3.55 1.09-7.22.75-10.74-.39-4.01-1.24-8.25-3.13-11.72-.79-1.45-4.75-1.36-7.3-1.63-4.62-.5-7.35 1.27-8.36 5.78-1.67 7.43-3.07 14.91-4.45 22.4-.4 2.16-.27 4.42-.47 6.63-.26 2.93-.12 6.02-1.03 8.75-1.5 4.49-1.4 8.87-.91 13.43.3 2.81.29 5.7.05 8.52-.78 9.08-1.96 18.13-2.53 27.21-.37 5.88 1 12.04-4 15.85.58 2.18 1.27 3.65 1.32 5.14.15 4.56.35 9.14-.03 13.67-.37 4.45-2.02 8.85.6 13.18.3.49-.14 1.44-.25 2.17-1.14 7.7-3.78 15.32-1.24 23.23.12.37.1.93-.1 1.24-2.45 3.66-1.86 7.36-.78 11.36.63 2.35-.35 5.09-.03 7.58 1.66 12.82 3.46 25.62 5.38 38.4.18 1.21 1.26 2.67 2.34 3.3 5.58 3.26 11.19 6.48 16.99 9.32 3.54 1.74 7.43 2.76 11.54 4.24 0-1.65.03-2.69 0-3.73-.66-19.92-1.51-39.83 0-59.75.13-1.76.25-3.69 1.03-5.21 2.04-3.98 2.12-8.01 1.76-12.35-.24-2.98.69-6.05 1.11-9.19 2.18.35 3.45.46 4.67.77 4.5 1.17 8.9.92 13.49.06 4.4-.83 9.05-1.23 13.48-.78 6.29.64 12.6 1.84 18.7 3.54 4.4 1.23 8.58 3.46 12.65 5.62 2.65 1.41 3.96 3.86 3.65 7.15-.26 2.83-.55 5.86.13 8.55 1.81 7.17 1.04 14.31.78 21.51-.11 2.99.5 6.04 1.01 9.02.56 3.32 1.68 6.57 2.01 9.9.95 9.56 2.81 19.08 1.4 28.77-.15 1.01.26 2.1.35 3.15.25 2.67 1.38 4.01 4.38 4.09 9.64.26 19.27.7 28.9 1.27 6.44.38 12.85 1.15 19.28 1.66 3.58.28 5.53-.96 5.54-3.56.1-16.82-.3-33.65 2.45-50.35.97-5.92.79-12.06 2.14-17.87 1.37-5.91 3.29-11.47 1.14-17.67-1.19-3.45 1.15-6.18 4.72-7.21 6.59-1.91 13.28-2.49 20.11-2.23 1.75.07 3.72-.06 5.26-.79 5.38-2.55 10.82-2.74 16.3-.8 3.78 1.34 8.24 1.45 10.66 5.55 4.93 8.37 6.47 17.31 5.07 26.89-.27 1.83-.08 4 .67 5.67 4.28 9.61 6.79 19.53 6.92 30.12.08 8.02.71 16.05 1.11 24.23zm-13.52 2.07c-1.52-6.11-3.05-11.93-4.39-17.79-.94-4.11-2.54-8.32-2.28-12.39.98-15.7-.51-31.31-1.18-46.94-.19-4.38-4.02-7.04-8.26-5.82-8.03 2.31-16 4.81-24.04 7.05-2.07.57-2.57 1.36-2.39 3.5.46 5.69.8 11.4.74 17.1-.05 5.07-.57 10.15-1.11 15.2-1.11 10.29-2.37 20.57-3.57 30.86-.29 2.52-.81 5.04-.76 7.55.09 4.5 1.7 6.35 6.14 6.18 7.26-.27 14.52-.96 21.75-1.76 6.39-.7 12.74-1.78 19.35-2.74zm-142.16-27.26c-.41-.02-.81-.03-1.22-.05.81-15.22 1.58-30.43 2.45-45.64.14-2.43-.2-4.89-2.55-5.61-3.55-1.08-7.32-1.71-11.03-1.95-3.33-.22-6.72.29-10.07.56-4.07.32-8.18.48-12.18 1.22-1.22.23-2.87 2.08-3.02 3.34-.59 5.11-1.07 10.31-.84 15.44.35 7.65 2.54 15.27-.89 22.83-.61 1.36.05 3.32.2 4.99.71 8.21 1.42 16.41 2.19 24.61.18 1.88.34 3.84 1 5.57.42 1.09 1.62 2.32 2.72 2.65 9.8 2.93 19.74 3.54 29.8 1.37 2.51-.54 3.59-1.7 3.51-4.55-.23-8.25-.07-16.52-.07-24.78zm-47.01-211.25c.05.46.05 1.87.4 3.18 3.3 12.49 6.43 25.03 6.74 38.03.12 4.97 2.1 8.98 5.2 12.62 1.72 2.01 3.65 3.87 5.21 5.99 1.93 2.63 4.52 3.03 7.3 2.35 2.75-.67 5.37-1.82 8.06-2.75 2.12-.74 2.6-2.21 2.64-4.4.31-17.05.8-34.09 1.16-51.13.04-1.88-.24-3.8-.6-5.65-.38-1.95-1.56-2.97-3.75-3.13-8.66-.63-17.3-1.49-25.95-2.15-4.32-.35-6.39 1.74-6.41 7.04zm170.61 30.7c.27-.01.53-.03.8-.04-.95-11.08-1.95-22.16-2.82-33.24-.15-1.91-1.23-2.39-2.69-2.33-5.49.22-11 .37-16.46.91-2.9.29-5.75 1.27-8.57 2.09-2 .58-3.09 2.03-3.3 4.17-.37 3.69-1.05 7.36-1.2 11.06-.4 9.87-.19 19.71 2.97 29.24.67 2.01 1.59 3.64 3.84 4.2 5.33 1.31 10.59 3.24 15.99 3.8 3.19.33 6.65-1.36 9.88-2.46.75-.25 1.46-1.8 1.49-2.77.15-4.88.07-9.76.07-14.63z" fill="#010101"/></svg>