<svg enable-background="new 0 0 400 400" viewBox="0 0 400 400" xmlns="http://www.w3.org/2000/svg"><g fill="#010000"><path d="m228.83 81.33c-.92 4.65-2.15 8.05-5.15 11.03-10.59 10.54-20.94 21.32-31.25 32.14-1.17 1.22-2.15 3.26-2.11 4.89.4 17.45-5.3 33.06-14.07 47.78-.86 1.45-1.95 2.76-2.94 4.14-.43.59-.88 1.18-1.31 1.76-.26-.09-.52-.18-.77-.27-.09-1.51-.16-3.01-.27-4.52-.8-11.31-1.54-22.62-2.42-33.92-.68-8.74-.01-17.34 1.9-25.88.41-1.84.81-3.81.57-5.64-1.22-9.36-.32-18.52 1.73-27.69 1.86-8.32 2.61-16.75.2-25.17-.21-.73.27-1.7.57-2.51 1.1-3.02 2.35-5.99 3.39-9.03 1.22-3.57 1.94-7.35 3.52-10.74 1.71-3.67 5.53-3.56 7.66.04.71 1.2 1.07 2.79 1.08 4.21.1 13.56 0 27.12.16 40.68.06 5.39.55 10.77.98 16.15.21 2.54 1.43 3.72 4.33 4.35 5.31 1.16 9.12-.18 13.04-3.82 6.55-6.12 13.66-11.67 21.16-17.98zm-45.1 32.52c-4.74 3.02-8.21 9.45-6.63 12.27 7.73-3.52 7.73-3.52 6.63-12.27z"/><path d="m221.03 363.74c-.35-7.82-1.01-15.65-.87-23.46.05-2.58 1.82-5.37 3.44-7.61 2.16-2.99 2.07-5.4-.25-8.11-3.96-4.62-2.4-9.71-1.15-14.88 1.16-.06 2.19-.11 3.49-.17 0-1.47 0-2.9 0-4.52-10.78-3.19-20.18 4.47-31.05 4.07.74-.86 1.27-1.54 1.87-2.16 6.91-7.03 13.87-14.02 20.7-21.13.9-.94 1.54-2.53 1.59-3.84.39-11.65.67-23.31.84-34.97.02-1.3-.62-2.86-1.45-3.89-3.53-4.36-7.44-8.42-10.84-12.87-2.76-3.62-2.5-4.44.4-7.96 2.49-3.03 4.91-6.13 7.55-9.02.65-.71 2.17-1.2 3.11-.99 6.45 1.4 10.91 6.78 11.21 14.41.36 8.89.05 17.8.07 26.7 0 2.22 0 4.47.26 6.67.78 6.56 6.09 9.15 11.76 5.85 1.92-1.12 3.77-2.56 5.86-3.13 2.61-.71 5.43-.68 8.99-1.06-1.79 5.85-3.22 10.56-4.7 15.25-.15.46-.56.91-.97 1.2-5.52 3.91-11.05 7.8-16.17 11.39-1.37-1.11-2.55-2.8-3.45-2.67-2.35.36-5.54-.25-6.57 3.69 6.31-.32 6.93 3.38 6.98 8.47.04 4.35 2.53 8.74 2.3 13.02-.46 8.3-2.23 16.53-3.14 24.82-.4 3.63-.6 7.47.16 10.99 1.04 4.82-1.2 8.17-3.58 11.68-.21.31-.74.75-.96.68-3.35-1.14-4.31 1-5.43 3.55z"/><path d="m199.63 224.37c.34 2.31.61 4.17.95 6.49-4.61.41-8.99.93-13.38 1.07-.85.03-1.74-1.39-2.47-2.02-5.66 2.67-11.53 5.42-17.38 8.2-2.08.99-3.04 2.56-3.08 5.02-.11 6.99-.24 14-.83 20.97-.61 7.27-1.76 14.49-2.67 21.74-.54 4.31-1.13 8.61-1.54 12.94-.46 4.89-2.47 8.94-6.21 12.1-2.5 2.12-4.02 4.42-2.92 7.98 2.84 9.26.73 17.78-3.82 26.09-2.72 4.97-4.68 10.36-7.63 15.45.3-3.58.58-7.17.92-10.75.52-5.38 1.31-10.74 1.56-16.13.15-3.41.78-6.05 4.77-6.81-7.59-9.32-5.05-20.04-5.01-30.33.01-3.27.69-6.53.94-9.81.31-4.1 1.29-7.95 3.96-11.18 1.3-1.58 1.51-3.14.48-4.93-2.88-5.03-3.46-10.46-3.35-16.21.25-12.51.08-25.02.08-37.54 0-1.14 0-2.28 0-3.65 7.36.81 13.56 2.91 17.86 8.93 2.85 4 6.81 5.62 11.63 4.9 1.05-.16 2.33-.67 2.95-1.46 1.94-2.43 4.49-3.21 7.34-2.96 5.56.53 11.12 1.25 16.85 1.9z"/></g><path d="m361.2 9.6.8-1c.9.7 1.9 1.4 2.9 2.3l-.9 1.1c-1-1-2-1.8-2.8-2.4zm.5 10.6c.9-2.1 1.6-4.3 2.3-6.7.4.2.8.4 1.3.6-.7 2.1-1.5 4.3-2.2 6.6zm.4-15.2.9-.9c1 .8 2 1.6 2.8 2.4l-1 1c-.9-.9-1.8-1.7-2.7-2.5zm12.5-1.2h1.2v1.4h2.7v1.1h-2.7v2.7h-1.2v-.6h-1.8v1.3h4.9v3.8h-1.2v-.5h-3.7c0 .4-.1.9-.1 1.2h5.1v1h-5.2c0 .5-.1.9-.2 1.2h6v1h-5.2c1.1 1.3 2.9 2 5.5 2.2-.4.4-.7.8-.9 1.3-2.9-.5-4.8-1.6-5.7-3.5h-.1c-.8 1.7-2.7 2.9-5.9 3.6-.2-.4-.6-.8-.9-1.1 2.8-.6 4.6-1.4 5.4-2.5h-4.8v-1h5.3c.1-.3.2-.7.2-1.2h-4.9v-1h5c0-.4 0-.8.1-1.2h-3.5v.5h-1.2v-3.8h4.9v-1.3h-1.8v.5h-1.2v-2.7h-2.7v-1h2.6v-1.4h1.2v1.4h4.7v-1.4zm-6.6 8.3h3.6c0-.4 0-.9 0-1.4h-3.6zm1.9-4.6h4.7v-1.3h-4.7zm6.6 3.2h-3.7v1.4h3.7z" fill="#fafafb"/><path d="m385.3 3.8h1.3v2.2h2.8v-2.2h1.3v2.2h4.1v9.1h1.7v1.3h-16.9v-1.3h1.7v-9.1h4.1v-2.2zm.4 13.1.7 1.2c-1.8.9-3.8 1.9-6 2.9-.2-.4-.5-.8-.8-1.3 2.3-1 4.3-1.9 6.1-2.8zm-3.1-6.4h2.8v-3.2h-2.8zm0 4.6h2.8v-3.3h-2.8zm4-4.6h2.8v-3.2h-2.8zm0 4.6h2.8v-3.3h-2.8zm3.7 1.9c2.1.9 4.1 1.8 6.1 2.7l-.7 1.3c-2.2-1.1-4.2-2-6.1-2.9zm3.2-9.7h-2.8v3.2h2.8zm-2.8 7.8h2.8v-3.3h-2.8z" fill="#fafafb"/></svg>