<svg enable-background="new 0 0 400 400" viewBox="0 0 400 400" xmlns="http://www.w3.org/2000/svg"><path d="m378.6 9.2.8-1c.9.7 1.9 1.4 2.9 2.3l-.9 1.1c-1.1-.9-2-1.7-2.8-2.4zm.5 10.7c.9-2.1 1.6-4.3 2.3-6.7.4.2.8.4 1.3.6-.7 2.1-1.5 4.3-2.2 6.6zm.4-15.2.9-.9c1 .8 2 1.6 2.8 2.4l-1 1c-1-.9-1.9-1.8-2.7-2.5zm12.5-1.3h1.2v1.4h2.7v1.1h-2.7v2.7h-1.2v-.5h-1.8v1.3h4.9v3.8h-1.2v-.5h-3.7c0 .4-.1.9-.1 1.2h5.1v1h-5.2c0 .5-.1.9-.2 1.2h6v1h-5.2c1.1 1.3 2.9 2 5.5 2.2-.4.4-.7.8-.9 1.3-2.9-.5-4.8-1.6-5.7-3.5h-.1c-.8 1.7-2.7 2.9-5.9 3.6-.2-.4-.6-.8-.9-1.1 2.8-.6 4.6-1.4 5.4-2.5h-4.8v-1h5.3c.1-.3.2-.7.2-1.2h-4.9v-1h5c0-.4 0-.8.1-1.2h-3.6v.5h-1.2v-3.8h4.9v-1.3h-1.8v.5h-1.2v-2.7h-2.6v-1.1h2.6v-1.4h1.2v1.4h4.7v-1.4zm-6.7 8.4h3.6c0-.4 0-.9 0-1.4h-3.6zm1.9-4.7h4.7v-1.2h-4.7zm6.7 3.3h-3.7v1.4h3.7z" fill="#fafbfc"/><path d="m384.7 21.4h1.3v2.2h2.8v-2.2h1.3v2.2h4.1v9.1h1.7v1.3h-16.9v-1.3h1.7v-9.1h4.1v-2.2zm.3 13.2.7 1.2c-1.8.9-3.8 1.9-6 2.9-.2-.4-.5-.8-.8-1.3 2.4-1 4.4-2 6.1-2.8zm-3.1-6.5h2.8v-3.2h-2.8zm0 4.6h2.8v-3.3h-2.8zm4.1-4.6h2.8v-3.2h-2.8zm0 4.6h2.8v-3.3h-2.8zm3.6 1.9c2.1.9 4.1 1.8 6.1 2.7l-.7 1.3c-2.2-1.1-4.2-2-6.1-2.9zm3.3-9.7h-2.8v3.2h2.8zm-2.8 7.8h2.8v-3.3h-2.8z" fill="#fafbfc"/><g fill="#010104"><path d="m149.26 267.36c-.33-5.5-.87-10.67-.8-15.84.02-1.42 1.66-3.05 2.91-4.18 1.94-1.74 2.66-3.36.92-5.62-1.38-1.78-1.51-3.66.06-5.44 3.8-4.34 3.7-9.45 2.78-14.65-.4-2.25.13-3.94 2.01-5.19 3.06-2.03 4.07-4.7 3.31-8.37-.84-4.08-.52-8.08 1.34-12.05.58-1.25-.74-3.39-1.29-5.51 6.99-4.57 3.95-11.76 3.63-18.44-.07-1.52.61-3.07.92-4.61.3-1.5.62-3 .85-4.51.37-2.44 0-5.27 1.14-7.26 4.46-7.81 5.14-16.22 4.96-24.87-.01-.62.06-1.55-.29-1.8-4-2.86-1.68-6.09-.05-8.61 2.29-3.53 2.17-6.46.01-9.86-1.58-2.49-2.85-5.21-4-7.94-1.28-3.04-3.27-5.26-5.96-7.17-1.24-.88-1.64-2.9-2.49-4.37-.69-1.19-1.21-2.81-2.27-3.39-2.37-1.28-3.64-2.99-4.06-5.61-.34-2.08-1.03-4.1-1.47-6.17-.14-.67-.26-1.57.07-2.07 3.56-5.48 3.58-5.78.31-9.53 4.47-5.3 8.99-10.41 13.22-15.74 3.95-4.97 8.65-8.27 15.16-8.75 4.04-.29 7.61-1.79 10.56-5.28 3.78 3.41 8 2.93 12.43 1.58.88-.27 2.38.46 3.18 1.19 2.34 2.14 4.69 4.34 6.62 6.84 1.69 2.2 3 4.75 4.11 7.31 1.1 2.52.8 5.72 3.94 7.2.42.2.51 1.32.58 2.03.51 5.38 1.03 10.76 1.42 16.16.07.98-.32 2.07-.74 2.99-2.49 5.38-4.99 10.76-7.65 16.05-.84 1.66-2.03 3.23-3.36 4.54-8.56 8.38-17.24 16.65-25.77 25.06-.93.91-1.64 2.48-1.7 3.77-.36 7.62-.71 15.26-.64 22.89.08 8.39-1.03 16.45-4.9 23.97-1.08 2.1-1.06 4.01.39 5.9 1.37 1.78 1.52 3.59.25 5.52-.52.79-.84 1.71-1.19 2.6-.82 2.1-2.69 4.22.92 6.38-7.8 3.45-7.3 9.57-6.12 15.7.64 3.31.09 6.19-1.26 9.16-.86 1.89-1.87 4.03-1.73 5.99.35 5.18-1.15 9.74-3.2 14.36-1.13 2.55-1.87 5.42-2.11 8.2-.81 9.27-6.14 14.5-14.95 17.44zm50.34-219.29c-1.2 1.29-1.65 1.62-1.9 2.06-1.4 2.54-3.27 2.79-5.79 1.57-2.18-1.05-4.62-1.57-6.81-2.6-1.79-.85-3.03-.28-4.66.54-5.87 2.94-9.46 8.06-12.92 13.24-1.2 1.79-2.25 4.29-2.03 6.32 1.15 10.63 5.8 19.8 12.89 27.72.96 1.07 2.73 1.49 4.2 2 1.77.62 3.62 1.02 5.87 1.64 5.36-4.85 11.18-10.1 16.96-15.39.68-.63 1.65-1.57 1.58-2.28-.36-3.99 1.43-7.74 1.45-11.51.03-4.69-1.41-9.39-2.31-14.07-.12-.61-.65-1.52-1.14-1.63-3.58-.8-5.87-2.64-5.39-7.61z"/><path d="m214.86 278.39c1.93 4.44-.82 7.4-2.93 10.46-3.39 4.94-6.66 9.87-4.61 16.94-4.71-.76-8.66-1.41-13.03-2.12-.27-4.1-.63-8.61-.8-13.13-.03-.84.58-1.78 1.06-2.57 1.76-2.9 3.55-5.78 5.41-8.61 1.56-2.37 3.56-4.65.12-7.4 1.5.15 3 .31 4.86.5 1.22-4.39 2.57-8.82 3.6-13.33.16-.69-1-1.83-1.75-2.56-6.95-6.66-14.22-13.01-20.78-20.02-2.69-2.88-4.13-7.05-5.69-10.82-1.01-2.43-.39-4.79 2.66-5.71.6-.18 1.2-.48 1.69-.86 2.08-1.58 3.51-1.34 5.16.91 2.69 3.66 5.82 7.01 8.79 10.46.62.72 1.33 1.37 2.07 1.96 6.24 5.01 8.11 4.49 10.37-2.87.68-2.22 1.45-4.45 1.83-6.74.96-5.72 1.28-11.38-2.67-16.36-1.17-1.48-1.88-3.34-3.03-4.84-2.69-3.51-4.13-6.96.25-10.77-1.36-1.15-2.39-2.02-3.51-2.96-1.02.74-2.04 1.47-3.61 2.61-.64-5.15-1.77-9.91-1.53-14.61.09-1.69 3.33-3.43 5.42-4.68.6-.36 2.46.69 3.25 1.55 1.42 1.53 2.87 3.26 3.57 5.18 1.47 3.99 3.83 6.77 8 7.61.09.38.25.63.17.76-2.25 4.02-.88 7.26 1.84 10.54 2.56 3.09 4.64 6.56 7.06 10.04-1.25 1.62-2.46 3.2-3.63 4.73.04.3-.01.59.1.69 4.41 3.99 3.24 8.95 2.47 13.87-.46 2.93-.77 5.88-1.21 8.81-.39 2.6-1 4.91 1.45 7.29.89.86.24 4.48-.87 5.98-2.43 3.28-1.72 5.47 1.23 7.54 6.88 4.82 9.57 11.31 8.25 19.65-.23 1.48.41 3.43 1.31 4.68 1.9 2.64 2.69 5.21 2.13 8.52-1.27 7.51 1.02 14.68 2.79 21.86.43 1.74 1 3.43 1.5 5.09-4.04 3.57-3.43 3.38-1.89 8.33 2.06 6.61 3.17 13.54 4.47 20.37.57 3 .28 6.18.95 9.15.84 3.69-.44 6.01-3.44 7.94-2.02 1.3-3.83 2.93-5.65 4.35-4.97-4.86-5.6-10.89-5.79-17.11-.2-6.44-.01-12.97-3.11-18.94-.29-.56-.47-1.22-.87-1.69-1.84-2.13-1.97-3.97.05-6.26.85-.96.74-2.94.74-4.45.01-3.66-.1-7.32-.34-10.97-.07-1.1-.42-2.49-1.17-3.17-3.8-3.5-5.83-7.47-5.6-12.87.22-5.11-3.16-8.68-7.11-11.95z"/></g></svg>