<svg enable-background="new 0 0 400 400" viewBox="0 0 400 400" xmlns="http://www.w3.org/2000/svg"><path d="m385.2 377.6.6-.7c.6.4 1.3.9 1.9 1.5l-.6.7c-.8-.5-1.4-1-1.9-1.5zm.3 7.1c.6-1.4 1.1-2.9 1.5-4.5.3.1.6.3.9.4-.5 1.4-1 2.9-1.5 4.4zm.2-10.1.6-.6c.7.5 1.3 1.1 1.9 1.6l-.7.7c-.6-.6-1.2-1.2-1.8-1.7zm8.4-.8h.8v.9h1.8v.7h-1.8v1.8h-.8v-.3h-1.2v.9h3.3v2.6h-.8v-.4h-2.5c0 .3 0 .6-.1.8h3.4v.7h-3.5c0 .3-.1.6-.1.8h4v.7h-3.5c.7.9 1.9 1.3 3.6 1.5-.2.2-.4.5-.6.9-1.9-.3-3.2-1.1-3.8-2.3-.5 1.1-1.8 2-3.9 2.4-.2-.3-.4-.5-.6-.8 1.9-.4 3.1-.9 3.6-1.7h-3.2v-.7h3.5c.1-.2.1-.5.2-.8h-3.3v-.7h3.4c0-.2 0-.5 0-.8h-2.4v.3h-.8v-2.6h3.3v-.9h-1.2v.3h-.8v-1.8h-1.8v-.7h1.8v-.9h.8v.9h3.2zm-4.4 5.5h2.4c0-.3 0-.6 0-.9h-2.4zm1.2-3.1h3.2v-.8h-3.2zm4.4 2.2h-2.4v.9h2.5v-.9z" fill="#fcfafa"/><path d="m389.2 385.8h.9v1.5h1.9v-1.5h.9v1.5h2.7v6h1.1v.9h-11.3v-.9h1.1v-6h2.7zm.2 8.7.5.8c-1.2.6-2.5 1.3-4 1.9-.2-.3-.3-.6-.6-.8 1.6-.6 3-1.3 4.1-1.9zm-2-4.3h1.9v-2.1h-1.9zm0 3.1h1.9v-2.2h-1.9zm2.7-3.1h1.9v-2.1h-1.9zm0 3.1h1.9v-2.2h-1.9zm2.4 1.3c1.4.6 2.7 1.2 4.1 1.8l-.5.9c-1.5-.7-2.8-1.4-4.1-1.9zm2.2-6.5h-1.9v2.1h1.9zm-1.9 5.2h1.9v-2.2h-1.9z" fill="#fcfafa"/><g fill="#010100"><path d="m82.34 255.61c-3.08-4.71-3.13-9.81-1.77-14.75 1.43-5.17 3.8-10.08 5.54-15.17 2.01-5.89 3.9-11.82 5.61-17.8 1.51-5.27-1.43-7.63-6.41-8.95-2.5-.66-5.24-.55-7.87-.53-7.24.05-10.32-2.34-11.91-9.54-.31-1.42-.48-2.87-.78-4.66 6.94-.6 13.55-1.18 20.17-1.74 3.06-.26 6.14-.76 9.19-.65 2.74.1 4.3-1.17 4.99-3.43 1.86-6.16 4.35-12.29 5.05-18.61 1.78-16.11 2.68-32.31 4.04-48.46.2-2.44-.66-3.66-2.93-4.38-2.72-.86-5.42-1.85-8-3.06-1.67-.79-3.49-1.78-4.59-3.18-3.21-4.11-2.25-7.14 2.57-8.83 13.07-4.58 26.58-5.12 40.18-3.94 13.1 1.13 26.18 2.71 39.31.84 4.37-.62 8.64-1.96 12.97-2.96 5.21-1.2 7.91-4.94 8.84-9.75 1.02-5.28 1.49-10.68 1.96-16.05.78-8.92 3.26-17.19 8.48-24.54 8.95 4.91 11.48 11.58 8.67 21.14-1.42 4.82-2.3 9.82-3.08 14.79-.24 1.54.47 3.35 1.13 4.87 1.43 3.28 3.42 5.26 7.7 5.01 25.8-1.49 51.63-2.53 77.44-4.02 6.67-.39 13.27-1.32 19.88.3 7.52 1.84 11.77 8.11 10.72 16.14-7.82 1.32-15.71 2.64-23.46 3.95 0 11.72.17 23.05-.05 34.38-.18 9.1-.03 18.32-1.46 27.25-2.82 17.62-14.33 28.36-30.15 35.31-9.04 3.97-18.54 4.95-28.18 5.59-6.22.41-12.42.98-18.93 1.51 0 5.04.05 9.89-.01 14.73-.06 5.4-.03 10.81-.38 16.2-.85 12.85-7.92 21.13-19.36 26.41-7.26 3.35-14.82 4.86-22.7 5.43-3.47.25-6.92.91-10.36 1.51-14.29 2.49-19.35 12.77-21.69 25.52-1.51 8.25-.95 16.46-.38 24.72.81 11.62-1.35 22.58-7.84 32.43-.78 1.18-1.94 2.25-3.16 2.95-4.95 2.87-10.12 5.36-14.95 8.41-5.07 3.21-10.43 4.83-16.39 5.14-4.53.24-9.03 1.01-13.9 1.58-.41-1.82-1-3.51-1.09-5.24-.04-.74.81-1.91 1.55-2.23 5.52-2.42 11.04-4.87 16.69-6.92 7.38-2.68 14.28-6.33 17.91-13.38 3.31-6.41 5.89-13.43 7.4-20.48 1.46-6.86 1.46-14.09 1.55-21.17.17-13.62 4.18-25.83 12.43-36.63.99-1.29 2.36-2.45 3.79-3.23 11.02-5.96 23.05-8.87 35.18-11.54 4.31-.95 8.74-2.06 12.64-4.03 10.71-5.42 11.86-16.22 8.82-25.36-.83-2.5-2.31-4.8-3.04-7.32-.91-3.17-3.04-4.35-6-4.58-10.34-.83-20.68-2.33-31.02-2.28-20.23.09-40.45 1.07-60.67 1.63-1.94.05-3.14.76-3.8 2.64-3.23 9.28-6.76 18.46-9.71 27.82-2.9 9.12-7.78 16.4-16.38 21.19zm176.9-154.06c0-.39 0-.79 0-1.18-7.41 0-14.86-.46-22.23.13-7.47.6-14.85 2.3-22.3 3.35-1.89.27-2.58.93-2.97 2.85-2.98 14.43-3.72 29.02-2.88 43.67.63 10.98 3.29 21.52 8.57 31.32 1.08 2.01 2.34 2.68 4.48 2.62 9.43-.3 18.87-.28 28.28-.8 9.09-.51 17.79-2.59 25.44-7.97 2.01-1.41 3.32-3.03 3.8-5.52 1.03-5.41 2.44-10.74 3.41-16.16 2.22-12.4 5.16-24.78 4.06-37.49-.39-4.43-2.08-8.77-3.47-13.05-.26-.81-1.89-1.67-2.9-1.69-7.1-.15-14.2-.08-21.29-.08zm-60.55 83.03c-1.95-11.38-3.87-21.89-5.51-32.43-1.45-9.29-2.84-18.6-3.77-27.95-.53-5.35-.03-10.8-.17-16.2-.02-.89-.83-2.46-1.44-2.54-6.92-.92-13.71-3.63-20.92-1.13-2.72.94-5.85.96-8.79.97-4.22.01-8.45-.55-12.67-.54-8.65.02-15.65 4.36-18.19 12.45-4.37 13.9-8.35 27.94-11.88 42.08-1.84 7.38-2.25 15.06-.44 22.69.61 2.57 1.63 3.59 4.47 3.52 18.42-.42 36.84-.68 55.26-.91 7.83-.09 15.65-.01 24.05-.01z"/><path d="m254.47 152.43c-7.08-.21-11.98-7.77-8.9-14.73 1.32-2.97 2.97-5.84 4.79-8.53.52-.77 2.5-1.4 3.25-1.02 2.19 1.12 4.6 2.42 5.99 4.34 1.94 2.67 3.35 5.85 4.36 9.02.65 2.04 1.12 5.21.04 6.5-2.15 2.56-5.19 4.68-9.53 4.42z"/><path d="m167.54 144.68c.27 5.6.27 5.59-4.52 7.12-1.1.35-2.2.72-3.3 1.08-5.02 1.64-5.05 1.63-7.31-3.1-2.38-4.97-2.72-10.15-1.49-15.46.84-3.65 5.82-5.74 9.06-3.98 5.96 3.28 7.53 8.73 7.56 14.34z"/></g></svg>