<svg enable-background="new 0 0 400 400" viewBox="0 0 400 400" xmlns="http://www.w3.org/2000/svg"><path d="m228.23 365.87c0-2.09-.47-4.31.07-6.24 4.67-16.46 7.53-33.2 8.47-50.3.29-5.22.44-10.18-1.47-15.26-.86-2.3.33-5.36.54-8.08.35-4.6 1.05-9.23.79-13.8-.13-2.31-2.02-4.53-3.17-6.76-.28-.55-.77-1.01-1.22-1.46-8.93-8.88-14.63-19.37-17.16-31.82-1.28-6.28-3.74-12.35-5.99-18.4-3.75-10.07-4.57-20.4-3.32-30.97.06-.53.23-1.06.17-1.58-1.06-9.36 4.18-16.45 8.37-24.02 4.14-7.48 7.76-15.24 11.54-22.92 1.07-2.18 1.96-4.46 2.82-6.73 2.14-5.73 5.38-10.69 9.56-15.18 2.2-2.37 3.73-5.38 5.45-8.17 7.17-11.63 14.29-23.29 21.44-34.94.11-.18.25-.34.38-.51 4.41.29 6.8 2.73 6.46 7.14-.17 2.16-.91 4.35-1.79 6.35-5.21 11.81-10.59 23.55-15.75 35.39-.53 1.22-.45 3.05.07 4.31 1.32 3.23 3.23 6.21 4.53 9.44 1.03 2.58 1.47 5.39 2.25 8.08.37 1.29.75 2.63 1.44 3.77 4.84 7.97 9.59 15.99 14.71 23.78 3.37 5.14 5.34 10.6 6.71 16.58 1.7 7.48 4.48 14.72 6.9 22.39-2.75-.64-5.81-.35-7.86-3.53-2.58-4-5.27-7.98-8.34-11.61-9-10.64-14.49-22.83-17.91-36.31-1.42-5.58-4.86-10.75-7.96-15.75-1.24-2-4.04-3.03-6.45-4.72-3.87 6.75-7.22 12.87-10.83 18.82-3.06 5.04-5.19 10.26-6.19 16.14-.52 3.05-2.69 5.86-4.3 8.67-.89 1.55-2.14 2.89-3.26 4.3-3.97 4.97-4.53 10.2-1.73 16 3.72 7.7 7.49 15.34 11.6 22.86 4.19 7.67 6.06 16.6 8.99 24.97.44 1.25.87 2.77 1.82 3.54 2.95 2.38 4.45 5.52 5.75 8.92 2.11 5.54 4.24 11.08 6.65 16.49 2.21 4.96 2.37 9.83 1.41 15.16-1.1 6.1-1.72 12.39-1.6 18.57.3 16.72-4.57 32-12.45 46.39-2.28 4.16-6.01 7.53-9.07 11.27-.39-.06-.73-.16-1.07-.27z" fill="#010000"/><path d="m113.69 322.96c-1.39-6.38-.74-11.94.78-17.32 2.5-8.86 5.46-17.59 8.05-26.42.67-2.29 1.01-4.76 1-7.15-.01-7-.62-14.01-.32-20.98.18-4.27 1.6-8.48 2.46-12.72 1.42-7.03 2.87-14.05 4.19-21.1.18-.97.07-2.29-.47-3.05-2.17-3.06-1.86-6.09-.33-9.21.97-1.98.8-3.79-.51-5.62-4.41-6.16-4.09-13.67-5.67-20.62-1.15-5.06-1.8-10.22-2.88-15.3-.46-2.13-1.39-4.17-2.24-6.2-1.38-3.31-2.98-6.54-4.29-9.87-2.32-5.9-4.26-11.97-6.8-17.77-3.29-7.52-4.23-15.13-1.59-22.9 5.66-16.62 10.72-33.51 19.15-49.03 4.62-8.51 10.55-16.07 18.09-22.59 4.13 4.64 6.1 9.86 5.72 15.83-.09 1.44-.94 3.06-1.91 4.18-3.5 4.04-4.12 8.32-1.3 12.84 1.78 2.86 3.81 5.59 5.97 8.18 7.53 8.99 14.34 18.4 17.55 29.9.58 2.09.75 4.3 1.11 6.45-.26.29-.51.58-.77.86-1.57-.7-3.2-1.31-4.7-2.13-.82-.44-1.41-1.28-2.15-1.88-7.54-6.12-14.18-12.99-19.15-21.44-2.56-4.34-9.11-4.56-12.09-.63-4.84 6.37-9.05 13.12-10.49 21.15-.42 2.34-.4 4.85-.04 7.2.73 4.7 1.73 9.38 2.83 14.01.5 2.1 1.54 4.08 2.29 6.13.32.88.92 1.91.71 2.69-.92 3.4.61 6.21 1.84 9.13 2.67 6.34 5.06 12.82 8.05 19.01 2.89 5.98 4.46 12.07 3.74 18.68-.28 2.58.58 4.59 2.19 6.66 1.18 1.51 2.01 3.72 2.03 5.62.06 7.21-.05 14.39 2.38 21.35.41 1.18.15 2.74-.19 4.02-7.12 27.47-14.18 54.95-21.58 82.34-1.3 4.81-3.91 9.3-6.26 13.75-.77 1.49-2.64 2.42-4.4 3.95z" fill="#010000"/><g fill="#fafafb"><path d="m361.2 9.6.8-1c.9.7 1.9 1.4 2.9 2.3l-.9 1.1c-1-1-2-1.8-2.8-2.4zm.5 10.6c.9-2.1 1.6-4.3 2.3-6.7.4.2.8.4 1.3.6-.7 2.1-1.5 4.3-2.2 6.6zm.4-15.2.9-.9c1 .8 2 1.6 2.8 2.4l-1 1c-.9-.9-1.8-1.7-2.7-2.5zm12.5-1.2h1.2v1.4h2.7v1.1h-2.7v2.7h-1.2v-.6h-1.8v1.3h4.9v3.8h-1.2v-.5h-3.7c0 .4-.1.9-.1 1.2h5.1v1h-5.2c0 .5-.1.9-.2 1.2h6v1h-5.2c1.1 1.3 2.9 2 5.5 2.2-.4.4-.7.8-.9 1.3-2.9-.5-4.8-1.6-5.7-3.5h-.1c-.8 1.7-2.7 2.9-5.9 3.6-.2-.4-.6-.8-.9-1.1 2.8-.6 4.6-1.4 5.4-2.5h-4.8v-1h5.3c.1-.3.2-.7.2-1.2h-4.9v-1h5c0-.4 0-.8.1-1.2h-3.5v.5h-1.2v-3.8h4.9v-1.3h-1.8v.5h-1.2v-2.7h-2.7v-1h2.6v-1.4h1.2v1.4h4.7v-1.4zm-6.6 8.3h3.6c0-.4 0-.9 0-1.4h-3.6zm1.9-4.6h4.7v-1.3h-4.7zm6.6 3.2h-3.7v1.4h3.7z"/><path d="m385.3 3.8h1.3v2.2h2.8v-2.2h1.3v2.2h4.1v9.1h1.7v1.3h-16.9v-1.3h1.7v-9.1h4.1v-2.2zm.4 13.1.7 1.2c-1.8.9-3.8 1.9-6 2.9-.2-.4-.5-.8-.8-1.3 2.3-1 4.3-1.9 6.1-2.8zm-3.1-6.4h2.8v-3.2h-2.8zm0 4.6h2.8v-3.3h-2.8zm4-4.6h2.8v-3.2h-2.8zm0 4.6h2.8v-3.3h-2.8zm3.7 1.9c2.1.9 4.1 1.8 6.1 2.7l-.7 1.3c-2.2-1.1-4.2-2-6.1-2.9zm3.2-9.7h-2.8v3.2h2.8zm-2.8 7.8h2.8v-3.3h-2.8z"/></g></svg>