<svg enable-background="new 0 0 400 400" viewBox="0 0 400 400" xmlns="http://www.w3.org/2000/svg"><path d="m211.56 131.7c3.92-.62 7.38-1.05 10.77-1.77.87-.18 1.74-1.12 2.31-1.92 5.42-7.69 7.68-16.43 8.21-25.68.36-6.24.15-12.52.79-18.73.74-7.21 3.5-13.74 8.61-19.06.79-.82 2.11-1.66 3.16-1.62 14.82.56 29.63 1.27 44.63 1.96.66 2.22 1.5 4.4 1.89 6.67.14.84-.55 2.17-1.28 2.74-4.71 3.67-10.21 5.01-16.09 4.86-5.46-.13-10.77.32-15.86 2.57-1.92.85-2.93 1.97-3.37 4.08-2.94 14.42-5.97 28.83-9.08 43.22-.37 1.69-1.12 3.44-2.14 4.83-4.95 6.75-10 13.44-15.15 20.04-.99 1.27-2.43 2.34-3.88 3.05-4.48 2.17-9.09 4.05-13.57 6.21-.8.39-1.75 1.65-1.69 2.43 1.1 13.74 2.34 27.46 3.57 41.19.04.4.24.78.46 1.47 9.06-1.9 18.06-3.74 27.01-5.75.8-.18 1.56-1.38 1.98-2.28 5.34-11.52 10.89-22.96 15.82-34.65 4.55-10.77 9.38-14.15 20.84-11.55 7.37 1.67 14.52 4.56 21.52 7.48 2.15.9 3.5 3.73 5.69 6.21-3.24.74-5.74 1.34-8.27 1.87-6.43 1.35-12.85 2.72-19.3 3.95-2.13.41-3.51 1.41-4.72 3.23-9.68 14.57-19.42 29.09-29.26 43.54-.94 1.38-2.47 2.62-4 3.31-7.12 3.2-14.35 6.18-21.64 9.28 1.78 10.86 3.34 21.54 5.3 32.15 3.11 16.77 2.5 33.56.81 50.38-1.23 12.26-3.02 24.43-7.8 35.89-2.1 5.03-4.92 9.76-7.42 14.62-.47-.01-.93-.01-1.4-.02-2.45-5.43-5.12-10.78-7.29-16.32-4.6-11.77-6.34-24.17-6.95-36.69-1.23-25.31-2.18-50.63-3.24-75.94-.05-1.26-.12-2.52-.2-4.06-8.93-2.03-17.71-4.46-26.65-5.94-10.29-1.7-18.24-6.56-23.68-15.34-2.16-3.49-3.45-7.51-5.56-11.04-2.54-4.25-5.23-8.48-8.41-12.25-5.42-6.44-12.96-7.48-20.85-7-6.01.37-11.78-.49-17.68-3.16 13.88-9.39 28.18-15.07 45.01-10.31 4.66 1.32 8.48 3.27 11.32 7.4 4.68 6.81 10.39 12.98 14.44 20.12 6.55 11.57 16.66 15.95 29.06 16.92 1.55.12 3.1.15 4.94.23-.68-8.28-1.32-16.17-1.99-24.05-.54-6.44-1.24-12.88-1.6-19.33-.13-2.3-.85-3.59-2.96-4.6-7.16-3.42-14.18-7.15-21.34-10.58-8.81-4.22-16.07-10.19-21.45-18.37-.86-1.3-1.58-2.75-2.08-4.23-4.1-12.36-8.19-24.72-12.15-37.12-.68-2.13-1.81-3.29-3.91-4.05-6.93-2.51-13.93-2.03-21.02-1.06-6.24.86-11.73-.78-16.58-6.12 5.42-1.61 10.43-3.05 15.41-4.58 13.67-4.22 27.17-3.94 40.4 1.63 1.65.7 3.47 2.22 4.15 3.82 4.26 10.02 8.56 20.04 12.21 30.3 4.42 12.42 11.65 18.75 23.5 19.38.3.02.61-.07 1.14-.14 2.13-6.81 2.73-13.85 2.26-20.95-1-15.13-5.22-29.57-9.77-43.92-.26-.84-.92-1.68-1.62-2.22-10.98-8.45-22.88-13.55-37.21-10.84-3 .57-6.4.12-9.37-.71-1.92-.54-3.81-2.36-4.99-4.1-2.88-4.26-2.18-5.95 2.54-7.81 1.48-.58 3.04-1.02 4.42-1.78 8.75-4.86 18.22-4.96 27.79-4.26 5.38.4 10.79.75 16.1 1.62 5.76.95 10.71 3.93 15.1 7.72.82.71 1.42 1.83 1.77 2.88 5.65 16.75 11.56 33.42 16.67 50.33 1.71 5.66 1.39 11.94 1.9 17.94.4 4.62.63 9.26.97 14.38z" fill="#010105"/><g fill="#fafbfa"><path d="m377.9 391.2c-.2.3-.4.5-.6.8-.7-.6-1.4-1-2.2-1.5.2-.3.4-.5.5-.8.6.4 1.4.8 2.3 1.5zm-1.8 6.1c-.2-.2-.5-.4-.9-.6.4-.6.8-1.2 1.2-1.9s.7-1.3.9-1.9c.3.3.5.5.8.7-.7 1.3-1.4 2.6-2 3.7zm2.2-9c-.3.3-.5.5-.6.8-.6-.6-1.3-1.1-2-1.5.3-.3.5-.5.6-.7.6.5 1.3.9 2 1.4zm.3.2v-.9h2 4.5c-.3 1.3-.6 2.5-1 3.6s-.9 2.1-1.4 3c.4.5 1 1 1.6 1.4s1.2.8 1.9 1.1c-.3.2-.5.4-.8.8-.4-.3-1-.7-1.6-1.2s-1.2-1.1-1.6-1.6c-.5.6-1.1 1.1-1.7 1.6s-1.4.9-2.1 1.4c-.1-.3-.3-.5-.7-.8.6-.2 1.2-.5 1.9-1s1.4-1.1 2-1.8c-.5-.8-.9-1.6-1.2-2.5s-.6-2-.8-3.2c-.4.1-.7.1-1 .1zm2.5 2.7c.3 1 .7 1.7 1 2.2.3-.5.6-1.1 1-2s.6-1.9.9-3h-3.2-.4c.1.9.3 1.8.7 2.8z"/><path d="m396.5 388.5v1.5 3.6h1.5v.9c-.4 0-1 0-1.7 0h-7.9c-.5 0-.9 0-1.2 0v-.9h1.3v-3.5c0-.7 0-1.2 0-1.6h2.4c0-.8 0-1.4 0-1.7h1c0 .3-.1.8-.1 1.7h1.5c0-.8 0-1.4 0-1.7h1c0 .3-.1.9-.1 1.7zm-8.2 9.2c-.2-.3-.5-.5-.8-.8.8-.3 1.4-.6 1.9-.9s1-.7 1.4-1.1c.3.3.6.5.9.8-1.6 1-2.8 1.6-3.4 2zm2.6-6.8v-1.6h-1.5v1.6zm0 2.7v-1.9h-1.5v1.9zm2.4-2.7v-1.6h-1.5v1.6zm0 2.7v-1.9h-1.5v1.9zm.2 2 .7-.8c.4.2.9.5 1.6.8s1.3.7 1.8 1c-.3.3-.5.5-.8.8-.4-.3-1.5-1-3.3-1.8zm2-4.7v-1.6h-1.4v1.6zm0 2.7v-1.9h-1.4v1.9z"/></g></svg>