<svg enable-background="new 0 0 400 400" viewBox="0 0 400 400" xmlns="http://www.w3.org/2000/svg"><path d="m378.6 9.2.8-1c.9.7 1.9 1.4 2.9 2.3l-.9 1.1c-1.1-.9-2-1.7-2.8-2.4zm.5 10.7c.9-2.1 1.6-4.3 2.3-6.7.4.2.8.4 1.3.6-.7 2.1-1.5 4.3-2.2 6.6zm.4-15.2.9-.9c1 .8 2 1.6 2.8 2.4l-1 1c-1-.9-1.9-1.8-2.7-2.5zm12.5-1.3h1.2v1.4h2.7v1.1h-2.7v2.7h-1.2v-.5h-1.8v1.3h4.9v3.8h-1.2v-.5h-3.7c0 .4-.1.9-.1 1.2h5.1v1h-5.2c0 .5-.1.9-.2 1.2h6v1h-5.2c1.1 1.3 2.9 2 5.5 2.2-.4.4-.7.8-.9 1.3-2.9-.5-4.8-1.6-5.7-3.5h-.1c-.8 1.7-2.7 2.9-5.9 3.6-.2-.4-.6-.8-.9-1.1 2.8-.6 4.6-1.4 5.4-2.5h-4.8v-1h5.3c.1-.3.2-.7.2-1.2h-4.9v-1h5c0-.4 0-.8.1-1.2h-3.6v.5h-1.2v-3.8h4.9v-1.3h-1.8v.5h-1.2v-2.7h-2.6v-1.1h2.6v-1.4h1.2v1.4h4.7v-1.4zm-6.7 8.4h3.6c0-.4 0-.9 0-1.4h-3.6zm1.9-4.7h4.7v-1.2h-4.7zm6.7 3.3h-3.7v1.4h3.7z" fill="#fafbfc"/><path d="m384.7 21.4h1.3v2.2h2.8v-2.2h1.3v2.2h4.1v9.1h1.7v1.3h-16.9v-1.3h1.7v-9.1h4.1v-2.2zm.3 13.2.7 1.2c-1.8.9-3.8 1.9-6 2.9-.2-.4-.5-.8-.8-1.3 2.4-1 4.4-2 6.1-2.8zm-3.1-6.5h2.8v-3.2h-2.8zm0 4.6h2.8v-3.3h-2.8zm4.1-4.6h2.8v-3.2h-2.8zm0 4.6h2.8v-3.3h-2.8zm3.6 1.9c2.1.9 4.1 1.8 6.1 2.7l-.7 1.3c-2.2-1.1-4.2-2-6.1-2.9zm3.3-9.7h-2.8v3.2h2.8zm-2.8 7.8h2.8v-3.3h-2.8z" fill="#fafbfc"/><path d="m263.26 35.45c6.65 1.62 10.33 5.7 10.9 12.7.88 10.75-.11 21.39-3.2 31.77-.35 1.18-1.07 2.28-1.74 3.35-3.36 5.37-7.4 10.43-9.99 16.15-4.55 10.04-12.46 14.79-22.7 16.76-4.15.8-8.33 1.54-12.42 2.58-2.02.51-3.94 1.53-5.79 2.52-3.1 1.67-4.23 4.01-3.69 7.83 3.25 23.3 6.82 46.57 9.06 69.98 1.51 15.68.97 31.56 1.41 47.34.56 20.23 1.15 40.47 1.79 60.7.5 15.89 1.17 31.77 1.55 47.66.11 4.64-1.5 8.73-6.09 11.02-1.44.72-2.37.75-3.51-.62-7.99-9.6-12.69-20.61-13.15-33.06-.46-12.39-.47-24.81-.12-37.2.26-9.07-1.79-17.72-3.84-26.32-3.34-14-3.78-28.16-2.96-42.32.6-10.42-3.43-19.44-6.38-28.88-.42-1.36-1.06-3.18-.52-4.24 5.16-10.14 3.59-20.8 2.87-31.44-.51-7.6-.7-15.23-1.1-22.84-.08-1.46-.27-2.97-.74-4.35-1.39-4.08-3.72-5.61-7.8-4.29-5.01 1.61-9.86 3.76-14.67 5.93-4.82 2.17-9.54 4.59-14.22 7.06-1.09.58-2.17 1.67-2.67 2.79-2.36 5.2-4.46 10.52-6.77 15.75-2.37 5.37-3.52 10.92-2.33 16.71.32 1.55 1.28 3.44 2.54 4.25 5.17 3.29 10.58 6.22 15.9 9.29 4.82 2.77 7.53 6.77 7.03 12.5-.08.92-.57 2.1-1.27 2.64-5.27 4.05-11.13 6.13-17.82 4.46-1.49-.37-2.99-1.09-4.21-2.01-3.98-3-7.8-6.2-11.73-9.27-10.56-8.24-13.89-19.33-12.49-32.15.88-8.1 3.58-15.68 7.71-22.69.87-1.48 2.18-2.8 3.54-3.9 5.6-4.52 11.35-8.85 16.93-13.39 4.19-3.41 8.18-7.06 12.3-10.56 7.18-6.1 15.91-9.09 24.58-12.25 14.62-5.32 29.19-10.8 43.81-16.11 2.23-.81 3.69-2.04 4.83-4.13 8.42-15.55 16.94-31.05 25.44-46.56.52-1.06 1.11-2.06 1.73-3.16z" fill="#010104"/></svg>