<svg enable-background="new 0 0 400 400" viewBox="0 0 400 400" xmlns="http://www.w3.org/2000/svg"><path d="m362.1 8.8c1.1.8 2.1 1.6 3.1 2.4l-1 1.1c-1.3-1.1-2.3-2-3-2.5zm1.9 4.8c.5.2.9.4 1.4.5-.6 2.3-1.3 4.5-1.9 6.8l-1.5-.5c.8-2.1 1.4-4.3 2-6.8zm-1-9.4c1.3.9 2.4 1.8 3.4 2.5l-1 1.1c-1.4-1.2-2.4-2.1-3.2-2.6zm3.7 2.2v-1.4h10.3v1.2c-.5 3.6-1.8 6.8-4 9.4 1.5 1.6 3.4 2.8 5.7 3.8-.3.4-.7.8-1.1 1.4-2.3-1.1-4.1-2.5-5.6-4.1-1.6 1.6-3.6 3.1-5.9 4.3-.3-.5-.7-.9-1-1.3 2.4-1.1 4.4-2.5 6-4.1-1.9-2.5-3-5.6-3.3-9.3h-1.1zm8.8 0h-6.4c.3 3.3 1.3 6 3 8.2 2-2.3 3.1-5.1 3.4-8.2z" fill="#fbfcfa"/><path d="m385.3 3.8h1.3v2.2h2.8v-2.2h1.3v2.2h4.1v9.1h1.7v1.3h-16.9v-1.3h1.7v-9.1h4.1v-2.2zm.4 13.1.7 1.2c-1.8.9-3.8 1.9-6 2.9-.2-.4-.5-.8-.8-1.3 2.3-1 4.3-1.9 6.1-2.8zm-3.1-6.4h2.8v-3.2h-2.8zm0 4.6h2.8v-3.3h-2.8zm4-4.6h2.8v-3.2h-2.8zm0 4.6h2.8v-3.3h-2.8zm3.7 1.9c2.1.9 4.1 1.8 6.1 2.7l-.7 1.3c-2.2-1.1-4.2-2-6.1-2.9zm3.2-9.7h-2.8v3.2h2.8zm-2.8 7.8h2.8v-3.3h-2.8z" fill="#fbfcfa"/><g fill="#010101"><path d="m35.21 291.39c8.13-1.94 16.11-3.85 24.09-5.76.2-.05.42-.07.63-.05 16.33 1.5 32.19-3 48.35-3.81 13.33-.67 26.63-1.97 39.96-2.38 5.96-.18 11.97 1.68 17.96 1.69 14.18.02 28.36-.68 42.54-.74 4.81-.02 9.64.89 14.44 1.54 4.4.6 8.76 1.85 13.17 2.03 4.18.17 8.41-.61 12.61-1.08 4.21-.47 8.39-1.37 12.61-1.53 3.96-.15 7.95.39 11.93.66 1.47.1 2.97.59 4.39.41 15.16-1.89 29.97.03 44.71 3.57 4.04.97 8.41.96 12.61.81 5.51-.19 10.73.51 15.81 2.69 3.01 1.29 6.31 1.94 9.22 3.38 1.37.68 2.72 2.45 3 3.93.19.99-1.27 2.74-2.42 3.47-7.74 4.92-16.03 6.52-25.21 4.75-3.53-.68-7.45.4-11.15.94-17.72 2.63-35.5 2.23-53.27.8-6.65-.54-13.23-1.7-19.71.96-.75.31-1.68.33-2.5.25-7.38-.73-14.97-.65-22.08-2.46-14.08-3.57-28.28-2.01-42.42-2.13-6.82-.06-13.65 1.57-20.48 2.47-10.37 1.38-20.72.65-31.08-.1-.93-.07-2.07-.24-2.78.19-3.56 2.16-7.33 2.04-11.07 1.01-14.43-3.95-29.35-3.89-44.06-5.54-4.67-.53-9.29-.7-13.88-2.53-3.56-1.42-7.89-1.06-11.88-1.26-5.04-.25-10.72-2.57-14.04-6.18z"/><path d="m32.23 100.96c3.73-3.04 8.24-4.11 12.92-4.34 4.01-.2 8.05.21 12.07.15 7.4-.11 14.8-.37 22.2-.58.63-.02 1.34-.34 1.88-.15 6.39 2.17 12.55-.33 18.82-.68 6.3-.35 12.64.39 18.97.48 16.64.25 33.29.87 49.91.49 28.38-.66 56.74-2.5 85.11-2.82 15.95-.18 31.93 1.59 47.89 2.64 7.08.47 14.13 1.38 21.21 1.97.93.08 2.06-.34 2.84-.9 2.5-1.78 5.15-2.41 8.12-1.63 1.94.51 3.91.96 5.81 1.61 5.65 1.95 5.78 2.15 7.25 8.34-5.64 4.94-12.74 5.22-19.65 6.09-.95.12-2.01-.03-2.82.35-9.77 4.64-20.17 2.92-30.35 2.97-14.84.07-29.69-.43-44.52-.24-5.57.07-11.11 1.61-16.7 2.07-12.04.99-24.09 1.92-36.15 2.5-14.28.69-28.6.73-42.87 1.6-5.75.35-11.43 2.05-17.09 3.38-3.68.87-7.19.88-10.95.34-5.2-.75-10.56-1.13-15.78-.77-12.95.89-25.39-.48-37.66-5.1-11.38-4.28-23.1-7.71-34.78-11.12-3.66-1.08-5.22-3.08-5.68-6.65z"/><path d="m102.19 194.04c6.52-1.11 13.26-2.29 20-3.4 26.31-4.34 52.61-2.07 78.85.55 12.19 1.22 24.3 3.31 36.41 5.28 3.29.54 6.49 1.93 9.6 3.24 1.8.76 3.62 1.89 4.95 3.31 3.36 3.61 2.56 7.95-2.12 8.99-5.7 1.26-11.68 1.82-17.53 1.75-11.11-.14-22.32-.13-33.28-1.67-13.5-1.9-26.82-.44-40.23-.18-1.15.02-2.37.02-3.46-.3-10.6-3.11-21.52-4.26-32.39-5.89-5.79-.87-11.35-3.26-17.01-4.99-2.72-.82-4.29-2.52-3.79-6.69z"/></g></svg>