<svg enable-background="new 0 0 400 400" viewBox="0 0 400 400" xmlns="http://www.w3.org/2000/svg"><path d="m378.6 9.2.8-1c.9.7 1.9 1.4 2.9 2.3l-.9 1.1c-1.1-.9-2-1.7-2.8-2.4zm.5 10.7c.9-2.1 1.6-4.3 2.3-6.7.4.2.8.4 1.3.6-.7 2.1-1.5 4.3-2.2 6.6zm.4-15.2.9-.9c1 .8 2 1.6 2.8 2.4l-1 1c-1-.9-1.9-1.8-2.7-2.5zm12.5-1.3h1.2v1.4h2.7v1.1h-2.7v2.7h-1.2v-.5h-1.8v1.3h4.9v3.8h-1.2v-.5h-3.7c0 .4-.1.9-.1 1.2h5.1v1h-5.2c0 .5-.1.9-.2 1.2h6v1h-5.2c1.1 1.3 2.9 2 5.5 2.2-.4.4-.7.8-.9 1.3-2.9-.5-4.8-1.6-5.7-3.5h-.1c-.8 1.7-2.7 2.9-5.9 3.6-.2-.4-.6-.8-.9-1.1 2.8-.6 4.6-1.4 5.4-2.5h-4.8v-1h5.3c.1-.3.2-.7.2-1.2h-4.9v-1h5c0-.4 0-.8.1-1.2h-3.6v.5h-1.2v-3.8h4.9v-1.3h-1.8v.5h-1.2v-2.7h-2.6v-1.1h2.6v-1.4h1.2v1.4h4.7v-1.4zm-6.7 8.4h3.6c0-.4 0-.9 0-1.4h-3.6zm1.9-4.7h4.7v-1.2h-4.7zm6.7 3.3h-3.7v1.4h3.7z" fill="#fafbfc"/><path d="m384.7 21.4h1.3v2.2h2.8v-2.2h1.3v2.2h4.1v9.1h1.7v1.3h-16.9v-1.3h1.7v-9.1h4.1v-2.2zm.3 13.2.7 1.2c-1.8.9-3.8 1.9-6 2.9-.2-.4-.5-.8-.8-1.3 2.4-1 4.4-2 6.1-2.8zm-3.1-6.5h2.8v-3.2h-2.8zm0 4.6h2.8v-3.3h-2.8zm4.1-4.6h2.8v-3.2h-2.8zm0 4.6h2.8v-3.3h-2.8zm3.6 1.9c2.1.9 4.1 1.8 6.1 2.7l-.7 1.3c-2.2-1.1-4.2-2-6.1-2.9zm3.3-9.7h-2.8v3.2h2.8zm-2.8 7.8h2.8v-3.3h-2.8z" fill="#fafbfc"/><g fill="#010104"><path d="m180.72 131.35c2.27 11.93 4.45 23.46 6.7 34.98.17.86.67 1.87 1.34 2.39 4.82 3.77 7.95 8.73 10.37 14.23 2.02 4.58 5.32 8.75 4.55 14.26-.07.49.87 1.51 1.47 1.62 2.24.42 2.97 2.04 3.77 3.84 4.45 9.95 8.94 19.89 13.52 29.78.78 1.69.75 3.01-.02 4.73-.69 1.55-.78 3.45-.79 5.2-.02 2.75.19 5.51.42 8.25.24 2.95.25 5.59-3.09 7.16-.81.38-1.12 2.33-1.25 3.59-.93 8.94-1.3 17.97-2.77 26.82-.96 5.77-3.3 11.36-5.35 16.9-1.36 3.67-3.3 7.11-7.15 8.98-.61.29-1.28 1.32-1.23 1.96.47 6.58-3.29 11.64-5.82 17.19-2.27 4.97-3.96 10.19-6.03 15.25-3.27 7.99-9.16 13.57-16.6 17.65-.5.28-1.23.14-2.13.22.62-9.81 1.62-19.2 11.02-25.21-1.48.1-2.97.21-5.38.38.61-5.55.63-10.98 1.9-16.1 2.88-11.6 6.19-23.1 9.76-34.5.92-2.93 3.46-5.36 5.44-8.29-2.49-6.11.37-11.64 3.56-17.2.81-1.41 1.39-3.39 1.09-4.91-.53-2.72-.59-5.22.8-7.61 4.32-7.39 3.64-15.17 2.84-23.31-.81-8.26-5.29-14.62-8.77-21.53-4.52-8.97-9.34-17.78-13.83-26.29 1.71-2.4 3.23-4.55 5.2-7.32-3.54-.7-6.08-1.29-8.64-1.68-1.79-.28-2.8-1.05-3.07-2.93-.28-1.99-.92-3.92-1.19-5.91-.37-2.75-1.03-5.11-4.2-5.91-.66-.17-1.32-1.07-1.62-1.79-5.39-12.94-7.82-26.45-3.85-39.99 2.16-7.36 6.97-13.94 10.62-20.85.23-.43.72-.83 1.18-1.02 2.59-1.08 3.54-2.65 2.11-5.39-.32-.62.08-1.83.49-2.58 2.17-4 4.42-7.97 6.7-11.91 1.74-3.01 4.59-4.19 7.89-4.68 1.5-.22 2.96-.77 4.59-1.21-3.56-6.18-1.12-11.51 1.81-16.17 3.53-5.62 8.2-10.52 12.18-15.88 1.75-2.35 3.94-1.59 5.7-.88 1.39.56 2.85 2.22 3.24 3.68.76 2.87-.24 5.56-2.24 7.92-1.58 1.86-3.7 3.76-1.76 6.69.22.33-.16 1.15-.4 1.68-1.86 4.11-3.82 8.17-5.61 12.31-3.29 7.56-6.48 15.16-9.75 22.72-.28.65-.76 1.4-1.36 1.71-4.63 2.43-5.37 6.81-6.29 11.36-.52 2.59-1.91 5.14-3.42 7.36-1.76 2.6-2.64 5.21-2.32 8.31.14 1.36-.03 2.76.03 4.13.16 3.51.76 7.22-4.36 7.8z"/><path d="m265.57 354.84c-2.49-10.94-2.42-21.51-.83-32.18.4-2.7-.4-5.56-.42-8.34-.01-1.8.24-3.64.63-5.4.63-2.84 1.91-5.59 2.15-8.44.55-6.64.64-13.32.93-19.99.04-.95-.24-2.25.26-2.79 3.02-3.24.64-6.48.51-9.81-.17-4.66.83-9.35 1.31-13.89 4.72-.36 7.82 1.28 9.1 5.17 2.12 6.4 4.77 12.4 9.54 17.33.54.56.51 1.91.36 2.83-.21 1.23-.7 2.45-1.24 3.58-1.56 3.25-1.49 6.21.25 9.56.87 1.67.4 4.3-.09 6.35-.83 3.46-.99 6.75-.43 10.31.41 2.58-.29 5.41-.82 8.06-1.99 9.96-4.27 19.86-6.1 29.84-.88 4.8-3.45 5.94-6.89 6.62-2.6.49-5.23.76-8.22 1.19z"/><path d="m131.08 343.36c.41-2.51.99-5.09 1.17-7.69.08-1.2-.25-2.88-1.06-3.59-1.72-1.5-2.23-3.09-2.08-5.27.25-3.7.24-7.42.38-11.13.13-3.34.46-6.49 1.95-9.75 1.39-3.03 1.08-6.82 1.58-10.27.31-2.17.13-4.72 1.22-6.43 5.31-8.37 5.59-17.81 6.39-27.17.13-1.48-.34-3.24.31-4.38 1.25-2.2 2.78-5.01 4.84-5.73 1.64-.57 4.52 1.23 6.3 2.67 1.45 1.17 2.22 3.28 3.05 5.09.79 1.72 1.19 3.62 1.86 5.4 1.34 3.54 2.24 6.89-.62 10.33-1.06 1.27-1.2 3.34-1.63 5.08-2.57 10.47-5.08 20.95-7.66 31.41-.2.79-.62 1.6-1.14 2.23-2.69 3.28-4.1 6.54-2.04 10.91 1.06 2.25.02 5.09-2.41 6.25-3.36 1.61-3.83 4.13-3.33 7.29.02.1.01.21.02.32.49 6.16-.8 7.02-7.1 4.43z"/><path d="m128.17 94.65c-.86 5.48-1.99 11.51-2.72 17.59-1 8.4-1.28 16.9-2.64 25.23-1.14 6.95-3.33 13.73-5.25 20.54-.25.89-1.58 2-2.48 2.07-1.71.14-3.72.89-4.96-1.5-3.79-7.33-5.14-15.03-3.49-23.09 1.59-7.77 3.51-15.47 5.37-23.18.23-.94.79-1.96 1.51-2.59 3.2-2.86 4.03-4.82 2.31-8.98-2.43-5.87-.52-10.26 3.84-14.13 2.95-2.61 6.36-1.75 7.61 2.08.54 1.67.55 3.52.9 5.96z"/><path d="m248.66 174.29c.65-.38 1.36-.8 2.15-1.27-.2-.28-.3-.62-.52-.73-1.14-.55-2.34-.99-3.47-1.56-2.88-1.44-4.46-4.33-3.44-7.37 1.6-4.79 1.27-9.29-.58-13.91-.55-1.37-.47-3.12-.25-4.64.59-4.08 1.3-8.16 2.16-12.19.94-4.42 1.11-8.7-.04-13.18-.6-2.35.13-5.03.29-8.17 2.88 1.12 4.8 1.87 7.21 2.8-2.18 3.54.58 4.94 2.23 7.38 2.9 4.27 5.29 9.28 6.37 14.31 2.82 13.12.83 26.1-2.74 38.89-.7 2.49-2.25 3.86-4.72 3.88-2.62.03-4.42-1.23-4.65-4.24z"/></g></svg>