<svg enable-background="new 0 0 400 400" viewBox="0 0 400 400" xmlns="http://www.w3.org/2000/svg"><path d="m378.6 9.2.8-1c.9.7 1.9 1.4 2.9 2.3l-.9 1.1c-1.1-.9-2-1.7-2.8-2.4zm.5 10.7c.9-2.1 1.6-4.3 2.3-6.7.4.2.8.4 1.3.6-.7 2.1-1.5 4.3-2.2 6.6zm.4-15.2.9-.9c1 .8 2 1.6 2.8 2.4l-1 1c-1-.9-1.9-1.8-2.7-2.5zm12.5-1.3h1.2v1.4h2.7v1.1h-2.7v2.7h-1.2v-.5h-1.8v1.3h4.9v3.8h-1.2v-.5h-3.7c0 .4-.1.9-.1 1.2h5.1v1h-5.2c0 .5-.1.9-.2 1.2h6v1h-5.2c1.1 1.3 2.9 2 5.5 2.2-.4.4-.7.8-.9 1.3-2.9-.5-4.8-1.6-5.7-3.5h-.1c-.8 1.7-2.7 2.9-5.9 3.6-.2-.4-.6-.8-.9-1.1 2.8-.6 4.6-1.4 5.4-2.5h-4.8v-1h5.3c.1-.3.2-.7.2-1.2h-4.9v-1h5c0-.4 0-.8.1-1.2h-3.6v.5h-1.2v-3.8h4.9v-1.3h-1.8v.5h-1.2v-2.7h-2.6v-1.1h2.6v-1.4h1.2v1.4h4.7v-1.4zm-6.7 8.4h3.6c0-.4 0-.9 0-1.4h-3.6zm1.9-4.7h4.7v-1.2h-4.7zm6.7 3.3h-3.7v1.4h3.7z" fill="#fafbfc"/><path d="m384.7 21.4h1.3v2.2h2.8v-2.2h1.3v2.2h4.1v9.1h1.7v1.3h-16.9v-1.3h1.7v-9.1h4.1v-2.2zm.3 13.2.7 1.2c-1.8.9-3.8 1.9-6 2.9-.2-.4-.5-.8-.8-1.3 2.4-1 4.4-2 6.1-2.8zm-3.1-6.5h2.8v-3.2h-2.8zm0 4.6h2.8v-3.3h-2.8zm4.1-4.6h2.8v-3.2h-2.8zm0 4.6h2.8v-3.3h-2.8zm3.6 1.9c2.1.9 4.1 1.8 6.1 2.7l-.7 1.3c-2.2-1.1-4.2-2-6.1-2.9zm3.3-9.7h-2.8v3.2h2.8zm-2.8 7.8h2.8v-3.3h-2.8z" fill="#fafbfc"/><g fill="#010104"><path d="m306.43 219.21c-2.57-3.07-1.99-6.48-1.35-9.78 1.5-7.68 3.14-15.34 4.87-22.97.17-.77 1.2-1.57 2.02-1.92 2.62-1.1 6.43-1.25 7.7-3.16 1.39-2.09.72-5.74.47-8.67-.6-7.03 0-13.46 6.67-17.71 4.69-2.99 5.66-7.25 3.91-12.29-.74-2.12-.1-3.51 1.64-4.88 3.25-2.55 6.25-5.41 9.47-8.01 1.51-1.22 2.1-2.39 1.39-4.33-1.16-3.18-2.08-6.44-3.1-9.67-1.34-4.25-.18-6.09 4.34-6.03 3.58.05 7.17.54 10.7 1.16.9.16 2.1 1.38 2.31 2.32 2.18 9.38 4.2 18.81 6.2 28.23.16.76.16 1.76-.22 2.39-6.67 11.26-6.62 23.39-4.78 35.78 1.51 10.18 2.84 20.37.95 30.67-.82 4.44-2.17 8.58-5.06 12.17-1.99 2.47-3.73 5.14-5.54 7.68.13.29.17.52.31.63 4.83 3.89 5.33 8.14 1.49 13.37-5.08 6.92-10.26 13.77-15.22 20.77-1.49 2.1-3.2 3.3-5.71 3.29-4.58-.01-7.87 1.84-9.47 6.29-.11.29-.32.55-.48.82-3.93 6.4-6.87 13.84-12.09 18.92-5.14 5-12.63 7.57-19.05 11.28-14.86 8.58-29.72 17.16-44.5 25.86-2.27 1.33-4.25 2.07-6.72.7-4.31-2.39-8.24-2.05-12.03 1.42-5.89 5.38-12.78 7.5-20.71 5.44-.4-.1-.86.01-1.27-.09-5.71-1.38-10.85.07-15.65 3.13-1.66 1.06-3.27 1.27-4.96.04-5.08-3.7-10.54-3.84-16.5-2.34-5.73 1.44-11.65 2.19-17.52 3.05-1.16.17-2.7-.25-3.65-.96-3.98-2.99-7.66-6.4-11.72-9.27-4.45-3.15-5.89-7.27-5.12-12.42.25-1.67.61-3.33.93-4.99.29-1.52.99-2.29 2.77-2.27 4.37.05 8.84.8 12.58-2.77 4.32-4.12 6.88-9.08 8.05-14.81 1.49-7.26 3.02-14.52 4.23-21.83.69-4.16 2.39-7.39 6.16-9.34 3.45-1.78 4.4-4.36 3.19-8.04-1.1-3.34-.84-6.61 1.23-9.65 6.33-9.34 8.29-19.81 8.04-30.9-.05-2.19.66-4.39.94-6.59.72-5.52 3.02-10.15 6.76-14.36 5.42-6.09 10.46-12.54 15.47-18.98.98-1.26 1.43-3.18 1.53-4.83.14-2.2-.17-4.45-.52-6.64-1.84-11.55.96-22.78 2.27-34.11.15-1.28.83-2.61 1.58-3.69 2.01-2.86 4.19-5.6 6.31-8.38 3.07-4.05 3.05-5-.36-9.14 1.03-1.25 2.07-2.55 3.14-3.82 3.38-4.02 3.38-4.02 7.9-1.5 7.1 3.95 8.69 7.61 6.75 15.4-.51 2.05-.93 4.13-1.29 6.22-.81 4.66-.37 8.66 3.53 12.32 5.78 5.43 10.96 11.51 16.32 17.38 5.01 5.49 7.62 11.84 6.9 19.43-.69 7.26.14 14.34 2.59 21.27 3.73 10.58 7.43 21.17 10.8 31.87 2.72 8.64 3.08 17.47.68 26.34-.49 1.82-1.35 2.74-3.09 3.04-.31.05-.62.13-.93.22-8.67 2.5-8.85 2.61-13.77-4.81-4.14-6.26-7.94-12.76-11.67-19.27-4.46-7.78-10.87-13.1-19.15-16.41-1.98-.79-2.96-.3-4.29 1.13-10.82 11.62-18.25 25.42-25.62 39.28-2.89 5.44-5.78 10.81-6.11 17.19-.05.94-1.48 2.2-2.55 2.63-7.6 3.09-7.62 3.03-7.62 11.25 0 6.36.07 12.73-.04 19.09-.03 1.94.55 3.03 2.38 3.88 11.02 5.17 22.62 5.66 34.25 3.61 20.37-3.58 39.88-9.97 57.59-20.87 7.29-4.49 14.24-9.65 20.72-15.24 2.55-2.2 4.06-6.24 4.84-9.71 1.35-5.95 2.33-12.11 2.45-18.2.24-11.98 2.53-22.94 12.11-31.31zm17.29 12.89c2.7-1.18 5.22-2.62 7.94-3.4 5.25-1.5 8.07-4.34 6.89-10.12-.16-.8 0-1.71.18-2.52 1.47-6.6 2.84-13.23 4.5-19.78 2.61-10.34-2.69-15.04-11.82-15.72-2.34-.17-5.02 1.45-7.13 2.87-.66.44-.07 2.94.16 4.46.48 3.25.94 6.5 1.67 9.7 1.58 6.83.16 12.96-3.77 18.67-4.19 6.07-3.86 10.05 1.38 15.84z"/><path d="m118.02 336.57c-7.25-1.64-14.05-3.11-20.81-4.74-1.89-.46-2.76-3.11-1.76-4.86 1.31-2.29 2.72-4.53 4.27-7.07-5.14-2.84-10.54-3.3-16-2.44-13.72 2.14-21.24-1.46-27.96-13.6-8.01-14.45-12.4-30.16-15.22-46.24-2.59-14.79-4.22-29.74-6.1-44.65-.19-1.48.5-3.31 1.32-4.64 3.68-5.96 4.17-12.21 2.71-18.95-1.61-7.43-2.81-14.94-4.08-22.44-.19-1.09.01-2.35.36-3.42 3.46-10.67 6.99-21.31 10.52-31.96.16-.49.45-.93.78-1.59 7.23 3.63 12.26 8.74 13.18 17.05.23 2.11.41 4.22.61 6.33.61 6.26 2.33 11.75 7.42 16.22 5.53 4.86 10.81 10.2 11.96 18.19.41 2.88.27 4.95-2.62 6.55-3.02 1.68-5.74 3.9-8.85 6.06 4.5 2.94 8.73 5.55 12.77 8.42 1.36.97 2.72 2.44 3.28 3.98 11.16 30.28 22.21 60.61 33.26 90.93.4 1.09.9 2.23.91 3.35.08 9.65.05 19.29.05 29.52zm-38.49-48.79c-.47-1.36-.82-2.32-1.15-3.3-3.06-9.14-4.89-18.4-3.25-28.11.56-3.32 1.34-6.76 1.04-10.05-.95-10.29-6.74-18.19-13.48-25.68-5.15 3.92-10.11 7.69-15.13 11.51.61 1.15 1.06 2.1 1.6 3 4.69 7.77 8.12 16.05 9.79 24.99 1.6 8.54 4.93 16.39 9.24 23.86.57.99 1.61 2.11 2.63 2.37 2.73.68 5.57.93 8.71 1.41z"/><path d="m272.65 96.14c-1.34-2.05-2.95-3.67-3.54-5.6-.96-3.16-2.31-6.76-1.64-9.76 1.73-7.68 4.48-15.12 7.03-23.34 4.61 4.82 7.32 9.75 9.51 15 4.86 11.64 5.38 23.87 4.71 36.22-.69 12.62-2.31 25.1-6.38 37.13-1.98 5.86-7.24 10.37-14.34 6.55-1.03-.55-2-1.51-2.59-2.52-4.68-8.09-4.99-17.14-5.66-26.13-.34-4.53-1.09-9.04-1.36-13.58-.07-1.2.6-2.86 1.51-3.64 4.08-3.52 8.36-6.81 12.75-10.33z"/><path d="m103.41 89.4c7.84.92 13.44 4.67 16.02 11.94 3.15 8.86 4.68 18.13 3.85 27.49-.37 4.19-2.39 8.29-3.98 12.31-.97 2.46-1.27 4.68.29 6.88 4.23 5.95 3.61 11.31-1.69 16.3-1.19 1.12-1.96 2.7-2.98 4.16 1.28.96 2.35 1.77 3.42 2.57-.05.18-.09.35-.14.53-4.92-.73-9.85-1.42-14.77-2.21-5.13-.83-5.18-.88-4.86-6.1 1.49-24.22 3.01-48.43 4.53-72.64.03-.31.15-.61.31-1.23z"/><path d="m103.43 182.05c7.73-.67 10.86 1.41 12.81 8.58-2.21.9-3.42 4.44-6.65 2.75-6.14-3.21-6.99-4.92-6.16-11.33z"/></g></svg>