<svg enable-background="new 0 0 400 400" viewBox="0 0 400 400" xmlns="http://www.w3.org/2000/svg"><path d="m362.1 8.8c1.1.8 2.1 1.6 3.1 2.4l-1 1.1c-1.3-1.1-2.3-2-3-2.5zm1.9 4.8c.5.2.9.4 1.4.5-.6 2.3-1.3 4.5-1.9 6.8l-1.5-.5c.8-2.1 1.4-4.3 2-6.8zm-1-9.4c1.3.9 2.4 1.8 3.4 2.5l-1 1.1c-1.4-1.2-2.4-2.1-3.2-2.6zm3.7 2.2v-1.4h10.3v1.2c-.5 3.6-1.8 6.8-4 9.4 1.5 1.6 3.4 2.8 5.7 3.8-.3.4-.7.8-1.1 1.4-2.3-1.1-4.1-2.5-5.6-4.1-1.6 1.6-3.6 3.1-5.9 4.3-.3-.5-.7-.9-1-1.3 2.4-1.1 4.4-2.5 6-4.1-1.9-2.5-3-5.6-3.3-9.3h-1.1zm8.8 0h-6.4c.3 3.3 1.3 6 3 8.2 2-2.3 3.1-5.1 3.4-8.2z" fill="#fbfcfa"/><path d="m385.3 3.8h1.3v2.2h2.8v-2.2h1.3v2.2h4.1v9.1h1.7v1.3h-16.9v-1.3h1.7v-9.1h4.1v-2.2zm.4 13.1.7 1.2c-1.8.9-3.8 1.9-6 2.9-.2-.4-.5-.8-.8-1.3 2.3-1 4.3-1.9 6.1-2.8zm-3.1-6.4h2.8v-3.2h-2.8zm0 4.6h2.8v-3.3h-2.8zm4-4.6h2.8v-3.2h-2.8zm0 4.6h2.8v-3.3h-2.8zm3.7 1.9c2.1.9 4.1 1.8 6.1 2.7l-.7 1.3c-2.2-1.1-4.2-2-6.1-2.9zm3.2-9.7h-2.8v3.2h2.8zm-2.8 7.8h2.8v-3.3h-2.8z" fill="#fbfcfa"/><path d="m219.36 207.19c-6.15 8.23-11.9 15.83-17.55 23.5-4.3 5.84-8.81 11.51-15.35 14.96-3.22 1.7-6.78 2.75-10.19 4.1-.36-.26-.73-.52-1.09-.79 1.25-5.58 1.49-11.65 3.93-16.65 8.03-16.46 16.82-32.54 25.41-48.72 1.03-1.94 1.01-3.51.38-5.62-2.24-7.56-6.76-13.3-13.1-17.74-9.01-6.31-17.82-12.96-27.21-18.66-4.28-2.6-9.72-3.33-14.66-4.78-3.14-.92-4.77.42-4.88 3.69-.29 7.92-.61 15.85-.91 23.77-.17 4.54.08 9.14-.59 13.6-.76 5.05-3.83 7.59-8.13 8-1.98.19-3.27-.29-4.3-2.26-5.35-10.26-8.53-21.21-10.63-32.49-3.47-18.59-5.15-37.33-4.74-56.29.28-13.23-.08-26.47-.21-39.71-.04-4.01 2.43-5.33 6.21-4.86 5.7.72 7.47 4.79 9.5 8.92 3.49 7.09 4.41 14.7 4.8 22.5.38 7.7 1.14 15.38 1.97 23.04.38 3.49 2.34 5.71 6 6.88 17.34 5.59 31.88 16.53 47.53 25.36 6.73 3.8 13.31 7.85 20.21 11.93 4.08-6.03 5.3-12.55 3.66-19.4-2.38-9.91-5.78-19.39-11.67-27.95-8.35-12.13-16.3-24.53-24.23-36.94-2.56-4.01-5.42-7.46-9.62-9.84-.97-.55-1.84-2.29-1.8-3.45.15-5.07.66-10.12 1.07-15.72 1.15.85 1.91 1.35 2.6 1.94 11.91 10.05 23.83 20.09 35.71 30.17 1.12.95 2.3 1.98 2.99 3.24 10.38 19.03 19.09 38.77 23.83 59.99 1.07 4.79.15 10.1-.31 15.14-.96 10.55-2.26 21.07-3.3 31.62-.11 1.12.3 2.61 1.02 3.43 8.05 9.1 11.93 20.17 16.07 31.36 10.26 27.7 17 56.3 23.33 85.05 2.87 13.02 6.42 25.89 9.14 38.94 1.81 8.66 1.69 17.49-.32 26.21-.4 1.71-.87 3.61-2.93 3.47-1.28-.09-2.8-1.03-3.67-2.05-7.33-8.62-11.72-18.68-13.21-29.81-3.41-25.49-12.52-49.36-20.25-73.65-3.11-9.76-4.77-19.97-7.71-29.79-1.77-5.93-4.53-11.6-7.27-17.17-1.13-2.28-3.37-4-5.53-6.47z" fill="#010101"/></svg>