<svg enable-background="new 0 0 400 400" viewBox="0 0 400 400" xmlns="http://www.w3.org/2000/svg"><path d="m362.1 8.8c1.1.8 2.1 1.6 3.1 2.4l-1 1.1c-1.3-1.1-2.3-2-3-2.5zm1.9 4.8c.5.2.9.4 1.4.5-.6 2.3-1.3 4.5-1.9 6.8l-1.5-.5c.8-2.1 1.4-4.3 2-6.8zm-1-9.4c1.3.9 2.4 1.8 3.4 2.5l-1 1.1c-1.4-1.2-2.4-2.1-3.2-2.6zm3.7 2.2v-1.4h10.3v1.2c-.5 3.6-1.8 6.8-4 9.4 1.5 1.6 3.4 2.8 5.7 3.8-.3.4-.7.8-1.1 1.4-2.3-1.1-4.1-2.5-5.6-4.1-1.6 1.6-3.6 3.1-5.9 4.3-.3-.5-.7-.9-1-1.3 2.4-1.1 4.4-2.5 6-4.1-1.9-2.5-3-5.6-3.3-9.3h-1.1zm8.8 0h-6.4c.3 3.3 1.3 6 3 8.2 2-2.3 3.1-5.1 3.4-8.2z" fill="#fbfcfa"/><path d="m385.3 3.8h1.3v2.2h2.8v-2.2h1.3v2.2h4.1v9.1h1.7v1.3h-16.9v-1.3h1.7v-9.1h4.1v-2.2zm.4 13.1.7 1.2c-1.8.9-3.8 1.9-6 2.9-.2-.4-.5-.8-.8-1.3 2.3-1 4.3-1.9 6.1-2.8zm-3.1-6.4h2.8v-3.2h-2.8zm0 4.6h2.8v-3.3h-2.8zm4-4.6h2.8v-3.2h-2.8zm0 4.6h2.8v-3.3h-2.8zm3.7 1.9c2.1.9 4.1 1.8 6.1 2.7l-.7 1.3c-2.2-1.1-4.2-2-6.1-2.9zm3.2-9.7h-2.8v3.2h2.8zm-2.8 7.8h2.8v-3.3h-2.8z" fill="#fbfcfa"/><g fill="#010101"><path d="m265.61 366.18c-6.91-8.26-14.25-16.2-20.57-24.89-4.75-6.54-8.67-13.81-12.11-21.15-7.65-16.3-16.18-32.1-25.52-47.48-3.3-5.43-6.8-10.74-10.02-16.22-1.37-2.34-2.37-4.93-3.31-7.5-1.19-3.25-2.67-3.78-4.89-1.21-5.88 6.81-11.57 13.77-17.44 20.59-4.49 5.21-9.14 10.29-13.68 15.45-4.55 5.17-9.02 10.4-13.6 15.54-3.16 3.55-6.48 6.96-9.67 10.49-1.65 1.82-3.17 3.76-4.75 5.64-.42-.15-.84-.3-1.26-.46.2-1.35-.04-3.03.69-3.98 3.86-5.03 8-9.85 11.97-14.8 3.01-3.76 5.76-7.73 8.88-11.39 5.36-6.29 10.99-12.35 16.34-18.65 1.54-1.81 2.34-4.23 3.77-6.15 1.74-2.33 3.78-4.43 5.71-6.61.84-.95 1.81-1.8 2.6-2.79 9.68-12.11 9.74-17.95.73-31.93-3.77-5.85-7.3-11.87-10.84-17.87-2.32-3.94-4.51-7.96-6.61-12.02-.32-.61-.11-1.88.35-2.39.5-.55 1.98-1.03 2.35-.72 1.56 1.29 3.44 2.66 4.14 4.42 1.63 4.1 3.33 7.9 6.99 10.71 1.18.9 1.41 2.97 2.22 4.42 1.36 2.45 2.77 4.87 4.29 7.22 2.11 3.28 4.2 6.6 6.58 9.68 1.81 2.34 4.06 4.33 6.72 7.12 5.99-6.76 11.39-12.82 16.75-18.91 5.42-6.15 10.51-12.64 18.4-16.59-.84 2.19-1.26 4.7-2.59 6.52-5.88 8.04-11.95 15.95-18.12 23.76-2.22 2.81-4.89 5.28-7.42 7.83-4.05 4.09-4.47 8.33-.86 12.89 2.43 3.07 5.33 5.78 5.13 10.18-.03.61.65 1.3 1.09 1.88 6.31 8.28 11.86 16.93 15.74 26.73 1.83 4.62 4.91 8.96 8.22 12.73 5.78 6.59 9.96 13.91 12.63 22.18.42 1.29.76 2.95 1.71 3.66 4.65 3.47 5.92 8.87 8.32 13.64 1.17 2.33 2.81 4.42 4.13 6.69.99 1.69 1.82 3.47 2.68 5.23.23.46.17 1.17.51 1.45 5.31 4.47 3.19 10.97 4.97 16.39-.47.21-.91.44-1.35.67z"/><path d="m257.55 36.85c-.52 1.7-.72 3.6-1.64 5.05-2.27 3.59-4.66 7.03-5.31 11.39-.15 1.02-1.14 1.97-1.88 2.82-8.02 9.14-16.16 18.17-24.07 27.4-3.9 4.54-4.88 9.66-1.75 15.19 1.3 2.3 3.22 4.73 3.29 7.15.23 7.85 7.4 12.64 8.23 20.09 5.43 5.86 5.14 14.69 10.81 20.54 1.61 1.66 2.41 4.49 2.77 6.9.69 4.59.8 9.27 1.21 14.74-2.13-4.11-5.95-6.42-5.45-11.03.07-.63-.38-1.5-.86-1.99-6.05-6.21-8.32-14.37-11.48-22.08-.6-1.47-.84-3.25-1.84-4.37-5.96-6.68-6.74-15.62-10.44-23.27-.6-1.24-1.04-2.57-1.78-3.72-2.27-3.51-5.48-3.85-8.29-.78-15.09 16.5-30.11 33.05-45.21 49.53-2.72 2.96-5.54 5.86-8.61 8.45-1.83 1.55-4.23 2.44-6.37 3.63-.37-.36-.74-.72-1.11-1.07 1.37-2.34 2.71-4.69 4.12-6.99.32-.53.91-.89 1.33-1.36 8.76-9.99 17.47-20.01 26.29-29.94 1.57-1.77 3.61-3.12 5.4-4.71.85-.76 1.73-1.53 2.42-2.43 4.84-6.3 9.57-12.68 14.48-18.92 1.14-1.45 2.72-2.67 4.31-3.65 1.95-1.19 2.97-2.66 2.64-4.94-.56-3.95-1.54-7.53-3.68-11.2-3.46-5.94-5.59-12.67-8.09-19.14-1.44-3.73-2.41-7.65-3.73-11.43-1.28-3.68-2.67-7.32-1.12-11.85 4.25 4.01 6.85 8.33 7.53 13.81.21 1.73.6 3.55 1.41 5.06 3.87 7.29 7.9 14.5 11.89 21.73 2.35 4.27 3.48 4.42 7.08 1.47 4.81-3.95 9.79-7.7 14.58-11.67 1.09-.9 1.62-2.45 2.59-3.54 1.43-1.6 3.03-3.05 4.53-4.59.64-.65 1.32-1.3 1.79-2.06 3.05-4.96 5.96-10 9.11-14.89.97-1.51 2.57-2.62 3.88-3.92.33.19.67.39 1.02.59z"/></g></svg>