<svg enable-background="new 0 0 400 400" viewBox="0 0 400 400" xmlns="http://www.w3.org/2000/svg"><path d="m113.57 366.71c-.31-1.05-.46-1.78-.74-2.46-.92-2.29-.23-3.5 2.11-4.52 14.27-6.19 28.47-12.54 42.7-18.84 1.35-.6 2.7-1.22 4.03-1.87 7.38-3.57 8.8-5.46 7.89-13.73-.59-5.41-1.95-10.83-3.69-15.99-2.63-7.81-5.83-15.44-8.97-23.08-.54-1.32-1.81-2.58-3.06-3.34-12.52-7.54-25.11-14.96-37.68-22.42-.98-.58-1.92-1.21-2.77-2.45 4.88.29 9.78.44 14.65.9 16.18 1.52 32.05 4.69 47.59 9.43 1.47.45 3 1.56 3.92 2.8 6.42 8.72 9.44 18.57 9.58 29.39.09 6.35.19 12.74.94 19.03 1.07 9.03 7.07 14.61 16.32 14.75 7.17.1 14.34-1.15 21.53-1.41 3.88-.14 6.25-1.76 8.55-4.8 10.99-14.55 17.58-30.89 19.87-48.86 1.51-11.87 1.94-23.86 3.34-35.75 2.16-18.39 7.02-36.11 14.53-53.96 1.48 3.66 2.46 6.88 4.03 9.79 3.95 7.31 4.15 14.89 3.37 23.01-2.15 22.36-3.66 44.78-5.44 67.18-.62 7.82-1.22 15.64-1.93 23.45-.1 1.08-.64 2.23-1.27 3.14-6.89 9.92-13.8 19.83-20.81 29.67-.73 1.03-1.96 2-3.15 2.38-17.96 5.66-35.88 11.44-53.98 16.61-4.08 1.16-8.8.23-13.21 0-11-.56-22-1.74-32.99-1.77-7.58-.02-15.16 1.47-22.74 2.29-4.1.46-8.19.94-12.52 1.43zm142.71-34.49c-.4-3.16-.78-6.14-1.16-9.11-.17 0-.34.01-.51.01-.7 3.32-1.41 6.63-2.22 10.46 1.64-.58 2.69-.94 3.89-1.36z" fill="#010100"/><path d="m224.65 230.53c-8.62 5.07-17.87 6.69-27.5 4.31-12.16-3.01-24-7.32-34.73-13.75-5.11-3.06-9-8.27-13.2-12.73-7.06-7.5-13.13-15.83-14.8-26.19-1.34-8.33-1.77-16.87-1.88-25.32-.28-20.93 1.73-41.75 5.31-62.33 2.9-16.67 6.72-33.18 10.43-49.7.74-3.28 2.81-6.25 4.39-9.63 6.4 3.71 9.34 9 10.83 15.27 1.93 8.12.92 16.23-.27 24.32-1.67 11.37-1.24 22.54 2.33 33.6 2.69 8.34 7.92 13.51 16.27 16.21 11.64 3.77 23.49 4.25 35.51 3.44 9.23-.62 18.44-.99 27.35 2.22 4.18 1.51 7.75 3.86 10.11 8.14-4.7 4.48-10.32 7.2-16.46 9.03-9.3 2.78-18.8 2.57-28.37 2.13-16.06-.73-31.78-3.42-47.27-7.6-2.17-.59-3.65-.07-5.09 1.44-3.07 3.22-4.3 7.25-3.83 11.42.85 7.66 2.07 15.3 3.57 22.86 1.33 6.74 3.14 13.39 4.97 20.02.43 1.57 1.5 3.27 2.79 4.24 10.36 7.75 22.15 11.67 34.99 12.93 10.28 1.01 19.11 4.75 24.15 14.59.14.29.22.59.4 1.08z" fill="#010100"/><g fill="#fbfafc"><path d="m342.2 3.2-6.3 9.2h6.1v1.2h-8.2v-.5l6.2-9.1h-5.7v-1.2h7.8v.4z"/><path d="m344 13.7v-10.9h3.1c1.6 0 3 .5 4.1 1.4 1.1 1 1.6 2.2 1.6 3.9s-.5 3-1.6 4-2.5 1.5-4.2 1.5h-3zm1.4-9.6v8.4h1.6c1.4 0 2.5-.4 3.2-1.1.8-.8 1.2-1.8 1.2-3.2s-.4-2.4-1.2-3.1-1.8-1-3.1-1z"/><path d="m356.3 2.8v10.9h-1.4v-10.9z"/><path d="m366.6 13.2c-.8.4-1.8.6-3 .6-1.6 0-2.8-.5-3.7-1.5s-1.4-2.3-1.4-3.9c0-1.7.5-3.2 1.6-4.2s2.4-1.6 4-1.6c1 0 1.9.1 2.6.4v1.5c-.8-.4-1.6-.6-2.6-.6-1.2 0-2.2.4-3 1.2s-1.1 1.9-1.1 3.3c0 1.3.4 2.3 1.1 3.1s1.6 1.1 2.8 1.1c1.1 0 2-.2 2.8-.7v1.3z"/><path d="m368.2 13c0-.3.1-.5.3-.6.2-.2.4-.3.6-.3.3 0 .5.1.7.3s.3.4.3.6-.1.5-.3.6c-.2.2-.4.3-.7.3s-.5-.1-.6-.3c-.2-.2-.3-.4-.3-.6z"/><path d="m381.1 13.7h-1.7l-5.5-8.4c-.2-.2-.3-.5-.4-.7 0 .2.1.8.1 1.5v7.6h-1.4v-10.9h1.8l5.3 8.3c.3.4.4.6.4.8 0-.3-.1-.8-.1-1.6v-7.5h1.4v10.9z"/><path d="m389.7 13.7h-5.8v-10.9h5.6v1.2h-4.2v3.5h3.9v1.2h-3.9v3.7h4.4z"/><path d="m398.4 4.1h-3.1v9.6h-1.4v-9.6h-3.1v-1.3h7.7v1.3z"/></g></svg>