<svg enable-background="new 0 0 400 400" viewBox="0 0 400 400" xmlns="http://www.w3.org/2000/svg"><path d="m362.1 8.8c1.1.8 2.1 1.6 3.1 2.4l-1 1.1c-1.3-1.1-2.3-2-3-2.5zm1.9 4.8c.5.2.9.4 1.4.5-.6 2.3-1.3 4.5-1.9 6.8l-1.5-.5c.8-2.1 1.4-4.3 2-6.8zm-1-9.4c1.3.9 2.4 1.8 3.4 2.5l-1 1.1c-1.4-1.2-2.4-2.1-3.2-2.6zm3.7 2.2v-1.4h10.3v1.2c-.5 3.6-1.8 6.8-4 9.4 1.5 1.6 3.4 2.8 5.7 3.8-.3.4-.7.8-1.1 1.4-2.3-1.1-4.1-2.5-5.6-4.1-1.6 1.6-3.6 3.1-5.9 4.3-.3-.5-.7-.9-1-1.3 2.4-1.1 4.4-2.5 6-4.1-1.9-2.5-3-5.6-3.3-9.3h-1.1zm8.8 0h-6.4c.3 3.3 1.3 6 3 8.2 2-2.3 3.1-5.1 3.4-8.2z" fill="#fbfcfa"/><path d="m385.3 3.8h1.3v2.2h2.8v-2.2h1.3v2.2h4.1v9.1h1.7v1.3h-16.9v-1.3h1.7v-9.1h4.1v-2.2zm.4 13.1.7 1.2c-1.8.9-3.8 1.9-6 2.9-.2-.4-.5-.8-.8-1.3 2.3-1 4.3-1.9 6.1-2.8zm-3.1-6.4h2.8v-3.2h-2.8zm0 4.6h2.8v-3.3h-2.8zm4-4.6h2.8v-3.2h-2.8zm0 4.6h2.8v-3.3h-2.8zm3.7 1.9c2.1.9 4.1 1.8 6.1 2.7l-.7 1.3c-2.2-1.1-4.2-2-6.1-2.9zm3.2-9.7h-2.8v3.2h2.8zm-2.8 7.8h2.8v-3.3h-2.8z" fill="#fbfcfa"/><g fill="#010101"><path d="m138.98 48.4c.35 7.2.14 14.14 1.13 20.9 1.5 10.27-.89 20.28-1.12 30.41-.24 10.63-.65 21.27 2.97 31.45 1.32 3.7 3.18 7.51 5.75 10.42 8.07 9.12 16.46 17.97 25.01 26.64 4.26 4.31 9.72 6.66 16.74 6.87.89-6.2 2.38-12.42 2.55-18.68.33-12.28-.04-24.58-.18-36.88-.05-4.24-.38-8.48-.34-12.72.04-4.29 2.59-7.28 6.37-7.96 3.79-.68 5.35.16 7.04 3.58 4.49 9.08 4.13 18.59 2.98 28.31-1.21 10.18-3.19 20.35-1.71 30.7.04.31.04.63.08.95.77 7.1 4.44 8.71 10.3 4.5 3.87-2.79 7.55-5.9 11.63-8.33 9.63-5.74 14.51-14.7 18.2-24.8 3.56-9.73 3.38-19.83 3.41-29.84.04-14.5 2.56-28.68 4.45-42.95.57-4.3.27-8.74 1.07-12.98.75-3.96 2.37-7.77 3.75-11.6.66-1.84 2.07-1.74 3.63-.94 2.94 1.51 4.44 4.05 4.53 7.17.96 30.98 1.02 61.9-5.71 92.41-1.18 5.37-3.79 9.81-7.1 14.28-10.35 13.93-23.89 24.26-37.38 34.69-2.67 2.06-5.8 3.51-8.6 5.4-.86.58-1.87 1.64-1.96 2.56-1.39 15.82-4.39 31.54-3.44 47.52.24 4 1.09 7.95 1.68 12 4.55.59 8.16.13 11.96-2.77 14.75-11.21 27.81-24.21 41.01-37.1 5.55-5.43 11.92-9.79 19.31-12.68 1.87 2.85 1.26 5.71-.16 8.16-6.09 10.49-11.43 21.44-21.21 29.41-12.74 10.38-25.08 21.24-37.51 32-4.07 3.53-7.99 7.26-11.75 11.12-2.95 3.03-3.1 7.04-3 11.03.34 13.46 1.23 26.94.77 40.38-.35 10.21-2.43 20.36-3.82 30.52-.14.99-.76 2-1.41 2.81-1.68 2.12-3.3 1.94-4.44-.51-3.75-8.1-5.02-16.8-6.02-25.55-1.68-14.71-1.47-29.42.39-44.1.32-2.55-.35-4.29-2.11-6.18-16.57-17.75-33.11-35.53-49.48-53.46-7.45-8.17-14.07-17-17.69-27.66-.6-1.78-1.63-4.04-1.02-5.46 1.13-2.65 3.09-5.06 5.12-7.15 1.72-1.77 5.18-.84 6.82 1.49 14.99 21.24 33.38 39.17 53.75 55.17.67.52 1.35 1.03 2.04 1.52.15.1.37.1.81.2.07-.95.19-1.84.2-2.74.01-16.97-.04-33.94.07-50.91.02-2.37-.94-3.46-2.79-4.71-9.81-6.64-20.55-12.37-29.01-20.46-22.63-21.63-33.56-48.63-32.85-80.15.32-14.21 2.94-27.99 7.34-41.46.37-1.12 1.72-2.27 2.88-2.69 1.86-.69 3.92-.78 6.07-1.15z"/><path d="m174.59 67.97c3.55 1.21 4.63 3.49 3.1 6.42-.28.54-.99.85-1.5 1.27-.32-.48-.85-.93-.92-1.45-.31-2.04-.47-4.11-.68-6.24z"/></g></svg>