<svg enable-background="new 0 0 400 400" viewBox="0 0 400 400" xmlns="http://www.w3.org/2000/svg"><path d="m378.6 9.2.8-1c.9.7 1.9 1.4 2.9 2.3l-.9 1.1c-1.1-.9-2-1.7-2.8-2.4zm.5 10.7c.9-2.1 1.6-4.3 2.3-6.7.4.2.8.4 1.3.6-.7 2.1-1.5 4.3-2.2 6.6zm.4-15.2.9-.9c1 .8 2 1.6 2.8 2.4l-1 1c-1-.9-1.9-1.8-2.7-2.5zm12.5-1.3h1.2v1.4h2.7v1.1h-2.7v2.7h-1.2v-.5h-1.8v1.3h4.9v3.8h-1.2v-.5h-3.7c0 .4-.1.9-.1 1.2h5.1v1h-5.2c0 .5-.1.9-.2 1.2h6v1h-5.2c1.1 1.3 2.9 2 5.5 2.2-.4.4-.7.8-.9 1.3-2.9-.5-4.8-1.6-5.7-3.5h-.1c-.8 1.7-2.7 2.9-5.9 3.6-.2-.4-.6-.8-.9-1.1 2.8-.6 4.6-1.4 5.4-2.5h-4.8v-1h5.3c.1-.3.2-.7.2-1.2h-4.9v-1h5c0-.4 0-.8.1-1.2h-3.6v.5h-1.2v-3.8h4.9v-1.3h-1.8v.5h-1.2v-2.7h-2.6v-1.1h2.6v-1.4h1.2v1.4h4.7v-1.4zm-6.7 8.4h3.6c0-.4 0-.9 0-1.4h-3.6zm1.9-4.7h4.7v-1.2h-4.7zm6.7 3.3h-3.7v1.4h3.7z" fill="#fafbfc"/><path d="m384.7 21.4h1.3v2.2h2.8v-2.2h1.3v2.2h4.1v9.1h1.7v1.3h-16.9v-1.3h1.7v-9.1h4.1v-2.2zm.3 13.2.7 1.2c-1.8.9-3.8 1.9-6 2.9-.2-.4-.5-.8-.8-1.3 2.4-1 4.4-2 6.1-2.8zm-3.1-6.5h2.8v-3.2h-2.8zm0 4.6h2.8v-3.3h-2.8zm4.1-4.6h2.8v-3.2h-2.8zm0 4.6h2.8v-3.3h-2.8zm3.6 1.9c2.1.9 4.1 1.8 6.1 2.7l-.7 1.3c-2.2-1.1-4.2-2-6.1-2.9zm3.3-9.7h-2.8v3.2h2.8zm-2.8 7.8h2.8v-3.3h-2.8z" fill="#fafbfc"/><g fill="#010104"><path d="m112.29 290.14c.9-.07 1.86-.38 2.69-.18 11.45 2.7 22.44.24 33.41-2.79 1.9-.53 4.04-1.28 5.85-.89 4.6 1.01 7.86-2.24 9.49-6.14 1.83-4.39 1.16-8.87.12-13.14-1.28-5.28-.49-10.04.95-15.16 1.24-4.39.83-9.22 1.3-13.85s.86-9.29 1.78-13.84c1.09-5.39 1.32-5.35 6.82-5.85 1.46-.13 2.93-.21 4.46-.31 1.33 4.18-1.81 6.53-3.6 9.58 2.55 2.38 2.82 5.52 1.85 8.49-2.37 7.24-1.95 14.65-1.97 22.05-.01 7.64-.02 15.27.01 22.91.01 3.17 2.29 5.57 5.02 4.36 7.41-3.29 15.27-1.6 22.82-2.91 9.17-1.59 18.36-3.08 27.51-4.78 1.09-.2 1.98-1.51 2.85-2.22-.28-.67-.31-.98-.44-1.03-3.83-1.62-4.58-4.64-4.19-8.45.29-2.83-.12-5.73.1-8.58.34-4.6-.3-8.79-3.53-12.37-.63-.7-.76-1.89-.98-2.89-.63-2.83-.61-5.98-1.89-8.46-4.13-7.99-2.86-15.95-1-24.13 3.18-14.01 10.73-25.69 19.26-36.87 1.7-2.22 2.71-4.49 2.31-7.29-.36-2.55.41-4.4 3.15-4.84.24-2.5-1.13-3.36-3.13-4.12-2.49-.96-4.79-2.44-7.18-3.66-.53-.27-1.22-.7-1.68-.55-7.04 2.3-13.6-.71-20.27-1.95-2.67-.5-4.29-.01-5.49 2.19-4.26 7.79-8.67 15.51-12.64 23.44-2.21 4.42-3.43 9.32-5.49 13.82-3.02 6.6-6.38 13.03-9.85 20.04.12.15.75.92 2.1 2.57-2.52.44-4.37.76-6.7 1.16.8-5.13 1.38-9.63 2.29-14.07.18-.88 1.56-1.58 2.48-2.23 1.29-.91 2.67-1.68 4.01-2.52-3.28-4.64-2.52-9.98 2.19-14.83 3.25-3.34 6.73-6.47 9.96-9.83.76-.79 1.54-2.35 1.26-3.21-1.8-5.45-.04-10.12 2.59-14.75 1.24-2.18 2.12-4.56 3.26-7.04-10.38-1.58-20.46-2.89-30.45-4.72-4.2-.77-8.33-2.33-12.2-4.16-1.28-.61-1.64-3.17-2.55-5.13-.57.25-1.98.41-2.61 1.19-2.4 3.02-4.99 2.53-7.84.91-.53-.3-1.21-.46-1.82-.48-5.34-.16-10.41-1.37-15.22-3.71-.6-.29-1.49-.31-2.14-.11-6.99 2.13-12.71-1.89-18.2-4.67-3.65-1.85-5.3-6.83-6.53-12.25 2.7.62 4.79.77 6.57 1.58 4.18 1.92 8.47 1.7 12.79 1.18 4.38-.52 8.39.06 12.05 2.75.64.47 1.96.45 2.78.15 3.93-1.43 12.19.22 15.04 3.27 1.67 1.79 3.59 2.46 5.68 1.2 4.49-2.73 9.06-1.39 13.47-.23 6.55 1.71 13.03 3.73 19.4 6.04 1.68.61 2.81 2.75 4.16 4.21.8.87 1.42 2.04 2.4 2.54.39.2 1.78-.85 2.26-1.61 1.38-2.19 3.19-2.64 5.67-2.43 7.11.6 13.46 3.44 19.93 6.12 3.56 1.48 7.39 2.58 11.2 3.1 2.09.28 4.5-.78 6.58-1.67 2.05-.88 3.22-2.62 3-5.09-.11-1.25-.09-2.59.2-3.8.64-2.64-.23-4.3-2.47-5.82-1.09-.73-1.38-2.57-2.19-3.82-1.12-1.74-2.09-3.75-3.64-5.01-7.64-6.22-15.54-12.12-23.17-18.35-3.06-2.5-5.67-5.55-8.09-7.96 1.99-1.55 3.82-2.93 5.6-4.37 1.42-1.14 5.81-.14 8.02 2.2 4.03 4.26 7.89 8.69 11.98 13.23.17-.08 1.03-.71 1.99-.95 4.91-1.24 4.91-1.21 4.85-6.04-.06-4.24.05-8.49-.22-12.72-.12-1.9-.98-3.75-1.53-5.62-.2-.69-.79-1.45-.63-2.02 1.49-5.12-.17-10.09-.6-15.11-.06-.7-.1-1.93.2-2.05 3.89-1.55 2.33-4.95 2.71-7.67.11-.81.11-1.63.18-2.7 3.43 1.64 5.58 3.6 4.95 7.57-.9 5.67 1.77 10.76 2.75 16.13.7 3.81.73 7.75.99 11.64.13 1.99-.65 3.03-2.87 3.29-1.16.14-2.77 1.25-3.12 2.28-.63 1.84.6 3.2 2.57 3.56 5.15.95 6.86 4.2 6.75 9.17-.07 3.04 1.02 6.12.9 9.15-.17 4.26 1.79 6.57 5.41 8.25 1.54.72 2.68 2.27 3.99 3.47.39.35.62.92 1.05 1.17 5.49 3.24 10.94 6.55 16.52 9.62 4.19 2.31 8.67 4.2 9.69 10.35-1.76 0-3.48.4-4.91-.08-3.14-1.07-6.11-2.65-9.2-3.89-1.24-.5-2.62-.89-3.94-.91-4.07-.07-7.57-1.15-10.71-3.98-3.35-3.01-4.48-2.61-6.12 1.07-2.43 5.46-4.09 10.95.23 16.43 1.77 2.24 1.83 4.88.45 7.49-.79 1.5-1.73 2.99-2.12 4.6-.49 2.06-.41 4.25-.73 6.36-.37 2.42-.26 5.19-1.46 7.14-6.21 10.11-12.71 20.04-19.27 29.93-1.37 2.06-3.25 3.87-5.17 5.45-2.96 2.44-3.24 4.21-1.26 7.52 5.1 8.54 8.79 17.6 9.31 27.71.03.63-.05 1.38.26 1.85 4.61 6.99 3.41 15.36 5.47 22.95 1.73 6.35.46 12.14-2.53 18-4.41 8.67-7.86 17.84-14.55 25.19-.62.68-1.11 1.6-1.33 2.48-.98 3.96-2.69 7.18-6.63 9.13-1.05.52-2.18 3.25-1.71 4.11 2.79 5.12 1.1 10.39 1.06 15.58-.02 2.22-.48 4.46-.33 6.66.06.93 1.11 2.49 1.83 2.56 2.46.25 5.06.33 7.44-.22 2.75-.64 5.4-1.87 7.95-3.14 2.65-1.32 4.8-.99 6.83 1.07.42.43 1 .69 1.93 1.32 0-1.19.16-2.01-.03-2.74-1.13-4.46 1.21-7.32 4.5-9.63 10-7 18.16-15.97 26.47-24.76 2.71-2.86 5.41-5.54 10.22-6.53-.71 1.23-1 1.94-1.46 2.51-2.86 3.55-5.61 7.2-8.67 10.57-3.49 3.84-6.04 8.09-7.36 13.13-.33 1.24-1.15 2.59-2.14 3.38-10.2 8.08-20.48 16.06-30.76 24.06-.58.45-1.27.76-1.92 1.11-13.16 7.09-19.86 2.7-22.99-10.92-2.45-10.66-.67-21.3 3.07-31.54.31-.85.97-1.67 1.66-2.27 2.14-1.87 3.16-4.04 2.87-6.96-.1-1.01.6-2.18 1.14-3.16 1.33-2.4 3.06-4.63 4.14-7.13 2.19-5.04.01-8.26-5.48-8.46-1.16-.04-2.33.12-3.49.2-5.17.38-10.34.67-15.5 1.18-3.74.37-7.45 1.04-11.17 1.58-.62.09-1.32.38-1.86.21-6.98-2.23-13.58.61-20.32 1.47-1.01.13-2.18.29-3.07-.08-2.77-1.13-5.31-1.1-7.81.64-.41.29-1.12.65-1.45.49-3.84-1.9-7.16.61-10.72 1.06-5.33.67-10.73.82-16.1 1.12-.58.03-1.33-.23-1.76-.62-3.24-2.95-6.41-5.97-9.61-8.97.26-.41.51-.83.76-1.25zm54.38-160.71c-.41.17-.82.34-1.22.5.51 1.42.62 3.39 1.63 4.14 1.86 1.37 4.27 2.2 6.42-.46-2.4-1.47-4.61-2.82-6.83-4.18z"/><path d="m213.68 79.96c-6.96 1.09-13.39 1.05-18.75-4.58-6.71-7.06-13.7-13.86-20.44-20.9-1.24-1.29-2.16-3.09-2.7-4.82-1.43-4.64-2.57-9.36-3.9-14.31 3.72-.25 6.47.82 8.69 3.68 1.86 2.39 3.75 5.08 6.25 6.59 4.05 2.45 7.17 5.46 9.27 9.63 3.49 6.94 9.75 11.29 15.36 16.21 3.9 3.41 5.02 4.49 6.22 8.5z"/></g></svg>