<svg enable-background="new 0 0 400 400" viewBox="0 0 400 400" xmlns="http://www.w3.org/2000/svg"><path d="m378.6 9.2.8-1c.9.7 1.9 1.4 2.9 2.3l-.9 1.1c-1.1-.9-2-1.7-2.8-2.4zm.5 10.7c.9-2.1 1.6-4.3 2.3-6.7.4.2.8.4 1.3.6-.7 2.1-1.5 4.3-2.2 6.6zm.4-15.2.9-.9c1 .8 2 1.6 2.8 2.4l-1 1c-1-.9-1.9-1.8-2.7-2.5zm12.5-1.3h1.2v1.4h2.7v1.1h-2.7v2.7h-1.2v-.5h-1.8v1.3h4.9v3.8h-1.2v-.5h-3.7c0 .4-.1.9-.1 1.2h5.1v1h-5.2c0 .5-.1.9-.2 1.2h6v1h-5.2c1.1 1.3 2.9 2 5.5 2.2-.4.4-.7.8-.9 1.3-2.9-.5-4.8-1.6-5.7-3.5h-.1c-.8 1.7-2.7 2.9-5.9 3.6-.2-.4-.6-.8-.9-1.1 2.8-.6 4.6-1.4 5.4-2.5h-4.8v-1h5.3c.1-.3.2-.7.2-1.2h-4.9v-1h5c0-.4 0-.8.1-1.2h-3.6v.5h-1.2v-3.8h4.9v-1.3h-1.8v.5h-1.2v-2.7h-2.6v-1.1h2.6v-1.4h1.2v1.4h4.7v-1.4zm-6.7 8.4h3.6c0-.4 0-.9 0-1.4h-3.6zm1.9-4.7h4.7v-1.2h-4.7zm6.7 3.3h-3.7v1.4h3.7z" fill="#fafbfc"/><path d="m384.7 21.4h1.3v2.2h2.8v-2.2h1.3v2.2h4.1v9.1h1.7v1.3h-16.9v-1.3h1.7v-9.1h4.1v-2.2zm.3 13.2.7 1.2c-1.8.9-3.8 1.9-6 2.9-.2-.4-.5-.8-.8-1.3 2.4-1 4.4-2 6.1-2.8zm-3.1-6.5h2.8v-3.2h-2.8zm0 4.6h2.8v-3.3h-2.8zm4.1-4.6h2.8v-3.2h-2.8zm0 4.6h2.8v-3.3h-2.8zm3.6 1.9c2.1.9 4.1 1.8 6.1 2.7l-.7 1.3c-2.2-1.1-4.2-2-6.1-2.9zm3.3-9.7h-2.8v3.2h2.8zm-2.8 7.8h2.8v-3.3h-2.8z" fill="#fafbfc"/><path d="m236.39 315.51c.71 3.86-.5 8.8-2.38 13.75-3.57 9.4-6.83 18.91-10.24 28.37-2.31 6.42-10.66 11.07-17.18 9.22-4.67-1.32-9.22-3.11-13.76-4.84-1.12-.43-2.15-1.34-2.98-2.24-8.62-9.36-17.22-18.74-25.74-28.18-.93-1.03-1.55-2.47-1.92-3.82-.69-2.55-1.38-5.16-1.55-7.78-.61-9.18-4.42-16.88-10.57-23.47-3.42-3.67-3.99-7.33-2.72-12.31 4.22-16.51 7.5-33.26 11.79-49.75 1.58-6.05 4.89-11.66 7.59-17.4 3.51-7.47 7.33-14.81 10.7-22.34.92-2.05 1.29-4.71.93-6.92-2.92-17.77-6.1-35.49-9.09-53.24-.23-1.35 0-2.96.55-4.22 5.31-12.24 10.69-24.44 16.15-36.61.81-1.81 2.04-3.46 3.22-5.08 12.65-17.27 25.36-34.5 37.95-51.81 1.37-1.89 2.63-2.24 4.76-1.59 4.74 1.46 7.57 4.72 7.75 9.42.78 20.5 6.97 40.01 10.67 59.97 2.25 12.16 1.32 24.05-2.83 35.68-.49 1.36-1.36 2.63-2.22 3.82-11.79 16.33-23.58 32.65-35.44 48.92-1.33 1.83-2 3.48-1.33 5.82.79 2.73 1.13 5.6 1.57 8.43 1 6.4 2.85 12.26 6.5 17.91 7.52 11.62 10.81 24.97 13.4 38.45 3.19 16.65 5.55 33.42 6.42 51.84zm-46.59-83.27c-.63.51-.91.68-1.1.91-1.15 1.39-2.32 2.76-3.4 4.2-9.71 12.96-15.04 27.37-12.62 43.66 2.95 19.86 10.51 38.06 21.72 54.73.46.68.96 1.48 1.64 1.85 5.65 3 10.77.82 12.61-5.36 2.52-8.41 5.08-16.81 7.44-25.27.42-1.49.36-3.38-.17-4.83-5.47-14.9-11.08-29.74-16.65-44.6-3.11-8.3-6.22-16.6-9.47-25.29zm33.1-140.02c-7.12 7.04-13.96 13.8-20.78 20.58-.44.44-.68 1.07-1.02 1.6-4.14 6.6-6.38 13.84-6.75 21.57-.41 8.69 2.91 15.98 9 22.26 4.85-4.33 9.54-8.46 14.15-12.66.75-.68 1.37-1.64 1.73-2.59 2.72-7.21 5.39-14.44 8.03-21.69 3.75-10.34 1.16-19.75-4.36-29.07z" fill="#010104"/></svg>