<svg enable-background="new 0 0 400 400" viewBox="0 0 400 400" xmlns="http://www.w3.org/2000/svg"><path d="m362.1 8.8c1.1.8 2.1 1.6 3.1 2.4l-1 1.1c-1.3-1.1-2.3-2-3-2.5zm1.9 4.8c.5.2.9.4 1.4.5-.6 2.3-1.3 4.5-1.9 6.8l-1.5-.5c.8-2.1 1.4-4.3 2-6.8zm-1-9.4c1.3.9 2.4 1.8 3.4 2.5l-1 1.1c-1.4-1.2-2.4-2.1-3.2-2.6zm3.7 2.2v-1.4h10.3v1.2c-.5 3.6-1.8 6.8-4 9.4 1.5 1.6 3.4 2.8 5.7 3.8-.3.4-.7.8-1.1 1.4-2.3-1.1-4.1-2.5-5.6-4.1-1.6 1.6-3.6 3.1-5.9 4.3-.3-.5-.7-.9-1-1.3 2.4-1.1 4.4-2.5 6-4.1-1.9-2.5-3-5.6-3.3-9.3h-1.1zm8.8 0h-6.4c.3 3.3 1.3 6 3 8.2 2-2.3 3.1-5.1 3.4-8.2z" fill="#fbfcfa"/><path d="m385.3 3.8h1.3v2.2h2.8v-2.2h1.3v2.2h4.1v9.1h1.7v1.3h-16.9v-1.3h1.7v-9.1h4.1v-2.2zm.4 13.1.7 1.2c-1.8.9-3.8 1.9-6 2.9-.2-.4-.5-.8-.8-1.3 2.3-1 4.3-1.9 6.1-2.8zm-3.1-6.4h2.8v-3.2h-2.8zm0 4.6h2.8v-3.3h-2.8zm4-4.6h2.8v-3.2h-2.8zm0 4.6h2.8v-3.3h-2.8zm3.7 1.9c2.1.9 4.1 1.8 6.1 2.7l-.7 1.3c-2.2-1.1-4.2-2-6.1-2.9zm3.2-9.7h-2.8v3.2h2.8zm-2.8 7.8h2.8v-3.3h-2.8z" fill="#fbfcfa"/><path d="m198.98 227.54c-10.44-.46-44.04 3.8-46.82 5.45-3.68-.52-6.79-.38-9.36-1.49-2.63-1.13-4.75-3.48-7.8-5.86 3.73-2.24 6.92-4.65 10.49-6.18 7.74-3.33 15.78-5.54 24.38-4.61 1.36.15 2.8.16 4.11-.14 3.74-.86 5.15-4.74 3.02-7.96-.63-.95-1.21-1.93-2.1-3.35 2.91.25 5.37.46 7.99.68.22 1.83.35 3.61.68 5.35.35 1.87 1.29 2.83 3.37 1.86 2.78-1.3 5.69-2.34 8.41-3.75 1.03-.53 1.96-1.63 2.5-2.69 3.26-6.42 4.33-13.19 3.18-20.35-.5-3.11-2.58-4.18-5.12-3.98-6.62.53-13.24 1.2-19.8 2.23-6.48 1.02-12.87 2.58-19.31 3.82-4.56.87-8.74-.99-10.93-4.68-1.09-1.84-1.2-3.08 1.24-4.12 6.52-2.77 12.91-5.82 19.59-8.87-1.59-2.09-3.04-3.98-4.91-6.42 3.54-.02 6.43-.95 9.2 1.68 4.66 4.41 9.99 6.12 16.28 3.07 2.64-1.28 5.56-2.17 8.45-2.73 5.7-1.1 7.99-5.07 8.34-10.13.33-4.82-.15-9.72-.53-14.56-.06-.76-1.57-2.06-2.33-2.01-8.64.62-17.27 1.48-25.9 2.22-4.84.41-9.69 1.07-14.52.99-5.61-.09-9.64-3.1-11.57-7.93 5.82-1.18 11.55-2.43 17.33-3.48 10.2-1.85 20.44-3.52 30.64-5.38 1.73-.32 3.43-1.06 4.99-1.89 2-1.06 2.87-2.74 2.78-5.2-.36-10.91.35-21.71 2.17-32.55 1.39-8.3.9-16.9 1.29-25.37.38-8.41 1.79-16.59 5.59-24.48 4.02 1.09 8.02 2.04 11.9 3.33.99.33 2.08 1.64 2.33 2.69 1.47 6.04 3.52 12.1 3.85 18.23.94 17.46 1.17 34.95 1.63 52.44.1 3.77 1.54 5.9 5.3 6.66 2.25.46 4.64.63 6.93.46 5.62-.43 9.9 1.59 13.16 6.53-3.46 3.24-7.53 5.24-12.03 6.59-3.94 1.18-7.86 2.44-11.69 3.93-2.02.79-3.22 2.38-3.4 4.87-.37 5.07-1.02 10.12-1.71 15.15-.27 1.99.51 3.18 2.29 3.44 4.57.65 9.16 1.43 13.76 1.53 6.3.14 9.32 2.71 9.67 9.39-7.04 2.28-14.13 4.71-21.31 6.84-2.68.79-4.18 2.26-3.93 4.88.54 5.88 1.31 11.74 2.19 17.58.11.7 1.38 1.54 2.25 1.75 4.52 1.11 9.09 1.98 13.61 3.04 2.14.5 4.36.98 6.32 1.92 2.49 1.2 2.82 3.67 2.9 6.25.08 2.64-1.88 3-3.59 3.69-5.29 2.16-10.52 4.51-15.93 6.35-4.18 1.43-5.74 4.46-6.19 8.33-.28 2.4-.05 4.87-.03 7.3.09 10.06.13 20.12.33 30.18.08 3.89.78 7.77.73 11.65-.04 3.67-.52 7.36-1.1 11-3.13 19.77-6.26 39.54-9.62 59.26-.61 3.59-1.95 7.16-3.54 10.47-1.8 3.75-4.97 5.92-9.81 5.59-.39-5.54-.78-11-1.16-16.47-1.07-15.32-2.01-30.66-3.25-45.97-.59-7.28-1.94-14.49-2.56-21.77-.38-4.52.14-9.1-.05-13.64-.27-6.55-.73-13.1-1.27-19.64-.54-6.96-1.3-13.9-2-21.02z" fill="#010101"/></svg>