<svg enable-background="new 0 0 400 400" viewBox="0 0 400 400" xmlns="http://www.w3.org/2000/svg"><path d="m263.9 60.13c1.98 3.17 3.47 6.23 5.58 8.78 8.28 9.99 12.95 21.47 14.99 34.19 1.63 10.12 1.6 20.19.8 30.4-.57 7.24-.11 14.64.58 21.9 1.31 13.83.42 27.49-1.94 41.12s-2.86 27.31-2.21 41.16c.47 9.81-.15 19.71-.96 29.52-.74 8.99.24 17.72 1.74 26.51 2 11.69 3.4 23.5 5.93 35.07 1.24 5.67 4.13 11.07 6.85 16.3 4.08 7.85 6.28 14.01 6.16 19.74-4.88 1.86-5.67 1.63-8.77-3.27-7.29-11.52-11.36-24.3-14.56-37.42-.33-1.33-.51-2.76-1.12-3.95-5.37-10.48-6.09-21.96-7.05-33.34-1.46-17.25-1.72-34.57.58-51.75 1.85-13.76.77-27.53 1.41-41.27.43-9.18 1.62-18.34 2.66-27.48 3.35-29.6-.55-58.08-12.63-85.4-7.48-16.91-22.42-20.55-37.8-16.02 3.94 8.73 4.59 18.61 10.55 26.59 3.44 4.61 4.89 10.04 5.5 15.71 1.63 15.16 3.85 30.27 4.8 45.47 1.44 23.2-3.53 45.04-16.06 64.95-4.62 7.34-16.83 12.98-26.37 11.61-1.46-.21-2.92-.53-4.36-.86-8.24-1.93-14.22-6.1-17.99-14.28-7.76-16.83-10.68-34.39-9.22-52.61 1.4-17.52 3.7-34.96 5.57-52.44.46-4.32 1.08-8.65 1.13-12.98.1-8.71 3.3-16.52 6.38-24.41 1.33-3.41.68-4.56-2.92-4.52-6.62.08-13.11.72-18.45 5.4-1.98 1.74-4.12 3.43-6.45 4.62-5.2 2.67-7.22 7.22-7.91 12.55-.81 6.29-1.85 12.62-1.82 18.93.07 14.03-.92 27.92-2.53 41.85-2.01 17.36-2.94 34.85-4.6 52.26-1.15 12.02-2.74 24-4.14 36-.06.53-.32 1.08-.22 1.57 2.27 11.12-1.84 21.58-3.4 32.29-3.1 21.24-9.15 41.76-15.95 62.05-2.73 8.13-6.73 15.65-14.24 20.48-2.6 1.67-5.66 2.65-8.94 4.14-.35-4.98-.79-8.84 2.59-12.67 9.18-10.39 13.67-23.23 17.61-36.27 3.85-12.76 5.88-25.77 6.29-39.1.1-3.26 1.49-6.48 2.24-9.73.56-2.43 1.62-4.92 1.46-7.32-1.19-18.45 3.28-36.22 6.23-54.16.88-5.37.98-10.47.02-15.93-.91-5.19.16-10.74.5-16.13 1.4-22.1 2.57-44.23 4.36-66.3 2.11-25.92 16.68-44.74 43.89-47.88 12.73-1.47 25.49-2.73 38.24-4.09.42-.04.85-.12 1.26-.08 16.65 1.65 32.62-1.45 48.28-6.85 7.4-2.56 14.91-4.8 22.34-7.29 4.2-1.41 8.19-.54 12.05 1 1.14.46 2.17 1.71 2.78 2.85 1.13 2.11.98 3.71-1.8 4.86-11.15 4.61-22.2 9.48-33.28 14.25-.98.39-1.92.86-3.66 1.68zm-34.9 67.3c-.02-.21-.04-.42-.07-.63-1.93-11.7-3.66-23.44-5.86-35.09-1.19-6.29-3.6-12.22-8.62-16.64-5.8-5.11-11.65-4.49-15.52 2.26-2.55 4.45-4.46 9.37-5.89 14.3-1.41 4.84-.9 9.92 2.99 13.64 7.88 7.54 15.98 14.84 24.08 22.15 1.22 1.1 2.83 1.92 4.4 2.45 2.18.74 4.49-.68 4.49-2.44zm2.27 32.04c.33-5.54-1.92-9.7-6.26-12.89-1.87-1.38-3.63-2.97-5.65-4.09-6.57-3.65-11.92-8.62-16.94-14.16-2.22-2.46-5.6-3.97-8.64-5.54-1.85-.95-3.61-.54-4.24 2.04-.84 3.48-2.23 6.85-2.82 10.37-.98 5.84.46 11.25 4.72 15.5 6.14 6.12 12.16 12.47 18.93 17.82 3.62 2.86 8.61 4.24 13.2 5.51 2.17.6 5.31.06 5.93-3.29.7-3.74 1.19-7.51 1.77-11.27zm-42.24 11.05c-.76 1.5-1.38 2.59-1.88 3.74-6.03 13.71-1.94 25.75 5.92 37.31 3.01 4.43 7.23 5.23 11.91 4.67 5.44-.65 9.84-2.84 11.5-8.78 1.05-3.76 2.5-7.43 4.07-11.01.98-2.23.52-3.67-1.15-5.25-7.83-7.4-16.63-13.43-25.98-18.7-1.26-.73-2.66-1.21-4.39-1.98z" fill="#010105"/><g fill="#fafbfa"><path d="m377.9 391.2c-.2.3-.4.5-.6.8-.7-.6-1.4-1-2.2-1.5.2-.3.4-.5.5-.8.6.4 1.4.8 2.3 1.5zm-1.8 6.1c-.2-.2-.5-.4-.9-.6.4-.6.8-1.2 1.2-1.9s.7-1.3.9-1.9c.3.3.5.5.8.7-.7 1.3-1.4 2.6-2 3.7zm2.2-9c-.3.3-.5.5-.6.8-.6-.6-1.3-1.1-2-1.5.3-.3.5-.5.6-.7.6.5 1.3.9 2 1.4zm.3.2v-.9h2 4.5c-.3 1.3-.6 2.5-1 3.6s-.9 2.1-1.4 3c.4.5 1 1 1.6 1.4s1.2.8 1.9 1.1c-.3.2-.5.4-.8.8-.4-.3-1-.7-1.6-1.2s-1.2-1.1-1.6-1.6c-.5.6-1.1 1.1-1.7 1.6s-1.4.9-2.1 1.4c-.1-.3-.3-.5-.7-.8.6-.2 1.2-.5 1.9-1s1.4-1.1 2-1.8c-.5-.8-.9-1.6-1.2-2.5s-.6-2-.8-3.2c-.4.1-.7.1-1 .1zm2.5 2.7c.3 1 .7 1.7 1 2.2.3-.5.6-1.1 1-2s.6-1.9.9-3h-3.2-.4c.1.9.3 1.8.7 2.8z"/><path d="m396.5 388.5v1.5 3.6h1.5v.9c-.4 0-1 0-1.7 0h-7.9c-.5 0-.9 0-1.2 0v-.9h1.3v-3.5c0-.7 0-1.2 0-1.6h2.4c0-.8 0-1.4 0-1.7h1c0 .3-.1.8-.1 1.7h1.5c0-.8 0-1.4 0-1.7h1c0 .3-.1.9-.1 1.7zm-8.2 9.2c-.2-.3-.5-.5-.8-.8.8-.3 1.4-.6 1.9-.9s1-.7 1.4-1.1c.3.3.6.5.9.8-1.6 1-2.8 1.6-3.4 2zm2.6-6.8v-1.6h-1.5v1.6zm0 2.7v-1.9h-1.5v1.9zm2.4-2.7v-1.6h-1.5v1.6zm0 2.7v-1.9h-1.5v1.9zm.2 2 .7-.8c.4.2.9.5 1.6.8s1.3.7 1.8 1c-.3.3-.5.5-.8.8-.4-.3-1.5-1-3.3-1.8zm2-4.7v-1.6h-1.4v1.6zm0 2.7v-1.9h-1.4v1.9z"/></g></svg>