<svg enable-background="new 0 0 400 400" viewBox="0 0 400 400" xmlns="http://www.w3.org/2000/svg"><path d="m175.3 260.7c-9.7-10.1-19.2-19.4-28.2-29.2-6.4-7-13.3-13.7-17.4-22.4-6.5-13.6-4.4-26.9 1.9-39.9.5-1 1.6-1.8 2.5-2.7 21.6-21 45.6-39.2 70.2-56.5 12.3-8.6 24.8-17 36.9-25.8 4.3-3.2 7.9-7.4 11.4-11.5 1.8-2 3.2-4.6 3.8-7.2 2-8.8 1.6-11.4-6.2-15.3-11.4-5.8-23.7-7.8-36.2-8.1-20.4-.6-40.6.3-60.8 3.5-6.8 1.1-13.8 1.7-20.7 2-6.3.2-9.7-3.1-10.9-9.5 5.5-3.9 12-5.3 18.5-6.2 30.7-4.2 61.5-4.7 92.2-.7 10.8 1.4 21.4 3.7 30.2 10.8 4.6 3.7 7.9 8.3 9.7 13.9.3.9.2 2.2-.1 3.1-2 6-4.1 11.9-6.3 17.8-.5 1.3-1.4 2.5-2.4 3.4-9.4 8.9-18.8 17.7-28.3 26.6-.8.7-1.7 1.4-2.6 2.2 4.5 5.1 8.9 9.8 12.9 14.7 8.1 9.9 14.8 20.7 18.1 33.2 3.9 14.9 1.7 29.6-2.3 44.1-1.3 4.5-3.8 7.9-6.7 11.5-14.3 17.2-33 28.5-51.4 40.4-13.1 8.4-23.5 19-27.4 34.4-3.4 13.5-1.4 26.9 3.7 39.9 4.5 11.6 8.8 23.3 13 35 .8 2.1 1 4.7.5 6.8-.4 1.7-2.2 4.1-3.7 4.3-2 .3-5.5-.5-6.3-1.9-12.5-21.4-21.5-44.1-22.8-69.1-.2-4.1 1-8.2 2-12.3.9-3.6 2.4-7.1 3.4-10.7 1.9-7.2 4.9-13.7 9.8-18.6zm41.5-35.4c-10.4-18.7-19.7-37.5-32.8-54.1-5-6.3-10.4-12.2-17-17-6.4 5.9-12.3 11.9-18.8 17.2-5.3 4.3-8.4 9.3-9.6 15.9-.5 3-.8 5.7.6 8.3 3 5.4 5.4 11.3 9.3 15.9 7.9 9.5 16.5 18.4 25 27.4 3.7 3.9 7.7 7.5 11.6 11.3 10.7-8.4 21.1-16.5 31.7-24.9zm3.5-109.2c-13.7 9.6-27 18.9-41 28.7 22.1 20.8 35.2 46.9 47.7 73.7 4.7-3.9 9.1-7.2 13.1-10.8 5.6-5.1 9.3-11.6 11.5-18.6 2.6-8 2.3-16.4-.1-24.5-5.5-19-17.4-34.1-31.2-48.5z" fill="#000001"/><g fill="#fafafb"><path d="m362.1 8.8c1.1.8 2.1 1.6 3.1 2.4l-1 1.1c-1.3-1.1-2.3-2-3-2.5zm1.9 4.8c.5.2.9.4 1.4.5-.6 2.3-1.3 4.5-1.9 6.8l-1.5-.5c.8-2.1 1.4-4.3 2-6.8zm-1-9.4c1.3.9 2.4 1.8 3.4 2.5l-1 1.1c-1.4-1.2-2.4-2.1-3.2-2.6zm3.7 2.2v-1.4h10.3v1.2c-.5 3.6-1.8 6.8-4 9.4 1.5 1.6 3.4 2.8 5.7 3.8-.3.4-.7.8-1.1 1.4-2.3-1.1-4.1-2.5-5.6-4.1-1.6 1.6-3.6 3.1-5.9 4.3-.3-.5-.7-.9-1-1.3 2.4-1.1 4.4-2.5 6-4.1-1.9-2.5-3-5.6-3.3-9.3h-1.1zm8.8 0h-6.4c.3 3.3 1.3 6 3 8.2 2-2.3 3.1-5.1 3.4-8.2z"/><path d="m385.3 3.8h1.3v2.2h2.8v-2.2h1.3v2.2h4.1v9.1h1.7v1.3h-16.9v-1.3h1.7v-9.1h4.1v-2.2zm.4 13.1.7 1.2c-1.8.9-3.8 1.9-6 2.9-.2-.4-.5-.8-.8-1.3 2.3-1 4.3-1.9 6.1-2.8zm-3.1-6.4h2.8v-3.2h-2.8zm0 4.6h2.8v-3.3h-2.8zm4-4.6h2.8v-3.2h-2.8zm0 4.6h2.8v-3.3h-2.8zm3.7 1.9c2.1.9 4.1 1.8 6.1 2.7l-.7 1.3c-2.2-1.1-4.2-2-6.1-2.9zm3.2-9.7h-2.8v3.2h2.8zm-2.8 7.8h2.8v-3.3h-2.8z"/></g></svg>