<svg enable-background="new 0 0 400 400" viewBox="0 0 400 400" xmlns="http://www.w3.org/2000/svg"><path d="m33.04 141.97c.12-3.84 1.49-7.19 3.83-9.92 4.38-5.09 5.83-10.69 5.07-17.37-.44-3.88.62-7.94.93-11.92.08-.96.24-2.3-.28-2.86-4.04-4.32-2.93-9.4-2.55-14.83 5.16 1.88 11.4 1.05 14.18 6.74 1.77 3.62 2.86 7.69 3.56 11.67.54 3.07.13 6.34-.05 9.51-.38 6.7 2.7 11.82 7.22 16.31.42.42 1.07.86 1.61.86 4.16.01 6.65 2.7 9.29 5.36.81.82 2.4 1.39 3.54 1.27 5.51-.61 10.79.03 16.28.99 10.82 1.89 21.83 2.73 32.78 3.76 2.13.2 4.42-.5 6.54-1.12 9.07-2.63 18.33-1.43 27.51-1.38 16.11.08 32.22.66 48.32.55 4.9-.03 9.76-1.82 14.68-2.45 3.29-.42 6.7-.61 9.99-.26 28.21 3.02 56.4 4.45 84.58-.3 1.77-.3 3.51-.99 5.28-1.08 5.25-.25 7.39-3.63 8.84-8.06 2.39-7.25 3.1-14.7 3.07-22.26-.04-10.6-.72-21.25 1.99-31.64 1.16-4.43 2.88-8.72 4.48-13.46 3.73 2.33 5.62 5.27 6.24 8.54 1.74 9.13 3.84 18.31 4.29 27.54.67 13.71 2.01 27.24 5.07 40.61.28 1.22.36 2.53.3 3.79-.81 18.8 1.29 37.45 2.52 56.16.58 8.83-.59 17.76-.7 26.64-.1 7.71.03 15.44.34 23.14.33 8.47.93 16.94 1.53 25.4.13 1.79-.4 2.67-2.07 3.29-1.87.7-3.65 1.68-5.4 2.66-3.12 1.76-3.79 4.92-3.48 7.97.12 1.17 2.4 2.13 4.55 3.87.8-2.62 1.28-4.41 1.9-6.17.5-1.42 1.15-2.78 2.06-4.95 3.54 4.98 4.18 9.41 3.52 14.15-.5 3.57-.89 7.15-1.56 10.69-.21 1.1-.96 2.36-1.85 3-1.66 1.19-2.91.17-3.82-1.37-.26-.44-.64-.81-1.36-1.7-.6 2.42-.94 4.44-1.63 6.34-.34.94-1.14 2.16-1.99 2.41-7.59 2.26-15.24 4.34-23.16 6.56-.37-1.7-.69-3.2-1.23-5.65-1.73 3.04-3.11 5.39-4.42 7.79-3.24 5.92-8.06 7.91-14.28 5.58-2.19-.82-4.01-.9-5.9.55-.92.7-2.05 1.11-3.01 1.78-3.22 2.23-6.19 3.84-10.02.63-2.21-1.85-4.96-1-7.18 1.1-1.36 1.29-2.9 2.58-4.6 3.28-3.5 1.44-7.14 2.23-10.29-.98-1.59-1.61-3.42-1.65-5.55-1.18-7.75 1.71-15.54 3.31-23.33 4.82-1.72.33-3.6.44-5.31.13-3.94-.71-7.55-.33-10.79 2.16-2.32 1.78-4.76 1.98-7.42.79-1.15-.52-2.44-.73-3.61-1.21-2.33-.94-4.1-1.03-6.46.81-3.79 2.96-8.53 1.94-12.89 1.02-8.7-1.84-17.35-3.9-26.01-5.91-.71-.16-1.48-.39-2.02-.84-4.47-3.75-9.87-4.62-15.41-5.13-6.2-.57-12.16-1.3-17.72-5.04-2.7-1.81-7.16-1.39-10.82-1.32-10.29.18-19.89-2.44-28.32-7.99-5.44-3.58-10.91-4.73-17-4.02-3.34.39-4.93-.88-5.3-4.04-.41-3.5-2.32-5.74-5.6-6.91-3.27-1.16-5.47-3.39-6.78-6.63-.67-1.66-1.53-3.3-2.59-4.73-2.66-3.59-3.4-7.38-1.64-11.54.82-1.93.1-3.22-1.19-4.77-3.24-3.87-6.48-7.81-9.11-12.1-1.28-2.1-1.66-5.03-1.67-7.59-.1-34.15-.07-68.29-.07-102.44 0-.95.04-1.91-.02-2.86-.23-4.02-1.9-5.21-5.83-4.22-.51.13-1.03.25-1.55.32-.2.01-.41-.13-1.05-.34zm301.17 42.66c-.03 0-.05 0-.08 0 0-5.29.19-10.59-.05-15.87-.23-5-2.75-8.82-7.71-10.08-2.62-.67-5.63-.51-8.33-.02-4.36.8-8.55 2.88-12.9 3.2-13.1.96-26.23 1.4-39.36 1.93-22.12.89-44.25 1.76-66.38 2.51-6.75.23-13.6.72-20.26-.09-9.65-1.18-19.15-3.56-28.76-5.14-3.26-.53-6.72-.61-9.97-.12-3.19.49-6.13.77-9.31-.18-6.59-1.96-13.32-3.47-19.92-5.42-2.87-.85-5.57-1-8.36-.08-3.01.98-5.9.81-8.97-.13-7.29-2.21-14.68-4.09-22.04-6.09-4.36-1.19-8.97 2.32-8.84 6.71.46 15.55 2.7 31.05.7 46.66-.54 4.26-.91 8.75-.2 12.94 3.18 18.6 6.55 37.15 6.58 56.1.01 2.96.83 5.55 2.92 7.44 2.48 2.24 5.28 4.13 8.03 6.03 2.6 1.79 5.33 3.4 8.01 5.08 1.23.77 2.4 1.76 3.74 2.24 8.79 3.09 17.6 6.1 26.43 9.06 1.38.46 2.9.82 4.33.73 4.54-.28 8.84.51 12.99 2.33 6.91 3.03 14.1 4.25 21.66 3.74 2.36-.16 4.86.34 7.18.97 13.9 3.75 27.79 7.51 41.62 11.51 4.36 1.26 8.6 1.95 13.09 1.09 2.18-.42 4.42-.48 6.63-.8 7.03-1 14.54-.47 19.96-6.54.51-.58 1.98-.45 3-.4 8.31.37 16.68 1.67 24.55-2.52 2.87-1.53 5.98-1.98 9.23-1.25 4.9 1.1 9.28-.1 13.5-2.76 3.3-2.08 6.93-3.64 10.37-5.53 5.24-2.88 10.9-2.82 16.65-2.76 3.08.03 6.36-.22 9.21-1.27 3.33-1.23 6.36-3.35 9.34-5.35.77-.51 1.37-2.05 1.24-3.02-1.8-13.33-3.36-26.71-5.76-39.94-2.14-11.78-2.77-23.23 2.31-34.42.04-.1.04-.21.09-.3 1.23-2.66.61-4.91-.95-7.38-2.44-3.87-5.58-7.52-5.27-12.64.23-3.38.06-6.78.06-10.17zm-34.16-36.94c-2.61-1.51-4.91-2.83-7.21-4.16-.13.15-.27.31-.4.46 1.49 2.02 2.97 4.04 4.57 6.22 1.01-.84 1.79-1.48 3.04-2.52zm-103.95-5.42c-1.25 1.8-2.17 3.12-3.09 4.43 1.54.39 3.07.79 5.42 1.39-.94-2.35-1.47-3.67-2.33-5.82z" fill="#010000"/><path d="m302.4 242.72c-.82.09-1.64.28-2.45.24-3.83-.17-6.71.95-7.89 5.04-.22.76-1.44 1.52-2.33 1.73-4.94 1.16-9.93 2.14-15.11 3.23-.23-.78-.45-1.53-.8-2.7-4.67 1.34-9.36 2.51-13.94 4.03-9.15 3.03-18.6 3.86-27.91 2.21-8-1.42-15.76-2.67-23.85-1-2.28.47-4.84.16-7.17-.3-10.81-2.1-21.57-4.43-32.37-6.58-6.1-1.22-12.23-1.14-18.29.32-6.39 1.54-12.02.74-16.24-5.34-1.48 3.42-3.47 2.87-5.8 1.27-5.07-3.47-10.41-6.57-15.27-10.3-2.85-2.18-5.17-5.15-7.36-8.04-1.16-1.53-.46-2.77 1.63-3.8 4.72-2.31 8.82-1.97 12.75 1.45.71.62 1.7.93 2.39 1.56 3.54 3.2 7.55 3.44 12.11 2.85 3.15-.4 6.49.43 9.71.91 14.99 2.26 30.05.67 45.07.98 7 .15 13.92 2.39 20.94 2.98 14.52 1.23 29.07 3.26 43.54-.87 9.21-2.63 18.57-1.2 27.74.44 5.25.94 10.4 2.75 15.41 4.65 2.2.83 3.96 2.86 5.92 4.34-.14.25-.29.48-.43.7z" fill="#010000"/><g fill="#fafafb"><path d="m361.2 9.6.8-1c.9.7 1.9 1.4 2.9 2.3l-.9 1.1c-1-1-2-1.8-2.8-2.4zm.5 10.6c.9-2.1 1.6-4.3 2.3-6.7.4.2.8.4 1.3.6-.7 2.1-1.5 4.3-2.2 6.6zm.4-15.2.9-.9c1 .8 2 1.6 2.8 2.4l-1 1c-.9-.9-1.8-1.7-2.7-2.5zm12.5-1.2h1.2v1.4h2.7v1.1h-2.7v2.7h-1.2v-.6h-1.8v1.3h4.9v3.8h-1.2v-.5h-3.7c0 .4-.1.9-.1 1.2h5.1v1h-5.2c0 .5-.1.9-.2 1.2h6v1h-5.2c1.1 1.3 2.9 2 5.5 2.2-.4.4-.7.8-.9 1.3-2.9-.5-4.8-1.6-5.7-3.5h-.1c-.8 1.7-2.7 2.9-5.9 3.6-.2-.4-.6-.8-.9-1.1 2.8-.6 4.6-1.4 5.4-2.5h-4.8v-1h5.3c.1-.3.2-.7.2-1.2h-4.9v-1h5c0-.4 0-.8.1-1.2h-3.5v.5h-1.2v-3.8h4.9v-1.3h-1.8v.5h-1.2v-2.7h-2.7v-1h2.6v-1.4h1.2v1.4h4.7v-1.4zm-6.6 8.3h3.6c0-.4 0-.9 0-1.4h-3.6zm1.9-4.6h4.7v-1.3h-4.7zm6.6 3.2h-3.7v1.4h3.7z"/><path d="m385.3 3.8h1.3v2.2h2.8v-2.2h1.3v2.2h4.1v9.1h1.7v1.3h-16.9v-1.3h1.7v-9.1h4.1v-2.2zm.4 13.1.7 1.2c-1.8.9-3.8 1.9-6 2.9-.2-.4-.5-.8-.8-1.3 2.3-1 4.3-1.9 6.1-2.8zm-3.1-6.4h2.8v-3.2h-2.8zm0 4.6h2.8v-3.3h-2.8zm4-4.6h2.8v-3.2h-2.8zm0 4.6h2.8v-3.3h-2.8zm3.7 1.9c2.1.9 4.1 1.8 6.1 2.7l-.7 1.3c-2.2-1.1-4.2-2-6.1-2.9zm3.2-9.7h-2.8v3.2h2.8zm-2.8 7.8h2.8v-3.3h-2.8z"/></g></svg>