<svg enable-background="new 0 0 400 400" viewBox="0 0 400 400" xmlns="http://www.w3.org/2000/svg"><path d="m70.1 359.92c.47-4.43.76-8.77 1.51-13.02.19-1.07 1.74-2.42 2.9-2.71 7.29-1.8 14.58-3.73 21.98-4.88 16.13-2.51 32.33-4.58 48.71-4.3 7.29.12 14.58.73 21.86.64 4.88-.06 9.43-1.74 12.43-5.96.85-1.2 1.47-2.86 1.48-4.31.1-17.29.06-34.57.06-51.86 0-.42.14-.94-.04-1.26-3.22-5.54-6.1-12.62-12.06-14.41-11.35-3.41-19.48-9.79-27.39-18.43-18.25-19.93-37.78-38.67-56.65-58.03-5.54-5.68-10.89-11.6-15.83-17.8-6.43-8.07-6.82-17.29-3.67-26.81.97-2.92 5.92-4.48 8.96-2.68 3.92 2.32 7.51 4.94 9.71 9.29 3.53 6.99 7.44 13.8 11.32 20.61.8 1.41 1.97 2.86 3.34 3.64 11.22 6.39 20.75 14.69 28.02 25.34 8.36 12.24 21.04 19.1 32.74 27.22 4.61 3.2 9.28 6.3 14.16 9.61 4.7-4.9 6.87-10.75 7.03-17.24.19-7.62-.56-15.29-.05-22.88 1.4-20.94 3.02-41.87 4.99-62.77 2.24-23.68 3.18-47.38 2.83-71.15-.03-1.92.78-4.12 1.88-5.74 3.14-4.65 6.53-9.15 10.04-13.53.72-.9 2.48-1.59 3.61-1.41 9.03 1.37 13.66 6.67 13.61 15.81-.05 8.16-.33 16.32-.82 24.46-.18 3.01-.95 6.08-2 8.93-2 5.46-2.74 11-2.8 16.79-.36 30.32-.77 60.64-1.45 90.96-.14 6.21-1.34 12.41-2.29 18.58-.91 5.89.39 9.57 5.08 12.18.86.48 2.58.52 3.28-.03 14.49-11.37 29.63-21.86 42.7-35.08 12.36-12.49 25.64-24.1 38.95-35.61 7.95-6.88 17.02-12.26 27.27-15.26 1.32-.39 2.67-.65 4.02-.93.59-.12 1.21-.12 2.3-.23-2.05 7.48-3.98 14.6-5.96 21.69-.16.57-.69 1.05-1.13 1.51-26.77 28.39-53.47 56.85-80.38 85.11-5.54 5.82-11.77 11-17.86 16.26-4.38 3.78-7.32 8.43-9.59 13.64-5.3 12.13-7.05 25.01-8.14 38.04-.25 2.96-.41 5.94-.93 8.85-.35 1.97.19 2.8 2.06 3.46 10.12 3.52 20.57 4.46 31.02 2.77 9.27-1.5 18.38-4.01 27.52-6.25 8.71-2.13 17.4-3.72 26.35-1.6 5.32 1.26 9.77 3.9 13.23 8.27-8.99 9.25-18.89 16.44-32.37 17.29-11.94.75-23.92 1.55-35.76 3.18-9.19 1.27-18.22 3.73-27.26 5.89-9.57 2.29-19.02 5.18-28.64 7.18-6.08 1.27-12.38 1.51-18.6 2.01-13.52 1.09-27.04 2.36-40.58 2.92-6.07.25-12.22-.98-18.32-1.64-11.38-1.23-22.75-2.52-34.12-3.81-.72-.07-1.41-.31-2.26-.51z" fill="#010000"/><g fill="#fafafb"><path d="m361.2 9.6.8-1c.9.7 1.9 1.4 2.9 2.3l-.9 1.1c-1-1-2-1.8-2.8-2.4zm.5 10.6c.9-2.1 1.6-4.3 2.3-6.7.4.2.8.4 1.3.6-.7 2.1-1.5 4.3-2.2 6.6zm.4-15.2.9-.9c1 .8 2 1.6 2.8 2.4l-1 1c-.9-.9-1.8-1.7-2.7-2.5zm12.5-1.2h1.2v1.4h2.7v1.1h-2.7v2.7h-1.2v-.6h-1.8v1.3h4.9v3.8h-1.2v-.5h-3.7c0 .4-.1.9-.1 1.2h5.1v1h-5.2c0 .5-.1.9-.2 1.2h6v1h-5.2c1.1 1.3 2.9 2 5.5 2.2-.4.4-.7.8-.9 1.3-2.9-.5-4.8-1.6-5.7-3.5h-.1c-.8 1.7-2.7 2.9-5.9 3.6-.2-.4-.6-.8-.9-1.1 2.8-.6 4.6-1.4 5.4-2.5h-4.8v-1h5.3c.1-.3.2-.7.2-1.2h-4.9v-1h5c0-.4 0-.8.1-1.2h-3.5v.5h-1.2v-3.8h4.9v-1.3h-1.8v.5h-1.2v-2.7h-2.7v-1h2.6v-1.4h1.2v1.4h4.7v-1.4zm-6.6 8.3h3.6c0-.4 0-.9 0-1.4h-3.6zm1.9-4.6h4.7v-1.3h-4.7zm6.6 3.2h-3.7v1.4h3.7z"/><path d="m385.3 3.8h1.3v2.2h2.8v-2.2h1.3v2.2h4.1v9.1h1.7v1.3h-16.9v-1.3h1.7v-9.1h4.1v-2.2zm.4 13.1.7 1.2c-1.8.9-3.8 1.9-6 2.9-.2-.4-.5-.8-.8-1.3 2.3-1 4.3-1.9 6.1-2.8zm-3.1-6.4h2.8v-3.2h-2.8zm0 4.6h2.8v-3.3h-2.8zm4-4.6h2.8v-3.2h-2.8zm0 4.6h2.8v-3.3h-2.8zm3.7 1.9c2.1.9 4.1 1.8 6.1 2.7l-.7 1.3c-2.2-1.1-4.2-2-6.1-2.9zm3.2-9.7h-2.8v3.2h2.8zm-2.8 7.8h2.8v-3.3h-2.8z"/></g></svg>