<svg enable-background="new 0 0 400 400" viewBox="0 0 400 400" xmlns="http://www.w3.org/2000/svg"><path d="m378.6 9.2.8-1c.9.7 1.9 1.4 2.9 2.3l-.9 1.1c-1.1-.9-2-1.7-2.8-2.4zm.5 10.7c.9-2.1 1.6-4.3 2.3-6.7.4.2.8.4 1.3.6-.7 2.1-1.5 4.3-2.2 6.6zm.4-15.2.9-.9c1 .8 2 1.6 2.8 2.4l-1 1c-1-.9-1.9-1.8-2.7-2.5zm12.5-1.3h1.2v1.4h2.7v1.1h-2.7v2.7h-1.2v-.5h-1.8v1.3h4.9v3.8h-1.2v-.5h-3.7c0 .4-.1.9-.1 1.2h5.1v1h-5.2c0 .5-.1.9-.2 1.2h6v1h-5.2c1.1 1.3 2.9 2 5.5 2.2-.4.4-.7.8-.9 1.3-2.9-.5-4.8-1.6-5.7-3.5h-.1c-.8 1.7-2.7 2.9-5.9 3.6-.2-.4-.6-.8-.9-1.1 2.8-.6 4.6-1.4 5.4-2.5h-4.8v-1h5.3c.1-.3.2-.7.2-1.2h-4.9v-1h5c0-.4 0-.8.1-1.2h-3.6v.5h-1.2v-3.8h4.9v-1.3h-1.8v.5h-1.2v-2.7h-2.6v-1.1h2.6v-1.4h1.2v1.4h4.7v-1.4zm-6.7 8.4h3.6c0-.4 0-.9 0-1.4h-3.6zm1.9-4.7h4.7v-1.2h-4.7zm6.7 3.3h-3.7v1.4h3.7z" fill="#fafbfc"/><path d="m384.7 21.4h1.3v2.2h2.8v-2.2h1.3v2.2h4.1v9.1h1.7v1.3h-16.9v-1.3h1.7v-9.1h4.1v-2.2zm.3 13.2.7 1.2c-1.8.9-3.8 1.9-6 2.9-.2-.4-.5-.8-.8-1.3 2.4-1 4.4-2 6.1-2.8zm-3.1-6.5h2.8v-3.2h-2.8zm0 4.6h2.8v-3.3h-2.8zm4.1-4.6h2.8v-3.2h-2.8zm0 4.6h2.8v-3.3h-2.8zm3.6 1.9c2.1.9 4.1 1.8 6.1 2.7l-.7 1.3c-2.2-1.1-4.2-2-6.1-2.9zm3.3-9.7h-2.8v3.2h2.8zm-2.8 7.8h2.8v-3.3h-2.8z" fill="#fafbfc"/><path d="m200.99 351.07c-.43-3.48-.9-6.61-1.13-9.76-.06-.8.46-1.79 1-2.45 3.23-3.89 2.85-6.95-1.35-9.43-2.27-1.35-3.01-3.27-2.87-5.87.33-6.34.57-12.68.63-19.03.01-1.29-.53-3.02-1.45-3.78-1.74-1.44-2.44-2.93-2.3-5.15.38-5.99-.84-12.09 1.43-17.94.22-.57-.13-1.38-.29-2.06-.56-2.39-1.46-4.76-1.67-7.18-.3-3.55-1.25-5.07-4.89-5.18-2.37-.07-4.82.48-7.14 1.07-4.92 1.25-9.8 2.65-14.65 4.13-1 .31-2.02 1.12-2.63 1.98-2.17 3.03-4.98 4.4-8.7 4.27-1.3-.05-2.86.18-3.88.89-3.32 2.29-6.9 2.93-10.84 2.81-4.78-.14-5.96 1.57-7.26 6.11-1.64 5.75-1.35 11.46-1.14 17.24.03.83.04 1.79-.33 2.49-4.36 8.18-4.42 17.35-6.13 26.14-.83 4.23-2.34 8.32-3.55 12.47-1.38 4.75-2.69 9.52-4.2 14.22-.86 2.67-1.98 5.27-3.16 7.82-.29.61-1.28.9-2.31 1.57 0-4.28-.2-8.14.09-11.95.13-1.71 1.41-3.31 1.84-5.04.52-2.11.66-4.3 1.04-6.45.26-1.46.69-2.89.93-4.35.13-.78.03-1.6-.02-2.4-.18-2.88-.76-5.8-.48-8.63.41-4.09 1.66-8.1 2.17-12.19.47-3.73.59-7.51.57-11.27-.01-1.71.1-3 1.97-3.29 3.92-.62 5.25-3.5 6.25-6.88-.5-.22-.96-.47-1.45-.63-6.05-1.98-6.08-1.97-6.04-8.17.02-3.43-.42-6.84 1.68-10.09.81-1.25.59-3.62.05-5.21-1.76-5.22-.46-10.03 1.38-14.82 1.29-3.35 2.75-6.63 3.62-8.7-.89-4.54-1.91-8.04-2.22-11.6-.9-10.34-1.53-20.71-2.21-31.07-.1-1.56.12-3.14.12-4.71-.01-4.73-.04-9.46-.09-14.19-.01-.73-.45-1.84-.12-2.13 2.62-2.3.58-4.68.26-7.01-.54-3.99-1.21-7.96-1.65-11.96-.13-1.16.34-2.39.18-3.54-.14-1.82-.44-3.65-.36-5.47.07-1.68.42-3.37.87-5 1.16-4.22.47-8.1-.69-12.35-1.46-5.33-1.46-11.08-1.94-16.66-1.24-14.58-2.27-29.17-1.33-43.82.07-1.15.15-2.29.23-3.48 3-.86 4.87-.1 6.99 2.18 4.1 4.43 5.26 9.64 5.93 15.3 1.01 8.51 2.31 16.99 3.53 25.81-2.2 0-4.16 0-6.12 0-.1.22-.19.45-.29.67 1.23.83 2.42 1.73 3.7 2.47 4.09 2.37 4.59 4.44 1.87 8.05 3.89 3.91 4.42 6.68.71 10.2 3.88 2.94 4.28 4.85 1.82 8.88.17.24.29.59.53.74 3.63 2.14 4.55 5.13 3.18 9.08-2.05 5.94.33 11.71.84 17.56.3 3.43 0 6.94.52 10.32.29 1.85 1.32 4.45 2.73 5.05 2.22.95 5.36 2.77 7.37-1.07.56-1.08 1.78-2.1 2.93-2.53 4.24-1.58 8.63-2.73 12.85-4.35 5.53-2.12 10.91-4.65 16.46-6.73 1.76-.66 3.94-.86 5.78-.5 2.92.56 5.22.3 7.47-1.88 2.5-2.41 5.37-4.42 8.03-6.57-3.01-8.81-1.96-17.58-1.03-26.32.65-6.1 1.4-12.2 2.26-18.28.4-2.8.7-5.77 1.88-8.27 3.26-6.89 3.05-14.45 4.8-21.62 2.48-10.18 5.22-20.29 7.48-30.52.9-4.1.92-8.41 1.15-12.63.33-6.06 1.3-9.35 4.17-13.04 5.75 3.19 8.53 9.12 7.86 16.01-.58 5.99-.8 12.02-1.28 18.03-.08.96-.4 2.14-1.04 2.78-3.62 3.59-5.06 8.02-5.16 12.94-.15 7.32-1.06 14.33-3.48 21.44-2.21 6.49-2.1 13.77-2.98 20.7-.52 4.1-.92 8.21-1.49 12.31-.15 1.11-.38 2.61-1.14 3.17-3 2.24-1.71 4.54-.82 7.22 1.01 3.05 1.78 6.29 1.91 9.48.1 2.49 1.07 3.72 3.19 3.71 5.05-.02 10.17.12 15.11-.7 5.61-.93 11.12-2.61 16.55-4.35 5.17-1.66 5.48-1.66 5.8 4.3 1.54-.97 2.9-1.53 3.86-2.49 2.24-2.26 4.8-3.52 7.97-2.97.7.12 1.83 1.08 1.79 1.55-.23 2.26 1.23 3.18 2.74 4.21 6.72 4.61 9.09 11.41 9.54 19.14.04.66-.21 1.54-.65 1.99-3.79 3.82-3.53 8.56-3.42 13.4.06 2.65-.68 5.3-.95 7.97-.2 2.04-.19 4.1-.34 6.14-.23 3.01-.22 6.09-.86 9.02-.75 3.39-2.2 6.63-3.15 9.98-1.28 4.56-2.49 9.14-3.49 13.77-.42 1.95-.92 3.14-3.2 3.47-5.13.74-10.21 1.83-15.32 2.74-.93.17-1.99.45-2.82.18-5.97-1.97-11.38.4-17.03 1.73-5.51 1.3-11.2 1.91-16.84 2.55-1.94.22-3.11.63-3.62 2.65-1.73 6.98-3.6 13.93-5.35 20.91-.19.76-.17 1.79.2 2.45 2.42 4.31 2.53 8.56.14 12.9-.24.43-.14 1.2.06 1.69 4.3 10.21 3.56 20.84 1.77 31.27-.61 3.55-1.27 6.63-.44 10.24 1.16 5.01-1.94 10.91-7 14.15zm-31.97-158.63c-4.76 2.15-9.47 4.27-14.16 6.43-.94.43-1.86.98-2.68 1.62-3.63 2.88-7.26 5.75-10.79 8.76-.85.73-1.85 1.96-1.83 2.94.16 7.99-2.35 15.45-4.17 23.05-.38 1.61-.75 3.47-.3 4.97.86 2.83.44 4.91-1.91 6.15.77 2.55 1.8 4.77 2.05 7.07.47 4.28.48 8.61.68 12.93 4.63-1.12 8.48-1.84 12.2-3.01 3.37-1.06 6.52-2.79 9.88-3.86 3.05-.96 6.38-2.28 9.35-1.83 2.33.35 3.82.23 5.56-1.04 2.49-1.8 4.99-3.6 7.61-5.19 1.3-.79 2.89-1.57 4.35-1.55 4.68.06 7.19-2.38 8.37-6.55.58-2.03 1.19-4.11 1.29-6.19.21-4.57.83-8.87 4.89-11.64-5.02-9.89-4.21-19.69-1.14-29.59.65-2.11 1.27-4.28 1.48-6.47.29-3.01-1.47-5.64-3.78-5.72-4.07-.14-8.51-1.91-11.5 2.36-1.38-.79-2.46-1.4-3.7-2.1-1.07 1.84-2.05 3.52-3.22 5.52-3.32-3.62-6.68-2.31-10.17-.54.54 1.14 1.03 2.18 1.64 3.48zm83.2 48.44c1.59-1.14 2.74-2.25 4.11-2.89 2.12-1 2.74-2.47 2.8-4.75.11-4.65.5-9.3.89-13.94.92-10.97 2.04-21.92 2.81-32.9.34-4.91.81-9.68 3.13-14.11.43-.83.73-1.78.89-2.7.47-2.73-.6-3.74-3.27-3.15-2.89.63-5.79 1.24-8.66 1.97-11.57 2.93-23.24 5.58-34.67 8.98-7.66 2.28-8.33 4.43-7.73 12.43.29 3.83-.04 7.78-.61 11.59-.82 5.51-2.51 10.79-2.18 16.57.32 5.62-.6 11.33-1.2 16.98-.29 2.72 1.16 7.51 3.43 8.47 3.26 1.39 6.2 1.97 9.49-.79 1.22-1.03 3.11-1.7 4.72-1.75 6.97-.21 13.99.4 20.79-1.73 2.2-.7 4.19-.75 5.26 1.72z" fill="#010104"/></svg>