<svg enable-background="new 0 0 400 400" viewBox="0 0 400 400" xmlns="http://www.w3.org/2000/svg"><path d="m378.6 9.2.8-1c.9.7 1.9 1.4 2.9 2.3l-.9 1.1c-1.1-.9-2-1.7-2.8-2.4zm.5 10.7c.9-2.1 1.6-4.3 2.3-6.7.4.2.8.4 1.3.6-.7 2.1-1.5 4.3-2.2 6.6zm.4-15.2.9-.9c1 .8 2 1.6 2.8 2.4l-1 1c-1-.9-1.9-1.8-2.7-2.5zm12.5-1.3h1.2v1.4h2.7v1.1h-2.7v2.7h-1.2v-.5h-1.8v1.3h4.9v3.8h-1.2v-.5h-3.7c0 .4-.1.9-.1 1.2h5.1v1h-5.2c0 .5-.1.9-.2 1.2h6v1h-5.2c1.1 1.3 2.9 2 5.5 2.2-.4.4-.7.8-.9 1.3-2.9-.5-4.8-1.6-5.7-3.5h-.1c-.8 1.7-2.7 2.9-5.9 3.6-.2-.4-.6-.8-.9-1.1 2.8-.6 4.6-1.4 5.4-2.5h-4.8v-1h5.3c.1-.3.2-.7.2-1.2h-4.9v-1h5c0-.4 0-.8.1-1.2h-3.6v.5h-1.2v-3.8h4.9v-1.3h-1.8v.5h-1.2v-2.7h-2.6v-1.1h2.6v-1.4h1.2v1.4h4.7v-1.4zm-6.7 8.4h3.6c0-.4 0-.9 0-1.4h-3.6zm1.9-4.7h4.7v-1.2h-4.7zm6.7 3.3h-3.7v1.4h3.7z" fill="#fafbfc"/><path d="m384.7 21.4h1.3v2.2h2.8v-2.2h1.3v2.2h4.1v9.1h1.7v1.3h-16.9v-1.3h1.7v-9.1h4.1v-2.2zm.3 13.2.7 1.2c-1.8.9-3.8 1.9-6 2.9-.2-.4-.5-.8-.8-1.3 2.4-1 4.4-2 6.1-2.8zm-3.1-6.5h2.8v-3.2h-2.8zm0 4.6h2.8v-3.3h-2.8zm4.1-4.6h2.8v-3.2h-2.8zm0 4.6h2.8v-3.3h-2.8zm3.6 1.9c2.1.9 4.1 1.8 6.1 2.7l-.7 1.3c-2.2-1.1-4.2-2-6.1-2.9zm3.3-9.7h-2.8v3.2h2.8zm-2.8 7.8h2.8v-3.3h-2.8z" fill="#fafbfc"/><path d="m181.54 276.03c6.31-8.49 9.41-17.91 11.15-27.78 1.98-11.25 3.66-22.56 5.21-33.88.3-2.18-.69-4.53-.96-6.81-.56-4.8-1.01-9.61-1.58-14.4-.12-1-.32-2.11-.86-2.91-3.5-5.16-4.08-10.65-3.71-16.88.37-6.22-.91-12.62-2.09-18.82-.86-4.54-.72-8.96-.73-13.51-.01-7.04.5-14.5-5.15-20.26-.58-.6-1.06-1.77-.91-2.54 1.15-5.65-1.68-10.45-3.69-15.15-3.39-7.89-5.45-16.12-6.56-24.44-.54-4.04 1.42-8.45 1.22-12.91-.06-1.31 2.32-2.87 3.78-4.07 2.38-1.96 3.7-4.31 3.31-7.43-.41-3.35 1.45-5.35 4.04-6.88 1.64-.97 3.42-1.7 5.03-2.7 1.69-1.06 3.8-1.99 4.75-3.56 1.91-3.15 4.51-4.59 7.97-4.8 3.1-.18 6.24-.57 9.3-.24 5.9.64 12.03.25 17.54 3.14 7.79-1.72 15.36.6 23.04 1.12 3.12.21 6.31-.61 9.47-.71 2.94-.09 6.07-.4 8.78.45 2.03.64 3.62 2.87 5.23 4.56 1.62 1.71 3.03 3.62 4.51 5.45.38.47.77.96 1.04 1.49 1.48 3 2.67 6.18 4.42 9 3.46 5.58 5.92 11.43 6.42 18.05.13 1.67.33 3.51 1.12 4.91 4.34 7.67.34 15.06-.54 22.55-.04.37-.36.79-.67 1.03-4.74 3.69-9.2 7.89-14.34 10.9-6.96 4.07-14.3 7.42-19 14.4-.27.41-.75.88-1.19.94-5.43.79-8.03 5.11-11.09 8.84-8.02 9.78-9.33 21.11-8.17 33.25 1.26 13.18 1.91 26.41 2.83 39.62.04.53.2 1.08.1 1.58-1.66 8.75 1.05 17.24 1.5 25.87.38 7.17-.16 14.23-2.53 21-.96 2.76-.06 4.21 2.34 4.68 4.5.89 8.98 1.91 13.68.45 4.85-1.5 9.97-.08 13.66 2.51 2.67 1.88 4.07 6.35 4.89 9.93 2.18 9.5-.96 18.42-4.14 27.22-.3.83-1.11 1.55-1.82 2.16-3.39 2.89-5.94 6.25-6.7 10.79-.14.84-.76 1.85-1.46 2.32-4.32 2.9-7.91 6.6-11.78 10-4.01 3.52-9.34 5.92-14.49 7.67-10.7 3.64-21.69 6.43-32.5 9.79-3.51 1.09-6.72 3.14-10.23 4.23-3.39 1.05-6.99 1.38-10.48 2.1-1.4.29-2.92.53-4.1 1.26-5.88 3.63-11.77 7.18-18.97 7.35-.97.02-2.6.08-2.79-.37-.45-1.03-.75-2.85-.16-3.51 4.11-4.66 8.37-9.21 12.83-13.53.85-.82 2.84-.68 4.29-.65 6.43.18 11.75-3.27 17.5-5.27.52-.18 1.1-1.32 1.01-1.91-.81-5.18-.71-10.7-4.79-14.78-.84-.84-2.24-1.8-3.25-1.68-16.5 2.04-33.04.39-49.56.67-2.99.05-6.16-1.31-8.95-2.64-1.2-.57-2.01-2.68-2.24-4.2-.09-.58 1.82-1.85 3-2.16 2.31-.62 4.74-.79 7.12-1.15 2.16-.33 4.44-.33 6.44-1.09 9.17-3.49 18.5-5.01 28.34-4 3.26.34 6.77-.34 9.97-1.24 3.39-.96 3.61-2.8 2.33-6.06-1.43-3.62-2.42-7.43-3.43-11.2-1.11-4.17-2.87-7.83-6-10.97-2.18-2.19-3.59-5.13-5.45-7.66-.77-1.05-1.63-2.25-2.74-2.81-5.29-2.67-10.57-5.44-16.08-7.58-2.64-1.02-5.78-.75-8.7-1.04-1.26-.13-2.72.17-3.74-.38-3.16-1.7-6.5-1.85-9.87-1.51-7.27.75-13.66-2.51-20.32-4.43-1.01-.29-2.07-2.11-2.16-3.3-.07-.9 1.16-2.32 2.15-2.82 6.01-3.04 12.38-1.86 18.72-1.42 6 .42 12.03.56 18.04.61 4.49.04 8.84.11 12.64 3.08 1.21.95 2.8 1.62 4.31 1.94 6.27 1.31 10.87 4.74 14.33 10.11 1.99 3.11 4.5 5.9 6.91 8.72 1.3 1.55 2.86 2.82 4.41 4.3zm34.13 2.73c2.46-2.17 4.88-4.07 6.97-6.28.84-.89 1.47-2.53 1.31-3.71-.57-4.1-.3-7.95 1.44-11.79.76-1.68 1.07-3.7 1.06-5.56-.03-6.75-.27-13.49-.47-20.24-.02-.73-.23-1.46-.39-2.18-2.31-10.32-4.98-20.57-4.47-31.33.14-3.01-.68-6.07-1.09-9.11-.29-2.15-.77-4.28-.93-6.44-.31-4.09.04-8.29-.78-12.26-1.26-6.05-.3-11.25 3.51-16.11 1.4-1.78 2.65-3.93 3.17-6.11.88-3.72 2.6-6.8 4.86-9.82 2.83-3.79 6.27-6.75 9.98-9.63 4.9-3.79 8.62-9.13 14.95-11 .56-.17.94-.87 1.49-1.17 2.19-1.18 4.4-2.34 6.64-3.44 2.44-1.19 5.04-2.09 7.34-3.49 2.98-1.81 5.78-3.93 8.58-6.03.98-.74 1.95-1.68 2.51-2.75 3.58-6.82.21-13.19-1.88-19.43-.73-2.19-3.27-3.72-2.16-6.67.21-.56-.41-1.54-.83-2.21-1.73-2.76-3.67-5.39-5.28-8.22-2.8-4.89-5.42-9.93-10.48-12.9-1.55-.91-3.48-1.67-5.24-1.65-7.19.07-14.39.84-21.57.65-7.49-.2-15.13-.48-22.38-2.13-4.79-1.09-7.45.54-10.66 3.15-3.06 2.49-6.57 4.44-9.82 6.72-1.3.92-3.27 1.96-3.48 3.19-1.6 9.4-2.54 18.81.69 28.17 1.15 3.34 1.51 6.95 2.28 10.43.27 1.2.59 2.41 1.05 3.55 2.48 6.13 5.97 12.03 7.32 18.39 2.31 10.83.7 22.08 2.72 33.14 1.46 8.02.72 16.49.53 24.75-.14 5.95.73 11.49 3.47 16.83.77 1.49.61 3.58.51 5.37-.1 1.76-1.48 3.89-.87 5.17 2.47 5.19 1.37 10.63 1.85 15.94.51 5.68-.09 11.16-2.45 16.46-.75 1.68-.81 3.7-1.04 5.58-1.11 9.11-.75 18.47-4.65 27.1-.3.65-.32 1.44-.45 2.16-.57 2.97.88 4.33 3.68 4.6 4.03.39 8.06.75 11.59-2.25.66.91 1.19 1.62 1.87 2.56zm9.18 56.34c-.09-.38-.18-.76-.27-1.14 1.09-1.04 2.04-2.33 3.31-3.06 2.19-1.26 4.57-2.21 6.9-3.2 4.8-2.04 9.62-4.13 12.88-8.39 3.7-4.82 6.7-10.23 10.77-14.69 4.12-4.52 4.13-9.52 3.41-14.77-.21-1.52-1.54-3.36-2.88-4.14-3.92-2.3-8.01-3.91-12.92-2.97-7.92 1.51-16.34.31-23.73 4.71-1 .6-2.48.4-3.74.58-3.25.45-6.54.69-9.73 1.41-3.45.78-6.8 2.03-10.21 3.03-1.92.57-3.87 1.07-5.8 1.6-1.76.49-2.45 1.69-1.9 3.36 1.05 3.19 1.93 6.5 3.48 9.45 2.89 5.5 5.12 11.09 5.61 17.36.36 4.63.98 9.27 4.15 13.34 6.67-2.31 13.34-5 20.67-2.48z" fill="#010104"/></svg>