<svg enable-background="new 0 0 400 400" viewBox="0 0 400 400" xmlns="http://www.w3.org/2000/svg"><g fill="#010000"><path d="m203.62 180.1c-.64-3.39 1-6.49 4.04-9.52 11.72-11.67 23.02-23.75 34.81-35.34 4.35-4.27 6.05-9.3 5.63-14.82-.73-9.49-2.12-18.93-3.48-28.35-1-6.93-2.41-13.82-.95-20.82.43-2.05 1-4.17 2.03-5.96 1.25-2.19 2.37-5.1 5.59-4.89 3.79.24 6.7 2.12 7.75 5.97 1.13 4.18 2.29 8.39 2.98 12.66 2.32 14.32 4.49 28.67 6.58 43.03.39 2.7 1.59 4.66 3.51 6.46 18.45 17.25 33.23 37.29 44.9 59.65 4.92 9.42 9.27 19.05 10.24 29.83.09 1.05.15 2.11.15 3.17 0 6.22-.88 7.12-7.03 6.9-.81-.03-1.78-.6-2.38-1.21-9.62-9.87-19.19-19.78-28.75-29.7-.72-.75-1.29-1.67-1.83-2.58-2.69-4.56-5.62-9.01-7.92-13.76-2.57-5.32-6.16-9.29-11.83-11.1-5.03-1.6-5.87-5.58-6-10.02-.08-2.58.84-5.62-2.39-6.91-3.42-1.37-6.42-.61-9.22 2.09-5.5 5.29-11.13 10.46-16.98 15.36-9.5 7.96-9.52 17.35-2.5 26.4 11.08 14.29 15.4 30.86 18.87 47.96.67 3.3 1.6 6.58 2.72 9.75 3.24 9.18 6.55 18.34 10.01 27.44 1.06 2.79 1.6 5.47.51 8.28-1.19 3.06-.87 5.91.53 8.84 1.05 2.19 1.6 4.61 2.6 6.82 3.5 7.76 4.73 15.79 4.68 24.34-.03 5.35 1.95 10.78 3.43 16.06 1.73 6.19.72 12.21-.58 18.21-.19.87-2.41 1.41-3.77 1.87-1.72.59-2.34-.59-2.89-2-5.04-12.8-10.01-25.64-15.29-38.34-1.51-3.64-4.03-6.86-5.95-10.35-1.5-2.72-3.35-5.43-4.06-8.38-4.08-16.98-7.66-34.08-11.88-51.03-1.42-5.7-4.08-11.11-6.41-16.55-4.82-11.29-10-22.43-14.66-33.78-3.23-7.91-4.7-16.27-4.81-25.68z"/><path d="m155.99 77.53c7.65 3.96 10.14 10.55 10.63 18.25.26 4.12.48 8.26.46 12.39-.09 14.93 3.15 29.46 5.09 44.15.82 6.2 2.11 12.34 2.63 18.56.3 3.64-.63 7.36-.75 11.05-.09 2.71-.4 5.65.49 8.09 2.13 5.87 1.81 11.92 2.11 17.91.9 17.58 1.62 35.16 2.24 52.75.11 3.1-1.57 6.48-.8 9.29 3.87 14.17 2.94 28.59 2.95 42.97.01 13.88-.08 27.77-.31 41.65-.04 2.37-.85 4.8-1.68 7.06-1.13 3.08-2.67 4.02-6.97 4.67-1.14-6.93-2.6-13.85-3.34-20.85-1.31-12.42-2.11-24.9-3.26-37.34-.43-4.69-1.81-8.97-5.45-12.45-2.88-2.75-1.65-6.58-1.34-9.99.17-1.87.8-3.73 1.42-5.53 1.7-4.95-2.21-11.81-8.81-11.53-18.63.78-37.29.8-55.95.98-4.4.04-8.86-.14-13.21-.78-3.52-.52-6.08-2.75-7.26-6.35-.57-1.73-.25-2.6 1.45-3.47 8.58-4.37 17.68-7.1 27.16-8.51 13.41-2 26.84-3.86 40.28-5.66 3.03-.41 6.13-.33 9.2-.43 3.77-.12 6.04-2.32 5.87-5.97-.48-10.58-.65-21.19-1.71-31.71-.66-6.57-2.61-13.03-4.23-19.48-.31-1.22-1.56-2.51-2.72-3.15-9.74-5.42-20.48-6.6-31.35-6.77-6.88-.1-13.77.55-20.65.53-8.03-.03-15.92-1.16-22.7-5.91-2.44-1.7-4.4-4.1-6.58-6.17.13-.3.26-.59.39-.89 4.54-.72 9.07-1.47 13.61-2.16 15.18-2.31 30.34-4.81 45.57-6.79 5.08-.66 10.34-.01 15.51.08 1.57.03 3.14.17 5.25.29 0-1.43.02-2.64 0-3.86-.31-15.68-.8-31.35-.88-47.03-.04-8.3 1.27-16.47 5.11-24.02.43-.85.92-1.67 1.42-2.47.27-.45.64-.82 1.11-1.4z"/><path d="m198.44 238.96c7.91 4.7 11.82 12.05 14.03 20.28 4.01 14.95 5.72 30.17 3.81 45.64-.22 1.78.23 4.41-2.72 4.59-3.04.18-6.13 2.69-8.95-1.47-5.69-8.39-9-17.54-9.77-27.52-.81-10.45-1.12-20.95-1.46-31.44-.19-5.99-.03-6 5.06-10.08z"/><path d="m188.84 69.14c-.18-10.92 1.1-21.54 6.05-31.5 1.16-2.34 2.43-2.69 4.7-1.87 5.62 2.02 8.74 6.24 9.01 13.25.21 5.5-.11 11.02-.03 16.53.11 6.86.6 13.73.54 20.58-.05 5.03-.65 10.07-1.15 15.09-.23 2.29-1.65 3.29-4.07 3.48-5.61.43-5.21.29-8.38-4.42-6.45-9.58-6.5-20.33-6.67-31.14z"/></g><path d="m361.2 9.6.8-1c.9.7 1.9 1.4 2.9 2.3l-.9 1.1c-1-1-2-1.8-2.8-2.4zm.5 10.6c.9-2.1 1.6-4.3 2.3-6.7.4.2.8.4 1.3.6-.7 2.1-1.5 4.3-2.2 6.6zm.4-15.2.9-.9c1 .8 2 1.6 2.8 2.4l-1 1c-.9-.9-1.8-1.7-2.7-2.5zm12.5-1.2h1.2v1.4h2.7v1.1h-2.7v2.7h-1.2v-.6h-1.8v1.3h4.9v3.8h-1.2v-.5h-3.7c0 .4-.1.9-.1 1.2h5.1v1h-5.2c0 .5-.1.9-.2 1.2h6v1h-5.2c1.1 1.3 2.9 2 5.5 2.2-.4.4-.7.8-.9 1.3-2.9-.5-4.8-1.6-5.7-3.5h-.1c-.8 1.7-2.7 2.9-5.9 3.6-.2-.4-.6-.8-.9-1.1 2.8-.6 4.6-1.4 5.4-2.5h-4.8v-1h5.3c.1-.3.2-.7.2-1.2h-4.9v-1h5c0-.4 0-.8.1-1.2h-3.5v.5h-1.2v-3.8h4.9v-1.3h-1.8v.5h-1.2v-2.7h-2.7v-1h2.6v-1.4h1.2v1.4h4.7v-1.4zm-6.6 8.3h3.6c0-.4 0-.9 0-1.4h-3.6zm1.9-4.6h4.7v-1.3h-4.7zm6.6 3.2h-3.7v1.4h3.7z" fill="#fafafb"/><path d="m385.3 3.8h1.3v2.2h2.8v-2.2h1.3v2.2h4.1v9.1h1.7v1.3h-16.9v-1.3h1.7v-9.1h4.1v-2.2zm.4 13.1.7 1.2c-1.8.9-3.8 1.9-6 2.9-.2-.4-.5-.8-.8-1.3 2.3-1 4.3-1.9 6.1-2.8zm-3.1-6.4h2.8v-3.2h-2.8zm0 4.6h2.8v-3.3h-2.8zm4-4.6h2.8v-3.2h-2.8zm0 4.6h2.8v-3.3h-2.8zm3.7 1.9c2.1.9 4.1 1.8 6.1 2.7l-.7 1.3c-2.2-1.1-4.2-2-6.1-2.9zm3.2-9.7h-2.8v3.2h2.8zm-2.8 7.8h2.8v-3.3h-2.8z" fill="#fafafb"/></svg>