<svg enable-background="new 0 0 400 400" viewBox="0 0 400 400" xmlns="http://www.w3.org/2000/svg"><g fill="#010103"><path d="m277.99 303.67c-7.98-5.96-15.94-12.12-24.16-17.9-1.95-1.37-4.76-1.69-7.24-2.12-4.06-.71-7.57-2.41-10.96-4.72-8.32-5.67-16.77-11.14-25.18-16.68-.87-.57-1.78-1.08-3.26-1.98-1.68 5.85-3.31 11.41-4.87 16.99-1.19 4.26-3.03 7.91-7.61 9.44-1.88.63-3.12.27-4.19-1.53-3.37-5.68-5.02-11.9-5.91-18.33-1.85-13.33-3.52-26.68-5.24-40.03-.7-5.47-3.46-7.61-9.4-6.6-4.58.77-9.16 1.79-13.57 3.23-13.07 4.26-26.24 8.28-38.56 14.6-2.16 1.11-5.19 1.04-7.74.78-12.26-1.26-23.12-6.64-33.88-12.12-1.18-.6-1.67-2.97-2.07-4.62-1.37-5.55-.19-7.44 5.58-8.72 22.41-4.98 44.8-10.02 67.27-14.74 6.09-1.28 12.42-1.32 18.59-2.24 8.53-1.28 10.11-3.81 8.23-12.32-.23-1.03-.63-2.04-.73-3.09-.66-6.82-5.72-9.63-11.05-12.15-.72-.34-1.83-.16-2.67.1-3.24.99-6.5 1.94-9.64 3.21-13.53 5.47-27.99 6.48-42.15 8.91-7.62 1.31-15.35 2.06-22.89 3.73-6.92 1.53-13.16.36-18.77-3.46-9.37-6.36-18.56-13-27.62-19.8-4.07-3.05-5.88-7.63-6.49-12.67-.2-1.67.26-2.82 1.94-2.96 2.46-.2 5.52-1.1 7.33-.03 9.3 5.49 19.65 5.5 29.82 6.64 6.74.75 13.47 1.59 20.23 2.13 4.53.36 9.1.38 13.65.31 3.02-.05 4.55-1.77 5.33-5.43-7.21-3.66-14.5-7.3-21.72-11.07-1.76-.92-3.44-2.09-4.92-3.4-12.31-10.89-24.52-21.88-36.85-32.74-3.49-3.08-5.39-6.64-5.02-11.39.15-1.96 1.14-3.05 2.83-3.22 2.26-.23 4.71-.53 6.82.09 4.33 1.27 8.44 3.01 12.1 6.01 6.66 5.44 14.92 7.88 22.85 10.84 2.47.92 4.99 1.68 7.66 2.58 5.64-8.53 9.56-17.73 12.44-27.41 2.2-7.39 3.3-14.89 1.95-22.58-.17-.99-.57-2.02-1.14-2.84-3.6-5.26-2.19-10.92 3.55-13.7.57-.28 1.48-.34 2.03-.08 11.46 5.46 22.88 10.97 34.31 16.48.28.14.53.34.8.52 9.15 6.3 10.64 11.73 6.34 21.99-1.83 4.36-4.15 7.99-8.92 9.59-5.16 1.72-8.54 5.41-11.32 10.03-3.72 6.16-7.92 12.04-11.92 18.03-2.3 3.46-2.21 8.58.71 11.49 4.43 4.4 9.03 8.65 13.79 12.69 5.44 4.61 11.69 5.63 18.46 3.22 8.27-2.94 16.63-5.64 23.76-11.1 3.98-3.05 8.78-2.76 13.45-2.36.68.06 1.57 1.29 1.83 2.14 1.75 5.65.15 10.48-4.11 14.39-5.61 5.15-11.34 10.18-17.21 15.43.79.69 1.36 1.27 2.01 1.75 8.93 6.47 17.82 12.98 26.84 19.32 1.24.87 3.14 1.39 4.63 1.21 9.89-1.16 19.74-2.67 29.63-3.82 3.21-.37 6.61-.5 9.73.15 7.01 1.46 13.95.76 20.85-.18 6.03-.82 11.8-.32 17.55 1.43 12.35 3.75 24.84 7.11 36.99 11.42 9.75 3.46 14.42 11.4 15.07 21.56.23 3.57-.38 7.18-.43 10.77-.05 3.2-2.03 5.07-4.61 5.72-2.68.68-4.81-1.11-6.28-3.4-2.23-3.48-4.54-6.91-6.66-10.46-5-8.39-11.96-13.06-22.03-13.96-26.8-2.38-53.08-1-78.68 8.1-4.76 1.69-6.27 5.36-7.78 9.24-.94 2.43-1.36 5.12-1.66 7.73-.77 6.71-1.34 13.45-2.03 20.67 22.44 3.6 44.26 9.39 64.66 19.57 4.28-4.64 5.58-10.04 6.9-15.34 1.07-4.31 1.71-8.73 2.45-13.11.99-5.87-.49-11.34-2.74-16.7-1.21-2.87-1.79-5.86.92-8.17.94-.8 2.73-1.34 3.88-1.04 5.62 1.49 11.6 2.51 16.6 5.25 4.16 2.28 7.38 6.51 10.58 10.25 3.33 3.89 6.01 8.32 5.31 13.84-.73 5.76-2.45 11-6.81 15.3-4.13 4.08-7.9 8.58-11.5 13.14-4.09 5.17-5.48 11.19-4.02 17.67.33 1.44 1.08 3.05 2.15 4.01 2.58 2.33 5.37 4.48 8.26 6.41 3.19 2.13 6.6 2.38 10.25.71 7.97-3.64 16.16-6.68 23.27-12.15 6.32-4.86 13.68-7.98 21.66-9.47 2.69-.5 4.44.26 4.92 2.83.49 2.64 1.33 5.66.54 8.01-1.97 5.84-5.1 11.08-10.64 14.56-10.5 6.59-20.86 13.4-31.31 20.06-1.3.83-2.81 1.58-4.31 1.81-14.02 2.2-28.06 4.2-42.08 6.43-14.73 2.34-29.13 1.29-43.23-3.62-.98-.34-1.95-.81-2.79-1.42-6.93-5.03-13.93-9.97-20.68-15.24-3.46-2.7-6.9-5.68-9.5-9.16-1.49-2-2.6-6.09-1.54-7.76 1.66-2.63 5.5-1.98 8.5-.88 9.04 3.32 18.08 6.64 27.06 10.1 11.92 4.59 24.29 5.48 36.88 4.69 4.92-.3 7.02-2.17 8.55-7.29z"/><path d="m266.98 48.58c3.6.23 7.29.07 10.8.79 6.52 1.34 12.93 3.26 19.4 4.84 8.97 2.19 12.72 9.21 15.66 16.91.26.68-.72 2-1.37 2.83-5.59 7.17-11.42 14.16-16.77 21.5-1.99 2.73-2.92 6.23-4.48 9.71 8.99 2.49 17.49 4.68 25.87 7.22 7.96 2.41 16.02 3.78 24.33 3.96 4.87.1 6.25 1.81 5.69 6.53-.39 3.3 1.01 5.43 4.1 6.17 2.32.56 4.77.8 7.16.79 3-.01 3.7.64 2.75 3.54-.9 2.74-2.23 5.08-4.92 6.72-31.29 19.1-64.85 27.34-101.5 22.17-6.08-.86-12.44.49-18.67.52-4.52.02-9.05-.37-13.56-.74-.79-.07-1.73-.77-2.25-1.45-5.02-6.56-10.05-13.12-14.91-19.81-3.5-4.82-4.97-10.44-5.79-16.29-.36-2.54.72-3.41 2.91-3.9 3.57-.79 6.48.73 9.14 2.68 6.26 4.58 12.66 8.8 20.08 11.38 11.87 4.14 24.18 5.28 36.59 5.56 14.32.32 28.61-.33 42.63-3.63 1.33-.31 2.56-1.04 3.84-1.58-.05-.32-.1-.64-.15-.95-4.75-.52-9.5-1.3-14.27-1.5-14.16-.59-27.13-5.26-39.82-11.07-12.04-5.52-24.06-11.03-34.93-18.74-2.34-1.66-3.91-3.64-4.64-6.51-.41-1.62-1.59-3.19-2.79-4.43-3.81-3.97-7.92-7.67-11.68-11.69-3.28-3.52-4.57-7.95-5.09-13.25 4.28 1.03 8.14 1.93 11.99 2.9.45.11.81.61 1.2.94 3.21 2.73 6.15 5.9 9.68 8.13 11.77 7.44 24.33 13.29 37.73 17.21 4.68 1.37 4.71 1.25 7.05-3.09 4.72-8.77 6.87-18.19 6.77-28.1-.01-1.35-.94-2.86-1.83-3.99-1.1-1.4-2.61-2.48-3.91-3.71-2.15-2.05-3.03-4.52-2.04-8.57z"/><path d="m118.31 325.8c-3-.51-6.05-.9-9.03-1.57-3.82-.86-5.09-2.61-5.11-6.47 0-.74-.13-1.51.02-2.22 1.32-6.17-1.68-9.98-6.79-12.76-9.76-5.3-19.47-10.71-29.24-15.99-5.63-3.05-11.21-6.26-14.94-11.58-2.04-2.91-3.18-6.47-4.94-10.2 8.62-2.08 16.14-1.73 23.41 1 8.72 3.27 17.3 6.92 25.89 10.51.99.41 1.81 1.38 2.53 2.24 4.08 4.83 8.51 9.15 14.67 11.29 1.76.61 2.81.4 3.76-1.46 4.71-9.13 9.97-17.99 14.17-27.34 1.44-3.22.77-7.61.34-11.39-.65-5.63.02-8.13 4.23-10.02 1.06-.48 2.79-.54 3.75.02 6.95 4.05 13.91 8.11 20.61 12.54 5.75 3.8 7.46 8.68 5.24 15.18-1.24 3.64-3.05 7.28-5.39 10.31-7.38 9.56-15.14 18.84-22.75 28.23-2.4 2.95-2.6 7.4.3 9.78 3.3 2.73 7 5.12 10.85 7.01 3.59 1.75 7.42 1.04 11-.89 6.34-3.41 12.7-6.79 19.14-10.02 4.75-2.38 9.84-3.26 15.12-2.25 3.48.67 4.89 2.69 4.35 6.17-.56 3.63-1.93 6.76-4.85 9.33-15.14 13.3-33 21.3-52.06 26.96-9.27 2.75-18.79 3.94-28.46 4.68-10.44.8-20.82 2.51-31.19 4.05-4.5.67-8.73.8-12.83-1.61-2.08-1.23-4.39-2.15-6.7-2.89-7.58-2.42-13.72-7.11-19.32-12.45-2.35-2.24-4.08-5.36-5.4-8.38-1.48-3.39-.78-4.61 2.84-4.86 4.5-.31 9.09-.25 13.56.31 5.45.68 10.81 2.05 16.21 3.13 7.11 1.42 14.14 1.9 21.42.53 6.19-1.17 12.61-1.11 18.93-1.6 4.93-.4 6.87-2.51 6.66-7.32z"/></g><path d="m5.17 384 .55-.58c.85.61 1.65 1.24 2.4 1.87l-.59.64c-.83-.73-1.62-1.38-2.36-1.93m1.22 9.53-.82-.34c.71-1.76 1.37-3.64 1.98-5.63.24.13.5.25.76.36-.6 1.67-1.24 3.54-1.92 5.61m-.5-13.5.57-.54c.56.44 1.31 1.06 2.26 1.87l-.64.64c-.68-.66-1.41-1.32-2.19-1.97m3.25.46h2.24v-1.36h.77v1.36h4.57v-1.36h.76v1.36h2.28v.69h-2.28v1.84h-2.64v1.26h4.18v2.64h-4.21c0 .45-.02.86-.05 1.21h4.32v.69h-4.38c-.04.34-.1.75-.19 1.22h5.15v.69h-4.82c.87 1.19 2.51 1.92 4.93 2.19-.17.31-.3.57-.37.76-2.77-.49-4.52-1.41-5.26-2.76-.56 1.26-2.3 2.23-5.24 2.9-.12-.24-.26-.48-.43-.72 2.73-.55 4.38-1.34 4.96-2.38h-4.38v-.69h4.65c.1-.38.17-.79.21-1.22h-4.32v-.69h4.4c.03-.34.05-.75.05-1.21h-4.2v-2.64h4.23v-1.26h-2.69v-1.84h-2.24zm1.46 4.46v1.29h3.45c.01-.4.02-.57.01-.53v-.32-.45h-3.46zm1.55-2.59h4.57v-1.19h-4.57zm6.11 2.59h-3.42v.77c-.01.19-.01.37-.02.53h3.44z" fill="#fcfbfa"/><path d="m32.63 379.16h.82v1.98h3.54v7.89h1.46v.78h-14.37v-.78h1.46v-7.89h3.54v-1.98h.82v1.98h2.73zm-3.49 11.48.5.73c-1.61.82-3.28 1.63-5 2.41-.13-.27-.28-.55-.44-.82 1.75-.72 3.4-1.49 4.94-2.32m-2.78-5.55h2.73v-3.18h-2.73zm0 3.95h2.73v-3.2h-2.73zm3.54-3.95h2.73v-3.18h-2.73zm0 3.95h2.73v-3.2h-2.73zm7.89 4.68c-1.84-.92-3.51-1.7-5.02-2.32l.45-.73c1.89.8 3.57 1.55 5.04 2.23zm-1.62-11.81h-2.73v3.18h2.73zm-2.73 7.13h2.73v-3.2h-2.73z" fill="#fcfbfa"/></svg>