<svg enable-background="new 0 0 400 400" viewBox="0 0 400 400" xmlns="http://www.w3.org/2000/svg"><path d="m143.85 128.44c1.87 3.17 3.42 5.79 5.41 9.15 1.46-7.65 2.78-14.53 4.09-21.41 1.3-6.87 2.54-13.75 3.91-20.6.24-1.19.9-2.36 1.61-3.37 3.3-4.68 6.53-9.41 10.06-13.91 9.65-12.32 17.78-25.53 24.13-39.84.42-.95.99-1.84 1.6-2.98.82.46 1.55.82 2.23 1.25 9.17 5.72 18.36 11.41 27.46 17.24 1.23.79 2.43 2.12 2.94 3.47 3.08 8.18 7.27 15.23 14 21.36 12.99 11.82 21.09 27.24 27.64 43.34 8.5 20.86 15.34 42.3 17.58 64.78 1.41 14.15 3.44 28.14 6.14 42.08.25 1.31-.07 3.05-.78 4.19-2.47 3.95-2.89 8.2-3.06 12.73-.26 6.95-.83 13.93-1.86 20.81-.44 2.9-2.07 5.78-3.72 8.3-13.9 21.17-28.03 42.2-41.83 63.43-2.56 3.94-4.14 8.55-5.9 12.97-5.86 14.72-18.32 19.98-32.69 12.95-8.92-4.36-17.34-9.75-25.93-14.77-2.92-1.71-5.55-3.93-8.51-5.57-6.83-3.8-12.04-9.1-16.14-15.75-1.61-2.62-4.13-4.86-6.64-6.71-15.22-11.17-24.72-26.55-32.18-43.41-5.43-12.26-9.5-24.94-10.67-38.4-.6-6.91-.2-13.62 2.04-20.37 8.12-24.52 15.86-49.16 23.83-73.73.53-1.63 1.55-3.23 2.73-4.49 3.97-4.25 8.13-8.31 12.51-12.74zm106.74 82.45c5.84.22 10.01-2.37 13.78-5.79.45-.41.77-1.31.69-1.92-.98-7.13-1.5-14.38-3.21-21.34-5.86-23.96-16.79-45.8-28.85-67.15-4.62-8.18-8.86-16.61-12.59-25.22-2.82-6.5-7.04-11.15-13.23-14.34-2.28-1.17-3.55-1.04-5.14 1.25-10.8 15.46-21.74 30.82-32.72 46.15-2.9 4.05-5.13 7.98-5.6 13.33-.97 10.97-6.39 20.48-11.86 29.84-3.15 5.39-6.52 10.69-9.14 16.33-3.66 7.86-5.1 16.13-2.17 24.68 2.3 6.73 2.64 6.93 9.76 7.19 18.62.68 37.25 1.37 55.87 2.12 6.69.27 13.3.4 19.6-2.51 6.21-2.88 12.88-3.19 19.59-3 1.89.03 3.79.26 5.22.38zm-19.05 24.83c0-.11 0-.22 0-.33-1.69 0-3.4-.12-5.08.02-14.03 1.2-28.05 2.39-42.07 3.71-12.09 1.14-24.3 1.82-35.24 8.13-1.64.95-2.76 1.57-2.28 3.73 1.19 5.36 1.77 10.89 3.4 16.1 3.65 11.64 9.06 22.4 18.41 30.65 6.12 5.4 12.69 10.3 18.56 15.94 5.03 4.84 10.9 7.1 17.54 7.89 6.48.77 11.96-.17 16.37-6.22 7.67-10.52 16.3-20.33 24.24-30.65 2.26-2.94 4.08-6.48 5.1-10.04 1.24-4.28 2.43-8.3 6.13-11.13.46-.35.85-1.03.93-1.6.75-4.9 1.89-9.8 1.99-14.72.15-7.2-3.95-11.17-11.19-11.44-5.58-.21-11.2-.04-16.81-.04z" fill="#010000"/><g fill="#fafafb"><path d="m361.2 9.6.8-1c.9.7 1.9 1.4 2.9 2.3l-.9 1.1c-1-1-2-1.8-2.8-2.4zm.5 10.6c.9-2.1 1.6-4.3 2.3-6.7.4.2.8.4 1.3.6-.7 2.1-1.5 4.3-2.2 6.6zm.4-15.2.9-.9c1 .8 2 1.6 2.8 2.4l-1 1c-.9-.9-1.8-1.7-2.7-2.5zm12.5-1.2h1.2v1.4h2.7v1.1h-2.7v2.7h-1.2v-.6h-1.8v1.3h4.9v3.8h-1.2v-.5h-3.7c0 .4-.1.9-.1 1.2h5.1v1h-5.2c0 .5-.1.9-.2 1.2h6v1h-5.2c1.1 1.3 2.9 2 5.5 2.2-.4.4-.7.8-.9 1.3-2.9-.5-4.8-1.6-5.7-3.5h-.1c-.8 1.7-2.7 2.9-5.9 3.6-.2-.4-.6-.8-.9-1.1 2.8-.6 4.6-1.4 5.4-2.5h-4.8v-1h5.3c.1-.3.2-.7.2-1.2h-4.9v-1h5c0-.4 0-.8.1-1.2h-3.5v.5h-1.2v-3.8h4.9v-1.3h-1.8v.5h-1.2v-2.7h-2.7v-1h2.6v-1.4h1.2v1.4h4.7v-1.4zm-6.6 8.3h3.6c0-.4 0-.9 0-1.4h-3.6zm1.9-4.6h4.7v-1.3h-4.7zm6.6 3.2h-3.7v1.4h3.7z"/><path d="m385.3 3.8h1.3v2.2h2.8v-2.2h1.3v2.2h4.1v9.1h1.7v1.3h-16.9v-1.3h1.7v-9.1h4.1v-2.2zm.4 13.1.7 1.2c-1.8.9-3.8 1.9-6 2.9-.2-.4-.5-.8-.8-1.3 2.3-1 4.3-1.9 6.1-2.8zm-3.1-6.4h2.8v-3.2h-2.8zm0 4.6h2.8v-3.3h-2.8zm4-4.6h2.8v-3.2h-2.8zm0 4.6h2.8v-3.3h-2.8zm3.7 1.9c2.1.9 4.1 1.8 6.1 2.7l-.7 1.3c-2.2-1.1-4.2-2-6.1-2.9zm3.2-9.7h-2.8v3.2h2.8zm-2.8 7.8h2.8v-3.3h-2.8z"/></g></svg>