<svg enable-background="new 0 0 400 400" viewBox="0 0 400 400" xmlns="http://www.w3.org/2000/svg"><path d="m184.56 166.24c17.72 5.02 35.14 9.92 52.51 14.97 1.29.38 2.78 1.66 3.29 2.89 2.35 5.77 4.44 11.65 6.48 17.54.35 1.01.23 2.3-.02 3.38-.97 4.12-1.94 8.26-3.24 12.28-.42 1.29-1.68 2.54-2.88 3.29-3.32 2.05-7.09 3.46-10.19 5.78-7.86 5.86-16.7 7.88-26.27 7.88-13.24-.01-26.49.23-39.73.12-3.55-.03-5.38 1.51-6.12 4.62-.58 2.46-.82 5-1.2 7.51-1.47 9.66-4.99 18.4-12.05 25.36-2.05 2.02-4.69 3.45-7.11 5.18-4.88-5.97-7.02-12.15-5.34-19.3.27-1.14 1.11-2.17 1.76-3.19 1.13-1.76 2.82-3.33 3.41-5.24 3.07-9.9 6.49-19.75 8.61-29.86 3.13-14.9 5.31-30 7.83-45.03.67-3.99-.34-6.96-3.88-9.83-10.61-8.61-16.45-20-17.4-33.74-1.11-16.08-1.91-32.18-3.33-48.22-.93-10.44-2.64-20.81-4.17-31.19-.87-5.91 1.57-10.84 5.52-14.38 4.14-3.71 10.03-3.05 14.72-1.04 5.26 2.25 7.01 7.5 6.47 13.08-.46 4.73-1.5 9.4-2.17 14.11-.21 1.45-.15 2.97-.03 4.44.57 7.1 2.38 9.84 9.35 10.56 10.73 1.1 21.55 1.3 32.34 1.71.74.03 1.86-1.19 2.26-2.08 3.21-7.06 4.07-14.63 4.62-22.27.25-3.47.4-7.02 1.25-10.37 1.85-7.27 10.11-11.23 16.93-8.19 1.23.55 2.52 2.3 2.69 3.64.48 3.7.62 7.49.48 11.23-.22 5.9-1.11 11.79-1.13 17.68-.03 10.93-2.01 21.5-5.02 31.91-4.95 17.12-10.68 33.95-19.63 49.47-3.04 5.28-6.49 10.35-9.61 15.3zm-32.57-55.66c.39 9.68 2 19.11 5.12 28.32 1.28 3.78 3.46 5.81 7.33 6.9 5.3 1.49 9.27.67 13.48-3.29 10.02-9.42 14.34-21.48 17.42-34.26.51-2.13.58-4.4.58-6.61 0-2.64-1.16-4.19-4.13-4.52-5.46-.61-10.88-1.67-16.33-2.41-1.94-.26-4.03-.54-5.88-.11-3.38.79-6.62 2.16-9.94 3.19-6.11 1.9-7.59 3.83-7.66 10.24 0 .86.01 1.7.01 2.55zm40.53 108.6c5.63-.61 11.03-.89 16.32-1.84 7.17-1.29 13.66-3.89 16.14-11.81.28-.89 1.18-1.66 1.25-2.54.16-1.76.6-3.99-.24-5.25-2.45-3.7-6.03-6.39-10.52-7.06-12.15-1.81-24.33-3.37-36.5-5.01-2.09-.28-10.39 3.97-11.03 5.93-2.3 7.09-3.96 14.29-2.45 21.83.39 1.96 1.28 3.13 3.52 3.33 7.91.73 15.8 1.61 23.51 2.42z" fill="#010100"/><path d="m237.77 299.64c8.23-7.82 12.98-17.18 12.85-28.48-.07-5.99-1.17-11.97-1.89-17.94-.11-.9-.6-1.81-1.11-2.58-2.77-4.17-1.72-11.68 2.15-14.59.43-.32 1.19-.37 1.78-.31 9.55.85 17.56 4.34 18.9 16.3.77 6.85.16 13.52-1.61 20.13-.08.31-.11.67-.29.9-5.66 7.22-6.91 16.26-10.23 24.45-2.75 6.78-7.32 12.07-14.08 15.3-1.7.81-3.42 1.79-4.76 3.08-2.44 2.36-3.66 5.11-2.84 8.83 1.5 6.79 3.45 13.57 2.02 20.7-1.28 6.37-2.82 12.61-6.83 17.93-1.55 2.06-3.08 3.25-6.09 2.33-7.98-2.46-11.45-6.62-11.25-15.38.14-6.43-.74-12.39-4.4-17.85-1.42-2.12-3.13-3.27-5.53-3.75-15.92-3.17-29.09-11.32-40.34-22.73-6.14-6.23-9.08-13.58-7.28-22.56.96-4.78 4.66-5.82 8.22-5.87 4.13-.06 8.48.7 12.34 2.16 1.95.74 4.1 3.7 4.3 5.83 1.26 13.88 10.98 17.66 22.43 19.6 2.08.35 4.22.39 6.31.72 2.58.41 3.86-.98 3.45-3.16-.82-4.31-1.57-8.78-3.36-12.73-3-6.61-6.18-13.19-11.83-18.23-3.02-2.69-1.95-9.41 1.56-11.4 2.18-1.24 4.57-2.25 6.98-2.94 4.15-1.18 7.28-.18 10.58 3.33 6.6 7.01 9.52 15.29 11.22 24.38 1.06 5.79 3.04 11.19 8.63 14.53z" fill="#010100"/><g fill="#fbfafc"><path d="m342.2 3.2-6.3 9.2h6.1v1.2h-8.2v-.5l6.2-9.1h-5.7v-1.2h7.8v.4z"/><path d="m344 13.7v-10.9h3.1c1.6 0 3 .5 4.1 1.4 1.1 1 1.6 2.2 1.6 3.9s-.5 3-1.6 4-2.5 1.5-4.2 1.5h-3zm1.4-9.6v8.4h1.6c1.4 0 2.5-.4 3.2-1.1.8-.8 1.2-1.8 1.2-3.2s-.4-2.4-1.2-3.1-1.8-1-3.1-1z"/><path d="m356.3 2.8v10.9h-1.4v-10.9z"/><path d="m366.6 13.2c-.8.4-1.8.6-3 .6-1.6 0-2.8-.5-3.7-1.5s-1.4-2.3-1.4-3.9c0-1.7.5-3.2 1.6-4.2s2.4-1.6 4-1.6c1 0 1.9.1 2.6.4v1.5c-.8-.4-1.6-.6-2.6-.6-1.2 0-2.2.4-3 1.2s-1.1 1.9-1.1 3.3c0 1.3.4 2.3 1.1 3.1s1.6 1.1 2.8 1.1c1.1 0 2-.2 2.8-.7v1.3z"/><path d="m368.2 13c0-.3.1-.5.3-.6.2-.2.4-.3.6-.3.3 0 .5.1.7.3s.3.4.3.6-.1.5-.3.6c-.2.2-.4.3-.7.3s-.5-.1-.6-.3c-.2-.2-.3-.4-.3-.6z"/><path d="m381.1 13.7h-1.7l-5.5-8.4c-.2-.2-.3-.5-.4-.7 0 .2.1.8.1 1.5v7.6h-1.4v-10.9h1.8l5.3 8.3c.3.4.4.6.4.8 0-.3-.1-.8-.1-1.6v-7.5h1.4v10.9z"/><path d="m389.7 13.7h-5.8v-10.9h5.6v1.2h-4.2v3.5h3.9v1.2h-3.9v3.7h4.4z"/><path d="m398.4 4.1h-3.1v9.6h-1.4v-9.6h-3.1v-1.3h7.7v1.3z"/></g></svg>