<svg enable-background="new 0 0 400 400" viewBox="0 0 400 400" xmlns="http://www.w3.org/2000/svg"><path d="m128.85 359.98c-6.75 6.83-8.18 7.44-10.89 4.53 4.43-4.59 6.98-10.24 8.82-16.27.03-.1.1-.2.11-.3.31-7.82 3.12-15.03 5.5-22.34.36-1.1.62-2.28 1.19-3.25 7.2-12.19 10.64-25.48 12.18-39.45 1.09-9.9 3.08-19.7 4.04-29.6.61-6.29.26-12.7 0-19.05-.21-5.15-.86-10.3-1.49-15.42-.13-1.03-.84-2.29-1.68-2.88-9.25-6.52-15.25-15.75-21.13-25.09-1.19-1.88-2.13-4.09-3.75-5.5-7.7-6.69-10.9-16.27-16.28-24.44-4.92-7.48-6.98-15.48-6.83-24.26.02-1.13-.16-2.38-.65-3.37-4.07-8.26-3.52-17.3-4.5-26.09-.02-.21-.05-.45.03-.63 4.16-10.79.64-22.28 3.11-33.24 2.46-10.95 4.65-21.95 7.2-32.88.47-2.02 2.07-3.78 3.24-5.81 3.85 2.25 4.55 5.61 4.95 9.12 1 8.88-.96 17.52-2.24 26.2-1.55 10.48-3.13 20.96-4.69 31.44-.09.63-.19 1.28-.09 1.9 1.43 9.38 2.84 18.76 4.39 28.12.43 2.59 1.08 5.2 2.04 7.64 1.03 2.62 2.88 4.67 6.11 5.42 3.86-7.29 7.93-14.46 11.53-21.86 8.88-18.24 17.52-36.61 26.36-54.87 1.03-2.13 2.45-4.27 4.22-5.79 2.14-1.84 3.81-.97 3.88 1.83.33 14.07-1.64 27.76-8.41 40.27-6.84 12.66-14.53 24.88-21.15 37.65-3.42 6.61-6.78 13.12-11.46 18.93-.59.73-.71 2.16-.49 3.15.86 3.93 1.86 7.83 2.98 11.69.37 1.28 1.1 2.52 1.92 3.58 5.26 6.79 10.13 13.96 16.02 20.16 6.03 6.34 12.63 12.36 19.86 17.23 4.15 2.8 10.07 2.9 15.12 4.47 12.54 3.9 25.42 2.44 38.19 2.68.41.01.86-.04 1.24-.2 5.45-2.27 10.85-4.68 16.34-6.84 7.57-2.98 12.14-9.06 16.24-15.55 2.94-4.65 5.25-9.7 8.23-14.32 2.97-4.61 6.42-8.91 9.63-13.37.59-.82 1.23-1.7 1.48-2.66 1.88-7.26 3.59-14.56 5.54-21.8.55-2.05.29-3.4-1.14-5.06-9.44-10.93-17.79-22.65-25.14-35.1-2.85-4.84-3.09-10.02-3.37-15.28-.03-.63.69-1.8 1.14-1.84.75-.07 1.84.36 2.31.96 5.39 6.81 10.66 13.71 16.02 20.55 2.87 3.67 5.97 7.17 8.71 10.93 1.85 2.53 3.15 5.45 4.92 8.04.86 1.25 2.08 2.57 3.44 3.1 1.96.76 2.89-.86 3.74-2.49 3.69-7.09 4.27-14.81 4.64-22.54.49-10.36.75-20.73 1.12-31.1.01-.42-.02-.89.15-1.26 2.25-4.86.91-10.2 2-15.22.3-1.39.33-3.03-.1-4.36-2.37-7.25 1.15-13.96 1.75-20.92.04-.45.82-1.22 1.2-1.19.59.06 1.5.59 1.61 1.07.89 3.86 2.35 7.77 2.24 11.63-.16 5.72-1.28 11.37 1.86 16.69.38.64.44 1.71.2 2.44-1.25 3.77-.52 7.49-.18 11.29 1.31 14.55 1.1 29-3.35 43.13-.89 2.82-1.62 5.72-2.13 8.63-1.79 10.11-5.79 19.33-10.24 28.54-3.52 7.27-5.5 15.28-8.29 22.92-.6 1.66-1.81 3.08-2.57 4.69-1.06 2.23-1.94 4.54-2.95 6.78-.46 1.02-.86 2.18-1.62 2.93-9.05 8.94-18.02 17.98-27.36 26.61-2.59 2.39-6.31 3.59-9.55 5.24-1.21.61-2.68.76-3.8 1.47-3.06 1.93-3.25 3.32-1.17 6.24 2.04 2.87 2.91 5.89 1.12 9.21-5.92 10.96-4.47 22.32-1.89 33.75.14.62.3 1.26.59 1.81 5.27 9.92 10.93 19.65 15.74 29.79 4.39 9.25 8.15 18.83 11.63 28.46 1.98 5.48-.71 10.79-5.74 13.33-.78.39-1.85.3-2.78.26-5.82-.25-11.66-.38-17.46-.89-4-.35-7.68.57-11.53 1.36-11.6 2.38-23.28 4.34-34.95 6.42-2.92.52-5.85 1.03-8.8 1.26-7.01.55-14.05.84-21.06 1.4-4.2.34-8.37 1.22-12.57 1.46-4.52.27-8.58-1.33-12.35-4.02zm36.54-74.52c-7.22 4.74-8.88 12.6-10.93 20.27-.63 2.35-1.19 4.74-2.11 6.98-1.91 4.66-3.9 9.31-6.13 13.82-3.37 6.83-7.08 13.48-10.44 20.32-1.52 3.1-.55 4.65 2.81 4.36 3.42-.3 6.76-1.44 10.17-2.08 2.11-.39 4.36-1.04 6.39-.68 5.86 1.04 11.48.81 17.14-1.18 8.29-2.91 16.92-3.51 25.67-3.47 5.05.02 10.11-.75 15.15-1.26 1.56-.16 3.13-1 4.62-.84 7.37.76 14.63 1.35 22-.65 4.18-1.13 5.4-2.39 3.51-6.47-.61-1.31-1.5-2.6-2.56-3.59-7.98-7.46-13.23-16.7-17.73-26.48-2.51-5.46-4.52-11.21-8.85-15.67-.63-.64-.88-1.93-.84-2.9.66-15.12 1.37-30.23 2.15-45.35.17-3.28-1.98-5.75-5.16-5.63-3.71.14-7.42.09-11.12.35-3.34.24-6.34-.62-9.54-1.54-4.25-1.22-8.9-.95-12.96-3.14-.08-.04-.21.01-.31 0-3.18-.56-6.39-1.02-9.55-1.71-2-.44-3.93-1.21-6.21-1.93.28 4.25.5 8.04.77 11.83.87 12.35 2.26 24.71-.24 37.04-.77 3.82-.48 7.05 3.71 8.7.17.06.24.34.59.9z" fill="#010000"/><g fill="#fafafb"><path d="m361.2 9.6.8-1c.9.7 1.9 1.4 2.9 2.3l-.9 1.1c-1-1-2-1.8-2.8-2.4zm.5 10.6c.9-2.1 1.6-4.3 2.3-6.7.4.2.8.4 1.3.6-.7 2.1-1.5 4.3-2.2 6.6zm.4-15.2.9-.9c1 .8 2 1.6 2.8 2.4l-1 1c-.9-.9-1.8-1.7-2.7-2.5zm12.5-1.2h1.2v1.4h2.7v1.1h-2.7v2.7h-1.2v-.6h-1.8v1.3h4.9v3.8h-1.2v-.5h-3.7c0 .4-.1.9-.1 1.2h5.1v1h-5.2c0 .5-.1.9-.2 1.2h6v1h-5.2c1.1 1.3 2.9 2 5.5 2.2-.4.4-.7.8-.9 1.3-2.9-.5-4.8-1.6-5.7-3.5h-.1c-.8 1.7-2.7 2.9-5.9 3.6-.2-.4-.6-.8-.9-1.1 2.8-.6 4.6-1.4 5.4-2.5h-4.8v-1h5.3c.1-.3.2-.7.2-1.2h-4.9v-1h5c0-.4 0-.8.1-1.2h-3.5v.5h-1.2v-3.8h4.9v-1.3h-1.8v.5h-1.2v-2.7h-2.7v-1h2.6v-1.4h1.2v1.4h4.7v-1.4zm-6.6 8.3h3.6c0-.4 0-.9 0-1.4h-3.6zm1.9-4.6h4.7v-1.3h-4.7zm6.6 3.2h-3.7v1.4h3.7z"/><path d="m385.3 3.8h1.3v2.2h2.8v-2.2h1.3v2.2h4.1v9.1h1.7v1.3h-16.9v-1.3h1.7v-9.1h4.1v-2.2zm.4 13.1.7 1.2c-1.8.9-3.8 1.9-6 2.9-.2-.4-.5-.8-.8-1.3 2.3-1 4.3-1.9 6.1-2.8zm-3.1-6.4h2.8v-3.2h-2.8zm0 4.6h2.8v-3.3h-2.8zm4-4.6h2.8v-3.2h-2.8zm0 4.6h2.8v-3.3h-2.8zm3.7 1.9c2.1.9 4.1 1.8 6.1 2.7l-.7 1.3c-2.2-1.1-4.2-2-6.1-2.9zm3.2-9.7h-2.8v3.2h2.8zm-2.8 7.8h2.8v-3.3h-2.8z"/></g></svg>