<svg enable-background="new 0 0 400 400" viewBox="0 0 400 400" xmlns="http://www.w3.org/2000/svg"><path d="m362.1 8.8c1.1.8 2.1 1.6 3.1 2.4l-1 1.1c-1.3-1.1-2.3-2-3-2.5zm1.9 4.8c.5.2.9.4 1.4.5-.6 2.3-1.3 4.5-1.9 6.8l-1.5-.5c.8-2.1 1.4-4.3 2-6.8zm-1-9.4c1.3.9 2.4 1.8 3.4 2.5l-1 1.1c-1.4-1.2-2.4-2.1-3.2-2.6zm3.7 2.2v-1.4h10.3v1.2c-.5 3.6-1.8 6.8-4 9.4 1.5 1.6 3.4 2.8 5.7 3.8-.3.4-.7.8-1.1 1.4-2.3-1.1-4.1-2.5-5.6-4.1-1.6 1.6-3.6 3.1-5.9 4.3-.3-.5-.7-.9-1-1.3 2.4-1.1 4.4-2.5 6-4.1-1.9-2.5-3-5.6-3.3-9.3h-1.1zm8.8 0h-6.4c.3 3.3 1.3 6 3 8.2 2-2.3 3.1-5.1 3.4-8.2z" fill="#fbfcfa"/><path d="m385.3 3.8h1.3v2.2h2.8v-2.2h1.3v2.2h4.1v9.1h1.7v1.3h-16.9v-1.3h1.7v-9.1h4.1v-2.2zm.4 13.1.7 1.2c-1.8.9-3.8 1.9-6 2.9-.2-.4-.5-.8-.8-1.3 2.3-1 4.3-1.9 6.1-2.8zm-3.1-6.4h2.8v-3.2h-2.8zm0 4.6h2.8v-3.3h-2.8zm4-4.6h2.8v-3.2h-2.8zm0 4.6h2.8v-3.3h-2.8zm3.7 1.9c2.1.9 4.1 1.8 6.1 2.7l-.7 1.3c-2.2-1.1-4.2-2-6.1-2.9zm3.2-9.7h-2.8v3.2h2.8zm-2.8 7.8h2.8v-3.3h-2.8z" fill="#fbfcfa"/><g fill="#010101"><path d="m92.6 267.66c-1.27 5.47-6.57 5.33-11.28 6.25-.62.12-1.28.13-1.88.33-2.46.82-4.59.75-5.88-2.45-.57 1.04-1.1 1.69-1.28 2.43-.43 1.72-1.25 2.64-3.18 2.67-.95.02-2.03.61-2.8 1.25-6.19 5.18-13.19 8.2-21.27 9.14-2.99.35-5.82 2.07-9.11 3.31-1.13-1.98-2.47-4.34-3.86-6.77 2.62-2.41 1.4-5.36 1.46-8.15.03-1.3.39-2.59.66-3.88.54-2.49 1.68-5 1.56-7.44-.16-3.09-.29-5.89 1.95-8.32.38-.41.77-1.15.65-1.61-1.23-5.06.16-9.57 2.69-13.89.64-1.09 1.35-2.22 1.64-3.42.27-1.14.12-2.42 0-3.62-.13-1.25-.7-2.49-.63-3.71.31-5.03.14-10.11 2.8-14.79 1.1-1.93 1.39-4.45 1.59-6.74.65-7.37 2.32-14.25 8.28-19.26-3.55-5.03-1.06-9.7.42-14.4.25-.78.85-1.46 1.07-2.24.94-3.29 1.72-6.64 2.73-9.91.72-2.35 2.29-4.33 1.37-7.24-.33-1.03 1.87-2.86 2.92-4.33.3.19.59.38.89.56-.14-.8-.21-1.62-.43-2.4-1.34-4.75-1.07-8.74 4.3-10.98 1.73-.72 1.9-2.41.55-3.97-.62-.71-1.18-1.49-1.74-2.21 2.27-3.06 2.08-3.39-2.96-5.44 4.66-7.31 10.34-10.08 19.8-9.52.05.67-.09 1.46.19 2.05.41.86 1.13 1.58 1.71 2.36.7-.61 1.4-1.21 2.08-1.84.76-.7 1.42-1.9 2.26-2.04 5.32-.86 10.68-1.48 15.99-2.17.69 2.55 1.32 4.89 1.95 7.23.32.22.64.44.96.66 3.42-8.56 8.52-12.94 17.62-7.95.3-3.6 2.58-4.61 5.89-4.02 2.37.42 4.72.99 7.1 1.32 1.54.21 3.13.14 4.7.1 11-.24 22.01-.59 33.01-.68 2.01-.02 4.11.63 4.86 3.29.26.94 1.83 1.52 3.1 2.48 1.71-4.59 5.44-4.4 8.4-4.65.26 2 .5 3.8.84 6.34 3.25-2.07 5.64-3.58 8.28-5.26-.7-.77-1.27-1.4-1.93-2.13.41-.13.68-.24.95-.3 14-3.21 28.05-1.11 42.1-.45 11.75.55 23.51.83 35.26 1.2.82.03 1.82.04 2.45-.37 3.48-2.25 6.39-1.21 9.66.78 2.11 1.28 5.2 2.41 7.38 1.84 9.91-2.63 19.49-.28 28.82 1.95 8.02 1.92 15.57 5.84 23.31 8.91 2.63 1.04 5.21 1.92 7.82-.74 1.29 2.43 4.02 3.96 2.64 7.28 3.27 2.21 3.4 4.08.21 6.82-1.92 1.64-3.91 3.21-6.02 4.94-.79-.84-1.47-1.56-1.61-1.7-1.38 1.52-2.62 2.91-3.89 4.28-.5.53-1.2.92-1.57 1.52-3.7 6.01-9.49 9.46-15.28 13.08-9.06 5.67-18.13 11.38-26.69 17.76-10.46 7.79-22.71 11.72-34.23 17.24-.58.28-1.49-.16-2.25-.23-1.39-.12-2.78-.22-4.17-.32-.08.33-.15.66-.23 1 .7.63 1.4 1.25 2.28 2.04-1.64.56-2.99 1.18-4.4 1.48-10.93 2.3-19.64 8.7-28.25 15.26-.72.55-1.23 1.67-1.41 2.61-.73 3.85-1.01 7.81-1.98 11.58-1.66 6.42-3.51 12.82-5.77 19.06-.62 1.7-2.95 2.78-3.87 3.6-.57 1.84-.61 3.42-1.41 4.33-3.28 3.73-6.72 7.33-10.26 10.82-2.18 2.14-4.53 4.17-7.05 5.89-1.29.88-3.11.96-5.2 1.55v3.3c-.36.24-.54.47-.71.46-7.17-.61-13.84.76-19.89 4.84-.84.56-1.99.66-3.01.95-4.09 1.16-7.56.89-10.13-3.24-1.49-2.4-3.72-4.34-5.62-6.48-1.62-1.83-2.81-3.62-3.43-6.27-.75-3.19-3.11-6.06-4.99-8.92-1.5-2.28-3.32-4.34-5.03-6.47-.3-.38-.86-.95-1.15-.87-3.22.86-7.08 1-9.46 2.94-4.56 3.72-9.44 6.49-14.96 8.09-7.32 2.12-14.72 3.97-22.14 5.69-1.3.28-2.9-.62-4.86-1.07zm-13.53-130.91c-2.18 6.96-4.57 13.5-6.22 20.23-1.14 4.64-1.89 9.3-4.51 13.43-.59.93-.6 2.21-.88 3.34-1.49 6.01.51 12.88-4.46 18.05-.29.3-.06 1.06-.26 1.52-.44 1.02-.76 2.28-1.55 2.92-2.37 1.93-2.52 2.72-.75 4.48-.68 2.71-.98 5.27-1.98 7.52-.95 2.13-2.63 3.93-3.95 5.81 2.85.31 3.09 2.3 2.18 5.07-.59 1.8-.83 3.71-1.21 5.58-1.03 5.04-1.03 5.04-5.85 5.37-.17.01-.32.21-.74.51.31 2.28 7.09 2.66 2.2 6.37 2.05 3.05.47 13.17-2.35 16.25 2.41 3.12.9 10.65-3.42 16.39 2.54 1.86 3.71 5.31 7.23 6.58.26-1.72.43-2.89.64-4.3 1.47.6 2.61 1.06 3.78 1.54 4.53-5.03 9.88-6.89 16.73-3.92-.69-1.79-1.05-2.73-1.36-3.55 2.44-2.38 3.05-.06 3.86 1.46 2.79-3.95 6.16-6.24 11.1-6.44-.53 2.04-.92 3.58-1.45 5.61 1.78-.22 2.96-.37 4.42-.55-.14-2.19-.26-4.04-.4-6.27 2.66-.34 5.31-3.59 8.85-.93.36-.6.65-1.08.99-1.63.94.73 1.75 1.35 3.04 2.35.16-1.64.28-2.78.36-3.59 2.06-1.31 3.77-2.78 5.75-3.56 4.03-1.6 8.19-2.85 12.32-4.19.77-.25 1.62-.26 2.44-.33 1.07-.08 2.37.27 3.17-.22 4.5-2.78 8.84-5.83 13.33-8.64 1.72-1.08 2.47-2.32 2.44-4.37-.09-7.31.17-14.64-.13-21.94-.15-3.7 2.32-6.89 1.17-10.88-.55-1.93 1.15-4.55 1.94-6.82.65-1.89 1.46-3.73 2.33-5.96-3.58-4.84 2.82-5.02 4.71-7.44-2.44-2.79-2.77-5.69-1.2-9 2.25-4.74 3.62-9.98 8.8-12.98-2.82-2.69-1.98-5.07-.58-7.5.58-1 .95-2.12 1.44-3.18 1.54-3.35 2.18-3.55 5.28-1.63 3.35-3.1 3.2-4.62-.74-6.28.92-3.13 1.29-6.6 4.89-7.29-.74-3.65-1.43-7.08-2.16-10.7-4.15 1.28-7.56 2.79-11.1 3.31-3.72.54-7.58.12-11.43.12.88-5.12.88-5.12-1.75-5.34-.63 1.4-.83 2.9-1.67 3.5-3.65 2.61-7.94 2.86-12.29 3.07-3.02.15-6.01.97-9.11 1.51-.5-.65-1.14-1.47-1.88-2.43-1.17 1.05-2.21 1.99-3.38 3.05-.82-1.35-1.47-2.43-2.14-3.51-.65-1.05-1.31-2.1-1.97-3.15-.16.28-.31.56-.47.84-1.41-.31-2.9-.41-4.21-.96-2.57-1.09-3.51-.99-4.88 1.12.98.55 1.95 1.09 2.87 1.6-.62 2.73-2.24 3.47-4.71 3.29-2.64-.19-5.3-.13-7.95-.01-1.8.08-2.81-.35-3.5-2.27-1.51-4.2-5.18-4.86-8.21-1.72-.59.61-1.18 1.22-1.77 1.83-3.54 3.7-3.38 6.76.31 9.86zm127.83-11.5c.08-.1-.37 1.01-.89 1.05-3.56.24-7.32.96-10.65.1-2.33-.6-4.09-.72-6.15.17-1.46.63-2.92 1.28-4.45 1.7-2.25.62-3.38 1.95-4.15 4.21-4.69 13.71-9.57 27.34-14.34 41.02-.3.85-.32 1.9-.15 2.8.49 2.58.11 4.62-2.96 5.48.46.73.81 1.28 1.2 1.9-.39.34-.65.71-1.01.87-3.09 1.44-3.5 3.77-3.07 6.97.37 2.76-.28 5.65-.43 7.77-2.73 0-4.54 0-7.22 0 2.04 1.89 3.27 3.02 4.51 4.17-.51 1.01-.83 1.93-1.38 2.68-1.92 2.6-1.84 5.23-1.15 8.35.71 3.22.73 6.76.26 10.04-.62 4.29.43 7.74 3.38 10.72.71.72 1.62 1.24 2.66 2.02-1.62.9-2.62 1.45-3.51 1.95.66 9.41 1.22 18.55 7.35 26.29 1.84 2.32 3.15 4.59 6.48 4.68.84.02 1.65.92 2.59 1.49 3.4-6.68 10.4-2.87 15.35-5.22.2-.09.55.13.29.06 3.35-3.13 6.34-6.13 9.58-8.83 1.05-.88 2.76-.97 4.1-1.4 8.37-11.89 15.73-24.69 19.21-39.53-2.1-2.53-1.35-16.36 1.42-22.99-.59-1.12-1.7-2.26-1.49-3.01.96-3.34 1.38-6.58 1.3-10.12-.06-2.61 1.02-5.12-1.19-7.36-.29-.29-.04-1.16.05-1.75.31-2.17 1.02-4.35.92-6.5-.56-11.43-1.28-22.85-2.06-34.26-.26-3.72-2.34-5.04-6.01-4.85-2.52.11-5.06-.38-8.39-.67zm24.64 15.86c3.44 1.24 3.64 4.83 3.79 8.36.22 5.29.44 10.59.41 15.89-.03 4.68.67 9.84-6.21 11.71 5.17 3.44 6.26 7.7 6.02 13.02-.12 2.68 2.04 5.47 3.07 7.98 1.9-1.06 2.97-1.9 4.19-2.3 6.17-2.01 12.72-2.38 18.65-5.66 8.96-4.95 18.35-9.11 27.54-13.66 3.09-1.53 6.12-3.2 9.12-4.77.17-.46.22-1.46.72-1.81 5.69-3.96 10.53-9.28 17.63-11.02 1.14-.28 2.16-1.22 3.13-1.99 3.78-3.04 7.4-6.3 11.31-9.18 3.49-2.57 7.31-4.68 10.88-7.16.69-.48 1.13-1.69 1.18-2.59.02-.44-1.04-1.17-1.74-1.38-11.72-3.63-23.53-6.9-35.71-8.57-1.36-.19-2.75-.22-4.12-.18-6.03.16-12.07.41-18.1.54-.89.02-1.81-.32-2.68-.58-1.34-.39-2.66-1.25-3.98-1.24-8.47.07-16.96.72-25.41.38-5.32-.21-10.58-1.82-16.52-2.91 2.28-2.1 3.82-3.52 5.79-5.34-1.41-.9-2.75-2.39-3.65-2.16-1.08.28-2.22 1.91-2.54 3.16-.54 2.1-.45 4.35-.71 7.61-.95 1.38-3.23 3.38-2.15 6.93.56 1.88.09 4.07.09 6.92zm-132.74-15.37c.27-.25.54-.49.81-.74-1.16-1.46-2.32-2.93-3.59-4.52.3-.56.84-1.56 1.77-3.28-5.42 2.73-7.17 5.6-5.54 8.94 1.03-.91 1.96-1.72 3.47-3.05.71.6 1.9 1.63 3.08 2.65zm52.51 63.19c-.87 2.32-1.68 4.48-2.5 6.68 3.16.74 4.02-1.96 5.58-4-1.11-.97-2.11-1.84-3.08-2.68zm91.93 17.6c1.08-1.32 2.22-2.53 2.12-2.64-1.36-1.55-2.88-2.94-4.8-4.79-.82 1.97-1.25 3.02-1.85 4.47 1.76-.39 2.91-.64 4.21-.92.08 1.11.16 1.93.32 3.88zm-124.47-86.78c-.86.76-1.61 1.43-2.29 2.03 2.03 1.5 3.89 2.88 6.57 4.86-.75-2.16-1.23-3.55-1.83-5.28-.47-.3-1.3-.86-2.45-1.61zm93.95-4.56c-.76 1.4-1.46 2.67-2.39 4.39.2.59.61 1.83 1.06 3.21 2.9-2.42 3.25-5.84 1.33-7.6zm21.13 75.99c-2.17-1.15-5.31.8-7.16 3.99.16.25.33.5.49.75 2.16-1.54 4.32-3.08 6.67-4.74zm-176.48 87.19c.33.23.66.47.98.7 1.37-.89 2.74-1.78 4.33-2.81-.64-1.07-1.19-1.98-1.98-3.29-1.28 2.08-2.31 3.74-3.33 5.4zm267.79-124.19c-.34.14-.69.28-1.03.42.28 1.36.55 2.73.73 3.59 2.1-.39 3.41-.63 5.26-.98-1.86-1.14-3.41-2.09-4.96-3.03zm-55.9-32.22c1.37-.75 2.44-1.05 3.04-1.76.38-.45.34-1.97-.01-2.18-.82-.49-1.94-.49-3.03-.71zm-217.8 74.5c-.27.29-.54.58-.82.88 1.07 1.2 2.05 2.5 3.29 3.49.24.19 1.46-.84 2.72-1.6-2.13-1.14-3.66-1.96-5.19-2.77zm117.6 87.25c.28-.21.55-.43.83-.64-.56-.8-1.13-1.6-1.26-1.79.62-1.61 1.1-2.86 1.58-4.11-.44-.18-.88-.36-1.32-.54-.62 1.41-1.62 2.79-1.73 4.24-.06.9 1.23 1.9 1.9 2.84zm-132.2-6.85c-.35-.04-.7-.07-1.05-.11-.18 1.79-.36 3.57-.59 5.83 4.66-1.75 1.76-3.89 1.64-5.72zm112.73-152.62h4.18c-1.09-1.92-1.84-3.24-2.59-4.56-.3.14-.6.28-.89.43-.23 1.33-.45 2.65-.7 4.13zm-97.38 155.13c.91 3.63.91 3.63 3.58 3.13.48-2.73-1.15-3.17-3.58-3.13z"/><path d="m105.9 125.46c2.07 1.28 3.28 2.03 5.03 3.12-1.92.68-3.24 1.15-5.03 1.78 0-1.67 0-2.97 0-4.9z"/></g></svg>