<svg enable-background="new 0 0 400 400" viewBox="0 0 400 400" xmlns="http://www.w3.org/2000/svg"><path d="m385.2 377.6.6-.7c.6.4 1.3.9 1.9 1.5l-.6.7c-.8-.5-1.4-1-1.9-1.5zm.3 7.1c.6-1.4 1.1-2.9 1.5-4.5.3.1.6.3.9.4-.5 1.4-1 2.9-1.5 4.4zm.2-10.1.6-.6c.7.5 1.3 1.1 1.9 1.6l-.7.7c-.6-.6-1.2-1.2-1.8-1.7zm8.4-.8h.8v.9h1.8v.7h-1.8v1.8h-.8v-.3h-1.2v.9h3.3v2.6h-.8v-.4h-2.5c0 .3 0 .6-.1.8h3.4v.7h-3.5c0 .3-.1.6-.1.8h4v.7h-3.5c.7.9 1.9 1.3 3.6 1.5-.2.2-.4.5-.6.9-1.9-.3-3.2-1.1-3.8-2.3-.5 1.1-1.8 2-3.9 2.4-.2-.3-.4-.5-.6-.8 1.9-.4 3.1-.9 3.6-1.7h-3.2v-.7h3.5c.1-.2.1-.5.2-.8h-3.3v-.7h3.4c0-.2 0-.5 0-.8h-2.4v.3h-.8v-2.6h3.3v-.9h-1.2v.3h-.8v-1.8h-1.8v-.7h1.8v-.9h.8v.9h3.2zm-4.4 5.5h2.4c0-.3 0-.6 0-.9h-2.4zm1.2-3.1h3.2v-.8h-3.2zm4.4 2.2h-2.4v.9h2.5v-.9z" fill="#fcfafa"/><path d="m389.2 385.8h.9v1.5h1.9v-1.5h.9v1.5h2.7v6h1.1v.9h-11.3v-.9h1.1v-6h2.7zm.2 8.7.5.8c-1.2.6-2.5 1.3-4 1.9-.2-.3-.3-.6-.6-.8 1.6-.6 3-1.3 4.1-1.9zm-2-4.3h1.9v-2.1h-1.9zm0 3.1h1.9v-2.2h-1.9zm2.7-3.1h1.9v-2.1h-1.9zm0 3.1h1.9v-2.2h-1.9zm2.4 1.3c1.4.6 2.7 1.2 4.1 1.8l-.5.9c-1.5-.7-2.8-1.4-4.1-1.9zm2.2-6.5h-1.9v2.1h1.9zm-1.9 5.2h1.9v-2.2h-1.9z" fill="#fcfafa"/><path d="m178.45 35.42c7.01 2.59 11.64 7 13.07 14.45.47 2.46 1.33 4.92 2.44 7.17 2.52 5.12 5.86 8.5 12.39 9.14 11.45 1.13 22.93 2.93 34.12 5.6 12.39 2.95 23 9.64 31.68 19.08 7.23 7.87 9.42 17.3 8.2 27.71-.07.63-.27 1.25-.33 1.88-1.22 11.93-6.71 15.55-17.87 18.82-6.7 1.96-16.67.87-23.28-1.81.62-3.47 1.12-7.01 1.96-10.48.3-1.22 1.3-2.37 2.2-3.33 4.03-4.29 7.75-8.7 8.59-14.86.87-6.36-.25-8.75-5.89-11.69-11.92-6.21-24.58-9.64-38.02-10.31-2.28-.11-3.53.56-3.61 2.77-.32 9.5-1.02 19.03-.71 28.51.53 16.51 1.65 33.01 2.68 49.5.09 1.45.92 3.22 1.99 4.18 6.21 5.56 13.74 8.32 21.9 9.25 24.41 2.77 41.54 16.47 54.12 36.5 6.47 10.29 5.67 21.2-.09 31.75-.52.95-1.52 1.72-2.46 2.35-11.19 7.52-23.87 10.45-37.03 10.81-15.21.42-30.16 2.49-45.05 5.31-1.09.21-2.43 1.55-2.83 2.66-4.35 12.16-7.83 24.68-12.95 36.49-5.67 13.09-12.74 25.57-19.29 38.26-2.9 5.63-5.74 11.33-9.14 16.66-3.4 5.32-11.25 7.41-17.01 5-.88-.37-1.59-1.61-1.97-2.61-2.66-7.07-1.29-13.75 2.22-20.16 3.25-5.94 7.24-11.59 9.68-17.85 5.3-13.6 9.56-27.6 14.73-41.25 9.04-23.91 12.13-49.05 15.92-74.05 2.04-13.45 3.18-26.98 2.47-40.57-.48-9.09-1.9-18.13-2.4-27.22-.54-9.83-.37-19.69-.79-29.53-.3-6.97-1.13-13.92-1.59-20.88-.14-2.06-1.22-3.08-2.96-3.55-1.72-.46-3.55-1.15-5.26-.98-7.66.76-15.02 2.13-19.99 9.14-4.72 6.65-9.96 12.97-12.19 21.03-1.38 4.99-.92 9.93 1.38 14.54.8 1.61 2.17 3.11 3.63 4.18 7.14 5.21 11.67 11.84 12.31 20.88.14 1.93-.47 3.31-2.22 3.55-2.83.39-5.89.99-8.56.32-4.48-1.13-8.74-3.16-13.07-4.86-.76-.3-1.54-.75-2.08-1.34-9.29-10.15-15.97-21.7-17.62-35.55-.51-4.31.46-8.81.86-13.22.07-.78.51-1.66 1.04-2.24 7.04-7.64 13.98-15.38 21.26-22.79 8.26-8.41 18.54-14.04 28.7-19.78 2.67-1.51 5.31-3.09 7.96-4.64 4.39-2.56 6.05-5.45 5.06-10.4-.89-4.56.8-8.01 3.7-11.54zm25.64 188.74c.5 10.86.84 14.02 9.91 15.53.31.05.61.18.91.27 15.16 4.47 29.45 3.15 42.69-6.11 2.26-1.58 3.49-3.12 3.71-5.98.86-11.08-3.85-17.77-14.75-19.62-10.84-1.84-21.75-3.29-32.64-4.87-2.47-.36-6.52 2.28-7.01 4.79-1.17 6-2.14 12.05-2.82 15.99z" fill="#010100"/></svg>