<svg enable-background="new 0 0 400 400" viewBox="0 0 400 400" xmlns="http://www.w3.org/2000/svg"><path d="m193.18 330.16c-7.25 5.81-11.47 13.63-16.63 20.73-2.7 3.71-6 6.97-9.03 10.44-.34-.24-.68-.47-1.02-.71 1.67-3.1 3.35-6.21 5.02-9.31 1.75-3.24 3.72-6.38 5.21-9.74 2.8-6.27 4.89-12.88 8.11-18.91 2.28-4.27 1.31-7.75-1.09-10.81-14.45-18.49-18.16-39.55-14.76-62.1 1.54-10.18 5.98-19.54 11.56-28.23 3.5-5.44 4.79-11.48 5.24-17.78.68-9.6.79-19.27 2.03-28.8 2.63-20.22.52-40.45.96-60.66.13-5.71.87-11.4 1.09-17.11.17-4.43.05-8.87-.15-13.3-.04-.93-.92-2.51-1.54-2.57-.98-.1-2.35.57-3.04 1.37-10.18 11.73-19.11 24.34-25.73 38.44-1.91 4.08-4.47 7.27-8.23 9.73-3.34 2.18-6.44 4.7-10 7.34-.71-4.12.76-7.27 2.4-10.27 7.05-12.91 14.41-25.65 21.24-38.68 5.54-10.56 12.44-19.94 21.89-27.23 4.5-3.47 5.18-7.99 4.69-13.01-.55-5.62.26-8.74 4.03-13.67 2.18 1.26 3.31 2.71 2.69 5.59-.42 1.96.21 4.14.41 6.22.04.41.32.79.42 1.19 3.61 15.4 12.17 27.65 22.92 39.09 8.43 8.98 15.1 19.6 22.67 29.4 3.92 5.07 7.57 10.32 9.09 16.59.83 3.43.72 7.1.85 10.67.02.67-.79 1.82-1.37 1.92-.65.11-1.91-.54-2.13-1.15-2.4-6.51-7.21-11.07-12.08-15.67-1.88-1.78-3.13-4.24-4.58-6.45-3.09-4.69-6.23-9.35-9.14-14.15-2.62-4.31-5.84-7.84-9.97-10.86-2.61-1.91-4.11-5.27-6.25-7.87-2.02-2.46-4.23-4.77-6.35-7.15-.34.18-.67.37-1.01.55-.38 5.03-.76 10.05-1.14 15.08-.07.95.2 2.14-.27 2.81-2.29 3.28-.66 6.18.48 9.23.58 1.54.94 3.27.95 4.91.06 24.49.17 48.97-.08 73.46-.05 4.69-1.67 9.35-2.45 14.04-.16.94.01 2.03.33 2.94 1.01 2.86 2.21 5.65 3.25 8.5 1.41 3.85 2.4 7.89 4.16 11.57 4.63 9.67 9.44 19.3 10.95 30.01 1.76 12.48-.57 24.32-6.26 35.67-3.78 7.53-6.7 15.5-9.94 23.3-.97 2.34-.45 4.29 1.31 6.34 8.64 10.05 16.99 20.34 25.69 30.34 3.48 4 2.78 8.92 3.96 13.43.08.31-.42.99-.8 1.15-.37.15-.94-.12-1.39-.28-.16-.06-.28-.31-.38-.5-4.4-9.01-13.25-13.08-20.68-18.74-2.12-1.62-4-3.71-5.53-5.91-2.88-4.17-5.37-8.67-10.58-10.43zm-2.24-28.14c3.85-4.16 5.94-8.82 7.57-13.8 1.31-4 2.33-8.37 4.72-11.69 4.39-6.1 3.15-12.69 2.25-18.92-.99-6.82-3.75-13.39-5.74-20.07-.88-2.96-2.72-5-5.74-5.82-.63-.17-1.74-.23-1.99.12-1.9 2.63-3.99 5.22-5.35 8.14-1.63 3.49-2.35 7.4-3.94 10.91-1.55 3.41-2.94 6.67-2.75 10.58.1 1.97-1.01 3.99-1.42 6.01-.3 1.47-.76 3.07-.46 4.47 1.06 4.97 2.79 9.81 3.55 14.81 1 6.52 5.79 10.32 9.3 15.26z" fill="#010000"/><g fill="#fafafb"><path d="m361.2 9.6.8-1c.9.7 1.9 1.4 2.9 2.3l-.9 1.1c-1-1-2-1.8-2.8-2.4zm.5 10.6c.9-2.1 1.6-4.3 2.3-6.7.4.2.8.4 1.3.6-.7 2.1-1.5 4.3-2.2 6.6zm.4-15.2.9-.9c1 .8 2 1.6 2.8 2.4l-1 1c-.9-.9-1.8-1.7-2.7-2.5zm12.5-1.2h1.2v1.4h2.7v1.1h-2.7v2.7h-1.2v-.6h-1.8v1.3h4.9v3.8h-1.2v-.5h-3.7c0 .4-.1.9-.1 1.2h5.1v1h-5.2c0 .5-.1.9-.2 1.2h6v1h-5.2c1.1 1.3 2.9 2 5.5 2.2-.4.4-.7.8-.9 1.3-2.9-.5-4.8-1.6-5.7-3.5h-.1c-.8 1.7-2.7 2.9-5.9 3.6-.2-.4-.6-.8-.9-1.1 2.8-.6 4.6-1.4 5.4-2.5h-4.8v-1h5.3c.1-.3.2-.7.2-1.2h-4.9v-1h5c0-.4 0-.8.1-1.2h-3.5v.5h-1.2v-3.8h4.9v-1.3h-1.8v.5h-1.2v-2.7h-2.7v-1h2.6v-1.4h1.2v1.4h4.7v-1.4zm-6.6 8.3h3.6c0-.4 0-.9 0-1.4h-3.6zm1.9-4.6h4.7v-1.3h-4.7zm6.6 3.2h-3.7v1.4h3.7z"/><path d="m385.3 3.8h1.3v2.2h2.8v-2.2h1.3v2.2h4.1v9.1h1.7v1.3h-16.9v-1.3h1.7v-9.1h4.1v-2.2zm.4 13.1.7 1.2c-1.8.9-3.8 1.9-6 2.9-.2-.4-.5-.8-.8-1.3 2.3-1 4.3-1.9 6.1-2.8zm-3.1-6.4h2.8v-3.2h-2.8zm0 4.6h2.8v-3.3h-2.8zm4-4.6h2.8v-3.2h-2.8zm0 4.6h2.8v-3.3h-2.8zm3.7 1.9c2.1.9 4.1 1.8 6.1 2.7l-.7 1.3c-2.2-1.1-4.2-2-6.1-2.9zm3.2-9.7h-2.8v3.2h2.8zm-2.8 7.8h2.8v-3.3h-2.8z"/></g></svg>