<svg enable-background="new 0 0 400 400" viewBox="0 0 400 400" xmlns="http://www.w3.org/2000/svg"><path d="m100.58 48.91c6.08-4.55 12.02-8.98 18.39-13.74 2.93 3.07 5.77 6.2 8.81 9.12.97.94 2.44 1.7 3.77 1.87 19.99 2.56 39.74 6.31 59.17 11.66 2.7.74 4.88 3.22 7.46 4.59 1.45.77 3.29 1.39 4.86 1.23 4.31-.45 8.57-1.86 12.86-1.92 4.14-.06 8.43.66 12.44 1.79 20 5.68 38.72 13.98 55.75 26.22 9.11 6.55 13.52 14.59 12.54 25.58-1.02 11.4-2.3 22.77-3.38 34.16-.85 8.97-1.66 17.94-2.36 26.91-1.89 24.2-3.74 48.41-5.52 72.62-.12 1.59.23 3.38.89 4.84 2.45 5.38 5.12 10.66 7.68 15.92-2.28 2.56-4.64 4.86-6.61 7.47-5.41 7.18-7.5 15.3-6.37 24.25 1.41 11.18.98 22.22-2.77 32.97-.4 1.16-.92 2.58-1.83 3.21-3.51 2.42-3.74 5.57-2.45 9.14.9 2.49.06 4.05-1.94 5.66-5.68 4.56-11.18 9.35-17.41 14.62-.29-1.92-1.04-3.48-.56-4.28 3.63-6.01 2.94-12.4 2.07-18.85-.7-5.14-1.99-10.28-2.04-15.43-.1-9.61.18-19.26.91-28.85 1.16-15.1 3.55-30.14 1.59-45.35-.39-3.05-.84-6.09-1.42-9.1-.17-.86-.76-1.74-1.39-2.39-21.81-22.61-37.33-49.43-51.94-76.93-3.24-6.1-7.88-11.51-12.26-16.94-3.98-4.93-6.98-10.19-9.04-16.21-4.34-12.72-9.02-25.34-13.83-37.89-.97-2.52-2.78-4.99-4.83-6.78-6.88-6.01-15.13-9.55-24.09-10.65-16.31-2-27.28-11.09-35.13-24.82-.6-1.11-1.21-2.23-2.02-3.7zm155.66 145.42c.83-1.39 1.46-2.36 2-3.36 4.6-8.53 5.62-17.65 4.43-27.13-.99-7.87.91-15.08 4.76-21.94 1.63-2.91 2.95-6.04 4.03-9.19 1.34-3.9 2.03-8.02 3.47-11.87 1.17-3.12.1-4.55-2.59-5.87-15.58-7.64-31.18-15.25-46.63-23.15-7.38-3.77-15.01-5.86-23.22-4.73-6.83.94-9.57 2.28-8.37 8.81.53 2.88 1.71 5.96 3.51 8.23 4.44 5.61 8.21 11.51 11.03 18.09 2.83 6.61 6.08 13.05 8.9 19.66 2.43 5.69 5.61 10.83 9.51 15.65 9.74 12.02 19.23 24.23 29.17 36.8z" fill="#010000"/><g fill="#fafafb"><path d="m361.2 9.6.8-1c.9.7 1.9 1.4 2.9 2.3l-.9 1.1c-1-1-2-1.8-2.8-2.4zm.5 10.6c.9-2.1 1.6-4.3 2.3-6.7.4.2.8.4 1.3.6-.7 2.1-1.5 4.3-2.2 6.6zm.4-15.2.9-.9c1 .8 2 1.6 2.8 2.4l-1 1c-.9-.9-1.8-1.7-2.7-2.5zm12.5-1.2h1.2v1.4h2.7v1.1h-2.7v2.7h-1.2v-.6h-1.8v1.3h4.9v3.8h-1.2v-.5h-3.7c0 .4-.1.9-.1 1.2h5.1v1h-5.2c0 .5-.1.9-.2 1.2h6v1h-5.2c1.1 1.3 2.9 2 5.5 2.2-.4.4-.7.8-.9 1.3-2.9-.5-4.8-1.6-5.7-3.5h-.1c-.8 1.7-2.7 2.9-5.9 3.6-.2-.4-.6-.8-.9-1.1 2.8-.6 4.6-1.4 5.4-2.5h-4.8v-1h5.3c.1-.3.2-.7.2-1.2h-4.9v-1h5c0-.4 0-.8.1-1.2h-3.5v.5h-1.2v-3.8h4.9v-1.3h-1.8v.5h-1.2v-2.7h-2.7v-1h2.6v-1.4h1.2v1.4h4.7v-1.4zm-6.6 8.3h3.6c0-.4 0-.9 0-1.4h-3.6zm1.9-4.6h4.7v-1.3h-4.7zm6.6 3.2h-3.7v1.4h3.7z"/><path d="m385.3 3.8h1.3v2.2h2.8v-2.2h1.3v2.2h4.1v9.1h1.7v1.3h-16.9v-1.3h1.7v-9.1h4.1v-2.2zm.4 13.1.7 1.2c-1.8.9-3.8 1.9-6 2.9-.2-.4-.5-.8-.8-1.3 2.3-1 4.3-1.9 6.1-2.8zm-3.1-6.4h2.8v-3.2h-2.8zm0 4.6h2.8v-3.3h-2.8zm4-4.6h2.8v-3.2h-2.8zm0 4.6h2.8v-3.3h-2.8zm3.7 1.9c2.1.9 4.1 1.8 6.1 2.7l-.7 1.3c-2.2-1.1-4.2-2-6.1-2.9zm3.2-9.7h-2.8v3.2h2.8zm-2.8 7.8h2.8v-3.3h-2.8z"/></g></svg>