<svg enable-background="new 0 0 400 400" viewBox="0 0 400 400" xmlns="http://www.w3.org/2000/svg"><path d="m378.6 9.2.8-1c.9.7 1.9 1.4 2.9 2.3l-.9 1.1c-1.1-.9-2-1.7-2.8-2.4zm.5 10.7c.9-2.1 1.6-4.3 2.3-6.7.4.2.8.4 1.3.6-.7 2.1-1.5 4.3-2.2 6.6zm.4-15.2.9-.9c1 .8 2 1.6 2.8 2.4l-1 1c-1-.9-1.9-1.8-2.7-2.5zm12.5-1.3h1.2v1.4h2.7v1.1h-2.7v2.7h-1.2v-.5h-1.8v1.3h4.9v3.8h-1.2v-.5h-3.7c0 .4-.1.9-.1 1.2h5.1v1h-5.2c0 .5-.1.9-.2 1.2h6v1h-5.2c1.1 1.3 2.9 2 5.5 2.2-.4.4-.7.8-.9 1.3-2.9-.5-4.8-1.6-5.7-3.5h-.1c-.8 1.7-2.7 2.9-5.9 3.6-.2-.4-.6-.8-.9-1.1 2.8-.6 4.6-1.4 5.4-2.5h-4.8v-1h5.3c.1-.3.2-.7.2-1.2h-4.9v-1h5c0-.4 0-.8.1-1.2h-3.6v.5h-1.2v-3.8h4.9v-1.3h-1.8v.5h-1.2v-2.7h-2.6v-1.1h2.6v-1.4h1.2v1.4h4.7v-1.4zm-6.7 8.4h3.6c0-.4 0-.9 0-1.4h-3.6zm1.9-4.7h4.7v-1.2h-4.7zm6.7 3.3h-3.7v1.4h3.7z" fill="#fafbfc"/><path d="m384.7 21.4h1.3v2.2h2.8v-2.2h1.3v2.2h4.1v9.1h1.7v1.3h-16.9v-1.3h1.7v-9.1h4.1v-2.2zm.3 13.2.7 1.2c-1.8.9-3.8 1.9-6 2.9-.2-.4-.5-.8-.8-1.3 2.4-1 4.4-2 6.1-2.8zm-3.1-6.5h2.8v-3.2h-2.8zm0 4.6h2.8v-3.3h-2.8zm4.1-4.6h2.8v-3.2h-2.8zm0 4.6h2.8v-3.3h-2.8zm3.6 1.9c2.1.9 4.1 1.8 6.1 2.7l-.7 1.3c-2.2-1.1-4.2-2-6.1-2.9zm3.3-9.7h-2.8v3.2h2.8zm-2.8 7.8h2.8v-3.3h-2.8z" fill="#fafbfc"/><path d="m219.23 359.65c-16.2-1.49-32.14 1.05-48.12 3.13-7.98 1.04-15.97 2.1-23.97 2.97-.98.11-2.31-.6-3.09-1.35-1.83-1.75-3.32-3.85-5.13-5.63-1.87-1.83-3.98-2.82-6.88-2.32-3.62.62-7.33-2.06-8.54-5.56-.38-1.1-.82-2.18-1.14-3.3-3.29-11.46-8.16-22.03-15.16-31.86-5.88-8.26-10.28-17.55-11.98-27.79-1.28-7.67-.68-15.22 1.87-22.56.41-1.18 1.45-2.29 2.48-3.07 9.19-7 19.86-10.68 30.8-13.85 5.88-1.71 11.66-3.8 17.36-6.04 11.57-4.55 14.58-13.84 13.98-23.89-.43-7.25-1.83-14.51-3.59-21.57-1.33-5.36-1.58-10.62-1.38-16.03.4-11.23.75-22.46 1-33.7.04-1.85-.31-3.8-.93-5.55-2.89-8.07-5.63-16.22-9.02-24.08-3.7-8.59-4-17.18-1.81-26.09 1.7-6.91 1.85-13.87-.24-20.72-.4-1.31-1.53-2.77-2.72-3.41-3.72-2.01-7.59-3.75-11.48-5.43-3.48-1.5-5.1-4.1-4.83-7.75.17-2.3.59-4.64 1.32-6.83.33-.99 1.55-1.94 2.6-2.41 7.8-3.49 15.91-4.04 24.25-2.36 4.15.83 8.34 1.48 12.54 2.08 3.74.53 7.27.02 10.82-1.58 10.06-4.55 20.95-5.92 31.69-7.74 11.23-1.9 22.43-.31 33.57.92 8.93.99 17.89 2.28 26.64 4.3 4.93 1.14 9.73 3.57 14.1 6.22 4.77 2.9 7.05 7.72 7.27 13.42.07 1.86-.45 2.8-2.36 3.4-8.29 2.56-16.55 5.24-24.75 8.08-1.4.49-2.73 1.8-3.6 3.07-1.43 2.08-2.6 4.38-3.64 6.69-3.66 8.13-8.49 15.29-15.87 20.6-1.01.73-1.75 2.64-1.68 3.95.79 13.97 1.78 27.93 2.67 41.89.07 1.02-.24 2.07-.39 3.11-.05.31-.13.63-.26.92-6.97 15.61-9.08 31.97-7.99 48.94.51 7.92 0 15.9.18 23.85.03 1.3.96 2.99 2.01 3.79 6.15 4.66 13.47 5.84 20.9 6.65 5.05.55 10.07 1.4 15.1 2.08 6.25.85 10.09 5.12 13.49 9.77 7.44 10.19 11.23 22 14.43 34.01 2.46 9.24 4.41 18.59 3.14 28.24-.15 1.15-.66 2.53-1.49 3.27-6.09 5.45-9.12 12.44-11.43 20.12-1.84 6.12-4.85 11.9-7.5 17.76-.39.86-1.62 1.73-2.57 1.89-15.35 2.51-30.69 5.07-46.1 7.21-4.76.7-9.71.14-14.57.14zm46.95-59.26c-.04 0-.08 0-.12-.01.11-1.9.43-3.82.29-5.71-.45-6.1-.98-12.19-1.67-18.27-.25-2.19-1.73-3.3-4.07-3.69-7.83-1.3-15.61-2.89-23.43-4.25-4.36-.76-8.98-2.48-13.1-1.71-17.79 3.33-35.74 4.08-53.74 4.6-12.98.38-25.34 3.09-36.79 9.6-4.19 2.38-5.83 5.34-5.7 10.15.31 11.94 5.56 22.01 11.36 31.92.42.73 1.69 1.15 2.64 1.35 11.51 2.37 23.09 4.44 34.53 7.07 8.05 1.85 15.95 2.67 24.15 1.11 14.22-2.71 28.56-3.17 42.99-1.88 6.77.6 13.32-.74 19.18-4.38.95-.59 1.88-1.98 1.97-3.06.62-7.61 1.03-15.23 1.51-22.84zm-89.95-229.3c0 .8-.07 1.44.01 2.05 1.52 12.08 2.61 24.23 4.69 36.2 2.74 15.73 5.75 31.47 15.13 45.08 1.81 2.62 3.32 6.18.12 8.99-4.74 4.16-6.02 9.78-7.2 15.49-2.3 11.12-.92 22.18.88 33.18 1.1 6.73 2.84 13.35 4.29 20.03.43.12.87.23 1.3.35 1.64-1.9 4.4-3.61 4.74-5.72 1.71-10.64 3.42-21.36 3.93-32.11.65-13.75.12-27.55.21-41.33.02-2.29.33-4.65.96-6.85 4.57-16.19 9.31-32.33 13.88-48.52 2.21-7.82 4.15-15.71 6.2-23.5-.49-.35-.72-.6-1-.69-8.91-3.03-17.82-6.06-26.76-9.02-.84-.28-1.92-.37-2.73-.09-6.21 2.07-12.38 4.27-18.65 6.46z" fill="#010104"/></svg>