<svg enable-background="new 0 0 400 400" viewBox="0 0 400 400" xmlns="http://www.w3.org/2000/svg"><path d="m141.6 133.2c1.7 8.3 3.3 16.7 5.3 25.1 3.2 13.3 3.4 26.8 2 40.2-4.5 42.8-16.7 83.5-35.3 122.2-6 12.5-13.2 24.5-20.5 36.3-3.6 5.8-9 10-16.1 11.3-1.3.2-2.6.3-4.1.4-.4-5.5-.8-10.3 3.6-15 5.6-6 10.5-12.9 14.4-20.2 12.3-23.2 24.1-46.7 31.4-72.1 7.8-27.2 13-54.8 12.2-83.3-.4-13.9-3.8-27-8.2-40.5-9.1 2.6-18.1 5.3-27.1 7.7-3.9 1-8 2-12 2.2-5.4.2-9-5.7-6.6-10.6.4-.9 1.8-1.4 2.9-1.8 11.2-3.8 22.4-7.5 33.6-11.2.9-.3 1.9-.6 3.1-1.1-1.3-6.6-2.1-13.3-3.9-19.8-7.4-27.1 1.1-51 14.5-73.9.5-.9 2.6-1.5 3.8-1.4 2.8.2 5.4 1.5 5.8 4.5.3 2.3 0 4.9-.8 7.1-2.9 7.2-7 14-8.1 22-2 15.7-3.4 31.4.4 47.1.5 1.9 1.2 3.8 2 5.6 1.6 3.7 3.9 5.2 7.6 3.7 19.3-7.8 39.9-10.3 59.8-15.9 1-.3 2.1-1.5 2.4-2.5 2.2-7.6 1.4-15.3.4-23-1.9-14.1-5.6-27.7-9.8-41.2-.8-2.5-.2-4.4 2.1-5s5.1-2.2 7 1c8.9 14.4 13.4 30.2 14.9 46.9.4 4.7.7 9.5.6 14.2 0 3.4 1.7 4.8 4.6 4.6 5.6-.5 11.2-1.1 16.6-2.4 8-2 16.1-2.6 24.3-2.1 4.1.2 8.2.5 12.2 1.4 14 3.1 21.6 12.7 21.7 28 .1 5.2-.7 10.6-2.1 15.7-7.2 27.5-11.8 55.5-15.8 83.6-2 14-1.6 28 1.4 41.9 3.4 16.1 6.6 32.2 10.6 48.2 3.4 13.5 9.5 25.9 18.6 36.6 1.8 2.2 3.5 4.6 5.2 6.9 3.1 4.4 5.1 9.3 5.4 14.7.2 3.7-2.6 5.9-6 4.4-2.5-1.2-5.1-2.7-6.9-4.8-16.4-18.5-27-40-33-63.8-9-35.7-12.1-72-6.2-108.5 3.1-19.1 8-37.8 11.3-56.9 1.4-7.7.8-15.8.8-23.8 0-1.3-1.6-2.8-2.8-3.8-6.9-6.2-15.2-7.1-24-5.8-11.6 1.8-23.1 3.7-34.6 5.8-1 .2-2.3 1.6-2.6 2.7-2.4 9.8-4.2 19.7-7 29.3-4.1 14-8.5 27.9-13.4 41.6-6.9 19.3-11.9 39.1-15.6 59.2-1.5 7.9-.7 15.9 1.9 23.5.6 1.8 2.3 3.5 4 4.6 7.2 4.9 17.6 4.8 24.6-.5 1.6-1.2 2.7-3.5 3.7-5.4 5.8-11.1 6.6-22.7 4.3-34.8-2.7-14.3-5.4-28.6-8-43-.4-2.2-.6-4.4-.4-6.6.2-3.2 3.4-6 6.6-5.7 1 .1 2.2 1 2.7 1.9 3 6.3 6.8 12.3 8.4 19 2.8 12 4.5 24.3 6.2 36.5 1.6 11.3-2.6 21.8-5.4 32.4-.2.7-.4 1.5-.6 2.2-1.2 5-2.6 9.6-7.3 12.8-5.6 3.8-11.1 7.2-18 7.7-7.8.6-15.1-1.2-22.3-3.9-1-.4-2-1.4-2.7-2.3-12.4-15.2-15.7-32.6-11.6-51.4 4.7-21.3 11.2-42 18.6-62.5 5.1-14.1 9.8-28.4 14.6-42.6.7-2.1 1.1-4.3 1-6.5 0-2.3-1.4-3.8-4-3.1-18.6 5.2-37.2 10.4-55.8 15.6-.2 0-.3.1-.5.4z" fill="#000001"/><g fill="#fafafb"><path d="m362.1 8.8c1.1.8 2.1 1.6 3.1 2.4l-1 1.1c-1.3-1.1-2.3-2-3-2.5zm1.9 4.8c.5.2.9.4 1.4.5-.6 2.3-1.3 4.5-1.9 6.8l-1.5-.5c.8-2.1 1.4-4.3 2-6.8zm-1-9.4c1.3.9 2.4 1.8 3.4 2.5l-1 1.1c-1.4-1.2-2.4-2.1-3.2-2.6zm3.7 2.2v-1.4h10.3v1.2c-.5 3.6-1.8 6.8-4 9.4 1.5 1.6 3.4 2.8 5.7 3.8-.3.4-.7.8-1.1 1.4-2.3-1.1-4.1-2.5-5.6-4.1-1.6 1.6-3.6 3.1-5.9 4.3-.3-.5-.7-.9-1-1.3 2.4-1.1 4.4-2.5 6-4.1-1.9-2.5-3-5.6-3.3-9.3h-1.1zm8.8 0h-6.4c.3 3.3 1.3 6 3 8.2 2-2.3 3.1-5.1 3.4-8.2z"/><path d="m385.3 3.8h1.3v2.2h2.8v-2.2h1.3v2.2h4.1v9.1h1.7v1.3h-16.9v-1.3h1.7v-9.1h4.1v-2.2zm.4 13.1.7 1.2c-1.8.9-3.8 1.9-6 2.9-.2-.4-.5-.8-.8-1.3 2.3-1 4.3-1.9 6.1-2.8zm-3.1-6.4h2.8v-3.2h-2.8zm0 4.6h2.8v-3.3h-2.8zm4-4.6h2.8v-3.2h-2.8zm0 4.6h2.8v-3.3h-2.8zm3.7 1.9c2.1.9 4.1 1.8 6.1 2.7l-.7 1.3c-2.2-1.1-4.2-2-6.1-2.9zm3.2-9.7h-2.8v3.2h2.8zm-2.8 7.8h2.8v-3.3h-2.8z"/></g></svg>