<svg enable-background="new 0 0 400 400" viewBox="0 0 400 400" xmlns="http://www.w3.org/2000/svg"><path d="m148.27 178.42c-2.76 7.18-5.53 14.36-8.29 21.54-1.67 4.34-3.1 8.78-5.07 12.98-1.83 3.92-4.78 6.94-9.37 8.25-1.59-6.63-1.05-13.06.91-19.23 2.46-7.76 5.7-15.27 8.24-23 1.61-4.91 3.07-9.97 3.66-15.08.53-4.55 3.77-5.34 6.82-6.32 3.04-.98 5.81.21 7.84 2.81 9.22 11.77 18.5 23.48 27.64 35.32 2.84 3.68 5.18 7.75 7.95 11.49 1.78 2.4 3.92 4.53 6.44 7.39.46-1.73.75-2.38.78-3.05.89-20.23 1.93-40.45 2.52-60.68.26-8.84-1.8-17.46-4.71-25.82-.37-1.05-1.15-2-1.88-2.87-13.72-16.3-27.43-32.61-41.21-48.86-3.82-4.51-7.72-9-13.77-10.96-3.87 6-5.55 12.57-5.48 19.39.13 11.73-2.59 22.81-6.13 33.86-1.66 5.18-1.91 10.8-3.1 16.15-.82 3.66-2.01 7.27-3.29 10.8-1.66 4.57-3.61 9.03-5.4 13.55-2.08 5.25-4.59 7.08-10.78 7.22 0-3.52-.5-7.12.09-10.54 2.2-12.76 3.21-25.62 4.62-38.46 1.14-10.42 4.77-20.58 7.36-30.84 1.99-7.88 4-15.75 6.17-23.58 1.72-6.21 3.47-12.43 5.67-18.48.87-2.4 2.96-4.35 4.16-6.04 5.98 3.57 11.23 6.68 16.44 9.83.61.37 1.19.94 1.53 1.55 7.49 13.17 19.15 22.52 29.84 32.78 7.11 6.82 14.33 13.55 21.02 20.76 8.07 8.71 10.74 19.78 13.21 31.13 2.3 10.57 1.42 20.84.27 31.27-.41 3.71-.19 7.33 2.03 11.06 3.86-4.12 7.68-7.91 11.17-11.98 12.22-14.24 24.41-28.51 36.4-42.94 2.07-2.5 3.16-5.85 4.54-8.87.68-1.49-.06-4.1 2.69-3.85 2.47.22 4.9.61 5.86 3.8 2.43 8 5.18 15.9 7.8 23.84 2.88 8.75 5.71 17.51 8.68 26.23.73 2.14 1.07 3.91-1.47 4.96-2.32.96-6.08-.03-6.95-2.01-2.42-5.52-4.56-11.18-7.12-16.63-2.06-4.37-4.46-8.6-6.96-12.74-.94-1.56-2.34-2.2-4.03-.19-14.1 16.81-28.29 33.55-42.45 50.31-10.33 12.23-13.77 26.73-13.68 42.28.03 5.28.69 10.57 1.28 15.84.12 1.1 1 2.28 1.85 3.09 2.3 2.19 4.72 4.27 7.2 6.26 19.34 15.55 34.88 34.56 49.57 54.35.43.57.77 1.21 1.16 1.82-3.56 1.95-8.02.68-11.67-3.04-8.7-8.85-17.28-17.81-26.22-26.41-5.26-5.05-11.06-9.55-16.71-14.18-1.52-1.24-3.37-2.08-5.49-3.35-.11 1.39-.24 2.28-.25 3.17-.02 6.36-.13 12.73.02 19.09.17 7.45-.84 14.74-1.82 22.11-.7 5.29.17 10.96 1.27 16.27 1.23 5.91.87 11.2-2.27 16.4-3.62 5.99-2.54 12.97-3.8 19.47-.44 2.27-.85 4.6-1.75 6.7-1.14 2.63-3.57 3.51-6.34 3.15-2.63-.34-2.78-2.72-3.18-4.57-.32-1.5-.05-3.15.11-4.71.49-4.72 1.47-9.43 1.52-14.16.2-17.18.09-34.36.14-51.54.01-2.22.26-4.44.39-6.66.2-3.31-.63-6.22-3.51-8.63-11.81 20.39-23.54 40.64-46.23 50.88.65-4.55.69-8.69 4.47-12.36 5.02-4.87 9.75-10.56 12.85-16.78 9.62-19.32 21.39-37.26 33.22-55.21 1.01-1.53.71-3.94.93-5.96.55-5.16-2.12-8.24-5.95-11.55-5.4-4.66-9.92-10.39-14.55-15.88-8.73-10.36-17.26-20.88-25.88-31.33-.52.07-1.04.13-1.57.19z" fill="#010000"/><g fill="#fafafb"><path d="m361.2 9.6.8-1c.9.7 1.9 1.4 2.9 2.3l-.9 1.1c-1-1-2-1.8-2.8-2.4zm.5 10.6c.9-2.1 1.6-4.3 2.3-6.7.4.2.8.4 1.3.6-.7 2.1-1.5 4.3-2.2 6.6zm.4-15.2.9-.9c1 .8 2 1.6 2.8 2.4l-1 1c-.9-.9-1.8-1.7-2.7-2.5zm12.5-1.2h1.2v1.4h2.7v1.1h-2.7v2.7h-1.2v-.6h-1.8v1.3h4.9v3.8h-1.2v-.5h-3.7c0 .4-.1.9-.1 1.2h5.1v1h-5.2c0 .5-.1.9-.2 1.2h6v1h-5.2c1.1 1.3 2.9 2 5.5 2.2-.4.4-.7.8-.9 1.3-2.9-.5-4.8-1.6-5.7-3.5h-.1c-.8 1.7-2.7 2.9-5.9 3.6-.2-.4-.6-.8-.9-1.1 2.8-.6 4.6-1.4 5.4-2.5h-4.8v-1h5.3c.1-.3.2-.7.2-1.2h-4.9v-1h5c0-.4 0-.8.1-1.2h-3.5v.5h-1.2v-3.8h4.9v-1.3h-1.8v.5h-1.2v-2.7h-2.7v-1h2.6v-1.4h1.2v1.4h4.7v-1.4zm-6.6 8.3h3.6c0-.4 0-.9 0-1.4h-3.6zm1.9-4.6h4.7v-1.3h-4.7zm6.6 3.2h-3.7v1.4h3.7z"/><path d="m385.3 3.8h1.3v2.2h2.8v-2.2h1.3v2.2h4.1v9.1h1.7v1.3h-16.9v-1.3h1.7v-9.1h4.1v-2.2zm.4 13.1.7 1.2c-1.8.9-3.8 1.9-6 2.9-.2-.4-.5-.8-.8-1.3 2.3-1 4.3-1.9 6.1-2.8zm-3.1-6.4h2.8v-3.2h-2.8zm0 4.6h2.8v-3.3h-2.8zm4-4.6h2.8v-3.2h-2.8zm0 4.6h2.8v-3.3h-2.8zm3.7 1.9c2.1.9 4.1 1.8 6.1 2.7l-.7 1.3c-2.2-1.1-4.2-2-6.1-2.9zm3.2-9.7h-2.8v3.2h2.8zm-2.8 7.8h2.8v-3.3h-2.8z"/></g></svg>