<svg enable-background="new 0 0 400 400" viewBox="0 0 400 400" xmlns="http://www.w3.org/2000/svg"><path d="m2.6 9.9.8-1c.9.7 1.9 1.4 2.9 2.3l-.9 1.1c-1.1-1-2-1.8-2.8-2.4zm.5 10.6c.9-2.1 1.6-4.3 2.3-6.7.4.2.8.4 1.3.6-.7 2.1-1.5 4.3-2.2 6.6zm.3-15.2.9-.9c1 .8 2 1.6 2.8 2.4l-1 1c-.9-.9-1.8-1.7-2.7-2.5zm12.6-1.2h1.2v1.4h2.7v1.1h-2.7v2.7h-1.2v-.6h-1.8v1.3h4.9v3.8h-1.2v-.5h-3.7c0 .4-.1.9-.1 1.2h5.1v1h-5.2c0 .5-.1.9-.2 1.2h6v1h-5.2c1.1 1.3 2.9 2 5.5 2.2-.4.4-.7.8-.9 1.3-2.9-.5-4.8-1.6-5.7-3.5h-.1c-.8 1.7-2.7 2.9-5.9 3.6-.2-.4-.6-.8-.9-1.1 2.8-.6 4.6-1.4 5.4-2.5h-4.8v-1h5.3c.1-.3.2-.7.2-1.2h-4.9v-1h5c0-.4 0-.8.1-1.2h-3.6v.5h-1.2v-3.8h4.9v-1.3h-1.8v.5h-1.2v-2.7h-2.7v-1h2.7v-1.4h1.2v1.4h4.8zm-6.7 8.3h3.6c0-.4 0-.9 0-1.4h-3.6zm1.9-4.6h4.8v-1.3h-4.7v1.3zm6.7 3.2h-3.7v1.4h3.7z" fill="#fcfafa"/><path d="m8.7 22.1h1.3v2.2h2.8v-2.2h1.3v2.2h4.1v9.1h1.7v1.3h-17v-1.3h1.7v-9.1h4.1zm.3 13.1.7 1.2c-1.8.9-3.8 1.9-6 2.9-.2-.4-.5-.8-.8-1.3 2.3-1 4.4-1.9 6.1-2.8zm-3.1-6.4h2.8v-3.2h-2.8zm0 4.6h2.8v-3.3h-2.8zm4.1-4.6h2.8v-3.2h-2.8zm0 4.6h2.8v-3.3h-2.8zm3.6 1.9c2.1.9 4.1 1.8 6.1 2.7l-.7 1.4c-2.2-1.1-4.2-2-6.1-2.9zm3.2-9.7h-2.8v3.2h2.8zm-2.7 7.8h2.8v-3.3h-2.8z" fill="#fcfafa"/><path d="m55.81 366.25c0-2.72-.07-5.04.02-7.36.13-3.53.03-6.94-2-10.09-.56-.86-.53-2.24-.44-3.36 1.4-17.12 3.21-34.21 4.19-51.35.84-14.7.75-29.46 1.07-44.2.58-26.39 1.16-52.79 1.79-79.18.03-1.34.4-2.72.84-4 3.07-9.02 6.16-18.03 9.34-27.01.48-1.34 1.39-2.55 2.21-3.75 1.79-2.62 3.74-5.13 5.44-7.8 1.59-2.5 2.96-5.14 4.43-7.72 3.72-6.52 8.36-11.98 14.9-16.1 11.75-7.39 23.12-15.38 34.6-23.19 1.36-.93 2.62-2.17 3.56-3.52 9.26-13.18 18.45-26.42 27.66-39.64.65-.94 1.35-1.85 1.98-2.72 4.47 1.55 7.07 5.04 6.96 10.39-.1 4.74-1.03 9.45-1.46 14.18-.28 3.05-.66 6.14-.42 9.17.48 6.11 4.26 8.76 10.26 7.56 14.85-2.98 29.66-6.18 44.57-8.86 4.51-.81 9.27-.25 13.92-.21 14.11.12 28.19.73 41.97 4.14 11.69 2.89 23.67 5.03 33.84 12.17 7.92 5.56 13.71 12.93 17.9 21.52 1.22 2.5 1.4 5.51 2.06 8.29 1.83 7.72 4.42 15.36 5.29 23.18 1.15 10.28 1.2 20.72 1.29 31.09.16 18.66-.04 37.33.01 56 .01 2.14-.53 3.52-2.46 4.62-2.83 1.62-5.47 3.56-9 5.89-.86-6.74-1.85-12.84-2.35-18.98-.53-6.48-1.31-12.8-4.12-18.8-1.51-3.22-3.63-4.22-7-3.9-12.76 1.25-25.51 2.54-38.3 3.45-4.49.32-9.05-.39-13.58-.67-3.48-.21-6.99-.87-10.45-.67-15.18.89-27.93-9.24-31.84-22.77-5-17.28-9.86-34.6-14.65-51.94-.24-.88.4-2.72 1.1-3.02 3.65-1.56 7.36-3.37 11.22-3.95 4.56-.69 9.29-.24 13.95-.25.62 0 1.31.03 1.84.31 6.12 3.24 10.92 14.01 9.13 20.54-.3 1.09-.77 2.22-1.45 3.12-6.74 9.05-4.82 18.6-1.68 28.2.23.71 1.08 1.26 1.72 1.81 10.23 8.77 21.88 12.37 35.37 10.3 10.26-1.57 20.6-2.62 30.91-3.8 5.96-.68 8.22-2.95 7.46-8.88-.63-4.89-2.06-9.67-3.07-14.51-1.86-8.9-2.61-18.21-5.75-26.63-5.59-14.94-17.07-24.07-32.66-27.83-.71-.17-1.5-.29-2.19-.15-7.55 1.52-14.94.15-22.37-1.03-2.23-.35-4.66-.31-6.86.17-8.8 1.9-17.51 4.16-26.32 6.03-3.09.66-5.55 1.84-7.18 4.57-.97 1.62-2.17 2.3-4.2 1.62-6.94-2.3-13.59.62-20.35 1.42-3.79.44-7.55 1.12-11.34 1.51-5.56.58-10.94-.13-16.17-2.3-3.06-1.27-6.37-2.48-10.17.07 2.95 4.61 5.8 9.14 8.71 13.63 10.78 16.63 15.2 34.72 11.04 54.22-1.36 6.4-4.95 12.33-7.59 18.44-.27.63-.98 1.09-1.54 1.56-6.43 5.37-12.85 10.75-19.32 16.07-.97.8-2.1 1.43-3.23 1.98-15.57 7.44-31.16 14.85-46.74 22.28-1.05.5-2.11.98-3.13 1.55-4.17 2.31-6.93 5.08-7.16 10.57-.49 12.06-1.77 24.1-2.87 36.13-.23 2.5-.72 5.07-1.66 7.39-4.62 11.46-6.04 23.51-7.23 35.66-1 10.22-2.31 20.42-3.74 30.59-.65 4.48-3.68 7.21-8.51 8.75zm79.32-201.51c.17-.05.34-.09.51-.14-1.3-7.91-2.05-15.96-4.06-23.69-1.63-6.29-2.97-13.68-11.64-14.65-1.27-.14-2.97.06-3.88.81-8.34 6.87-16.57 13.86-24.75 20.92-1.05.9-1.9 2.27-2.35 3.59-2.96 8.82-5.81 17.68-8.64 26.54-.31.98-.71 2.14-.47 3.07 1.83 7.26.59 14.44-.03 21.7-.43 4.96.01 10.15 1.03 15.03.96 4.59 4.16 5.03 7.74 1.91 2.05-1.79 4.21-3.66 6.64-4.79 12.79-5.93 23.51-14.47 33.1-24.74 3.5-3.75 5.27-7.78 5.78-12.6.46-4.31.69-8.64 1.02-12.96z" fill="#010100"/></svg>