<svg enable-background="new 0 0 400 400" viewBox="0 0 400 400" xmlns="http://www.w3.org/2000/svg"><path d="m378.6 9.2.8-1c.9.7 1.9 1.4 2.9 2.3l-.9 1.1c-1.1-.9-2-1.7-2.8-2.4zm.5 10.7c.9-2.1 1.6-4.3 2.3-6.7.4.2.8.4 1.3.6-.7 2.1-1.5 4.3-2.2 6.6zm.4-15.2.9-.9c1 .8 2 1.6 2.8 2.4l-1 1c-1-.9-1.9-1.8-2.7-2.5zm12.5-1.3h1.2v1.4h2.7v1.1h-2.7v2.7h-1.2v-.5h-1.8v1.3h4.9v3.8h-1.2v-.5h-3.7c0 .4-.1.9-.1 1.2h5.1v1h-5.2c0 .5-.1.9-.2 1.2h6v1h-5.2c1.1 1.3 2.9 2 5.5 2.2-.4.4-.7.8-.9 1.3-2.9-.5-4.8-1.6-5.7-3.5h-.1c-.8 1.7-2.7 2.9-5.9 3.6-.2-.4-.6-.8-.9-1.1 2.8-.6 4.6-1.4 5.4-2.5h-4.8v-1h5.3c.1-.3.2-.7.2-1.2h-4.9v-1h5c0-.4 0-.8.1-1.2h-3.6v.5h-1.2v-3.8h4.9v-1.3h-1.8v.5h-1.2v-2.7h-2.6v-1.1h2.6v-1.4h1.2v1.4h4.7v-1.4zm-6.7 8.4h3.6c0-.4 0-.9 0-1.4h-3.6zm1.9-4.7h4.7v-1.2h-4.7zm6.7 3.3h-3.7v1.4h3.7z" fill="#fafbfc"/><path d="m384.7 21.4h1.3v2.2h2.8v-2.2h1.3v2.2h4.1v9.1h1.7v1.3h-16.9v-1.3h1.7v-9.1h4.1v-2.2zm.3 13.2.7 1.2c-1.8.9-3.8 1.9-6 2.9-.2-.4-.5-.8-.8-1.3 2.4-1 4.4-2 6.1-2.8zm-3.1-6.5h2.8v-3.2h-2.8zm0 4.6h2.8v-3.3h-2.8zm4.1-4.6h2.8v-3.2h-2.8zm0 4.6h2.8v-3.3h-2.8zm3.6 1.9c2.1.9 4.1 1.8 6.1 2.7l-.7 1.3c-2.2-1.1-4.2-2-6.1-2.9zm3.3-9.7h-2.8v3.2h2.8zm-2.8 7.8h2.8v-3.3h-2.8z" fill="#fafbfc"/><path d="m129.72 366.16c.73-3.86 1.3-7.29 2.11-10.67.16-.66 1.2-1.42 1.95-1.57 12.38-2.34 24.72-5.11 37.2-6.65 5.95-.74 12.24.6 18.29 1.56 3.38.53 5.27-.34 6.94-3.17 1.76-2.98 3.96-5.71 6.08-8.71 5.71 3.68 11.21 7.22 16.58 10.67 5.15-3.41 10.27-6.59 15.1-10.17 1.18-.88 2.01-3.14 1.9-4.68-.49-6.83-1.04-13.56-5.52-19.48-6.11-8.09-9.13-17.6-10.79-27.55-1.57-9.4-5.15-17.86-11.58-25.03-.98-1.09-1.62-2.48-2.83-3.42-2.91 8.94-8.78 14.75-14.62 20.19 1.11 2.05 2.57 3.76 2.97 5.69 1.04 4.91 1.15 9.71-4.31 12.59-1.57.83-2.81 2.26-4.29 3.27-3.05 2.08-4.52 5.04-4.65 8.6-.13 3.32-1.89 5.45-4.8 7.62-.73-2.28-1.54-4.2-1.88-6.2-.12-.72.7-1.83 1.39-2.42 5.38-4.67 5.22-4.6 3.28-11.35-.76-2.62-1.05-5.61-.65-8.29 1.85-12.36 4.1-24.66 6-37.01.46-3 .42-6.16.06-9.18-1.16-9.78-.77-19.43 1.8-28.96.3-1.12.55-2.27.67-3.43.56-5.52 2.51-10.44 6.16-14.66.97-1.12 1.43-2.06.23-3.54-5.77-7.06-6.55-15.37-5.76-24.05.42-4.63.89-9.28.95-13.92.02-1.78-.74-3.79-1.72-5.32-1.87-2.9-5.19-2.81-7.16.01-16.89 24.15-38.98 42.24-64.96 55.82-.65.34-1.31.64-2.09 1.01-.84-2.23-.28-3.77 1.74-4.71 9.68-4.51 15.62-12.05 18.58-22.25 4.18-14.41 14.67-24.83 23.51-36.26 11.16-14.42 22.43-28.76 33.83-42.99 4.58-5.71 6.14-11.74 3.51-18.64-2.99-7.88-2.89-15.46.62-23.31 2.96-6.64 4.92-13.71 7.46-20.96 1.29.58 2.62.83 3.47 1.62 4.73 4.35 9.4 8.75 13.95 13.29 1.68 1.67 1.85 3.8.98 6.16-1.62 4.45-2.87 8.92-5.57 13.02-3.71 5.65-3.12 12.21-1.74 18.51 1.07 4.85 2.53 9.62 4.03 14.36 2.01 6.33 4.94 12.19 10.18 16.55 6.09 5.07 8.35 12.05 9.74 19.43.5 2.65 1.73 4.08 4.49 4.34 9.17.85 15.89 6.15 22.37 12.14 6.5 6.01 12.76 12.13 16.84 20.12.28.55.52 1.13 1.16 2.53-2.62-.22-4.88.04-6.78-.67-4.44-1.66-8.63-4.02-13.07-5.68-9.66-3.6-17.9-9.2-25.37-16.26-4.1-3.88-9.17-6.44-15.46-6.92-1.05 5.61-2.1 11.19-3.14 16.78-.23 1.25-.28 2.56-.7 3.74-3.27 9.17-.56 17.8 1.88 26.63 6.4 23.2 11.57 46.71 13.59 70.72.68 8.08 2.31 15.7 5.4 22.99 2.84 6.68 2.08 13.75 3.36 20.55 1.62 8.61 3.83 17.12 5.95 25.63.26 1.06 1.34 2.12 2.31 2.78 6.19 4.25 13.32 5.78 20.57 7.02 2.38.41 4.8 1.01 6.99 1.99 3.8 1.69 6.22 4.6 6.57 9.1-10.65 3.42-21.47 5.21-32.54 5.29-10.6.07-21.22-.55-31.8-.06-12.69.58-25.35 1.89-38 3.09-16.14 1.53-32.26 3.4-48.53 2.73-.65-.02-1.28 0-2.43 0z" fill="#010104"/></svg>