<svg enable-background="new 0 0 400 400" viewBox="0 0 400 400" xmlns="http://www.w3.org/2000/svg"><path d="m378.6 9.2.8-1c.9.7 1.9 1.4 2.9 2.3l-.9 1.1c-1.1-.9-2-1.7-2.8-2.4zm.5 10.7c.9-2.1 1.6-4.3 2.3-6.7.4.2.8.4 1.3.6-.7 2.1-1.5 4.3-2.2 6.6zm.4-15.2.9-.9c1 .8 2 1.6 2.8 2.4l-1 1c-1-.9-1.9-1.8-2.7-2.5zm12.5-1.3h1.2v1.4h2.7v1.1h-2.7v2.7h-1.2v-.5h-1.8v1.3h4.9v3.8h-1.2v-.5h-3.7c0 .4-.1.9-.1 1.2h5.1v1h-5.2c0 .5-.1.9-.2 1.2h6v1h-5.2c1.1 1.3 2.9 2 5.5 2.2-.4.4-.7.8-.9 1.3-2.9-.5-4.8-1.6-5.7-3.5h-.1c-.8 1.7-2.7 2.9-5.9 3.6-.2-.4-.6-.8-.9-1.1 2.8-.6 4.6-1.4 5.4-2.5h-4.8v-1h5.3c.1-.3.2-.7.2-1.2h-4.9v-1h5c0-.4 0-.8.1-1.2h-3.6v.5h-1.2v-3.8h4.9v-1.3h-1.8v.5h-1.2v-2.7h-2.6v-1.1h2.6v-1.4h1.2v1.4h4.7v-1.4zm-6.7 8.4h3.6c0-.4 0-.9 0-1.4h-3.6zm1.9-4.7h4.7v-1.2h-4.7zm6.7 3.3h-3.7v1.4h3.7z" fill="#fafbfc"/><path d="m384.7 21.4h1.3v2.2h2.8v-2.2h1.3v2.2h4.1v9.1h1.7v1.3h-16.9v-1.3h1.7v-9.1h4.1v-2.2zm.3 13.2.7 1.2c-1.8.9-3.8 1.9-6 2.9-.2-.4-.5-.8-.8-1.3 2.4-1 4.4-2 6.1-2.8zm-3.1-6.5h2.8v-3.2h-2.8zm0 4.6h2.8v-3.3h-2.8zm4.1-4.6h2.8v-3.2h-2.8zm0 4.6h2.8v-3.3h-2.8zm3.6 1.9c2.1.9 4.1 1.8 6.1 2.7l-.7 1.3c-2.2-1.1-4.2-2-6.1-2.9zm3.3-9.7h-2.8v3.2h2.8zm-2.8 7.8h2.8v-3.3h-2.8z" fill="#fafbfc"/><path d="m195.98 73.4c-5.68 10.21-11.75 20.17-16.89 30.58-10.07 20.41-19.86 40.96-29.23 61.7-2.57 5.69-3.16 12.27-4.8 18.4-.6 2.22-1.41 4.44-2.49 6.47-5.23 9.81-10.64 19.53-15.81 29.37-.74 1.41-.95 3.42-.63 5 1.07 5.29 2.45 10.51 3.8 15.74.25.99.72 2.02 1.37 2.8 7.02 8.37 9.2 18.38 10.03 28.91.14 1.82.52 3.84 1.47 5.33 11.88 18.63 11.07 38.5 5.96 58.82-.07.27-.35.49-.77 1.06-1.3-2.77-2.42-5.34-3.7-7.84-3.89-7.64-7.74-15.29-11.78-22.85-5.87-11-7.45-23-9.13-35.12-1.3-9.35-4.06-18.51-6.36-28.6-4.84 4.89-7.74 9.63-9.96 14.76-1.51 3.49-2.74 7.11-4.01 10.7-2.7 7.61-5.68 15.1-10.79 21.46-3.23 4.02-3.64 8.93-5.04 13.55-.33 1.1-.55 2.38-1.25 3.2-6.36 7.36-10.47 16.13-15.44 24.37-2.9 4.81-6.8 8.36-13.74 8.97.48-3.73.91-7.2 1.4-10.66.09-.61.42-1.21.73-1.75 8.88-15.16 12.55-32.27 18.31-48.6 2.12-6.03 5.48-11.63 8.33-17.4 1.58-3.21 1.67-4.74-.04-8.36-6.12 6.91-15.45 7.07-22.7 11.44-4.1 2.47-7.73 5.91-11.11 9.37-4.66 4.77-9.87 7.94-17.11 7.87-.88-3.42-1.88-6.94-2.64-10.51-.13-.62.61-1.68 1.23-2.16 1.34-1.02 2.82-1.91 4.33-2.65 7-3.43 12.5-8.61 17.4-14.55 5.17-6.26 11.26-11.41 18.25-15.64 11.14-6.76 22.09-13.84 33.03-20.91 1.4-.91 2.67-2.4 3.39-3.92 4.51-9.46 8.65-19.1 13.3-28.49 3.94-7.96 8.73-15.5 12.52-23.53 4.65-9.85 8.42-20.12 13.02-30 3.43-7.36 7.06-14.73 11.52-21.49 5.5-8.33 9.47-17.24 12.54-26.61 1.77-5.39 5.31-8.99 9.87-11.95 3.01-1.96 6.09-3.89 8.77-6.25 3.58-3.14 4.99-7.17 3.77-12.02-1.38-5.47 1.06-10.07 6.39-12.12.76-.29 2.2-.01 2.78.56 3.82 3.78 8.08 7.3 11.12 11.65 9.24 13.27 16.17 27.77 21.59 43.02 4.86 13.66 10.08 27.2 15.15 40.78.22.59.42 1.25.83 1.7 5.51 6.16 6.89 13.86 8.17 21.62.17 1.03.4 2.16.96 2.99 9.67 14.11 13.31 30.54 18.07 46.54 1.33 4.47 2.85 8.89 3.87 13.43 2.61 11.63 10.05 19.28 19.97 25.01.46.26.92.52 1.4.75 13.18 6.16 24.99 14.2 34.96 24.9 1.17 1.26 3.18 1.88 4.91 2.45 3.01.99 6.17 1.53 9.14 2.59 4.87 1.74 7.63 5.35 8.7 11.3-5.78-1.49-11.11-2.69-16.34-4.25-9.32-2.78-18.57-5.82-27.88-8.63-1.8-.54-3.76-.61-5.66-.7-4.4-.23-6.66 1.3-6.36 5.78.38 5.74 1.12 11.72 3.18 17.03 2.84 7.34 6.71 14.36 10.76 21.15 4.03 6.74 7.73 13.54 7.59 21.54-.06 3.35-1.23 6.82-2.54 9.97-1.14 2.72-1.13 4.72 1.07 6.71.82.74 1.43 1.71 2.48 3-4.07.68-7.54 1.26-10.86 1.82-.33-.53-.53-.7-.54-.89-.4-7.49-3.19-13.72-8.75-18.99-1.76-1.67-2.2-4.94-2.8-7.57-1.15-5.03-2.4-9.88-7.28-12.76-.5-.29-.92-.91-1.13-1.48-3.81-10.43-7.7-20.84-11.3-31.34-1.43-4.18-1.92-8.69-3.35-12.87-.89-2.61-2.75-4.89-4.57-7.98-.61 1.54-.96 2.24-1.16 2.98-.73 2.65-1.56 5.29-2.09 7.98-2.58 13.15-7.9 25.1-15.12 36.37-3.98 6.21-7.02 13.03-10.77 19.41-2.46 4.19-5.82 7.56-11.22 8.23-1.87-7.5-.48-14.75 1.3-21.95 1.57-6.37 2.99-12.82 5.14-19 1.29-3.7 3.77-7 5.89-10.38 1.01-1.6 1.7-2.76.51-4.77-1.89-3.22-1.22-6.83-.04-10.17 2.28-6.46 4.46-12.84 9.21-18.25 6.48-7.38 8.3-17 10.62-26.23.16-.64-.52-1.79-1.14-2.28-4.42-3.49-7.14-8.08-8.72-13.36-2.69-9.04-5.25-18.09-11.24-25.72-1.12-1.43-1.45-3.49-2.06-5.3-1.7-5.01-3.14-10.13-5.1-15.03-1.02-2.54-2.68-4.94-4.51-6.99-1.37-1.53-2.34-2.89-2.03-4.96.66-4.44-.76-8.21-3.42-11.77-8.02-10.7-11.11-23.69-16.2-35.74-3.66-8.67-6.82-17.55-10.23-26.32-1.92-4.91-5.06-8.76-10.27-11.47z" fill="#010104"/></svg>