<svg enable-background="new 0 0 400 400" viewBox="0 0 400 400" xmlns="http://www.w3.org/2000/svg"><g fill="#010000"><path d="m330.12 175.6c-5 3.85-9.84 7.62-14.75 11.3-.69.52-1.75.82-2.62.79-6.25-.19-12.51-.26-18.73-.81-8.5-.75-16.25 2.47-24.31 4.06-14.28 2.81-27.89 7.74-41.52 12.76-10 3.68-20.4 6.35-30.7 9.14-5.96 1.61-11.87 3.25-17.08 6.62-7.13 4.62-15.23 6.1-23.32 7.78-19.6 4.08-39.16 8.3-58.75 12.39-1.39.29-2.95.27-4.33-.04-9.71-2.19-19.37-4.58-29.1-6.7-2.2-.48-3.39-1.43-3.82-3.52-.06-.31-.21-.6-.32-.9-2.2-6.1-1.95-6.5 4.23-9.13 6.36-2.71 13.08-3.81 19.85-3.68 16.32.33 31.94-3.34 47.57-7.34 23.39-5.98 46.94-11.37 70.21-17.75 12.94-3.55 25.49-8.52 38.16-13 15.44-5.46 31.23-9.51 47.56-10.88 5.08-.43 10.3.75 15.46 1.12 5.8.42 11.64.51 17.4 1.23 3.88.5 7.06 2.63 8.91 6.56z"/><path d="m109.48 365.83c-2.13-9.06-4.83-17.72-6.01-26.57-.81-6.07.05-12.49.95-18.63 2.36-16.16 5.93-32.07 11.99-47.3.83-2.09 2.27-5.29 3.76-5.49 3.72-.5 7.78 1.06 9.38 4.67 1.94 4.36 3.4 9.15 3.92 13.88 1.56 14.19-1.27 28.1-4.02 41.91-2.05 10.26-4.67 20.42-7.27 30.56-.34 1.34-1.82 2.78-3.13 3.39-3.15 1.47-6.51 2.47-9.57 3.58z"/><path d="m184.05 299.92c.98-16.71 3.39-33.09 8.79-48.97 1.29-3.79 4.61-5.02 7.33-7.06.35-.26 1.24-.08 1.72.18 2.03 1.12 4.12 2.19 5.95 3.59 2.14 1.64 2.78 3.88 1.71 6.52-.59 1.47-1.02 3.01-1.42 4.54-.96 3.65-.93 7.11 1.94 10.05 1.95 1.99 2.09 4.39 1.74 7.06-2.15 16.16-4.21 32.34-6.29 48.51-.46 3.6-6.02 8.82-9.63 8.93-3.19.1-5.57-.85-6.99-4.18-3.99-9.38-4.9-19.21-4.85-29.17z"/><path d="m106.67 61.9c3 1.58 6.73 2.36 7.91 4.52 1.13 2.09-.68 5.62-.65 8.51.05 4.95.43 9.91.84 14.85.49 5.91 1.19 11.8 1.73 17.71.09 1.01.12 2.24-.35 3.06-5.05 8.74-5.96 18.42-6.7 28.18-.46 6.06-2.02 11.76-6.85 15.89-1.78 1.52-3.98 2.56-6.15 3.93-3.31-6.7-4.44-13.34-4.89-20.13-1.05-15.78 1.08-31.29 4.28-46.68 1.99-9.57 4.8-18.87 9.43-27.53.38-.74.85-1.42 1.4-2.31z"/><path d="m282.47 226.61c6.79 3.98 9.87 10.02 10.72 16.9.93 7.53.89 15.19 1.11 22.79.29 9.95.45 19.91.57 29.86.01 1.02-.46 2.19-1.05 3.04-1.67 2.42-3.48 4.75-5.32 7.06-.9 1.14-1.81 2.44-3.02 3.13-2.28 1.32-4.32 1.38-6.19-1.3-5.51-7.87-8.29-16.64-9.01-26.09-1.34-17.42.9-34.24 9.05-49.96.9-1.74 1.98-3.43 3.14-5.43z"/><path d="m227.81 34.85c7.91 4.29 11.76 12.2 9.93 22.59-3.41 19.36-9 38.04-19.37 54.99-1.17 1.91-2.42 3.3-4.96 3.27-2.62-.03-3.3-1.9-4.21-3.67-3.47-6.82-4.54-13.91-3.22-21.54 1.15-6.66 1.52-13.45 2.45-20.15.25-1.77 1.18-3.49 2-5.13 1.96-3.95 4.58-7.66 5.94-11.8 2.34-7.12 5.78-13.36 11.44-18.56z"/><path d="m293.9 117.46c-1.1-5.17-.06-9.66 2.15-13.86 2.4-4.57 2.55-8.87-.33-12.45 3.81-5.39 7.82-10.29 10.93-15.72 2.33-4.07 3.59-8.78 5.17-13.26 2.86-8.12 7.28-15.26 13.39-21.3.77-.76 2.41-1.21 3.48-.99 5.02 1.04 8.51 4.85 7.82 10.01-.95 7.07-2.57 14.14-4.79 20.92-1.75 5.34-4.74 10.3-7.34 15.34-3.29 6.39-6.78 12.67-10.11 19.03-4.25 8.16-11.28 11.6-20.37 12.28z"/></g><path d="m361.2 9.6.8-1c.9.7 1.9 1.4 2.9 2.3l-.9 1.1c-1-1-2-1.8-2.8-2.4zm.5 10.6c.9-2.1 1.6-4.3 2.3-6.7.4.2.8.4 1.3.6-.7 2.1-1.5 4.3-2.2 6.6zm.4-15.2.9-.9c1 .8 2 1.6 2.8 2.4l-1 1c-.9-.9-1.8-1.7-2.7-2.5zm12.5-1.2h1.2v1.4h2.7v1.1h-2.7v2.7h-1.2v-.6h-1.8v1.3h4.9v3.8h-1.2v-.5h-3.7c0 .4-.1.9-.1 1.2h5.1v1h-5.2c0 .5-.1.9-.2 1.2h6v1h-5.2c1.1 1.3 2.9 2 5.5 2.2-.4.4-.7.8-.9 1.3-2.9-.5-4.8-1.6-5.7-3.5h-.1c-.8 1.7-2.7 2.9-5.9 3.6-.2-.4-.6-.8-.9-1.1 2.8-.6 4.6-1.4 5.4-2.5h-4.8v-1h5.3c.1-.3.2-.7.2-1.2h-4.9v-1h5c0-.4 0-.8.1-1.2h-3.5v.5h-1.2v-3.8h4.9v-1.3h-1.8v.5h-1.2v-2.7h-2.7v-1h2.6v-1.4h1.2v1.4h4.7v-1.4zm-6.6 8.3h3.6c0-.4 0-.9 0-1.4h-3.6zm1.9-4.6h4.7v-1.3h-4.7zm6.6 3.2h-3.7v1.4h3.7z" fill="#fafafb"/><path d="m385.3 3.8h1.3v2.2h2.8v-2.2h1.3v2.2h4.1v9.1h1.7v1.3h-16.9v-1.3h1.7v-9.1h4.1v-2.2zm.4 13.1.7 1.2c-1.8.9-3.8 1.9-6 2.9-.2-.4-.5-.8-.8-1.3 2.3-1 4.3-1.9 6.1-2.8zm-3.1-6.4h2.8v-3.2h-2.8zm0 4.6h2.8v-3.3h-2.8zm4-4.6h2.8v-3.2h-2.8zm0 4.6h2.8v-3.3h-2.8zm3.7 1.9c2.1.9 4.1 1.8 6.1 2.7l-.7 1.3c-2.2-1.1-4.2-2-6.1-2.9zm3.2-9.7h-2.8v3.2h2.8zm-2.8 7.8h2.8v-3.3h-2.8z" fill="#fafafb"/></svg>