<svg enable-background="new 0 0 400 400" viewBox="0 0 400 400" xmlns="http://www.w3.org/2000/svg"><path d="m378.6 9.2.8-1c.9.7 1.9 1.4 2.9 2.3l-.9 1.1c-1.1-.9-2-1.7-2.8-2.4zm.5 10.7c.9-2.1 1.6-4.3 2.3-6.7.4.2.8.4 1.3.6-.7 2.1-1.5 4.3-2.2 6.6zm.4-15.2.9-.9c1 .8 2 1.6 2.8 2.4l-1 1c-1-.9-1.9-1.8-2.7-2.5zm12.5-1.3h1.2v1.4h2.7v1.1h-2.7v2.7h-1.2v-.5h-1.8v1.3h4.9v3.8h-1.2v-.5h-3.7c0 .4-.1.9-.1 1.2h5.1v1h-5.2c0 .5-.1.9-.2 1.2h6v1h-5.2c1.1 1.3 2.9 2 5.5 2.2-.4.4-.7.8-.9 1.3-2.9-.5-4.8-1.6-5.7-3.5h-.1c-.8 1.7-2.7 2.9-5.9 3.6-.2-.4-.6-.8-.9-1.1 2.8-.6 4.6-1.4 5.4-2.5h-4.8v-1h5.3c.1-.3.2-.7.2-1.2h-4.9v-1h5c0-.4 0-.8.1-1.2h-3.6v.5h-1.2v-3.8h4.9v-1.3h-1.8v.5h-1.2v-2.7h-2.6v-1.1h2.6v-1.4h1.2v1.4h4.7v-1.4zm-6.7 8.4h3.6c0-.4 0-.9 0-1.4h-3.6zm1.9-4.7h4.7v-1.2h-4.7zm6.7 3.3h-3.7v1.4h3.7z" fill="#fafbfc"/><path d="m384.7 21.4h1.3v2.2h2.8v-2.2h1.3v2.2h4.1v9.1h1.7v1.3h-16.9v-1.3h1.7v-9.1h4.1v-2.2zm.3 13.2.7 1.2c-1.8.9-3.8 1.9-6 2.9-.2-.4-.5-.8-.8-1.3 2.4-1 4.4-2 6.1-2.8zm-3.1-6.5h2.8v-3.2h-2.8zm0 4.6h2.8v-3.3h-2.8zm4.1-4.6h2.8v-3.2h-2.8zm0 4.6h2.8v-3.3h-2.8zm3.6 1.9c2.1.9 4.1 1.8 6.1 2.7l-.7 1.3c-2.2-1.1-4.2-2-6.1-2.9zm3.3-9.7h-2.8v3.2h2.8zm-2.8 7.8h2.8v-3.3h-2.8z" fill="#fafbfc"/><path d="m166.11 333.91c.92-2.24 1.51-4.69 2.82-6.66 2.35-3.52 5.29-6.64 7.68-10.13 1.95-2.84 3.46-5.99 5.2-8.98.68-1.17 1.38-2.35 2.2-3.42 3.62-4.7 7.4-9.28 10.9-14.06 3.65-4.99 5.06-10.67 4.26-16.83-.14-1.05-.16-2.22-.67-3.08-4.96-8.36-5.61-17.72-6.04-27.02-.34-7.28.14-14.61.47-21.9.09-2.07.77-4.17 1.5-6.13 2.69-7.24 5.6-14.41 8.22-21.67.47-1.29.37-3.11-.19-4.38-2.25-5.14-4.75-10.16-7.22-15.2-.45-.92-1.04-2.02-1.87-2.46-3.85-2.05-5.19-5.68-6.37-9.46-2.56-8.17-2.11-16.57-1.61-24.93.32-5.28.95-10.56 1.66-15.8.35-2.63.23-5.44 2.65-7.57.43-.38-.62-3.3-1.67-4.39-6.76-7.02-13.83-13.76-20.58-20.8-5.98-6.24-11.16-13.07-13.01-21.82-.22-1.03-.55-2.12-.42-3.13.19-1.52.74-3 1.14-4.49 1.92.83 4.4 1.17 5.65 2.58 2.14 2.42 3.32 5.66 5.24 8.31 3.15 4.34 6.35 8.69 9.93 12.67 4.17 4.64 8.77 8.89 14.06 14.19.87-3.7 2.28-6.63 2.07-9.44-.45-6.1.28-11.97 1.22-17.96.83-5.3.94-10.76.82-16.14-.13-6.28 0-12.44 2.55-18.73 3.39 3.81 4.46 8.2 4.93 12.67.44 4.2.18 8.46.37 12.69.26 5.8.26 11.65 1.13 17.37.46 3.06 2.51 5.87 4.22 9.61 4.99-5.18 10.79-7.94 13.87-13.65 2.81-5.22 5.48-10.52 8.47-15.64 2.46-4.21 6.05-7.25 10.93-8.96 2.04 3.68 1.32 7.05-.46 10.33-5.3 9.78-11.24 19.13-18.17 27.87-2.62 3.3-4.95 6.91-6.92 10.64-4.26 8.04-3.88 8.57 2.06 15.38 5.69 6.52 11.07 13.12 14.01 21.38 4.96 13.97 3.16 27.02-5.29 39.22-1.62 2.34-3.08 4.85-4.15 7.47-1.42 3.47-.88 6.43 1.41 9.94 8.76 13.42 15.87 27.65 14.8 44.36-.27 4.27-1.28 8.64-2.79 12.64-3.92 10.39-8.3 20.61-12.53 30.88-.4.96-.85 2.08-1.63 2.68-6.78 5.21-4.19 12.51-4.37 19.18-.01.51.62 1.08 1 1.57 8.83 11.24 14.68 23.98 18.74 37.58 1.59 5.32 2.79 10.75 4.18 16.17-2.21-.16-3.98-1.4-6.01-3.18-9.46-8.28-14.12-19.69-20.39-30.06-.6-1-.99-2.24-1.83-2.95-1.04-.88-2.42-1.7-3.72-1.8-.58-.04-1.64 1.63-1.91 2.67-3.38 13.12-6.67 26.27-9.95 39.42-.58 2.33-1.29 4.46-4.28 5.31-1.84-10.43-3.95-20.64-1.9-31.17.55-2.8 1.16-5.66 1.15-8.49-.01-1.53-.9-3.61-2.09-4.42-.95-.65-3.24-.22-4.43.53-6.16 3.89-12.15 8.03-18.21 12.08-.27-.17-.55-.33-.83-.49zm44.61-159.36c5.58-.77 8.56-3.9 9.52-9.16.36-1.97 1.06-3.88 1.51-5.83 4.15-18.16-2.79-29.47-18.37-39.48-.91 2.26-2.31 4.3-2.49 6.45-.62 7.27-.69 14.59-1.19 21.88-.72 10.69 4.14 18.9 11.02 26.14zm-.53 87.26c4.33-1.74 6.26-4.25 7.45-7.46 1.25-3.36 2.42-6.76 3.8-10.08 4.53-10.9 4.21-21.91.41-32.84-1.45-4.16-4.66-7.11-8.79-8.76-5.58 11.27-10.55 22.38-7.5 35.17.34 1.44.35 2.95.64 4.4 1.28 6.4 2.6 12.78 3.99 19.57z" fill="#010104"/></svg>