<svg enable-background="new 0 0 400 400" viewBox="0 0 400 400" xmlns="http://www.w3.org/2000/svg"><path d="m183.88 363.77c0-1.2 0-2.02 0-3.02-.39.26-.75.36-.86.59-1.27 2.71-3.66 3.67-6.3 3.27-4.58-.69-9.09-1.8-13.63-2.76-.82-.18-1.61-.52-2.42-.77-9.16-2.88-18-5.79-24.35-14.12-3.82-5.01-9.86-8.27-14.63-12.63-4.62-4.22-7.18-9.76-9.55-15.53-5.27-12.81-7.32-25.94-5.97-39.71.41-4.21.29-8.48.13-12.72-.05-1.47-1-2.89-1.47-4.36-.21-.66-.45-1.39-.35-2.05 1.85-13.42 3.55-26.87 5.7-40.24 1.62-10.06 4.77-19.71 9.18-28.95 2.59-.21 3.86.91 4.64 3.3 1.9 5.79 2.68 11.5 2.26 17.74-.59 8.82 0 17.76.69 26.61.57 7.34.55 14.55-.54 21.84-.44 2.96-.27 6.16.36 9.09.92 4.21 3.5 6.04 7.85 5.9 9.74-.31 19.47-.85 29.21-1.26 8.05-.34 16.11-.42 24.13-1.07 2.16-.17 4.24-1.93 6.24-3.14.37-.22.48-1.38.28-1.96-5.39-15.34-5.93-31.38-6.58-47.33-1.53-37.61-2.73-75.23-4.07-112.85-.03-.74-.11-1.48-.19-2.66-4.84.24-9.61-1.2-14.34 1.73-10.9 6.73-22.27 12.75-31.71 21.62-.46.43-1 .8-1.57 1.08-14.18 6.91-28.36 13.82-42.57 20.66-2.47 1.19-5.09 2.05-8.54 2.66.59-1.7.84-3.63 1.82-5.07 16.63-24.45 38.25-43.47 63.76-58.21 10.87-6.28 21.14-13.38 30.41-21.84 1.17-1.07 2.05-2.87 2.32-4.46.71-4.17.85-8.44 1.52-12.62.31-1.91 1.07-3.85 2.07-5.52 2.06-3.44 4.42-6.71 6.81-10.27 5.84 4.03 7.81 9.98 8.67 16.33 1.05 7.76 1.64 15.59 2.54 23.37.74 6.39 3.55 11.55 8.02 16.42 12.1 13.16 25.08 25.22 39.49 35.82 4.06 2.98 7.57 6.79 11.01 10.52 6.48 7.05 13.45 13.5 21.46 18.8 6.41 4.23 11.27 9.83 14.96 16.59 2.43 4.46 5.44 8.59 8.05 12.96 1.8 3.02 3.11 6.23 1.66 10.86-3.83-2.14-7.45-3.92-10.79-6.12-2.55-1.68-4.85-3.78-7.08-5.9-2.32-2.2-4.96-3.43-8.08-4.03-1.47-.29-3-1.09-4.17-2.06-16.29-13.58-32.54-27.21-48.74-40.89-2.67-2.25-5.08-4.81-7.62-7.22-2.65-2.51-6.24-4.93-9.28-3.45-2.08 1.01-3.41 5.31-3.56 8.21-.32 6.21.06 12.5.67 18.7 1.46 14.87 3.22 29.71 4.84 44.56.6 5.48 1.21 10.96 1.72 16.44.17 1.77.72 4.01-.09 5.27-2.15 3.34-1.36 6.46-.29 9.68 2.57 7.8 1.04 15.79 1.02 23.68-.02 5.31-.99 10.62-1.57 16.16 7.28 1.04 15.12 2.77 22.99 2.98 3.12.08 6.51-2.95 9.38-5.11.85-.64.68-3.19.35-4.73-2.37-11.33.54-22.35 1.74-33.47.41-3.79.82-7.58 1.16-11.38.27-3.05 1.56-5.18 4.84-5.92 5.98 9.09 10.03 18.98 11.45 29.69 1.34 10.06 1.82 20.24 2.68 30.36.41 4.86 1 9.71 1.19 14.58.12 2.94.05 6-.65 8.84-2.49 10.07-5.16 20.09-8.05 30.05-.6 2.07-2.49 3.75-3.76 5.63-2.19 3.23-4.6 6.34-6.46 9.75-2.01 3.67-4.65 6.56-8.26 8.52-6.59 3.57-13.17 7.16-19.91 10.42-2.12 1.03-4.74.98-7.11 1.52-3.98.91-8.12 1.45-11.86 2.98-3.82 1.56-7.42 1.92-11.38 1.15-3.48-.68-7.07-1.01-10.92-1.53zm7.44-24.31c6.43-.6 12.86-1.13 19.27-1.83 6.11-.67 11.52-3.06 15.53-7.81 5.4-6.39 10.72-12.87 15.72-19.57 2.04-2.73 3.76-6 4.56-9.29 1.76-7.18 0-7.43-5.52-7.61-15.77-.52-31.54-1.28-47.31-2.06-8.57-.43-17.13-1.61-25.69-1.54-10.85.09-21.69 2.65-32.54-.5-1.69-.49-4.62-.13-4.47 2.96.45 9.49 3.07 18.15 10.1 25 4.56 4.44 8.96 9.05 13.72 13.26 2.23 1.97 4.99 3.6 7.78 4.64 9.27 3.45 19 4.08 28.85 4.35z" fill="#010000"/><g fill="#fafafb"><path d="m361.2 9.6.8-1c.9.7 1.9 1.4 2.9 2.3l-.9 1.1c-1-1-2-1.8-2.8-2.4zm.5 10.6c.9-2.1 1.6-4.3 2.3-6.7.4.2.8.4 1.3.6-.7 2.1-1.5 4.3-2.2 6.6zm.4-15.2.9-.9c1 .8 2 1.6 2.8 2.4l-1 1c-.9-.9-1.8-1.7-2.7-2.5zm12.5-1.2h1.2v1.4h2.7v1.1h-2.7v2.7h-1.2v-.6h-1.8v1.3h4.9v3.8h-1.2v-.5h-3.7c0 .4-.1.9-.1 1.2h5.1v1h-5.2c0 .5-.1.9-.2 1.2h6v1h-5.2c1.1 1.3 2.9 2 5.5 2.2-.4.4-.7.8-.9 1.3-2.9-.5-4.8-1.6-5.7-3.5h-.1c-.8 1.7-2.7 2.9-5.9 3.6-.2-.4-.6-.8-.9-1.1 2.8-.6 4.6-1.4 5.4-2.5h-4.8v-1h5.3c.1-.3.2-.7.2-1.2h-4.9v-1h5c0-.4 0-.8.1-1.2h-3.5v.5h-1.2v-3.8h4.9v-1.3h-1.8v.5h-1.2v-2.7h-2.7v-1h2.6v-1.4h1.2v1.4h4.7v-1.4zm-6.6 8.3h3.6c0-.4 0-.9 0-1.4h-3.6zm1.9-4.6h4.7v-1.3h-4.7zm6.6 3.2h-3.7v1.4h3.7z"/><path d="m385.3 3.8h1.3v2.2h2.8v-2.2h1.3v2.2h4.1v9.1h1.7v1.3h-16.9v-1.3h1.7v-9.1h4.1v-2.2zm.4 13.1.7 1.2c-1.8.9-3.8 1.9-6 2.9-.2-.4-.5-.8-.8-1.3 2.3-1 4.3-1.9 6.1-2.8zm-3.1-6.4h2.8v-3.2h-2.8zm0 4.6h2.8v-3.3h-2.8zm4-4.6h2.8v-3.2h-2.8zm0 4.6h2.8v-3.3h-2.8zm3.7 1.9c2.1.9 4.1 1.8 6.1 2.7l-.7 1.3c-2.2-1.1-4.2-2-6.1-2.9zm3.2-9.7h-2.8v3.2h2.8zm-2.8 7.8h2.8v-3.3h-2.8z"/></g></svg>