<svg enable-background="new 0 0 400 400" viewBox="0 0 400 400" xmlns="http://www.w3.org/2000/svg"><path d="m82.42 324.19c-1.79-2.74-2.91-5.7-1.63-8.93 2.56-6.44 2.91-13.15 3.11-19.96.57-19.58 4.3-38.72 8.67-57.75.58-2.53 1.9-4.89 2.63-7.4 1.22-4.15 3.09-8.33 3.2-12.54.44-16.98 5.29-32.97 10.01-49.03 4.84-16.45 9.53-32.95 14.32-49.42.74-2.54 1.7-5 2.51-7.52 3.87-12.08 7.57-24.22 11.64-36.23 4.5-13.31 9.33-26.51 14.02-39.78 6.43.97 9.63 5.26 8.57 12.22-.82 5.33-2.1 10.59-3.18 15.88-.02.1-.03.21-.05.31-.99 7.25-.14 8.52 6.84 7.43 18.45-2.88 36.79.09 55.18.42 14.77.27 28.98 3.21 43.09 7.13.89.25 1.84.32 2.93.5 2.87-7.58 2.18-15.09.76-22.65-.55-2.91-1.22-5.83-1.36-8.77-.16-3.32.84-6.31 4.3-7.79 4.09-1.75 6.22-.79 7.38 3.36 2.8 9.99 5.61 19.98 8.37 29.98.36 1.31.77 2.71.69 4.04-1.2 19.62 2.13 38.87 4.64 58.19 1.03 7.97 1.47 16.04 1.8 24.08.18 4.49.48 8.86 2.34 13 3.73 8.28 4.57 17.18 5.06 26.05 1.33 24.02 6.97 47.32 11.08 70.89 2.07 11.86 2.65 23.98 3.71 36 .92 10.45 1.63 20.93 2.31 31.4.13 2.07.01 4.25-.48 6.26-1.57 6.37-3.56 12.64-5 19.04-.68 3.01-2.71 3.26-4.99 3.76-2.59.57-2.83-1.7-3.31-2.99-1.24-3.35-2.72-6.84-2.87-10.32-.55-13.44-3.11-26.51-6.69-39.39-3.68-13.27-4.42-26.94-6.28-40.47-2.88-20.88-5.9-41.74-9.09-62.57-.34-2.23-1.89-4.59-3.53-6.25-3.92-3.98-7.78-8.27-12.45-11.19-14.07-8.81-26.38-19.49-37.19-32.03-2.54-2.95-5.51-5.6-8.63-7.93-2.24-1.67-4.96-2.85-7.63-3.76-3.45-1.18-6.54-.67-9.71 1.84-27.27 21.58-54.7 42.95-82.02 64.46-1.24.97-2.25 2.51-2.84 3.99-5.6 14.15-7.57 29.04-8.93 44.06-1.05 11.55-3.62 22.76-7.54 33.69-2.25 6.26-4.03 12.7-5.84 19.1-1.16 4.13-3.13 7.16-7.92 7.59zm42.37-137.31c.73-.2 1.14-.27 1.52-.43 8.52-3.51 16.08-8.56 22.86-14.72 12.47-11.32 24.82-22.77 37.2-34.18 2.72-2.51 3.09-7.29.86-10.16-6.37-8.2-13.14-16.12-18.98-24.68-4.36-6.39-9.67-10.19-17.31-11.14-2.02-.25-3.2-.17-3.9 1.85-2.1 5.98-4.33 11.91-6.34 17.92-1.4 4.19-3.37 7.93-6.61 11.03-.94.9-1.5 2.5-1.68 3.85-1.7 12.81-3.29 25.63-4.89 38.45-.92 7.33-1.8 14.65-2.73 22.21zm99.94-52.87c12.46 12.16 24.29 23.55 35.91 35.15 2.54 2.54 5.09 3.57 8.64 3.45 2.51-.08 3.23-1.05 3.65-3.2 1.63-8.32 1.21-16.63.44-25-1.14-12.32-4.3-24.44-3.4-36.95.35-4.86-2.27-7.91-6.81-9.67-2.56 3.31-5.03 6.62-7.63 9.83-1.59 1.96-3.17 4-5.1 5.59-8.39 6.93-16.92 13.71-25.7 20.8zm-42.43-42.54c7.15 8.93 13.49 16.87 19.85 24.8 3.41 4.25 3.42 4.24 8.55 2.17 8.73-3.51 15.56-9.78 22.64-15.65 2.63-2.18 2.07-6.88-.97-8.82-1.83-1.16-4-1.98-6.12-2.47-10.94-2.53-21.95-4.69-33.25-2.61-3.35.62-6.64 1.59-10.7 2.58z" fill="#010000"/><g fill="#fafafb"><path d="m361.2 9.6.8-1c.9.7 1.9 1.4 2.9 2.3l-.9 1.1c-1-1-2-1.8-2.8-2.4zm.5 10.6c.9-2.1 1.6-4.3 2.3-6.7.4.2.8.4 1.3.6-.7 2.1-1.5 4.3-2.2 6.6zm.4-15.2.9-.9c1 .8 2 1.6 2.8 2.4l-1 1c-.9-.9-1.8-1.7-2.7-2.5zm12.5-1.2h1.2v1.4h2.7v1.1h-2.7v2.7h-1.2v-.6h-1.8v1.3h4.9v3.8h-1.2v-.5h-3.7c0 .4-.1.9-.1 1.2h5.1v1h-5.2c0 .5-.1.9-.2 1.2h6v1h-5.2c1.1 1.3 2.9 2 5.5 2.2-.4.4-.7.8-.9 1.3-2.9-.5-4.8-1.6-5.7-3.5h-.1c-.8 1.7-2.7 2.9-5.9 3.6-.2-.4-.6-.8-.9-1.1 2.8-.6 4.6-1.4 5.4-2.5h-4.8v-1h5.3c.1-.3.2-.7.2-1.2h-4.9v-1h5c0-.4 0-.8.1-1.2h-3.5v.5h-1.2v-3.8h4.9v-1.3h-1.8v.5h-1.2v-2.7h-2.7v-1h2.6v-1.4h1.2v1.4h4.7v-1.4zm-6.6 8.3h3.6c0-.4 0-.9 0-1.4h-3.6zm1.9-4.6h4.7v-1.3h-4.7zm6.6 3.2h-3.7v1.4h3.7z"/><path d="m385.3 3.8h1.3v2.2h2.8v-2.2h1.3v2.2h4.1v9.1h1.7v1.3h-16.9v-1.3h1.7v-9.1h4.1v-2.2zm.4 13.1.7 1.2c-1.8.9-3.8 1.9-6 2.9-.2-.4-.5-.8-.8-1.3 2.3-1 4.3-1.9 6.1-2.8zm-3.1-6.4h2.8v-3.2h-2.8zm0 4.6h2.8v-3.3h-2.8zm4-4.6h2.8v-3.2h-2.8zm0 4.6h2.8v-3.3h-2.8zm3.7 1.9c2.1.9 4.1 1.8 6.1 2.7l-.7 1.3c-2.2-1.1-4.2-2-6.1-2.9zm3.2-9.7h-2.8v3.2h2.8zm-2.8 7.8h2.8v-3.3h-2.8z"/></g></svg>