<svg enable-background="new 0 0 400 400" viewBox="0 0 400 400" xmlns="http://www.w3.org/2000/svg"><path d="m362.1 8.8c1.1.8 2.1 1.6 3.1 2.4l-1 1.1c-1.3-1.1-2.3-2-3-2.5zm1.9 4.8c.5.2.9.4 1.4.5-.6 2.3-1.3 4.5-1.9 6.8l-1.5-.5c.8-2.1 1.4-4.3 2-6.8zm-1-9.4c1.3.9 2.4 1.8 3.4 2.5l-1 1.1c-1.4-1.2-2.4-2.1-3.2-2.6zm3.7 2.2v-1.4h10.3v1.2c-.5 3.6-1.8 6.8-4 9.4 1.5 1.6 3.4 2.8 5.7 3.8-.3.4-.7.8-1.1 1.4-2.3-1.1-4.1-2.5-5.6-4.1-1.6 1.6-3.6 3.1-5.9 4.3-.3-.5-.7-.9-1-1.3 2.4-1.1 4.4-2.5 6-4.1-1.9-2.5-3-5.6-3.3-9.3h-1.1zm8.8 0h-6.4c.3 3.3 1.3 6 3 8.2 2-2.3 3.1-5.1 3.4-8.2z" fill="#fbfcfa"/><path d="m385.3 3.8h1.3v2.2h2.8v-2.2h1.3v2.2h4.1v9.1h1.7v1.3h-16.9v-1.3h1.7v-9.1h4.1v-2.2zm.4 13.1.7 1.2c-1.8.9-3.8 1.9-6 2.9-.2-.4-.5-.8-.8-1.3 2.3-1 4.3-1.9 6.1-2.8zm-3.1-6.4h2.8v-3.2h-2.8zm0 4.6h2.8v-3.3h-2.8zm4-4.6h2.8v-3.2h-2.8zm0 4.6h2.8v-3.3h-2.8zm3.7 1.9c2.1.9 4.1 1.8 6.1 2.7l-.7 1.3c-2.2-1.1-4.2-2-6.1-2.9zm3.2-9.7h-2.8v3.2h2.8zm-2.8 7.8h2.8v-3.3h-2.8z" fill="#fbfcfa"/><path d="m162.48 42.37c2.89 6.33 5.85 12.63 8.65 19.01 3.49 7.94 6.62 16.05 10.34 23.88 2.61 5.47 6.3 10.27 12.02 13.53 3.17-4.06 5.02-8.6 6.27-13.4.88-3.38 1.7-6.8 2.14-10.26 1.37-10.8 7.12-19.83 11.61-29.37 1.4-2.97 2.8-5.95 4.46-8.77.47-.79 1.94-1.53 2.85-1.43 4.22.49 7.9 2.19 10.6 5.66 4.16 5.35 8.46 10.58 12.54 15.99 4.3 5.7 6.19 12.28 5.86 19.37-.31 6.74 2.2 12.63 4.93 18.5 3.3 7.11 6.97 14.09 7.03 22.22v2.02c-3.81-.4-7.21-.08-10.33-3.69-7.48-8.66-12.91-18.2-16.08-29.18-1.4-4.87-4.18-8.78-9.73-9.83-2.16-.41-3.38.1-4.58 2.14-8.4 14.31-12.02 30.14-15.66 46.09-4.02 17.6-3.37 35.37-3.68 53.15-.08 4.77-.16 9.55-.51 14.3-.62 8.32.73 16.46 1.58 24.68 1.26 12.22 1.84 24.51 2.7 36.78.23 3.28.26 6.58.68 9.83.18 1.42 1.12 2.74 2.05 4.87 5.6-6.19 10.46-11.6 15.36-16.98 7.35-8.06 13.81-17.07 23.09-23.1 5.02-3.26 10.57-5.74 15.98-8.35.98-.47 2.47.11 4.25.24-3.28 6.63-6.1 12.43-9.05 18.16-.51.98-1.52 1.73-2.37 2.51-17.94 16.4-33.95 34.39-46.03 55.63-2.56 4.5-4.06 8.96-3.72 14.64.96 15.96 1.11 32.03-4.13 47.51-.84 2.49-2.04 4.86-3.19 7.56-4.96-4.95-6.45-10.86-6.7-17.21-.1-2.65-.2-5.32.04-7.95.54-5.8-.19-11.17-2.69-16.62-1.71-3.72-1.61-8.25-2.52-12.37-.3-1.34-1-2.78-1.94-3.77-5.43-5.66-10.96-11.24-16.52-16.76-1.25-1.24-2.65-2.6-4.24-3.2-4.43-1.66-7.72-4.5-10.63-8.17-5.61-7.05-11.48-13.88-18.66-19.46-3.16-2.46-4.75-5.87-5.36-9.79-.25-1.61.11-2.91 1.82-3.02 3.31-.22 6.77-.77 9.92-.07 5 1.11 9.16 4 12.86 7.74 5.74 5.79 11.87 11.2 17.89 16.71 1.24 1.13 2.7 2.06 4.13 2.95 5.05 3.17 6.46 2.8 7.57-3.17.76-4.1.37-8.42.43-12.64.09-5.91-.37-11.88.31-17.72 1.32-11.23 1.56-22.32-.97-33.43-1.27-5.57-.64-11.17.83-16.67.19-.69.59-1.78.29-2.08-4.76-4.66-2.46-10.11-1.67-15.28 1.18-7.74 3.36-15.38 3.94-23.15 1.14-15.35-1.53-30.19-8.59-44.02-.91-1.79-2.69-3.31-4.39-4.49-4.95-3.41-6.45-8.39-6.97-13.94-.25-2.64-.32-5.36-3.26-6.73-2.28-1.06-3.99-1.14-5.47 1.5-4.52 8.05-6.96 16.76-9.04 25.66-1.39 5.96-3.07 11.87-5.07 17.65-1.28 3.69-3.53 6.96-7.35 8.76-2.67-2.29-3.49-5-2.74-8.32.39-1.74.78-3.58.63-5.33-1.15-13.29 2.02-25.88 5.95-38.37 1.08-3.43 2.01-6.93 3.36-10.26 1.86-4.57 4.07-9 6.11-13.5 1.62-3.56 3.2-7.14 4.81-10.71 1.52-3.29 3.68-5.86 7.96-6.68z" fill="#010101"/></svg>