<svg enable-background="new 0 0 400 400" viewBox="0 0 400 400" xmlns="http://www.w3.org/2000/svg"><path d="m362.1 8.8c1.1.8 2.1 1.6 3.1 2.4l-1 1.1c-1.3-1.1-2.3-2-3-2.5zm1.9 4.8c.5.2.9.4 1.4.5-.6 2.3-1.3 4.5-1.9 6.8l-1.5-.5c.8-2.1 1.4-4.3 2-6.8zm-1-9.4c1.3.9 2.4 1.8 3.4 2.5l-1 1.1c-1.4-1.2-2.4-2.1-3.2-2.6zm3.7 2.2v-1.4h10.3v1.2c-.5 3.6-1.8 6.8-4 9.4 1.5 1.6 3.4 2.8 5.7 3.8-.3.4-.7.8-1.1 1.4-2.3-1.1-4.1-2.5-5.6-4.1-1.6 1.6-3.6 3.1-5.9 4.3-.3-.5-.7-.9-1-1.3 2.4-1.1 4.4-2.5 6-4.1-1.9-2.5-3-5.6-3.3-9.3h-1.1zm8.8 0h-6.4c.3 3.3 1.3 6 3 8.2 2-2.3 3.1-5.1 3.4-8.2z" fill="#fbfcfa"/><path d="m385.3 3.8h1.3v2.2h2.8v-2.2h1.3v2.2h4.1v9.1h1.7v1.3h-16.9v-1.3h1.7v-9.1h4.1v-2.2zm.4 13.1.7 1.2c-1.8.9-3.8 1.9-6 2.9-.2-.4-.5-.8-.8-1.3 2.3-1 4.3-1.9 6.1-2.8zm-3.1-6.4h2.8v-3.2h-2.8zm0 4.6h2.8v-3.3h-2.8zm4-4.6h2.8v-3.2h-2.8zm0 4.6h2.8v-3.3h-2.8zm3.7 1.9c2.1.9 4.1 1.8 6.1 2.7l-.7 1.3c-2.2-1.1-4.2-2-6.1-2.9zm3.2-9.7h-2.8v3.2h2.8zm-2.8 7.8h2.8v-3.3h-2.8z" fill="#fbfcfa"/><path d="m280.74 293.73c4.16 7.23 2.37 14.06-.88 20.9-.84 1.76-1.34 3.74-1.68 5.68-.75 4.25-.69 8.74-2.07 12.75-2.78 8.08-6.16 15.98-9.62 23.8-1.08 2.44-3.06 4.56-4.9 6.58-2.13 2.34-4.96 2.83-8.12 2.69-4.84-.22-9.69.08-14.54.05-5.7-.04-11.39-.19-17.09-.32-1.16-.03-2.33-.34-3.48-.28-10.35.55-18.81-4.12-27.2-9.39-9.9-6.22-16.08-14.94-19.02-26.15-.4-1.51-1.12-2.93-1.75-4.55 2.51-.51 3.54.42 4.3 2.59.63 1.82 1.78 3.66 3.19 4.98 1.99 1.86 3.73 1.39 4.55-1.16.94-2.9 1.59-5.93 2.02-8.96 1.55-10.79 2.99-21.6 4.36-32.42.2-1.59.28-3.6-.5-4.84-3.35-5.32-4.29-10.75-2.62-16.89.58-2.15.05-4.78-.56-7.04-1.25-4.67-2.26-9.2-2.46-14.19-.21-5.25-2.67-10.64-5.08-15.52-3.27-6.63-5.52-13.23-4.66-20.72.11-.98-.6-2.53-1.42-3.07-8.47-5.56-13.79-13.55-18.16-22.45-1.65-3.36-4.2-6.28-6.28-9.43-3.66-5.56-7.27-11.17-10.91-16.74-2.26-3.45-4.45-6.95-6.89-10.26-.97-1.32-2.43-2.39-3.87-3.22-3.4-1.94-4.99-1.37-7.02 1.99-1.97 3.27-3.94 6.58-8.64 8.17-.27-3.29-1.2-6.49-.66-9.41 1.75-9.46 3.58-18.95 6.31-28.16 1.65-5.58 5.4-10.51 7.48-16.01 2.2-5.81 3.4-12 5.32-17.93.87-2.68 2.54-5.09 3.63-7.72.53-1.27.56-2.76.82-4.14.18-.99.03-2.3.62-2.91 5.23-5.52 7.14-12.63 9.59-19.49 1.97-5.53 3-6.77 8.34-10.15 4.37 5.03 4.59 10.07.96 15.54-3.74 5.64-6.66 11.65-5.95 18.67.16 1.58 1.18 3.49 2.43 4.47 7.33 5.73 14.52 11.71 23.46 14.93.38.14.93.36 1.02.66 1.09 3.69 4.2 4.22 7.31 4.96.9.21 1.68 1.21 2.37 1.97 3.19 3.55 6.18 7.29 9.54 10.67 2.41 2.44 5.33 4.38 7.92 6.65 1.07.94 2.22 2.01 2.76 3.27 2.29 5.33 5.33 10.05 9.78 13.88 1.04.9 1.71 2.39 2.19 3.74 1.56 4.39 2.81 8.89 4.48 13.23.53 1.38 1.9 2.52 3.07 3.55 1.42 1.26 3.01 2.33 4.59 3.4.47.32 1.14.6 1.66.52 6.46-.98 12.94-1.85 19.35-3.11 5.21-1.03 9.36-5.62 9.37-11.12.02-10.93-1.93-21.38-8.62-30.58-4.81-6.61-10.33-12.32-17.34-16.52-10.39-6.22-17.8-15.61-25.91-24.24-2.45-2.61-5.03-4.75-8.42-5.96-4.94-1.77-9.07-4.79-13.18-8.05-4.62-3.67-9.76-6.71-14.83-9.78-4.36-2.64-8.01-5.88-10.45-10.39-1.45-2.67.64-6.16 3.74-5.97 3.23.2 6.95-.4 8.23 4.05.17.6 1.29 1 2.04 1.36 2.76 1.34 5.49 2.78 8.34 3.9 3.94 1.56 7.32 3.69 9.73 7.28.68 1.01 1.77 1.81 2.81 2.53 4.27 2.95 8.51 5.98 12.93 8.69 3.97 2.43 7.22 5.45 9.73 9.36.64 1 1.69 2.04 2.78 2.41 5.4 1.81 9.43 5.44 13.51 9.2 2.1 1.93 4.74 3.52 7.42 4.51 4.97 1.84 9.36 3.95 10.4 9.83.32 1.82 1.57 2.42 3.29 2.84 1.07.27 2.18 1.35 2.79 2.36 1.85 3.06 3.28 6.38 5.19 9.39 4.65 7.33 6.78 15.45 8.02 23.9 2.16 14.67 4.27 29.35 6.52 44.01.41 2.7 1.25 5.36 2.14 7.95 2.64 7.71 4 15.42 2.49 23.67-.66 3.63.08 7.62.69 11.37 1.06 6.6.74 13.02-.93 19.48-.46 1.77-.28 4.06.47 5.73 3.76 8.39 4.89 17.32 5.52 26.29.5 6.96-1 13.52-5.86 18.84zm-5.73-19.15c.19-9.03-1.21-10.55-7.7-10.78-.32-.01-.63-.06-.95-.07-11.51-.38-23.04-1.07-34.1 3.38-1.73.7-3.68 1.13-5.54 1.17-8.81.19-16.6 2.61-22.5 9.57-.41.48-.93.88-1.46 1.22-1.68 1.1-2.16 2.44-1.88 4.55 1.37 10.3 1.92 20.54-.42 30.89-2.43 10.72-4.04 21.63-6.01 32.46-.49 2.72-.65 5.58 2.23 6.98 7.64 3.72 16.62 1.23 21.24-5.89 7.01-10.8 14.65-21 24.9-29.02 1.09-.85 1.72-2.31 2.53-3.51.94-1.37 1.64-2.96 2.8-4.1 7.19-7.04 14.5-13.96 21.71-20.98.95-.93 1.97-2.08 2.29-3.31 1.26-4.89 2.26-9.86 2.86-12.56zm-65.46-106.7c-2.11-6.38-3.96-12.44-6.15-18.38-1.08-2.93-2.5-5.83-4.27-8.4-8.47-12.28-18.41-23.26-30.14-32.51-8.09-6.38-16.92-11.53-27.07-14.81-.88 1.49-1.87 2.87-2.55 4.38-1.34 2.99-2.39 6.1-3.77 9.07-1.19 2.56-2.72 4.97-4.01 7.49-.83 1.62-1.79 3.25-2.21 4.99-.52 2.14-.77 4.42-.67 6.62.06 1.38.61 3.18 1.59 4.01 3.34 2.81 5.71 6.09 7.15 10.22.55 1.58 1.75 3.2 3.1 4.19 2.56 1.87 3.97 4.17 4.61 7.23 1.04 4.91 2.98 9.13 8.23 11.21 2.82 1.12 2.89 3.09.87 5.69 3.53 3.19 7.31 6.15 10.52 9.64 3.38 3.67 7.58 3.72 11.35 2.38 11.15-3.93 22.07-8.53 33.42-13.02zm19.59 5.75c0 9.95-.05 19.34.04 28.74.02 1.66.61 3.32.89 4.98 1.34 7.92 2.86 15.81 3.92 23.77.64 4.81.47 9.72.87 14.57.08.94.87 2.25 1.68 2.62 4.04 1.84 8.11 3.72 12.33 5.04 5.54 1.72 11.13 1.53 16.21-1.68 1.14-.72 2.46-2.05 2.65-3.26 1.8-11.49 2.15-22.97-.88-34.36-.42-1.59-.49-3.34-.42-5 .27-6.33 1.01-12.67-2.32-18.59-.6-1.06-.44-2.69-.27-4.01.58-4.41.17-8.57-1.78-12.67-.77-1.62-.9-3.64-.94-5.49-.06-2.79-1.45-4.07-4.21-3.24-9.38 2.86-18.76 5.8-27.77 8.58zm-53.37 16.5c1.22 4.47 2.91 8.1 3.05 11.78.16 4.48 1.68 7.85 4.57 11.08 1.92 2.14 3.83 4.64 4.67 7.32 3.47 11.08 6.51 22.3 9.78 33.44.47 1.61 1.38 3.08 2.01 4.66.78 1.96 2.28 2.84 4.24 2.5 4.24-.73 8.6-1.23 12.64-2.62 8.1-2.79 8.02-3.01 5.91-11.1-.35-1.33-.67-2.67-1.1-3.98-2.29-6.92-3.12-14.01-2.66-21.27.54-8.62-4.07-16.74-2.26-25.6.45-2.19-1.73-4.88-2.61-7.38-.48-1.38-.98-2.82-1.09-4.27-.35-4.58-1.88-5.42-6.3-3.81-4.86 1.78-9.8 3.31-14.76 4.79-5.25 1.57-10.56 2.94-16.09 4.46zm89.38 121.22c-2.66 2.72-4.96 5.39-7.58 7.68-3.43 2.99-7.04 5.8-10.73 8.47-2.51 1.81-4.05 4.08-5.26 6.9-.96 2.22-2.52 4.36-4.3 6.02-3.33 3.1-7.13 5.69-10.48 8.77-1.1 1.01-1.4 2.89-2.07 4.38 1.38.62 2.72 1.61 4.15 1.78 4.52.52 9.14.37 13.6 1.15 6.44 1.12 10.69-1.54 13.68-6.82 2.92-5.15 5.83-10.34 8.35-15.69 1.07-2.27 1.25-5 1.66-7.54.5-3.17.6-6.41 1.28-9.53.62-2.82-.06-4.6-2.3-5.57z" fill="#010101"/></svg>