<svg enable-background="new 0 0 400 400" viewBox="0 0 400 400" xmlns="http://www.w3.org/2000/svg"><path d="m248.59 366.37c-2.28-9.51-7.07-18.04-6.18-28.18.35-3.97-1.91-8.15-2.87-12.26-1.73-7.35-2.69-14.67-.99-22.26.71-3.19.11-6.72-.12-10.08-.44-6.45-1.6-12.91-1.42-19.33.17-6.09 1.37-12.2 2.66-18.18 1.04-4.83 2.62-9.6 4.47-14.19 1.83-4.56.88-8.48-1.56-12.33-.68-1.07-1.4-2.17-2.32-3.02-7.26-6.66-11.61-15.27-16.13-23.79-.64-1.21-1.17-2.63-2.15-3.48-6.97-5.98-11.47-13.83-16.32-21.4-1.04-1.63-2.09-2.21-3.88-1.46-1.64.69-2.53-.06-3.11-1.61-.51-1.36-1.19-2.65-1.92-4.23-5.84 6.91-11.76 13.25-16.79 20.24-1.84 2.55-1.62 6.62-2.25 10.02-1.06 5.71-2.07 11.43-3.04 17.16-.19 1.14-.23 2.31-.23 3.47-.01 17.5.23 35-.09 52.5-.22 12.39-1.19 24.77-1.83 37.16-.12 2.25-.73 4.15-3.55 4.73-.28-4.97-.37-9.8-.88-14.59-.8-7.47-1.89-14.92-2.84-22.37-.17-1.36-.39-2.73-.39-4.1-.05-12.09-.33-24.19.06-36.27.19-5.65 1.56-11.29 2.69-16.88 1.04-5.14 1.45-10.22.11-16.01-1.17 1.44-2.11 2.5-2.94 3.65-5.23 7.29-10.25 14.76-15.79 21.82-1.49 1.9-4.55 2.58-6.88 3.81-.34-.32-.69-.64-1.03-.96 1.65-2.82 3.32-5.63 4.93-8.47 1.35-2.37 3.2-4.65 3.8-7.21 1.43-6.07 4.9-10.38 9.76-13.97 1.35-.99 2.72-2.58 3.1-4.13 1.34-5.51 5.07-9.09 8.99-12.75 2.66-2.48 4.8-5.51 7.15-8.31.47-.56.71-1.44 1.29-1.77 7.67-4.43 10.91-12.47 15.73-19.21.8-1.11 1.48-2.31 2.16-3.39-1.33-3.75-7.36-4.24-6.67-9.83-3.77.41-5.55-2.91-7.73-5.67-2.7-3.41-5.56-6.7-8.06-10.25-1.99-2.82-3.46-6-5.33-8.91-1.08-1.68-2.52-3.13-3.74-4.72-.55-.72-1.04-1.51-1.44-2.33-1.37-2.8-2.43-5.78-4.07-8.4-3.77-6.05-8.03-11.93-7.46-19.49.21-2.83 1.48-5.62 2.51-8.34 1.57-4.15 3.34-8.22 5.04-12.32 1.33-3.22 3.2-5.88 7.77-7-.18 3.11.18 5.93-.62 8.36-1.25 3.78-3.05 7.43-5.05 10.89-3.13 5.41-4.65 14.61 1.12 21.39 4.36 5.12 9.09 10.12 11.01 16.91.22.76.95 1.39 1.46 2.06 4.51 6.01 8.96 12.07 13.56 18.02 1.77 2.29 3.88 4.33 6.07 6.73 2.65-4.65 2.66-9.09 1.86-13.48-1.29-7.08-3.53-14.04-4.23-21.16-1.3-13.22-.72-26.46 2.27-39.49.3-1.29 1.1-2.5 1.82-3.66 4.93-7.91 9.82-15.84 14.92-23.64 1.1-1.69 2.93-2.97 4.6-4.19.71-.52 2.17-.87 2.75-.49.68.44 1.29 1.96 1.04 2.7-1.15 3.37-2.3 6.8-4.04 9.88-2.76 4.88-6.35 9.3-8.88 14.27-1.62 3.18-1.98 7-2.9 10.53-.18.7-.13 1.61-.57 2.06-1.86 1.95-1.36 4.25-1.36 6.58-.01 6.02-.33 12.04-.28 18.05.02 2.21.72 4.42 1.1 6.63.36 2.07.75 4.14 1.03 6.22.22 1.67.29 3.36.43 5.11 3.18.8 5.69.6 7.42-2.49.76-1.36 1.94-2.52 3.03-3.67 4.9-5.18 7.71-10.98 6.49-18.4-1.29-7.87 2.6-14.77 5.49-21.53 1.37-3.19 3.74-6.08 4.68-9.7.33-1.26 2.01-2.16 3.07-3.23.27.15.54.31.82.46-.35 2.14-.25 4.49-1.13 6.37-5.37 11.4-4.78 23.7-5.99 35.78-.56 5.57-2.27 11.12-6.31 15.55-4.64 5.09-9.2 10.27-13.62 15.55-.91 1.09-1.52 2.78-1.55 4.21-.16 7.51.23 15.02-2.01 22.39-.52 1.7.04 4.1.9 5.77 4.84 9.39 10.5 18.17 20.16 23.43 2.1 1.14 3.32 2.75 3.72 5.12.76 4.48 3.04 8.22 5.53 11.97 5.14 7.76 10.19 15.61 14.74 23.72 3.41 6.09 3.96 12.52.04 18.99-3.33 5.5-2.74 11.92-2.89 18.01-.3 11.34-.15 22.69-.14 34.04 0 .93.01 2.06.5 2.74 2.79 3.87 2.73 8.42 3.04 12.81.73 10.15 1.26 20.31 1.68 30.48.06 1.41-.65 3.09-1.52 4.25-1.29 1.72-1.7 3.25-.83 5.25.59 1.35.93 2.81 1.33 4.24 1.05 3.92.51 4.91-3.98 6.5z" fill="#010000"/><g fill="#fafafb"><path d="m361.2 9.6.8-1c.9.7 1.9 1.4 2.9 2.3l-.9 1.1c-1-1-2-1.8-2.8-2.4zm.5 10.6c.9-2.1 1.6-4.3 2.3-6.7.4.2.8.4 1.3.6-.7 2.1-1.5 4.3-2.2 6.6zm.4-15.2.9-.9c1 .8 2 1.6 2.8 2.4l-1 1c-.9-.9-1.8-1.7-2.7-2.5zm12.5-1.2h1.2v1.4h2.7v1.1h-2.7v2.7h-1.2v-.6h-1.8v1.3h4.9v3.8h-1.2v-.5h-3.7c0 .4-.1.9-.1 1.2h5.1v1h-5.2c0 .5-.1.9-.2 1.2h6v1h-5.2c1.1 1.3 2.9 2 5.5 2.2-.4.4-.7.8-.9 1.3-2.9-.5-4.8-1.6-5.7-3.5h-.1c-.8 1.7-2.7 2.9-5.9 3.6-.2-.4-.6-.8-.9-1.1 2.8-.6 4.6-1.4 5.4-2.5h-4.8v-1h5.3c.1-.3.2-.7.2-1.2h-4.9v-1h5c0-.4 0-.8.1-1.2h-3.5v.5h-1.2v-3.8h4.9v-1.3h-1.8v.5h-1.2v-2.7h-2.7v-1h2.6v-1.4h1.2v1.4h4.7v-1.4zm-6.6 8.3h3.6c0-.4 0-.9 0-1.4h-3.6zm1.9-4.6h4.7v-1.3h-4.7zm6.6 3.2h-3.7v1.4h3.7z"/><path d="m385.3 3.8h1.3v2.2h2.8v-2.2h1.3v2.2h4.1v9.1h1.7v1.3h-16.9v-1.3h1.7v-9.1h4.1v-2.2zm.4 13.1.7 1.2c-1.8.9-3.8 1.9-6 2.9-.2-.4-.5-.8-.8-1.3 2.3-1 4.3-1.9 6.1-2.8zm-3.1-6.4h2.8v-3.2h-2.8zm0 4.6h2.8v-3.3h-2.8zm4-4.6h2.8v-3.2h-2.8zm0 4.6h2.8v-3.3h-2.8zm3.7 1.9c2.1.9 4.1 1.8 6.1 2.7l-.7 1.3c-2.2-1.1-4.2-2-6.1-2.9zm3.2-9.7h-2.8v3.2h2.8zm-2.8 7.8h2.8v-3.3h-2.8z"/></g></svg>