<svg enable-background="new 0 0 400 400" viewBox="0 0 400 400" xmlns="http://www.w3.org/2000/svg"><path d="m123.9 359.09c1.43-7.62 2.79-14.89 4.17-22.16 8.45-44.21 16.93-88.42 25.35-132.64.51-2.67 1.55-4.83 3.49-6.87 8.75-9.23 16.53-19.21 19.66-31.82 1.62-6.55 2.05-13.39 3.09-20.09 1.57-10.16 3.21-20.3 4.8-30.45.18-1.12.25-2.26.42-3.79-6.73 1.11-13.18 2.17-19.62 3.25-10.76 1.8-21.5 3.69-32.28 5.39-2.27.36-3.81 1.19-5.12 3.13-9.77 14.56-15.38 30.82-19.64 47.63-5.22 20.61-7.45 41.69-9.59 62.78-3.53 34.71-8.39 69.2-16.74 103.13-.17.7-.41 1.39-.89 2.99-.16-1.61-.29-2.32-.29-3.03-.01-16.01-.01-32.03 0-48.04 0-.94-.11-2.03.3-2.81 5.88-11.31 7.18-23.7 8-36.04 1.26-18.93 1.72-37.91 2.63-56.86 1.06-22.17 3.23-44.12 10.32-65.4 3.25-9.77 8.9-16.62 18.64-19.93 12.81-4.36 25.66-8.63 38.5-12.91 6.83-2.27 13.72-4.36 20.48-6.82 1.26-.46 2.6-2.15 2.93-3.51 1.79-7.3 3.18-14.7 4.92-22.01.54-2.28.09-3.34-2.11-4.3-15.61-6.83-31.59-7.27-47.89-3.17-9.2 2.31-18.43 3.93-27.94 1.73-8.48-1.96-15.74-6-22.35-12.54 5.57-1.06 10.68-2.03 15.8-3 9.57-1.83 19.08-4.08 28.73-5.36 6.88-.92 13.94-.75 20.91-.69 13.14.12 26.27.55 39.41.78 33.91.59 67.83 1.12 101.74 1.73 8 .14 7.99.23 9.89 8.22.31 1.32.65 2.65 1.17 4.77-9.17.95-18.07 2.16-27.01 2.72-12.01.76-23.91-.45-35.7-2.89-12.7-2.63-22.65 1.85-30.28 12.04-5.41 7.23-8.66 15.46-11.45 24.4 6 1.55 11.88 3.09 17.78 4.58 17.66 4.46 35.33 8.86 52.96 13.4 1.76.45 3.57 1.38 4.93 2.57 13.43 11.79 21.21 27.01 26.19 43.87 4.72 15.98 5.8 32.48 7.09 48.97 1.87 23.88 4.06 47.74 6.13 71.61.32 3.7.53 7.42 1.2 11.06.48 2.62-.08 4.24-2.6 5.18-.97.36-1.85.93-3.6 1.83-2.97-9.12-6.24-17.81-8.62-26.75-5.64-21.22-6.51-42.89-4.89-64.69 1.04-14.01 1.5-27.94-2.85-41.59-6.21-19.51-19.46-32.62-37.37-41.55-.98-.49-2.26-.51-3.4-.52-14.53-.03-29.06.04-43.59-.08-2.67-.02-3.32.94-3.59 3.43-1.72 16.02-3.56 32.02-5.5 48.01-.3 2.46.1 4.05 2.24 5.62 10.75 7.93 21.39 16.01 31.95 24.18 1.24.96 2.31 2.77 2.52 4.32 4.09 29.71 7.75 59.48 12.12 89.14 2.52 17.12 8.77 32.84 20.34 46.2 7.7 8.89 14.87 18.24 22.27 27.37-3.78 4.66-9.61 6.22-15 4.02-1.27-.52-2.48-1.27-3.79-1.62-9.69-2.59-14.97-9.59-19.53-18-9.19-16.95-14.93-35.02-18.89-53.74-2.34-11.08-3.94-22.33-6.55-33.35-2.81-11.84-6.41-23.49-9.68-35.21-1.99-7.13-4.03-14.24-6.09-21.52-8.81.72-17.45 1.41-26.1 2.13-3.7.3-7.39.78-11.09.91-1.95.07-3 .88-4.01 2.45-9.01 13.96-13.72 29.4-14.63 45.8-.69 12.57.02 25.2-.14 37.81-.35 26.84-11.25 48.72-31.5 66.12-.14.12-.37.15-1.16.48z" fill="#010105"/><g fill="#fafbfa"><path d="m377.9 391.2c-.2.3-.4.5-.6.8-.7-.6-1.4-1-2.2-1.5.2-.3.4-.5.5-.8.6.4 1.4.8 2.3 1.5zm-1.8 6.1c-.2-.2-.5-.4-.9-.6.4-.6.8-1.2 1.2-1.9s.7-1.3.9-1.9c.3.3.5.5.8.7-.7 1.3-1.4 2.6-2 3.7zm2.2-9c-.3.3-.5.5-.6.8-.6-.6-1.3-1.1-2-1.5.3-.3.5-.5.6-.7.6.5 1.3.9 2 1.4zm.3.2v-.9h2 4.5c-.3 1.3-.6 2.5-1 3.6s-.9 2.1-1.4 3c.4.5 1 1 1.6 1.4s1.2.8 1.9 1.1c-.3.2-.5.4-.8.8-.4-.3-1-.7-1.6-1.2s-1.2-1.1-1.6-1.6c-.5.6-1.1 1.1-1.7 1.6s-1.4.9-2.1 1.4c-.1-.3-.3-.5-.7-.8.6-.2 1.2-.5 1.9-1s1.4-1.1 2-1.8c-.5-.8-.9-1.6-1.2-2.5s-.6-2-.8-3.2c-.4.1-.7.1-1 .1zm2.5 2.7c.3 1 .7 1.7 1 2.2.3-.5.6-1.1 1-2s.6-1.9.9-3h-3.2-.4c.1.9.3 1.8.7 2.8z"/><path d="m396.5 388.5v1.5 3.6h1.5v.9c-.4 0-1 0-1.7 0h-7.9c-.5 0-.9 0-1.2 0v-.9h1.3v-3.5c0-.7 0-1.2 0-1.6h2.4c0-.8 0-1.4 0-1.7h1c0 .3-.1.8-.1 1.7h1.5c0-.8 0-1.4 0-1.7h1c0 .3-.1.9-.1 1.7zm-8.2 9.2c-.2-.3-.5-.5-.8-.8.8-.3 1.4-.6 1.9-.9s1-.7 1.4-1.1c.3.3.6.5.9.8-1.6 1-2.8 1.6-3.4 2zm2.6-6.8v-1.6h-1.5v1.6zm0 2.7v-1.9h-1.5v1.9zm2.4-2.7v-1.6h-1.5v1.6zm0 2.7v-1.9h-1.5v1.9zm.2 2 .7-.8c.4.2.9.5 1.6.8s1.3.7 1.8 1c-.3.3-.5.5-.8.8-.4-.3-1.5-1-3.3-1.8zm2-4.7v-1.6h-1.4v1.6zm0 2.7v-1.9h-1.4v1.9z"/></g></svg>