<svg enable-background="new 0 0 400 400" viewBox="0 0 400 400" xmlns="http://www.w3.org/2000/svg"><path d="m385.2 377.6.6-.7c.6.4 1.3.9 1.9 1.5l-.6.7c-.8-.5-1.4-1-1.9-1.5zm.3 7.1c.6-1.4 1.1-2.9 1.5-4.5.3.1.6.3.9.4-.5 1.4-1 2.9-1.5 4.4zm.2-10.1.6-.6c.7.5 1.3 1.1 1.9 1.6l-.7.7c-.6-.6-1.2-1.2-1.8-1.7zm8.4-.8h.8v.9h1.8v.7h-1.8v1.8h-.8v-.3h-1.2v.9h3.3v2.6h-.8v-.4h-2.5c0 .3 0 .6-.1.8h3.4v.7h-3.5c0 .3-.1.6-.1.8h4v.7h-3.5c.7.9 1.9 1.3 3.6 1.5-.2.2-.4.5-.6.9-1.9-.3-3.2-1.1-3.8-2.3-.5 1.1-1.8 2-3.9 2.4-.2-.3-.4-.5-.6-.8 1.9-.4 3.1-.9 3.6-1.7h-3.2v-.7h3.5c.1-.2.1-.5.2-.8h-3.3v-.7h3.4c0-.2 0-.5 0-.8h-2.4v.3h-.8v-2.6h3.3v-.9h-1.2v.3h-.8v-1.8h-1.8v-.7h1.8v-.9h.8v.9h3.2zm-4.4 5.5h2.4c0-.3 0-.6 0-.9h-2.4zm1.2-3.1h3.2v-.8h-3.2zm4.4 2.2h-2.4v.9h2.5v-.9z" fill="#fcfafa"/><path d="m389.2 385.8h.9v1.5h1.9v-1.5h.9v1.5h2.7v6h1.1v.9h-11.3v-.9h1.1v-6h2.7zm.2 8.7.5.8c-1.2.6-2.5 1.3-4 1.9-.2-.3-.3-.6-.6-.8 1.6-.6 3-1.3 4.1-1.9zm-2-4.3h1.9v-2.1h-1.9zm0 3.1h1.9v-2.2h-1.9zm2.7-3.1h1.9v-2.1h-1.9zm0 3.1h1.9v-2.2h-1.9zm2.4 1.3c1.4.6 2.7 1.2 4.1 1.8l-.5.9c-1.5-.7-2.8-1.4-4.1-1.9zm2.2-6.5h-1.9v2.1h1.9zm-1.9 5.2h1.9v-2.2h-1.9z" fill="#fcfafa"/><path d="m57.13 364.12c-1.3-4.18.06-6.5 3.62-8.46 20.51-11.26 40.65-23.21 61.39-34.03 25.76-13.43 50.01-29.01 72.56-47.29 10.13-8.21 20.48-16.14 30.37-24.62 6.73-5.77 11.65-13.08 15.18-22.06-4.15.98-7.78 1.81-11.39 2.7-11.01 2.68-22.01 5.35-33 8.1-1.94.48-3.87 1.14-5.66 2.01-23.21 11.33-46.34 22.83-69.61 34.02-6.36 3.06-13 5.72-19.77 7.68-14.24 4.14-27.66 9.86-39.97 18.2-1.61 1.09-3.9 1.61-5.9 1.66-7.4.19-14.81.08-22.15.08-1.48-6-1.27-6.85 3.84-8.94 11.33-4.64 20.51-12.65 30.7-19.07 2.85-1.79 5.72-3.78 8.86-4.84 27.46-9.23 52.32-23.93 78.02-36.87 10.59-5.34 20.9-11.28 31.68-16.17 9.32-4.23 19.25-7.11 28.7-11.09 6-2.53 11.83-5.63 17.32-9.12 3.89-2.47 6.23-6.51 6.98-11.4-14.62-6-25.04-16.24-31.58-30.37-3.04-6.57-3.8-13.76-2.47-19.47 1.05.53 2.06.99 3.03 1.53 18.59 10.37 37.21 20.7 55.73 31.2 2.47 1.4 4.24 1.21 5.66-.91 1.69-2.53 3.6-5.13 4.41-7.98 2.04-7.21 3.39-14.61 5.24-21.88 1.68-6.65 4.01-13.15 5.4-19.85 2.04-9.83 3.69-19.74 5.18-29.67 2.33-15.51 4.38-31.05 6.57-46.58.1-.71.4-1.38.67-2.26 4.52 1.28 7.67 4.11 9.6 7.99 6.16 12.42 10 25.16 7.39 39.45-3.78 20.73-6.76 41.61-10.16 62.41-.26 1.62-1.01 3.21-1.79 4.67-4.16 7.85-8.52 15.61-12.55 23.53-1.22 2.41-1.79 5.2-2.36 7.88-1.25 5.94.53 9.9 5.7 13.16.89.56 1.81 1.15 2.79 1.52 9.64 3.64 17.56 9.6 24.18 17.44.89 1.05 2.41 1.7 3.77 2.18 16.16 5.79 28.3 17.07 40.32 29.21-5.9 3.44-11.54 6.17-18.47 4.77-9.42-1.91-18.24-4.89-26.33-10.42-11.63-7.94-23.75-15.17-35.54-22.88-2.2-1.44-3.75-1.49-5.46.38-2.6 2.86-5.62 5.44-7.76 8.61-5.7 8.42-10.99 17.12-16.56 25.63-1.01 1.55-2.37 3.02-3.89 4.05-31.7 21.59-63.54 43-95.14 64.75-7.57 5.21-14.15 11.84-21.62 17.22-12.64 9.1-25.55 17.87-40.79 22.26-11.48 3.32-23.13 3.65-34.94 1.94z" fill="#010100"/></svg>