<svg enable-background="new 0 0 400 400" viewBox="0 0 400 400" xmlns="http://www.w3.org/2000/svg"><path d="m378.6 9.2.8-1c.9.7 1.9 1.4 2.9 2.3l-.9 1.1c-1.1-.9-2-1.7-2.8-2.4zm.5 10.7c.9-2.1 1.6-4.3 2.3-6.7.4.2.8.4 1.3.6-.7 2.1-1.5 4.3-2.2 6.6zm.4-15.2.9-.9c1 .8 2 1.6 2.8 2.4l-1 1c-1-.9-1.9-1.8-2.7-2.5zm12.5-1.3h1.2v1.4h2.7v1.1h-2.7v2.7h-1.2v-.5h-1.8v1.3h4.9v3.8h-1.2v-.5h-3.7c0 .4-.1.9-.1 1.2h5.1v1h-5.2c0 .5-.1.9-.2 1.2h6v1h-5.2c1.1 1.3 2.9 2 5.5 2.2-.4.4-.7.8-.9 1.3-2.9-.5-4.8-1.6-5.7-3.5h-.1c-.8 1.7-2.7 2.9-5.9 3.6-.2-.4-.6-.8-.9-1.1 2.8-.6 4.6-1.4 5.4-2.5h-4.8v-1h5.3c.1-.3.2-.7.2-1.2h-4.9v-1h5c0-.4 0-.8.1-1.2h-3.6v.5h-1.2v-3.8h4.9v-1.3h-1.8v.5h-1.2v-2.7h-2.6v-1.1h2.6v-1.4h1.2v1.4h4.7v-1.4zm-6.7 8.4h3.6c0-.4 0-.9 0-1.4h-3.6zm1.9-4.7h4.7v-1.2h-4.7zm6.7 3.3h-3.7v1.4h3.7z" fill="#fafbfc"/><path d="m384.7 21.4h1.3v2.2h2.8v-2.2h1.3v2.2h4.1v9.1h1.7v1.3h-16.9v-1.3h1.7v-9.1h4.1v-2.2zm.3 13.2.7 1.2c-1.8.9-3.8 1.9-6 2.9-.2-.4-.5-.8-.8-1.3 2.4-1 4.4-2 6.1-2.8zm-3.1-6.5h2.8v-3.2h-2.8zm0 4.6h2.8v-3.3h-2.8zm4.1-4.6h2.8v-3.2h-2.8zm0 4.6h2.8v-3.3h-2.8zm3.6 1.9c2.1.9 4.1 1.8 6.1 2.7l-.7 1.3c-2.2-1.1-4.2-2-6.1-2.9zm3.3-9.7h-2.8v3.2h2.8zm-2.8 7.8h2.8v-3.3h-2.8z" fill="#fafbfc"/><path d="m117.81 268.3c1.55-.29 3.08-.57 4.87-.9v6.99c3.92.21 5.58-5.59 10.1-3.36v6.38c1.26-.07 2.38-.24 3.49-.17 2.16.13 3.19-.82 3.04-2.95-.15-2.29.98-3 3.08-2.73 9.2 1.19 17.53-1.23 25.37-5.95 2.71-1.63 5.62-2.98 8.55-4.19 2.06-.85 2.95-2.26 3.14-4.31.6-6.43 1.18-12.86 1.8-19.29.08-.84.19-1.74.56-2.46 2.99-5.74 2.02-11.35-.36-16.96-.49-1.16-.72-2.43-1.06-3.64 1.48-.07 3.1.28 4.21-.32.85-.45 1.06-2.1 1.62-3.38-.88-.43-1.38-.83-1.95-.94-6.55-1.32-11.78-4.96-16.73-9.23-3.69-3.18-7.58-6.14-11.47-9.08-2.57-1.95-4.96-3.87-5.51-7.38-.12-.79-1.28-1.84-2.12-2.02-4.72-1.02-9.45-2.16-14.24-2.59-6.45-.58-9.35-2.77-10.69-9.56 3.41-.89 6.91-1.63 10.29-2.74 1.49-.49 3.08-1.46 4.04-2.67 6.5-8.23 12.98-16.49 19.17-24.97 1.94-2.65 3.15-5.9 4.31-9.02.91-2.46.84-5.32 1.89-7.69 2.05-4.61.73-7.8-2.97-10.85-3.26-2.69-5.99-6-9.14-8.84-1.95-1.76-4.12-3.36-6.41-4.64-4.37-2.45-5.06-2.15-7.38 2.09-3.92 7.2-11.65 11.46-20.12 10.63.34-2.12.33-4.36 1.09-6.29 1.63-4.16 2.81-8.74 7.66-10.71.62-.25 1.06-1.49 1.18-2.33.22-1.67.25-3.39.2-5.08-.12-3.9.44-7.31 4.76-8.92.95-.36 1.65-1.58 2.31-2.52 4.79-6.86 9.73-13.64 14.24-20.69 2.22-3.48 5.23-4.9 8.96-4.96 4.24-.06 7.72-1.33 11-4.11 1.59-1.35 4.13-1.75 6.32-2.19 4.43-.89 9.01-1.16 13.33-2.37 3.36-.94 6.49-1.33 9.91-.64 4.57.91 9.2 1.47 13.79 2.26 3.24.56 6.13.81 9.41-.94 1.85-.98 5.09.59 7.69 1.08 1.43.27 2.84.7 4.25 1.05 1.56.39 3.26.49 4.64 1.22 1.76.92 3.15 2.56 4.91 3.49 1.78.94 3.78 1.79 5.75 1.95 4.3.36 6.77 2.81 6.59 7.19-.04.95-.21 1.9-.2 2.85.05 3.58 1.69 4.97 4.92 3.69 2.81-1.12 4.27.08 5.27 2.3.64 1.42 1.22 3.05 1.17 4.56-.25 6.98 2.41 13.26 4.36 19.73.66 2.19 1.02 4.54 1.08 6.82.15 5.72.29 11.46 0 17.17-.66 13.24 1.55 26.19 3.44 39.19.12.84.48 1.8.21 2.5-2.71 7.17-.5 14.09 1.41 20.83 1.99 7.03-.02 13.62-.85 20.38-.15 1.19-.02 2.46.23 3.65.61 2.95 1.67 5.83 2 8.8 1.09 9.97.25 19.82-1.71 29.69-.74 3.72.02 7.82.57 11.68 1.61 11.29 1.3 22.36-2.44 33.27-.49 1.42.3 3.34.68 4.98.51 2.2 1.65 4.34 1.73 6.53.21 5.77.39 11.46-2.4 17.02-1.64 3.27-1.49 7.42-2.26 11.15-.51 2.48-1.19 4.93-1.85 7.37-1.15 4.2-3.76 6.66-7.8 8.74-4.59 2.36-8.64 6.04-12.37 9.72-5.3 5.22-11.7 6.91-18.73 7.31-3.49.2-6.98.3-10.47.53-5.29.35-10.54.75-15.08 4.11-.83.61-2.52.6-3.59.24-3.51-1.18-6.73-.77-10.13.6-2.72 1.1-5.69 1.58-8.58 2.22-3.53.79-6.7.79-9.26-2.65-1.55-2.08-4.15-2.35-6.67-1.16-4.94 2.33-9.63 2.23-14.53-.59-5.13-2.95-10.53-5.46-15.95-7.86-3.33-1.47-5.8-3.75-6.93-7-2.73-7.87-5.11-15.86-7.57-23.82-.59-1.92-.7-4.01-1.45-5.85-2.61-6.4-2.04-12.74-.37-19.23.42-1.62.06-3.87-.8-5.31-3.14-5.23-4.68-10.43-2.56-16.53.72-2.04.11-4.56.11-7.38zm38.92-99.77c5.76 4.86 11.19 9.16 16.28 13.84 4.2 3.87 7.75 8.46 12.02 12.25 5.4 4.79 8.39 10.5 9.57 17.61 1.74 10.48 3.56 20.9 2.18 31.57-1.82 14.13-8.89 25.89-16.82 37.24-.43.61-1.33 1.03-2.09 1.25-7.33 2.08-14.64 4.26-22.04 6.06-4.58 1.11-9.51 1.43-13.59-1.24-2.94-1.93-5.21-1.21-7.92-.18-1.65.63-2.3 1.39-2.05 3.25.88 6.62 1.56 13.26 2.36 19.88.28 2.31.07 4.93 1.1 6.85 3.08 5.72 4.27 11.91 5.59 18.12.17.8 1.04 1.64 1.8 2.1 2.48 1.48 5.46 2.37 7.53 4.27 4.53 4.18 9.45 6.57 15.75 6.91 7.88.43 15.59 2.08 23.46-.88 5.67-2.13 11.66-2.09 16.75 2.38 3.63-3.89 7.85-6.32 12.86-6.83 9.94-1.02 18.86-4.45 26.94-10.3 1.02-.74 2.58-1.11 3.85-1.03 2.28.15 3.1-.87 3.75-2.86 1.17-3.6 1.87-7.78 4.19-10.49 3.12-3.65 3.48-7.11 2.52-11.3-.44-1.96-.76-3.96-.94-5.96-.45-5.23-2.82-10.55.89-15.64.61-.84.24-2.48.16-3.74-.68-11.11-1.34-22.21 1.41-33.19.27-1.08-.33-2.4-.59-3.6-.54-2.54-1.43-5.04-1.62-7.6-.28-3.8-.06-7.63-.08-11.45-.03-6.45.41-12.9-1.61-19.23-.75-2.34-.74-4.97-.74-7.47-.01-9 .39-18 .11-26.99-.16-5.24-1.89-10.46-1.86-15.68.05-8.65-.91-17.06-2.89-25.46-1.72-7.28-3.54-14.66-.44-22.15.42-1.02-.24-2.67-.77-3.86-3.71-8.29-2.62-14 3.78-20.44 1-1 1.3-2.69 2.28-4.84-1.79.45-2.39.57-2.97.75-4.59 1.49-5.01 1.39-6.38-3.02-.85-2.74-2.47-4.66-4.44-6.69-4.69-4.84-9.96-6.73-16.72-6.13-8.75.78-17.22-.6-25.19-4.87-4.09-2.19-8.55-2.31-13.17-.41-6.7 2.75-13.29 5.91-20.98 5.59-2.39-.1-4.92 2.12-7.3 3.42-.48.26-.93 1.27-.81 1.81.73 3.24 1.55 6.8 4.97 8.03 5.97 2.15 8.83 6.78 11.08 12.15.65 1.56 1.37 3.12 2.31 4.52 1.13 1.69 1.2 3.29.3 5.03-1.7 3.29-1.61 6.54-.5 10.08 1.64 5.25 2.85 10.63 4.08 16 .31 1.36.35 2.98-.09 4.27-3.88 11.38-10.54 21.05-19.51 28.9-3.33 2.94-4.41 6.52-5.76 9.4z" fill="#010104"/></svg>