<svg enable-background="new 0 0 400 400" viewBox="0 0 400 400" xmlns="http://www.w3.org/2000/svg"><path d="m362.1 8.8c1.1.8 2.1 1.6 3.1 2.4l-1 1.1c-1.3-1.1-2.3-2-3-2.5zm1.9 4.8c.5.2.9.4 1.4.5-.6 2.3-1.3 4.5-1.9 6.8l-1.5-.5c.8-2.1 1.4-4.3 2-6.8zm-1-9.4c1.3.9 2.4 1.8 3.4 2.5l-1 1.1c-1.4-1.2-2.4-2.1-3.2-2.6zm3.7 2.2v-1.4h10.3v1.2c-.5 3.6-1.8 6.8-4 9.4 1.5 1.6 3.4 2.8 5.7 3.8-.3.4-.7.8-1.1 1.4-2.3-1.1-4.1-2.5-5.6-4.1-1.6 1.6-3.6 3.1-5.9 4.3-.3-.5-.7-.9-1-1.3 2.4-1.1 4.4-2.5 6-4.1-1.9-2.5-3-5.6-3.3-9.3h-1.1zm8.8 0h-6.4c.3 3.3 1.3 6 3 8.2 2-2.3 3.1-5.1 3.4-8.2z" fill="#fbfcfa"/><path d="m385.3 3.8h1.3v2.2h2.8v-2.2h1.3v2.2h4.1v9.1h1.7v1.3h-16.9v-1.3h1.7v-9.1h4.1v-2.2zm.4 13.1.7 1.2c-1.8.9-3.8 1.9-6 2.9-.2-.4-.5-.8-.8-1.3 2.3-1 4.3-1.9 6.1-2.8zm-3.1-6.4h2.8v-3.2h-2.8zm0 4.6h2.8v-3.3h-2.8zm4-4.6h2.8v-3.2h-2.8zm0 4.6h2.8v-3.3h-2.8zm3.7 1.9c2.1.9 4.1 1.8 6.1 2.7l-.7 1.3c-2.2-1.1-4.2-2-6.1-2.9zm3.2-9.7h-2.8v3.2h2.8zm-2.8 7.8h2.8v-3.3h-2.8z" fill="#fbfcfa"/><path d="m183.39 106.68c-2.73-1.54-3.36-3.68-3.32-6.34.26-16.43.47-32.86.56-49.3.02-2.88.63-5.33 2.33-7.67 1.86-2.56 3.46-5.31 5.3-8.17 3.86 2.08 5.4 5.51 5.77 9.34.49 5.05.47 10.15.67 15.23.03.85.13 1.69.19 2.54.3 4.59 2.17 7.92 6.78 9.62 2.65.98 4.99 2.78 7.57 4.02 4.16 2 7.54 4.87 10.88 8.05 3.41 3.25 7.66 5.62 11.55 8.36 7.23 5.09 14.28 10.36 18.53 18.42 7.76 14.71 11.41 30.25 9.31 46.91-.08.63-.08 1.41-.45 1.83-2.85 3.24-1.49 6.52-.11 9.74 2.63 6.16 2.92 12.62 3.39 19.22 1.03 14.67-1.51 28.93-3.57 43.28-.24 1.66-.03 3.64.69 5.13 1.92 4.02 2.57 8.11 2.64 12.55.12 8.33-.57 16.48-2.83 24.52-2.35 8.35-.39 16.65.61 24.93 1.07 8.84 2.04 17.7 3.56 26.46 1.27 7.28 3.16 14.46 4.99 21.63 1.59 6.25 3.53 12.41 2.42 19.16-4.39.58-7.95.57-11.18-3.59-3.81-4.9-6.8-9.51-8.01-15.96-2.05-10.98-5.78-21.64-8.78-32.44-.22-.8-.49-1.68-.37-2.46 1.41-9.54-1.54-18.73-2.13-28.1-.16-2.54.65-5.13.72-7.7.13-4.86.02-9.73.06-14.59.1-9.84-.01-19.69.43-29.52.34-7.58.22-15.03-1.94-22.36-.85-2.89-2.4-3.83-5.21-2.7-1.91.76-3.58 2.11-5.39 3.12-2.84 1.58-5.79 2.97-8.55 4.68-2.28 1.41-4.93 2.78-6.36 4.88-2.06 3.03-4.45 3.48-7.6 3-.81-3.95-.18-6.74 3.22-9.65 11.13-9.54 19.88-21.07 26.12-34.43 1.6-3.42 1.69-6.6.46-10.34-1.81-5.5-4.43-10.05-8.91-13.83-5.42-4.58-10.35-9.73-15.57-14.54-1.62-1.49-3.63-2.56-5.26-4.05-1.28-1.16-2.27-2.66-3.58-4.25 5.03-2.7 9.21-2.07 13.07.34 4.6 2.87 9.1 5.81 14.59 6.76.82.14 1.56.99 2.26 1.59 2.58 2.24 3.25 2.48 6.64 2.02-.42-1.71-.93-3.39-1.22-5.1-3.09-18.27-14.16-31.03-28.58-41.48-3.93-2.85-7.99-5.53-12.24-8.45-2.11 4.75-2.23 9.38-1.84 14.01.41 4.85.97 9.71 1.75 14.51 1.35 8.35 1.23 16.67.12 25.02-.11.84-.49 1.89-.14 2.5 3.24 5.75 1.08 11.67.31 17.38-1 7.43-.68 14.77-.44 22.19.21 6.43-.32 12.88-.35 19.33-.02 4.54-.14 9.14.55 13.6.43 2.76 1.82 5.66 3.56 7.89 8.94 11.45 18.07 22.74 27.27 33.98 2.22 2.71 3.7 5.51 4.18 9.01.5 3.66 1.46 7.25 2.28 11.18-2.63 1.17-5.18 2.42-7.82 3.4-.64.24-1.83-.15-2.37-.67-6.58-6.26-13.3-12.24-17.9-20.43-2.83-5.04-7.63-8.98-12.21-14.17-1.31 4.23-2.86 7.62-3.36 11.16-1.55 10.9-2.7 21.85-4.03 32.79-.19 1.56-.3 3.18-.81 4.64-4.6 13.08-9.25 26.15-13.97 39.19-.56 1.56-1.45 3.06-2.48 4.37-2.94 3.73-6.02 7.34-9.56 11.61-1.12-5.9-3.06-10.98-.39-16.31.56-1.11 1.05-2.43 1.02-3.63-.34-11.21 3.8-21.64 5.54-32.47 1.12-6.99 2.26-14.01 2.74-21.06.45-6.49-1.02-7.26-7.31-5-8.17 2.93-16.07 6.4-23.59 10.85-3.15 1.86-7.15 2.39-10.84 3.16-.87.18-2.48-.88-2.95-1.78-.34-.65.39-2.27 1.11-2.97 1.68-1.6 3.55-3.04 5.5-4.3 2.92-1.9 5.01-4.04 4.34-7.94-.12-.71.88-1.65 1.46-2.41.23-.3.72-.44 1.11-.59 13.13-4.87 23.19-14.22 33.6-23.04.9-.76 1.48-2.27 1.63-3.5 2.31-18.5 4.65-37 6.66-55.53.59-5.45.11-11.02.18-16.53.15-11.87.37-23.74.47-35.62.02-2.96-.25-5.93-.49-8.89-.43-5.32.6-10.32 3.32-15.24z" fill="#010101"/></svg>