<svg enable-background="new 0 0 400 400" viewBox="0 0 400 400" xmlns="http://www.w3.org/2000/svg"><path d="m208 34.74c6.74 1.6 10.38 6.15 12.12 11.9 2.51 8.29 4.57 16.75 6.25 25.25 1.06 5.36 2.69 10.19 6.61 14.05 2.85 2.8 3.99 6.1 3.44 10.03-1.22 8.62 2.86 16.1 5.17 23.96 4.36 14.88 8.25 29.84 7.83 45.52-.13 4.97-.27 10.01-1.19 14.87-1.35 7.15-1.07 14.18.86 21.03 1.91 6.78.53 12.52-2.6 18.69-8.54 16.79-16.27 33.99-24.75 50.82-2.54 5.04-6.27 9.52-9.77 14.01-10.05 12.87-20.42 25.49-30.33 38.45-4.03 5.28-6.94 11.4-10.85 16.78-4.85 6.66-9.98 13.15-15.46 19.3-2.43 2.73-6 4.45-9.39 6.3.76-4.29.68-8.49 3.95-11.86 10.07-10.38 15.93-23.37 21.9-36.27 2.44-5.28 5.06-10.49 7.39-15.83 2.3-5.27 5.46-9.79 10.27-13.04 3.03-2.04 4.82-4.68 4.11-8.53-.58-3.14 1.45-5.3 3.2-7.29 3.54-4.03 4.02-7.98 2.45-13.24-5.47-18.36-10.39-36.88-15.37-55.39-1.64-6.09-7.94-8.91-12.99-3.47-4.35 4.68-9.45 6.68-16.27 4.06 1.8-5.42 1.18-11.3 5.86-16.28 13.85-14.75 27.09-30.06 40.67-45.07 3.05-3.37 6.5-6.38 9.69-9.63 2.36-2.41 4.97-4.7 6.8-7.48 2.74-4.16 4.02-8.73 1.77-13.77-5.23-11.7-5.13-24.36-6.1-36.77-.6-7.69-2.06-15.08-5.09-22.16-2.65-6.18-1.78-12.38-.18-18.94zm5.81 195.15c1.76-.96 3.07-1.88 4.52-2.44 3.07-1.2 4.32-3.47 5.13-6.58 2.71-10.33 5.78-20.56 8.57-30.86.41-1.52.46-3.42-.08-4.86-2.78-7.42-4.71-14.91-3.44-22.91.08-.51.05-1.06-.03-1.58-.59-4.23-6.62-6.99-10.1-4.65-6.84 4.61-13.72 9.19-20.56 13.81-7.31 4.94-7.75 5.13-4.64 13.36 4.63 12.24 9.89 24.25 15.06 36.29 1.55 3.54 3.65 6.84 5.57 10.42z" fill="#010000"/><g fill="#fafafb"><path d="m361.2 9.6.8-1c.9.7 1.9 1.4 2.9 2.3l-.9 1.1c-1-1-2-1.8-2.8-2.4zm.5 10.6c.9-2.1 1.6-4.3 2.3-6.7.4.2.8.4 1.3.6-.7 2.1-1.5 4.3-2.2 6.6zm.4-15.2.9-.9c1 .8 2 1.6 2.8 2.4l-1 1c-.9-.9-1.8-1.7-2.7-2.5zm12.5-1.2h1.2v1.4h2.7v1.1h-2.7v2.7h-1.2v-.6h-1.8v1.3h4.9v3.8h-1.2v-.5h-3.7c0 .4-.1.9-.1 1.2h5.1v1h-5.2c0 .5-.1.9-.2 1.2h6v1h-5.2c1.1 1.3 2.9 2 5.5 2.2-.4.4-.7.8-.9 1.3-2.9-.5-4.8-1.6-5.7-3.5h-.1c-.8 1.7-2.7 2.9-5.9 3.6-.2-.4-.6-.8-.9-1.1 2.8-.6 4.6-1.4 5.4-2.5h-4.8v-1h5.3c.1-.3.2-.7.2-1.2h-4.9v-1h5c0-.4 0-.8.1-1.2h-3.5v.5h-1.2v-3.8h4.9v-1.3h-1.8v.5h-1.2v-2.7h-2.7v-1h2.6v-1.4h1.2v1.4h4.7v-1.4zm-6.6 8.3h3.6c0-.4 0-.9 0-1.4h-3.6zm1.9-4.6h4.7v-1.3h-4.7zm6.6 3.2h-3.7v1.4h3.7z"/><path d="m385.3 3.8h1.3v2.2h2.8v-2.2h1.3v2.2h4.1v9.1h1.7v1.3h-16.9v-1.3h1.7v-9.1h4.1v-2.2zm.4 13.1.7 1.2c-1.8.9-3.8 1.9-6 2.9-.2-.4-.5-.8-.8-1.3 2.3-1 4.3-1.9 6.1-2.8zm-3.1-6.4h2.8v-3.2h-2.8zm0 4.6h2.8v-3.3h-2.8zm4-4.6h2.8v-3.2h-2.8zm0 4.6h2.8v-3.3h-2.8zm3.7 1.9c2.1.9 4.1 1.8 6.1 2.7l-.7 1.3c-2.2-1.1-4.2-2-6.1-2.9zm3.2-9.7h-2.8v3.2h2.8zm-2.8 7.8h2.8v-3.3h-2.8z"/></g></svg>