<svg enable-background="new 0 0 400 400" viewBox="0 0 400 400" xmlns="http://www.w3.org/2000/svg"><path d="m362.1 8.8c1.1.8 2.1 1.6 3.1 2.4l-1 1.1c-1.3-1.1-2.3-2-3-2.5zm1.9 4.8c.5.2.9.4 1.4.5-.6 2.3-1.3 4.5-1.9 6.8l-1.5-.5c.8-2.1 1.4-4.3 2-6.8zm-1-9.4c1.3.9 2.4 1.8 3.4 2.5l-1 1.1c-1.4-1.2-2.4-2.1-3.2-2.6zm3.7 2.2v-1.4h10.3v1.2c-.5 3.6-1.8 6.8-4 9.4 1.5 1.6 3.4 2.8 5.7 3.8-.3.4-.7.8-1.1 1.4-2.3-1.1-4.1-2.5-5.6-4.1-1.6 1.6-3.6 3.1-5.9 4.3-.3-.5-.7-.9-1-1.3 2.4-1.1 4.4-2.5 6-4.1-1.9-2.5-3-5.6-3.3-9.3h-1.1zm8.8 0h-6.4c.3 3.3 1.3 6 3 8.2 2-2.3 3.1-5.1 3.4-8.2z" fill="#fbfcfa"/><path d="m385.3 3.8h1.3v2.2h2.8v-2.2h1.3v2.2h4.1v9.1h1.7v1.3h-16.9v-1.3h1.7v-9.1h4.1v-2.2zm.4 13.1.7 1.2c-1.8.9-3.8 1.9-6 2.9-.2-.4-.5-.8-.8-1.3 2.3-1 4.3-1.9 6.1-2.8zm-3.1-6.4h2.8v-3.2h-2.8zm0 4.6h2.8v-3.3h-2.8zm4-4.6h2.8v-3.2h-2.8zm0 4.6h2.8v-3.3h-2.8zm3.7 1.9c2.1.9 4.1 1.8 6.1 2.7l-.7 1.3c-2.2-1.1-4.2-2-6.1-2.9zm3.2-9.7h-2.8v3.2h2.8zm-2.8 7.8h2.8v-3.3h-2.8z" fill="#fbfcfa"/><g fill="#010101"><path d="m76.16 246.22c1.17-16.42 2.41-30.57 3.15-44.74 1.18-22.6 7.2-43.76 18.15-63.52 1.14-2.06 2.78-4.08 4.68-5.43 4.79-3.4 8.51-7.54 10.87-12.92.55-1.26 1.45-2.36 1.98-3.62 2.01-4.78 5.14-8.37 10.13-10.25 1.13-.42 2.12-1.39 2.99-2.29 5.66-5.88 11.28-11.8 16.88-17.74.72-.76 1.47-1.62 1.81-2.57 4.35-12.31 13.39-21.23 22.09-30.32 5.41-5.66 11.43-10.74 17.21-16.05 2.23-2.05 3.61-1.93 4.81.81.86 1.96 1.33 4.27 1.31 6.42-.06 6.14-.84 12.29-.65 18.42.58 18.34 4.66 36.07 9.7 53.64 1.72 5.99 3.39 12.07 4.15 18.22.75 6.07 4.16 9.38 9.31 11.15 4.47 1.54 9.15 2.65 13.83 3.37 11.4 1.75 21.15 7.32 30.89 12.87 13.45 7.67 26.78 15.56 38.54 25.74 9.73 8.42 17.05 18.54 20.53 31.11.42 1.5.33 3.36-.16 4.85-2.17 6.64-4.55 13.21-6.92 19.78-.38 1.05-.89 2.31-1.74 2.88-12.41 8.27-24.37 17.44-38.83 22.03-10.99 3.5-22.1 6.64-33.2 9.77-2.63.74-3.48 1.77-3.61 4.69-.51 11.55 1.37 22.48 6.23 33.02 2.7 5.85 4.83 11.98 6.84 18.12 1.33 4.05 3.37 7.19 7.32 8.94 2.01.89 2.51 2.22 2.12 4.53-1.4 8.36-4.4 11.66-14.74 12.56-14.8 1.29-29.45 3.34-43.97 6.45-.95.2-2.2.05-3.03-.42-4.43-2.49-9.21-3.13-14.12-2.59-10.28 1.14-19.71-1.03-28.34-6.73-7.03-4.65-15.17-5.28-23.15-5.87-9.7-.72-17.56-5.1-24.94-10.81-.78-.6-1.31-1.64-1.73-2.58-4.28-9.58-9.67-18.53-14.84-27.65-3.91-6.9-6.09-15.18-7.32-23.11-2.16-14-3.03-28.2-4.23-40.16zm84.26-88.57c-3.03.19-6.15-.01-9.08.64-6.49 1.44-12.88 3.31-19.32 5.01-6.32 1.67-12.67 3.26-18.95 5.06-2.45.7-3.92 2.57-4.88 5.03-2.09 5.34-2.42 10.85-2.65 16.5-.18 4.45-1.32 8.89-2.37 13.25-.83 3.44-2.34 6.7-3.21 10.13-.64 2.55-.89 5.23-1.05 7.87-.37 5.92-.79 11.84-.78 17.76.01 4.54.55 4.97 4.99 5.67 10.56 1.66 21.11 3.47 31.72 4.73 24.23 2.87 48.53 4.32 72.91 1.81 4.1-.42 8.3-1.57 12.29-1.07 7.32.91 14.33.06 21.39-1.56 16.12-3.7 31.14-9.54 43.33-21.3 1.72-1.66 2.01-3.01.98-4.92-4.43-8.18-8.79-16.41-13.38-24.5-.82-1.44-2.47-2.62-4-3.39-9.55-4.81-19.14-9.53-28.77-14.17-25.08-12.04-50.82-21.72-79.17-22.55zm-58.9 110.93c0 3.1-.23 5.64.04 8.12 1.74 16.02 8.54 29.98 17.68 42.97 5.48 7.79 13.07 11.35 22.46 11.75 5.68.24 11.63-.06 16.64 3.19 2.76 1.79 5.57 2.34 8.67 2.41 1.37.03 2.74.22 4.12.31 10.99.74 21.97 1.71 32.97 2.13 6.82.26 13.4-1.42 19.67-4.66-.6-1.41-1-2.75-1.7-3.92-2.61-4.35-5.21-8.72-8.03-12.94-2.11-3.15-3.69-6.32-3.5-10.27.2-4.01.09-8.04.05-12.07-.07-6.48-7.36-14.88-13.24-15.12-16.72-.68-33.44-1.56-50.16-1.83-11.01-.18-21.69-1.31-31.96-5.54-4.2-1.71-8.63-2.87-13.71-4.53zm86.12-133.69c-4.26-9.15-8.75-18.58-13.04-28.1-1.11-2.45-1.63-5.17-2.38-7.78-.55-1.93-.78-3.99-1.59-5.79-1.63-3.61-4.26-4-7.14-1.39-7.23 6.53-12.57 14.49-17.68 22.7-4.07 6.53-8.64 12.78-13.3 18.91-1.7 2.24-1.85 3.99-.8 5.72 18.82-1.43 37.24-2.84 55.93-4.27z"/><path d="m230.39 209.68c-10.24 6.84-20.55 12.96-33.12 12.93-18.2-.05-36.41-.16-54.59-.88-5.25-.21-10.47-2.45-15.6-4.07-1.23-.39-2.07-2.01-3.51-3.49 9.07-3.31 17.38-6.37 25.72-9.34.85-.3 1.91-.21 2.83-.07 7.16 1.1 14.15.27 20.98-1.95 10.12-3.3 20.49-2.75 30.85-2.01 5.69.41 11.39.97 16.99 2.02 3.88.73 7.38 2.67 9.45 6.86z"/></g></svg>