<svg enable-background="new 0 0 400 400" viewBox="0 0 400 400" xmlns="http://www.w3.org/2000/svg"><path d="m362.1 8.8c1.1.8 2.1 1.6 3.1 2.4l-1 1.1c-1.3-1.1-2.3-2-3-2.5zm1.9 4.8c.5.2.9.4 1.4.5-.6 2.3-1.3 4.5-1.9 6.8l-1.5-.5c.8-2.1 1.4-4.3 2-6.8zm-1-9.4c1.3.9 2.4 1.8 3.4 2.5l-1 1.1c-1.4-1.2-2.4-2.1-3.2-2.6zm3.7 2.2v-1.4h10.3v1.2c-.5 3.6-1.8 6.8-4 9.4 1.5 1.6 3.4 2.8 5.7 3.8-.3.4-.7.8-1.1 1.4-2.3-1.1-4.1-2.5-5.6-4.1-1.6 1.6-3.6 3.1-5.9 4.3-.3-.5-.7-.9-1-1.3 2.4-1.1 4.4-2.5 6-4.1-1.9-2.5-3-5.6-3.3-9.3h-1.1zm8.8 0h-6.4c.3 3.3 1.3 6 3 8.2 2-2.3 3.1-5.1 3.4-8.2z" fill="#fbfcfa"/><path d="m385.3 3.8h1.3v2.2h2.8v-2.2h1.3v2.2h4.1v9.1h1.7v1.3h-16.9v-1.3h1.7v-9.1h4.1v-2.2zm.4 13.1.7 1.2c-1.8.9-3.8 1.9-6 2.9-.2-.4-.5-.8-.8-1.3 2.3-1 4.3-1.9 6.1-2.8zm-3.1-6.4h2.8v-3.2h-2.8zm0 4.6h2.8v-3.3h-2.8zm4-4.6h2.8v-3.2h-2.8zm0 4.6h2.8v-3.3h-2.8zm3.7 1.9c2.1.9 4.1 1.8 6.1 2.7l-.7 1.3c-2.2-1.1-4.2-2-6.1-2.9zm3.2-9.7h-2.8v3.2h2.8zm-2.8 7.8h2.8v-3.3h-2.8z" fill="#fbfcfa"/><path d="m240.47 365.81c1.08-3.09 2.08-5.94 3.12-8.91-.91-.48-1.71-.99-2.58-1.34-9.57-3.82-15.77-10.89-19.95-20.12-3.18-7.03-6.83-13.86-10.09-20.86-1.51-3.25-2.62-6.68-3.86-10.05-.25-.68-.6-1.6-.35-2.16 2.06-4.7-.52-8.81-1.65-13.19 3.18-1.4 5.51-.92 7.52 2.09 5.35 8.02 11 15.86 12.73 25.67.12.7.53 1.38.94 1.98 6.24 9.08 12.49 18.16 18.78 27.21 1.56 2.24 6.12 2.26 7.91-.21 2.47-3.41 4.87-6.96 6.7-10.75 4.79-9.95 8.43-20.3 10.39-31.24.82-4.56 2.57-8.95 3.72-13.46.38-1.49.53-3.16.28-4.66-1.18-7-2.43-13.98-3.88-20.93-.49-2.33-1.36-4.68-2.51-6.76-5.43-9.83-10.79-19.71-16.61-29.3-4.07-6.71-6.77-13.7-8.14-21.44-.73-4.16-2.81-8.12-4.6-12.03-.91-2-2.77-3.03-5.24-2.72-1.67.21-3.39.05-5.09.04-3.15-.02-6.06.54-9.17 1.56-4.19 1.38-8.92 1.17-13.43 1.5-8.12.6-16.24 1.19-24.36 1.59-1.9.09-3.84-.54-5.74-.91-.81-.16-1.68-.87-2.36-.69-4.09 1.07-8.69 1.5-12.04 3.74-3.37 2.26-6.76 2.82-10.36 3.15-2.56.24-4.39 1.2-5.09 3.52-2.36 7.78-4.7 15.56-6.72 23.43-1.76 6.87-2.89 13.9-4.66 20.76-.64 2.5-2.19 4.81-3.59 7.04-1.65 2.62-2.17 5.35-2.13 8.43.07 5.23.62 10.45-2.13 15.49-1.05 1.93-.18 4.98-.02 7.5.27 4.23.71 8.45 1 12.68.22 3.24-.09 6.57 3.1 8.84.74.53 1.1 1.81 1.32 2.81 2.28 10.37 10.75 15.4 18.02 21.87 5.01-5.61 7.36-11.71 8.11-18.47.91-8.32 1.42-16.72 5.02-24.46 1.72-3.71 2.71-7.43 2.79-11.6.04-1.9 1.97-3.76 3.36-6.2 3.11 3.88 5.5 6.59 5.34 11.07-.27 7.4.16 14.83.27 22.25.01.72-.07 1.49-.3 2.17-3.97 11.78-9.88 22.68-15.54 33.68-1.88 3.66-4.95 6.41-9.06 7.49-.84.22-2.48-.43-2.89-1.16-1.99-3.52-4.77-6-8.67-6.95-9.39-2.31-14.44-8.91-17.09-17.54-2.42-7.88-4.22-15.95-6.25-23.95-.21-.81-.18-1.68-.22-2.53-1-21.51 2.02-42.33 9.56-62.62 3.83-10.29 6.31-21.08 9.32-31.67.34-1.18.54-2.63.16-3.73-1.23-3.57-.36-6.63 1.64-9.57 1.53-2.24 1.57-4.54 1.09-7.22-.49-2.74-.52-5.75.1-8.45 2.09-9.07.24-17.65-2.54-26.19-.2-.6-.61-1.23-.56-1.81.98-10.29-7.01-17.11-10.06-25.85-1.83-5.27-4.49-10.29-7.18-15.21-1.91-3.5-4.24-6.83-6.81-9.88-2.95-3.51-4.82-7.15-3.93-12.58 1.43.68 2.83 1.01 3.76 1.84 4.57 4.09 8.88 8.5 15.19 10.01.78.19 1.46 1.57 1.85 2.53 1.65 4.09 3.11 8.26 4.77 12.35 3.42 8.43 6.87 16.85 10.4 25.24 2.25 5.35 4.58 10.68 8.95 15.32 2.63-4.04 5.17-7.77 7.53-11.61 8.35-13.61 15.81-27.66 18.01-43.74 1.07-7.86 1.18-15.84 1.67-23.78.41-6.67.79-13.34 1.04-20.01.08-2.1-.19-4.22-.47-6.31-.6-4.58-.19-6.66 2.42-10.97 3.62 1.38 6.18 3.69 6.26 7.8.1 4.98 1.26 9.55 3.83 13.87 1.5 2.53.98 5.27-.26 7.94-.53 1.14-1.1 2.79-.67 3.78 2.54 5.86 1.72 11.82 1.07 17.82-.55 5.16-1.61 10.36-1.37 15.49.16 3.49 1.36 7.56 3.53 10.19 4.42 5.35 9.74 9.96 14.82 14.75 5.46 5.15 11.09 10.12 16.59 15.22 2.26 2.1 4.46 4.21 8.18 4.41 1.13-4.96 2.43-9.84 3.32-14.79 1.27-7.05 3.8-13.59 6.8-20.06 1.94-4.18 2.97-8.77 4.39-13.19.98-3.06 2.42-5.64 6.78-6.31.21 4.66.6 9.16.55 13.65-.03 3.48-.3 7.02-1.04 10.41-.5 2.33-2.08 4.41-3 6.68-.75 1.84-1.66 3.75-1.76 5.68-.66 12.15-1.34 24.32-1.54 36.48-.11 6.87.67 13.76 1.09 20.64.05.83.24 1.68.52 2.47 6.81 19.53 15.56 38.23 24.34 56.91.31.66.71 1.31 1.19 1.87 9.49 11.2 12.7 24.91 15.39 38.79.6 3.11.79 6.3 1.12 9.47.34 3.29.38 6.36-2.08 9.21-1.14 1.32-1.14 3.69-1.46 5.61-.55 3.27-.28 6.84-1.53 9.79-3.76 8.86-7.99 17.53-12.27 26.16-1.05 2.12-2.77 4.02-4.51 5.66-3.85 3.63-7.76 7.23-11.94 10.48-4.99 3.89-10.49 5.12-16.3 4.06zm-52.98-241.16c-4.17 1.95-6.31 4.18-7.82 8.09-.99 2.57-1.51 5.43-3 7.67-3.5 5.27-7.55 10.17-11.16 15.37-1.52 2.2-3.2 4.68-3.56 7.21-.73 5.07-2.94 8.08-8.16 8.56-3.44.32-4.77 2.33-4.76 5.65.02 4.59-1.02 9.27 1.45 14.11 10.48-5.75 21.91-4.49 33.03-5.33 1.99-.15 4.04-.42 5.9-1.07 10.79-3.77 21.84-5.74 33.3-5.85 2.82-.03 5.66-1.46 8.41-2.47 1.57-.57 2.04-1.79 1.47-3.6-.76-2.41-1.49-4.93-1.56-7.43-.11-4.46-2.16-7.71-5.57-10.15-2.31-1.65-4.99-2.78-7.34-4.4-4.43-3.04-9.01-5.95-13.02-9.49-6.1-5.38-11.79-11.26-17.61-16.87z" fill="#010101"/></svg>