<svg enable-background="new 0 0 400 400" viewBox="0 0 400 400" xmlns="http://www.w3.org/2000/svg"><path d="m378.6 9.2.8-1c.9.7 1.9 1.4 2.9 2.3l-.9 1.1c-1.1-.9-2-1.7-2.8-2.4zm.5 10.7c.9-2.1 1.6-4.3 2.3-6.7.4.2.8.4 1.3.6-.7 2.1-1.5 4.3-2.2 6.6zm.4-15.2.9-.9c1 .8 2 1.6 2.8 2.4l-1 1c-1-.9-1.9-1.8-2.7-2.5zm12.5-1.3h1.2v1.4h2.7v1.1h-2.7v2.7h-1.2v-.5h-1.8v1.3h4.9v3.8h-1.2v-.5h-3.7c0 .4-.1.9-.1 1.2h5.1v1h-5.2c0 .5-.1.9-.2 1.2h6v1h-5.2c1.1 1.3 2.9 2 5.5 2.2-.4.4-.7.8-.9 1.3-2.9-.5-4.8-1.6-5.7-3.5h-.1c-.8 1.7-2.7 2.9-5.9 3.6-.2-.4-.6-.8-.9-1.1 2.8-.6 4.6-1.4 5.4-2.5h-4.8v-1h5.3c.1-.3.2-.7.2-1.2h-4.9v-1h5c0-.4 0-.8.1-1.2h-3.6v.5h-1.2v-3.8h4.9v-1.3h-1.8v.5h-1.2v-2.7h-2.6v-1.1h2.6v-1.4h1.2v1.4h4.7v-1.4zm-6.7 8.4h3.6c0-.4 0-.9 0-1.4h-3.6zm1.9-4.7h4.7v-1.2h-4.7zm6.7 3.3h-3.7v1.4h3.7z" fill="#fafbfc"/><path d="m384.7 21.4h1.3v2.2h2.8v-2.2h1.3v2.2h4.1v9.1h1.7v1.3h-16.9v-1.3h1.7v-9.1h4.1v-2.2zm.3 13.2.7 1.2c-1.8.9-3.8 1.9-6 2.9-.2-.4-.5-.8-.8-1.3 2.4-1 4.4-2 6.1-2.8zm-3.1-6.5h2.8v-3.2h-2.8zm0 4.6h2.8v-3.3h-2.8zm4.1-4.6h2.8v-3.2h-2.8zm0 4.6h2.8v-3.3h-2.8zm3.6 1.9c2.1.9 4.1 1.8 6.1 2.7l-.7 1.3c-2.2-1.1-4.2-2-6.1-2.9zm3.3-9.7h-2.8v3.2h2.8zm-2.8 7.8h2.8v-3.3h-2.8z" fill="#fafbfc"/><path d="m235.6 362.22c1.72-1.07 3.26-2.04 4.8-3-.11-.34-.21-.68-.32-1.02-1.36-.31-2.72-.63-4.19-.97-.37.88-.68 1.54-.93 2.22-2.28 6.3-2.27 6.3-8.79 6.3-1.8 0-3.62-.12-5.41.03-2.42.2-4.4-.23-5.06-2.19-2.64.67-5.03 1.6-7.5 1.85-8.44.84-16.98 1.67-25.3-.43-9.3-2.35-18.84-.35-28.13-2.12-.59-.11-1.31 0-1.88.23-6.98 2.84-10.85-1.07-14.58-7.18 2.14.78 3.61 1.31 5.44 1.97.75-5.56 5.39-4.64 9.01-4.69 3.57-.05 7.56-2.76 11.14 1.21 2.58-2.76 5.75-3.44 9.63-2.48 2.25.55 4.01-.93 4.12-3.64.29-6.99.8-13.97.91-20.96.09-5.68-1.4-10.87-5.96-14.82-1.83-1.59-3.54-3.38-5.03-5.29-2.37-3.03-2.22-5.38.23-8.19-1.78-.61-3.53-1.19-5.27-1.8-8.93-3.11-12.06-11.7-17.3-18.31-.24-.31-.31-.8-.34-1.21-.21-2.77-.86-5-3.32-7.03-1.62-1.34-1.84-4.38-2.66-6.67-.49-1.39-.92-2.8-1.4-4.27 4.51-1.8 6.35 1.85 8.54 4.2s5.93 3.75 5.39 8.27c5.07.01 7.3 3.73 9.81 7.15 3.26 4.44 6.44 8.95 9.93 13.21 1.23 1.5 4.49 3.57 4.73 3.32 2.09-2.14 6.32-2.2 6.53-6.29-1.34-.42-2.63-.81-3.67-1.14 0-11.24-.99-22.38.38-33.23.79-6.24.67-12.67 2.2-18.66.85-3.33.65-6.22.64-9.38 0-2.14 1-4.29 1.54-6.43 1.03-4.01.56-7.22-1.9-11.18-6.63-10.65-12.76-21.76-13.72-34.45 1.08-.86 2.53-1.51 2.53-2.16 0-.87-.98-1.91-1.79-2.57-3.57-2.93-5.47-6.65-5.35-11.23.21-7.52.19-15.08 1.07-22.53.46-3.95 2.57-7.72 3.99-11.55.62-1.69 1.39-3.32 2.07-4.99 1.55-3.81 2.56-7.96 4.74-11.37 3.77-5.92 2.87-11.05-1.11-16.21-3.29-4.27-6.78-8.4-9.79-12.86-3.13-4.63-5.91-9.52-8.63-14.41-2.51-4.51-4.81-9.15-7.07-13.8-.82-1.68-1.25-3.54-2.01-5.78 4.03-.39 6.74 1.19 9.13 3.46 8.11 7.71 15.11 16.29 20.52 26.13 2.33 4.23 5.25 7.98 9.92 9.93 4.05 1.69 4.1 1.52 6.26-2.24 1.88-3.27 4.07-6.39 6.36-9.4 4.62-6.06 9.28-12.1 14.14-17.97 3.64-4.39 7.11-9.17 11.59-12.52 2.99-2.23 6.06-4.29 8.77-6.92 1.97-1.92 3.86-1.22 4.58 1.43.21.79.41 1.89.05 2.49-2.8 4.55-5.62 9.09-8.7 13.46-.93 1.31-2.67 2.04-4.06 3.02-2.75 1.94-4.87 3.96-6.19 7.52-1.28 3.47-3.17 7.77-8.14 8.49-.73.11-1.58 1.33-1.87 2.2-.91 2.71-2.43 4.8-4.26 7.07-3.61 4.49-6.35 9.77-8.83 15.01-.69 1.45.37 4.18 1.37 5.9 3.21 5.58 6.63 11.04 10.21 16.39 11.3 16.88 16.63 34.68 8.8 54.62-.19.49-.37 1.15-.76 1.36-4.54 2.5-4.77 7.14-5.76 11.41-.34 1.44-.72 2.88-1.17 4.29-.97 3.06-2.09 3.39-4.71 1.39-1.75 2.36-3.44 4.48-2.33 7.96.61 1.91-.14 4.41-.74 6.51-1.35 4.77-2.99 9.45-4.51 14.17-.1.3-.22.61-.23.92-.05 5.31-.17 10.61-.09 15.92.1 6.94-.65 13.72-2.87 20.34-.44 1.31.13 2.93.04 4.39-.18 3.21-.47 6.41-.75 9.62-.18 2.03-.51 4.06-.62 6.09-.13 2.35-.12 4.71-.12 7.07.01 4.08.03 8.16.13 12.24.03 1.37.2 2.76.52 4.09.75 3.23.1 5.64-3.38 6.75-.5.16-.83.83-1.27 1.29 4.05 2.35 9.15 1.14 11.73-2.32 1.68-2.26 3.83-4.17 5.71-6.29 1.66-1.86 3.24-3.78 4.85-5.68.4-.47.71-1.32 1.15-1.38 4.52-.63 6.18-4.4 8.38-7.53 3.61-5.13 8.45-8.48 14.44-10.22-2.27-4.41.63-8.09 5.51-8.53 2.85-3.02 5.1-5.42 7.62-8.09 1.37 5.62 1.14 6.16-3.59 8.09-2.21.9-1.75 2.51-1.03 3.91.95 1.86.73 3.39-.46 4.98-4.88 6.53-9.71 13.1-14.62 19.61-.4.53-1.18.91-1.85 1.08-1.82.47-2.72 2.29-3.92 3-5.42 3.24-6.86 9.9-12.52 13.09-4.17 2.35-8.68 5.34-10.45 10.58-.21.63-1.33.93-1.97 1.44-1.29 1.03-2.67 1.98-3.78 3.18-2.95 3.15-4.96 6.5-3.05 11.15 1.82 4.43-.85 8.14-2.96 11.96 2.49 1.99 5.09 2.35 7.88 1.73 3.6-.8 7.16-2.02 10.72.29.69.45 1.86.21 2.81.21 7.53.01 15.06-.17 22.59.07 5.24.17 10.47.87 15.68 1.46.86.1 1.6.97 2.46 1.35 2.06.91 4.19 1.69 6.24 2.63.89.41 1.65 1.09 2.47 1.65-.1.27-.19.54-.29.81-5.45 1.26-10.86 2.79-16.37 3.65-2.1.35-4.87-.24-5.37-3.23zm-54.1-253.55c-.95 1.72-1.99 3.31-2.72 5.04-.31.74-.28 2.32.15 2.57 2.9 1.66 1.47 3.74.72 5.71-.79 2.07-1.8 4.05-2.62 6.12-3.99 10.13-7.91 20.18-3.28 31.35 2.17 5.23 3.08 10.97 5.11 16.26 1.71 4.45 4.08 8.61 2.45 13.6-.11.34.11.79.04.39 1.86 1.46 3.16 2.53 4.5 3.54.92.69 1.88 1.75 2.85 1.78.79.02 1.96-1.08 2.38-1.96 3.85-8.11 8.1-16.1 11.15-24.51 2.09-5.76 2.49-12.13 3.52-18.25.12-.71-.51-1.57-.88-2.32-5.49-11.19-11.03-22.36-16.48-33.57-1.36-2.83-3.18-4.98-6.89-5.75z" fill="#010104"/></svg>