<svg enable-background="new 0 0 400 400" viewBox="0 0 400 400" xmlns="http://www.w3.org/2000/svg"><path d="m378.6 9.2.8-1c.9.7 1.9 1.4 2.9 2.3l-.9 1.1c-1.1-.9-2-1.7-2.8-2.4zm.5 10.7c.9-2.1 1.6-4.3 2.3-6.7.4.2.8.4 1.3.6-.7 2.1-1.5 4.3-2.2 6.6zm.4-15.2.9-.9c1 .8 2 1.6 2.8 2.4l-1 1c-1-.9-1.9-1.8-2.7-2.5zm12.5-1.3h1.2v1.4h2.7v1.1h-2.7v2.7h-1.2v-.5h-1.8v1.3h4.9v3.8h-1.2v-.5h-3.7c0 .4-.1.9-.1 1.2h5.1v1h-5.2c0 .5-.1.9-.2 1.2h6v1h-5.2c1.1 1.3 2.9 2 5.5 2.2-.4.4-.7.8-.9 1.3-2.9-.5-4.8-1.6-5.7-3.5h-.1c-.8 1.7-2.7 2.9-5.9 3.6-.2-.4-.6-.8-.9-1.1 2.8-.6 4.6-1.4 5.4-2.5h-4.8v-1h5.3c.1-.3.2-.7.2-1.2h-4.9v-1h5c0-.4 0-.8.1-1.2h-3.6v.5h-1.2v-3.8h4.9v-1.3h-1.8v.5h-1.2v-2.7h-2.6v-1.1h2.6v-1.4h1.2v1.4h4.7v-1.4zm-6.7 8.4h3.6c0-.4 0-.9 0-1.4h-3.6zm1.9-4.7h4.7v-1.2h-4.7zm6.7 3.3h-3.7v1.4h3.7z" fill="#fafbfc"/><path d="m384.7 21.4h1.3v2.2h2.8v-2.2h1.3v2.2h4.1v9.1h1.7v1.3h-16.9v-1.3h1.7v-9.1h4.1v-2.2zm.3 13.2.7 1.2c-1.8.9-3.8 1.9-6 2.9-.2-.4-.5-.8-.8-1.3 2.4-1 4.4-2 6.1-2.8zm-3.1-6.5h2.8v-3.2h-2.8zm0 4.6h2.8v-3.3h-2.8zm4.1-4.6h2.8v-3.2h-2.8zm0 4.6h2.8v-3.3h-2.8zm3.6 1.9c2.1.9 4.1 1.8 6.1 2.7l-.7 1.3c-2.2-1.1-4.2-2-6.1-2.9zm3.3-9.7h-2.8v3.2h2.8zm-2.8 7.8h2.8v-3.3h-2.8z" fill="#fafbfc"/><g fill="#010104"><path d="m119.88 269.1c5.58 2.95 6.89 7.29 5.61 13.15-1.09 5.01 2.4 8.05 7.33 6.64 4.32-1.24 7.9.69 11.64 1.89 2.35.75 4.38 1.06 6.63-.2 3.88-2.17 8.18-2.48 12.54-2.89 8.5-.8 16.8-.23 25.24 1.13 6.08.98 12.45.33 18.68.19 2.82-.07 5.42-.13 7.74 1.91.76.66 2.18.96 3.23.84 15.93-1.77 31.42 2.09 47.1 3.53 2.11.19 4.23.42 6.3.85 4.41.91 5.56-.76 6.69-5.45.31-1.28-.25-2.73-.19-4.1.15-3.23.39-6.46.67-9.69.18-2.09.7-4.17.69-6.25-.05-6.25-.14-12.51-.5-18.76-.22-3.78-.93-7.54-1.51-11.3-1.56-10.02-.27-19.4 3.87-26.8 3.89.83 5.29 3.88 5.92 7.24.6 3.21.63 6.53.94 9.8.8 8.33 1.65 16.65 2.41 24.98 1.66 18.07.44 36-2.82 53.81-1.59 8.65-3.2 17.29-4.91 25.91-.2 1.03-.81 2.27-1.63 2.83-17.47 12.05-35.94 22.08-56.92 26.53-16.72 3.55-33.5 2.58-50.24-.14-2.61-.42-5.25-.66-7.87-1.08-3.86-.62-7.97-.07-11.18-3.41-1-1.04-3.37-1.06-5.11-1.04-4.74.05-8.96-1.2-12.76-4.03-4.76-3.55-9.39-7.31-14.39-10.47-6.29-3.97-9.12-9.81-10.25-16.75-.77-4.7-1.57-9.44-1.77-14.18-.12-2.88 1.07-5.8 1.31-8.73.18-2.23.28-4.67-.43-6.73-3.28-9.59-2.43-19.24-.85-28.92 1.04-6.38 2.26-12.72 3.37-19.09.14-.83.38-1.78.12-2.51-2.83-7.88.29-15.5 1-23.21.44-4.77 1.01-4.97 5.74-4.37.5.06 1.3.14 1.43.44 1.42 3.24 3.83 6.52 3.86 9.81.09 9.52-.93 19.05-1.21 28.58-.1 3.43-.86 6.18-3.75 8.18-.59.42-1 1.04-1.77 1.86zm35.6 29.2c-.01.39-.03.78-.04 1.18-3.92 0-7.89-.43-11.73.11-4.98.7-9.89 2.06-14.75 3.43-1 .28-2.2 1.82-2.34 2.89-.75 6.08-1.74 12.22-1.57 18.31.1 3.58 1.37 7.76 3.56 10.51 2.7 3.36 6.62 6.08 10.53 8.08 16.18 8.3 33.2 13.98 51.6 14.2 20.17.25 39.47-4.54 58.48-10.77 5.77-1.89 11.49-3.88 15.89-8.3 3.66-3.68 7.18-7.51 10.61-11.41.71-.81.93-2.23.98-3.39.1-2.42-.24-4.86-.07-7.26.38-5.35-1.25-8.25-6.07-10.74-5.01-2.59-10.27-2.05-15.56-1.63-4.75.37-9.54 1.13-14.26.84-17.87-1.12-35.72-2.63-53.58-3.93-10.56-.78-21.12-1.42-31.68-2.12z"/><path d="m186.07 149.05c.79-8.99 2.05-17.99 2.13-26.99.03-3.63-2.6-7.25-3.88-10.92-1.94-5.56-3.69-11.19-5.68-16.74-.72-1.99-1.85-3.85-2.9-5.71-2.06-3.66-5.06-7.04-6.13-10.96-2.54-9.37-4.18-18.98-6.23-28.74 2.47-.23 4.57-.62 6.64-.52.87.04 2.08.93 2.48 1.76 3.03 6.28 5.9 12.64 8.82 18.97 3 6.5 6.02 12.99 9.47 19.37 7.22-18.35 14.29-36.37 23.69-53.29.72.12 1.06.11 1.33.24.56.27 1.09.62 1.97 1.14-1.09 2.05-2.15 4.04-3.44 6.48 1.63-.21 2.77-.32 3.9-.5 3.08-.49 4.83.96 4.73 4.12-.03 1.04-.34 2.09-.65 3.09-4.1 12.91-8.21 25.81-12.34 38.71-.35 1.1-.65 2.29-1.28 3.22-4.65 6.85-6.02 14.61-6.35 22.63-.33 7.84-.48 15.68-.64 23.52-.02.97.3 2.75.62 2.79 1.13.12 2.54-.02 3.47-.63 9.38-6.18 18.74-12.39 27.97-18.78 2.34-1.62 4.65-2.31 7.39-2.07 3.13.28 4.95-1.24 5.79-4.21.69-2.43 3.29-3.58 6.16-2.51 2.31.86 2.71 3.12 1.94 5.02-1.51 3.73-2.93 7.34-7.33 9.3-4.55 2.02-8.79 5.05-12.66 8.25-10.86 9-21.48 18.27-32.09 27.55-1.03.9-1.91 2.59-1.94 3.94-.33 14.93-.57 29.87-.65 44.81-.05 8.98-.36 17.84-5.76 25.59-.48.69-1.03 1.34-1.59 1.98-.18.21-.5.31-1.64.98-1-8.06-2.53-15.64-2.77-23.26-.46-14.41-.25-28.84-.18-43.26.01-2.87-.55-5.31-2.21-7.7-1.16-1.67-1.58-3.84-2.54-5.67-.46-.88-1.32-1.75-2.21-2.15-1.23-.56-2.64-.77-4-.95-4.87-.64-9.12-2.37-12.44-6.2-.78-.9-2.05-1.67-3.21-1.88-3.84-.71-6.66-2.95-9.49-5.41-10.57-9.17-21.22-18.24-31.83-27.37-.8-.69-1.63-1.42-2.17-2.3-2.05-3.35-5.07-5.22-8.73-6.41-3.79-1.24-6.62-6.21-5.84-10.11.13-.63.97-1.51 1.55-1.57 2.28-.25 4.68-.65 6.88-.21 10.97 2.21 19.52 8.6 26.47 16.94 4.11 4.93 7.84 9.91 14.15 12.18 1.12.4 1.99 1.54 2.97 2.34 4.19 3.4 8.39 6.79 12.56 10.22 3.27 2.69 6.42 5.52 9.74 8.13 2.04 1.6 4.31 2.9 6.48 4.33.49-.19.99-.38 1.5-.58z"/></g></svg>