<svg enable-background="new 0 0 400 400" viewBox="0 0 400 400" xmlns="http://www.w3.org/2000/svg"><path d="m254.6 97.1c.5-6.1 1.5-11.9 1.3-17.7-.2-7.9-1.3-15.8-2-23.8-.8-8.5-.1-16.8 3.7-24.6 1.6-3.2 2.9-3.6 5.9-1.6 4.2 2.9 5.1 7.4 5.2 12 .3 14.4.4 28.7.7 43.1.1 4.3.6 8.6.7 12.9.1 2.3 1.7 2.8 3.3 3 6.8.8 13.6 1.5 20.4 2.3 4.8.6 9.6 1.1 14.4 2 1.7.3 3.5 1.6 4.7 2.8 3.8 3.8 2.8 7.4-2.1 9.1-7.1 2.5-14 .7-20.9-.4-6.6-1-13.3-1.9-20.3-3 0 4.1-.1 7.5 0 10.9.2 11.3.6 22.5.7 33.8 0 2.7.6 4.5 3.5 4.9 6.5 1 13 2.2 19.5 3.1 4.4.6 8.9.3 13.1 1.2 5.5 1.1 9.1 4.7 10.9 10.4-4.1 2.9-8.8 4.5-13.7 4-9.9-1.1-19.6-2.8-29.5-4.2-.5-.1-1.1-.2-1.9-.3-.1 1.2-.1 2.2-.2 3.3-2.1 24 1.1 47.9 2.4 71.8.6 10.1.9 20.4 2.4 30.4 3.9 26.2 8.5 52.3 16.2 77.8.7 2.5 1 5.2.9 7.8-.1 3.3-2.6 5.7-5.3 5.9-3.1.2-5.6-1.8-6.6-5.1-8.2-27.6-14.1-55.7-18.9-83.9-1.8-10.5-2.4-21.3-2.9-32-1.3-24.6-2.2-49.2-3.1-73.9-.1-3.2-1.2-4.7-4-5.9-6.2-2.6-12.3-5.5-18.5-8.1-10.5-4.6-15.2-13.6-18.4-23.8-5.1-16.2-5.8-32.9-4.7-49.6.7-11.5 2.8-23 4.1-34.5.4-3.4 3-4 5.4-4.1 1.1 0 2.7 1.8 3.4 3.1 3.9 6.8 2.7 14 1.6 21.3-.6 4.1-.6 8.3-.4 12.5 0 1.1 1.3 2.9 2.3 3 8.7 1.5 17.3 2.7 26.7 4.1zm-28.8 9c-.5 9.2-.4 17.9 1.8 26.4 2.7 10.4 7.5 19.1 19.2 21.7 2.3.5 4.5 1.7 6.8 2.5.7.2 1.4.3 2.3.4 0-14.9 0-29.5-.1-44.1 0-.7-1.3-2-2.2-2.1-9-1.6-18.1-3.1-27.8-4.8z" fill="#000001"/><path d="m140.2 97.1c10.2-1.5 19.6-2.8 29.2-4.2-.4-7.6-1-14.9-1.2-22.1-.1-3.8.3-7.7 1.1-11.4.8-3.6 3.5-6 7.7-6.7 3.6 6.4 5.2 13.4 6 20.5 2.4 20.1 1.8 40.2-1.4 60.2-2.4 15-11.7 25.7-24.3 33.5-4.2 2.6-9.3 3.9-14.1 5.4-4.8 1.4-6 2.4-6 7.5.3 30.1-3.5 60-5.7 90-2.2 30.4-9.2 60-14.9 89.8-.6 3.1-1.7 6.2-2.6 9.2-1.3 4.1-3.3 5.6-6.5 5.3-3.8-.4-5.1-1.3-5.1-6.2.1-5.9.6-12 2.1-17.6 7-27.4 11-55.2 14.2-83.2 3.2-27.8 4.3-55.8 4.4-83.7 0-1.3 0-2.6 0-4.3-5.8.4-11.1.8-16.5 1.2-4.7.4-9.5 1-14.2 1-3.5 0-7-.5-10.5-1.1-2.7-.4-3.8-2.4-3.7-5.1s1.4-3.9 4.2-4.4c13.1-2.2 26.1-4.6 39.6-6.9.9-16.4 1.8-32.8 2.8-49.8-5.1.7-9.9 1.3-14.6 1.9-5.3.7-10.5 1.8-15.8 2.2-3.2.3-6.6-.1-9.8-.7-2.6-.5-4.1-2.5-4.2-5.3-.2-2.7.9-4.4 3.5-5.7 6.9-3.4 14.3-3.3 21.7-4.1 4.9-.5 9.9-1.3 14.8-1.8 3.7-.4 5.6-2.3 5.7-6 .2-10.4.6-20.7.3-31.1-.2-8.7-1.1-17.5 1.8-26 1-3.1 2.6-6 3.9-9.1 3.7.7 5.8 2.8 6.6 5.6 1.3 4.4 2.6 9 2.6 13.5.1 10.6-.6 21.2-.9 31.8-.3 5.7-.2 11.6-.2 17.9zm-1.2 62.6c5.3-2.4 9.9-4.2 14.2-6.5 6.7-3.7 11.8-8.8 13.4-16.7 1-4.5 2.6-8.9 3.6-13.4.6-2.8.9-5.7.7-8.5-.4-5.1-4.1-7.9-9.1-7.1-6.6 1.1-13.3 2.3-19.9 3.2-2.3.3-3.1 1.2-3.1 3.6.1 11.6.1 23.2.1 34.8.1 3.2.1 6.4.1 10.6z" fill="#000001"/><g fill="#fafafb"><path d="m362.1 8.8c1.1.8 2.1 1.6 3.1 2.4l-1 1.1c-1.3-1.1-2.3-2-3-2.5zm1.9 4.8c.5.2.9.4 1.4.5-.6 2.3-1.3 4.5-1.9 6.8l-1.5-.5c.8-2.1 1.4-4.3 2-6.8zm-1-9.4c1.3.9 2.4 1.8 3.4 2.5l-1 1.1c-1.4-1.2-2.4-2.1-3.2-2.6zm3.7 2.2v-1.4h10.3v1.2c-.5 3.6-1.8 6.8-4 9.4 1.5 1.6 3.4 2.8 5.7 3.8-.3.4-.7.8-1.1 1.4-2.3-1.1-4.1-2.5-5.6-4.1-1.6 1.6-3.6 3.1-5.9 4.3-.3-.5-.7-.9-1-1.3 2.4-1.1 4.4-2.5 6-4.1-1.9-2.5-3-5.6-3.3-9.3h-1.1zm8.8 0h-6.4c.3 3.3 1.3 6 3 8.2 2-2.3 3.1-5.1 3.4-8.2z"/><path d="m385.3 3.8h1.3v2.2h2.8v-2.2h1.3v2.2h4.1v9.1h1.7v1.3h-16.9v-1.3h1.7v-9.1h4.1v-2.2zm.4 13.1.7 1.2c-1.8.9-3.8 1.9-6 2.9-.2-.4-.5-.8-.8-1.3 2.3-1 4.3-1.9 6.1-2.8zm-3.1-6.4h2.8v-3.2h-2.8zm0 4.6h2.8v-3.3h-2.8zm4-4.6h2.8v-3.2h-2.8zm0 4.6h2.8v-3.3h-2.8zm3.7 1.9c2.1.9 4.1 1.8 6.1 2.7l-.7 1.3c-2.2-1.1-4.2-2-6.1-2.9zm3.2-9.7h-2.8v3.2h2.8zm-2.8 7.8h2.8v-3.3h-2.8z"/></g></svg>