<svg enable-background="new 0 0 400 400" viewBox="0 0 400 400" xmlns="http://www.w3.org/2000/svg"><path d="m266.04 193.19c2.84 1.05 4.86.6 7.18-.85 7.76-4.85 13.68-11.65 20.02-18.03 1.87-1.88 4.2-3.68 6.65-4.54 4.02-1.41 6.48-4.02 7.62-7.84 1.86-6.23 6.45-9.44 12.46-11.86 3.65 4.92 7.34 9.89 11.24 15.16-4.08 3.54-8.05 6.99-12.03 10.43-5.54 4.78-11.15 9.48-16.58 14.38-1.85 1.67-3.63 3.63-4.75 5.82-1.72 3.35-4 5.63-7.77 6.19-2.44.36-3.53 1.66-3.03 4.11.77 3.76-1.27 5.75-3.98 8.06-6.19 5.27-11.94 11.05-17.79 16.72-3.89 3.77-8.23 6.58-13.6 7.75-2.68.59-4.72.37-5.97-2.44-.55-1.23-1.5-2.29-2.63-3.96-2.04 4.47-3.89 8.53-5.75 12.62 2.73 1.41 5.78-2.7 8.42 1.02-.86.75-1.65 1.55-2.54 2.22-10.86 8.11-21.66 16.31-32.67 24.22-2.6 1.87-5.83 3.04-8.92 4.04-4.42 1.42-4.71 1.13-7.11-3.21-1.48 3.64-2.73 7.03-4.26 10.29-.63 1.35-1.62 2.78-2.84 3.56-12.12 7.79-24.26 15.55-36.59 23.01-1.8 1.09-4.66 1.03-6.89.65-2.87-.48-4.49.53-4.81 3.05-.44 3.44-2.53 4.06-5.41 4.56-3.07.53-3.04-1.91-4.08-3.4-.16-.23-.46-.37-.7-.56-.39 2.08-.77 4.07-1.25 6.61-5.6-3.13-9.56.01-13.9 2.25-11.09 5.71-22.2 11.43-33.56 16.58-5.08 2.3-10.44 3.55-15.52 6.45-9.16 5.23-19.54 6.95-30 2.91-1.2-.46-2.17-1.54-3.73-2.69 1.51-.92 2.26-1.45 3.07-1.87 5.93-3.06 11.87-6.1 17.8-9.15 4.54-2.33 6.13-5.04 5.6-10.16-.2-1.97-.82-3.92-1.39-5.84-.33-1.1-.88-2.16-1.43-3.18-4.29-7.94-6.58-16.26-6.83-25.43-.51-19.28-1.8-38.55-2.57-57.83-.13-3.25-.89-5.39-4.18-6.39-1.58-.48-3.02-1.45-5.43-2.64 6.43-3.29 12.16-6.3 17.96-9.16 2.17-1.07 4.51-1.81 6.8-2.65 4.77-1.75 9.52-1.81 14.26.17 1.06.44 2.19.72 3.47 1.13.06-.68.05-1.18.16-1.66.31-1.33.64-3.77 1.01-3.78 1.69-.04 3.43.49 5.07 1.06.85.3 1.47 1.22 2.29 1.67 4.88 2.69 8.6 2.09 11.25-2.63 3.03-5.39 7.42-8.51 13.21-10 9.22-2.36 18.39-4.93 27.7-6.86 2.64-.55 5.75.62 8.52 1.41 1.73.5 2.83.47 3.61-1.21.04-.09.11-.18.18-.26 2.19-3.11 3.75-7.47 6.75-8.99 3.14-1.59 7.66-.48 11.58-.51 4.88-.03 9.76.11 14.63-.06 2.1-.08 3.71.53 4.26 2.42.89 3.09 1.51 6.29 1.92 9.48.08.6-1.24 1.78-2.1 2.03-4.48 1.26-9 2.41-13.56 3.37-3.71.78-6.88 2.37-9.9 4.69-1.62 1.24-3.91 1.97-5.99 2.2-7.69.85-15.43 1.19-23.1 2.16-3.19.4-5.55-.26-7.68-2.45-.42-.43-.97-.75-1.55-1.19-.2.49-.43.78-.4 1.03.62 5.88-3.12 7.76-7.87 9.41-8.5 2.94-16.82 6.39-25.21 9.64-.17.07-.3.26-.65.57.5.43.88.91 1.39 1.17 3.47 1.73 5.56 3.75 4.28 8.33-.59 2.11 1 4.87 1.71 7.29 4.77 16.29 6.27 33.02 6.98 49.76-8.15 4.36-10.57 10.29-6.79 15.95-1.61 1.64-3.2 3.28-4.98 5.09-1.04-3.51-2.07-7.01-3.09-10.47 4.7-3 4.79-6.23.95-9.8-1.29-1.2-2.49-3.6-2.2-5.18 1.17-6.43-.12-12.62-.73-18.93-.69-7.15-.27-14.4-.77-21.57-.38-5.55-1.33-11.08-2.22-16.58-.36-2.26-1.87-3.5-4.31-3.96-3.62-.68-7.16-1.82-10.88-2.8-2.05 4.07-5.28 5.69-9.64 5.03-1.54-5.07-5.87-7.46-10.79-5.92-.55.17-1.09.91-1.3 1.51-.38 1.09-.64 2.26-.72 3.41-.07 1.04.17 2.11.28 3.17.99-.44 1.94-.99 2.97-1.31 1.25-.38 2.6-.83 3.84-.69.49.06 1.12 1.63 1.15 2.53.14 4.01 1.62 7.4 4.41 10.19 1.56 1.56 1.35 2.94.5 4.82-.8 1.75-1.28 3.8-1.29 5.72-.03 7.42.02 14.85.41 22.26.15 2.92-.56 4.85-3.15 6.14-.62.31-1.12.86-2.26 1.75.81.48 1.4.74 1.88 1.13 4.1 3.26 6.05 7.53 5.9 12.76-.22 8.13-.4 16.27-.69 24.4-.13 3.66 1.52 5.88 5.12 6.28 2.84.32 5.7.63 8.55.66.96.01 2.21-.66 2.84-1.42 4.14-5.06 10.36-6.88 15.67-10.09 1.07-.65 3.16.39 5.1.7 2.12-1.87 3.05-4.56 2.95-7.68-.12-3.61 1.12-6.62 4.04-9.14 1.19 2.61 2.33 5.13 3.46 7.61 2.04-.83 3.63-1.66 5.32-2.13 3.69-1.03 4.54-.41 6.26 3.04.46.92 1.96 1.31 3.07 2 .31-.79.46-.98.45-1.16-.63-7.18-.63-7.18 6.06-10.02 8.09-3.43 16.15-6.92 24.3-10.21 1.08-.43 2.61.11 3.89.4.69.15 1.24.81 1.92 1.07 4.15 1.53 6.03.22 6.04-4.14 0-1.14 0-2.29 0-3.79 2.05.58 3.74 1.15 5.48 1.52.96.21 2.44.5 2.86.02.52-.59.48-2.04.16-2.93-.77-2.17-1.83-4.24-2.9-6.6 4.03-1.6 7.98-3.39 12.08-4.69 1.28-.41 3.01.36 4.47.82 3.24 1.01 5.13-.47 4.29-3.71-.78-2.98.22-5.17 2.78-6.33 3.93-1.78 7.98-3.37 12.09-4.65 3.12-.97 5.74-2.3 7.99-4.78 5.64-6.19 11.39-12.29 17.36-18.16 2.85-2.8 6.49-4.78 9.4-7.53 4.52-4.26 8.81-8.78 13-13.37 1.6-1.75 1.82-4.01 1.3-6.54-1.57-7.57-2.79-15.21-4.19-22.81-.77-4.17 0-4.89 3.96-3.63.58.18 1.19.25 1.78.38.99-4.86.58-5.4-3.99-5.41-1.26 0-2.52 0-4 0-.48-3.03-.98-5.83-1.36-8.65-1.24-9.12-8.94-15.03-19.39-12.64 1.18 3.09 2.31 6.07 3.56 9.34-2.52.68-5.7 1.53-9.15 2.46.44 1.74.84 3.35 1.33 5.31-6.5.83-8.98 5.96-11.62 10.95-.49.93-.96 2.04-1.77 2.59-1.62 1.1-3.44 2.5-5.23 2.57-1.36.05-2.8-1.76-4.42-2.89-.26 1.27-.29 2.92-.95 4.26-.63 1.27-1.78 2.45-3 3.15-.48.28-1.97-.68-2.66-1.4-1.84-1.89-3.49-3.96-5.17-5.91 3.44-6.35 7.32-11.94 13.89-15.35 4.5-2.33 8.73-5.24 12.86-8.19 3.27-2.33 6.3-3.94 9.96-.17.69-1.48 1.2-2.57 1.71-3.65-5.45-2.87-5.63-4.23-1.93-8.94 3.54-4.49 6.89-9.14 10.27-13.75 2.81-3.84 6.17-6.96 10.87-8.64-1.93-2.11-2.07-4.21-.5-6.53 3.51-5.17 6.9-10.43 10.37-15.63 1.46-2.19 3.4-3.3 6.18-2.91.92.13 2.47-.19 2.82-.82.74-1.34 1.68-3.45 1.12-4.45-1.61-2.87-1.25-5.34.44-7.72 5.31-7.5 10.59-15.04 16.26-22.26 1.02-1.3 3.8-1.58 5.79-1.66 2.71-.11 3.27-1.3 3.38-3.74.14-2.86.86-5.7 1.36-8.7 4.52 1.83 6.24 5.2 4.86 9.52-1.48 4.63-3.63 9.04-5.17 13.65-3 8.96-7.89 16.81-13.52 24.3-3.25 4.32-6.18 8.88-9.39 13.22-2.68 3.62-5.04 7.24-5.09 12.02-.01 1.29-.97 2.75-1.88 3.8-2.77 3.21-5.63 6.35-8.65 9.32-1.5 1.48-1.76 2.76-1.07 4.73 4.11 11.91 8.02 23.89 12.16 35.78.95 2.74 1.22 5.16 0 7.89-1.32 2.87-2.16 5.94-3.26 9.14zm-129.69 14.12c3.06-2.05 5.76-3.85 8.55-5.72-5.93-4.39-8.08-4.33-12.57.2 1.28 1.78 2.58 3.56 4.02 5.52zm115.56-62.56c.04-.2.07-.4.11-.6-1.44-.86-3.01-1.56-4.3-2.61-2.66-2.15-5.08-2.08-7.35.43-.54.59-1.28 1.78-1.06 2.12.45.69 1.51 1.38 2.3 1.36 3.45-.09 6.87-.44 10.3-.7zm-161.29 112.2c2.84-1.21 3.65-3.47 3.74-6 .09-2.57-1.41-4.3-3.74-5.83zm-30.09 74.34c-.4 2.27-3.7 2.96-1.14 5.46 1.7 1.67 2.7.5 3.82-.81-.81-1.39-1.54-2.67-2.68-4.65zm145.8-68c-3.98 3.98-3.98 3.98-2.2 6.35 1.2-.76 2.42-1.52 3.72-2.34-.53-1.39-.96-2.52-1.52-4.01zm58.44-155.87c-1 1.96-1.77 3.45-2.53 4.94 1.75-.25 3.5-.49 5.93-.83-1.38-1.67-2.1-2.54-3.4-4.11zm-51.02 63.44c-1.08-1.23-1.94-2.21-2.98-3.39v5.46c1.22-.85 2.14-1.48 2.98-2.07z" fill="#010000"/><path d="m334.17 158.31c.13-1.08.24-1.9.32-2.72.41-4.07-1.1-5.64-5.24-5.4-2.43.14-4.74.06-5.75-2.75-1.08-2.99-.3-5.35 2.41-7.29 1.03-.74 2.1-1.44 3.09-2.23 2.84-2.28 5.61-4.91 9.11-.92.95-2.25.95-2.25-2.04-6.34 1.67-1.21 3.34-2.42 4.87-3.53.31 2.14.6 4.16.98 6.83 2-1.43 3.1-2.22 4.3-3.08 1.94 1.29 3.85 2.55 6.32 4.18-.32-4.92 2.01-9.32-.49-13.74-1.94 1.44-3.39 2.84-5.11 3.65-.72.34-2.03-.57-3.51-1.05 2.66-2.45 4.71-4.82 7.22-6.47 1.53-1 3.77-1.18 5.71-1.22 2.36-.04 3.41-.94 3.69-3.24.25-2.06.78-4.1 1.32-6.76 2.43 2.74 2.25 5.5 1.81 8.05-1.01 5.94-2.31 11.83-3.61 17.72-.17.78-.94 1.49-1.57 2.1-.44.42-1.08.67-1.68.88-5.55 1.95-9.64 5.5-11.99 10.94-.82 1.9-2.15 2.54-4.25 2.47-3.49-.11-4.42 1.19-3.6 4.74.51 2.22 0 3.9-2.31 5.18z" fill="#010000"/><g fill="#fafafb"><path d="m361.2 9.6.8-1c.9.7 1.9 1.4 2.9 2.3l-.9 1.1c-1-1-2-1.8-2.8-2.4zm.5 10.6c.9-2.1 1.6-4.3 2.3-6.7.4.2.8.4 1.3.6-.7 2.1-1.5 4.3-2.2 6.6zm.4-15.2.9-.9c1 .8 2 1.6 2.8 2.4l-1 1c-.9-.9-1.8-1.7-2.7-2.5zm12.5-1.2h1.2v1.4h2.7v1.1h-2.7v2.7h-1.2v-.6h-1.8v1.3h4.9v3.8h-1.2v-.5h-3.7c0 .4-.1.9-.1 1.2h5.1v1h-5.2c0 .5-.1.9-.2 1.2h6v1h-5.2c1.1 1.3 2.9 2 5.5 2.2-.4.4-.7.8-.9 1.3-2.9-.5-4.8-1.6-5.7-3.5h-.1c-.8 1.7-2.7 2.9-5.9 3.6-.2-.4-.6-.8-.9-1.1 2.8-.6 4.6-1.4 5.4-2.5h-4.8v-1h5.3c.1-.3.2-.7.2-1.2h-4.9v-1h5c0-.4 0-.8.1-1.2h-3.5v.5h-1.2v-3.8h4.9v-1.3h-1.8v.5h-1.2v-2.7h-2.7v-1h2.6v-1.4h1.2v1.4h4.7v-1.4zm-6.6 8.3h3.6c0-.4 0-.9 0-1.4h-3.6zm1.9-4.6h4.7v-1.3h-4.7zm6.6 3.2h-3.7v1.4h3.7z"/><path d="m385.3 3.8h1.3v2.2h2.8v-2.2h1.3v2.2h4.1v9.1h1.7v1.3h-16.9v-1.3h1.7v-9.1h4.1v-2.2zm.4 13.1.7 1.2c-1.8.9-3.8 1.9-6 2.9-.2-.4-.5-.8-.8-1.3 2.3-1 4.3-1.9 6.1-2.8zm-3.1-6.4h2.8v-3.2h-2.8zm0 4.6h2.8v-3.3h-2.8zm4-4.6h2.8v-3.2h-2.8zm0 4.6h2.8v-3.3h-2.8zm3.7 1.9c2.1.9 4.1 1.8 6.1 2.7l-.7 1.3c-2.2-1.1-4.2-2-6.1-2.9zm3.2-9.7h-2.8v3.2h2.8zm-2.8 7.8h2.8v-3.3h-2.8z"/></g></svg>