<svg enable-background="new 0 0 400 400" viewBox="0 0 400 400" xmlns="http://www.w3.org/2000/svg"><path d="m199.6 236.8c-12.6-.2-25-.2-36.9 4.1-8.5 3.1-14.2 11.1-14.7 20.5-.7 14.3 1.8 28.1 7 41.2 6.1 15.7 13.2 31.1 19.6 46.7 2.4 5.9 4.6 12 5.9 18.2 1.2 5.2-1.9 7.5-7 6-1.2-.3-2.3-1.6-3-2.7-13.6-21.1-22.4-44.3-29-68.3-2.8-10.2-5-20.6-7.2-31-1.2-5.8-.4-11.7 1.4-17.3.6-1.8 1.4-3.5 1.8-5.3 2.7-12.3 11.8-18.1 22.7-21.1 12.6-3.5 25.4-5.7 38.6-5.4 11.5.2 17.8-5.9 17.7-17.4 0-7.1-.9-14.1-1.6-21.1-.1-.7-1.7-1.8-2.7-1.8-7-.2-13.9 0-20.9-.1-9.1-.2-18-1.3-26.7-4.1-14.5-4.7-23.2-14.9-25.6-29.4-2.6-15.4-3.6-31.1-4.9-46.8-1-11.7-.5-23.5 2.7-34.9 1.5-5.4 3.2-10.9 6-15.7 2.3-3.9 6.4-6.9 9.9-10.1 9.6-8.9 21.2-12.6 34-12.4 12.4.1 24.8 0 37.1 1.2 14.2 1.4 23.9 9.7 29.9 22.7 5.6 12.3 8.2 25.2 8.7 38.5.6 17.3-.6 34.5-5.5 51.2-3.1 10.6-6.9 20.9-15.8 28.1-3.1 2.5-6.8 4.4-10.4 6.2-1.7.9-2.4 1.8-2.3 3.8.4 10.4.4 20.8.9 31.2.3 6.2-2.2 10.9-6.6 14.8-2.7 2.3-5.5 4.4-8.3 6.6-1.5 1.2-1.9 2.5-1.4 4.6 3.7 15.6 6.6 31.4 11.1 46.7 2.8 9.4 7.5 18.4 12 27.2 5.6 11 11.9 21.7 17.8 32.6 1.2 2.3 2.2 4.8 2.7 7.4.8 3.9-2.2 6.7-6.1 6.1-2.9-.4-5.3-1.5-7.1-4.2-9.8-15-19.8-29.8-27.3-46.1-5.5-12-7.9-24.8-10.3-37.6-2.1-10.9-4.1-21.6-6.2-32.8zm-50.3-119.2h97.8c.2-7.6.4-15 .5-22.4 0-1.6-.4-3.3-.7-4.9-.5-2.6-1.8-3.7-4.8-3.7-29.8.1-59.7.1-89.5.1-1.1 0-2.2 0-3.4 0 .1 10.5.1 20.6.1 30.9zm0 17.2c1 4.4 1.3 8.5 2.8 12 3.8 8.9 9 16.6 19.5 18.5 6.3 1.2 12.5 2.8 18.9 3.4 13.9 1.3 27.4-.6 39.3-8.7 3.2-2.1 7.2-4.3 8.7-7.4 2.8-6 4-12.7 6.1-19.5-31.9.5-63.1 1.1-95.3 1.7zm96.5-63.4c-.6-1.9-1-3.5-1.6-5.1-4.4-12.6-12-21.6-26.2-22.9-2-.2-3.9-.7-5.9-.9-12.9-1.2-25.8-2.1-38.5 1.6-14.6 4.2-22.2 13.4-22.2 27.2 31.3.1 62.6.1 94.4.1z" fill="#000001"/><g fill="#fafafb"><path d="m362.1 8.8c1.1.8 2.1 1.6 3.1 2.4l-1 1.1c-1.3-1.1-2.3-2-3-2.5zm1.9 4.8c.5.2.9.4 1.4.5-.6 2.3-1.3 4.5-1.9 6.8l-1.5-.5c.8-2.1 1.4-4.3 2-6.8zm-1-9.4c1.3.9 2.4 1.8 3.4 2.5l-1 1.1c-1.4-1.2-2.4-2.1-3.2-2.6zm3.7 2.2v-1.4h10.3v1.2c-.5 3.6-1.8 6.8-4 9.4 1.5 1.6 3.4 2.8 5.7 3.8-.3.4-.7.8-1.1 1.4-2.3-1.1-4.1-2.5-5.6-4.1-1.6 1.6-3.6 3.1-5.9 4.3-.3-.5-.7-.9-1-1.3 2.4-1.1 4.4-2.5 6-4.1-1.9-2.5-3-5.6-3.3-9.3h-1.1zm8.8 0h-6.4c.3 3.3 1.3 6 3 8.2 2-2.3 3.1-5.1 3.4-8.2z"/><path d="m385.3 3.8h1.3v2.2h2.8v-2.2h1.3v2.2h4.1v9.1h1.7v1.3h-16.9v-1.3h1.7v-9.1h4.1v-2.2zm.4 13.1.7 1.2c-1.8.9-3.8 1.9-6 2.9-.2-.4-.5-.8-.8-1.3 2.3-1 4.3-1.9 6.1-2.8zm-3.1-6.4h2.8v-3.2h-2.8zm0 4.6h2.8v-3.3h-2.8zm4-4.6h2.8v-3.2h-2.8zm0 4.6h2.8v-3.3h-2.8zm3.7 1.9c2.1.9 4.1 1.8 6.1 2.7l-.7 1.3c-2.2-1.1-4.2-2-6.1-2.9zm3.2-9.7h-2.8v3.2h2.8zm-2.8 7.8h2.8v-3.3h-2.8z"/></g></svg>