<svg enable-background="new 0 0 400 400" viewBox="0 0 400 400" xmlns="http://www.w3.org/2000/svg"><path d="m385.2 377.6.6-.7c.6.4 1.3.9 1.9 1.5l-.6.7c-.8-.5-1.4-1-1.9-1.5zm.3 7.1c.6-1.4 1.1-2.9 1.5-4.5.3.1.6.3.9.4-.5 1.4-1 2.9-1.5 4.4zm.2-10.1.6-.6c.7.5 1.3 1.1 1.9 1.6l-.7.7c-.6-.6-1.2-1.2-1.8-1.7zm8.4-.8h.8v.9h1.8v.7h-1.8v1.8h-.8v-.3h-1.2v.9h3.3v2.6h-.8v-.4h-2.5c0 .3 0 .6-.1.8h3.4v.7h-3.5c0 .3-.1.6-.1.8h4v.7h-3.5c.7.9 1.9 1.3 3.6 1.5-.2.2-.4.5-.6.9-1.9-.3-3.2-1.1-3.8-2.3-.5 1.1-1.8 2-3.9 2.4-.2-.3-.4-.5-.6-.8 1.9-.4 3.1-.9 3.6-1.7h-3.2v-.7h3.5c.1-.2.1-.5.2-.8h-3.3v-.7h3.4c0-.2 0-.5 0-.8h-2.4v.3h-.8v-2.6h3.3v-.9h-1.2v.3h-.8v-1.8h-1.8v-.7h1.8v-.9h.8v.9h3.2zm-4.4 5.5h2.4c0-.3 0-.6 0-.9h-2.4zm1.2-3.1h3.2v-.8h-3.2zm4.4 2.2h-2.4v.9h2.5v-.9z" fill="#fcfafa"/><path d="m389.2 385.8h.9v1.5h1.9v-1.5h.9v1.5h2.7v6h1.1v.9h-11.3v-.9h1.1v-6h2.7zm.2 8.7.5.8c-1.2.6-2.5 1.3-4 1.9-.2-.3-.3-.6-.6-.8 1.6-.6 3-1.3 4.1-1.9zm-2-4.3h1.9v-2.1h-1.9zm0 3.1h1.9v-2.2h-1.9zm2.7-3.1h1.9v-2.1h-1.9zm0 3.1h1.9v-2.2h-1.9zm2.4 1.3c1.4.6 2.7 1.2 4.1 1.8l-.5.9c-1.5-.7-2.8-1.4-4.1-1.9zm2.2-6.5h-1.9v2.1h1.9zm-1.9 5.2h1.9v-2.2h-1.9z" fill="#fcfafa"/><g fill="#010100"><path d="m271.29 351.24c.74-.2 1.48-.41 1.8-.49.41 1.9.52 3.96 1.34 5.67.7 1.45.77 4.37 4.24 2.98-.4.86-.67 1.45-1.08 2.33 2.65 1.3 5.35 2.62 8.04 3.94-.06.31-.13.63-.19.94-3.57-.31-7.14-.71-10.72-.87-1.38-.06-2.78.6-4.17.58-7.81-.09-15.63-.38-23.44-.38-2.1 0-4.39 1.3-5.2-1.58 1.85-.45 3.69-.89 5.52-1.33-.06-.49-.11-.98-.17-1.47-2.24.15-4.59-.05-6.68.6-.89.28-1.22 2.34-2.01 4.03-46.3 0-93.52 0-141.1 0 0-1.42 0-2.66 0-3.91 0-27.78.02-55.56-.04-83.34-.01-2.78-.01-5.34 3.23-6.82-3-2.21-2.98-5.3-3.04-8.2-.1-5.51.18-11.02.17-16.53-.06-29.47-.06-58.95-.35-88.42-.04-3.93.97-6.16 4.72-7.15.89-.24 1.71-.74 2.29-1-.08-1.68-.15-3.15-.22-4.76-.55.1-1.43.25-2.46.43-.14-.75-.26-1.43-.42-2.29-3.21.72-3.96-.91-3.94-3.99.12-15.48.04-30.96.1-46.44 0-1.01.63-2.01.96-3.02.84.48 1.66 1.03 2.54 1.42 1.3.57 3.22 1.83 3.86 1.38 1.6-1.14 2.84-2.97 3.79-4.75.59-1.12.39-2.67.55-4.09-.97-.91-2.03-1.9-3.27-3.05-.49.29-1.2.7-2.27 1.33-.91-1.3-1.65-2.82-2.82-3.87-.71-.63-2.08-.52-3.21-.76 0-13.95 0-28.45 0-43.88 3.31 1.3 6.17 2.42 9.13 3.58 1.38-.59 3.02-1.5 4.77-2.02 5.78-1.72 7.83 3.55 11.29 6.18.62.47 1.51 1.16 2.08 1.01 2.81-.74 5.19-4.98 4.54-7.57 3.06.32 6.33 1.47 9.21.83 10.29-2.26 20.64-.6 30.95-1.06 2.6-.12 5.24.53 7.95.83-1.33 3.4-3.79 4.91-6.59 4.41-.79 2.16-1.56 4.29-2.3 6.33h2.83c-.13.84-.25 1.69-.32 2.17 1.62.43 3.14 1 4.71 1.22 1.27.18 2.88.4 3.84-.2 2.12-1.31 4.41-2.81 5.74-4.82 2.29-3.46 2-3.65-1.14-7.11 1.06-.78 2.13-1.58 3.04-2.26 1.3 0 2.8.02 4.3-.01.53-.01 1.05-.17 1.58-.17 5.11-.05 10.08 1.1 15.38-.15 4.91-1.16 10.28-.39 15.44-.39 24.01.03 48.01.09 72.02.14.2 0 .4.12.57.17 0 13.63-.01 27.24 0 40.85.02 35.31.09 70.62.06 105.93-.01 8.56-.38 17.13-.45 25.69-.13 15.41-.21 30.82-.2 46.23 0 3.06.65 6.12.72 9.19.05 2.16-.37 4.34-.64 6.99-.94-.3-2.04-.65-3.23-1.02.34 2.27.94 4.56.92 6.85-.01 1.57-2.15 3.04-.17 4.79.94.83 1.75 1.82 3.09 3.22-.33 1.39-.81 3.4-1.49 6.24 4.07 5.48-.38 12.73 1.82 19.84-4.61-1.72-6.98 1.23-8.36 3.93-.94 1.83.22 4.76.52 7.19.1.77.44 1.52.78 2.63 1.97-.13 4.3-.28 6.62-.44v42.64c-2.26-.18-4.68-.37-7.63-.61 1.48-1.63 2.52-2.78 3.35-3.69-.79-2.2-1.36-4.21-2.25-6.07-.3-.63-1.41-1.11-2.2-1.2-1.54-.19-3.12-.05-4.7-.05-.54-2.75-1.01-5.47-1.66-8.14-.1-.42-.95-.68-1.48-.97-.46-.24-.95-.41-1.43-.61.72-1.35-.26-2.41-1.09-1.69-1.04.9-2.97-.18-3.45 2.16-.38 1.87-2.16 3.45-3.32 5.16.16.2.33.41.5.61zm-64.07-301.75c4.02 4.62-1.49 6.51-3.66 9.69-2.14-2.5-6.39-2.43-8.74.39-1.62 1.93-3.11.73-4.56.36-.84-.21-1.46-1.33-2.69-2.54-1.41.71-3.38 1.7-5.42 2.73.15.7.32 1.45.58 2.63-1.08-.51-1.75-.82-1.83-.86-.58 1.37-.91 2.61-1.57 3.63-.8 1.24-2.03 2.2-2.79 3.46-1.37 2.26-5.18 3.57-3.02 7.35.12.21-.63 1.03-1.1 1.43-1.28 1.1-1.34 2.26-1.4 4-.09 2.65.49 6.03-2.33 7.94-3.08 2.08-2.37 5.3-2.46 8.09-.11 3.81.44 7.65.72 11.66-1.22-.22-1.94-.36-2.83-.52 2.97 3.19 5.79 6.14 8.5 9.19.63.7 1.4 2.37 1.25 2.48-1.01.79-2.21 1.49-3.45 1.8-1.15.29-2.44.06-3.99.06-1.12-.81-2.56-2.68-4.13-2.79-3.39-.23-7.08-2.17-8.08-5 .91-1.43 1.63-2.57 2.71-4.28-.02-.31.23-1.56-.18-2.52-1.06-2.44-2.44-4.75-3.64-7.14-.17-.33-.23-.89-.07-1.19 1.84-3.37-.76-5.51-2.63-7.15-1.88-1.65-1.83-3.75-1.68-5.26.35-3.65.8-7.06-1.36-9.28-2.12-.15-3.51-.24-4.89-.33.03.13.06.26.09.39-3.06.15-6.12.3-8.82.43-1.2 3.43-2.42 6.93-3.92 11.21 4.51-1.8 6.31 4.23 9.95 1.43 5.14 5.45 5.23 6.12 2.01 8.74v8.52c.33 3.67.78 6.9.87 10.13.1 3.94-4.31 4.75-5.64 7.82 2.53 4.23 1.85 4.5 2.45 5.99 1.22 3.08-.61 4.67-2.14 6.58-3 3.72-2.93 4.58.99 7.64 1.29 1 1.97 1.77 1.34 3.65-.78 2.32-.9 4.86-1.14 6.29.81 1.28 1.27 1.9 1.61 2.58.25.49.29 1.48.54 1.52 2.35.37 2.36 2.35 3.04 3.97 2.16 5.12 4.63 8.51 9.93 9.12 1.43.16 3.37 1.15 3.97 2.32 2.19 4.31 5.59 5.36 9.99 4.79 1.24-.16 2.52.05 3.79.02 1.31-.02 2.62-.12 4.12-.2 1.97.09 4.17.2 5.58.26 1.42-2.67 2.45-4.62 3.4-6.41-1.64-1.77-3.06-3.15-2.06-5.98.69-1.97.13-4.38.13-6.26-1.97-.09-3.32-.15-4.96-.22-.68.75-1.6 1.77-2.57 2.84.55.79 1.06 1.51 1.81 2.59-2.03 1.75-3.91 3.36-5.15 4.43-2.66-1.07-4.62-2.4-6.68-2.55-2.24-.17-5.38-1.91-4.83-4.05.68-2.63-.65-3.94-2.15-5.47-1.15-1.18-2.22-2.44-3.3-3.64 2.67-4.07 6.02-2.99 9.57-1.73.43-.58.89-1.22.84-1.15h11.55c.83.98 1.96 2.3 3.12 3.66 1.54-1.44 2.9-2.71 4.31-4.03 1.25 1.16 2.26 2.09 3.26 3.03 1.08 1.01 2.14 2.03 3.17 3 2.56-1.33 2.56-1.33 4.79.31 1.86 1.37 7.41-.97 7.77-3.27.32-2.04-5.5-7.31-7.65-7.04-2.18.28-4.38.37-6.57.56-1.33.11-2.93.77-3.94.27-2.79-1.4-6.63.49-8.76-2.91-.23-.37-1.3-.2-1.99-.29-.78-.1-1.62-.06-2.32-.34-2.88-1.16-5.7-2.44-8.57-3.61-.45-.18-1.04.02-1.55-.05-.95-.13-1.92-.22-2.81-.53-1.79-.63-3.53-1.4-5.5-2.2.03-.05.37-.71.7-1.34-3.18-2.89-3.31-4.22-.82-7.6.69-.94 1.26-2.08 2.17-2.71.86-.6 2.2-1.05 3.14-.81.55.14.73 1.75 1.09 2.69.39 1.02.54 2.66 1.23 2.93 2.69 1.06 5.65 2.74 8.04-.73.4-.58 1.12-.93 1.87-1.52.94.77 1.72 1.82 2.73 2.15 1.91.62 4.7 1.84 5.81 1.02 3.24-2.38 6.82-2.01 10.2-2.04 2.21-.02 3.44-1.1 3.88-2.37.41-1.18-.57-2.85-.99-4.3-.17-.58-.68-1.13-.66-1.67.1-2.55-.94-3.29-3.55-3.03-1.57.15-3.21-.42-4.81-.66.81-3.32-3.02-3.88-4.07-7.43 1.87-1.45 4.18-3.24 6.5-5.03-.15-.21-.29-.41-.44-.62-1.04.14-2.09.28-3.65.5.89-1.23 1.48-2.04 2.06-2.83 3.81 2.09 4.64 1.74 7.07-2.89-.79-.36-1.58-.73-2.37-1.09 1.87-4.86 2.92-4.89 7.41-2.79 4.85 2.27 9.99 4.57 15.46 1.74 2.6 4.15 5.46 5.93 8.13 5.1.28.88.56 1.77.85 2.65 2.36-.75 3.53.85 3.34 3.41 1.35 2.2 3.35 4.18 2.94 5.07-.79 1.75.17 2.45.65 3.63.6 1.48.93 3.07 1.38 4.62-.39.12-.78.24-1.17.36 2.72 2.07 4.07 4.35 1.25 7.24-.66-.3-1.42-.64-2.51-1.13 1.77 3.65.98 6.81-.78 9.6-1.04 1.65-2.89 2.8-3.86 3.71 1.8 2.38 3.05 4.03 4.19 5.53-.91 2.12-1.73 3.99-2.59 5.99.41.48.89 1.04 1.38 1.59.5.55 1.04 1.06 1.51 1.64 1.23 1.51.59 4.64-.93 5.77-1.27.95-3.18 2.16-3.27 3.36-.17 2.42-1.88 5.63.14 6.4 5.62-.18 9.68-.88 13.5-.22 2.49.43 3.69-.01 4.53-1.1-.09-1.83-.49-3.09-.14-4.07.78-2.14 1.54-4.52 3.04-6.1 3.22-3.39-.12-7.23 1.19-10.69.17-.46-.96-1.54-1.65-2.15-1.1-.99-2.62-1.63-3.45-2.78-1.4-1.95-2.75-4.08-3.47-6.34-.7-2.21-.6-4.68-.87-7.24 2.17-2.73 2.17-9.51-.33-13.92 1.37-1.2 2.79-2.45 4.03-3.54-.54-1.8-.88-3.32-1.46-4.75-1.77-4.37-3.07-8.96-5.94-12.82-.05-.07 0-.21-.02-.31-.66-4.13 1.63-7.12 4.23-9.7 2.11-2.09 2.72-3.83.75-6.24-.45-.54-.62-1.44-.64-2.17-.05-2 .58-4.17-.02-5.96-1.38-4.16-3.36-5.4-6.42-4.82 0-1.77.48-3.72-.13-5.23-.66-1.66-2.45-2.84-3.51-4.39-1.5-2.18-2.78-4.52-4.14-6.76-1.54.94-2.39 1.46-3.89 2.38.52-1.75.83-2.78.93-3.11-.67-1.18-1.21-1.81-1.41-2.53-.84-3.02-2.93-3.57-5.32-1.57-1.07.77-2.58 1.09-4.27 1.83zm6.26 149.91c2.13-2.28 5.07-5.33 7.88-8.49.63-.71 1.11-1.78 1.16-2.72.07-1.3-.34-2.62-.52-3.85-.69 0-1.87.24-2.89-.05-1.99-.58-6.83 1.86-7.8 3.79-.8 1.6-2.12 2.94-3.2 4.4-1.2 1.62-2.43 3.22-3.55 4.89-.4.59-.37 1.47-.77 2.06-1.63 2.45-2.83 7.04-3.45 9.94-.84 3.92-.72 7.49 1.26 11.03 1.06 1.9 1.85 3.96 2.72 5.97.19.45.41 1 .32 1.44-.56 2.59-1.21 5.16-1.87 7.92.31.04 1.18.15 2.05.26-.29.18-.58.37-.88.55.82 2.01 1.63 4.02 2.7 6.64-.07.2-.41 1.18-.82 2.37.86.23 1.6.43 1.74.47.4 1.7.69 2.96.98 4.19-.86-.15-1.66-.28-2.47-.42-.26.17-.53.34-.79.51 6.03 3.48 2.58 8.72 3.38 13.25-.84-.21-1.5-.36-2.45-.6-.27 2.18-.51 4.12-.75 6.06-.28 1.43-.6 2.76-.63 4.09-.04 2.2.44 4.45.12 6.6-.41 2.74.86 5.54-.82 8.28-1.08 1.75-1.39 3.99-1.95 6.03-.28 1.01-.29 2.09-.52 3.12-.64 2.8-1.45 5.56-1.95 8.38-.32 1.81-.97 4.16-.17 5.46 2.81 4.57 2.02 8.75-.51 13 1.67 1.52 3.18 2.84 4.64 4.22 1.42 1.34 2 7.13.57 7.83-2.7 1.33-2.14 3.48-2.08 5.65.15 5.48.25 10.97.36 16.04 1.2-.11 2.99-.26 4.83-.42-.3-.78-.61-1.56-.96-2.45 1.22.15 2.16.52 2.97.31 1.32-.33 3.42-1.78 3.68-1.47 2.27 2.68 3.37-.21 4.88-.8.85.36 1.68.72 2.5 1.07-2.77-5.84-4.49-11.98-9.95-15.78 2.17-2.66 4.11-5.05 6.32-7.76-1.71.13-2.78.2-3.68.27.24-4.56.47-8.8.67-12.52 1.66-2.85 4.19-5.39 4.45-8.14.24-2.59-1.9-5.41-2.71-7.4 1.7-1.91 3.3-3.46 4.57-5.24.73-1.03 1.62-2.73 1.24-3.62-1.17-2.74-.83-5.37-1-8.14-.21-3.51-.43-6.98-.06-10.48.41-3.86-1.77-6.53-3.87-9.33-.87-1.16-1.41-2.58-1.76-3.23.59-2.79 1.27-5.08 1.53-7.41.29-2.64 1.13-5.53-1.32-7.16.48-3.39.91-6.4 1.33-9.37.26.07.88.24 1.86.51-.54-1.03-1.32-1.91-1.13-2.25 2.03-3.66-2.75-6.25-1.37-10.13.63-1.77-2.44-3.92-1.99-6.9.54-3.6-.02-7.35-.06-11.04-.03-2.82-.01-5.66-.01-9.43zm-51.06 67.98c5.89-.65 2.58 5.41 5.41 7.42 3.14-1.56 6.45-3.63 9.43.29 1.31-.89 2.45-1.65 3.73-2.52.45.54.88 1.04 1.15 1.36 2.09-.74 4.02-1.43 6.47-2.31-.34-1.18-.79-2.73-1.29-4.49.72-2.43 1.59-5.35 2.45-8.27-.56-1.05-.49-2.21-.72-3.31-.27-1.27-.58-2.64-1.29-3.69-.68-1.02-1.9-1.67-2.84-2.52-1.61-1.46-6.35-2.29-7.78-.87-2.66 2.64-4.71 1.78-6.88-.46-.41-.42-.99-.67-1.75-1.17-1.64 1.67-3.17 3.21-4.51 4.57 1.39 2.32 2.55 4.28 3.72 6.24 1.51-.63 2.61-1.09 4.16-1.74-.49 1.37-.79 2.2-1.24 3.46 2.02-1.18 3.57-2.09 5.11-2.99-.36.42-.72.83-1.08 1.25 1.2.6 2.4 1.2 3.14 1.57.16 1.63.29 2.96.42 4.22-3.16-.36-6.91.88-8.47-2.16-2.05 0-3.44-.32-4.56.09-1.21.43-2.53 1.35-3.12 2.43-.43.82.18 2.23.34 3.6zm10.86 56.85c.25-3.32.47-6.33.7-9.4-2.55 0-4.71 0-7.05 0-.32-.45-.97-1.85-1.31-1.78-3.67.75-4.2-2.99-6.56-4.04 2.79-3.83 2.2-7.17-1.73-10.25-1.19 1.12-2.41 2.27-3.75 3.53-1.22-.68-2.44-1.37-3.8-2.13 1.21-1.37 2.1-2.39 3.51-4-2.28-1.75-4.4-3.38-6.57-5.04-1.41 1.28-2.49 2.26-3.46 3.14.62 2.73 1.17 5.18 1.86 8.21 3.49-2.45 5.46-1.45 7.26 1.67-1.59-.33-2.7-.56-3.97-.82v6.85c-.85 1.64-1.6 3.42-1.68 5.22-.04.8 1.36 2.41 1.97 2.35 1.81-.18 3.56-1.01 6.07-1.82 1.76.98 3.88 2.76 3.97 6.25.09 3.44 2.68 6.33 5.24 6.69 1.85.26 4.2-3.11 6.31-4.88.23-.19.37-.5.58-.77.75.32 1.51.64 2.41 1.02zm82.82 25.12c-.9-.79-2.19-1.36-2.35-2.15-.81-4.1-2.69-5.79-6.75-5.61l1.08-1.08c-.97-1.01-1.94-2.02-2.91-3.03-.23.37-.46.74-.69 1.11-.08-1.12-.15-2.25-.24-3.46 4.11-.57 3.2-4.71 4.6-6.33-2.39-.89-4.56-1.62-6.66-2.52-2.17-.93-4.26-2.02-7.39-3.51 2.16 4.24-2.95 5.76-1.91 9.28-2.47.05-.62 2.56-1.77 3.17-1.48.78-3.12 1.26-4.55 1.81-.32 1.64-.67 3.39-.99 5.01 1.4.33 2.84.66 4.32 1 2.53-.72 4.23-5.35 7.7-2.21 1.99 1.8 5.8 2.94 4.25 7.07.79.16 1.57.33 2.27.47v7.16c3.59-1.11 7.44-2.29 11.29-3.48.18-.67.46-1.75.7-2.7zm-8.88-52.8c4.97 6.43 5.49 6.5 12.81 1.93-.49-3.39 2.66-4.19 3.82-6.19 2.31 1.01 4.5.71 5.38-.77 1.25-2.11-.07-3.6-1.42-5.03-1.48-1.58-1.58-5.19-.2-6.93.61-.77 1.14-1.61 2.1-2.98-1.52.39-2.25.58-3.23.83.29-1.06.5-1.8.7-2.53-6.28-2.13-6.88-1.91-9.19 2.44.85 2.68 1.7 4.69 1.99 6.78.07.5-1.78 1.25-2.74 1.89-.15-.24-.29-.48-.44-.72.19-.53.39-1.05.67-1.83-.73.22-1.22.52-1.68.47-2.34-.22-4.68-.75-7.01-.7-1.01.02-2 1.17-2.99 1.8 1.49 1.94-1.04 4.67 1.34 6.5.81.62 1.32 1.63 2.02 2.53-.67.89-1.31 1.71-1.93 2.51zm-139.23-225.59c4.25 2.28 2.95 6.21 3.03 9.54.05 1.97.62 4.39 2.67 4.44 4.75.11 9.55.88 13.51-3.29 3.14-3.3 2.75-7.48-1.48-9.38-1.12-.5-2-1.54-3.09-2.14-1.23-.68-2.58-1.15-4.35-1.92 0 .1 0-.71 0-.79-1.55-1.22-2.69-2.11-3.94-3.09-1.82 1.9-3.86 4.03-6.35 6.63zm46.34 222.44c2.89-.96 5.26-1.75 6.84-2.27.88-2.21 1.53-3.86 2.33-5.87-2.07-2.44-4.36-5.13-6.7-7.9-.35-.08-1.14-.28-1.93-.44-.75-.14-1.51-.23-2.26-.35-.98-.15-2.17-.02-2.89-.53-3.73-2.65-7.04-2.42-10.33.89.37 1.7.4 3.51 1.16 4.95.81 1.54 2.08 3.5 3.53 3.9 3.11.87 6.46.85 8.96 1.12.53 2.74.91 4.65 1.29 6.5zm-24.11-14.48c-.87-1.1-1.49-2.73-2.45-2.95-4.23-1-5.32-5.13-8.06-7.57-1-.89-1.83-1.96-2.32-2.5 1.29-3.38 2.39-6.28 3.2-8.39-2.57-1.35-4.92-2.58-7.52-3.95-.17 2.33-.33 4.45-.47 6.57-.17 2.44-.18 4.91-.54 7.32-.23 1.59-.96 3.1-1.53 4.86-.28-.09-1.14-.38-2.46-.82 1.67 3.6 3.06 6.72 6.6 7.95 2.68.93 5.63-.27 8.39 1.95 2.27 1.84 5.04.16 7.16-2.47zm18.66-78.45c2.56 1.99 4.47.75 6.37-.97 1.09-.99 2.28-1.91 3.53-2.69 2.02-1.26 1.95-2.75.8-4.54-1.2-1.87-2.71-2.62-5.06-2.42-.93.08-2.9-1.49-2.84-2.16.56-6.27-4.05-8.16-8.74-10.46-.38 1.44-.21 2.79-.22 4.13-.01 1.84.35 3.91-.37 5.46-1.07 2.33-.66 3.98.92 5.65.87.92 1.9 1.72 2.65 2.73.57.78.81 1.81 1.3 2.97.14-.03.79-.17 1.66-.35zm142.46-4.66c.27-.17.53-.34.8-.51-.85-.92-1.59-2.45-2.58-2.63-2.02-.37-4.29-.42-6.23.16-2.57.76-4.89 2.32-7.37 3.4-.67.29-1.56.04-2.05.04-.18.61-.4 1.3-.58 2-.22.91-.87 2.17-.5 2.67.66.9 1.87 1.5 2.97 1.94 1.3.53 2.81.58 4.07 1.19 1.31.63 2.38 1.74 3.64 2.52 2.95 1.82 5.69.82 6.7-2.34.28-.89.86-1.69 1.13-2.59.23-.79.28-1.65.27-2.48-.03-1.13-.18-2.25-.27-3.37zm-45.1 17.83c.16 2.76-1.67 5.5 1.38 7.23 1.18.67 2.39 1.3 3.62 1.87 2.7 1.27 5.42 2.5 9.23 4.24 1.39-.19 4.17-.56 7.69-1.03-2.51-3.78-4.02-7.03-8.9-5.66.62-.95 1.04-1.58 1.08-1.64-1.19-1.27-2.13-2.27-3.04-3.24-.59.27-1.44.66-3.11 1.42.76-1.62 1.08-2.33 1.45-3.12-.81-.14-1.52-.27-2.19-.39.08-.71.15-1.33.19-1.65-1.87-.22-3.46-.41-5.27-.63.03 1.24 1.14 3.64-2.13 2.6zm-85.54 22.91c2.1 0 3.82.44 5.14-.1 2.04-.84 3.93-2.21 5.56-3.7.32-.29-.61-2.38-1.37-3.31-1.73-2.13-3.71-4.06-5.59-6.07.86-1.52 1.71-3.03 2.43-4.31-2.11-.5-3.9-.93-6.29-1.49-.45 1.41-1.59 3.13-1.35 4.62.41 2.52-.25 4.08-1.57 4.69-.56 1.98-.9 3.18-1.3 4.59 1.45 1.7 3.09 3.62 4.34 5.08zm-36.06-175.91c2.08-.73 4.01-1.54 6.01-2.08 1.82-.49 3.98-.23 5.52-1.12 2.37-1.36 4.33-3.42 6.74-5.4-2.48-.45-.87-5.44-4.5-2.78-.46-1.08-.82-1.93-1.4-3.27-2.59 1.04-5.12 1.9-7.5 3.05-1.69.82-3.18 2.05-4.71 3.06-.33 1.07-.76 2.42-1.05 3.36.33 1.87.59 3.44.89 5.18zm98.84 251.57c-.16.36-.31.71-.47 1.07 1.72.82 3.43 1.64 5.38 2.56.02-.1-.15.7-.18.82 2.2.7 4.04 1.28 5.93 1.87.38-.49.74-1.44 1.37-1.67 1.62-.58 3.35-.85 5.12-1.26-.71-1.68-1.07-2.53-1.74-4.12 1.44.81 2.07 1.17 3.03 1.71-.56-2.7-4.05-4.25-1.47-6.95-2.75-2.05-5.05-1.77-7.6.71-1.18 1.14-2.16 3.25-4.55.32.32 1.62.49 2.44.71 3.57-2.92-2.37-3.81.75-5.53 1.37zm48.31-165.56c-1.06-.3-1.87-.52-2.67-.74-.02.85-.15 1.71-.04 2.54 1 7.72 1.24 6.59-6.37 6.21-.3-.01-.59-.17-.88-.26.06-.57.11-1.09.17-1.77-4.03 2.21-5.24 4.16-3.52 6.22 1.18 1.42 3.09 2.4 4.87 3.11 3.52 1.4 4.98.25 5.21-3.58.04-.65.48-1.42.98-1.87 1.77-1.59 2.54-4.98 6.33-3.2-.29-.93-.46-1.47-.73-2.34 3.23 1.33 3.89-.26 3.14-2.75-.47-1.58-1.52-2.98-2.12-4.11-1.57 0-2.93 0-4.36 0-.01.69-.01 1.56-.01 2.54zm-160.09 3.11c.46 1.86.96 4.04 1.57 6.19.21.74.53 1.7 1.11 2.05 2.27 1.35 4.67 2.49 6.5 3.44 2.07-2.09 4.13-4.17 6.19-6.25-.66.17-1.39.36-3.46.91 3.08-2.76 1.15-3.68-.14-4.7-1.38-1.1-2.27-2.65-4.78-2.35-1.51.18-3.29-1.9-4.46-2.64-.98 1.3-1.82 2.41-2.53 3.35zm79.88 178.37c-3.24.21-5.47.34-7.7.49-.91.06-1.98-.09-2.69.33-1.32.79-2.42 1.93-3.35 2.71 1.03 1.61 1.69 2.64 2 3.13 1.79.82 3.29 1.34 4.55 2.21.33.23-.09 1.54-.18 2.48 4.1 1.42 7.15-.43 9.84-3.27-.29-.9-1-1.94-.73-2.44 1.84-3.32-.83-4.68-1.74-5.64zm-44.76-107.17c3.63-3.33 3.7-6.23.19-10.03-1.63.31-3.08.58-4.78.9-.13.45-.35 1.21-.58 2.04-1-.45-1.85-.83-2.72-1.22.7-1.15 1.34-2.18 2.28-3.73-2.9.41-5.57.13-7.45 1.22-2.71 1.56-1.01 4.4-.86 7.77 1.94-1.83 3.22-3.04 4.85-4.58 1.58 1.38 3.27 2.85 4.95 4.31-.72 1.08-1.23 1.87-1.7 2.57 2.01.26 3.79.49 5.82.75zm-5.82 98.25c-1.71-.74-2.94-1.76-3.99-1.6-1.33.2-2.51 1.37-3.57 2.02v4.33c3.66-1.9 1.18 2.06 2.85 2.94 1.88 0 4.35.27 6.72-.1 1.49-.23 3.5-1.1 4.06-2.26.65-1.35-.03-3.34-.13-4.99-1.14-.21-2.02-.37-2.66-.49 0-.95 0-1.62 0-2.89-1.64 1.52-2.77 2.57-3.28 3.04zm-25.51-147.1c1.1-4.84-4.69-2.36-5.12-5.23-.72.26-1.35.49-2.38.86-.65-1.94-1.21-3.62-1.93-5.79.01 0-.78-.09-1.46-.17.08-.85.16-1.56.23-2.26-.3-.16-.6-.33-.9-.49-1.47 1.97-4.17 3.96-4.14 5.92.05 3.81 4.09 3.46 6.2 3.98.46 2.31.86 4.26 1.2 5.96 1.48.61 2.77 1.14 4.49 1.84-1.04-2.57.32-3.18 2.31-3.08-.34-1.03-.59-1.79-.96-2.89 1.07.58 1.75.95 2.46 1.35zm74.51 188.02c1.59-2.56 1.61-4.89 1.82-7.36.19-2.17-.28-3.02-1.85-4.01-1.28-.81-2.4-1.88-3.9-3.07-1.96.36-2.11 5.97-6.59 3.34 3.47 3.66 6.95 7.33 10.52 11.1zm65.13 1.79c1.56.17 2.71.23 3.85.42 1.55.26 3.41 1.32 4.53.78 1.69-.81 4.04-2.82 3.92-4.13-.13-1.54-2.57-2.92-4.08-4.27-.25-.23-.91.03-1.39.03-1.13 0-2.25-.03-3.38-.03-.3 0-.6.11-1.04.19.24.62.45 1.15.71 1.81-1.03.3-2.01.58-2.89.83-.08 1.6-.16 3.09-.23 4.37zm-97.99-267.87c6.85-4.47 7.29-6.68 2.71-11.62-1.38.14-2.57.26-3.86.4-.15.72-.32 1.6-.52 2.55-.85-.41-1.51-.73-1.97-.95v5.9c.57.61 1.57 1.69 2.58 2.75.28.3.61.56 1.06.97zm-29.93 34.94c-4.04-1.76-4.33-1.69-6.72.98-.29 2.22-.06 3.79-.72 4.76-.83 1.22-2.38 1.94-3.74 2.96 1.72 1.64 2.75 2.62 3.81 3.63 2.21-1.76 4.1-3.27 6.1-4.86-.42-.85-.77-1.56-1.22-2.45.92-.3 1.69-.55 2.28-.74.07-1.53.14-2.9.21-4.28zm-26.81 115.31c.84.46 1.78 1.3 2.81 1.44 1.01.14 2.35-.95 3.16-.61 4.84 2.06 2.31-1.47 2.27-2.94-.03-1.15-.26-2.32-.58-3.44-.67-2.34-3.48-3.75-5.15-2.59-1.53 1.06-2.94 2.28-4.41 3.43.29.32.58.64.86.96.77-.29 1.53-.58 3.28-1.25-.96 2.16-1.56 3.5-2.24 5zm179.46 28.98c1.87.58 3.16 1.45 4.1 1.17 1.76-.52 3.53-1.48 4.87-2.72.62-.57.54-3.15.25-3.25-2.14-.72-4.52-1.64-6.61-1.29-1.51.26-2.71 2.38-4.04 3.67-.02.29-.03.58-.05.87 3.85-.9 1.34 1.29 1.48 1.55zm-24.07-15.36c1.65.61 3.22.84 4.33 1.68 3.74 2.81 6.53 2.75 9.69-.48-.5-1.6-.99-3.17-1.52-4.87-.83.57-1.61 1.44-2.56 1.7-1.97.52-4.56 1.64-5.93.84-2.16-1.26-2.77-.2-4.01 1.13zm-85.1 88.84c2.07-.81 3.75-1.47 5.43-2.12-.11-.36-.22-.72-.33-1.09-2.02 2.25-4.7-2.45-6.83 1.18-1.27 2.17-3.35 3.87-5.06 5.78.14.13.29.26.43.39.7-.24 1.4-.47 2.34-.79-.47 1.21-.81 2.09-1.32 3.41 1.37-.21 2.25-.42 3.13-.46.9-.04 1.8.1 2.7.16-.31-.91-.63-1.81-.95-2.75.47-.41 1.01-.88 1.54-1.34-.46-1.03-.89-1.95-1.08-2.37zm-51.11-293.09c1.06.19 2 .36 2.38.43.3-1.77.72-3.01.66-4.24-.05-.87-.78-2.45-1.15-2.43-1.84.09-3.65.6-5.47.96.06.25.13.49.19.74-1.16-.13-2.33-.26-3.54-.39 2.25 2.61 4.23 4.9 6.38 7.39.26-1.17.42-1.89.55-2.46zm10.97 138.07c3.36-.21 6.19-.38 9.26-.57-.6-4.16-3.55-5.82-6.04-7.37-5 1.35-1.17 5.23-3.22 7.94zm106-148.3c1.08 1.38 2.04 2.62 2.72 3.49 1.85-.13 3.34-.23 5.13-.36.12-.44.39-1.44.48-1.76 1.41-.54 2.33-.89 3.63-1.38-6.64-4.14-6.64-4.14-11.96.01zm-65.54 260.28c1.2.3 2.22.87 3.11.7 1.25-.24 2.56-.84 3.53-1.66.42-.36.42-1.95-.01-2.44-1.19-1.36-2.68-3.34-4.1-3.38-1.51-.04-3.07 1.86-4.1 2.56.74 2 1.21 3.25 1.57 4.22zm61.83-26.35c.72-.62 1.74-1.5 2.55-2.2-.51-1.77-.93-3.21-1.33-4.57-1.27-.45-2.63-.92-3.98-1.4-.97.86-1.88 1.68-2.8 2.5l1.05.33c-.09 1.69-.17 3.37-.24 4.69 1.33.2 2.73.38 4.75.65zm-90.25-101.35c-1.21-1.45-2.27-2.7-3.34-3.99.46-.95.88-1.82 1.3-2.7-1.79 0-3.36 0-4.75 0-.24 1.03-.67 2.09-.68 3.16 0 .97.47 1.94.73 2.9-.22-.04-.44-.07-.67-.11-.11 1.23-.21 2.46-.32 3.69.36.43.72.87 1.08 1.3.94-4.77 3.2-.11 4.65-1.94-.66-.81-1.31-1.62-1.96-2.44.12-.21.23-.42.35-.63 1.11.24 2.21.47 3.61.76zm79.74-49.24c.08-1.78.13-2.88.19-4.13-.99-.19-2.4-.2-2.46-.5-.58-2.75-2.56-1.88-4.53-1.98.11 2.09-.51 4.74.5 5.74 1.1 1.07 3.72.6 6.3.87zm12.94 61.52c-.39.5-1.88 1.69-1.67 2.26.61 1.67 1.62 3.54 3.03 4.41.7.43 3.4-.83 3.85-1.89.73-1.69-2.15-4.44-5.21-4.78zm-123.1 8.56c2.25-.65 4.94-.62 5.92-1.9 1.78-2.32.88-4.87-2.18-6.42-.05.88-.09 1.66-.11 1.92-1.56.71-2.92 1.32-4.27 1.93.34.17.68.35 1.02.52-.09.93-.18 1.86-.38 3.95zm5.06-11.35c1.53-2.73 2-4.79-.47-5.5-1.55-.45-3.41.19-5.61.38 2.09 2.45 4.05 4.75 6.18 7.26 1.49-1.17 2.72-2.15 3.96-3.13-.14-.19-.29-.38-.43-.57-.88.38-1.77.76-3.63 1.56zm77.47-54.98c.04.33.09.67.13 1 1.75-.29 3.5-.59 4.37-.73 1.59-2.5 2.83-4.44 4.23-6.64-1.91.13-3.29.22-4.72.31-.14.8-.29 1.66-.45 2.57-1.23-.41-2.21-.75-3.2-1.08-.1.16-.2.32-.3.49.74.93 1.48 1.87 2.28 2.88-.88.45-1.61.82-2.34 1.2zm49.22 95.4c-.31-2.01-.54-3.53-.83-5.43-1.26.82-2.52 1.63-3.91 2.53-.78-.17-1.9-.41-3.39-.73 1.4 2.8 5.7 3.27 4.25 7.31 1.34-1.27 2.69-2.55 3.88-3.68zm8.43 111.77c5.7-1.56 1.5-5.62 3.2-7.5-1.57 0-3 0-5.05 0 .6 2.46 1.21 4.9 1.85 7.5zm32.12-36.15c-2.39 1.03-4.37 1.88-6.21 2.66v3.65c4.18.39 7.24-.42 6.8-1.86-.64-.45-1.28-.91-1.9-1.34.47-1.12.86-2.04 1.31-3.11zm-13.02 9.47c-1.71-.22-3.11-.39-4.32-.55-.4 1.54-.8 3.05-1.19 4.56 5.5.86 8.06-.1 8.17-2.98-.95.28-1.91.57-3.21.96.25-.89.39-1.42.55-1.99zm-113.95 22.9h3.66c-1.41-1.59-2.44-2.77-3.51-3.99-1.23.98-2.2 1.76-2.56 2.05v6.07c1.12-.53 2.28-1.08 3.57-1.69-.46-.96-.81-1.7-1.16-2.44zm-42.04-233.26c1.57-1.26 3.05-2.44 4.53-3.62.2.85-.04 1.29-.18 1.75-.17.53-.26 1.09-.38 1.64.27.17.54.33.81.5.78-1.14 2.15-2.27 2.15-3.41 0-.88-1.59-2.14-2.71-2.53-1.42-.49-4.36 3.51-4.22 5.67zm20.61-31.84c.18.24.36.48.54.72 1.17-.41 2.33-.83 3.82-1.35-.52 1.51-.87 2.49-1.51 4.34 1.79-1.22 2.73-1.85 3.15-2.14 0-2.49 0-4.36 0-6.91-2.37 2.1-4.18 3.72-6 5.34zm92.1-21.52c-2.08-2.19-2.77.5-4.26 1.1.85 1.26 1.53 2.28 2.33 3.45 2.05-1.87 3.91-3.57 5.77-5.27-.23-.33-.46-.66-.69-1-1.06.58-2.11 1.15-3.15 1.72zm-88.41 287.75c1.34 1.88 1.97 4.78 5.31 4.62-.64-1.01-1.05-1.66-1.85-2.91 1.84.68 2.86 1.06 3.89 1.44.12-.22.24-.44.36-.65-1.27-1.21-2.54-2.42-3.85-3.66-.44.78-.82 1.45-1.19 2.11-.99-.36-1.83-.66-2.67-.95zm86.52-79.15c-.1.19-.2.38-.31.57 1.34 1.24 2.67 2.48 4.22 3.92.93-4.71.86-4.99-1.67-6.16.08.88.15 1.62.21 2.33-.8-.22-1.63-.44-2.45-.66zm-64.87-198.29c.15.2.31.4.46.6 1.91-1.38 3.83-2.76 5.74-4.14-.15-.21-.29-.41-.44-.62-1.55.1-3.1.2-4.45.28-.39 1.2-.85 2.54-1.31 3.88zm-49.31 54.46c1.29.61 2.23 1.05 3.79 1.78-1.39-1.59-2.24-2.56-3.33-3.8-.93 1.13-1.85 2.24-2.77 3.36.31.27.62.55.94.82.43-.68.87-1.37 1.37-2.16zm38.68 117.95c.23-2.52.39-4.27.55-6.01-.4-.03-.79-.05-1.19-.08-.6 1.74-2.21 3.41.64 6.09z"/><path d="m214.8 86.86c-2.52 0-5.5 0-9.8 0-.87-1.12-2.54-3.29-4.33-5.59-1.98 1.61-3.35 2.72-4.46 3.63-.91-.87-1.57-1.79-2.47-2.3-2.95-1.66-3.28-3.3-.91-5.57 2.45-2.34 4.84-4.76 7.45-6.9 1.19-.97 2.86-1.35 4.31-2 .22.24.44.48.66.72-.07-.5-.15-1-.16-1.07 1.92-.96 3.7-1.86 5.85-2.94 1 1.16 2.22 2.57 3.57 4.14 2.2-1.63 3.31 1.12 4.83 2.27 1.48 1.12 1.28 2.59.13 4.17-.43.59.11 1.91.22 2.98-.26.08-.74.23-1.3.4.47 1.12.93 2.22 1.39 3.32-.27-.12-.55-.24-.82-.36-1.26 1.58-2.55 3.15-4.16 5.1z"/></g></svg>