<svg enable-background="new 0 0 400 400" viewBox="0 0 400 400" xmlns="http://www.w3.org/2000/svg"><path d="m378.6 9.2.8-1c.9.7 1.9 1.4 2.9 2.3l-.9 1.1c-1.1-.9-2-1.7-2.8-2.4zm.5 10.7c.9-2.1 1.6-4.3 2.3-6.7.4.2.8.4 1.3.6-.7 2.1-1.5 4.3-2.2 6.6zm.4-15.2.9-.9c1 .8 2 1.6 2.8 2.4l-1 1c-1-.9-1.9-1.8-2.7-2.5zm12.5-1.3h1.2v1.4h2.7v1.1h-2.7v2.7h-1.2v-.5h-1.8v1.3h4.9v3.8h-1.2v-.5h-3.7c0 .4-.1.9-.1 1.2h5.1v1h-5.2c0 .5-.1.9-.2 1.2h6v1h-5.2c1.1 1.3 2.9 2 5.5 2.2-.4.4-.7.8-.9 1.3-2.9-.5-4.8-1.6-5.7-3.5h-.1c-.8 1.7-2.7 2.9-5.9 3.6-.2-.4-.6-.8-.9-1.1 2.8-.6 4.6-1.4 5.4-2.5h-4.8v-1h5.3c.1-.3.2-.7.2-1.2h-4.9v-1h5c0-.4 0-.8.1-1.2h-3.6v.5h-1.2v-3.8h4.9v-1.3h-1.8v.5h-1.2v-2.7h-2.6v-1.1h2.6v-1.4h1.2v1.4h4.7v-1.4zm-6.7 8.4h3.6c0-.4 0-.9 0-1.4h-3.6zm1.9-4.7h4.7v-1.2h-4.7zm6.7 3.3h-3.7v1.4h3.7z" fill="#fafbfc"/><path d="m384.7 21.4h1.3v2.2h2.8v-2.2h1.3v2.2h4.1v9.1h1.7v1.3h-16.9v-1.3h1.7v-9.1h4.1v-2.2zm.3 13.2.7 1.2c-1.8.9-3.8 1.9-6 2.9-.2-.4-.5-.8-.8-1.3 2.4-1 4.4-2 6.1-2.8zm-3.1-6.5h2.8v-3.2h-2.8zm0 4.6h2.8v-3.3h-2.8zm4.1-4.6h2.8v-3.2h-2.8zm0 4.6h2.8v-3.3h-2.8zm3.6 1.9c2.1.9 4.1 1.8 6.1 2.7l-.7 1.3c-2.2-1.1-4.2-2-6.1-2.9zm3.3-9.7h-2.8v3.2h2.8zm-2.8 7.8h2.8v-3.3h-2.8z" fill="#fafbfc"/><path d="m202.1 338.07c-7.45 1.96-8.76 4.14-8 10.96.51 4.57-.47 8.08-3.07 11.48-1.34 1.75-2.78 3.42-4.17 5.13-.34-.03-.68-.07-1.02-.1-.4-4.14-.97-8.27-1.14-12.42-.19-4.65.05-9.31-.05-13.97-.03-1.35-.44-2.72-.89-4.01-.98-2.79-2.65-4.54-5.97-3.6-.9.25-1.89.28-2.84.26-1.66-.04-2.45.56-2.64 2.33-.19 1.86-.8 3.67-1.25 5.61-.73-.04-1.28.04-1.75-.12-5.23-1.82-9.01.66-12.22 4.3-3.06 3.47-6.47 3.36-10.55 1.59.74-.95 1.34-1.79 2.02-2.56 8.13-9.23 16.21-18.51 24.45-27.64 2.07-2.29 3.65-4.59 3.64-7.76 0-.21.09-.42.1-.63.11-5.4.69-10.41 8.28-9.38 0-1.18.16-1.93-.03-2.58-1.82-6.34-.93-12.58.42-18.85.42-1.95.55-3.98.68-5.99.42-6.63-3.24-10.74-8.8-13.31-11.8-5.45-19.86-14.29-25.29-26-1.54-3.32-4.58-6.01-7.18-8.76-1.43-1.51-1.85-2.77-1.09-4.75.44-1.15.63-2.86.09-3.85-2.46-4.47-2.82-9.22-2.58-14.15.11-2.33.16-4.68-.01-7-.38-5.14-.5-10.08 5.63-11.96-.17-.58-.17-.89-.3-.95-4.49-2.15-4.87-5.76-4.29-10.25 1.57-12.12-.89-24.08-1.97-36.09-.17-1.9-.53-3.79-.55-5.69-.14-10.57-4.93-19.82-8.29-29.48-.37-1.07-.78-2.13-1.17-3.19.19-.22.38-.45.57-.67 1.14.69 2.73 1.1 3.35 2.11 3.86 6.31 7.5 12.74 11.28 19.25-1.15 1.02-2.15 1.91-3.54 3.15 1.64-.21 2.81-.36 3.94-.51.2.22.41.35.46.53 3.3 10.8 6.91 21.52 9.75 32.44 1.99 7.63 1.86 15.53.4 23.36-.52 2.78-1.69 4.61-4.53 5.25-.88.2-1.68.72-3.65 1.59 1.22.64 2 .86 2.53 1.35 4.14 3.82 5.9 8.51 5.74 14.21-.17 6.02-.28 12.12.51 18.06 1.83 13.78 13.1 24.81 26.83 26.84.78.12 1.96-.48 2.5-1.12 1.96-2.36 3.87-4.8 5.5-7.39.65-1.04.85-2.59.71-3.85-.77-6.74-1.4-13.52-2.7-20.16-.87-4.41-2.94-8.56-4.22-12.9-5.49-18.75-5.46-19.65.25-37.91.34-1.08 1.29-1.97 1.6-3.05.65-2.26 1.17-4.57 1.57-6.89.54-3.18-.03-6.95 1.51-9.47 5.05-8.23 7.45-17.19 9.44-26.46 1.97-9.21 4.58-18.27 6.82-27.42.28-1.14.31-2.55-.1-3.62-2.39-6.22-4.88-12.41-7.49-18.55-1.92-4.53-4.21-8.91-6.06-13.46-.85-2.09-.84-4.16.38-6.59 1.08-2.14.44-5.14.6-8.57 2.19 1.43 4.44 2.33 5.84 3.95 2.47 2.85 4.58 6.07 6.53 9.32.68 1.13.87 2.95.51 4.24-.7 2.51-.08 4.15 1.87 5.79 1.22 1.03 2.19 2.57 2.84 4.06 6.96 16.01 7.07 32.26 1.48 48.65-.54 1.57-1.5 3-2.21 4.52-.89 1.91-2.1 3.77-2.49 5.78-.98 4.99-2.89 9.47-5.9 13.55-6 8.12-7.71 17.49-7.99 27.3-.07 2.41-.24 4.88-.83 7.21-.78 3.07-2.12 5.87.61 8.83.87.95.96 3.1.67 4.56-1.27 6.32.88 11.93 3.29 17.49 2.06 4.76 4.18 9.5 6.54 14.12 1.29 2.53 1.51 4.67-.28 7.01-.94 1.23-1.56 2.7-1.51 3.82 1.41 2.49 2.72 5.05 4.26 7.46.83 1.31 1.84 2.96 3.13 3.41 1.91.66 3.98.08 4.99-2.19.3-.67.82-1.23 1.23-1.85 4.47-6.8 8.39-14.13 17.5-16.99-3.92-4.3-2.52-8.49-1.44-12.54 2.75-10.4 2.91-20.97 2.04-31.55-.67-8.22.81-15.84 3.95-23.45 4.88-11.84 8.83-24.06 13.74-35.88 3.93-9.47 3.23-19.01 2.31-28.76-.65-6.93-.91-13.91-.95-20.86-.01-2.16 1.27-4.33 1.96-6.49.42-.03.85-.06 1.27-.09 1.56 4.38 3.57 8.67 4.61 13.17 4.29 18.58 6.13 37.38.83 55.98-3.56 12.5-8.54 24.59-15.37 35.81-.94 1.54-1.28 3.77-1.11 5.61.68 7.38 2.03 14.72 2.39 22.11.19 3.9-1.14 7.87-1.84 11.8-.28 1.56-1.07 3.11-.98 4.63.26 4.39-.58 8.01-3.72 11.54-1.69 1.91-1.29 5.61-2.04 8.45-.36 1.36-.93 2.82-1.84 3.85-7.18 8.09-14.3 16.25-21.81 24.02-2.41 2.5-5.92 3.94-8.97 5.81-1.62.99-3.42 1.7-4.96 2.8-2.38 1.7-3.57 3.97-3.29 7.09.85 9.4 1.57 18.8 2.2 28.22.09 1.35-.16 3.07-.95 4.07-3.81 4.85-3.17 10.84-4.43 16.32-.15.68.87 1.82 1.59 2.47 5.28 4.75 10.58 9.48 15.99 14.09 1.68 1.43 2.4 2.91 2.34 5.15-.15 5.26 1.17 6.62 6.61 7.48 5.34.84 9.21 5.2 9.18 10.57 0 .48-1.16 1.16-1.88 1.34-.45.11-1.1-.53-1.65-.84-5.46-3.04-10.95-6.03-16.37-9.14-3.87-2.24-8.5-3.69-9.64-8.99zm-6.46-86.65c-2.27-1.05-3.51-3.45-6.21-1.29-2.01 1.61-2.78 2.97-1.12 5.41 2.25-1.27 4.53-2.55 7.33-4.12z" fill="#010104"/></svg>