<svg enable-background="new 0 0 400 400" viewBox="0 0 400 400" xmlns="http://www.w3.org/2000/svg"><path d="m43.09 234.94c3.36.52 6.61.89 9.77 1.6.82.19 1.51 1.38 2.08 2.22 6.96 10.39 13.94 20.76 20.78 31.23 1.17 1.79 2.37 2.3 4.41 2.04 10.4-1.33 20.83-2.47 31.22-3.86 1.01-.14 2.32-1.32 2.7-2.32 1.88-4.94 1.27-10.03.21-15.04-.94-4.45-1.84-8.95-3.29-13.25-3.44-10.18-3.38-20.5-2.56-31.05 1.36-17.43 2.26-34.91 3.15-52.37.06-1.11-1.33-2.88-2.47-3.39-10.44-4.64-20.89-9.25-31.5-13.48-5.58-2.23-11.48-3.67-17.22-5.51-1.85-.59-3.01-.09-3.66 1.79-2.11 6.08-4.68 12.04-6.33 18.25-2.08 7.81-5.45 14.58-12.58 20.12-1.08-6.53-2.38-12.53-3-18.6-1.55-15.1-2.3-30.24.18-45.33 1.35-8.24 3.97-16.01 9.34-22.98 1.54.5 3.2.84 4.67 1.56 2.84 1.41 5.95 2.6 8.29 4.64 17.77 15.49 39.1 24.13 60.81 32.11.69.26 1.41.49 2.05.86 4.34 2.54 8.65 2.65 13.23.47 1.18-.56 3.12-.33 4.4.23 7.07 3.13 14.05 6.44 21.03 9.77 1.56.74 2.66.85 4.28-.26 5.14-3.55 11.19-4.66 17.23-4.76 19.5-.31 38.53-3.49 57.46-7.96 3.73-.88 8.11.38 12.05 1.27 3.14.71 5.48.33 8.18-1.51 14.96-10.18 15.02-10.01 33.15-12.27 11.56-1.45 23.09-3.15 34.61-4.91 7.42-1.13 13.85-4.18 19.06-9.88 4.96-5.42 5.15-5.24 11.92-2.22 6.93 3.1 6.93 3.1 5.5 10.67-1.26 6.66-2.57 13.31-3.75 19.98-.42 2.38-.9 4.85-.73 7.24 1.43 20.02-2.17 39.33-7.11 58.64-2.44 9.53-6.31 17.56-12.77 24.91-6.35 7.22-11.49 15.49-17.52 23-6.91 8.61-15.08 16.03-25.7 19.6-6.64 2.23-13.79 3-20.72 4.35-8.5 1.66-17.27 2.43-25.48 5.02-29.68 9.36-60.04 15.46-90.66 20.57-5.42.9-10.71.99-16.07.12-2.85-.46-5.47-.29-7.68 1.81-.08.07-.18.11-.26.18-6.23 5.35-13.29 7.9-21.6 6.72-1.36-.19-2.92.38-4.27.91-15.67 6.18-31.32 12.35-46.92 18.67-2.41.97-3.59.81-4.95-1.63-6.8-12.22-11.2-25.16-11.92-39.17-.62-12.06-.89-24.15-1.29-36.22-.02-.72.13-1.45.25-2.58zm91.74 8.04c-1.2 6.91 2.54 12.59 7.4 17.76.67.71 2.02 1.18 3.01 1.12 4.86-.3 9.74-.59 14.54-1.32 8.99-1.37 17.52-3.96 24.65-10.08 1.88-1.62 1.97-2.9 1.14-5.08-7.12-18.71-7.85-37.22 1.06-55.77 3.23-6.72 5.73-13.94 7.45-21.2 2.22-9.4-1.06-14.16-10.59-15.25-8.9-1.02-17.96-.56-26.93-1.09-6.14-.36-11.49 1.09-16.01 5.24-.84.77-1.65 1.92-1.84 3.01-2.84 16.06-5.5 32.16-8.4 48.21-.48 2.66-.42 5.02.93 7.3 4.18 7.05 5.2 14.62 3.85 22.62-.21 1.26-.15 2.55-.26 4.53zm127.25-100.96c.5 1.2.88 2.16 1.3 3.09 5.13 11.15 10.31 22.28 15.36 33.47.67 1.48 1.2 3.29.99 4.84-1.36 9.95-3.15 19.84-4.36 29.81-.76 6.25-.83 12.6-1.04 18.9-.07 2.16 1.35 2.93 3.41 2.36 2.24-.62 4.56-1.07 6.68-1.98 14.52-6.19 25.64-16.67 35.56-28.59 7.06-8.49 11.16-17.91 9.13-29.3-.87-4.87 1.45-8.82 4.26-12.55.99-1.32 1.98-2.8 2.42-4.36 1.48-5.3 2.66-10.68 4.07-16 1.83-6.9.06-12.93-4.06-18.54-1.32-1.8-2.54-2.24-4.77-1.56-14.08 4.26-28.21 8.34-42.32 12.49-8.8 2.61-17.59 5.24-26.63 7.92zm-9.22 44.8c-.19-2.57-.23-7.57-.98-12.46-1.31-8.51-4.35-16.21-12.46-20.65-6.36-3.48-6.94-3.4-12.42 1.35-2.21 1.91-5.05 3.71-6.13 6.2-6.74 15.63-13.24 31.36-19.45 47.21-3.51 8.97-4.3 18.25-1.08 27.64 3.27 9.54 4.93 10.97 14.78 10.48 8.7-.43 17.28-1.54 25.01-6.13 3.41-2.03 5.73-4.59 6.92-8.56 4.19-13.94 5.25-28.25 5.81-45.08z" fill="#010000"/><g fill="#fafafb"><path d="m361.2 9.6.8-1c.9.7 1.9 1.4 2.9 2.3l-.9 1.1c-1-1-2-1.8-2.8-2.4zm.5 10.6c.9-2.1 1.6-4.3 2.3-6.7.4.2.8.4 1.3.6-.7 2.1-1.5 4.3-2.2 6.6zm.4-15.2.9-.9c1 .8 2 1.6 2.8 2.4l-1 1c-.9-.9-1.8-1.7-2.7-2.5zm12.5-1.2h1.2v1.4h2.7v1.1h-2.7v2.7h-1.2v-.6h-1.8v1.3h4.9v3.8h-1.2v-.5h-3.7c0 .4-.1.9-.1 1.2h5.1v1h-5.2c0 .5-.1.9-.2 1.2h6v1h-5.2c1.1 1.3 2.9 2 5.5 2.2-.4.4-.7.8-.9 1.3-2.9-.5-4.8-1.6-5.7-3.5h-.1c-.8 1.7-2.7 2.9-5.9 3.6-.2-.4-.6-.8-.9-1.1 2.8-.6 4.6-1.4 5.4-2.5h-4.8v-1h5.3c.1-.3.2-.7.2-1.2h-4.9v-1h5c0-.4 0-.8.1-1.2h-3.5v.5h-1.2v-3.8h4.9v-1.3h-1.8v.5h-1.2v-2.7h-2.7v-1h2.6v-1.4h1.2v1.4h4.7v-1.4zm-6.6 8.3h3.6c0-.4 0-.9 0-1.4h-3.6zm1.9-4.6h4.7v-1.3h-4.7zm6.6 3.2h-3.7v1.4h3.7z"/><path d="m385.3 3.8h1.3v2.2h2.8v-2.2h1.3v2.2h4.1v9.1h1.7v1.3h-16.9v-1.3h1.7v-9.1h4.1v-2.2zm.4 13.1.7 1.2c-1.8.9-3.8 1.9-6 2.9-.2-.4-.5-.8-.8-1.3 2.3-1 4.3-1.9 6.1-2.8zm-3.1-6.4h2.8v-3.2h-2.8zm0 4.6h2.8v-3.3h-2.8zm4-4.6h2.8v-3.2h-2.8zm0 4.6h2.8v-3.3h-2.8zm3.7 1.9c2.1.9 4.1 1.8 6.1 2.7l-.7 1.3c-2.2-1.1-4.2-2-6.1-2.9zm3.2-9.7h-2.8v3.2h2.8zm-2.8 7.8h2.8v-3.3h-2.8z"/></g></svg>