<svg enable-background="new 0 0 400 400" viewBox="0 0 400 400" xmlns="http://www.w3.org/2000/svg"><path d="m378.6 9.2.8-1c.9.7 1.9 1.4 2.9 2.3l-.9 1.1c-1.1-.9-2-1.7-2.8-2.4zm.5 10.7c.9-2.1 1.6-4.3 2.3-6.7.4.2.8.4 1.3.6-.7 2.1-1.5 4.3-2.2 6.6zm.4-15.2.9-.9c1 .8 2 1.6 2.8 2.4l-1 1c-1-.9-1.9-1.8-2.7-2.5zm12.5-1.3h1.2v1.4h2.7v1.1h-2.7v2.7h-1.2v-.5h-1.8v1.3h4.9v3.8h-1.2v-.5h-3.7c0 .4-.1.9-.1 1.2h5.1v1h-5.2c0 .5-.1.9-.2 1.2h6v1h-5.2c1.1 1.3 2.9 2 5.5 2.2-.4.4-.7.8-.9 1.3-2.9-.5-4.8-1.6-5.7-3.5h-.1c-.8 1.7-2.7 2.9-5.9 3.6-.2-.4-.6-.8-.9-1.1 2.8-.6 4.6-1.4 5.4-2.5h-4.8v-1h5.3c.1-.3.2-.7.2-1.2h-4.9v-1h5c0-.4 0-.8.1-1.2h-3.6v.5h-1.2v-3.8h4.9v-1.3h-1.8v.5h-1.2v-2.7h-2.6v-1.1h2.6v-1.4h1.2v1.4h4.7v-1.4zm-6.7 8.4h3.6c0-.4 0-.9 0-1.4h-3.6zm1.9-4.7h4.7v-1.2h-4.7zm6.7 3.3h-3.7v1.4h3.7z" fill="#fafbfc"/><path d="m384.7 21.4h1.3v2.2h2.8v-2.2h1.3v2.2h4.1v9.1h1.7v1.3h-16.9v-1.3h1.7v-9.1h4.1v-2.2zm.3 13.2.7 1.2c-1.8.9-3.8 1.9-6 2.9-.2-.4-.5-.8-.8-1.3 2.4-1 4.4-2 6.1-2.8zm-3.1-6.5h2.8v-3.2h-2.8zm0 4.6h2.8v-3.3h-2.8zm4.1-4.6h2.8v-3.2h-2.8zm0 4.6h2.8v-3.3h-2.8zm3.6 1.9c2.1.9 4.1 1.8 6.1 2.7l-.7 1.3c-2.2-1.1-4.2-2-6.1-2.9zm3.3-9.7h-2.8v3.2h2.8zm-2.8 7.8h2.8v-3.3h-2.8z" fill="#fafbfc"/><path d="m136.12 321.87c-12.49-6.45-16.43-19.12-21.5-30.83-2.02-4.67-2.85-9.86-4.34-15.25 3.46-.42 6.15-.87 8.85-1 .73-.03 1.68.75 2.23 1.41 14.12 16.94 28.18 33.93 42.31 50.86 1.62 1.94 3.35 3.89 5.4 5.32 4.15 2.9 9.29 1.28 10.98-3.53 3.68-10.49 7.12-21.06 10.58-31.62.3-.92.19-2.14-.14-3.07-2.75-7.76-5.57-15.5-8.41-23.23-1.68-4.56-3.61-9.04-5.12-13.65-3.79-11.58-1.66-22.55 3.7-33.17 3.43-6.8 6.77-13.65 10.03-20.53 1.37-2.9 1.01-5.4-.9-8.44-9.51-15.1-17.27-31.09-22.01-48.39-1.45-5.3-2.28-10.77-3.76-16.06-1.8-6.39-5.31-11.74-11.56-15.97-3.54 5.9-7.24 11.66-10.51 17.66-3.34 6.13-5.94 12.71-11.3 17.5-1.55 1.39-3.25 2.61-5 4-2.48-5.14-3.8-9.68-1.96-15.38 4.54-14.1 8.23-28.47 12.35-42.7.42-1.45 1.22-2.96 2.28-4.03 7.05-7.1 9.02-15.39 5.92-24.81-2.25-6.82-4.21-13.68-2.3-20.84 1.04-3.91 2.88-7.61 4.43-11.58 5.85 2.52 9.75 6 12.15 11.11.85 1.82 1.62 3.68 2.48 5.5 3.09 6.54 7 12.29 13.93 15.43 2.98 1.35 5.69 3.28 8.63 4.74 10.33 5.13 19.57 11.78 27.82 20.14 3.93-3.38 7.87-1.89 11.53-.34 4.47 1.88 9 3.89 12.98 6.61 10.13 6.91 21.01 12.24 32.32 16.81 8.43 3.41 13.23 9.88 15.51 18.75-4.37 1.45-8.66 1-12.84-.24-8.25-2.44-15.93-5.88-23.03-11.06-7.23-5.28-15.25-9.52-23.1-13.89-4.64-2.59-9.75-4.02-15.18-4.2-1.84-.06-3.75-.7-5.48-1.43-7.69-3.26-15.32-6.65-23.18-10.08-2.89 5.07-3.35 10.4-2.41 15.78.69 3.93 1.79 7.86 3.25 11.58 3.96 10.07 7.81 20.14 9.15 30.98.07.6.28 1.25.6 1.76 8.88 14.2 12.33 30.26 15.88 46.29.11.51.19 1.08.08 1.58-1.23 5.44-2.51 10.88-3.82 16.49-2.2-.28-4.07-.52-6.57-.85 1.03 9.59-2.91 17.57-8.01 24.97 4.5 5.54 4.44 10.74.27 14.94.91.39 1.7.79 2.52 1.09 2.9 1.06 5.17 2.09 4.42 6.25-.42 2.33.95 5.13 1.94 7.53 1.04 2.53 2.38 5.01 3.98 7.22 4.64 6.42 5.95 13.44 5.24 21.26-.66 7.27-.4 14.62-.79 21.93-.09 1.6-.85 3.55-1.98 4.65-5.73 5.58-9.12 12.32-11.26 19.93-1.46 5.17-3.41 10.22-5.39 15.22-.4 1.01-1.82 2.11-2.91 2.29-6.27 1-12.59 1.79-18.9 2.5-.74.08-2.05-.63-2.33-1.3-2.38-5.76-6.4-10.17-11.05-14.14-7.79-6.65-12.06-15.73-16.6-24.59-.56-1.03-.1-2.59-.1-3.88zm57.55-16.99c6.58-2.78 7.17-3.58 5.27-7.27-3.5 1.15-5.66 3.29-5.27 7.27zm-15.35-158.77c3.06 7.33 3.16 7.42 7.07 6.28-2.42-2.15-4.74-4.22-7.07-6.28zm-31.41-59.06c-.3 1.96-.52 3.33-.81 5.19 2.33-.67 4.16-1.2 6.7-1.94-2.17-1.19-3.76-2.07-5.89-3.25z" fill="#010104"/></svg>