<svg enable-background="new 0 0 400 400" viewBox="0 0 400 400" xmlns="http://www.w3.org/2000/svg"><g fill="#010000"><path d="m275.78 48.33c1.83 3.29 3.7 6.56 5.48 9.87.44.83.66 1.79.91 2.71 1.09 3.98 3.17 8.04 2.92 11.94-.23 3.62-2.96 7.08-4.72 10.87 10.82 3.4 12.21 13.03 13.37 22.51.59 4.82 2.29 8.83 4.94 12.79 1.38 2.06 2.53 4.89 2.36 7.27-.89 12.45-2.03 24.9-3.55 37.29-.41 3.32-2.11 6.65-3.85 9.61-6.29 10.68-12.83 21.22-19.35 31.76-.99 1.6-2.23 3.1-3.58 4.4-10.62 10.22-21.26 20.42-31.99 30.52-1.55 1.45-2.09 2.76-1.24 4.66.04.1.06.2.09.31 2.49 9.58 7.48 19.02.77 29.01 1.31.42 1.86.66 2.44.77 7.25 1.47 10.52 5.62 10.27 12.99-.15 4.55-.18 9.11-.36 13.67-.18 4.46 1.54 8.15 3.97 11.79 1.54 2.3 2.57 5.03 3.36 7.71 1.55 5.26 2.77 10.62 4.31 16.64 9.27-2 18.25-3.86 27.19-5.87 7.25-1.63 12.16-1.55 16.56.84-6.75-.72-10.79 4.15-15.87 7.04-4.75 2.7-10.21 4.1-15.14 6.52-14.62 7.18-30.62 8.95-46.29 11.87-16.34 3.04-32.76 5.78-49.24 7.95-17.51 2.31-35.09 1.38-52.67-.22-7.21-.66-14.62-.22-21.84.61-5.02.58-8.15-.99-10.95-4.84-3.09-4.26-5.92-8.49-5.61-14.44h4.86c9.86 0 19.73-.14 29.59.08 3.17.07 5.23-1.15 7-3.45 5.07-6.57 7.01-14.38 8.83-22.24.59-2.56 1.11-5.22 2.23-7.56 5.17-10.73 6.43-22.56 9.71-33.82 2.45-8.42 4.7-16.99 5.88-25.65.9-6.63.17-13.51-.25-20.26-.11-1.7-1.44-3.75-2.83-4.88-10.93-8.9-22.08-17.54-32.99-26.47-2.22-1.82-4.23-4.27-5.46-6.85-3.56-7.43-6.76-15.04-9.93-22.65-3.96-9.51-4.67-19.54-4.12-29.67.38-6.98 1.39-13.92 1.67-20.9.21-5.17-.49-10.37-.44-15.56.04-3.65.18-7.42 1.11-10.92 3.13-11.76 6.63-23.42 9.99-35.13 1.64-5.71 2.22-6.08 9.02-5.58-.57 7.15-1.36 14.3-1.64 21.46-.33 8.47-2.35 16.55-4.97 24.5-1.01 3.08-.46 5.29 2.08 7.21 6.83-3.3 11.8-8.74 16.49-14.5 3.34-4.11 6.61-8.3 10.17-12.22 3.75-4.12 8.2-7.27 14.14-8.28-.15 5.4-.29 10.17-4.67 14.3-6.54 6.17-12.16 13.31-18.55 19.66-3.41 3.38-7.55 6.05-11.47 8.88-1.7 1.23-3.76 1.96-5.52 3.13-5.55 3.66-8.75 8.66-8.98 15.52-.49 14.77 2.23 28.88 8.41 42.28.91 1.97 2.29 3.83 3.8 5.41 8.49 8.9 17.04 17.74 25.69 26.49 1.06 1.07 2.81 1.52 4.3 2.1 1.99.77 4.38.94 6.03 2.14 10.56 7.72 21.27 15.23 34.13 18.55 5.9 1.52 12.08 1.96 18.14 2.79.76.1 1.72-.19 2.39-.61 13.28-8.33 26.82-16.28 39.69-25.2 9.87-6.84 17.89-15.86 25.3-25.37 5.55-7.12 6.42-15.13 5.8-23.74-.65-9.08-.95-18.2-1.16-27.31-.05-2.32-.82-3.53-2.72-4.77-9.32-6.04-18.86-11.83-27.69-18.54-11.2-8.51-18.05-20.05-20.48-34.58 3.12.83 6.09 1 8.47 3.58 6.46 7.02 13.04 13.94 19.72 20.75 4.39 4.48 9.17 8.51 15.48 10.84 3.86-6.49 4.81-13.5 3.7-20.75-.62-4.05-1.92-8.02-3.12-11.96-2.87-9.44-3.32-18.88-.58-28.37.34-.14.7-.29 1.06-.43zm-43.21 300.36c.46-.14 1.57-.21 2.37-.75 3.43-2.3 6.83-4.66 10.08-7.2.63-.5.93-1.99.74-2.88-1.11-5.17-2.45-10.3-3.66-15.45-5.39-22.97-12.01-45.67-14.79-69.2-.63-5.32-3.36-6.7-8.33-4.61-.68.29-1.36.6-2.01.96-3.42 1.86-6.94 2.1-10.75 1.23-9.39-2.15-18.83-4.08-28.25-6.07-4.55-.96-4.59-.94-6.42 3.47-4.41 10.62-5.5 21.89-6.78 33.17-1.25 11.03-2.32 22.14-4.66 32.96-1.75 8.05-5.48 15.67-8.17 23.53-.8 2.35-1.3 4.86-1.47 7.34-.06.97.97 2.61 1.87 2.93 3.36 1.2 6.81 2.49 10.32 2.84 12.56 1.24 24.9-1.14 37.28-2.84 6.44-.88 12.76-3.03 19.46-1.43 4.11.99 8.37 1.3 13.17 2z"/><path d="m197.19 105.55c.39.18 1.2.41 1.87.86 13.58 9.15 24.61 20.65 32.29 35.21 1.99 3.77 2.56 7.49 1.13 11.84-2.7 8.23-4.35 16.82-7.17 25-1.87 5.41-5.99 9.33-11.86 10.77-1.95.48-3.49-.11-5.1-1.6-6.96-6.41-10.65-14.64-13.54-23.36-.5-1.51-.69-3.27-1.62-4.45-3.18-4.02-2.68-8.18-.97-12.49 2.29-5.8 2.24-11.81 1.52-17.84-.57-4.84.1-9.27 2.12-13.83 1.3-2.95.94-6.66 1.33-10.11zm13.87 67.46c2.59-2.39 4.9-4.27 6.86-6.46.92-1.03 1.62-2.67 1.61-4.04-.03-4.44-.74-8.89-.62-13.31.21-7.57-3.44-12.36-9.93-15.51-3.23-1.57-6.36 0-6.8 3.6-.56 4.62-.67 9.33-1.6 13.87-1.08 5.24.13 9.62 3.42 13.59 2.23 2.7 4.53 5.31 7.06 8.26z"/><path d="m120.81 49.24c.25-3.29.5-6.57.75-9.86.45 3.33 1.03 6.66.46 9.93-.41-.02-.81-.04-1.21-.07z"/></g><path d="m361.2 9.6.8-1c.9.7 1.9 1.4 2.9 2.3l-.9 1.1c-1-1-2-1.8-2.8-2.4zm.5 10.6c.9-2.1 1.6-4.3 2.3-6.7.4.2.8.4 1.3.6-.7 2.1-1.5 4.3-2.2 6.6zm.4-15.2.9-.9c1 .8 2 1.6 2.8 2.4l-1 1c-.9-.9-1.8-1.7-2.7-2.5zm12.5-1.2h1.2v1.4h2.7v1.1h-2.7v2.7h-1.2v-.6h-1.8v1.3h4.9v3.8h-1.2v-.5h-3.7c0 .4-.1.9-.1 1.2h5.1v1h-5.2c0 .5-.1.9-.2 1.2h6v1h-5.2c1.1 1.3 2.9 2 5.5 2.2-.4.4-.7.8-.9 1.3-2.9-.5-4.8-1.6-5.7-3.5h-.1c-.8 1.7-2.7 2.9-5.9 3.6-.2-.4-.6-.8-.9-1.1 2.8-.6 4.6-1.4 5.4-2.5h-4.8v-1h5.3c.1-.3.2-.7.2-1.2h-4.9v-1h5c0-.4 0-.8.1-1.2h-3.5v.5h-1.2v-3.8h4.9v-1.3h-1.8v.5h-1.2v-2.7h-2.7v-1h2.6v-1.4h1.2v1.4h4.7v-1.4zm-6.6 8.3h3.6c0-.4 0-.9 0-1.4h-3.6zm1.9-4.6h4.7v-1.3h-4.7zm6.6 3.2h-3.7v1.4h3.7z" fill="#fafafb"/><path d="m385.3 3.8h1.3v2.2h2.8v-2.2h1.3v2.2h4.1v9.1h1.7v1.3h-16.9v-1.3h1.7v-9.1h4.1v-2.2zm.4 13.1.7 1.2c-1.8.9-3.8 1.9-6 2.9-.2-.4-.5-.8-.8-1.3 2.3-1 4.3-1.9 6.1-2.8zm-3.1-6.4h2.8v-3.2h-2.8zm0 4.6h2.8v-3.3h-2.8zm4-4.6h2.8v-3.2h-2.8zm0 4.6h2.8v-3.3h-2.8zm3.7 1.9c2.1.9 4.1 1.8 6.1 2.7l-.7 1.3c-2.2-1.1-4.2-2-6.1-2.9zm3.2-9.7h-2.8v3.2h2.8zm-2.8 7.8h2.8v-3.3h-2.8z" fill="#fafafb"/></svg>