<svg enable-background="new 0 0 400 400" viewBox="0 0 400 400" xmlns="http://www.w3.org/2000/svg"><path d="m362.1 8.8c1.1.8 2.1 1.6 3.1 2.4l-1 1.1c-1.3-1.1-2.3-2-3-2.5zm1.9 4.8c.5.2.9.4 1.4.5-.6 2.3-1.3 4.5-1.9 6.8l-1.5-.5c.8-2.1 1.4-4.3 2-6.8zm-1-9.4c1.3.9 2.4 1.8 3.4 2.5l-1 1.1c-1.4-1.2-2.4-2.1-3.2-2.6zm3.7 2.2v-1.4h10.3v1.2c-.5 3.6-1.8 6.8-4 9.4 1.5 1.6 3.4 2.8 5.7 3.8-.3.4-.7.8-1.1 1.4-2.3-1.1-4.1-2.5-5.6-4.1-1.6 1.6-3.6 3.1-5.9 4.3-.3-.5-.7-.9-1-1.3 2.4-1.1 4.4-2.5 6-4.1-1.9-2.5-3-5.6-3.3-9.3h-1.1zm8.8 0h-6.4c.3 3.3 1.3 6 3 8.2 2-2.3 3.1-5.1 3.4-8.2z" fill="#fbfcfa"/><path d="m385.3 3.8h1.3v2.2h2.8v-2.2h1.3v2.2h4.1v9.1h1.7v1.3h-16.9v-1.3h1.7v-9.1h4.1v-2.2zm.4 13.1.7 1.2c-1.8.9-3.8 1.9-6 2.9-.2-.4-.5-.8-.8-1.3 2.3-1 4.3-1.9 6.1-2.8zm-3.1-6.4h2.8v-3.2h-2.8zm0 4.6h2.8v-3.3h-2.8zm4-4.6h2.8v-3.2h-2.8zm0 4.6h2.8v-3.3h-2.8zm3.7 1.9c2.1.9 4.1 1.8 6.1 2.7l-.7 1.3c-2.2-1.1-4.2-2-6.1-2.9zm3.2-9.7h-2.8v3.2h2.8zm-2.8 7.8h2.8v-3.3h-2.8z" fill="#fbfcfa"/><g fill="#010101"><path d="m239.89 189.74c2.67 2.88 4.83 4.75 6.42 7.02 4.92 7.04 9.42 14.31 11.81 22.72.7 2.46 2.18 4.78 3.65 6.92 6.61 9.68 13.35 19.28 20.03 28.92.24.34.49.73.57 1.13 1.44 7.26 5.74 13.11 9.43 19.27 2.36 3.93 3.54 8.13 1.65 13.44-1.5-.63-3.15-.94-4.28-1.87-3.09-2.57-5.84-5.57-8.96-8.1-4.3-3.5-7.71-7.42-8.8-13.08-.21-1.08-1.22-2.38-2.21-2.86-6.07-2.98-8.56-8.43-10.48-14.39-1.94-6.04-3.83-12.11-6.11-18.02-.98-2.54-2.89-4.73-4.38-7.08-.3.12-.59.25-.89.37-.34 6.01-.81 12.01-1 18.02-.81 25.11-1.61 50.21-2.26 75.33-.29 11.12-.16 22.25-.39 33.37-.05 2.5-.56 5.07-1.35 7.44-.46 1.37-1.69 2.73-2.94 3.53-1.92 1.24-3.99 1.22-4.61-1.59-1.53-6.9-3.05-13.81-4.35-20.76-.81-4.37-1.26-8.81-1.77-13.23-.21-1.77-.41-3.61-.16-5.36 2.4-16.68 1.33-33.41.51-50.11-.1-1.95-2.2-3.74-3.06-5.74-.62-1.44-1.23-3.19-1-4.66 3.39-20.91 6.83-41.81 10.55-62.66.45-2.54 2.56-4.77 4.38-7.97z"/><path d="m156.98 201.34c-7.78 5.46-15.54 10.75-23.13 16.27-3.94 2.86-7.53 6.2-11.36 9.21-5.09 4.01-10.87 6.13-17.4 5.74-1.2-.07-3.31-.77-3.37-1.34-.18-1.87-.32-4.57.78-5.61 6.23-5.89 12.83-11.4 19.31-17.04.08-.07.17-.15.27-.17 5.76-1.21 8.53-6.03 12.34-9.76 4.35-4.26 9.25-8.08 14.34-11.44 7.24-4.79 14.89-8.93 22.3-13.47 1.86-1.14 3.78-1.54 5.23-.06 1.1 1.12 2.22 3.22 1.91 4.54-.85 3.52-2.16 7.02-3.88 10.22-1.15 2.15-1.91 3.96-1.58 6.5.52 3.97.35 8.03.62 12.05 1.58 23.42 1.06 46.85-.44 70.22-.63 9.86-3.44 19.58-5.2 29.38-1.39 7.69-3.33 15.29-3.02 23.25.1 2.65-.81 5.47-1.8 7.99-2.93 7.47-6 14.89-9.29 22.21-.95 2.12-2.83 3.82-4.29 5.71-.27-.1-.54-.2-.81-.3 0-3.1-.33-6.23.05-9.28 3.62-29.22 7.54-58.41 10.94-87.66.78-6.67.04-13.55-.3-20.32-.51-10.21-.06-20.3 2.11-30.33 1.24-5.69.48-11.14-4.33-16.51z"/><path d="m280.52 152.44c-5.11 4.43-13.28 5.27-18.59 2.22-3.21-1.85-6.54-3.51-9.62-5.56-2.6-1.74-5.13-3.7-7.29-5.95-2.5-2.6-4.74-5.19-8.5-6.18-2.06-.54-3.94-2.02-5.74-3.31-2.09-1.5-3.15-3.52-3.9-6.18-1.24-4.42-3.1-8.83-5.59-12.68-1.89-2.94-2.7-5.8-2.16-8.94 1.14-6.57.83-13.06-.18-19.57-1.14-7.4 2.29-14.09 3.38-21.14 1.19-7.73 2.49-15.43 3.62-23.17.42-2.88 3.01-5.16 5.89-4.67 3.43.58 6.35 2.41 6.59 5.92.31 4.56-.06 9.23-.7 13.77-.82 5.75-2.72 11.38-3.19 17.15-.46 5.65.23 11.4.51 17.1.27 5.56 1.46 11.16-1.17 16.56-.33.67.21 2.02.72 2.81 2.78 4.38 5.7 8.67 8.54 13.02 2.1 3.21 4.94 5.26 8.51 6.78 3.54 1.51 6.98 3.56 10 5.96 5.72 4.55 11.09 9.52 16.62 14.31.72.6 1.48 1.15 2.25 1.75z"/><path d="m155 34.95c8.03.02 11.59 3.29 11.92 10.68.14 3.07.32 6.15.21 9.21-.13 3.67.32 7.12 2.1 10.42.67 1.24.91 2.83.98 4.27.44 9.74 1.02 19.49 1.01 29.23-.01 3.49-1.8 6.93-2.33 10.46-1.36 8.99-6.17 15.68-13.03 21.33-8.33 6.87-16.43 14.04-24.68 21.01-1.53 1.29-3.36 2.2-5.03 3.33-3.43 2.31-7.11 3.23-11.11 1.86-1.06-.36-2.52-1.08-2.75-1.92-.23-.83.61-2.33 1.42-3.01 8.85-7.43 17.8-14.74 26.69-22.12 5.13-4.25 10.12-8.57 16.61-10.88 3.97-1.41 4.85-3.93 3.29-7.9-4.89-12.44-5.44-25.62-6.9-38.65-1.13-10.12-1.97-20.27-.05-30.4.46-2.35 1.11-4.68 1.65-6.92z"/></g></svg>