<svg enable-background="new 0 0 400 400" viewBox="0 0 400 400" xmlns="http://www.w3.org/2000/svg"><g fill="#010000"><path d="m130.08 162.51c.82-1.68 1.32-3.62 2.5-5 18.95-22.17 37.99-44.25 56.95-66.4 1.35-1.58 2.48-3.44 3.31-5.34 3.12-7.07 6.11-14.2 9.06-21.34 1.54-3.74 3.13-7.37 6.4-10.04.82-.67 1.28-1.91 1.67-2.98 1.94-5.25 3.81-10.53 5.7-15.8.36-.05.71-.1 1.07-.16 1.14 4.8 2.4 9.57 3.4 14.4 1.35 6.53 2.56 13.1 3.71 19.67 1.27 7.23 4.64 13.35 9.55 18.69.72.78 1.39 1.61 2.17 2.32 5.78 5.23 9.75 11.56 12.24 18.96.71 2.12 2.15 4.16 3.72 5.79 6.53 6.78 11.87 14.26 15.54 23.03 1.46 3.49 4.23 6.43 6.84 10.26-3.63-1.48-7.26-2.42-10.28-4.32-3.74-2.35-7.02-5.46-10.43-8.32-.95-.8-1.8-1.8-2.44-2.86-1.81-2.99-3.64-5.99-5.18-9.12-2.81-5.72-7.02-10.03-11.75-14.28-4.14-3.72-6.98-8.97-10.14-13.71-3.16-4.75-6.5-9.18-12.05-11.33-.38-.15-.8-.23-.52-.15-2.57 2.85-5.06 5.26-7.09 8.01-1.13 1.53-1.44 3.64-2.24 5.44-.96 2.18-1.7 4.57-3.12 6.43-6.9 9-13.97 17.87-21.07 26.73-1.03 1.28-2.37 2.42-3.78 3.27-5.81 3.49-11.77 6.75-17.52 10.32-1.36.85-2.16 2.6-3.23 3.93-1.13 1.4-2 3.24-3.45 4.12-6.04 3.66-12.26 7.03-18.42 10.51-.36-.23-.74-.48-1.12-.73z"/><path d="m177.43 366.27c-.17-5.05 1.19-8.81 4.06-12.83 5.7-7.97 10.59-16.6 15.12-25.31 2.22-4.26 4.53-8.15 8.58-10.62 3.55-2.16 4.5-4.99 3.44-8.74-.63-2.22-.06-3.94 1.82-5.22 4-2.71 5.26-6.69 5.06-11.23-.14-3.12 1.25-5.38 3.15-7.65 1-1.2 1.91-2.97 1.87-4.46-.38-14.43 2.75-28.43 4.76-42.58.44-3.12-.56-6.44-.88-9.67-.42-4.1-1.12-8.19-1.19-12.29-.17-10.79-.06-21.59-.06-32.94 19.06 1.23 39.03.71 58.41 6.38-5.4 4.15-11.4 6.46-17.84 7.15-6.82.73-13.71.97-20.58 1.22-5.46.2-7.16 1.2-7.7 6.64-.44 4.37-.85 9.06.23 13.21 2.88 11.13 2.59 22.23 1.48 33.46-.63 6.33-.95 12.69-1.73 19-.42 3.41-1.48 6.74-2.34 10.09-.99 3.86-2.45 7.63-3.06 11.54-1.08 6.92-3.21 13.42-6.99 19.26-9.14 14.14-18.37 28.24-27.77 42.22-4.26 6.38-9.96 11.18-17.84 13.37z"/><path d="m140.43 192.56c7.36-5.46 16.15-6.87 25.28-7.01 3.6-.05 7.21-.11 10.81.05 3.8.17 7.01 1.5 8.74 5.56-3.7 2.96-7.45 5.88-11.1 8.92-.74.61-1.52 1.58-1.63 2.47-.75 6.18-1.36 12.38-1.97 18.58-1.17 11.89 1.23 23.35 3.76 34.89 2.44 11.15 3.94 22.5 5.96 33.74.61 3.39 1.55 6.71 2.44 10.55-.67 0-2.14.46-2.76-.08-3.08-2.67-6.39-5.06-8.17-9.09-4.53-10.26-9.43-20.36-14.13-30.54-.47-1.01-1.13-2.39-.8-3.23 2.99-7.52.55-14.9-.59-22.22-1.09-6.98-1.57-13.89-.52-20.85.41-2.74-.56-4.53-2.97-5.12-4.81-1.19-9.71-2.06-14.59-2.91-.54-.09-1.21.99-1.92 1.28-1.86.77-3.94 2.26-5.65 1.95-5.87-1.08-11.46-3.11-15.42-8.05-1.69-2.11-2.92-4.36-2.36-7.4 7.77-1.25 15.48-2.6 23.23-3.61 1.2-.15 2.62 1.24 4.36 2.12z"/></g><path d="m361.2 9.6.8-1c.9.7 1.9 1.4 2.9 2.3l-.9 1.1c-1-1-2-1.8-2.8-2.4zm.5 10.6c.9-2.1 1.6-4.3 2.3-6.7.4.2.8.4 1.3.6-.7 2.1-1.5 4.3-2.2 6.6zm.4-15.2.9-.9c1 .8 2 1.6 2.8 2.4l-1 1c-.9-.9-1.8-1.7-2.7-2.5zm12.5-1.2h1.2v1.4h2.7v1.1h-2.7v2.7h-1.2v-.6h-1.8v1.3h4.9v3.8h-1.2v-.5h-3.7c0 .4-.1.9-.1 1.2h5.1v1h-5.2c0 .5-.1.9-.2 1.2h6v1h-5.2c1.1 1.3 2.9 2 5.5 2.2-.4.4-.7.8-.9 1.3-2.9-.5-4.8-1.6-5.7-3.5h-.1c-.8 1.7-2.7 2.9-5.9 3.6-.2-.4-.6-.8-.9-1.1 2.8-.6 4.6-1.4 5.4-2.5h-4.8v-1h5.3c.1-.3.2-.7.2-1.2h-4.9v-1h5c0-.4 0-.8.1-1.2h-3.5v.5h-1.2v-3.8h4.9v-1.3h-1.8v.5h-1.2v-2.7h-2.7v-1h2.6v-1.4h1.2v1.4h4.7v-1.4zm-6.6 8.3h3.6c0-.4 0-.9 0-1.4h-3.6zm1.9-4.6h4.7v-1.3h-4.7zm6.6 3.2h-3.7v1.4h3.7z" fill="#fafafb"/><path d="m385.3 3.8h1.3v2.2h2.8v-2.2h1.3v2.2h4.1v9.1h1.7v1.3h-16.9v-1.3h1.7v-9.1h4.1v-2.2zm.4 13.1.7 1.2c-1.8.9-3.8 1.9-6 2.9-.2-.4-.5-.8-.8-1.3 2.3-1 4.3-1.9 6.1-2.8zm-3.1-6.4h2.8v-3.2h-2.8zm0 4.6h2.8v-3.3h-2.8zm4-4.6h2.8v-3.2h-2.8zm0 4.6h2.8v-3.3h-2.8zm3.7 1.9c2.1.9 4.1 1.8 6.1 2.7l-.7 1.3c-2.2-1.1-4.2-2-6.1-2.9zm3.2-9.7h-2.8v3.2h2.8zm-2.8 7.8h2.8v-3.3h-2.8z" fill="#fafafb"/></svg>