<svg enable-background="new 0 0 400 400" viewBox="0 0 400 400" xmlns="http://www.w3.org/2000/svg"><g fill="#010000"><path d="m208.85 163.49c.66-.44 1.47-.76 1.96-1.35 1.32-1.6 3.09-2.49 4.64-1.13 1.52 1.33 1.07 3.25-.41 4.78-1.79 1.85-1.28 3.17.83 4.51 3.15 1.99 3.85 5.82 2.66 9.31-.54 1.59.14 3.6.28 5.59-1.48.06-2.73-.64-3.19-2.95-.67-3.42-2.44-6.05-6.57-6.86-.35 1.03-.84 2.05-1.04 3.12-.84 4.32-1.36 8.72-2.44 12.99-1.42 5.64-3.58 11.11-4.79 16.79-.87 4.1-2.98 6.03-7.03 6.45-1.73-2.06-1.54-4.35-.58-6.74 1.18-2.92 2.62-5.75 1.64-9.14-.29-.99.31-2.27.6-3.39 1.79-6.86 3.72-13.69 5.35-20.59.57-2.43 1.68-3.59 4.13-3.93 3.57-.5 4.09-1.87 2.02-4.71-1.73-2.38-2.38-4.77-1.08-7.69 1.43-3.2 1.12-6.46-1.12-9.29-1.95-2.45-2.82-5.15-2.4-8.25.37-2.67-.41-4.95-2.12-7.03-1.27-1.55-2.18-3.41-3.49-4.92-2.45-2.85-3.36-5.85-2.38-9.63.29-1.13-.94-2.73-1.65-4.01-.58-1.05-1.43-1.96-2.21-3 1.91-.3 3.25-.51 4.59-.72.14-.29.27-.59.41-.88-4.92-3.48-4.46-8.18-3.37-12.96.15-.68.8-1.24 1.22-1.86.66.55 1.76.99 1.92 1.66 1.19 5.02 2.23 10.09 3.25 15.15.75 3.71.92 7.63 2.26 11.1 1.02 2.64 3.49 4.73 5.32 7.06.53-.1 1.06-.2 1.6-.3 1.18-3.74 2.61-7.43 3.49-11.25.89-3.91 1.25-7.95 1.82-11.93.09-.62.33-1.43.06-1.87-2.56-4.02-1.87-8.56-2.39-12.94-.55-4.62-3.93-7.54-7.66-10.49-2.68 3.23-5.29 6.37-7.89 9.51-.28-.05-.56-.09-.85-.14.15-1.63.2-3.28.47-4.89.21-1.24.92-2.41 1.02-3.65.33-4.19-2.95-6.76-7.02-5.44-2.32.75-4.33 1.12-5.82-1.86 3.86-1.7 6.58-5.67 11.69-4.53.86.19 2.37-1.51 3.22-2.62 1.4-1.83 2.94-2.95 5.35-2.52 2.3.42 3.95-.54 5.55-2.23 3.15-3.34 5.98-7.28 11.29-7.46.52-.02 1.24-.55 1.48-1.03 1.55-3.1 4.67-3.62 7.41-4.94 4.42-2.13 8.61-4.71 13.33-7.35.36.91 1.55 2.46 1.41 3.87-.36 3.62-.83 7.37-2.13 10.74-2.38 6.19-5.29 12.19-8.15 18.18-1.85 3.88-3.85 7.72-6.12 11.38-.83 1.33-2.52 2.27-4.01 2.98-.77.37-1.97-.16-2.97-.28.22-.98.11-2.26.7-2.89 5.96-6.43 11.11-13.4 14.04-21.74 1.1-3.13 1.54-6.48 2.28-9.74-.3-.33-.59-.66-.89-1-1.91.72-3.94 1.22-5.7 2.21-5.35 3-10.66 6.06-15.84 9.33-3.33 2.11-6.4 4.63-9.77 7.09 3.09 3.62 5.46 6.6 8.05 9.37 1.76 1.88 2.83 3.82 2.74 6.47-.06 1.89.4 3.79.49 5.69.15 3.25.21 6.5 4.49 7.38-.72 2.84-1.58 5.35-1.96 7.93-.48 3.19-.55 6.44-.84 9.66-.09 1.03-.18 2.09-.51 3.07-.53 1.6-1.1 3.23-1.93 4.7-4.38 7.8-5.91 15.94-3.04 24.61.99 2.98.08 5.28-1.97 7.43-.93.97-1.61 2.17-2.4 3.27.24.21.45.47.67.74z"/><path d="m224.64 305.85c7.88 2.32 8.33 3.07 6.17 10.07-.99 3.23-2.23 6.4-3.46 9.55-2.25 5.75-2.29 5.74-8.9 5.61-.74-4.4.28-8.56 1.75-12.66.36-.99.84-1.94 1.26-2.92.89-2.05 2.33-4.6.27-6.15-2.14-1.61-5.08-2.22-7.76-2.94-.51-.14-1.65 1.13-2.11 1.97-1.54 2.75-3.42 5.1-6.45 6.27-2.02.78-2.8 2.29-3.11 4.36-.41 2.77-6.23 7.76-8.98 7.66-1.16-.04-2.28-1.03-3.46-1.13-2.21-.19-3.44.58-2.57 3.21 1.92 5.82 1.52 6.33-4.43 7.66-1.13.25-2.23 1.06-3.09 1.89-.9.86-1.28 2.34-2.26 3.02-1.3.91-2.92 1.59-4.47 1.77-.48.05-1.39-1.78-1.75-2.87-.82-2.51-1.43-5.09-2.12-7.65-.08-.29-.08-.61-.14-1.08 1.12-.51 2.25-1.03 3.2-1.46-1.47-13.33 5.03-25.01 6.58-37.69h8.01c-.76 2.48-1.55 4.69-2.09 6.96-.34 1.44-.92 3.29-.34 4.4 1.79 3.41 1.44 6.67.51 10.15-1.03 3.85-.26 5.26 3.76 5.8 4.52.61 8.76.63 11.89-4.19 3.85-5.94 8.32-11.54 13.01-16.85 3.33-3.77 7.34-7 11.35-10.07.93-.71 3.12.08 4.68.38 1.21.23 2.37.79 4.62 1.58-.3-2.13-.25-3.64-.76-4.93-.96-2.47-1.15-4.54 1.73-5.72 2.72-1.12 4.7-4.2 9.14-2.97-.77 1.51-1.37 2.83-2.08 4.09-1.58 2.8-3.42 5.47-4.74 8.38-1.08 2.38-1.45 5.08-2.34 7.56-.92 2.6-2.46 4.41-5.51 5.08-1.67.32-2.99 2.21-5.01 3.86z"/><path d="m228.75 232.79c3.77 2.72 3.91 5.48.88 8.48-4.59 4.56-9.31 8.99-13.83 13.61-3.33 3.41-6.85 6.75-9.54 10.64-3.15 4.56-7.21 7.09-12.4 8.51-4.41 1.21-5.15 3.06-3.69 7.32 1.89 5.47.21 7.52-6.15 7.07 0-4.3-.09-8.63.07-12.95.03-.87.85-1.88 1.58-2.51 4.55-3.98 9.1-7.96 13.79-11.78 4.71-3.84 8.57-8.33 12.28-13.16 3.22-4.19 7.78-7.44 12.08-10.67 2.74-2.06 3.52-4.2 3.14-7.51-.77-6.73-.94-13.52-1.7-20.25-.28-2.46-1.76-4.76-2.3-7.22-.59-2.67-.72-5.45-1.05-8.18.53-.16 1.06-.33 1.58-.49 1.23 2.43 2.97 4.74 3.6 7.31 1.38 5.65 2.19 11.43 3.23 17.16.08.42.07.85.17 1.26 1.25 4.67 2.4 9.33-1.74 13.36z"/><path d="m137.45 96.62c.75-.4 1.62-1.26 2.17-1.09 3.9 1.21 6-1.62 8.52-3.54.25-.19.5-.39.75-.58 3.88-2.84 4.25-2.76 6.9 1.5-6.48 3.41-7.69 5.66-6.99 13.08.15 1.58.36 3.15.59 4.72 1.09 7.41.63 9.23-4.24 16.51.8.89 1.63 1.81 2.6 2.89-1.1 1.31-2.16 2.58-3.32 3.97.91 1.22 1.77 2.38 2.75 3.69-1.55 1.82-3.04 3.58-4.64 5.46 2 1.58 4.01 2.07 6.23 1.02 2.1-.99 4.24-1.93 6.2-3.16 7.16-4.52 14.24-9.16 21.36-13.74.93-.6 1.89-1.13 3.29-1.23-.44.6-.82 1.28-1.34 1.8-3.08 3.06-6.33 5.97-9.26 9.16-3.51 3.82-7.36 6.85-12.63 7.91-1.29.26-2.38 1.61-3.5 2.54-2.99 2.47-5.74 5.31-8.98 7.39-2.73 1.75-4.6.38-4.59-2.93 0-1.24.6-2.47.67-3.72.15-2.47.04-4.97.2-7.44.11-1.62.56-3.22.75-4.85.27-2.23.82-4.52.58-6.71-.38-3.46-1.63-6.82-1.92-10.28-.24-2.87-.14-5.98.71-8.7 1.45-4.65 1.08-8.66-2.15-12.35-.29-.3-.41-.74-.71-1.32z"/><path d="m185.93 266.23c-2.54-6.36-2.03-12.82-.28-19.24 2.2-8.05 4.83-15.96 4.86-24.48 0-1.27 2.34-3.26 3.9-3.62 2.57-.6 5.33 2.13 5.31 4.69-.02 1.34-.37 2.73-.85 3.99-.81 2.17-1.71 4.33-2.79 6.38-2.38 4.51-4.53 8.94-3.49 14.37.35 1.81-.69 3.9-1.13 5.85-.61 2.7-1.08 5.45-1.95 8.06-.52 1.56-1.69 2.9-2.57 4.34-.34-.1-.68-.22-1.01-.34z"/><path d="m216.15 332.52c6.11 7.02 5.67 14.74-.69 21.57-2.36 2.54-4.46 4.99-4.93 8.6-.14 1.08-1.27 2.04-2.43 3.77-1.24-4.65-3.16-8.15-1.32-12.49 1.65-3.89 2.63-7.98 6.94-10.06.78-.38 1.11-2.05 1.32-3.19.46-2.43.69-4.91 1.11-8.2z"/><path d="m164.71 88.85c-.14-.07-.97-.48-1.8-.9.75-.55 1.45-1.47 2.26-1.58 4.6-.61 7.1-4.33 10.44-6.8 1.23-.91 2.57-2.73 3.84-.71.55.88-.05 3.11-.87 4.11-2.54 3.11-8.78 5.69-13.87 5.88z"/><path d="m256.32 34.84c1.42 1.45 1.88 2.49.01 3.63-2.32 1.42-4.54 3.01-7.27 4.85.27-5.26 4.69-5.95 7.26-8.48z"/></g><path d="m361.2 9.6.8-1c.9.7 1.9 1.4 2.9 2.3l-.9 1.1c-1-1-2-1.8-2.8-2.4zm.5 10.6c.9-2.1 1.6-4.3 2.3-6.7.4.2.8.4 1.3.6-.7 2.1-1.5 4.3-2.2 6.6zm.4-15.2.9-.9c1 .8 2 1.6 2.8 2.4l-1 1c-.9-.9-1.8-1.7-2.7-2.5zm12.5-1.2h1.2v1.4h2.7v1.1h-2.7v2.7h-1.2v-.6h-1.8v1.3h4.9v3.8h-1.2v-.5h-3.7c0 .4-.1.9-.1 1.2h5.1v1h-5.2c0 .5-.1.9-.2 1.2h6v1h-5.2c1.1 1.3 2.9 2 5.5 2.2-.4.4-.7.8-.9 1.3-2.9-.5-4.8-1.6-5.7-3.5h-.1c-.8 1.7-2.7 2.9-5.9 3.6-.2-.4-.6-.8-.9-1.1 2.8-.6 4.6-1.4 5.4-2.5h-4.8v-1h5.3c.1-.3.2-.7.2-1.2h-4.9v-1h5c0-.4 0-.8.1-1.2h-3.5v.5h-1.2v-3.8h4.9v-1.3h-1.8v.5h-1.2v-2.7h-2.7v-1h2.6v-1.4h1.2v1.4h4.7v-1.4zm-6.6 8.3h3.6c0-.4 0-.9 0-1.4h-3.6zm1.9-4.6h4.7v-1.3h-4.7zm6.6 3.2h-3.7v1.4h3.7z" fill="#fafafb"/><path d="m385.3 3.8h1.3v2.2h2.8v-2.2h1.3v2.2h4.1v9.1h1.7v1.3h-16.9v-1.3h1.7v-9.1h4.1v-2.2zm.4 13.1.7 1.2c-1.8.9-3.8 1.9-6 2.9-.2-.4-.5-.8-.8-1.3 2.3-1 4.3-1.9 6.1-2.8zm-3.1-6.4h2.8v-3.2h-2.8zm0 4.6h2.8v-3.3h-2.8zm4-4.6h2.8v-3.2h-2.8zm0 4.6h2.8v-3.3h-2.8zm3.7 1.9c2.1.9 4.1 1.8 6.1 2.7l-.7 1.3c-2.2-1.1-4.2-2-6.1-2.9zm3.2-9.7h-2.8v3.2h2.8zm-2.8 7.8h2.8v-3.3h-2.8z" fill="#fafafb"/></svg>