<svg enable-background="new 0 0 400 400" viewBox="0 0 400 400" xmlns="http://www.w3.org/2000/svg"><path d="m362.1 8.8c1.1.8 2.1 1.6 3.1 2.4l-1 1.1c-1.3-1.1-2.3-2-3-2.5zm1.9 4.8c.5.2.9.4 1.4.5-.6 2.3-1.3 4.5-1.9 6.8l-1.5-.5c.8-2.1 1.4-4.3 2-6.8zm-1-9.4c1.3.9 2.4 1.8 3.4 2.5l-1 1.1c-1.4-1.2-2.4-2.1-3.2-2.6zm3.7 2.2v-1.4h10.3v1.2c-.5 3.6-1.8 6.8-4 9.4 1.5 1.6 3.4 2.8 5.7 3.8-.3.4-.7.8-1.1 1.4-2.3-1.1-4.1-2.5-5.6-4.1-1.6 1.6-3.6 3.1-5.9 4.3-.3-.5-.7-.9-1-1.3 2.4-1.1 4.4-2.5 6-4.1-1.9-2.5-3-5.6-3.3-9.3h-1.1zm8.8 0h-6.4c.3 3.3 1.3 6 3 8.2 2-2.3 3.1-5.1 3.4-8.2z" fill="#fbfcfa"/><path d="m385.3 3.8h1.3v2.2h2.8v-2.2h1.3v2.2h4.1v9.1h1.7v1.3h-16.9v-1.3h1.7v-9.1h4.1v-2.2zm.4 13.1.7 1.2c-1.8.9-3.8 1.9-6 2.9-.2-.4-.5-.8-.8-1.3 2.3-1 4.3-1.9 6.1-2.8zm-3.1-6.4h2.8v-3.2h-2.8zm0 4.6h2.8v-3.3h-2.8zm4-4.6h2.8v-3.2h-2.8zm0 4.6h2.8v-3.3h-2.8zm3.7 1.9c2.1.9 4.1 1.8 6.1 2.7l-.7 1.3c-2.2-1.1-4.2-2-6.1-2.9zm3.2-9.7h-2.8v3.2h2.8zm-2.8 7.8h2.8v-3.3h-2.8z" fill="#fbfcfa"/><path d="m226.1 364.09c1.55-2.24 2.67-3.86 3.73-5.39-.51-.54-.65-.82-.78-.81-4.86.34-7.06-2.19-7.74-6.76-1.73-11.5-3.84-22.95-5.26-34.49-.51-4.18 1.32-8.69.6-12.79-.83-4.74 2.76-6.5 4.09-9.71.35-.05.69-.11 1.04-.16 1.6 3.59 3.81 7.04 4.68 10.8 1.88 8.13 3.21 16.39 4.47 24.65.6 3.89 1.84 7.82.21 11.89-.37.93 1.04 2.45 1.22 3.75.38 2.71.49 5.45.74 8.5 2.94-.09 5.31-.85 6.6-3.74.29-.66.6-1.67 1.11-1.82 3.4-1.02 4.11-3.65 5.19-6.68 1.31-3.7 3.87-6.98 6.02-10.36 1.83-2.86 2.7-6.48 6.16-8.13.19-.09.24-.56.29-.86 1.05-5.47 2.1-10.93 3.17-16.54-2.97-1.4-6.57-2.57-9.59-4.61-8.5-5.74-17.26-11.27-24.97-17.96-5.95-5.16-12.23-9.69-18.57-14.25-2.28-1.64-4.08-3.99-5.98-6.13-1.59-1.8-3.13-3.29-5.88-2.9-1.12.16-2.37-.58-4.17-1.07.32 1.57.55 2.7.82 4.05-9.64 6.89-19.37 13.86-29.11 20.8-.42.3-.98.62-1.45.59-5.26-.41-9.24 2.73-13.44 5.03-4.73 2.59-9.24 5.6-13.73 8.6-1.71 1.14-3.11 2.77-3.97 3.56 1.5 4.5 2.6 8.32 4.04 11.99 1.65 4.21 3.62 8.29 5.43 12.43.64 1.45 1.61 2.86 1.79 4.37.48 4.04 1.94 7.45 5.28 10.06.56-.81 1.15-1.67 1.73-2.5-2.04-3.06-1.93-3.64 1.3-5.03 3.51-1.52 7.12-2.78 7.45-7.54.06-.81 1.23-1.63 2.02-2.29 1.54-1.29 4.3-2.28 4.56-3.74.87-4.9 5.86-5.27 8.21-8.46 2.44-3.32 5.37-6.28 8.21-9.29 1.3-1.37 2.88-2.47 5.14-4.36.22 2.09.95 3.79.41 4.83-3.62 7.01-7.49 13.89-11.33 20.78-1.11 1.99-2.38 3.89-3.63 5.8-.62.95-1.24 1.94-2.04 2.71-7.8 7.43-17.09 12.81-25.98 18.73-2.31 1.54-7.01.5-8.29-1.94-1.31-2.49-2.3-5.15-3.41-7.75-.12-.29-.03-.72-.22-.91-4.7-4.79-4.58-12.24-9.39-17-.75-.74-.94-2.1-1.27-3.21-2.42-8.12-4.91-16.22-7.12-24.39-.58-2.14-.57-4.57-.28-6.79 1.3-9.75 3.16-19.43 4.08-29.21.4-4.23-.97-8.63-1.57-12.95-.34-2.45-.26-4.67 1.17-6.97 1.07-1.72 1.11-4.06 1.86-6.02 1.14-2.99 1.81-6.49 5.77-6.99 1.31-4.77 2.97-9.22 7.36-12.04.34-.22.64-.55.88-.89 3.68-5.26 6.79-11.07 11.16-15.68 6.51-6.88 10.69-15.22 16.09-22.78.85-1.19 1.96-2.19 2.58-2.88 2.08 1.01 3.73 1.81 5.39 2.61.45-1.05.9-2.11 1.35-3.16-.22-.13-.44-.25-.67-.38-.54.5-1.09 1.01-1.51 1.4-1.34-.65-2.62-1.26-4.19-2.02.42-.74.73-1.67 1.34-2.3 4.04-4.22 6.04-9.39 7.16-14.99 1.55-7.74 4.19-15.04 8-21.98 1.35-2.45 2.13-5.31 2.69-8.09.87-4.33 1.91-8.48 4.51-10.82 0-2.91-.24-4.94.04-6.9 1.38-9.53 2.9-19.04 4.35-28.56.09-.62.25-1.38-.01-1.87-2.53-4.87-1.76-10.15-1.85-15.29-.04-2.29-.69-3.99-2.38-5.56-2.09-1.93-4.12-4.01-5.76-6.32-2.5-3.52-3.18-7.48-1.5-12.22.56.9.82 1.45 1.21 1.91.42.49 1.17 1.36 1.4 1.26 3.13-1.49 4.31 1.21 5.76 2.8 3.47 3.78 8.02 6.72 9.68 11.98.08.27.39.51.65.67 8.9 5.39 12.89 14.68 18.05 22.97 3.52 5.65 6.41 11.7 9.46 17.63.38.74.05 1.84.05 3.59 4.2 3.16 7.49 8.01 7.95 14.47.02.21 0 .46.11.62 1.98 2.78 3.69 5.83 6.05 8.23 2.93 2.98 4.89 6.2 5.92 10.27.6 2.35 2.42 4.37 3.54 6.62 1.12 2.24 1.99 4.6 3.09 6.85.8 1.63 2.04 3.08 2.63 4.77.93 2.67 1.45 5.48 2.22 8.22.36 1.31.53 2.92 1.39 3.79 3.97 4.02 5.16 9.16 6.16 14.37 1.34 7.04 3.89 13.39 9.01 18.62 2.95 3.01 2.64 4.57-1.18 8.61 3.61 2.62 3.82 6.19 3.3 10.36-.28 2.31.93 4.94 1.92 7.24 2.13 4.96 3.06 9.92 2.43 15.39-.45 3.92.41 7.98.44 11.97.05 6.73.33 13.4-2.36 19.97-1.41 3.45-.93 7.65-1.44 11.5-.35 2.6-.93 5.17-1.43 7.74-.16.82-.72 1.69-.57 2.43.89 4.47-1.14 8.29-2.49 12.27-2.45 7.2-4.59 14.53-7.37 21.6-5.4 13.75-14.21 25.24-24.72 35.46-2.52 2.45-5.39 4.53-8.19 6.67-2.42 1.82-6.51.55-7.12-1.55zm-45.87-208.61c.39-2.11.78-4.21 1.22-6.58-1.06.21-1.82.36-2.54.5-.62-1.17-1.16-2.18-1.73-3.26-1.77.97-2.3 2.08-.58 3.33 2.33 1.69 2.69 3.79 1.74 6.34-.16.42-.02.95-.02 1.77.81-.88 1.42-1.54 2.02-2.19.68.9 1.35 1.79 2.5 3.31-1.73 1.61-3.67 3.3-5.45 5.15-.61.63-.78 1.67-1.23 2.47-2.04 3.66-1.6 8.91-6.86 10.56-.84.26-1.9 1.37-1.99 2.19-.4 3.5-3.35 6.22-2.77 10.07.18 1.21-.81 3-1.82 3.9-2.32 2.08-4.99 3.77-7.84 5.86.05.37.78 1.87.31 2.72-2.57 4.75-5.29 9.43-8.28 13.93-.9 1.36-2.77 2.13-4.3 3.01-.47.27-1.74-.22-1.83-.02-1.65 3.82-5.89 5.87-6.67 10.38-.74 4.29-2.1 8.41-6.47 10.76-.88.47-1.08 2.23-1.59 3.39.25.11.51.22.76.32.75-1.18 1.51-2.35 2.52-3.94.88 3.46 1.97 6.35-.25 9.58-1.38 2-1.89 4.6-2.8 6.92-.8 2.03-1.61 4.05-2.63 6.63.25.28 1.05 1.2 1.45 1.66 3.38-2.7 6.15-5.3 9.3-7.33 3.58-2.31 4.1-2 7.09 2.24 1.04-.72 1.95-1.35 2.85-1.97-.42-.47-.83-.94-1.25-1.4-.72.1-1.43.21-3.06.45.95-1.91 1.5-4.26 2.26-4.33 2.61-.25 3.49-2.06 4.77-3.72.51-.66 1.48-.95 2.21-1.45.96-.65 2.2-1.13 2.8-2.03 2.61-3.92 3.79-3.94 6.48.14.28.43.61.82 1.08 1.44 1.07-.71 2.03-1.35 3.02-2.02-1.89-1.12-3.4-2.02-5.15-3.07 1.19-1.47 2.08-3.62 3.17-3.73 2.71-.26 3.7-2.63 5.52-3.81 3.54-2.3 6.64-5.5 9.38-8.77 5.27-6.28 10.05-12.97 15.28-19.29 1.41-1.71 3.61-2.83 5.59-3.99.95-.55 2.22-.55 3.45-.83-2.2-4.96-1.91-5.84 1.6-8.8.84-.71 1.14-2.09 1.58-3.21.33-.83.25-1.96.78-2.57 3.56-4.04 7.48-7.81 9.11-13.2.14-.46.63-.81 1.08-1.36 1.32 1.7 4.26 1.95 3.35 5.12-1.48 5.19-2.7 10.46-4.17 15.65-.29 1.01-1.27 1.81-1.85 2.76-.7 1.13-1.33 2.32-1.99 3.48 1.3.71 2.65 2.1 3.88 2 3.04-.25 4.41 1.3 6.07 3.46 4.65 6.06 7.26 13.76 14.32 17.91.55.33.69 1.29 1.14 1.87 1.6 2.06 3.17 4.15 4.9 6.09 1.4 1.57 3.09 2.89 4.49 4.46.46.51.32 1.52.6 2.24.3.78.61 1.76 1.23 2.16.86.56 2.36.33 2.98 1 2.29 2.47 5.42 3.5 8.11 5.26 4.3 2.8 9.07 5.19 10.81 10.36 2.64-.34 3.84-1.65 3.76-3.89-.39-10.35-.75-20.7-1.32-31.05-.19-3.47-3.43-6.43-1.95-10.32.15-.39-.55-1.08-.8-1.66-.87-2.02-1.59-4.11-2.59-6.06-1.02-1.99-2.01-4.12-3.53-5.69-1.5-1.55-2.54-2.91-2.37-5.17.5-6.45-.62-12.53-3.75-18.32-1.25-2.32-1.43-5.21-2.2-7.8-.23-.76-.79-1.43-1.25-2.11-.94-1.4-2.11-2.68-2.83-4.19-3.97-8.28-7.09-17.06-11.88-24.83-8.44-13.68-15.08-28.17-21.55-42.79-.59-1.34-1.42-2.58-2.19-3.84-2.33-3.86-4.66-7.72-7.05-11.55-1.04-1.68-2.22-3.27-3.33-4.91-.46.15-.93.3-1.39.46 0 2.93-.44 5.93.09 8.76 1.27 6.79.18 13.04-3.26 18.93-.95 1.62-2.08 3.14-3.39 5.08 1 .35 2.43.85 4.09 1.42-2.22 7.09-4.42 14.02-6.56 20.98-.78 2.55-1.4 5.17-5.37 5.3 4.17 2.86 1.13 5.48.64 8.14-.63 3.37-2.29 5.25-6.68 4.06 4.61 3.98 4.61 3.98 2.61 9.14-.34.87-.74 1.71-1.13 2.62-.92-.22-1.7-.46-2.5-.68zm56.07 125.28c5.54-3.57 6.02-3.44 8.96 1.94.25.46.93.72 1.46.98 1.1.55 2.33.89 3.34 1.56 3.09 2.05 6.09 4.23 9.16 6.31 1.64 1.11 6.59.27 7.04-1.39 1.54-5.7 2.95-11.44 4.11-17.23.46-2.3-.91-4.05-2.87-5.57-5.01-3.88-10.22-7.63-14.56-12.19-5.8-6.1-11.79-11.84-18.7-16.65-1.7-1.18-3.09-2.84-4.49-4.4-2.68-2.99-5.2-6.12-7.91-9.08-3.85-4.22-7.78-8.36-11.74-12.47-1.66-1.72-3.5-3.28-5.36-5-1.1 1.29-1.92 2.26-2.74 3.22-7.94 9.35-15.2 19.28-25.2 26.77-9.3 6.97-18.31 14.36-27.16 21.91-2.84 2.42-5.16 4.16-8.72 1.87-.13-.08-.4.06-.6.11-3.49 5.2-6.38 6.35-10.98 4.39-3.94 2.43-1.1 6.86-2.61 10.02-1.78-.55-1.34-4.4-3.56-2.82 1.99 4.22 3.65 8.28 5.81 12.05 1.01 1.77 2.84 3.23 4.59 4.38 1.46.96 3.34 1.26 5.04 1.85-1.03-6.17 4.44-6.64 7.97-8.31 3.73-1.76 7.36-4.6 11.16-3.7 3.24-2.99 5.79-6.24 9.1-8.17 4.14-2.41 6.36-6.61 10.68-9.09 5.59-3.22 9.71-8.99 14.45-13.68 1.98-1.95 6.1-1.37 8.35-.26 2.53 1.26 5.34 1.8 6.92 4.47.05.08.44-.09.61-.02.91.39 1.97.64 2.65 1.28 1.71 1.58 3.22 3.37 4.85 5.04 2.64 2.69 4.81 5.85 8.83 6.93 6.8 1.82 9.04 8.16 12.48 13.26.2.26-.18.92-.36 1.69zm-104.95-51.64c-1.02-4.83 2.5-6.33 5.63-7.81-.96-1.67-1.81-3.13-2.61-4.51-.84 1.67-1.34 3.46-2.44 4.73-2.36 2.7-5.06 5.1-7.53 7.7-.35.37-.47 1.52-.19 1.79.38.37 1.33.5 1.89.31 1.77-.62 3.47-1.45 5.25-2.21zm-6.83 12.74c.86-2.75 3.92-4.77.71-7.13-2.31-1.7-4.28.6-4.88 1.92-1.58 3.53 2.52 3.22 4.17 5.21zm11.07-27.29c6.18-2.15 6.71-2.99 4.53-7.66-1.53 2.6-2.95 5-4.53 7.66zm44.84 10.73c5.68-1.96 5.68-1.96 5.65-3.31-1.23-.1-2.4-.2-3.74-.31-.53 1.01-1.14 2.17-1.91 3.62zm-34.76-16.99c-.56.04-1.13.09-1.69.13.17 1.9.34 3.8.51 5.69.56-.04 1.11-.09 1.67-.13-.16-1.89-.32-3.79-.49-5.69z" fill="#010101"/></svg>