<svg enable-background="new 0 0 400 400" viewBox="0 0 400 400" xmlns="http://www.w3.org/2000/svg"><path d="m362.1 8.8c1.1.8 2.1 1.6 3.1 2.4l-1 1.1c-1.3-1.1-2.3-2-3-2.5zm1.9 4.8c.5.2.9.4 1.4.5-.6 2.3-1.3 4.5-1.9 6.8l-1.5-.5c.8-2.1 1.4-4.3 2-6.8zm-1-9.4c1.3.9 2.4 1.8 3.4 2.5l-1 1.1c-1.4-1.2-2.4-2.1-3.2-2.6zm3.7 2.2v-1.4h10.3v1.2c-.5 3.6-1.8 6.8-4 9.4 1.5 1.6 3.4 2.8 5.7 3.8-.3.4-.7.8-1.1 1.4-2.3-1.1-4.1-2.5-5.6-4.1-1.6 1.6-3.6 3.1-5.9 4.3-.3-.5-.7-.9-1-1.3 2.4-1.1 4.4-2.5 6-4.1-1.9-2.5-3-5.6-3.3-9.3h-1.1zm8.8 0h-6.4c.3 3.3 1.3 6 3 8.2 2-2.3 3.1-5.1 3.4-8.2z" fill="#fbfcfa"/><path d="m385.3 3.8h1.3v2.2h2.8v-2.2h1.3v2.2h4.1v9.1h1.7v1.3h-16.9v-1.3h1.7v-9.1h4.1v-2.2zm.4 13.1.7 1.2c-1.8.9-3.8 1.9-6 2.9-.2-.4-.5-.8-.8-1.3 2.3-1 4.3-1.9 6.1-2.8zm-3.1-6.4h2.8v-3.2h-2.8zm0 4.6h2.8v-3.3h-2.8zm4-4.6h2.8v-3.2h-2.8zm0 4.6h2.8v-3.3h-2.8zm3.7 1.9c2.1.9 4.1 1.8 6.1 2.7l-.7 1.3c-2.2-1.1-4.2-2-6.1-2.9zm3.2-9.7h-2.8v3.2h2.8zm-2.8 7.8h2.8v-3.3h-2.8z" fill="#fbfcfa"/><path d="m200.02 188.33c3.22-4.51 3.61-9.12 2.58-13.79-1.85-8.36-4.69-16.57-5.83-25.02-1.86-13.74-2.7-27.63-3.95-41.45-1.46-16.26-2.86-32.52-4.41-48.77-.1-1.1-1.05-2.48-2-3.07-5.43-3.32-11.43-3.44-17.54-2.71-6.44.77-11.36-1.75-13.65-7.03 8.94-5.95 18.75-8.89 29.53-9.2 7.5-.22 14.96-1.44 22.46-1.79 4.69-.22 9.45.09 14.13.64 6.1.71 12.11 2.28 18.21 2.69 3.45.23 6.98-1.31 10.52-1.66 1.98-.2 4.15.12 6.01.8.74.27 1.55 2.34 1.25 3.23-4.55 13.67-6.21 27.86-8.08 42.04-.36 2.76-1.58 5.5-2.82 8.03-6.08 12.37-9.25 25.64-12.25 38.97-.28 1.23-.44 2.62-1.14 3.6-6.93 9.82-8.53 21.29-10.2 32.73-.49 3.35-.8 6.75-.78 10.13.01 1.76.92 3.52 1.57 5.78 9.2-6.89 16.93-14.25 28.32-17.78-3.59 7.98-4.07 16.12-8.99 22.63-.32.42-.71.82-.93 1.29-4.52 9.43-11.97 16.36-19.7 23.02-1.91 1.65-2.61 3.5-2.9 5.99-2.14 18.4-4.56 36.78-6.69 55.18-.47 4.06-.39 8.24-.12 12.33.27 3.98 1.73 5.71 5.66 5.85 4.29.14 8.62-.63 12.91-1.17.65-.08 1.27-1.01 1.78-1.65 4.55-5.77 6.15-12.68 7.56-19.66 1.29-6.4 4.57-11.54 10.03-15.52 3.14 3 4.72 6.8 5.05 10.94 1.08 13.61 2.06 27.24 2.82 40.87.79 14.07-1.6 27.66-7.12 40.64-.68 1.6-2.05 2.9-3.02 4.39-7.48 11.48-19.18 14.5-31.7 15.75-13.73 1.38-27.55 2.19-41.2-.12-7.11-1.2-13.92-4.18-20.82-6.48-.78-.26-1.29-1.33-1.91-2.04-6.34-7.33-8.63-16.08-9.87-25.52-1.87-14.27-5.73-28.32-5.24-42.83.36-10.78 1.41-21.54 2.54-32.27.31-2.93.08-6.87 4.72-7.81 2.72 4.67 3.9 9.65 3.79 15.07-.1 4.96.02 9.93.32 14.88.28 4.79 3.13 7.91 7.3 10 6.81 3.43 14.19 4.22 21.61 4.42 3.99.11 8.07-.22 11.98-.99 6.24-1.22 8.73-4.45 8.79-10.83.03-2.95-.59-5.91-.6-8.87-.03-8.25.06-16.5.18-24.75.07-5.3.42-10.59.35-15.89-.08-6.17-1.71-11.56-5.35-17.06-11.57-17.51-18.75-36.92-21.8-57.76-.14-.92-.02-1.89-.02-3.89 2.16 1.58 4.23 2.48 5.42 4.05 7.09 9.39 13.98 18.93 20.94 28.41.67.95 1.39 1.85 2.3 3.03zm-46.03 121.84c-.11 6.36-.59 12.27-.23 18.13.45 7.45 3.75 12.47 12.09 13.68 10.13 1.47 20.05 4.43 30.19 5.74 7.52.97 15.3.28 22.52-2.61 5.79-2.32 11.35-5.22 17.1-7.65 2.11-.89 2.92-2.3 2.92-4.34.01-4.03.28-8.09-.19-12.07-.59-5.01-1.67-9.99-2.83-14.91-.54-2.29-2.08-3.82-4.88-3.43-8.37 1.19-16.76 2.25-25.14 3.42-9.32 1.31-18.6 3.08-27.96 3.89-7.46.66-15.01.15-23.59.15zm46.12-258.28c0 3.64-.3 6.84.05 9.96 2.5 22.41 5.12 44.81 7.76 67.2.41 3.48 1.43 6.78 4.17 9.47 6.65-6.09 9.45-13.87 10.61-22.3 1.52-11.11 3.9-21.82 10.23-31.41 2.04-3.1 3.25-6.94 4.05-10.61 1.33-6.17 2.49-12.45 2.84-18.74.28-4.96-3.41-8.48-7.51-7.98-10.72 1.33-21.4 2.92-32.2 4.41z" fill="#010101"/></svg>