<svg enable-background="new 0 0 400 400" viewBox="0 0 400 400" xmlns="http://www.w3.org/2000/svg"><path d="m378.6 9.2.8-1c.9.7 1.9 1.4 2.9 2.3l-.9 1.1c-1.1-.9-2-1.7-2.8-2.4zm.5 10.7c.9-2.1 1.6-4.3 2.3-6.7.4.2.8.4 1.3.6-.7 2.1-1.5 4.3-2.2 6.6zm.4-15.2.9-.9c1 .8 2 1.6 2.8 2.4l-1 1c-1-.9-1.9-1.8-2.7-2.5zm12.5-1.3h1.2v1.4h2.7v1.1h-2.7v2.7h-1.2v-.5h-1.8v1.3h4.9v3.8h-1.2v-.5h-3.7c0 .4-.1.9-.1 1.2h5.1v1h-5.2c0 .5-.1.9-.2 1.2h6v1h-5.2c1.1 1.3 2.9 2 5.5 2.2-.4.4-.7.8-.9 1.3-2.9-.5-4.8-1.6-5.7-3.5h-.1c-.8 1.7-2.7 2.9-5.9 3.6-.2-.4-.6-.8-.9-1.1 2.8-.6 4.6-1.4 5.4-2.5h-4.8v-1h5.3c.1-.3.2-.7.2-1.2h-4.9v-1h5c0-.4 0-.8.1-1.2h-3.6v.5h-1.2v-3.8h4.9v-1.3h-1.8v.5h-1.2v-2.7h-2.6v-1.1h2.6v-1.4h1.2v1.4h4.7v-1.4zm-6.7 8.4h3.6c0-.4 0-.9 0-1.4h-3.6zm1.9-4.7h4.7v-1.2h-4.7zm6.7 3.3h-3.7v1.4h3.7z" fill="#fafbfc"/><path d="m384.7 21.4h1.3v2.2h2.8v-2.2h1.3v2.2h4.1v9.1h1.7v1.3h-16.9v-1.3h1.7v-9.1h4.1v-2.2zm.3 13.2.7 1.2c-1.8.9-3.8 1.9-6 2.9-.2-.4-.5-.8-.8-1.3 2.4-1 4.4-2 6.1-2.8zm-3.1-6.5h2.8v-3.2h-2.8zm0 4.6h2.8v-3.3h-2.8zm4.1-4.6h2.8v-3.2h-2.8zm0 4.6h2.8v-3.3h-2.8zm3.6 1.9c2.1.9 4.1 1.8 6.1 2.7l-.7 1.3c-2.2-1.1-4.2-2-6.1-2.9zm3.3-9.7h-2.8v3.2h2.8zm-2.8 7.8h2.8v-3.3h-2.8z" fill="#fafbfc"/><g fill="#010104"><path d="m233.78 281.23c-5.34-3.72-7.15-11.29-4.05-16.96.47-.86 1.99-1.34 3.12-1.61 6.66-1.57 6.96-1.35 10.22 4.78 1.99 3.73 2.33 7.64 1.8 11.73-.21 1.58-.28 3.17-.54 4.74-.74 4.44.07 8.31 3.54 11.52.8.74 1.45 2.26 1.31 3.31-1.78 13.21.54 26.21 1.83 39.27.79 7.96.98 15.87-1.99 23.53-1.75 4.51-6.11 6.15-10.25 3.68-4.31-2.57-8.85-3.7-13.64-1.75-9.44 3.84-18.99 2.66-28.71 1.38-6.13-.81-12.42-.59-18.63-.54-2.27.01-3.84-.48-5.63-2.01-4.58-3.93-7.56-8.27-6.99-14.68.49-5.59-2.54-10.32-5.29-14.7-4.96-7.88-4.4-16.62-5.11-25.18-.72-8.66-1.2-17.34-1.7-26.02-.06-.98.08-2.21.64-2.93 2.67-3.48 2.66-7.22 1.55-11.18-1.87-6.69-.13-10.91 5.94-14.3.63-.35 1.66-.62 2.25-.35 5.96 2.66 12.72 7.6 10.59 17.57-.97 4.53-1.1 9.24-1.65 13.86-.29 2.43.76 3.85 3.11 4.26 5.83 1.01 11.64 2.32 17.52 2.87 8.86.82 17.76 1.05 26.65 1.62 2.54.16 4.4-.59 6.03-2.62 2.52-3.22 5.34-6.2 8.08-9.29zm-61.25 17.43c-.43 11.06-.54 21.03-1.32 30.94-.39 4.87.63 8.35 5.08 10.65 2.12 1.09 3.93 3.12 6.14 3.66 8.52 2.09 17.16 3.65 25.71 5.59 7.62 1.73 14.9 1.28 21.9-2.4 1.51-.79 2.05-1.64 1.75-3.48-1.64-10.14-3.16-20.29-4.58-30.46-.3-2.12-1.45-2.09-3.05-2.19-10.23-.64-20.46-1.39-30.69-2.05-4.01-.26-7.46-1.53-10.68-4.12-2.9-2.31-6.41-3.88-10.26-6.14z"/><path d="m123.09 255.29c-4.33-4.88-4.39-6.6-2.36-11.2 1.74-3.94 3.21-8.04 4.38-12.19 4.43-15.67 8.69-31.4 13.03-47.1.14-.51.25-1.09.57-1.47 5.07-6.08 10.16-12.14 15.26-18.19 1.42-1.69 2.78-1.35 4.32-.01 3.21 2.79 4.78 6.53 4.47 10.46-.63 7.99-1.86 15.93-3.09 23.86-.19 1.22-1.46 2.59-2.6 3.28-3.04 1.83-5.14 4.21-6.34 7.57-.85 2.38-2.22 4.58-3.11 6.95-2.07 5.57-5.39 10.2-9.64 14.34-1.67 1.62-2.82 3.88-3.85 6.03-1.69 3.52-2.74 7.4-4.72 10.73-1.53 2.57-4.08 4.55-6.32 6.94z"/><path d="m224.99 141.6c7.21 3.63 12.39 8.15 16.78 13.49 14.33 17.46 24.92 37 31.65 58.57 1.12 3.6 1.57 7.41 2.31 11.03-5.59 2.5-6.5 2.31-9.78-2-10.16-13.3-20.45-26.5-30.39-39.97-6.24-8.45-10.62-17.86-11.13-28.59-.19-3.97.33-7.97.56-12.53z"/><path d="m236.45 34.73c2.32 1.67 5.13 2.93 6.88 5.07 11.3 13.88 22.36 27.95 33.49 41.97.45.57.92 1.22 1.1 1.9 1.17 4.55 2.27 9.13 3.48 14.09-1.32 1.41-3.44 1.84-5.55.44-6.78-4.48-13.49-9.08-20.17-13.71-.62-.43-.96-1.36-1.25-2.12-.83-2.17-1.72-4.34-2.32-6.58-1.36-5.01-3.93-8.86-7.9-12.5-8-7.32-9.5-17.25-8.82-27.58.36-.33.71-.66 1.06-.98z"/><path d="m141.9 57.16c6.03 6.22 6.89 12.19 1.95 19.6-6.09 9.14-10.45 19.05-14.77 29.06-1.48 3.42-3.72 6.65-6.18 9.47-2.52 2.89-6.08 4.09-10.32 3.29 3.75-10.45 7.46-20.78 11.17-31.1.36-.99.78-1.97 1.05-2.99.46-1.68 1.26-2.57 3.22-2.8 3.07-.37 4.86-2.3 5.01-5.56.44-8.91 2.23-12.75 8.87-18.97z"/></g></svg>