<svg enable-background="new 0 0 400 400" viewBox="0 0 400 400" xmlns="http://www.w3.org/2000/svg"><path d="m283.02 354.46c-.19 6.06-4.18 4.95-7.56 4.89-10.06-.18-20.13-.71-30.19-.53-10.15.18-20.3 1.63-30.44 1.46-11.93-.21-23.66.86-35.45 2.41-5.91.77-12.03-.15-18.06-.23-15.9-.23-31.79-.4-47.69-.69-1.51-.03-3-.74-3.75-.94-3.35.62-6.21 1.6-9.08 1.6-8.25.01-16.5-.39-24.75-.6-2.33-.06-4.67-.02-7-.01-4.73.03-9.25-.06-13.82-2.3-3.67-1.81-8.18-1.9-12.32-2.76-5.43-1.13-9.06-4.24-11.02-10.45 4-.55 7.68-1.34 11.38-1.52 13.85-.67 27.71-1.05 41.55-1.73 11.64-.57 23.26-1.41 34.9-2.09.79-.05 1.94.04 2.34.53 2.18 2.65 4.69 1.8 6.88.51 4.97-2.92 10.06-3.22 15.61-2.12 6.32 1.25 12.37-4.42 12.12-10.89-.22-5.61-.88-11.26-.54-16.84.45-7.15 1.54-14.27 2.66-21.35 2.41-15.2 4.33-30.42 4.12-45.86-.03-1.96-.55-3.44-2.32-4-3.29-1.05-6.64-1.96-10.02-2.69-10.44-2.26-20.94-4.21-31.33-6.68-5.53-1.32-10.95-3.22-16.23-5.35-1.95-.79-4.14-2.68-4.82-4.57-2.75-7.63-5.54-15.35-7.13-23.27-.92-4.6.3-9.66.82-14.49.12-1.1 1.3-2.09 2.22-3.47-5.26-2.56-4.48-7.21-3.95-11.96 2.29-20.3 1.13-40.65.75-61-.13-6.8 1.33-13.65 2.24-20.46.83-6.19 1.82-12.37 2.94-18.51.32-1.75 1.44-3.35 2.05-5.07.31-.87.7-2.11.32-2.76-1.45-2.5-1.29-4.57.85-6.53 2.18-2.01 3.21-4.25 2.21-7.39-.26-.81 1.34-2.22 2.23-3.59 2.13 2 2.82 3.47 1.85 5.6-.33.72-.23 2 .22 2.65 3.88 5.67 7.89 11.26 12.02 17.11 2.4-1.17 4.79-2.07 6.87-3.43 2.27-1.49 4.56-2.12 7.18-1.61 10.62 2.04 21.08.71 31.49-1.55.9-.2 2.03-.5 2.77-.15 5.78 2.72 12.03 2.11 18.1 2.72 18.13 1.82 36.26 3.66 54.39 5.47 12.37 1.24 24.75 1.46 37.12.06 3.95-.45 7.75-.53 11.54.98 6.44 2.57 13.21 1.11 19.84 1.33 6.66.22 7.01-.02 6.94-6.76-.06-6.03-.87-12.04-1.24-18.07-.15-2.53-.03-5.07-.03-8.14 1.34 1.04 2.45 2.06 3.71 2.84 1.58.98 3.36 1.66 4.91 2.68.97.64 2.23 1.59 2.4 2.57 1.45 8.56 2.68 17.16 4 25.75.18 1.15.26 2.39.77 3.4 5.63 11.23 6.24 23.66 8.65 35.66.65 3.22 1.13 6.48 1.47 9.74.28 2.72 1.58 4.39 4.02 5.57.78.38 1.72 2.17 1.43 2.74-5.48 10.89-3.09 22.7-4.21 34.08-1.03 10.43-2.35 20.83-3.36 31.25-.35 3.66-.41 7.39-.17 11.06.28 4.25-.54 7.97-3.57 11.08-1.55 1.6-3.1 3.21-4.51 4.93-3.02 3.7-6.12 6.26-11.62 6.1-3.47-.1-6.96 2.8-10.57 3.98-2.95.97-6.07 1.9-9.12 1.95-4.72.08-9.2.69-13.7 2.17-3.9 1.28-8.01 1.96-12.05 2.76-4.15.82-4.74 2-3.22 5.92.54 1.39.71 3.16.38 4.6-2.56 11.06-1.2 22.14-.36 33.21 1.21 15.85 2.49 31.7 3.69 47.56.38 5 .31 5 5.22 5.97 3.22.64 6.44 1.27 9.65 1.98.9.2 2.03.44 2.56 1.08 2.64 3.2 5.97 3.15 9.7 2.79 15.61-1.52 31.24-2.82 46.86-4.19 1.16-.1 2.68-.69 3.42-.17 3.74 2.63 7.64 2.33 11.84.83.81 3.19 1.53 6.02 2.34 9.23-4.38.57-8.55 1.14-12.73 1.62-.46.05-1.03-.25-1.45-.54-7.41-5.08-15.14-4.14-23.14-1.6-6.93 2.2-13.98 4.06-21.04 5.82-2.22.55-4.64.2-6.96.42-1.66.16-3.41.29-4.91.94-3.29 1.44-6.47 2.67-10.11-.69zm-107.1-216.24c.02.27.05.55.07.82.8-.64 1.57-1.79 2.41-1.84 3.68-.22 7.41-.5 10.7 1.95.72.54 2.2.78 2.97.41 6-2.88 12.16-3 18.62-1.96 6.04.98 12.24 2 18.16-.56 2.48-1.07 4.76-1.53 7.32-.56.72.27 2.02.49 2.35.12 2.97-3.36 6.97-2.69 10.6-2.51 6.33.31 12.76.65 18.91 2.04 6.11 1.38 12.86-1.86 18.45 2.77.6.5 1.85.29 2.8.28 2.76-.03 5.52-.3 8.26-.15 3.71.2 7.41.71 11.07 1.08-.36 5.65-1.38 6.72-5.79 7.73-6.59 1.51-13.26 2.86-19.66 4.97-6.09 2.01-12.1 2.8-18.39 1.8-.94-.15-1.9-.16-2.85-.22-8.02-.55-16.03-1.18-24.06-1.59-1.73-.09-3.64.28-5.22 1-4.77 2.17-9.1 1.65-13.31-1.35-.61-.43-1.69-.44-2.5-.3-3.86.68-7.68 1.6-11.56 2.18-2.92.44-5.95.23-8.84.77-4.44.83-8.61.76-11.29-1.45-3.25.82-5.55 1.58-7.9 1.93-2.29.34-4.65.39-6.98.33-8.3-.21-17.25 1.82-23.13-6.75-2.24 1.68-4.1 3.99-6.35 4.5-2.33.53-5.05-.73-7.61-1.15-5.08-.84-9.86-2.04-13.51-6.26-.96-1.11-3.54-1.44-5.2-1.15-2.16.39-1.95 2.63-1.95 4.47.02 15.27.4 30.56-.16 45.81-.26 7.03 1.72 11.58 7.4 15.9 5.96 4.53 11.72 8.19 19.35 9.1 10.57 1.26 20.83 5.03 31.72 3.9 2.62-.27 5.32-.5 7.91-.16 19.26 2.51 38.49 1.83 57.72-.16 6.5-.67 12.91-2.28 19.55-.69 2.12.51 4.65.17 6.77-.5 2.65-.83 5-1.07 7.67-.07 1.12.42 2.74-.19 4.04-.62 1.65-.55 3.15-1.65 4.82-2.05 3.18-.77 6.43-1.34 9.68-1.79 7.57-1.07 15.12-3.59 22.93-.35.22-.81.41-1.49.6-2.18 1.24-4.69 2.24-9.47 3.79-14.05 1.59-4.71 3.95-9.22.95-13.38 1.14-2.44 2.45-4.27 2.84-6.29.57-2.92.48-5.98.73-9.95-1.5-1.38-1.83-4-.68-7.17.62-1.71.51-3.78.36-5.66-1.61-20.61-3.25-41.21-4.98-61.81-.31-3.68-1.06-7.32-1.63-10.97-.35-2.25-1.48-3.1-3.93-2.86-9.38.93-18.82 1.41-28.18 2.49-7.97.92-15.75 1-23.63-.95-4.44-1.1-9.15-1.13-13.76-1.43-5.89-.38-11.86-.11-17.68-.92-5.88-.82-11.65-2.09-17.62-.97-5.24.99-10.32.55-15.13-2.01-.68-.36-1.64-.31-2.45-.26-11.22.72-22.4 1.72-33.28 4.77-2.63.74-4.97.54-7.25-.91-2.31-1.47-4.5-1.68-7.03-.15-1.34.81-3.27 1.06-4.88.93-6.33-.5-12.65-1.17-18.95-1.93-3.66-.44-6.54.71-8.3 3.87-1.64 2.94-2.43 6.13-.3 9.29 2.95 4.38 2.78 9.1 1.88 14.06-.77 4.24-1.27 8.57-1.39 12.88-.13 4.43.32 8.87.54 13.31.03.7.19 1.4.31 2.26 8.33 0 16.48-.05 24.64.03 2.85.03 5.66.32 5.77-4.44.68 1.17.98 1.59 1.18 2.06 2.07 4.77 2.8 5.08 7.84 3.86 1.5-.36 3.42-.89 4.62-.29 3.28 1.65 6.34.63 9.53.15 3.13-.46 6.31-.7 9.48-1.05zm20.99 97.78c-.61 4.84-3.11 5.94-6.96 4.81-.1-.03-.23-.04-.31.01-1.28.64-2.56 1.3-3.83 1.95.91 1.26 1.77 2.56 2.73 3.78.53.67 1.73 1.16 1.78 1.79.54 6.63 1.7 13.34 1.13 19.9-.85 9.79-2.87 19.48-4.56 29.18-1.78 10.18-4.45 20.02-10.79 28.54-2.51 3.37-.96 9.21 2.99 10.88 3.13 1.32 6.7 2.28 10.07 2.28 14.19-.01 28.41-.13 42.57-.89 5.75-.31 9.49.99 11.3 6.58.05.16.3.25.61.51.84-.68 1.7-1.38 2.57-2.09-.97-1.19-1.76-2.16-2.72-3.34 1.04-.77 1.88-1.59 2.88-2.09 4.47-2.24 5.87-5.89 5.73-10.72-.23-7.71-.06-15.43-.06-23.76 1.45.98 2.08 1.42 3.43 2.33-.42-1.26-.43-1.88-.71-2.06-2.7-1.72-3.01-4.44-3.17-7.24-.91-16.4-1.83-32.8-2.7-49.21-.27-5.1-.99-5.81-6.19-5.51-.94.05-1.87.44-2.8.47-3.75.13-7.5.2-11.25.25-2.29.03-5.05-.84-6.76.15-2.59 1.51-4.88 1.46-7.52 1.06-2.51-.38-5.05-.61-7.58-.82-4.35-.38-8.92-.34-9.88-6.74zm-67.32-162c2.76-.87 5.37-1.74 8.01-2.5 1.91-.55 2.32-1.48 1.01-3.35-3.73 3.95-5.55-1.18-8.33-1.65-3.52 3.63-3.52 3.63-.69 7.5zm20.01.61c2.77.47 5.44 1.73 7.3-2.29-2.1-.87-4.09-1.69-6.29-2.6-.36 1.73-.65 3.15-1.01 4.89z" fill="#010000"/><g fill="#fafafb"><path d="m361.2 9.6.8-1c.9.7 1.9 1.4 2.9 2.3l-.9 1.1c-1-1-2-1.8-2.8-2.4zm.5 10.6c.9-2.1 1.6-4.3 2.3-6.7.4.2.8.4 1.3.6-.7 2.1-1.5 4.3-2.2 6.6zm.4-15.2.9-.9c1 .8 2 1.6 2.8 2.4l-1 1c-.9-.9-1.8-1.7-2.7-2.5zm12.5-1.2h1.2v1.4h2.7v1.1h-2.7v2.7h-1.2v-.6h-1.8v1.3h4.9v3.8h-1.2v-.5h-3.7c0 .4-.1.9-.1 1.2h5.1v1h-5.2c0 .5-.1.9-.2 1.2h6v1h-5.2c1.1 1.3 2.9 2 5.5 2.2-.4.4-.7.8-.9 1.3-2.9-.5-4.8-1.6-5.7-3.5h-.1c-.8 1.7-2.7 2.9-5.9 3.6-.2-.4-.6-.8-.9-1.1 2.8-.6 4.6-1.4 5.4-2.5h-4.8v-1h5.3c.1-.3.2-.7.2-1.2h-4.9v-1h5c0-.4 0-.8.1-1.2h-3.5v.5h-1.2v-3.8h4.9v-1.3h-1.8v.5h-1.2v-2.7h-2.7v-1h2.6v-1.4h1.2v1.4h4.7v-1.4zm-6.6 8.3h3.6c0-.4 0-.9 0-1.4h-3.6zm1.9-4.6h4.7v-1.3h-4.7zm6.6 3.2h-3.7v1.4h3.7z"/><path d="m385.3 3.8h1.3v2.2h2.8v-2.2h1.3v2.2h4.1v9.1h1.7v1.3h-16.9v-1.3h1.7v-9.1h4.1v-2.2zm.4 13.1.7 1.2c-1.8.9-3.8 1.9-6 2.9-.2-.4-.5-.8-.8-1.3 2.3-1 4.3-1.9 6.1-2.8zm-3.1-6.4h2.8v-3.2h-2.8zm0 4.6h2.8v-3.3h-2.8zm4-4.6h2.8v-3.2h-2.8zm0 4.6h2.8v-3.3h-2.8zm3.7 1.9c2.1.9 4.1 1.8 6.1 2.7l-.7 1.3c-2.2-1.1-4.2-2-6.1-2.9zm3.2-9.7h-2.8v3.2h2.8zm-2.8 7.8h2.8v-3.3h-2.8z"/></g></svg>