<svg enable-background="new 0 0 400 400" viewBox="0 0 400 400" xmlns="http://www.w3.org/2000/svg"><path d="m378.6 9.2.8-1c.9.7 1.9 1.4 2.9 2.3l-.9 1.1c-1.1-.9-2-1.7-2.8-2.4zm.5 10.7c.9-2.1 1.6-4.3 2.3-6.7.4.2.8.4 1.3.6-.7 2.1-1.5 4.3-2.2 6.6zm.4-15.2.9-.9c1 .8 2 1.6 2.8 2.4l-1 1c-1-.9-1.9-1.8-2.7-2.5zm12.5-1.3h1.2v1.4h2.7v1.1h-2.7v2.7h-1.2v-.5h-1.8v1.3h4.9v3.8h-1.2v-.5h-3.7c0 .4-.1.9-.1 1.2h5.1v1h-5.2c0 .5-.1.9-.2 1.2h6v1h-5.2c1.1 1.3 2.9 2 5.5 2.2-.4.4-.7.8-.9 1.3-2.9-.5-4.8-1.6-5.7-3.5h-.1c-.8 1.7-2.7 2.9-5.9 3.6-.2-.4-.6-.8-.9-1.1 2.8-.6 4.6-1.4 5.4-2.5h-4.8v-1h5.3c.1-.3.2-.7.2-1.2h-4.9v-1h5c0-.4 0-.8.1-1.2h-3.6v.5h-1.2v-3.8h4.9v-1.3h-1.8v.5h-1.2v-2.7h-2.6v-1.1h2.6v-1.4h1.2v1.4h4.7v-1.4zm-6.7 8.4h3.6c0-.4 0-.9 0-1.4h-3.6zm1.9-4.7h4.7v-1.2h-4.7zm6.7 3.3h-3.7v1.4h3.7z" fill="#fafbfc"/><path d="m384.7 21.4h1.3v2.2h2.8v-2.2h1.3v2.2h4.1v9.1h1.7v1.3h-16.9v-1.3h1.7v-9.1h4.1v-2.2zm.3 13.2.7 1.2c-1.8.9-3.8 1.9-6 2.9-.2-.4-.5-.8-.8-1.3 2.4-1 4.4-2 6.1-2.8zm-3.1-6.5h2.8v-3.2h-2.8zm0 4.6h2.8v-3.3h-2.8zm4.1-4.6h2.8v-3.2h-2.8zm0 4.6h2.8v-3.3h-2.8zm3.6 1.9c2.1.9 4.1 1.8 6.1 2.7l-.7 1.3c-2.2-1.1-4.2-2-6.1-2.9zm3.3-9.7h-2.8v3.2h2.8zm-2.8 7.8h2.8v-3.3h-2.8z" fill="#fafbfc"/><path d="m234.18 366.07c3.26-20.65 5.8-41.19 9.96-61.39 2.52-12.26 3.36-24.5 4.12-36.85.04-.73.01-1.47.01-3.03-3.08.19-6.1-.14-8.8.65-6.65 1.96-13.21 4.04-19.61 7.02-7.08 3.3-14.99 5.12-22.74 6.57-8.72 1.64-17.64 2.26-26.49 3.07-2.11.19-4.47-.25-6.44-1.06-3.05-1.25-5.85-1.3-8.84-.03-1.74.74-3.6 1.19-5.58 1.82-.57-.88-1.13-1.74-1.71-2.63-2.91 3.91-8.45 3.46-11.11-.82.13-.15.24-.39.4-.42 11.44-2.42 22.85-4.97 34.33-7.19 8.08-1.57 16.32-2.37 24.36-4.12 6.69-1.45 13.19-3.78 19.77-5.72 5.05-1.49 6.7-6.27 3.34-10.31-2.5-3-5.12-5.97-8.09-8.49-3.36-2.85-5.43-6.28-6.94-10.35-3.14-8.43-6.22-16.92-10.03-25.05-3.59-7.68-3.91-15.72-4.42-23.85-.2-3.27-.43-6.54-.69-10.49-7.74 5.04-16.24 3.36-24.31 4.49-.9.13-2.09 1.05-2.43 1.9-1.15 2.92-3.36 4.47-6.21 4.79-10.29 1.18-20.6 2.24-30.92 3.07-1.03.08-2.8-1.52-3.19-2.69-.56-1.69.33-3.05 2.56-3.46 8.23-1.49 16.42-3.14 24.61-4.82 1.94-.4 3.87-1.02 5.7-1.8 2.34-.99 4.58-2.19 6.84-3.37 5.92-3.08 11.86-5.67 18.69-6.6 5.22-.71 10.35-3.07 15.17-5.42 12.49-6.09 25.44-10.98 38.54-15.55 4.45-1.55 6.8-5.07 6.24-9.72-.47-3.88-1.25-7.74-2.04-11.57-.17-.8-.85-1.72-1.57-2.13-6.26-3.61-12.87-5.43-20.27-5.29-5.64.1-11.39-.9-16.93-2.11-9.91-2.16-19.72-4.78-29.53-7.39-1.82-.48-3.98-1.43-4.99-2.87-3.03-4.29-1.46-7.57 3.63-8.49 7.58-1.36 14.97-.9 22.12 2.16 7.46 3.19 15.23 5.02 23.31 5.87 3.75.4 7.41 1.68 11.12 2.54 1.64.38 3.28.98 4.93 1.02 3.08.07 4.2-1.29 3.76-4.3-1.85-12.46-3.92-24.88-5.54-37.37-.63-4.8-.23-9.73-.45-14.59-.04-.95-.57-2.25-1.3-2.72-5.39-3.43-5.85-6.36-1.53-11.63 5.74 4.07 8.88 9.78 10.47 16.48.86 3.61 1.52 7.27 2.63 10.8 1.34 4.27 1.85 8.37-.09 12.61-.39.86-.1 2.27.33 3.22 1.33 3 3.11 5.81 4.29 8.86 1.24 3.2 1.94 6.61 2.98 9.89.39 1.23.78 2.85 1.72 3.45 5.47 3.55 11.01 7.03 16.72 10.19 4.55 2.52 8.9 5 10.11 10.74-7.36 6.43-14.63.17-22.42-.42 1.28 5.8 2.38 11.25 3.69 16.65 2.83 11.62 6.3 23.12 8.45 34.87 1.3 7.09.71 14.54.78 21.82.05 5.3-.17 10.6-.37 15.9-.13 3.41-.19 6.77 1.78 9.8.32.49.56 1.27.4 1.79-2.61 8.39-1.04 17.02-1.66 25.51-.79 10.85-2.84 21.61-4.01 32.45-.63 5.88-.5 11.83-.85 17.74-.14 2.41-.34 4.88-1.02 7.18-4.09 13.91-8.31 27.79-12.55 41.66-.39 1.26-.96 2.75-1.94 3.5-3.68 2.81-4.5 6.61-4.59 10.9-.1 4.12-1.42 5.26-5.66 5.13zm-.32-112.44c4.18.05 9.68-2.17 14.99-6.08.91-.67 1.65-2.1 1.75-3.25.27-3.05-.21-6.19.27-9.19 2.05-12.79 1.8-25.54-.11-38.29-.54-3.61-.64-7.05.64-10.58.47-1.31.23-3.5-.61-4.55-3.37-4.23-4.27-9.09-4.57-14.23-.13-2.33-.34-4.65-.58-6.96-.6-5.84-7.87-9.58-12.95-6.65-8.25 4.76-16.52 9.48-24.67 14.41-1.33.8-2.56 2.5-2.93 4.01-1.48 6.06-2.68 12.19-3.82 18.32-.32 1.7-.55 3.68 0 5.25 6.29 17.88 13.69 35.27 22.74 51.96 2.37 4.39 6.13 5.39 9.85 5.83z" fill="#010104"/></svg>