<svg enable-background="new 0 0 400 400" viewBox="0 0 400 400" xmlns="http://www.w3.org/2000/svg"><g fill="#010000"><path d="m265.25 332.09c3.08-4.89 6.44-9.63 9.19-14.7 4.45-8.22 7.97-16.84 9.07-26.26.09-.74.12-1.48.21-2.21.58-4.94-.56-8.62-5.78-10.8-7.21-3.01-13.01-8.2-18.6-13.61-5.03-4.86-10.38-9.39-15.38-14.29-3.16-3.09-5.79-6.72-8.9-9.87-2.72-2.76-5.67-5.32-8.69-7.75-4.2-3.38-8.73-6.36-12.78-9.91-1.95-1.71-3.13-4.3-4.78-6.68 4.65-1.31 8.16-1.12 11.53 1.82 3.5 3.05 7.39 5.7 11.29 8.24 4.97 3.23 9.24 7 11.81 12.48.42.89 1.28 1.75 2.15 2.23 10.46 5.81 20.96 11.55 31.46 17.29.26.14.58.17 1 .28 1.84-3.44 1.51-7.15.6-10.53-7.27-26.96-9.78-55.18-20.59-81.15-7.17-17.23-13.39-34.72-18.98-52.49-1.86-5.92-4.96-11.45-7.62-17.1-.55-1.16-1.71-2.03-3.05-3.57-3.11 16.22-6.95 31.44-21.99 41-2.48-4.72-2.68-9.08-1.62-13.45 4.7-19.33 9.76-38.59 14.15-57.99 1.14-5.03.38-10.51.38-15.78 0-2.65-.3-5.29-.37-7.94-.07-2.67 1.64-4.26 4.3-4.15 6.5.27 10.15 3.56 11.03 9.96.23 1.68.63 3.36.62 5.04-.08 12.49 5.7 23.36 9.89 34.56 8.2 21.89 17.52 43.37 25.84 65.22 7.25 19.05 14.23 38.24 20.4 57.66 2.63 8.26 2.89 17.27 4.24 25.93.26 1.66.23 3.46.9 4.95 4.51 10.07 5.02 20.84 6.16 31.59 2.25 21.39-3.57 40.78-13.43 59.35-3.69 6.95-7.45 13.8-13.7 18.89-5.81 4.74-12.21 7.84-19.84 7.93-.23-.46-.48-.74-.49-1.02-.47-12.96-7.72-23.58-12.28-35.1-2.02-5.11-4.66-9.97-7.01-14.95-1.67-3.52-1.67-3.52-7.62-3.14.42-1.4.5-2.77 1.17-3.74 2.52-3.67 2.26-7.33.44-11.13-1.65-3.43-3.59-6.77-4.81-10.35-1.18-3.45-1.84-7.14-2.25-10.78-.13-1.15.99-3.02 2.06-3.6 1.83-1 2.73.59 3.38 2.22.5 1.27 1.06 2.63 1.95 3.62 6.46 7.15 9.71 16.02 13.57 24.61 4.54 10.11 10.76 19.39 13.95 30.2.99 3.35 4.21 6.05 6.41 9.04.46-.01.93-.04 1.41-.07z"/><path d="m137.38 78.65c-3.85 6.56-5.6 13.63-6.82 20.8-1.66 9.71-2.64 19.55-4.69 29.17-1.52 7.1-4.16 13.98-6.53 20.88-1.05 3.08-1.09 6.04-1.07 9.26.03 4.47-.78 9.06-1.96 13.4-4.77 17.55-5.53 35.51-6.21 53.52-.39 10.48-1.57 20.93-1.77 31.41-.1 4.79 1.17 9.64 2.09 14.41.23 1.17 1.54 2.13 2.75 3.7 2.22-4.48 4.16-8.1 5.83-11.83 5.28-11.74 12.05-22.55 19.44-33.08 4.54-6.46 8.19-13.56 12.11-20.45 2.62-4.61 5.29-6.2 10.56-5.53-1.6 6.68-3.53 13.27-4.73 20-2.2 12.34-9.33 22.39-14.91 33.13-7.07 13.61-14.6 26.99-21.9 40.48-.33.6-.67 1.49-.47 2.05 3.97 10.68 6.61 22.01 14.45 30.84 2.8 3.16 5.99 5.97 9.04 8.9 1.61 1.55 2.88 1.42 4.36-.51 5-6.54 7.18-14.08 8.28-22.04 1.43-10.36 5.18-19.83 10.86-28.56.56-.87 1.28-1.73 2.12-2.31 2.59-1.77 4.48-1 5.16 2.04 2.27 10.13.41 20.04-1.9 29.87-1.01 4.31-2.24 8.67-4.12 12.65-3.06 6.47-2.96 13.37-3.7 20.17-.39 3.58-.56 7.19-.83 10.78-.26 3.56-1.53 5.37-5.01 5.07-6.69-.57-13.62-.28-18.82-6.31-6.56-7.61-13.85-14.58-20.61-22.02-3.86-4.25-5.82-9.49-6.42-15.24-.15-1.42-.53-3.1-1.42-4.11-5.68-6.4-8.16-14.2-10.31-22.22-1.42-5.32-3.04-10.58-4.73-15.82-4.42-13.7-4.59-27.85-3.51-41.88 1.6-20.6 3.99-41.14 6.52-61.65.81-6.56 3.2-12.93 4.75-19.41 3-12.56 6.26-25.07 8.78-37.72 2.67-13.39 7.89-25.91 12.43-38.64 2.28-6.41 5.73-12.4 8.73-18.55.45-.93 1.28-1.68 1.93-2.51 1.31-1.68 2.64-1.86 4.6-.73 6.32 3.65 10.25 9.38 13.91 15.39 6.67 10.94 13.26 21.94 20.04 32.81 4.71 7.55 8.58 15.36 9.28 24.38.16 2.1.14 4.25-.14 6.32-.13.92-.97 2.2-1.76 2.45-.84.27-2.37-.17-2.97-.85-5.5-6.31-11.12-12.54-16.21-19.17-7.25-9.46-13.03-19.8-16.76-31.21-1.43-4.46-3.54-8.56-7.74-11.53z"/><path d="m142.29 171.61c.73-2.26 1.25-3.86 1.77-5.45.66 1.99 2.48 4.3-1.77 5.45z"/></g><path d="m361.2 9.6.8-1c.9.7 1.9 1.4 2.9 2.3l-.9 1.1c-1-1-2-1.8-2.8-2.4zm.5 10.6c.9-2.1 1.6-4.3 2.3-6.7.4.2.8.4 1.3.6-.7 2.1-1.5 4.3-2.2 6.6zm.4-15.2.9-.9c1 .8 2 1.6 2.8 2.4l-1 1c-.9-.9-1.8-1.7-2.7-2.5zm12.5-1.2h1.2v1.4h2.7v1.1h-2.7v2.7h-1.2v-.6h-1.8v1.3h4.9v3.8h-1.2v-.5h-3.7c0 .4-.1.9-.1 1.2h5.1v1h-5.2c0 .5-.1.9-.2 1.2h6v1h-5.2c1.1 1.3 2.9 2 5.5 2.2-.4.4-.7.8-.9 1.3-2.9-.5-4.8-1.6-5.7-3.5h-.1c-.8 1.7-2.7 2.9-5.9 3.6-.2-.4-.6-.8-.9-1.1 2.8-.6 4.6-1.4 5.4-2.5h-4.8v-1h5.3c.1-.3.2-.7.2-1.2h-4.9v-1h5c0-.4 0-.8.1-1.2h-3.5v.5h-1.2v-3.8h4.9v-1.3h-1.8v.5h-1.2v-2.7h-2.7v-1h2.6v-1.4h1.2v1.4h4.7v-1.4zm-6.6 8.3h3.6c0-.4 0-.9 0-1.4h-3.6zm1.9-4.6h4.7v-1.3h-4.7zm6.6 3.2h-3.7v1.4h3.7z" fill="#fafafb"/><path d="m385.3 3.8h1.3v2.2h2.8v-2.2h1.3v2.2h4.1v9.1h1.7v1.3h-16.9v-1.3h1.7v-9.1h4.1v-2.2zm.4 13.1.7 1.2c-1.8.9-3.8 1.9-6 2.9-.2-.4-.5-.8-.8-1.3 2.3-1 4.3-1.9 6.1-2.8zm-3.1-6.4h2.8v-3.2h-2.8zm0 4.6h2.8v-3.3h-2.8zm4-4.6h2.8v-3.2h-2.8zm0 4.6h2.8v-3.3h-2.8zm3.7 1.9c2.1.9 4.1 1.8 6.1 2.7l-.7 1.3c-2.2-1.1-4.2-2-6.1-2.9zm3.2-9.7h-2.8v3.2h2.8zm-2.8 7.8h2.8v-3.3h-2.8z" fill="#fafafb"/></svg>