<svg enable-background="new 0 0 400 400" viewBox="0 0 400 400" xmlns="http://www.w3.org/2000/svg"><path d="m378.6 9.2.8-1c.9.7 1.9 1.4 2.9 2.3l-.9 1.1c-1.1-.9-2-1.7-2.8-2.4zm.5 10.7c.9-2.1 1.6-4.3 2.3-6.7.4.2.8.4 1.3.6-.7 2.1-1.5 4.3-2.2 6.6zm.4-15.2.9-.9c1 .8 2 1.6 2.8 2.4l-1 1c-1-.9-1.9-1.8-2.7-2.5zm12.5-1.3h1.2v1.4h2.7v1.1h-2.7v2.7h-1.2v-.5h-1.8v1.3h4.9v3.8h-1.2v-.5h-3.7c0 .4-.1.9-.1 1.2h5.1v1h-5.2c0 .5-.1.9-.2 1.2h6v1h-5.2c1.1 1.3 2.9 2 5.5 2.2-.4.4-.7.8-.9 1.3-2.9-.5-4.8-1.6-5.7-3.5h-.1c-.8 1.7-2.7 2.9-5.9 3.6-.2-.4-.6-.8-.9-1.1 2.8-.6 4.6-1.4 5.4-2.5h-4.8v-1h5.3c.1-.3.2-.7.2-1.2h-4.9v-1h5c0-.4 0-.8.1-1.2h-3.6v.5h-1.2v-3.8h4.9v-1.3h-1.8v.5h-1.2v-2.7h-2.6v-1.1h2.6v-1.4h1.2v1.4h4.7v-1.4zm-6.7 8.4h3.6c0-.4 0-.9 0-1.4h-3.6zm1.9-4.7h4.7v-1.2h-4.7zm6.7 3.3h-3.7v1.4h3.7z" fill="#fafbfc"/><path d="m384.7 21.4h1.3v2.2h2.8v-2.2h1.3v2.2h4.1v9.1h1.7v1.3h-16.9v-1.3h1.7v-9.1h4.1v-2.2zm.3 13.2.7 1.2c-1.8.9-3.8 1.9-6 2.9-.2-.4-.5-.8-.8-1.3 2.4-1 4.4-2 6.1-2.8zm-3.1-6.5h2.8v-3.2h-2.8zm0 4.6h2.8v-3.3h-2.8zm4.1-4.6h2.8v-3.2h-2.8zm0 4.6h2.8v-3.3h-2.8zm3.6 1.9c2.1.9 4.1 1.8 6.1 2.7l-.7 1.3c-2.2-1.1-4.2-2-6.1-2.9zm3.3-9.7h-2.8v3.2h2.8zm-2.8 7.8h2.8v-3.3h-2.8z" fill="#fafbfc"/><g fill="#010104"><path d="m111.2 200.43c4.15 3.01 5.68 6.83 7.15 10.68 4.51 11.82 5.74 24 4.3 36.54-.63 5.49 4.72 13.48 9.49 16.16 3.91 2.19 7.69 4.93 10.77 8.15 1.57 1.65 1.78 4.86 2.05 7.42.27 2.61 1.12 4.07 3.88 4.34 5.22.5 8.38 4.09 11.36 7.89 2.35 2.98 4.43 6.23 8.45 7.37 1.84.52 3.13.41 4.35-1.3 1.78-2.5 3.67-4.97 5.83-7.13 3.47-3.47 5.38-7.09 3.28-12.08-.4-.96.07-2.52.58-3.6 5.68-12.06 11.39-24.11 17.23-36.09 1.05-2.16 2.53-4.17 4.11-5.99 1.27-1.46 2.77-1.64 4.19.29 2.26 3.06 3.6 6.18 3.8 10.16.19 3.67 1.24 7.52 2.84 10.84 3.76 7.79 8.99 14.91 10.55 23.67.31 1.75.45 3.63.15 5.36-.26 1.45-1.05 3.7-2.01 3.94-2.19.54-4.85.94-6.24-2.07-1.76-3.84-3.77-7.56-5.61-11.37-1.3-2.7-2.97-4.88-6.19-5.34-1.87-.27-3.08.18-3.97 2.11-4.55 9.91-9.18 19.78-13.95 29.59-3.17 6.54-7.08 12.54-13.38 16.63-2.38 1.55-3.77 1.76-5.88-.98-8.36-10.87-17.62-20.9-29.08-28.69-2.05-1.4-3.57-3.55-5.45-5.23-1.64-1.48-3.43-2.79-5.64-4.57-1.64 5.64-1.58 10.43-.58 15.04 1.61 7.44 3.76 14.77 5.72 22.14.18.68.52 1.52 1.05 1.86 3.15 1.96 3.53 4.74 2.76 8.03-.52 2.2.06 4 1.82 5.67 5.97 5.66 10.73 12.52 17.99 16.93 11.88 7.22 24.78 9.9 38.38 8.87 10.63-.81 21.19-2.62 31.78-4 .52-.07 1.12-.1 1.54-.37 11.53-7.49 25.02-12.39 32.68-24.99 4.51-7.42 8.45-14.99 7.8-24.04-.07-1.04-.71-2.43-1.52-2.92-1.48-.89-3.03-.86-4.48.77-3.45 3.87-7.12 7.56-10.74 11.28-4.48 4.61-10.02 5.59-16.1 4.56-.5-.09-1.1-.25-1.43-.59-5.7-5.87-11.42-11.75-12.94-20.28-.49-2.74 1-4.39 3.68-3.5 2.33.77 4.76 1.93 6.52 3.59 4.29 4.06 5.76 4.7 10.86 1.9 13.14-7.21 23.08-17.62 30.3-30.74 2.79-5.07 2.15-10.21.86-15.39-.8-3.22-.65-6.16.77-9.21 1.47-3.16 2.52-6.51 3.81-9.76.91-2.3 1.24-4.46-1.34-6.22 1.19-.96 2.15-1.74 3.32-2.68 2.68 3.56 3.61 7.48 3.75 11.62.07 2.11-.08 4.24-.27 6.35-.61 6.83-.29 13.49 2.49 19.95.77 1.78.77 4.12.45 6.09-.82 5.12-2.02 10.17-3.06 15.26-.15.73-.4 1.48-.33 2.2 1.3 12.43-3.47 23.99-5.1 36-.43 3.21-1.63 5.67-4.44 7.57-2.89 1.96-5.08 4.54-6.02 8.25-.5 1.96-2.31 3.84-3.97 5.21-8.77 7.26-18.27 13.52-28.8 17.83-4.14 1.69-9.06 1.93-13.63 1.99-4.6.06-8.87.81-12.79 3.06-5.2 2.99-10.43 3.09-15.87.92-1.47-.59-3.03-.96-4.5-1.56-2.92-1.19-5.39-1.55-8.48.49-4.47 2.96-9.53 1.21-14.1-.42-4.67-1.66-9.14-3.9-13.62-6.07-.89-.43-1.43-1.64-2.04-2.56-1.38-2.04-2.27-4.68-4.11-6.11-14.1-10.93-22.12-25.92-28.71-41.95-1.49-3.63-2.44-7.28-1.52-11.11.91-3.82.02-7.12-2.2-10.14-1.54-2.09-1.71-4.24-.88-6.56.97-2.71.66-5.31-.23-8.02-3.62-11.02-4.62-22.24-3.38-33.85 1.08-10.1 1.05-20.32 1.52-30.49.05-2.01.21-3.99.37-6.6z"/><path d="m204.33 35.17c3.36.87 4.91 3.2 5 6.06.16 5.17.23 10.4-.41 15.51-.77 6.21 2.52 11.23 3.97 16.77.07.27.38.53.64.68 9.26 5.19 13.87 14.67 20.62 22.17 1.32 1.47 3.16 2.81 5.02 3.42 9.18 2.99 15.13 12.4 13.76 22.5-5.27 1.54-9.5-1.1-13.21-4.11-6.66-5.41-12.92-11.31-19.36-17-.78-.69-1.59-1.34-2.42-2.03-2.89 3.35-3.67 7.18-2.55 11.13 2.76 9.77 2.36 19.67 2.13 29.66-.11 4.88 1.26 9.8 2.11 14.68.15.85.87 1.7 1.53 2.34 11.29 10.78 18.14 23.96 22.12 38.98 2.04 7.72 5.45 15.08 8.18 22.62.42 1.16.71 2.46.64 3.67-.37 7.3-.8 14.61-1.4 21.9-.08 1-.97 2.26-1.86 2.81-2.05 1.29-4.32 2.23-6.61 3.36-3.85-3.73-4.8-8.5-5.52-13.49-2-14.05-4.01-28.1-6.39-42.08-.7-4.1-2.54-8.05-4.13-11.95-1.26-3.08-3.5-5.31-6.5-7.08-3.7-2.17-7.06-4.93-10.44-7.6-2.11-1.67-7.89-.74-10.72 1.84-6.12 5.56-12.23 11.13-18.47 16.55-1.95 1.7-4.3 2.95-6.55 4.46-1.93-3.08-1.69-5.78-.47-8.55 2.57-5.82 5.57-11.19 10.52-15.55 4.74-4.18 8.86-9.12 12.96-13.97 2.02-2.4 3.55-5.26 5.01-8.07 1.72-3.32 1.78-6.66.44-10.38-3.05-8.48-2.53-17.29-1.22-26.06.09-.63.17-1.27.36-1.87.61-1.94.44-3.98-1.63-4.42-1.46-.31-3.65.32-4.75 1.34-4.17 3.91-7.96 8.22-12.03 12.25-4.45 4.41-9.62 7.18-16.42 6.37-.22-4.1-.23-7.74 1.89-11.6 5.07-9.23 12.27-16.73 18.9-24.69 2.25-2.71 4.02-5.39 4.03-9 .01-4.2 1.92-7.49 5.07-10.11 2.98-2.48 4.01-5.46 3.75-9.45-.48-7.54.05-15.04 4.41-22.01z"/><path d="m165.14 241.73c-.62-2.67-1.55-5.26-1.79-7.92-1.07-11.65.11-23.05 4.54-33.96.55-1.35 2.36-3.48 2.94-3.29 1.94.65 4.78 1.91 5.12 3.42 1.13 5.03 2.13 10.06.1 15.47-1.81 4.84-2.22 10.27-2.79 15.49-.61 5.55-2.76 8.96-8.12 10.79z"/></g></svg>