<svg enable-background="new 0 0 400 400" viewBox="0 0 400 400" xmlns="http://www.w3.org/2000/svg"><path d="m149.15 366.32c1.63-5.6 2.54-10.89 4.65-15.65 10.43-23.52 16.76-48.34 23.91-72.92 4-13.77 7.9-27.49 8.93-41.84.36-5.06.34-10.17.22-15.25-.3-12.39-.69-24.78-1.22-37.16-.07-1.61-.8-3.51-1.86-4.71-4.3-4.89-9.87-6.7-16.31-5.98-20.01 2.23-38.64-2.95-56.79-10.63-16.02-6.78-23.26-18.9-23-36.25.15-10.35-.82-20.72-1.54-31.06-.22-3.15 2.25-2.36 3.61-3.54 4.54 7.75 6.83 15.87 8.34 24.4 1.47 8.3 3.65 16.49 5.83 24.65.43 1.59 2.01 3.21 3.49 4.14 6.55 4.09 13 8.47 19.97 11.72 11.28 5.27 23.62 5.45 35.82 5.75 5.62.14 11.24.13 16.86-.06 1.22-.04 3.08-.86 3.49-1.82 1.47-3.44 3.03-7.02 3.44-10.67.46-4.16-.43-8.45-.46-12.68-.07-10.8-.38-21.62.18-32.39.39-7.69-.43-15.21-1.17-22.79-1.24-12.82-1.48-25.62 2.11-38.18.78-2.73 1.73-5.41 2.58-8.05 5.12.46 8.63 3.54 9.53 8.89.68 4.05.83 8.21 1 12.34.42 9.94.12 19.95 1.22 29.82 1.41 12.7.17 25.19-1.27 37.7-1.36 11.74-.85 23.43-.27 35.96 8.18-.91 16.06-1.56 23.87-2.7 11-1.61 21.94-3.67 32.94-5.29 2.09-.31 4.42.22 6.5.84 12.5 3.73 24.26 8.9 33.65 18.36.73.73 1.59 1.57 1.84 2.51 3.44 12.55 7.4 25 9.98 37.73 2.4 11.85.31 23.88-1.53 35.73-.78 5.02-2.01 9.96-2.95 14.95-.42 2.27-1.62 3.56-4.15 3.85-2.69-5.89-5.55-11.8-8.04-17.85-.63-1.52-.33-3.55-.09-5.29 2.3-16.67.09-32.81-4.53-48.93-3.91-13.63-12.75-21.17-25.63-25.73-9.21-3.26-18-2.23-27.1-.35-9.85 2.03-19.79 3.64-29.64 5.65-1.37.28-3.03 1.52-3.65 2.76-4.71 9.47-5.99 19.66-5.03 30.03 1.67 17.91 5.6 35.44 12.34 52.07 5.45 13.44 12.97 25.9 22.13 37.3 6.5 8.1 12.68 16.46 19 24.7 2.2 2.87 3.54 5.96 2.42 10.12-.9-.38-1.75-.52-2.29-1-8.85-7.9-17.72-15.79-26.45-23.82-1.76-1.62-3.16-3.7-4.4-5.77-7.06-11.7-14.02-23.46-21.02-35.2-.53-.89-1.09-1.76-1.95-3.14-1.57 4.19-2.83 7.97-4.38 11.63-3.1 7.29-6.5 14.45-9.51 21.78-2.33 5.67-4.03 11.6-6.4 17.25-4.35 10.33-9.08 20.51-13.49 30.82-2.28 5.34-4.19 10.84-6.33 16.25-1.26 3.09-3.22 5.6-7.4 7z" fill="#010000"/><g fill="#fafafb"><path d="m361.2 9.6.8-1c.9.7 1.9 1.4 2.9 2.3l-.9 1.1c-1-1-2-1.8-2.8-2.4zm.5 10.6c.9-2.1 1.6-4.3 2.3-6.7.4.2.8.4 1.3.6-.7 2.1-1.5 4.3-2.2 6.6zm.4-15.2.9-.9c1 .8 2 1.6 2.8 2.4l-1 1c-.9-.9-1.8-1.7-2.7-2.5zm12.5-1.2h1.2v1.4h2.7v1.1h-2.7v2.7h-1.2v-.6h-1.8v1.3h4.9v3.8h-1.2v-.5h-3.7c0 .4-.1.9-.1 1.2h5.1v1h-5.2c0 .5-.1.9-.2 1.2h6v1h-5.2c1.1 1.3 2.9 2 5.5 2.2-.4.4-.7.8-.9 1.3-2.9-.5-4.8-1.6-5.7-3.5h-.1c-.8 1.7-2.7 2.9-5.9 3.6-.2-.4-.6-.8-.9-1.1 2.8-.6 4.6-1.4 5.4-2.5h-4.8v-1h5.3c.1-.3.2-.7.2-1.2h-4.9v-1h5c0-.4 0-.8.1-1.2h-3.5v.5h-1.2v-3.8h4.9v-1.3h-1.8v.5h-1.2v-2.7h-2.7v-1h2.6v-1.4h1.2v1.4h4.7v-1.4zm-6.6 8.3h3.6c0-.4 0-.9 0-1.4h-3.6zm1.9-4.6h4.7v-1.3h-4.7zm6.6 3.2h-3.7v1.4h3.7z"/><path d="m385.3 3.8h1.3v2.2h2.8v-2.2h1.3v2.2h4.1v9.1h1.7v1.3h-16.9v-1.3h1.7v-9.1h4.1v-2.2zm.4 13.1.7 1.2c-1.8.9-3.8 1.9-6 2.9-.2-.4-.5-.8-.8-1.3 2.3-1 4.3-1.9 6.1-2.8zm-3.1-6.4h2.8v-3.2h-2.8zm0 4.6h2.8v-3.3h-2.8zm4-4.6h2.8v-3.2h-2.8zm0 4.6h2.8v-3.3h-2.8zm3.7 1.9c2.1.9 4.1 1.8 6.1 2.7l-.7 1.3c-2.2-1.1-4.2-2-6.1-2.9zm3.2-9.7h-2.8v3.2h2.8zm-2.8 7.8h2.8v-3.3h-2.8z"/></g></svg>