<svg enable-background="new 0 0 400 400" viewBox="0 0 400 400" xmlns="http://www.w3.org/2000/svg"><path d="m378.6 9.2.8-1c.9.7 1.9 1.4 2.9 2.3l-.9 1.1c-1.1-.9-2-1.7-2.8-2.4zm.5 10.7c.9-2.1 1.6-4.3 2.3-6.7.4.2.8.4 1.3.6-.7 2.1-1.5 4.3-2.2 6.6zm.4-15.2.9-.9c1 .8 2 1.6 2.8 2.4l-1 1c-1-.9-1.9-1.8-2.7-2.5zm12.5-1.3h1.2v1.4h2.7v1.1h-2.7v2.7h-1.2v-.5h-1.8v1.3h4.9v3.8h-1.2v-.5h-3.7c0 .4-.1.9-.1 1.2h5.1v1h-5.2c0 .5-.1.9-.2 1.2h6v1h-5.2c1.1 1.3 2.9 2 5.5 2.2-.4.4-.7.8-.9 1.3-2.9-.5-4.8-1.6-5.7-3.5h-.1c-.8 1.7-2.7 2.9-5.9 3.6-.2-.4-.6-.8-.9-1.1 2.8-.6 4.6-1.4 5.4-2.5h-4.8v-1h5.3c.1-.3.2-.7.2-1.2h-4.9v-1h5c0-.4 0-.8.1-1.2h-3.6v.5h-1.2v-3.8h4.9v-1.3h-1.8v.5h-1.2v-2.7h-2.6v-1.1h2.6v-1.4h1.2v1.4h4.7v-1.4zm-6.7 8.4h3.6c0-.4 0-.9 0-1.4h-3.6zm1.9-4.7h4.7v-1.2h-4.7zm6.7 3.3h-3.7v1.4h3.7z" fill="#fafbfc"/><path d="m384.7 21.4h1.3v2.2h2.8v-2.2h1.3v2.2h4.1v9.1h1.7v1.3h-16.9v-1.3h1.7v-9.1h4.1v-2.2zm.3 13.2.7 1.2c-1.8.9-3.8 1.9-6 2.9-.2-.4-.5-.8-.8-1.3 2.4-1 4.4-2 6.1-2.8zm-3.1-6.5h2.8v-3.2h-2.8zm0 4.6h2.8v-3.3h-2.8zm4.1-4.6h2.8v-3.2h-2.8zm0 4.6h2.8v-3.3h-2.8zm3.6 1.9c2.1.9 4.1 1.8 6.1 2.7l-.7 1.3c-2.2-1.1-4.2-2-6.1-2.9zm3.3-9.7h-2.8v3.2h2.8zm-2.8 7.8h2.8v-3.3h-2.8z" fill="#fafbfc"/><path d="m220.6 111.56c-4-.59-7.86-1.3-11.75-1.66-1.05-.1-2.43.58-3.26 1.34-4.63 4.21-9.19 8.49-13.65 12.88-1.89 1.87-3.83 3.27-6.61 3.12-4.22-.22-7.33 2.24-9.89 4.97-3.88 4.14-7.48 8.62-10.75 13.27-4.79 6.83-9 14.07-13.8 20.88-2.34 3.33-5.54 5.57-10.24 4.96-3.66-.47-5.44-1.23-6.29-4.89-1.03-4.48-1.18-8.69 1.92-12.92 6.25-8.54 11.9-17.53 17.89-26.27.93-1.36 2.18-2.6 3.53-3.54 13.77-9.52 27.54-19.04 41.43-28.39 2.59-1.74 5.59-2.97 8.54-4.06 3.12-1.15 4.51-3.41 4.86-6.41.23-1.98.28-4.07-.08-6.02-1.01-5.4.19-10.46 1.67-15.59 2.67-9.23 5.1-18.54 7.61-27.74 5.06-.22 8.34 2.15 8.89 6.79.57 4.83.75 9.71 1 14.57.04.78-.44 1.58-.67 2.37-1.13 3.91-2.91 7.77-3.23 11.75-.46 5.67.12 11.43.36 17.15.04.87.58 1.76 1.01 2.57 2.46 4.64 5.5 9.05 7.32 13.93 3.08 8.29 6.7 16.14 11.81 23.43 6.65 9.48 12.19 19.63 14.24 31.26 1.74 9.87.63 19.64-1.44 29.34-.23 1.08-.97 2.1-1.61 3.05-8.07 11.81-15.93 23.78-24.35 35.33-4.38 6.01-7.13 12.31-7.86 19.68-.43 4.31-1.34 8.58-2.09 12.85-.24 1.34-.24 3.02-1.04 3.92-4.62 5.2-4.71 11.58-5.01 17.91-.43 9.02-1.65 17.85-4.17 26.6-1.28 4.46-.94 9.47-.85 14.22.19 9.95.88 19.9 1 29.85.06 4.61-1.4 8.98-4.6 12.56-1.27 1.42-2.44 1.58-4.39.85-4.05-1.52-5.24-3.92-5.18-8.27.28-20.14.09-40.29.2-60.44.01-1.48 1.16-2.93 1.63-4.43.73-2.33 2.07-4.79 1.83-7.05-.57-5.35-.41-10.47.97-15.71.98-3.73 1.14-7.72 1.28-11.61.22-5.92-.36-11.88 5.04-16.35 1.11-.92 1.18-3.57 1.09-5.4-.19-3.76-.8-7.3-3.1-10.74-1.83-2.73-2.57-6.54-2.79-9.93-.59-8.94-2.3-17.59-7.44-24.94-6.28-8.98-5.84-18.5-4.08-28.47.63-3.56.95-6.9 4.18-9.43 1.6-1.26 2.76-3.63 3.22-5.7 1.96-8.72 6.8-15.55 12.98-21.74 3.8-3.8 5.01-7.96 4.72-13.7zm13.23 21.68c-.85 1.1-1.51 1.89-2.11 2.73-4.44 6.2-8.69 12.54-13.38 18.55-3.32 4.26-4.42 9.31-6.09 14.18-.26.77.16 1.81.35 2.71 1.26 5.98 2.79 11.91 3.74 17.94.95 6.1 1.79 12.15 5.37 17.4 1.96 2.88 3 3.29 5.38.72 2.91-3.15 5.28-6.82 7.7-10.38 3.98-5.84 8.1-11.62 11.56-17.76 1.5-2.65 2.88-6.62 1.99-9.17-4.35-12.33-9.49-24.38-14.51-36.92z" fill="#010104"/></svg>