<svg enable-background="new 0 0 400 400" viewBox="0 0 400 400" xmlns="http://www.w3.org/2000/svg"><path d="m378.6 9.2.8-1c.9.7 1.9 1.4 2.9 2.3l-.9 1.1c-1.1-.9-2-1.7-2.8-2.4zm.5 10.7c.9-2.1 1.6-4.3 2.3-6.7.4.2.8.4 1.3.6-.7 2.1-1.5 4.3-2.2 6.6zm.4-15.2.9-.9c1 .8 2 1.6 2.8 2.4l-1 1c-1-.9-1.9-1.8-2.7-2.5zm12.5-1.3h1.2v1.4h2.7v1.1h-2.7v2.7h-1.2v-.5h-1.8v1.3h4.9v3.8h-1.2v-.5h-3.7c0 .4-.1.9-.1 1.2h5.1v1h-5.2c0 .5-.1.9-.2 1.2h6v1h-5.2c1.1 1.3 2.9 2 5.5 2.2-.4.4-.7.8-.9 1.3-2.9-.5-4.8-1.6-5.7-3.5h-.1c-.8 1.7-2.7 2.9-5.9 3.6-.2-.4-.6-.8-.9-1.1 2.8-.6 4.6-1.4 5.4-2.5h-4.8v-1h5.3c.1-.3.2-.7.2-1.2h-4.9v-1h5c0-.4 0-.8.1-1.2h-3.6v.5h-1.2v-3.8h4.9v-1.3h-1.8v.5h-1.2v-2.7h-2.6v-1.1h2.6v-1.4h1.2v1.4h4.7v-1.4zm-6.7 8.4h3.6c0-.4 0-.9 0-1.4h-3.6zm1.9-4.7h4.7v-1.2h-4.7zm6.7 3.3h-3.7v1.4h3.7z" fill="#fafbfc"/><path d="m384.7 21.4h1.3v2.2h2.8v-2.2h1.3v2.2h4.1v9.1h1.7v1.3h-16.9v-1.3h1.7v-9.1h4.1v-2.2zm.3 13.2.7 1.2c-1.8.9-3.8 1.9-6 2.9-.2-.4-.5-.8-.8-1.3 2.4-1 4.4-2 6.1-2.8zm-3.1-6.5h2.8v-3.2h-2.8zm0 4.6h2.8v-3.3h-2.8zm4.1-4.6h2.8v-3.2h-2.8zm0 4.6h2.8v-3.3h-2.8zm3.6 1.9c2.1.9 4.1 1.8 6.1 2.7l-.7 1.3c-2.2-1.1-4.2-2-6.1-2.9zm3.3-9.7h-2.8v3.2h2.8zm-2.8 7.8h2.8v-3.3h-2.8z" fill="#fafbfc"/><g fill="#010104"><path d="m60.59 99.46c10.19-2.52 20.51-2.73 30.88-1.7 7.78.77 15.57 1.54 23.33 2.5 4.98.62 7.16-.6 8.74-5.42 2.91-8.85 5.93-17.66 8.73-26.55.91-2.9 1.87-5.99 1.8-8.96-.15-6.65 3.86-10 9.17-11.78 4.45-1.49 9.4-1.39 13.96-2.61 7.59-2.03 14.93-.81 22.48.2 6.46.87 13.12.15 19.68.48 3.34.17 6.63 1.12 9.95 1.71 1.35.24 2.72.73 4.04.61 5.87-.54 11.24 1.02 16.67 3.05 6.23 2.33 12.74 3.9 19.02 6.11 2.74.97 5.61 2.3 7.67 4.25 1.75 1.65 2.91 4.32 3.47 6.74.75 3.22 1.3 6.26 3.52 8.99 1.09 1.34 1.46 3.72 1.29 5.55-.77 8.11-1.85 16.19-2.81 24.28-.06.52-.02 1.06.02 1.59.51 6.47 2.21 8.49 8.71 8.94 6.86.48 13.76.36 20.64.61 2.94.11 5.98.13 8.77.92 1.33.37 2.17 2.46 3.23 3.76-1.12.75-2.15 1.71-3.38 2.18-1.04.4-2.31.15-3.46.33-6.56 1.06-13.08 2.45-19.67 3.17-5.14.56-10.49 1.08-15.51.2-4.17-.73-8.2-3.19-11.84-5.57-1.4-.91-2.07-3.73-2.16-5.71-.62-13.87-1.09-27.75-1.4-41.63-.08-3.53-1.65-5.74-4.76-6.64-8.02-2.33-16.08-4.58-24.21-6.48-2.81-.66-5.89-.35-8.84-.2-3.74.19-4.95 1.17-5.18 5.46-.51 9.4-.69 18.85-.41 28.27.23 7.77.45 15.44-1.49 23.05-.43 1.68-.22 3.53-.29 5.31-.2 5.69-.16 11.39-.63 17.05-1.08 13.06-.32 25.99 1.05 39.01 1.1 10.4 1.02 20.97.91 31.45-.16 14.29-.9 28.58-1.29 42.87-.12 4.65.13 9.31.15 13.96.01 2.64 1.32 4.1 3.85 4.58 1.14.22 2.27.55 3.41.66 4.61.42 9.24 1.15 13.84 1.03 3.3-.09 6.59-1.28 9.83-2.18.41-.11.62-1.41.7-2.19 1.15-10.62 2.18-21.25 3.43-31.86.5-4.2 2.78-6.35 6.27-6.27 1.11.03 2.46.56 3.24 1.33 1.69 1.66 3.46 1.92 5.05.39 7.58-7.25 17.11-8.24 26.86-8.63 4.13-.17 8.26-.27 12.38-.61 4.21-.34 8.04.58 12.03 1.99 6.36 2.25 12.94 4.01 19.56 5.4 9.22 1.93 17.25 5.72 23.22 13.16.81 1.01 1.33 2.68 1.18 3.96-.78 6.73 1.07 13.03 2.87 19.34.37 1.31.97 2.58 1.6 3.79 2.21 4.23 2.96 4.47 7.42 2.65 1.54-.63 3.1-1.2 4.96-1.92v22.42c.14-.01.28-.02.41-.03-.36-2.13-.56-4.31-1.16-6.38-.27-.94-1.18-2.03-2.07-2.4-3.37-1.4-9.29 1.99-9.95 5.51-1.85 10-3.67 20-5.58 29.98-.97 5.05-2.1 5.95-7.1 6.93-.96.19-2.11 1.06-2.56 1.93-5.33 10.41-14.18 14.06-25.38 13.94-3.83-.04-7.84.52-11.46 1.75-7.1 2.41-14 1.38-20.99-.04-2.91-.59-5.81-1.28-8.75-1.58-2.04-.2-4.13.25-6.21.31-5.24.16-10.49.28-15.73.35-.46.01-1.02-.35-1.36-.7-5.99-6.06-11.6-12.27-13.48-21.08-1.8-8.44-3.47-16.82-1.86-25.48.13-.72.08-1.48.1-2.22.15-6.83-1.14-8.15-7.79-7.69-5.92.41-11.82 1.05-17.75 1.32-2.22.1-3.29 1-3.78 2.98-.86 3.48-1.68 6.98-2.59 10.45-.69 2.65-1.49 5.27-1.45 7.76.36.92 1.12 1.89 1 2.74-.65 4.6-1.31 9.22-2.36 13.74-1.34 5.75-3.05 11.41-4.57 16.97-2.38.45-3.63-.07-3.6-2.44.02-2-.75-4.24-.08-5.95 1.43-3.67.7-6.69-1.13-9.9-.79-1.38-1.14-3.19-1.16-4.81-.1-9.86-.1-19.72-.02-29.59.02-2.61-1.16-3.57-3.58-3.76-6.32-.5-12.64-1.1-18.95-1.65-.74-.06-1.48-.12-2.22-.12-5.13-.04-5.38.16-6.99 5.69 1.83 1.21 4.04 2.21 5.58 3.84 1.25 1.33 1.95 3.36 2.36 5.2.13.6-1.3 2.05-2.22 2.26-1.18.28-2.68-.02-3.82-.56-3.51-1.65-3.8-1.62-5.36 1.95-3.14 7.18-6.29 14.35-9.4 21.54-3.68 8.49-9.39 13.86-19.35 13.67-4.42-.08-8.87.65-13.29 1.18-1.43.17-3.16.49-4.13 1.4-2.48 2.35-4.77 1.21-7.32.39-2.23-.72-4.61-1.04-6.94-1.4-2.99-.47-5.99-.81-8.99-1.18-1.6-.2-3.21-.3-4.81-.53-.78-.11-1.77-.17-2.26-.66-3.63-3.6-8.34-4.88-13.01-6.26-3.2-.95-4.82-2.88-5.33-6.27-1.59-10.47-3.58-20.88-5.11-31.36-.35-2.39.36-5 .89-7.43.97-4.43-1.07-7.22-5.64-7.29-1.69-.03-3.39.21-5.08.15-3.28-.11-5.56-1.63-6.66-5.26 3.37-.21 6.53-.37 9.68-.63 1.89-.16 3.82-.32 5.65-.78 2.45-.61 3.79-2.04 4.12-4.88 1.58-13.57 3.27-27.14 5.29-40.65.46-3.1 1.77-6.53 3.8-8.82 1.97-2.23 5.21-3.82 8.18-4.61 12.73-3.4 25.78-4.94 38.91-3.77 12.19 1.09 23.75 5.17 35.13 9.56.63.24 1.32.81 1.59 1.41 2.14 4.8 4.21 9.64 6.25 14.49.37.87.23 2.07.79 2.71 4.56 5.13 3.58 11.5 3.97 17.52.25 3.91.13 7.85.02 11.77-.06 2.09.45 3.01 2.8 3.05 2.93.05 5.85.93 8.78 1.02 5.65.18 11.31.05 17.83.05 0-6.51-.06-12.81.02-19.11.09-7.17 1.15-14.44.25-21.47-1.03-8.01 1.17-15.71.64-23.59-.24-3.58.43-7.21.29-10.8-.16-4.08-.81-8.14-1.19-12.22-.29-3.15-.71-6.31-.72-9.47-.03-11.11.1-22.21.17-33.32.08-12.37-.2-24.76.37-37.11.3-6.4 2.11-12.72 3.19-19.08.32-1.87.39-3.79.7-5.66.58-3.51 1.22-7.01 1.88-10.51.29-1.55.93-3.08.95-4.62.05-3.36-1.44-5.19-4.72-5.03-8.99.45-18.03.79-26.9 2.13-3.34.51-6.45 1.15-9.86.71-4.92-.63-7.08 1.39-7.55 6.63-.49 5.48-.59 10.99-1.26 16.44-.78 6.32-3.27 11.93-7.53 16.86-1.63 1.89-2.52 4.59-3.19 7.07-.78 2.9-2.39 4.47-5.27 4.55-19.69.6-39.46 1.85-58.01-7.02-1.05-.5-2.13-.95-3.16-1.48-4.09-2.07-4.44-2.75-4.1-7.64zm8.64 124.3c0 1.48-.09 2.64.01 3.77.82 8.87 1.17 17.67-.53 26.55-.97 5.03-.92 10.27-1.16 15.43-.08 1.64.5 3.01 2.65 3.23 9.32.96 18.57.67 27.8-1.02 3.27-.6 4.34-2.04 4.5-5.47.54-11.6 1.51-23.19 2.42-34.77.31-3.91-1-5.53-4.8-5.3-10.25.63-20.6 2.58-30.89-2.42zm175.29 90.67c-.04 0-.07 0-.11 0 0 2.23.12 4.46-.02 6.68-.31 4.93 2.99 7.88 6.53 9.61 6.92 3.39 14.6 4.24 22.28 4.19 1.84-.01 3.73-.7 5.5-1.35 1.92-.71 3.14-2.07 2.78-4.39-.46-2.94-1.16-5.9-1.16-8.85-.01-4.55.38-9.11.79-13.65.35-3.89 1.19-7.75 1.39-11.65.12-2.38-.27-5.33-3.38-5.62-3.44-.32-7.22-.66-10.38.41-3.97 1.33-7.64.91-11.48.44-2.21-.27-4.42-.52-6.62-.88-2.81-.46-4.1.62-4.3 3.51-.52 7.2-1.21 14.37-1.82 21.55zm71.08-24.8c-.01-.12-.01-.24-.02-.36-3.7-.21-7.4-.39-11.1-.64-2.5-.17-3.68.78-4.41 3.35-3.44 12.16-3.69 24.63-3.97 37.1-.03 1.14 1.52 3.33 2.27 3.3 9.75-.35 19.5-1.05 28.4-5.57 1.5-.76 2.8-2.55 3.48-4.16 1.82-4.39 3.5-8.87 4.78-13.45 1.3-4.65 2.37-9.42 2.96-14.21.45-3.6-3.2-6.52-6.88-6.28-5.17.36-10.34.62-15.51.92zm-66.86-29.41c.26 3.58.63 6.95.7 10.32.04 2.01.87 2.96 2.75 3.08 7.15.47 14.3 1.09 21.46 1.27 2.68.07 5.4-.86 8.08-1.41 1.97-.41 2.9-1.6 3.12-3.72.79-7.68 1.85-15.33 2.62-23.02.29-2.9.05-5.86.05-9.03-3.05-.38-5.81-1.23-8.45-.95-5.67.61-11.29 1.71-16.88 2.83-1.26.25-2.67 1.18-3.44 2.22-2.76 3.74-4.43 8.72-10.97 8.31 1.21 1.78 2.54 2.87 3.78 4.04.85.8 2.33 1.92 2.17 2.57-.26 1.06-1.55 1.94-2.55 2.71-.57.42-1.41.46-2.44.78zm-181.97 43.5c0 4.24-.05 8.47.04 12.71.02.98.28 2.13.83 2.91 5.56 7.74 13.98 8.7 22.51 9.18 2.11.12 3.21-1.14 3.63-3.49 1.7-9.57 3.72-19.09 5.5-28.65.3-1.63.19-3.37 0-5.03-.25-2.22-1.36-3.07-3.89-2.86-4.7.39-9.45.33-14.18.19-3.38-.1-6.74-.67-10.11-.93-2.96-.23-4.31 1.03-4.33 3.91-.01 4.01 0 8.04 0 12.06zm235.63-64.42c-.15 3.08-.5 5.61-.37 8.12.41 7.59.97 15.18 1.57 22.75.16 2.06 1.42 3.03 3.61 3.16 3.16.2 6.3.89 9.46 1.1 5.9.39 11.8.67 17.71.81 2.46.06 3.69-1.13 3.55-3.96-.26-5.07-.37-10.19.02-15.25.3-3.93-1.52-6.19-4.52-7.92-9.45-5.43-19.86-7.48-31.03-8.81zm-159.99 10.19c-.09-.02-.19-.03-.28-.05-.07-1.37-.16-2.75-.21-4.12-.24-6.8-1.57-12.76-9.8-14.08-1.73-.28-3.29-1.47-5.01-1.93-2.23-.59-4.52-1.05-6.81-1.19-2.14-.13-3.6.96-3.64 3.39-.19 12.16-.47 24.31-.52 36.47 0 1.13 1.38 3.22 2.16 3.24 5.46.12 10.97.16 16.37-.49 3.09-.37 5.39-2.42 5.71-6.19.44-5.03 1.33-10.03 2.03-15.05zm-29.75 45.95c.16.03.33.06.49.09-.49 2.23-.93 4.48-1.49 6.69-1.81 7.17-3.85 14.3-5.41 21.52-.85 3.94 0 4.84 3.87 5.84 1.21.31 2.54.16 3.76.44 1.71.39 3.72.56 4.99 1.59 2.22 1.79 3.33.75 4.11-1.09.65-1.52.83-3.25 1.12-4.9.39-2.28.36-4.68 1.07-6.86 2.26-6.94 4.77-13.8 7.19-20.68.77-2.19 1.73-4.34 2.33-6.57.92-3.44-.36-5.43-3.88-5.46-4.62-.03-9.26.3-13.86.79-2.39.25-4.03 1.78-4.1 4.48-.05 1.38-.13 2.75-.19 4.12zm176.47-29.77c4.15-2 3.91-5.05 3.24-8.21-.2-.95-1.77-1.61-3.24-2.85zm-34.07-153.61c.64.07 1.28.13 1.93.2.19-2.08.38-4.16.57-6.25-.48-.05-.97-.11-1.45-.16-.35 2.07-.7 4.14-1.05 6.21z"/><path d="m33.88 310.39c.59 1.75 1.65 3.49 1.7 5.25.16 5.68.02 11.37-.2 17.05-.03.88-1.13 1.72-1.74 2.58-.57-.88-1.55-1.72-1.64-2.65-.28-2.72-.38-5.48-.23-8.21.25-4.63.74-9.24 1.13-13.86.32-.05.65-.1.98-.16z"/><path d="m33.59 143.91c2.51 2.16 2.24 4.59 1.27 7.02-.15.37-1.55.72-1.84.46-1.41-1.2-1.08-5.87.57-7.48z"/><path d="m32.96 138.37c.21-3.21.39-5.92.59-8.96 2.48 2.88 2.33 7.03-.59 8.96z"/></g></svg>