<svg enable-background="new 0 0 400 400" viewBox="0 0 400 400" xmlns="http://www.w3.org/2000/svg"><path d="m378.6 9.2.8-1c.9.7 1.9 1.4 2.9 2.3l-.9 1.1c-1.1-.9-2-1.7-2.8-2.4zm.5 10.7c.9-2.1 1.6-4.3 2.3-6.7.4.2.8.4 1.3.6-.7 2.1-1.5 4.3-2.2 6.6zm.4-15.2.9-.9c1 .8 2 1.6 2.8 2.4l-1 1c-1-.9-1.9-1.8-2.7-2.5zm12.5-1.3h1.2v1.4h2.7v1.1h-2.7v2.7h-1.2v-.5h-1.8v1.3h4.9v3.8h-1.2v-.5h-3.7c0 .4-.1.9-.1 1.2h5.1v1h-5.2c0 .5-.1.9-.2 1.2h6v1h-5.2c1.1 1.3 2.9 2 5.5 2.2-.4.4-.7.8-.9 1.3-2.9-.5-4.8-1.6-5.7-3.5h-.1c-.8 1.7-2.7 2.9-5.9 3.6-.2-.4-.6-.8-.9-1.1 2.8-.6 4.6-1.4 5.4-2.5h-4.8v-1h5.3c.1-.3.2-.7.2-1.2h-4.9v-1h5c0-.4 0-.8.1-1.2h-3.6v.5h-1.2v-3.8h4.9v-1.3h-1.8v.5h-1.2v-2.7h-2.6v-1.1h2.6v-1.4h1.2v1.4h4.7v-1.4zm-6.7 8.4h3.6c0-.4 0-.9 0-1.4h-3.6zm1.9-4.7h4.7v-1.2h-4.7zm6.7 3.3h-3.7v1.4h3.7z" fill="#fafbfc"/><path d="m384.7 21.4h1.3v2.2h2.8v-2.2h1.3v2.2h4.1v9.1h1.7v1.3h-16.9v-1.3h1.7v-9.1h4.1v-2.2zm.3 13.2.7 1.2c-1.8.9-3.8 1.9-6 2.9-.2-.4-.5-.8-.8-1.3 2.4-1 4.4-2 6.1-2.8zm-3.1-6.5h2.8v-3.2h-2.8zm0 4.6h2.8v-3.3h-2.8zm4.1-4.6h2.8v-3.2h-2.8zm0 4.6h2.8v-3.3h-2.8zm3.6 1.9c2.1.9 4.1 1.8 6.1 2.7l-.7 1.3c-2.2-1.1-4.2-2-6.1-2.9zm3.3-9.7h-2.8v3.2h2.8zm-2.8 7.8h2.8v-3.3h-2.8z" fill="#fafbfc"/><path d="m258.31 130.89c.91 10.13-2 18.93-7.65 26.79-8.05 11.19-16.79 21.73-26.88 31.29-7.8 7.39-14.16 16.29-21.08 24.6-.59.71-.74 1.95-.74 2.95-.04 18.66-.94 37.39.27 55.97.89 13.57.04 26.9-1.28 40.24-.87 8.7-3.15 17.27-5.01 25.86-.36 1.68-1.49 3.3-2.6 4.69-2.63 3.29-2.69 6.97-2.19 10.84.22 1.68.39 3.37.47 5.06.24 4.72-1.21 6.38-6.81 7.14-.33-3.3-.87-6.59-.96-9.89-.28-10.26-.36-20.52-.59-30.77-.05-2.43-.24-4.88-.63-7.28-2.17-13.32-.83-26.79-1.66-40.19-1.18-18.92-1-37.93-1.27-56.9-.05-3.81-1.43-6.9-3.48-9.99-2.61-3.94-5.06-8.03-7.15-12.26-4.3-8.73-8.11-17.71-12.51-26.39-5.19-10.24-9.52-20.74-12.29-31.92-1.02-4.13-3.28-7.95-4.98-11.9-.08-.19-.24-.35-.35-.53-3.49-5.78-2.03-9.17 4.58-10.71 2.41-.56 3.69.57 4.71 2.63 5.41 10.91 10.89 21.78 16.39 32.65 2.82 5.57 5.62 11.16 8.68 16.61 1.25 2.22 3.16 4.07 4.77 6.09.31-.12.61-.25.92-.37.1-1.09.26-2.17.3-3.26.35-10.17.72-20.34.99-30.52.04-1.33-.3-2.72-.69-4.01-2.42-8.1-5.72-16.04-7.14-24.31-1.34-7.79-3.71-15.07-6.03-22.54-3.22-10.36-5.05-21.18-7.04-31.89-.92-4.92-3.53-7.73-7.99-9.25-3.03-1.03-6.05-1.97-7.18-5.56-1.22-3.9-.79-4.6 2.94-5.98 10.18-3.75 20.41-3.25 30.96-1.65 5.86.89 12.02-.23 18.05-.37 1.57-.03 3.15.18 4.71.39 4.8.63 9.58 1.74 14.39 1.89 6.98.21 13.22 2.82 19.52 5.18 1.56.59 3.17 2.41 3.74 4.02 1.3 3.71.94 5.85-3.2 6.6-3.53.64-7.1 1.33-10.67 1.48-2.95.12-4.47 1.45-5.16 4.06-1.99 7.56-4.14 15.09-5.88 22.72-4.75 20.85-9.2 41.77-14 62.61-1.86 8.08-1.06 15.97.33 23.95.76 4.38 1.22 8.81 1.87 13.2.11.77.53 1.49.8 2.24.84-.32 1.82-.46 2.48-.99.97-.79 2.07-1.72 2.49-2.83 1.49-3.9 4.63-6.27 7.71-8.65 4-3.1 6.84-7.08 9.86-11.07 3.03-4 7.07-7.23 10.67-10.79 5.11-5.04 10.29-10.02 15.33-15.13 1.96-2.02 3.87-3.89 7.16-3.85zm-85.35-77.45c.34 1.05.67 2.03.97 3.02 3.14 10.19 6.19 20.4 9.46 30.55 1.49 4.6 3.37 9.08 5.21 13.57.35.86 1.6 2.18 1.99 2.05 1.07-.38 2.34-1.25 2.73-2.24.76-1.93.93-4.09 1.42-6.14 1.1-4.6 1.71-9.41 3.49-13.73 2.66-6.47 3.84-13.14 4.07-19.97.15-4.4-1.97-6.25-6.29-6.81-4.59-.59-9.26-.81-13.74-1.84-3.34-.79-6.2-.72-9.31 1.54z" fill="#010104"/></svg>