<svg enable-background="new 0 0 400 400" viewBox="0 0 400 400" xmlns="http://www.w3.org/2000/svg"><path d="m378.6 9.2.8-1c.9.7 1.9 1.4 2.9 2.3l-.9 1.1c-1.1-.9-2-1.7-2.8-2.4zm.5 10.7c.9-2.1 1.6-4.3 2.3-6.7.4.2.8.4 1.3.6-.7 2.1-1.5 4.3-2.2 6.6zm.4-15.2.9-.9c1 .8 2 1.6 2.8 2.4l-1 1c-1-.9-1.9-1.8-2.7-2.5zm12.5-1.3h1.2v1.4h2.7v1.1h-2.7v2.7h-1.2v-.5h-1.8v1.3h4.9v3.8h-1.2v-.5h-3.7c0 .4-.1.9-.1 1.2h5.1v1h-5.2c0 .5-.1.9-.2 1.2h6v1h-5.2c1.1 1.3 2.9 2 5.5 2.2-.4.4-.7.8-.9 1.3-2.9-.5-4.8-1.6-5.7-3.5h-.1c-.8 1.7-2.7 2.9-5.9 3.6-.2-.4-.6-.8-.9-1.1 2.8-.6 4.6-1.4 5.4-2.5h-4.8v-1h5.3c.1-.3.2-.7.2-1.2h-4.9v-1h5c0-.4 0-.8.1-1.2h-3.6v.5h-1.2v-3.8h4.9v-1.3h-1.8v.5h-1.2v-2.7h-2.6v-1.1h2.6v-1.4h1.2v1.4h4.7v-1.4zm-6.7 8.4h3.6c0-.4 0-.9 0-1.4h-3.6zm1.9-4.7h4.7v-1.2h-4.7zm6.7 3.3h-3.7v1.4h3.7z" fill="#fafbfc"/><path d="m384.7 21.4h1.3v2.2h2.8v-2.2h1.3v2.2h4.1v9.1h1.7v1.3h-16.9v-1.3h1.7v-9.1h4.1v-2.2zm.3 13.2.7 1.2c-1.8.9-3.8 1.9-6 2.9-.2-.4-.5-.8-.8-1.3 2.4-1 4.4-2 6.1-2.8zm-3.1-6.5h2.8v-3.2h-2.8zm0 4.6h2.8v-3.3h-2.8zm4.1-4.6h2.8v-3.2h-2.8zm0 4.6h2.8v-3.3h-2.8zm3.6 1.9c2.1.9 4.1 1.8 6.1 2.7l-.7 1.3c-2.2-1.1-4.2-2-6.1-2.9zm3.3-9.7h-2.8v3.2h2.8zm-2.8 7.8h2.8v-3.3h-2.8z" fill="#fafbfc"/><path d="m288.27 204.78c-2.64-2.12-2.84-4.73-1.79-7.92.59-1.79.16-3.94.13-5.92-.07-3.76 0-7.53-.35-11.27-.35-3.75-.94-7.29-.15-11.22.81-4.01-.18-8.42-.62-12.63-.11-1.03-1.04-2.04-1.76-2.92-1.67-2.01-3.44-3.93-5.28-6.01-1.85 1.56-4.13.31-5.89-1.32-4.45-4.16-8.65-8.59-13.54-13.51-1.2-.05-2.9.65-4.07 2.86-.64 1.21-1.88 2.26-3.09 3-4.97 3.04-10.05 5.9-15.04 8.91-3.55 2.14-7.33 3.47-11.29 4.75-4.53 1.46-8.48 4.65-12.76 6.95-1.34.72-2.96 1.47-4.39 1.36-3.52-.27-6.47.63-8.96 3.06-3.92 3.8-9.22 3.93-14.02 5.43-2.29.72-4.47 1.79-6.72 2.68-4.48 1.77-9.02 3.4-13.45 5.3-9.05 3.88-18.02 7.94-27.07 11.82-2.41 1.04-4.99 1.7-7.49 2.52-1.7.56-3.7.7-5.05 1.72-3.95 2.95-8.15 4.74-13.15 4.67-.74-.01-2.02 1.06-2.13 1.77-.4 2.57-.38 5.21-.58 7.82-.23 3.13-.2 6.33-.87 9.36-.61 2.79-1.27 5.25-.45 8.28.71 2.6-.01 5.67-.39 8.49-1.21 8.99-1.12 18.13-4.04 26.95-1.27 3.85-.42 8.36-.86 12.54-1.17 10.98-3.54 21.71-7.06 32.2-1 2.97-1.27 6.19-2.09 9.23-.42 1.56-1.32 3-2.01 4.49-.4-.12-.8-.25-1.2-.37.12-2.67.18-5.34.36-8.01.52-7.4 1.36-14.79 1.55-22.2.18-6.76-.37-13.54-.46-20.31-.03-2.32.4-4.64.55-6.96.68-10.4 1.21-20.81 2.02-31.19.78-9.93 1.91-19.83 2.73-29.76.31-3.69.14-7.41.26-11.11.27-8.57.66-17.13.85-25.7.09-4.32-.3-8.65-.19-12.97.08-3.32.15-6.75 1.02-9.91.79-2.89 1.01-5.5.15-8.35-.98-3.24-1.82-6.53-2.57-9.83-.34-1.51-.33-3.1-.48-4.59 5.48-1.37 5.65-1.36 8.25 2.9 2.23 3.64 5.16 6.89 5.01 11.71-.08 2.65 3.21 4.15 5.91 3.01 14.04-5.93 28.06-11.91 42.09-17.88.29-.12.57-.36.87-.38 4.19-.34 7.88-1.12 11.58-3.93 3.44-2.61 8.43-3.15 12.7-4.7 4.18-1.51 8.32-3.12 12.48-4.7 2.47-.94 4.9-2.02 7.42-2.78 1.64-.5 3.43-.5 5.13-.8.98-.17 2.04-.32 2.87-.8 3.42-2 6.77-4.12 10.59-6.47-.47-1.07-1.04-2.89-2-4.46-7.08-11.57-14.31-23.05-21.32-34.65-1.57-2.59-4.18-2.07-6.29-3.03-1.39-.63-2.66-1.52-3.92-2.25-5.78.36-11.85.71-17.91 1.12-5.16.36-9.95-.65-14.82-2.53-3.74-1.45-8.07-1.32-12.09-2.12-1.2-.24-2.36-1.15-3.29-2.02-.3-.28-.07-1.81.35-2.08 2.01-1.29 4.07-2.62 6.3-3.44 7.57-2.81 14.89-1.1 22.28 1.2 2.9.9 6.18.62 9.29.78 5.44.27 10.88.5 16.32.64 1.57.04 3.14-.41 4.71-.47 2.16-.07 4.45-.42 6.48.11 8.31 2.19 16.61 4.68 25.3 3.52 18.87-2.52 37.49 2.56 56.29 1.52 2.85-.16 5.73-.43 8.57-.25 4.76.31 7.9 1.03 7.19 7.34-.4 3.58.46 7.3.61 10.96.13 3.14.72 6.48-.07 9.4-2.34 8.63-1.71 17.47-2.37 26.2-.51 6.83.41 13.78-.27 20.58-.64 6.45-.33 12.64 1.17 18.88.26 1.09.4 2.43.01 3.42-1.56 4.02-.86 7.86.35 11.77.56 1.8 1.4 3.78 1.14 5.54-1.35 9.05.04 17.99.91 26.92 1.11 11.44-1.15 22.59-2.28 33.85-.61 6.1-.35 12.27-.72 18.4-.34 5.69-1.08 11.36-1.47 17.05-.26 3.77-.14 7.57-.32 11.35-.43 8.95-1.23 17.9-1.33 26.86-.13 11.12.38 22.24.44 33.36.02 3.23-.13 6.57-.93 9.67-2.5 9.63-5.32 19.17-8.08 28.72-.7 2.45-.8 2.42-3.9 1.99-.27-6.27-.47-12.61-.87-18.94-.12-1.85-.84-3.65-1.26-5.48-.33-1.42-.89-2.84-.91-4.27-.26-20.14-.95-40.3-.34-60.42.18-6.11-.89-12.26-.02-18.15 1.69-11.37-.3-22.78 1.35-34.08.82-5.61 1.56-11.24 2.52-16.83.18-1.04 1.23-1.92 1.99-3.04zm-156.99-21.95c.32.05.64.1.96.14.26-1.24.33-2.56.82-3.71.53-1.23 1.18-2.83 2.23-3.34 9.04-4.38 18.03-8.95 27.34-12.71 14.92-6.01 29.79-12.04 44.31-19.01 11.99-5.75 24.44-10.53 36.67-15.77.86-.37 1.71-.86 2.43-1.46 2.18-1.84 2.23-3.62.19-5.66-2.1-2.1-4.32-4.08-6.36-6.22-3-3.14-5.93-6.35-8.82-9.6-1.75-1.97-3.3-2.3-5.65-.65-2.57 1.79-5.45 3.28-8.39 4.36-17.87 6.57-35.72 13.24-53.74 19.36-8.65 2.94-17.12 6.9-26.6 6.92-1.25 0-2.47 1.13-3.76 1.53-2.98.92-5.99 1.73-9 2.55-.36.1-1.06-.14-1.12-.01-1.79 4.02-5.74 2.85-8.82 3.78-.89.27-2.19.87-2.35 1.55-.72 2.97-1.9 6.16-1.41 9.01 1.12 6.5.16 12.87 0 19.3-.11 4.49.27 9 .45 14.04 7.56-1.62 13.32-5.19 19.03-9.11.58 1.73 1.08 3.22 1.59 4.71zm83.35-130.55c-1.14 1.92-.52 3.77 1.96 5.66 2.32 1.77 4.38 4.01 6.15 6.34 7.74 10.21 15.3 20.56 23.02 30.79 1.71 2.26 3.73 4.3 5.75 6.3 2.37 2.35 5.46 4.08 6.11 7.81.11.63.8 1.26 1.37 1.69 3.2 2.41 6.43 4.78 9.67 7.13 3.66 2.66 7.35 5.29 11.03 7.93.95.68 1.94 1.3 2.91 1.95.48-1.07 1.02-2.12 1.4-3.23.2-.58.12-1.26.12-1.89.13-9.84.37-19.67.33-29.51-.03-8.13-.5-16.26-.59-24.4-.04-3.05.46-6.11.65-9.17.12-1.92-.7-2.83-2.8-2.87-4.55-.09-9.09-.35-13.63-.67-17.69-1.25-35.38-2.55-53.45-3.86z" fill="#010104"/></svg>