<svg enable-background="new 0 0 400 400" viewBox="0 0 400 400" xmlns="http://www.w3.org/2000/svg"><path d="m362.1 8.8c1.1.8 2.1 1.6 3.1 2.4l-1 1.1c-1.3-1.1-2.3-2-3-2.5zm1.9 4.8c.5.2.9.4 1.4.5-.6 2.3-1.3 4.5-1.9 6.8l-1.5-.5c.8-2.1 1.4-4.3 2-6.8zm-1-9.4c1.3.9 2.4 1.8 3.4 2.5l-1 1.1c-1.4-1.2-2.4-2.1-3.2-2.6zm3.7 2.2v-1.4h10.3v1.2c-.5 3.6-1.8 6.8-4 9.4 1.5 1.6 3.4 2.8 5.7 3.8-.3.4-.7.8-1.1 1.4-2.3-1.1-4.1-2.5-5.6-4.1-1.6 1.6-3.6 3.1-5.9 4.3-.3-.5-.7-.9-1-1.3 2.4-1.1 4.4-2.5 6-4.1-1.9-2.5-3-5.6-3.3-9.3h-1.1zm8.8 0h-6.4c.3 3.3 1.3 6 3 8.2 2-2.3 3.1-5.1 3.4-8.2z" fill="#fbfcfa"/><path d="m385.3 3.8h1.3v2.2h2.8v-2.2h1.3v2.2h4.1v9.1h1.7v1.3h-16.9v-1.3h1.7v-9.1h4.1v-2.2zm.4 13.1.7 1.2c-1.8.9-3.8 1.9-6 2.9-.2-.4-.5-.8-.8-1.3 2.3-1 4.3-1.9 6.1-2.8zm-3.1-6.4h2.8v-3.2h-2.8zm0 4.6h2.8v-3.3h-2.8zm4-4.6h2.8v-3.2h-2.8zm0 4.6h2.8v-3.3h-2.8zm3.7 1.9c2.1.9 4.1 1.8 6.1 2.7l-.7 1.3c-2.2-1.1-4.2-2-6.1-2.9zm3.2-9.7h-2.8v3.2h2.8zm-2.8 7.8h2.8v-3.3h-2.8z" fill="#fbfcfa"/><g fill="#010101"><path d="m230.36 123.67c4.36 6.68 4.47 13.9 3.57 21.24-.92 7.46-3.4 14.39-7.51 20.71-.46.71-.88 1.45-1.31 2.18-6.98 11.69-7.01 11.51-20.56 13.42-3.86.54-7.77 2.05-11.17 3.97-1.8 1.01-3.14 3.71-3.67 5.9-1.6 6.58-2.77 13.26-3.97 19.93-1.52 8.48-5.53 15.92-9.37 23.49-1.44 2.84-1.87 6.18-3.03 9.19-.46 1.2-1.44 2.5-2.54 3.04-.75.37-2.45-.16-3.15-.86-9.35-9.41-17.24-19.86-21.42-32.62-1.13-3.44-1.49-7.27-1.48-10.92.01-4.39-1.52-7.93-3.93-11.42-.82-1.19-1.11-3.13-.86-4.6.85-5 2.19-9.92 3.07-14.92.4-2.28 1.46-3.1 3.94-2.9 1.26 3.08 2.75 6.23 3.83 9.51.93 2.8 2.85 4.02 5.48 3.83 3.99-.28 7.96-.94 11.92-1.51 1.36-.2 2.67-.88 4.02-.9 5.06-.07 7.1-3.43 7.75-7.58 1.13-7.18 1.85-14.43 2.59-21.67.95-9.25 1.74-18.51 2.62-27.76.04-.39.24-.77.54-1.71 3.1 4.26 4.59 8.72 5.08 13.37 1.1 10.44 1.71 20.91-.48 31.32-.22 1.03-.35 2.11-.32 3.16.13 4 3.22 6.44 7.13 5.82 5.12-.81 10.25-1.63 15.4-2.27 2.33-.29 3.82-1.2 4.74-3.47 4.92-12.12 9.31-24.33 8.84-37.71-.11-3.14.32-6.02 4.25-7.26zm-66 103.82c2.42-1.8 5.42-2.84 5.96-4.63 3.09-10.31 5.62-20.79 8.27-31.23.16-.65-.11-1.96-.51-2.11-2.24-.86-4.75-2.37-6.86-1.99-5.88 1.06-11.6 2.94-17.65 4.57 3.58 11.73 7.05 23.11 10.79 35.39z"/><path d="m231.09 365.58c0-10.25-.23-20.19.05-30.11.49-17.49 1.6-34.95 5.59-52.07.72-3.09 1.57-6.15 2.29-9.24.53-2.26 1.44-4.57 1.31-6.81-.35-6.28 1.1-12.13 3.07-18 3.23-9.63 6.16-19.37 9.22-29.06.31-.98.69-1.94 1.1-3.08 3.14 1.27 4 3.95 4.57 6.57 1.02 4.65 1.41 9.46 2.67 14.03.96 3.48 2.35 7.06 4.42 9.99 11.93 16.88 24.11 33.58 36.2 50.34.67.93 1.3 1.9 1.95 2.85-.17.26-.33.53-.5.79-2.05-1.06-4.37-1.8-6.11-3.24-6.87-5.66-13.67-11.42-20.28-17.38-5.06-4.57-9.21-9.93-12.12-16.19-1.45-3.12-3.76-5.34-7.81-6.51-.73 2.21-1.96 4.4-2.12 6.65-1.13 16-5.85 31.22-10.31 46.43-4.07 13.89-5.87 28.13-8.22 42.31-.69 4.23-1.68 8.48-4.97 11.73z"/><path d="m276.86 39.73c4.89 3.89 5.22 9.1 4.62 14.1-.97 8.06-2.68 16.04-4.13 24.05-1.55 8.54-2.85 17.14-4.87 25.58-.95 4-3.34 7.64-5 11.48-.74 1.72-1.62 3.48-1.85 5.3-1.04 8.2-2.22 16.4-2.68 24.63-.44 7.88 4.19 13.59 9.9 18.25 4.75 3.88 10.19 6.92 14.87 10.87 7.43 6.29 14.55 12.96 21.64 19.64 1.39 1.31 2.32 3.27 3.03 5.1.95 2.44 2.45 4 4.84 5.06 4.27 1.9 4.29 2.14 3.18 7.28-2.45-.94-4.98-1.61-7.2-2.83-4.72-2.61-9.2-5.68-13.94-8.25-9.19-5-17.13-11.36-24.37-19.02-5.17-5.47-11.87-9.51-18.01-14.03-1.81-1.33-2.55-2.64-2.44-4.96.36-7.71.18-15.45.69-23.14.54-8.13 1.62-16.22 2.53-24.32.09-.78.51-1.6.99-2.25 2.32-3.17 3.97-6.66 3.58-10.61-1.31-13.31 3.38-25.44 7.13-37.76 2.45-7.98 4.94-15.94 7.49-24.17z"/><path d="m75.33 283.56c.46-2.37.31-4.8 1.36-6.51 7.23-11.82 14.63-23.55 22.26-35.12.63-.96 3.37-.52 5.6-.8.34-2.51.53-5.45 1.19-8.29.49-2.06 1.21-4.3 2.52-5.89 4.64-5.64 9.57-11.03 14.4-16.53 2.92.67 4.44 2.7 4.58 5.19.25 4.62.53 9.37-.23 13.89-3.91 23.38-4.96 46.97-6.28 70.58-.65 11.6-2.83 23.12-4.37 34.67-.09.67-.65 1.27-1.71 1.69-.05-1-.14-2-.14-2.99-.01-6.47-.14-12.94.04-19.41.12-4.42-.29-8.6-2.55-12.53-.63-1.1-.76-2.65-.67-3.96.98-13.73 2.08-27.46 3.09-41.19.36-4.84.98-9.8-3.38-13.71-5.25 5.24-10.48 10.35-15.54 15.62-.84.87-1.11 2.46-1.29 3.77-.97 7.35-11.42 19.67-18.88 21.52z"/><path d="m90.83 177.8c1.41-3.78 2.41-7.79 4.32-11.3 5.64-10.37 13.13-19.42 20.64-28.5 7.03-8.51 13.34-17.62 15.95-28.64 2.4-10.11 4.12-20.34 4.41-30.77.09-3.28.33-6.57.59-9.84.25-3 .26-5.89-1.63-8.51-.42-.58-.58-1.67-.34-2.34 2.65-7.26 5.12-14.53 3.68-22.56.34-.07.69-.13 1.03-.2.77 1.4 1.76 2.72 2.28 4.2 2.27 6.43 3.91 12.99 3.34 19.9-.94 11.41-1.4 22.89-3.02 34.2-1.24 8.65-4.22 17.03-5.96 25.62-2.02 9.98-6.14 18.59-13.13 26.18-6.66 7.23-12.17 15.51-18.63 22.95-3.47 4-7.87 7.19-11.86 10.75-.55-.38-1.11-.76-1.67-1.14z"/><path d="m144.32 153.51c4.02 2.07 3.4 5.22 3.29 8.08-.03.82-.89 1.61-1.37 2.41-.31-.12-.61-.24-.92-.36-.32-3.2-.64-6.41-1-10.13z"/></g></svg>