<svg enable-background="new 0 0 400 400" viewBox="0 0 400 400" xmlns="http://www.w3.org/2000/svg"><path d="m221.39 282.21c-1.83 1.11-3.28 1.84-4.55 2.81-1.85 1.41-3.46 3.13-5.36 4.46-8.98 6.35-18.01 12.64-27.05 18.9-5.32 3.68-7.47 9.16-8.85 15.11-.24 1.03-.23 2.11-.4 3.15-.46 2.81-1.84 3.85-5.33 3.84-.57-14.64-2.82-29.33 1.3-43.85 1.24-4.37 2.82-8.64 4.38-12.91.33-.92 1.16-1.71 1.89-2.42 1.82-1.78 3.79-3.4 5.56-5.22 3.83-3.93 5.4-8.25 4.39-14.1-1.71-9.89-3-19.94-3.3-29.96-.4-13.61.87-27.19 4-40.53.4-1.69.05-3.55.05-5.86 3.05-2 3.97-6.38 5.88-10.06 2.46-4.72 2.13-9.35-.55-14.19-2.59-4.7-3.7-10.01-3.47-15.71 4.28.4 7.32 2.44 8.8 5.86 4.79 11.04 10.9 21.43 14.74 32.98 4.8 14.43 10.86 28.45 16.54 42.58 1.79 4.45 2.78 8.87 1.88 13.63-.1.52-.26 1.11-.1 1.57 1.62 4.53-.64 7.36-4.08 9.82-4.46 3.2-8.96 6.35-13.19 9.83-6.95 5.7-13.49 11.91-20.57 17.43-9.23 7.2-10.56 17.83-13.11 28-.12.49 0 1.06.07 1.58s.22 1.02.49 2.28c1.84-.73 3.66-1.13 5.11-2.1 8.42-5.6 15.05-13.61 24.32-18.08.76-.37 1.46-1.24 2.18-1.23 4.99.09 6.37-3.6 7.86-7.23.24-.58.6-1.1.91-1.66 1.54 0 2.99.08 4.43-.02 2.39-.16 3.65 1.18 3.89 3.27.66 5.71.8 11.5 1.8 17.15.52 2.98 1.99 6 3.75 8.5 2.76 3.91 2.93 8.53 4.03 12.79 3.9 15.15 7.23 30.46 10.68 45.72.41 1.83.37 3.79.33 5.69-.05 2.03-1.48 2.42-2.76 1.31-3.23-2.81-6.86-5.41-6.31-10.65.16-1.52-.52-3.36-1.35-4.73-3.82-6.33-6.67-12.9-7.05-20.45-.12-2.35-1.49-4.62-2.02-6.98-.81-3.58-1.26-7.25-2.11-10.82-.84-3.51-2.07-6.93-2.98-10.43-1.6-6.09-3.07-12.24-4.77-19.07zm-24.03-31.92c9.7-5.33 18.63-10.34 25.68-17.93 1.11-1.2.78-4.17.41-6.19-.43-2.35-1.69-4.54-2.51-6.83-1.81-5.07-3.43-10.2-5.36-15.22-2.65-6.89-5.45-13.73-8.32-20.53-.7-1.65-1.94-3.07-3.07-4.8-11.46 23.07-10.14 46.71-6.83 71.5z" fill="#010000"/><path d="m144.68 65.3c.11-2.01-.06-4.08.4-6.01 1.04-4.32 1.29-8.49-.69-12.64-.34-.72.04-1.81.16-2.72.12-.92.58-1.87.47-2.75-.62-4.95 2.61-7.49 7.43-5.75.49.18 1.08.31 1.43.66 3.95 4.02 8.8 2.97 13.69 2.87 11.94-.25 23.88-.05 35.83 0 2.86.01 5.72.12 8.57.23 4.22.16 5.62 1.62 6.42 5.77 2.19 11.22 3.15 22.43.6 33.72-.33 1.44-.63 2.89-.97 4.33-1.05 4.37-3.21 6.2-7.76 6.32-10.05.26-20.11.4-30.16.67-6.22.17-12.44.61-18.67.67-2.29.02-4.59-.97-6.88-1-4.27-.06-6.02-2.77-6.79-6.25-1.33-5.97-2.33-12.02-3.47-18.03zm66.41-17.1c-1.11-.2-2.31-.55-3.53-.62-10.25-.61-20.51-1.47-30.77-1.63-5.43-.08-10.88 1.06-16.31 1.73-1.91.23-2.52 1.38-2.87 3.39-1.57 8.99.92 18.22-1.79 27.14-.45 1.49.25 2.91 2.37 2.86 8.04-.18 16.1-.08 24.13-.52 5.79-.31 11.51-1.49 17.34-.26 1.6.34 3.39.09 5.05-.17 4.05-.63 4.58-1.38 4.51-5.37-.06-3.69-.19-7.4.04-11.08.17-2.78.94-5.52 1.29-8.3.29-2.15.34-4.35.54-7.17z" fill="#010000"/><g fill="#fafafb"><path d="m361.2 9.6.8-1c.9.7 1.9 1.4 2.9 2.3l-.9 1.1c-1-1-2-1.8-2.8-2.4zm.5 10.6c.9-2.1 1.6-4.3 2.3-6.7.4.2.8.4 1.3.6-.7 2.1-1.5 4.3-2.2 6.6zm.4-15.2.9-.9c1 .8 2 1.6 2.8 2.4l-1 1c-.9-.9-1.8-1.7-2.7-2.5zm12.5-1.2h1.2v1.4h2.7v1.1h-2.7v2.7h-1.2v-.6h-1.8v1.3h4.9v3.8h-1.2v-.5h-3.7c0 .4-.1.9-.1 1.2h5.1v1h-5.2c0 .5-.1.9-.2 1.2h6v1h-5.2c1.1 1.3 2.9 2 5.5 2.2-.4.4-.7.8-.9 1.3-2.9-.5-4.8-1.6-5.7-3.5h-.1c-.8 1.7-2.7 2.9-5.9 3.6-.2-.4-.6-.8-.9-1.1 2.8-.6 4.6-1.4 5.4-2.5h-4.8v-1h5.3c.1-.3.2-.7.2-1.2h-4.9v-1h5c0-.4 0-.8.1-1.2h-3.5v.5h-1.2v-3.8h4.9v-1.3h-1.8v.5h-1.2v-2.7h-2.7v-1h2.6v-1.4h1.2v1.4h4.7v-1.4zm-6.6 8.3h3.6c0-.4 0-.9 0-1.4h-3.6zm1.9-4.6h4.7v-1.3h-4.7zm6.6 3.2h-3.7v1.4h3.7z"/><path d="m385.3 3.8h1.3v2.2h2.8v-2.2h1.3v2.2h4.1v9.1h1.7v1.3h-16.9v-1.3h1.7v-9.1h4.1v-2.2zm.4 13.1.7 1.2c-1.8.9-3.8 1.9-6 2.9-.2-.4-.5-.8-.8-1.3 2.3-1 4.3-1.9 6.1-2.8zm-3.1-6.4h2.8v-3.2h-2.8zm0 4.6h2.8v-3.3h-2.8zm4-4.6h2.8v-3.2h-2.8zm0 4.6h2.8v-3.3h-2.8zm3.7 1.9c2.1.9 4.1 1.8 6.1 2.7l-.7 1.3c-2.2-1.1-4.2-2-6.1-2.9zm3.2-9.7h-2.8v3.2h2.8zm-2.8 7.8h2.8v-3.3h-2.8z"/></g></svg>