<svg enable-background="new 0 0 400 400" viewBox="0 0 400 400" xmlns="http://www.w3.org/2000/svg"><path d="m378.6 9.2.8-1c.9.7 1.9 1.4 2.9 2.3l-.9 1.1c-1.1-.9-2-1.7-2.8-2.4zm.5 10.7c.9-2.1 1.6-4.3 2.3-6.7.4.2.8.4 1.3.6-.7 2.1-1.5 4.3-2.2 6.6zm.4-15.2.9-.9c1 .8 2 1.6 2.8 2.4l-1 1c-1-.9-1.9-1.8-2.7-2.5zm12.5-1.3h1.2v1.4h2.7v1.1h-2.7v2.7h-1.2v-.5h-1.8v1.3h4.9v3.8h-1.2v-.5h-3.7c0 .4-.1.9-.1 1.2h5.1v1h-5.2c0 .5-.1.9-.2 1.2h6v1h-5.2c1.1 1.3 2.9 2 5.5 2.2-.4.4-.7.8-.9 1.3-2.9-.5-4.8-1.6-5.7-3.5h-.1c-.8 1.7-2.7 2.9-5.9 3.6-.2-.4-.6-.8-.9-1.1 2.8-.6 4.6-1.4 5.4-2.5h-4.8v-1h5.3c.1-.3.2-.7.2-1.2h-4.9v-1h5c0-.4 0-.8.1-1.2h-3.6v.5h-1.2v-3.8h4.9v-1.3h-1.8v.5h-1.2v-2.7h-2.6v-1.1h2.6v-1.4h1.2v1.4h4.7v-1.4zm-6.7 8.4h3.6c0-.4 0-.9 0-1.4h-3.6zm1.9-4.7h4.7v-1.2h-4.7zm6.7 3.3h-3.7v1.4h3.7z" fill="#fafbfc"/><path d="m384.7 21.4h1.3v2.2h2.8v-2.2h1.3v2.2h4.1v9.1h1.7v1.3h-16.9v-1.3h1.7v-9.1h4.1v-2.2zm.3 13.2.7 1.2c-1.8.9-3.8 1.9-6 2.9-.2-.4-.5-.8-.8-1.3 2.4-1 4.4-2 6.1-2.8zm-3.1-6.5h2.8v-3.2h-2.8zm0 4.6h2.8v-3.3h-2.8zm4.1-4.6h2.8v-3.2h-2.8zm0 4.6h2.8v-3.3h-2.8zm3.6 1.9c2.1.9 4.1 1.8 6.1 2.7l-.7 1.3c-2.2-1.1-4.2-2-6.1-2.9zm3.3-9.7h-2.8v3.2h2.8zm-2.8 7.8h2.8v-3.3h-2.8z" fill="#fafbfc"/><path d="m149.45 81.98c8.13-.21 11.24 5.87 15.7 9.84 2.03 1.8 4.06 2 5.61.42 2.66-2.71 4.34-1.54 6.17.84 7.65-4.11 15.46-2.11 23.25-.81 7.21 1.2 14.43 2.31 21.61 3.69 3.1.59 5.52-.44 8.05-1.95 2.06-1.23 4.31-2.24 6.61-2.93.73-.22 2.55.75 2.72 1.44 1.63 6.81 2.62 13.65.03 20.52-.65 1.72-.8 3.7-.84 5.57-.06 3.36-.2 6.79.32 10.08.49 3.08 1.66 6.09 2.78 9.04 1.4 3.68 2.78 7.26 1.78 11.37-.29 1.2.21 2.75.74 3.97 5.16 12 6.79 24.47 6.22 37.5-.33 7.67 1.02 15.4 1.24 23.11.08 2.98-.91 5.99-1.35 8.99-.28 1.88-1.08 3.98-.55 5.65 2.17 6.88-.28 13.44-1 20.08-.29 2.63-1.22 5.44-2.65 7.66-5.78 9.02-7.8 19.38-11.02 29.32-1.7 5.24-6.55 12.7-10.36 15.26 2.58 3.56-.07 6.14-2.08 8.73-2.09 2.7-3.37 5.5-3 9.03.12 1.16-.39 2.49-.91 3.61-2.35 5.09-4.92 10.09-7.2 15.21-1.62 3.65-3.55 6.92-6.95 9.23-.72.49-1.4 1.73-1.33 2.57.19 2.32-1.02 3.58-2.52 5.08-2.66 2.68-5.14 5.6-7.38 8.64-1.89 2.58-4.17 3.74-7.8 3.47.94-4.25-1.92-6.53-4.55-8.99-.81-.76-1.78-1.84-1.85-2.83-.28-3.93-2.66-6.36-5.22-9.01-5.49-5.68-10.32-11.92-11.55-20.04-.35-2.34.22-4.82.37-7.24.28.01.57.02.85.04-.08-.19-.13-.51-.25-.54-5.6-1.45-8.42-5.12-9.82-10.71-.74-2.98-2.95-5.73-4.96-8.22-3.97-4.92-6.07-10.75-6.22-16.69-.22-8.6-3.4-15.95-6.92-23.41-.82-1.74-1.12-3.83-1.22-5.79-.3-5.57.66-11.24-1.61-16.65-.33-.8-.23-1.93.04-2.8.96-3.08.76-6.01-.46-8.98-.32-.78-.19-1.86.03-2.72 1.5-5.94 3.19-11.84 4.53-17.81.23-1.01-.65-2.57-1.46-3.46-1.3-1.43-1.86-2.74-.92-4.53.29-.55.4-1.2.57-1.81 1.51-5.59 2.4-11.62 9.91-13.15-5.66-2.01-5.07-6.09-4.24-10.2.69-3.42 1.21-6.93 2.36-10.2 2.66-7.63 3.47-15.42 3.12-23.45-.21-4.87-.31-9.77.01-14.63.88-13.28-1.85-26.15-4.06-39.09-.07-.41-.15-.86-.36-1.21-3.94-6.61-4.89-14.13-6.52-21.45-.18-.83-.38-1.65-.65-2.46-1.95-5.92-3.17-6.78-9.39-6.85-1.58-.02-3.17-.17-4.75-.34-2.54-.29-3.86-1.66-4.27-4.29-.42-2.73-1.09-5.5-4.92-5.45-.58.01-1.19-1.31-2.22-2.54 1.78-.09 2.79-.26 3.79-.17 4.76.42 9.22-.47 13.54-2.53 1.1-.53 2.84-.78 3.84-.28 5.05 2.54 10.4 3.32 15.94 3.72 5.32.39 5.31.58 8.69 4.35 2.28-3.74 5.11-5.42 9.84-4.1 3.11.87 6.72-.07 10.11-.18 3.44-.1 6.81-.71 10.1 1.46 1.45.96 4.24 1.25 5.78.5 9.22-4.46 18.45-2.26 27.73-.63.52.09 1.06.26 1.57.2 11.77-1.5 23.26 2.17 35.09 1.7 9.06-.35 18.23 2.01 27.33 3.36 1.14.17 2.75 1.38 2.99 2.39.52 2.11-1.09 3.26-3.09 3.57-2.71.42-5.44 1-8.16 1.04-8.67.13-17.33.05-25.76.05-.42 5.78-.26 10.79-1.27 15.55-1.1 5.21-3.11 10.25-5.06 15.23-.74 1.89-2.24 3.67-4.94 2.01-.54-.33-1.76.26-2.6.6-2.36.98-3.95.37-3.9-2.19.06-2.77.68-5.65 1.67-8.25 1.08-2.84 2.96-5.37 4.32-8.12.98-1.98 1.87-4.05 2.47-6.17 1.98-6.92-.75-10.15-7.79-10.4-9.83-.35-19.7.24-29.54.81-7.55.44-15.02.85-22.39-1.36-1.18-.35-2.62-.63-3.73-.28-7.36 2.31-14.92 1.5-22.42 1.62-4.02.06-5.69 2.17-4.91 6.24.53 2.78.86 5.61 1.47 8.37.18.8.89 1.58 1.55 2.15 2.88 2.52 2.85 3.39.81 6.51-1.07 1.69-1.42 3.84-2.36 6.5zm3.32 86.88c0 4.8.05 9.25-.01 13.69-.07 5.51-1.22 10.7-4.51 15.3-.6.84-.78 2.16-.75 3.25.09 3.18.33 6.35.61 9.52.44 5.1.4 10.09-1.38 15.03-2.56 7.11-2.1 14.4-.48 21.62 1.33 5.88 3.12 11.66 4.4 17.56.47 2.17.51 4.64-.05 6.77-.61 2.34-.24 4.05 1.16 5.85 7.64 9.82 12.01 21.36 17.02 32.56.34.75.65 1.66.54 2.43-.37 2.58.83 4.47 2.41 6.26 6.45 7.31 11.37 15.49 14.33 24.82.6 1.89 1.51 3.67 2.29 5.54 3.7-1.51 5.4-4.19 6.42-7.65 1.09-3.71 2.15-7.57 4.11-10.83 1.81-3 3.96-5.62 4.05-9.36.02-1.05.82-2.11 1.34-3.13 3.04-6.02 6.8-11.79 8.98-18.11 2.67-7.73 5.58-15.24 9.29-22.53 5.31-10.43 11.02-20.79 12.02-32.85.27-3.27.85-6.51 1.25-9.77.85-6.94 2.38-13.87 2.37-20.81-.03-11.65-.99-23.3-1.68-34.94-.24-4.05.2-8.31-2.77-11.79-.49-.58-.54-1.59-.67-2.42-1.15-7.22-2.35-14.43-3.37-21.67-.29-2.05-.09-4.18-.04-6.27.08-3.11 1.31-6.74.12-9.23-2.87-6-3.56-11.78-1.52-18 .09-.28.01-.61.01-1.07-.54-.26-1.07-.65-1.65-.78-5.17-1.1-10.34-2.26-15.55-3.18-5.82-1.02-11.56-2.09-17.5.31-3.1 1.25-6.77 1.35-10.2 1.5-5.6.24-11.23-.08-16.83.18-4.45.21-5.05.85-4.76 5.11.82 12.02-1.08 23.59-4.78 34.99-.95 2.93-.93 6.21-1.14 9.34-.18 2.7-.04 5.42-.04 8.15-2.64.48-5.08.93-7.51 1.37-.1 3.44 2.4 2.92 4.47 3.24zm-1.03-65.05c1.73-.24 2.81-.38 4.39-.6-1.17-1.5-2.05-2.62-3.27-4.2-.45 1.92-.73 3.1-1.12 4.8z" fill="#010104"/></svg>