<svg enable-background="new 0 0 400 400" viewBox="0 0 400 400" xmlns="http://www.w3.org/2000/svg"><path d="m362.1 8.8c1.1.8 2.1 1.6 3.1 2.4l-1 1.1c-1.3-1.1-2.3-2-3-2.5zm1.9 4.8c.5.2.9.4 1.4.5-.6 2.3-1.3 4.5-1.9 6.8l-1.5-.5c.8-2.1 1.4-4.3 2-6.8zm-1-9.4c1.3.9 2.4 1.8 3.4 2.5l-1 1.1c-1.4-1.2-2.4-2.1-3.2-2.6zm3.7 2.2v-1.4h10.3v1.2c-.5 3.6-1.8 6.8-4 9.4 1.5 1.6 3.4 2.8 5.7 3.8-.3.4-.7.8-1.1 1.4-2.3-1.1-4.1-2.5-5.6-4.1-1.6 1.6-3.6 3.1-5.9 4.3-.3-.5-.7-.9-1-1.3 2.4-1.1 4.4-2.5 6-4.1-1.9-2.5-3-5.6-3.3-9.3h-1.1zm8.8 0h-6.4c.3 3.3 1.3 6 3 8.2 2-2.3 3.1-5.1 3.4-8.2z" fill="#fbfcfa"/><path d="m385.3 3.8h1.3v2.2h2.8v-2.2h1.3v2.2h4.1v9.1h1.7v1.3h-16.9v-1.3h1.7v-9.1h4.1v-2.2zm.4 13.1.7 1.2c-1.8.9-3.8 1.9-6 2.9-.2-.4-.5-.8-.8-1.3 2.3-1 4.3-1.9 6.1-2.8zm-3.1-6.4h2.8v-3.2h-2.8zm0 4.6h2.8v-3.3h-2.8zm4-4.6h2.8v-3.2h-2.8zm0 4.6h2.8v-3.3h-2.8zm3.7 1.9c2.1.9 4.1 1.8 6.1 2.7l-.7 1.3c-2.2-1.1-4.2-2-6.1-2.9zm3.2-9.7h-2.8v3.2h2.8zm-2.8 7.8h2.8v-3.3h-2.8z" fill="#fbfcfa"/><g fill="#010101"><path d="m328.99 202.61c.5 4.75.51 4.8-4.26 5.97-10.37 2.54-20.87 3.52-31.52 2.34-1.05-.12-2.16-.21-3.11-.62-11.4-4.95-23.7-5.23-35.73-6.88-7.66-1.05-15.33-2.2-23.03-2.73-11.24-.77-22.42.11-33.41 2.8-2.8.69-4.09 2.09-4.09 5.31.01 7.52-.63 15.04-.71 22.56-.03 2.59.96 5.17 1.29 7.78.39 3.12.93 6.29.75 9.39-.43 7.19-1.27 14.35-1.93 21.53-.08.83-.27 1.78.02 2.5 3.3 8.34 2.18 16.96 1.35 25.46-1.67 17.07-3.56 34.11-5.74 51.12-.53 4.1-2.27 8.13-3.93 11.99-1.13 2.62-3.24 4.67-6.64 5.17-8.31-13.9-12.26-28.57-8.08-44.64 1.2-4.6 1.52-9.09 1.3-13.8-.87-19.06-1.89-38.13-2.11-57.2-.09-7.44 1.81-14.9 2.72-22.36.73-6.02 1.16-12.07-1.07-17.9-1.8-4.71-5.46-7.12-10.37-7.66-1.46-.16-2.98-.16-4.44.02-13.88 1.72-27.71-.51-41.55-.39-7.12.06-14.24 1.63-21.35 2.54-9.08 1.16-17.18-1.53-24.51-6.64-1.6-1.11-2.49-3.23-3.82-5.05 4.23-2.74 8.19-4.18 12.71-3.94 3.27.17 6.57.44 9.83.2 2.23-.17 4.39-1.15 6.59-1.76.89-.25 1.94-.92 2.64-.65 9.7 3.66 19.69 1.78 29.59 1.8 10.9.03 21.81.29 32.71.36 1.89.01 3.81-.25 5.65-.67 3.66-.83 6.17-3.05 6.39-6.93.36-6.44 1.13-12.98.44-19.33-1.09-10.02.03-19.9.52-29.82.83-16.83 1.67-33.68 3.06-50.47.67-8.05.39-16.38 4.09-23.96.14-.29.2-.63.39-.87 1.05-1.35 2.47-3.95 3.15-3.77 1.98.52 4.46 1.76 5.29 3.44 1.3 2.62 1.94 5.83 1.92 8.79-.18 23.42-.62 46.84-.88 70.26-.04 3.7.13 7.44.65 11.1.79 5.67.29 11.15-1.21 16.64-.34 1.23-.13 2.75.25 4.01 1.53 5.07 3.34 10.05 4.82 15.13.64 2.2 1.62 3.03 3.97 2.93 14.92-.65 29.86-.99 44.77-1.8 5.59-.3 10.93-.19 16.13 2.09 10.51 4.6 21.87 4.73 33 5.83 10.3 1.02 19.91 3.46 28.73 9.15 2.21 1.43 5.6 1.1 8.77 1.63z"/><path d="m267.93 330.99c0 9.01-.07 18.02.05 27.02.03 2.16-.78 3.71-2.62 4.12-2.83.62-5.78.77-8.69.9-.44.02-1.1-1.13-1.36-1.85-2.92-8.17-6.08-16.27-8.48-24.59-.77-2.68.58-5.94.79-8.94.13-1.94.04-3.92-.14-5.87-.54-5.66-1.38-11.29-1.73-16.96-.39-6.55-.07-13.16-.61-19.69-.87-10.52 2.79-20.26 4.58-30.32.67-3.75 1.58-7.45 2.4-11.17.94-4.26 4.24-5.46 7.5-2.76 4.06 3.35 6.17 7.39 5.12 12.82-2.03 10.52.43 20.87 1.23 31.3 1.18 15.31 1.91 30.65 2.84 45.97-.3 0-.59.01-.88.02z"/><path d="m116.45 239.03c6.35 2.91 9.29 8.27 9.96 14.58.69 6.48.37 13.08.47 19.62.01.63-.22 1.27-.18 1.89.96 16.39-2.89 32.21-5.63 48.17-2.17 12.64-6.15 24.59-12.49 35.8-1.47 2.6-3.52 3.11-5.74 2.67-1.02-.2-2.11-2.13-2.41-3.44-.66-2.97-1.29-6.07-1.13-9.08.8-15.13 1.98-30.23 2.76-45.36.3-5.84 1.92-11.18 4.2-16.48.89-2.06.95-4.52 1.13-6.82.72-8.98 1.28-17.97 2.02-26.94.48-5.72 3.15-10.44 7.04-14.61z"/><path d="m253.65 35.29c3.89.35 6.47 2.52 8.59 5.18 5.06 6.35 8.1 13.16 7.6 21.81-1.26 21.68-1.71 43.41-2.61 65.11-.05 1.19-.95 2.72-1.94 3.41-2.48 1.76-5.23 3.14-8.38 4.97-1.55-5.14-3.1-9.93-4.44-14.77-3.88-14-7.27-28.07-7.32-42.75-.04-9.81 2.89-18.99 5.13-28.34 1.15-4.82 2.22-9.66 3.37-14.62zm4.23 34.02c.44.07.87.15 1.31.22.4-2.11 1.03-4.21 1.06-6.32.01-.6-1.72-1.23-3.3-2.27.38 3.43.66 5.9.93 8.37zm3.85 26.88c.17.33.34.65.52.98 1.35 0 2.73.17 4.03-.08.61-.12 1.3-.97 1.52-1.63.17-.51-.17-1.59-.59-1.79-.63-.29-1.67-.3-2.27.04-1.17.66-2.16 1.64-3.21 2.48z"/><path d="m109.68 130.45c1.96-13.3 3.87-26.39 5.82-39.47 1.27-8.48 2.67-16.95 3.87-25.44.38-2.67 1.76-4.33 4.22-4.77 2.32-.42 5.2 2.02 5.74 4.57.24 1.11.29 2.33.13 3.46-2.47 17.51-4.96 35.01-7.52 52.5-1.07 7.33-2.51 14.62-3.42 21.97-.34 2.79-2.08 3.05-3.9 2.96-.95-.05-2.46-1.25-2.65-2.15-.95-4.51-1.56-9.09-2.29-13.63z"/></g></svg>