<svg enable-background="new 0 0 400 400" viewBox="0 0 400 400" xmlns="http://www.w3.org/2000/svg"><path d="m385.2 377.6.6-.7c.6.4 1.3.9 1.9 1.5l-.6.7c-.8-.5-1.4-1-1.9-1.5zm.3 7.1c.6-1.4 1.1-2.9 1.5-4.5.3.1.6.3.9.4-.5 1.4-1 2.9-1.5 4.4zm.2-10.1.6-.6c.7.5 1.3 1.1 1.9 1.6l-.7.7c-.6-.6-1.2-1.2-1.8-1.7zm8.4-.8h.8v.9h1.8v.7h-1.8v1.8h-.8v-.3h-1.2v.9h3.3v2.6h-.8v-.4h-2.5c0 .3 0 .6-.1.8h3.4v.7h-3.5c0 .3-.1.6-.1.8h4v.7h-3.5c.7.9 1.9 1.3 3.6 1.5-.2.2-.4.5-.6.9-1.9-.3-3.2-1.1-3.8-2.3-.5 1.1-1.8 2-3.9 2.4-.2-.3-.4-.5-.6-.8 1.9-.4 3.1-.9 3.6-1.7h-3.2v-.7h3.5c.1-.2.1-.5.2-.8h-3.3v-.7h3.4c0-.2 0-.5 0-.8h-2.4v.3h-.8v-2.6h3.3v-.9h-1.2v.3h-.8v-1.8h-1.8v-.7h1.8v-.9h.8v.9h3.2zm-4.4 5.5h2.4c0-.3 0-.6 0-.9h-2.4zm1.2-3.1h3.2v-.8h-3.2zm4.4 2.2h-2.4v.9h2.5v-.9z" fill="#fcfafa"/><path d="m389.2 385.8h.9v1.5h1.9v-1.5h.9v1.5h2.7v6h1.1v.9h-11.3v-.9h1.1v-6h2.7zm.2 8.7.5.8c-1.2.6-2.5 1.3-4 1.9-.2-.3-.3-.6-.6-.8 1.6-.6 3-1.3 4.1-1.9zm-2-4.3h1.9v-2.1h-1.9zm0 3.1h1.9v-2.2h-1.9zm2.7-3.1h1.9v-2.1h-1.9zm0 3.1h1.9v-2.2h-1.9zm2.4 1.3c1.4.6 2.7 1.2 4.1 1.8l-.5.9c-1.5-.7-2.8-1.4-4.1-1.9zm2.2-6.5h-1.9v2.1h1.9zm-1.9 5.2h1.9v-2.2h-1.9z" fill="#fcfafa"/><path d="m69.96 346.2c8.33-1.4 16.32-2.94 24.36-4.06 13.29-1.86 26.63-1.32 39.99-.71 17.15.79 34.07-.98 50.74-5.14 6.69-1.67 9.91-6.19 8.54-12.92-1.95-9.59-5.96-18.27-12.44-25.73-4.82-5.55-8.71-11.84-8.97-19.24-.21-5.83.92-11.77 1.97-17.56 2.85-15.8 10.32-29.7 18.49-43.26.6-1 1.12-2.05 1.65-3.08.09-.17.07-.4.22-1.37-3.08-1.48-6.23-3.53-9.69-4.56-10.04-3-20.2-5.58-30.3-8.35-1.63-.45-3.22-1.06-4.87-1.44-13.86-3.24-22.45-12.89-29.66-24.26-7.81-12.32-11.66-25.96-13.74-40.27-2.6-17.87-3.8-35.81-3.88-53.87-.02-5.42-1.17-10.94-2.54-16.23-1.49-5.73-.99-11.13.99-16.49.28-.76 1.65-1.45 2.6-1.58 12.6-1.72 25.21-3.34 37.82-4.96 13.98-1.8 27.92-3.96 41.95-5.22 9.15-.82 18.42-.51 27.64-.37 10.91.17 21.84.38 32.71 1.2 11.93.89 23.94 1.79 35.66 4.03 7.68 1.47 14.91 5.33 22.33 8.15 6.85 2.6 7.27 2.74 5.28 9.84-4.94 17.66-4.07 35.69-4.14 53.69-.01 2.61-.37 5.29-1.06 7.8-4.74 17.25-9.56 34.48-14.51 51.67-.44 1.53-1.69 3.18-3.03 4.06-13.39 8.75-26.68 17.69-40.44 25.85-6.21 3.68-13.37 5.78-20.15 8.46-3.44 1.36-6.94 2.23-7.84 6.78-.94 4.79-1.07 9.29 1.95 13.36 3.47 4.68 7.1 9.25 10.62 13.89.63.83 1.42 1.75 1.54 2.71 1.45 11.32 4.06 22.57 1.98 34.12-1.22 6.78-3.64 13.04-7.55 18.7-6.53 9.47-8.78 20.03-8.25 31.36.11 2.39.95 3.43 3.38 3.93 10.59 2.19 21.05 1.55 31.54-.63 15.12-3.14 30.03-2.69 44.84 2.2 6.4 2.12 13.19 3.05 19.71 4.84 6.06 1.65 8.8 5.47 8.87 11.5-3.41 1.44-3.41 1.44-9.28-3.37-.42 3.43-.67 6.63-1.29 9.76-.17.88-1.36 2.13-2.19 2.21-16.97 1.81-33.91 4.1-50.93 4.97-14.15.72-28.39-.24-42.6-.48-10.81-.18-21.61-.41-32.42-.59-27.13-.44-54.28-.52-81.39-1.47-8.58-.3-17.06-3.12-25.64-4.37-3.39-.49-4.96-1.98-5.74-5.11-.63-2.64-1.71-5.16-2.83-8.39zm67.67-236.41c.76 0 1.18.03 1.6 0 14.98-1.31 29.96-2.65 44.94-3.89 2-.17 2.77-1.18 3.04-2.93 1.38-8.98 3.17-17.93 3.96-26.96.35-4.04-1.18-8.28-2.15-12.36-.23-.97-1.61-2.39-2.47-2.39-9.55-.06-19.11-2.77-28.68.18-3.21.99-6.72 1.03-9.94 2.01-3.79 1.15-7.52 2.63-11.05 4.41-2.45 1.23-7.57 16.18-6.73 18.82 2.41 7.64 4.93 15.27 7.48 23.11zm75.98-5.84c.81.22 1.29.42 1.79.48 11.36 1.34 22.7 2.85 34.08 3.93 7.92.75 15.66-.42 22.77-4.27 1.01-.55 2.26-1.95 2.22-2.91-.34-7.18-.57-14.4-1.63-21.49-1.29-8.65-6.55-14.39-15.37-15.4-9.64-1.1-19.38-1.29-29.09-1.83-.58-.03-1.32.18-1.76.55-5.5 4.68-12.7 8.31-11.11 17.51.07.4-.11.84-.14 1.26-.59 7.36-1.17 14.73-1.76 22.17zm5.27 73.53c3.2-.18 5.94-.25 8.66-.5 13.49-1.23 23.96-8.25 33.5-17.25 3.83-3.61 6.7-7.58 7.67-12.78.83-4.46 2.01-8.9 2.28-13.4.29-4.77-2.46-6.68-7.16-5.79-.73.14-1.44.35-2.16.53-8.71 2.22-17.4 2.14-26.06-.28-.79-.22-1.73-.5-2.47-.28-5.58 1.6-11.13 3.31-16.93 5.06.89 14.84 1.76 29.52 2.67 44.69zm-28.48-3.02c.04-.6.1-1.02.08-1.43-.68-10.99-1.4-21.98-2.04-32.98-.17-2.98-1.65-5.3-4.21-6.24-9.62-3.57-19.36-6.3-29.23-.61-2.47 1.42-4.93 3-7.6 3.94-4.25 1.51-5.26 4.71-5.47 8.63-.55 10.4 9.09 23.73 19.07 26.33 3.69.96 7.37 1.93 11.04 2.93 6.1 1.67 12.12 1.61 18.36-.57z" fill="#010100"/></svg>