<svg enable-background="new 0 0 400 400" viewBox="0 0 400 400" xmlns="http://www.w3.org/2000/svg"><path d="m385.2 377.6.6-.7c.6.4 1.3.9 1.9 1.5l-.6.7c-.8-.5-1.4-1-1.9-1.5zm.3 7.1c.6-1.4 1.1-2.9 1.5-4.5.3.1.6.3.9.4-.5 1.4-1 2.9-1.5 4.4zm.2-10.1.6-.6c.7.5 1.3 1.1 1.9 1.6l-.7.7c-.6-.6-1.2-1.2-1.8-1.7zm8.4-.8h.8v.9h1.8v.7h-1.8v1.8h-.8v-.3h-1.2v.9h3.3v2.6h-.8v-.4h-2.5c0 .3 0 .6-.1.8h3.4v.7h-3.5c0 .3-.1.6-.1.8h4v.7h-3.5c.7.9 1.9 1.3 3.6 1.5-.2.2-.4.5-.6.9-1.9-.3-3.2-1.1-3.8-2.3-.5 1.1-1.8 2-3.9 2.4-.2-.3-.4-.5-.6-.8 1.9-.4 3.1-.9 3.6-1.7h-3.2v-.7h3.5c.1-.2.1-.5.2-.8h-3.3v-.7h3.4c0-.2 0-.5 0-.8h-2.4v.3h-.8v-2.6h3.3v-.9h-1.2v.3h-.8v-1.8h-1.8v-.7h1.8v-.9h.8v.9h3.2zm-4.4 5.5h2.4c0-.3 0-.6 0-.9h-2.4zm1.2-3.1h3.2v-.8h-3.2zm4.4 2.2h-2.4v.9h2.5v-.9z" fill="#fcfafa"/><path d="m389.2 385.8h.9v1.5h1.9v-1.5h.9v1.5h2.7v6h1.1v.9h-11.3v-.9h1.1v-6h2.7zm.2 8.7.5.8c-1.2.6-2.5 1.3-4 1.9-.2-.3-.3-.6-.6-.8 1.6-.6 3-1.3 4.1-1.9zm-2-4.3h1.9v-2.1h-1.9zm0 3.1h1.9v-2.2h-1.9zm2.7-3.1h1.9v-2.1h-1.9zm0 3.1h1.9v-2.2h-1.9zm2.4 1.3c1.4.6 2.7 1.2 4.1 1.8l-.5.9c-1.5-.7-2.8-1.4-4.1-1.9zm2.2-6.5h-1.9v2.1h1.9zm-1.9 5.2h1.9v-2.2h-1.9z" fill="#fcfafa"/><g fill="#010100"><path d="m273.11 310.65c7.18.42 14.03 1 20.89 1.16 6.14.14 12.29-.21 18.44-.3 2.33-.04 4.68-.14 6.99.09 7.1.7 10.49 4.8 8.76 11.7-1.07 4.29-3.12 8.56-5.64 12.21-3.72 5.39-8.21 10.25-12.49 15.24-.82.96-2.1 1.87-3.31 2.11-19.82 4-39.61 8.18-59.52 11.72-14.06 2.5-28.22 3.21-42.12-1.55-6.53-2.24-12.57-4.92-16.07-11.46-1.23-2.31-3.08-4.31-4.79-6.33-5.36-6.29-8.09-13.56-8.32-22.63 6.09-.92 12.28-2.29 18.53-2.71 13.56-.93 27.01-2.36 40.22-5.65 1.71-.43 2.51-.89 2.54-2.82.23-21.31.54-42.62.82-63.93.01-.41-.09-.81-.18-1.63-4.8.33-9.5.66-14.21.99-1.8.13-3.62.11-5.38.44-7.02 1.31-13.63.51-19.83-3.27-.9-.55-2.23-.47-3.37-.5-2.75-.08-5.55.19-8.25-.19-1.34-.19-3.01-1.2-3.67-2.34-1.56-2.68-.16-9.36 2.02-11.63.07-.08.16-.14.22-.23 7.13-10.36 18.23-12.53 29.52-14.33 4.81-.76 9.6-1.65 14.41-2.37 11.03-1.65 15.31-12.23 9.33-22.57-.1-.18-.15-.4-.27-.74 5.48-4.66 3.78-10.82 3.27-16.75-.05-.63-.24-1.25-.38-1.87-1.87-8.58-.03-8.04-9.97-8.88-5.87-.49-11.54.81-14.85 6.92-1.5 2.76-3.69 5.18-5.78 7.57-1.23 1.41-2.72 3.14-4.36 3.51-2.88.64-6.14.95-8.89.17-1.22-.34-1.96-3.6-2.31-5.65-1.03-5.96-.17-11.81 1.66-17.55 12.08-37.92 24.15-75.85 36.2-113.78 1.52-4.8 6.36-5.47 9.75-7.93.34-.25 1.36.34 2.03.64 9.38 4.27 16.78 10.67 21.24 20.1 2.67 5.64 5.4 11.28 7.68 17.09 3.27 8.33 7.62 15.93 12.69 23.33 14.22 20.73 26.8 42.41 35.22 66.26 1.34 3.79 3.21 7.4 4.45 11.21 1.52 4.7 2.64 9.54 3.93 14.32.72 2.65-.11 3.91-3.01 4.53-5.75 1.22-10.3-.57-13.88-4.86-4.97-5.93-9.87-11.94-14.49-18.14-5.97-8.02-15.23-7.79-23.06-5.6-.73.2-1.58 1.19-1.76 1.96-1.09 4.59-2.68 9.21-2.8 13.85-.18 6.86.79 13.75 1.11 20.63.09 1.91.79 2.67 2.6 3.27 8.28 2.77 16.76 3.53 25.4 3.04.74-.04 1.48-.08 2.22-.09 8.42-.11 11.49 3.6 9.89 11.96-1.7 8.88-1.7 8.89-10.37 11.27-7.66 2.1-15.32 4.18-22.98 6.26-4.82 1.31-6.22 3.37-6.03 8.5.18 4.75.28 9.51.29 14.27.03 16.33.01 32.66.01 49 .01.73.01 1.47.01 2.96zm-24.79-212.29c-3.9 7.78-7.41 15.51-11.59 22.86-2.5 4.4-1.42 8.46-.82 13.18 11.86-2.22 23.46-4.39 36.12-6.76-4.73-7.89-8.86-15.26-13.49-22.29-2.27-3.45-5.59-6.1-10.22-6.99z"/><path d="m98.8 145.88c13.02.42 24.27 1.74 35.23 4.77 13.3 3.67 15.96 13.1 12.38 24.93-.28.93-1.1 1.76-1.84 2.47-12.52 12.1-27.59 16.69-44.61 14.17-8.74-1.29-17.37-3.59-25.92-5.93-6.33-1.73-10.15-9.45-8.94-15.96 1.65-8.86 7.74-14.07 14.77-18.49 6.26-3.94 12.79-7.23 18.93-5.96z"/><path d="m108.4 285.51c-9.79-.11-17.62-1.71-25.07-4.99-.98-.43-1.96-1.26-2.54-2.16-5.43-8.47-5.1-16.54.83-26.24 1.73-2.84 5.85-4.35 9.07-6.11 8.58-4.71 17.62-8.26 27.33-9.81 2.12-.34 4.43-.31 6.53.12 7.98 1.63 15.91 3.48 23.85 5.27 9.82 2.21 14.31 12.31 8.95 20.92-1.62 2.6-4.41 4.54-6.88 6.52-12.77 10.22-27.25 16-42.07 16.48z"/></g></svg>