<svg enable-background="new 0 0 400 400" viewBox="0 0 400 400" xmlns="http://www.w3.org/2000/svg"><path d="m378.6 9.2.8-1c.9.7 1.9 1.4 2.9 2.3l-.9 1.1c-1.1-.9-2-1.7-2.8-2.4zm.5 10.7c.9-2.1 1.6-4.3 2.3-6.7.4.2.8.4 1.3.6-.7 2.1-1.5 4.3-2.2 6.6zm.4-15.2.9-.9c1 .8 2 1.6 2.8 2.4l-1 1c-1-.9-1.9-1.8-2.7-2.5zm12.5-1.3h1.2v1.4h2.7v1.1h-2.7v2.7h-1.2v-.5h-1.8v1.3h4.9v3.8h-1.2v-.5h-3.7c0 .4-.1.9-.1 1.2h5.1v1h-5.2c0 .5-.1.9-.2 1.2h6v1h-5.2c1.1 1.3 2.9 2 5.5 2.2-.4.4-.7.8-.9 1.3-2.9-.5-4.8-1.6-5.7-3.5h-.1c-.8 1.7-2.7 2.9-5.9 3.6-.2-.4-.6-.8-.9-1.1 2.8-.6 4.6-1.4 5.4-2.5h-4.8v-1h5.3c.1-.3.2-.7.2-1.2h-4.9v-1h5c0-.4 0-.8.1-1.2h-3.6v.5h-1.2v-3.8h4.9v-1.3h-1.8v.5h-1.2v-2.7h-2.6v-1.1h2.6v-1.4h1.2v1.4h4.7v-1.4zm-6.7 8.4h3.6c0-.4 0-.9 0-1.4h-3.6zm1.9-4.7h4.7v-1.2h-4.7zm6.7 3.3h-3.7v1.4h3.7z" fill="#fafbfc"/><path d="m384.7 21.4h1.3v2.2h2.8v-2.2h1.3v2.2h4.1v9.1h1.7v1.3h-16.9v-1.3h1.7v-9.1h4.1v-2.2zm.3 13.2.7 1.2c-1.8.9-3.8 1.9-6 2.9-.2-.4-.5-.8-.8-1.3 2.4-1 4.4-2 6.1-2.8zm-3.1-6.5h2.8v-3.2h-2.8zm0 4.6h2.8v-3.3h-2.8zm4.1-4.6h2.8v-3.2h-2.8zm0 4.6h2.8v-3.3h-2.8zm3.6 1.9c2.1.9 4.1 1.8 6.1 2.7l-.7 1.3c-2.2-1.1-4.2-2-6.1-2.9zm3.3-9.7h-2.8v3.2h2.8zm-2.8 7.8h2.8v-3.3h-2.8z" fill="#fafbfc"/><g fill="#010104"><path d="m184.59 49.56c-4.09-2.55-3.74-7.77-.63-10.06 6.68-4.92 14.5-4.36 21.98-4.6 5.98-.2 12 1.05 18 1.7.83.09 1.7.32 2.41.73 1.95 1.13 1.97 3.42.04 4.48-1 .55-2.15 1.03-3.27 1.12-10.08.82-20.16 1.68-30.26 2.22-2.84.15-3.44 1.86-3.72 3.81-.62 4.29-.93 8.63-1.36 12.95-.06.63.06 1.39-.24 1.88-4.92 7.88-.49 17.09-3.62 25.22-.2.52-.01 1.29.22 1.86 1.12 2.79 1.34 5.46-.28 8.2-.43.72-.28 1.83-.27 2.76.07 5.07.29 10.13.24 15.2-.08 8.59-.36 17.17-.49 25.75-.04 2.89 2.08 4.48 4.55 2.98 4-2.44 8.21-3 12.72-3.16 3.59-.13 5.68-2.8 5.54-6.61-.14-3.7-.25-7.46-.94-11.08-1-5.31-.4-10.5-.01-15.78.34-4.63-.1-9.32.06-13.97.22-6.33.75-12.65 1.03-18.98.2-4.56.24-9.01-3.43-12.73-1.01-1.02-.5-3.55-.7-5.45 1.45-.3 2.48-.76 3.48-.69 7.52.48 15.03 1.05 22.55 1.64.94.07 2.09.17 2.72.72.85.75 1.56 1.91 1.79 3.01.08.39-1.36 1.31-2.24 1.62-.97.35-2.12.49-3.14.34-5.27-.77-8.22 3.29-11.89 5.73-.78.52-.82 2.27-1.06 3.49-.83 4.22-2.24 8.44.28 12.65.42.69.09 1.86.03 2.8-.68 11.75-1.45 23.49-2.02 35.24-.22 4.5-.07 9.01.06 13.52.02.61.81 1.34 1.41 1.78 2.14 1.54 4.39 2.9 6.51 4.46 2.65 1.95 5.09 1.66 7.11-.98 2.31-3.04 4.22-3.72 7.66-2.25 1 .43 2.26 1.84 2.21 2.73-.05.93-1.42 2.01-2.45 2.58-.97.54-2.25.49-3.4.71-.62.12-1.44.05-1.84.42-3.78 3.53-8.67 2.76-13.15 3.34-2.46.32-5.03-.19-7.54-.41-5.68-.49-6.72 1.15-6.33 6.7.61 8.72.6 17.5.41 26.25-.08 3.68.09 6.57 3.8 8.47 1.59.82 3.01 2.41 3.96 3.98 2.3 3.81 4.24 7.86 8.43 10.06.09.05.24.11.25.18 1.35 7.11 9.08 10.02 10.98 16.82 1.82 6.51 3.91 12.94 5.84 19.42.21.69.31 1.54.1 2.21-1.43 4.62 1.18 8.29 2.51 12.37 2.34 7.22 5.52 14.35 4.7 22.25-.09.91-.66 1.8-.65 2.7.01 1.26.18 2.58.59 3.78.87 2.55 2.37 4.96 2.83 7.56 1.6 9.07 3.02 18.18 4.17 27.32.43 3.41-.08 6.94-.17 10.42-.01.42-.14.85-.1 1.27.57 6 1.17 12.01 1.75 18.01.12 1.25.47 2.55.25 3.74-.15.82-1.31 2.21-1.63 2.11-1.16-.36-2.84-1.08-3.06-1.98-.43-1.77.08-3.75.02-5.64-.1-2.9-.05-5.86-.61-8.68-.59-3.03-2.81-5.69-1.78-9.12.18-.6-.74-1.64-1.31-2.33-2.28-2.74-3.52-5.68-2.63-9.35.28-1.16.49-2.88-.13-3.64-3.11-3.78-2.73-8.35-3.31-12.7-.55-4.09.06-8.28-3.15-11.95-1.18-1.35-.39-4.71 0-7.07.66-4.02.17-7.75-1.55-11.41-.43-.92-.44-2.04-.62-3.07-.62-3.61-1.22-7.23-1.85-10.84-.14-.83-.56-1.66-.51-2.46.46-7.84-3.45-14.37-5.83-21.43-1.29-3.83-2.32-7.43-5.16-10.34-.13-.13-.19-.43-.14-.6 1.24-4.5-2.31-6.58-4.63-9.31-3.29-3.87-6.43-7.86-9.75-11.7-.7-.81-2.04-1.74-2.88-1.58-1.18.23-2.66 1.21-3.16 2.27-2.21 4.75-4.15 9.38-7.73 13.59-3.33 3.92-5.46 9.58-6.17 14.74-.44 3.2-.85 8.2 3.99 10.58 3.51 1.73 4.95 5.06 4.51 9.08-.09.8-.07 1.86.38 2.42 3.62 4.58 2.14 10.17 3.53 15.18-.24.24-.47.47-.71.71-.96-.64-2.28-1.06-2.8-1.95-1.21-2.09-2.03-4.4-3.01-6.62-1.65-3.76-3.49-7.45-4.88-11.31-.99-2.75-1.61-5.68-1.95-8.59-.24-2.06-1.39-2.27-2.93-2.52-1.64-.27-2.97-.09-3.54 1.72-.35 1.11-.4 2.37-.98 3.33-.76 1.29-1.87 2.39-2.89 3.51-.55.6-1.7 1-1.79 1.61-.69 4.82-4.51 6.56-8.51 8.57 3.35 1.71 3.02 3.63.89 5.84-.62.65-1.2 1.68-1.19 2.53.08 6.62-5.45 7.88-9.79 9.61-2.66 1.06-4.98 1.72-6.34 4.47-.38.77-1.74 1.29-2.72 1.45-.54.09-1.81-.87-1.77-1.23.13-1.03.53-2.24 1.25-2.94 5.39-5.24 10.03-11.02 12.2-18.32 2.16-7.3 7.56-12.38 11.79-18.29.95-1.33 1.4-3 2.2-4.46.64-1.17 1.27-2.45 2.23-3.33 5.6-5.15 9.21-11.33 11.13-18.76.96-3.72 3.49-7 4.96-10.63 2.15-5.32 4.65-10.64 5.77-16.2 1.2-5.96.87-12.22 1.44-18.33.18-1.92.95-3.84 1.75-5.62 1.5-3.33-.23-7.48-3.7-8.74-4.12-1.5-7.83-2.06-12.28.07-3.5 1.67-8.01 1.22-12.06 1.77-.94.13-2.01.26-2.75.78-2.82 1.96-5.59 2.87-8.82.84-1.04-.66-2.35-1.05-3.58-1.23-3.55-.51-5.32-2.63-6.02-6.55 4.5 0 8.9.28 13.25-.08 4.19-.35 8.4-1.1 12.45-2.24 1.21-.34 2.73-2.63 2.67-3.95-.44-8.77-1.35-17.51-1.95-26.27-.22-3.16-.03-6.35.02-9.53.11-7.1.25-14.2.37-21.31.01-.42-.16-.95.03-1.26 2.9-4.6 1.85-9.7 1.94-14.67.04-2.42.28-4.84.46-7.26.07-.93-.03-2.03.43-2.74 1.52-2.34 2.2-4.61 1.34-7.46-.49-1.62.27-3.11 2.62-2.71.7.12 1.51-.42 2.96-.88z"/><path d="m174.92 365.84c0-4.47.19-8.57-.06-12.64-.21-3.34-1.09-6.62-1.4-9.96-.2-2.18.06-4.41.18-6.62.23-4.21.5-8.41.77-12.61.62-9.69 1.25-19.39 1.9-29.08.03-.49.34-.96.51-1.42 5.14.95 7.95 6.3 5.79 10.74-.3.61-.63 1.46-.43 2.01 3.23 8.72 1.74 17.56.71 26.38-.1.84-.07 1.7-.22 2.53-.48 2.76-1.16 5.49-1.47 8.26-.37 3.33-.84 6.72-.56 10.02.53 6.44-.67 9.8-5.72 12.39z"/></g></svg>