<svg enable-background="new 0 0 400 400" viewBox="0 0 400 400" xmlns="http://www.w3.org/2000/svg"><path d="m378.6 9.2.8-1c.9.7 1.9 1.4 2.9 2.3l-.9 1.1c-1.1-.9-2-1.7-2.8-2.4zm.5 10.7c.9-2.1 1.6-4.3 2.3-6.7.4.2.8.4 1.3.6-.7 2.1-1.5 4.3-2.2 6.6zm.4-15.2.9-.9c1 .8 2 1.6 2.8 2.4l-1 1c-1-.9-1.9-1.8-2.7-2.5zm12.5-1.3h1.2v1.4h2.7v1.1h-2.7v2.7h-1.2v-.5h-1.8v1.3h4.9v3.8h-1.2v-.5h-3.7c0 .4-.1.9-.1 1.2h5.1v1h-5.2c0 .5-.1.9-.2 1.2h6v1h-5.2c1.1 1.3 2.9 2 5.5 2.2-.4.4-.7.8-.9 1.3-2.9-.5-4.8-1.6-5.7-3.5h-.1c-.8 1.7-2.7 2.9-5.9 3.6-.2-.4-.6-.8-.9-1.1 2.8-.6 4.6-1.4 5.4-2.5h-4.8v-1h5.3c.1-.3.2-.7.2-1.2h-4.9v-1h5c0-.4 0-.8.1-1.2h-3.6v.5h-1.2v-3.8h4.9v-1.3h-1.8v.5h-1.2v-2.7h-2.6v-1.1h2.6v-1.4h1.2v1.4h4.7v-1.4zm-6.7 8.4h3.6c0-.4 0-.9 0-1.4h-3.6zm1.9-4.7h4.7v-1.2h-4.7zm6.7 3.3h-3.7v1.4h3.7z" fill="#fafbfc"/><path d="m384.7 21.4h1.3v2.2h2.8v-2.2h1.3v2.2h4.1v9.1h1.7v1.3h-16.9v-1.3h1.7v-9.1h4.1v-2.2zm.3 13.2.7 1.2c-1.8.9-3.8 1.9-6 2.9-.2-.4-.5-.8-.8-1.3 2.4-1 4.4-2 6.1-2.8zm-3.1-6.5h2.8v-3.2h-2.8zm0 4.6h2.8v-3.3h-2.8zm4.1-4.6h2.8v-3.2h-2.8zm0 4.6h2.8v-3.3h-2.8zm3.6 1.9c2.1.9 4.1 1.8 6.1 2.7l-.7 1.3c-2.2-1.1-4.2-2-6.1-2.9zm3.3-9.7h-2.8v3.2h2.8zm-2.8 7.8h2.8v-3.3h-2.8z" fill="#fafbfc"/><g fill="#010104"><path d="m228.05 203.27c-3.58-4.11-5.26-8.36-4.68-13.29 1.21-10.26-.87-20.27-2.25-30.34-.68-4.93-1.87-9.85-1.99-14.79-.1-4.28.69-8.66 1.6-12.88 1.94-8.97 1.7-17.91-.18-26.77-.86-4.08-.27-6.94 3.64-8.85 1.21-.59 2.19-1.64 3.48-2.63-2.36-2.73-4.75-5.78-3.29-9.28.61-1.46 3.68-1.89 6.39-3.14 1.02 3.92 2.26 7.28 2.73 10.75 1.05 7.7 4.3 9.84 11.72 7.31 7.71-2.63 15.39-5.41 23.2-7.73 2.24-.66 5.02-.42 7.31.23 4.01 1.14 6-.01 6.2-4.26.84-17.26 1.69-34.52 3.28-52.29 1.38 1.94 3.4 3.69 4.01 5.84 2.08 7.3 4.5 14.66 5.24 22.15 1.62 16.34 2.36 32.76 3.31 49.16 1.7 29.21 3.29 58.44 4.93 87.65.43 7.62 1.46 15.27 1.16 22.86-.96 24.12 4.38 47.79 4.53 71.81.02 2.5-.49 4.99-.68 7.5-.13 1.66-.49 3.4-.12 4.97 1.98 8.48 2.16 16.85.58 25.51-1.09 5.97-.61 12.25-.68 18.39-.05 4.23-.61 8.25-3.28 11.69-.81 1.05-1.77 1.97-2.92 2.79 1.43-5.6-1.49-10.11-3.12-14.85-.63-1.85-1.13-3.38.15-5.31.65-.98.24-2.8.01-4.19-.75-4.34-2.07-8.62-2.38-12.98-.7-9.83-1.09-19.7-1.26-29.55-.05-3.13-1.42-4.49-4.03-4.27-5.24.44-10.48 1.11-15.65 2.09-6.85 1.29-13.62 3.01-20.44 4.45-1.33.28-2.75.29-4.11.22-2.19-.11-3.8.16-5.21 2.4-1.94 3.09-9.32 2.82-11.58-.03-.07-.08-.11-.18-.19-.26-7.64-7.47-10.44-16.31-9.68-27.13.78-11.17-.27-22.46-.23-33.69.01-3.42.61-6.95 1.59-10.23 1.15-3.85 1.83-7.54.88-11.52-.52-2.15-.5-4.43-.92-6.61-.8-4.04-1.6-8.02 2.93-10.9zm2.41 74.38c2.3 3.23 4.77 6.3 6.79 9.64 1.62 2.68 3.86 3.63 6.74 3.96 10.55 1.22 20.74-.78 30.64-3.99 4.52-1.46 8.86-4 12.66-6.88 1.85-1.4 3.22-4.7 3.16-7.1-.12-5.36-1.03-10.75-2.07-16.05-1.54-7.86-1.04-15.16 4.16-21.68.44-.55.48-1.83.16-2.51-3.04-6.56-3.97-13.54-4.62-20.66-.35-3.85-1.44-7.67-2.51-11.41-.66-2.3-2.15-3.35-5.03-2.84-13.24 2.35-26.55 4.36-39.8 6.63-.85.15-1.97 1.41-2.16 2.32-2.21 10.77-1.52 21.73-2.03 32.62-.26 5.56-.92 11.23-2.39 16.58-1.38 5.01-1.76 9.42 1.68 13.63-1.76 2.58-3.52 5.09-5.38 7.74zm2-129.05c.17.02.33.03.5.05 0 3.39-.09 6.79.02 10.17.3 9.21.64 18.43 3.7 27.28.54 1.56.97 2.88 3.23 2.53 4.28-.68 8.61-1.17 12.93-1.53 8.75-.72 17.58-3.58 26.18.86.6.31 1.46.18 2.19.13 3.66-.27 4.91-1.64 5.18-5.29.5-6.76 1.07-13.52 1.64-20.27.48-5.59.7-11.07-.6-16.68-2.69-11.58-6.4-23.12-3.48-35.28.17-.69.11-1.51-.08-2.21-.45-1.61-.92-3.24-1.61-4.76-.67-1.49-1.79-2.06-3.6-1.61-3.49.87-7.12 1.19-10.56 2.21-9.62 2.84-19.18 5.87-28.73 8.92-2.56.82-3.77 2.75-4.02 5.48-.89 9.99-1.91 19.99-2.89 30z"/><path d="m88.64 64.11c6.77.73 9.82 3.83 9.92 10.07.08 4.77.79 9.27 3.9 13.11 2.63 3.24 6.28 4.31 10.21 2.96 1-.34 2-.71 2.97-1.11 2.72-1.12 5.14-1.03 7.63.93 1.28 1 3.23 1.37 4.93 1.57 11.91 1.4 23.03-2.46 34.28-5.39 3.75-.98 4.5-.86 4.78 2.98.7 9.81.87 19.66 1.26 29.49.33 8.23.63 16.47 1.02 24.7.24 4.97.88 9.93.91 14.9.11 20.15-.21 40.3.15 60.45.19 10.89 1.41 21.77 2.17 32.65.08 1.15.21 2.29.34 3.62-8.78 2.94-17.39 5.84-26.01 8.71-4.12 1.37-8.38 2.41-12.33 4.15-6.08 2.66-12.34 2.63-18.71 2.14-1.16-.09-2.32-.28-3.48-.36-7.86-.5-9.74 1.24-10.1 8.96-.66 14.09-1.48 28.16-2.08 42.25-.18 4.33.38 8.7.12 13.02-.1 1.64-1.18 3.72-2.49 4.67-2.65 1.93-4.24 1.17-5.49-1.88-2.73-6.64-2.37-13.62-1.37-20.4 1.87-12.73.2-25.4.22-38.09.01-7.84-.37-15.69-.76-23.52-.12-2.32.26-4.15 2.2-5.53 1.03-.74 2.02-1.56 3.67-2.84-7.58-2.65-8.31-7.82-6.86-13.72 2.16-8.78.32-17.42-.34-26.16-.92-12.25-.75-24.58-1.59-36.83-.52-7.65 1.66-14.63 3.56-21.78.52-1.93.34-4.1.21-6.15-.55-8.54-1.18-17.08-1.82-25.61-.16-2.1-.09-4.3-.71-6.27-1.74-5.56-2.06-11.18-1.71-16.95.58-9.52.94-19.04 1.4-28.74zm64.62 107.53c-4.66-.24-9.19-.6-13.73-.63-1.57-.01-3.34.53-4.67 1.36-4.39 2.77-9.06 4.5-14.24 4.99-5.9.56-11.79 1.33-17.68 1.94-2.06.22-2.84 1.11-2.75 3.28.25 5.93.35 11.87.37 17.81.05 11.86.54 23.75-.22 35.56-.4 6.16-.09 11.69 2.84 17.08.95 1.76 1.42 3.81 2.49 5.48.67 1.06 1.98 2.24 3.12 2.37 3.56.42 7.19.58 10.78.45 11.12-.39 21.86-2.29 31.63-8.15 4.3-2.58 6.67-6 7.38-11.03 1.64-11.75.31-23.22-2.31-34.67-.5-2.2-.52-4.55-.45-6.82.1-2.95 1.03-5.95.69-8.82-.78-6.7-2.11-13.35-3.25-20.2zm-57.67-35.62c1.69 5.1 3.23 9.55 4.62 14.05 1.3 4.22 2.36 8.51 3.72 12.71.25.77 1.45 1.72 2.24 1.74 6.31.17 12.77 1.41 18.75-1.67 5.4-2.78 10.81-2.2 16.34-.6 7.49 2.16 13.51-1.04 14.94-8.74.93-5 1.08-10.35.46-15.4-1.08-8.85-3.1-17.53 1.69-26.04 1.16-2.05 1.27-5.21-1.34-6.54-3.53-1.79-7.25-3.2-11.53-2.37-5.28 1.03-10.65 1.65-16 2.28-6.08.71-12.36.53-18.24 2.01-9.43 2.37-12.78 5.24-12.67 15.32.05 5.11-.03 9.96-2.98 13.25z"/><path d="m96.49 345.86c.9 1.39 1.81 2.78 2.96 4.56-1.58.25-2.84.45-4.45.71.28-1.97.5-3.55.72-5.13.25-.05.51-.1.77-.14z"/></g></svg>