<svg enable-background="new 0 0 400 400" viewBox="0 0 400 400" xmlns="http://www.w3.org/2000/svg"><path d="m378.6 9.2.8-1c.9.7 1.9 1.4 2.9 2.3l-.9 1.1c-1.1-.9-2-1.7-2.8-2.4zm.5 10.7c.9-2.1 1.6-4.3 2.3-6.7.4.2.8.4 1.3.6-.7 2.1-1.5 4.3-2.2 6.6zm.4-15.2.9-.9c1 .8 2 1.6 2.8 2.4l-1 1c-1-.9-1.9-1.8-2.7-2.5zm12.5-1.3h1.2v1.4h2.7v1.1h-2.7v2.7h-1.2v-.5h-1.8v1.3h4.9v3.8h-1.2v-.5h-3.7c0 .4-.1.9-.1 1.2h5.1v1h-5.2c0 .5-.1.9-.2 1.2h6v1h-5.2c1.1 1.3 2.9 2 5.5 2.2-.4.4-.7.8-.9 1.3-2.9-.5-4.8-1.6-5.7-3.5h-.1c-.8 1.7-2.7 2.9-5.9 3.6-.2-.4-.6-.8-.9-1.1 2.8-.6 4.6-1.4 5.4-2.5h-4.8v-1h5.3c.1-.3.2-.7.2-1.2h-4.9v-1h5c0-.4 0-.8.1-1.2h-3.6v.5h-1.2v-3.8h4.9v-1.3h-1.8v.5h-1.2v-2.7h-2.6v-1.1h2.6v-1.4h1.2v1.4h4.7v-1.4zm-6.7 8.4h3.6c0-.4 0-.9 0-1.4h-3.6zm1.9-4.7h4.7v-1.2h-4.7zm6.7 3.3h-3.7v1.4h3.7z" fill="#fafbfc"/><path d="m384.7 21.4h1.3v2.2h2.8v-2.2h1.3v2.2h4.1v9.1h1.7v1.3h-16.9v-1.3h1.7v-9.1h4.1v-2.2zm.3 13.2.7 1.2c-1.8.9-3.8 1.9-6 2.9-.2-.4-.5-.8-.8-1.3 2.4-1 4.4-2 6.1-2.8zm-3.1-6.5h2.8v-3.2h-2.8zm0 4.6h2.8v-3.3h-2.8zm4.1-4.6h2.8v-3.2h-2.8zm0 4.6h2.8v-3.3h-2.8zm3.6 1.9c2.1.9 4.1 1.8 6.1 2.7l-.7 1.3c-2.2-1.1-4.2-2-6.1-2.9zm3.3-9.7h-2.8v3.2h2.8zm-2.8 7.8h2.8v-3.3h-2.8z" fill="#fafbfc"/><path d="m151.64 215.14c12.85 0 24.77-.35 36.67.12 8.22.33 16.39 1.82 24.58 2.75 2.64.3 5.29.54 7.94.54.69 0 1.93-.99 1.97-1.6.49-6.43.85-12.87 1.08-19.31.03-.92-.65-1.92-1.16-2.8-2.39-4.09-5.21-7.98-7.18-12.26-3.64-7.89-7.83-15.44-13.44-22.03-3.96-4.65-7.47-9.44-9.54-15.21-.91-2.54-2.56-3.58-5.43-3.93-4.69-.58-9.26-2.09-13.91-3.04-2.42-.5-4.91-.82-7.38-.9-1.83-.06-3.54.14-3.58-2.35-.04-2.15-.67-4.67 2.83-4.81 1.8-.07 3.59-.44 5.38-.41 14.51.25 29.03.45 43.54.95 3.3.11 6.54 1.54 9.87 1.92 3.93.44 4.18-.26 4.39-4.14.22-4.21.96-8.39 1.55-12.58.5-3.54-.91-5.95-3.37-8.58-3.86-4.12-7.77-8.6-10.17-13.63-6.1-12.79-14.49-23.86-23.53-34.56-1.85-2.19-3.77-4.33-5.4-6.67-2.63-3.8-6.3-5.25-10.69-4.98-5.2.31-10.12-.7-14.83-2.79-1.26-.56-2.37-1.44-3.55-2.18.05-.46.1-.92.15-1.39 2.81-.42 5.61-.91 8.43-1.24 2.92-.35 6.06.04 8.75-.92 7.4-2.63 15.12-1.19 22.63-2.35 6.27-.97 12.65-1.48 18.99-1.65 4.15-.11 8.32.81 12.49 1.18 1.75.15 3.7.55 5.25-.01 3.78-1.35 6.98.28 7.32 4.33.24 2.84.27 5.72.17 8.57-.77 20.13-1.54 40.25-2.43 60.37-.54 12.28-1.37 24.54-1.87 36.81-.13 3.12.78 6.28.77 9.41-.01 2.58-.78 5.15-1.03 7.74-.68 7.28-1.45 14.56-1.85 21.86-.56 10.13-.68 20.29-1.26 30.42-.32 5.59-1.44 11.14-1.81 16.73-.6 9.09-.92 18.2-1.29 27.3-.34 8.22-.6 16.43-.89 24.65-.19 5.33.26 10.77-.65 15.97-2.1 12.09-.16 24.44-2.96 36.49-1.33 5.7-1 11.77-1.98 17.57-.58 3.48-2.13 6.82-3.5 10.11-.29.7-2.18 1.53-2.51 1.27-.96-.77-2.11-2.06-2.11-3.15 0-3.81.58-7.61.71-11.42.53-15.56.92-31.12 1.46-46.67.22-6.25.78-12.49.96-18.73.04-1.43-.44-3.21-1.34-4.29-7.59-9.19-13.65-19.33-19.59-29.63-3.39-5.89-8.28-10.9-12.4-16.37-1.71-2.27-3.41-4.62-4.67-7.15-1.66-3.34-4.16-4.15-7.57-3.6-5.14.83-10.3 1.65-15.24-.98-2.05-1.09-4.4-1.84-6.07-3.35-.99-.93-.99-2.99-1.7-5.4zm43.03-169.68c1.16 2.12 1.79 3.71 2.78 5.03 3.5 4.65 6.95 9.36 10.73 13.78 7.47 8.73 12.19 19.18 18.36 28.71.7 1.08 2.03 1.76 3.06 2.62.48-1.33 1.25-2.62 1.39-3.98.43-4.24-.49-8.4.53-12.8 1.31-5.66.99-11.69 1.51-17.55.46-5.24 1.05-10.48 1.69-15.7.33-2.74-.56-3.65-3.37-3.22-1.76.27-3.54.43-5.32.54-7.17.41-14.35.7-21.51 1.2-3.04.2-6.04.82-9.85 1.37zm-2.34 180.21c-.14.33-.28.67-.42 1 1.1 1.38 2.23 2.74 3.3 4.15 7.37 9.65 15.07 19.07 20.3 30.17.74 1.57 2.12 2.87 3.31 4.19.36.4 1.33.82 1.59.63.49-.35.91-1.13.94-1.75.3-6.95.49-13.9.77-20.85.06-1.44.32-2.9.63-4.31.89-4.01 1.18-7.96-.34-12.05-1.35 1.08-2.38 1.89-2.85 2.27-1.66-1.45-2.77-3.27-3.95-3.31-7.75-.26-15.51-.14-23.28-.14zm32.25-47.8c.24-.05.48-.1.72-.14.22-3.15.38-6.3.66-9.44.55-6.39.95-12.8 1.82-19.15.77-5.62-.84-8.67-5.62-8.74-7.18-.1-14.36.01-21.55.11-1.08.02-2.16.47-4 .9 9.58 12.49 18.77 24.48 27.97 36.46z" fill="#010104"/></svg>