<svg enable-background="new 0 0 400 400" viewBox="0 0 400 400" xmlns="http://www.w3.org/2000/svg"><path d="m171.85 271.65c-7.72-4.25-12.99-1.85-18.57 3.64-11.64 11.44-24.04 22.1-36.13 33.08-.85.77-1.74 1.51-3.29 2.84 2.28-7.97 4.2-15.17 6.51-22.25.44-1.34 2.33-2.31 3.7-3.23 13.27-8.85 24.75-19.62 34.2-32.45 8.09-11 10.79-23.52 9.59-37-.19-2.11-.98-3.3-3.11-4.11-8.32-3.13-8.17-3.13-14.16 3.45-7.49 8.21-14.3 17.17-23.65 23.45-4.69 3.15-9.79 5.71-14.73 8.55-.5-.81-.7-1.05-.82-1.33-2.02-4.93-1.96-4.88 1.81-8.76 14.52-14.95 28-30.73 37.59-49.41 4.49-8.74 7.16-18.08 7.86-27.96.14-1.93-.34-3.13-1.82-4.31-7.12-5.69-14.25-11.38-21.22-17.25-5.32-4.48-8.7-10.28-10.79-17.71 4.11.7 7.85 1.09 11.48 1.99 15.23 3.79 29.1 10.89 43.05 17.79 7.53 3.72 15.29 6.75 23.74 7.73 8.69 1.01 16.2-2.74 19.57-10.24-9.22-7.65-18.59-15.26-27.76-23.1-7.49-6.4-15.06-12.75-21.96-19.75-3.62-3.67-6.1-8.57-8.6-13.18-1.09-2.01-2.34-4.8.29-6.95 3.19-2.62 6.7-5.18 10.94-3.14 5.14 2.47 10 5.54 14.91 8.47.85.51 1.38 1.57 2.01 2.41 14.58 19.26 31.84 35.74 51.61 49.58 1.95 1.37 4.18 2.36 6.43 3.61 3.82-7.39 4.02-14.7 1.81-22.18-2.52-8.52-5.04-17.05-7.71-25.53-.42-1.32-1.5-2.5-2.47-3.56-8.29-9.09-16.7-18.11-22.02-29.39-2.84-6.02-4.01-12.44-3.56-20.27 4.56 3.25 8.77 5.81 12.48 8.96 9.37 7.97 15.96 18.09 21.2 29.08 8.18 17.14 14.31 34.91 14.78 54.14.11 4.52-.59 9.07-1.16 13.58-.12.93-1.11 2.24-1.97 2.49-3.61 1.07-7.29 2.06-11.01 2.58-3.71.53-7.6 5.56-6.39 9.04.22.63 1.17 1.13 1.89 1.45 9.16 4.09 13.66 11.06 14.04 21.15.36 9.62.39 19.4 2.28 28.77 6.05 30.1 13.18 59.99 19.34 90.07 4.46 21.8 5.97 43.88 3.58 66.11-.1.91-.33 1.8-1 2.7-3-10.57-6.01-21.13-9-31.7-4.44-15.69-8.92-31.36-13.24-47.08-.6-2.19-.67-4.59-.58-6.88.49-12.71 1.15-25.42 1.6-38.14.06-1.7-.43-3.56-1.15-5.12-1.99-4.32-3.98-8.69-6.45-12.75-4.49-7.35-6.08-15.42-7.02-23.8-1.14-10.21-2.69-20.38-3.95-30.58-.28-2.27-1.13-3.19-3.51-3.35-17.34-1.2-34.66-2.58-52-3.73-1.41-.09-3.29.69-4.3 1.7-8.38 8.43-10.21 18.42-6.62 29.58.03.1.09.2.11.3 1.25 7.76 4.65 12.96 13.65 12.54 1.9-.09 4.18 1.36 5.78 2.7 11.15 9.32 22.16 18.79 33.21 28.21 1.2 1.02 2.38 2.07 3.57 3.1-.06.33-.12.67-.17 1-3.33-.42-6.91-.17-9.93-1.37-11.7-4.65-23.22-9.77-34.81-14.7-.95-.4-1.92-.74-3.13-1.19-1.38 7.51-2.81 14.66-3.91 21.86-.16 1.06 1 2.65 1.97 3.51 15.93 14.16 31.92 28.25 47.9 42.35.78.68 1.52 1.41 2.79 2.59-6.64-1.21-12.58-1.66-17.84-5.55-7.57-5.61-15.62-10.56-23.48-15.79-.95-.63-1.93-1.22-3.06-1.93-7.62 9.66-11.09 20.4-9.33 32.44.99 6.79 3.1 13.4 4.3 20.16 1.57 8.79.95 17.52-1.82 26.05-.33 1-.75 1.98-1.17 2.95-.06.13-.35.15-.82.34-3.49-27.31-6.96-54.58-10.38-81.37z" fill="#010100"/><g fill="#fbfafc"><path d="m342.2 3.2-6.3 9.2h6.1v1.2h-8.2v-.5l6.2-9.1h-5.7v-1.2h7.8v.4z"/><path d="m344 13.7v-10.9h3.1c1.6 0 3 .5 4.1 1.4 1.1 1 1.6 2.2 1.6 3.9s-.5 3-1.6 4-2.5 1.5-4.2 1.5h-3zm1.4-9.6v8.4h1.6c1.4 0 2.5-.4 3.2-1.1.8-.8 1.2-1.8 1.2-3.2s-.4-2.4-1.2-3.1-1.8-1-3.1-1z"/><path d="m356.3 2.8v10.9h-1.4v-10.9z"/><path d="m366.6 13.2c-.8.4-1.8.6-3 .6-1.6 0-2.8-.5-3.7-1.5s-1.4-2.3-1.4-3.9c0-1.7.5-3.2 1.6-4.2s2.4-1.6 4-1.6c1 0 1.9.1 2.6.4v1.5c-.8-.4-1.6-.6-2.6-.6-1.2 0-2.2.4-3 1.2s-1.1 1.9-1.1 3.3c0 1.3.4 2.3 1.1 3.1s1.6 1.1 2.8 1.1c1.1 0 2-.2 2.8-.7v1.3z"/><path d="m368.2 13c0-.3.1-.5.3-.6.2-.2.4-.3.6-.3.3 0 .5.1.7.3s.3.4.3.6-.1.5-.3.6c-.2.2-.4.3-.7.3s-.5-.1-.6-.3c-.2-.2-.3-.4-.3-.6z"/><path d="m381.1 13.7h-1.7l-5.5-8.4c-.2-.2-.3-.5-.4-.7 0 .2.1.8.1 1.5v7.6h-1.4v-10.9h1.8l5.3 8.3c.3.4.4.6.4.8 0-.3-.1-.8-.1-1.6v-7.5h1.4v10.9z"/><path d="m389.7 13.7h-5.8v-10.9h5.6v1.2h-4.2v3.5h3.9v1.2h-3.9v3.7h4.4z"/><path d="m398.4 4.1h-3.1v9.6h-1.4v-9.6h-3.1v-1.3h7.7v1.3z"/></g></svg>