<svg enable-background="new 0 0 400 400" viewBox="0 0 400 400" xmlns="http://www.w3.org/2000/svg"><path d="m362.1 8.8c1.1.8 2.1 1.6 3.1 2.4l-1 1.1c-1.3-1.1-2.3-2-3-2.5zm1.9 4.8c.5.2.9.4 1.4.5-.6 2.3-1.3 4.5-1.9 6.8l-1.5-.5c.8-2.1 1.4-4.3 2-6.8zm-1-9.4c1.3.9 2.4 1.8 3.4 2.5l-1 1.1c-1.4-1.2-2.4-2.1-3.2-2.6zm3.7 2.2v-1.4h10.3v1.2c-.5 3.6-1.8 6.8-4 9.4 1.5 1.6 3.4 2.8 5.7 3.8-.3.4-.7.8-1.1 1.4-2.3-1.1-4.1-2.5-5.6-4.1-1.6 1.6-3.6 3.1-5.9 4.3-.3-.5-.7-.9-1-1.3 2.4-1.1 4.4-2.5 6-4.1-1.9-2.5-3-5.6-3.3-9.3h-1.1zm8.8 0h-6.4c.3 3.3 1.3 6 3 8.2 2-2.3 3.1-5.1 3.4-8.2z" fill="#fbfcfa"/><path d="m385.3 3.8h1.3v2.2h2.8v-2.2h1.3v2.2h4.1v9.1h1.7v1.3h-16.9v-1.3h1.7v-9.1h4.1v-2.2zm.4 13.1.7 1.2c-1.8.9-3.8 1.9-6 2.9-.2-.4-.5-.8-.8-1.3 2.3-1 4.3-1.9 6.1-2.8zm-3.1-6.4h2.8v-3.2h-2.8zm0 4.6h2.8v-3.3h-2.8zm4-4.6h2.8v-3.2h-2.8zm0 4.6h2.8v-3.3h-2.8zm3.7 1.9c2.1.9 4.1 1.8 6.1 2.7l-.7 1.3c-2.2-1.1-4.2-2-6.1-2.9zm3.2-9.7h-2.8v3.2h2.8zm-2.8 7.8h2.8v-3.3h-2.8z" fill="#fbfcfa"/><path d="m244.73 350c-2.02-6.68-3.26-13.03-1.22-19.58 1.4-4.5 1.57-8.8-.44-13.28-2.08-4.64-1.4-9.57-.25-14.36.17-.71 1.17-1.29 1.88-1.8 1.91-1.38 2.02-3.27-.01-4.52-2.53-1.55-3.44-3.75-3.63-6.61-.5-7.46-1.09-14.92-1.8-22.36-.28-2.98-1.19-5.92-1.34-8.9-.08-1.51.9-3.07 1.4-4.59-.49-1.56-.99-3.32-1.59-5.05-.47-1.36-1.17-2.66-1.56-4.04-.53-1.91-.96-3.85-1.27-5.81-.7-4.45-1.2-8.94-1.98-13.38-.72-4.07-1.86-8.06-2.52-12.13-.71-4.37-2.87-7.53-5.94-7.6-.92-.02-2.26.6-2.71 1.35-2.19 3.61-4.2 7.32-6.15 11.07-.87 1.67-1.98 3.45-2.09 5.24-.54 8.41-4.13 15.95-6.35 23.88-.47 1.66-.41 3.49-.5 5.24-.05 1.05.46 2.29.08 3.14-7.54 16.59-6.13 34.7-8.98 52.08-.5 3.07-3.1 6.42-2.35 8.93 1.01 3.34 1.36 6.3.59 9.53-.38 1.6-1.27 3.09-1.52 4.7-.18 1.22-.05 2.74.55 3.77 1.56 2.62 1.73 4.96-.49 7.2-2.01 2.02-1.98 3.94-.65 6.5 3.02 5.81 1.3 12.47-3.62 16.48-4.22-11.34-3.92-23.18-2.86-35.12.67-7.6.72-15.2-1.63-22.66-.6-1.89-.38-4.19-.01-6.21.88-4.79 2.09-9.51 3.13-14.27.29-1.34.94-2.8.66-4.04-1.57-6.99 1.62-13.03 3.43-19.39.72-2.54.68-5.36.56-8.04-.13-2.82-.34-5.47 2.13-7.54.43-.36.7-1.35.55-1.93-1.16-4.71.88-8.64 2.73-12.7 1.02-2.24 1.49-4.74 2.34-7.06 2.4-6.52 5.2-12.92 7.2-19.56 1.64-5.43 4.77-10.48 4.46-16.5-.07-1.45.56-3.19 1.45-4.37 2.06-2.74 2.05-5.28.31-8.11-.88-1.43-1.58-3.03-2.03-4.64-.4-1.45-.24-3.04-.53-4.53-.41-2.12-.85-4.26-1.57-6.29-.82-2.32-1.08-4.11 1.94-4.89.55-.14.88-1.12 1.31-1.71-.73-.42-1.47-1.21-2.2-1.2-5.76.11-5.85.05-8.38-5.37-.75-1.61-1.71-3.18-2.81-4.57-1.44-1.81-3.38-2.46-5.68-1.6-1.09.41-2.21 1.05-3.31 1.05-5.85-.01-8.78 3.48-10.94 8.37-1.41 3.18-2.86 6.58-5.15 9.09-5.55 6.05-6.81 13.92-9.86 21.03-1.83 4.28-3.33 8.71-5.25 12.95-2.01 4.42-2.78 8.96-3.12 13.8-.36 5.14-1.87 10.19-2.7 15.31-.68 4.17-1.11 8.38-1.64 12.57-.11.84.12 1.88-.29 2.5-4.45 6.65-3.19 14.44-3.8 21.67-.38 4.48-1.13 8.4-3.44 12.03-.77 1.21-2.41 2.51-3.72 2.58-2.06.11-3-1.63-2.85-3.75.26-3.5.55-7 .77-10.51.23-3.67.45-7.34.55-11.02.1-3.56.01-7.12.07-10.67.03-1.55.2-3.1.34-4.65.06-.62.47-1.3.32-1.85-2.42-9.3 2.02-17.83 2.96-26.75.07-.63.66-1.26 1.12-1.79 1.58-1.85 3.24-3.64 4.82-5.49 1.87-2.21 2.8-4.21 2.05-7.63-.89-4.03-1.74-8.65 2.04-12.54 1.36-1.4.9-4.44 1.58-6.64.8-2.56 1.62-5.23 3.05-7.45 1.37-2.14 2.28-4.1 2.23-6.69-.02-1.22 1-2.52 1.73-3.67 1.1-1.72 2.93-3.19 3.44-5.04 1.5-5.45 4.93-9.52 8.54-13.56 2.04-2.28 4.16-4.56 5.81-7.12 1.85-2.86 2.06-5.77 1.19-9.5-1.53-6.52-5.1-11.8-8.04-17.5-.42-.83-.84-1.74-.91-2.65-.5-5.99-1.05-11.99-1.29-18-.2-4.85-.01-9.72.04-14.59.01-.62.02-1.53.39-1.81 2.93-2.16 1.95-5.01 1.59-7.81-1.18-9.19.26-14.46 6.21-22.41 3.5 1.87 5.9 4.86 8.11 8.05.24.35.29.86.58 1.12 3.45 2.98 6.26 6.33 7.64 10.83.18.6 2.77 1.17 3.7.69 2.4-1.24 3.97-.47 6.05.8 4.01 2.43 5.44 5.23 3.84 9.92-1.43 4.2-.36 5.69 3.46 7.46.9.41 1.65 1.21 2.36 1.93.51.52.75 1.29 1.24 1.84 7.22 8.23 14.55 16.36 21.63 24.7 1.7 2 2.95 4.59 3.73 7.12.84 2.71 2.16 4.05 4.99 4.49 1.29.2 2.74 1.3 3.52 2.41 1.69 2.39 2.57 5.34 5.65 6.61.58.24 1.14 1.63.96 2.26s-1.3 1.33-2.05 1.4c-4.73.4-6.16-.36-7.69-4.87-1.12-3.3-2.79-5.38-6.37-6.14-1.59-.34-3.11-1.67-4.37-2.85-5.98-5.66-11.83-11.45-17.79-17.13-1.66-1.58-4.86-.98-5.92 1.14-3.78 7.58-7.51 15.18-11.11 22.85-.44.93-.24 2.46.22 3.47 1.57 3.47 3.19 6.95 5.19 10.18 1.21 1.96 3.14 3.49 4.77 5.18.5.52 1.31.83 1.61 1.43 2.62 5.33 5.16 10.7 7.74 16.04.32.66.59 1.5 1.14 1.87 4.93 3.27 5.21 8.62 6.35 13.63.29 1.28.84 2.67 1.69 3.63 4.28 4.85 7.93 9.95 7.92 16.81 0 .21.02.48.14.61 4.61 4.79 3.11 11.36 5.01 16.93 1.16 3.42 3.11 6.59 4.14 10.04.73 2.46.46 5.2.74 7.81.34 3.1.79 6.18 1.2 9.27.4 2.99.31 6.16 1.33 8.92 1.76 4.75.41 9.2.06 13.85-.25 3.35 1.63 6.8 1.83 10.25.35 6 .04 12.04.18 18.06.09 4.01.56 8 .73 12.01.15 3.83.56 7.71-4.57 9.16-1.82.51-1.69 2 .14 3.21.92.61 1.74 1.95 1.85 3.04.27 2.62-.02 5.3.11 7.94.15 2.96-.49 5.37-2.45 7.86-1.29 1.64-1.35 4.52-1.35 6.85 0 2.29.87 4.56 1.2 6.87.33 2.57-.5 4.57-3.65 5.79zm-31.45-262.99c-1.75-1.29-3-2.05-4.07-3.02-2.87-2.58-5.89-5.04-8.42-7.93-3.48-3.97-6.45-8.39-9.86-12.42-2.51-2.97-5.42-5.59-10.49-6.82.42 2.01.86 3.43.99 4.87.52 6.03 1.3 12.07 1.31 18.11 0 4.9-1.75 9.94 2.66 13.94.14.13.2.36.28.56 1.67 3.94 3.17 7.96 5.04 11.79 1.95 4 3.84 4.13 6.22.31 2.46-3.93 4.53-8.11 6.59-12.27 1.38-2.79 2.88-5.11 6.41-5.31.93-.07 1.8-.95 3.34-1.81zm-66.06 123.59c.32 3.37 2.02 4.08 4.75 3.15.27-3.55-.68-4.18-4.75-3.15z" fill="#010101"/></svg>