<svg enable-background="new 0 0 400 400" viewBox="0 0 400 400" xmlns="http://www.w3.org/2000/svg"><path d="m378.6 9.2.8-1c.9.7 1.9 1.4 2.9 2.3l-.9 1.1c-1.1-.9-2-1.7-2.8-2.4zm.5 10.7c.9-2.1 1.6-4.3 2.3-6.7.4.2.8.4 1.3.6-.7 2.1-1.5 4.3-2.2 6.6zm.4-15.2.9-.9c1 .8 2 1.6 2.8 2.4l-1 1c-1-.9-1.9-1.8-2.7-2.5zm12.5-1.3h1.2v1.4h2.7v1.1h-2.7v2.7h-1.2v-.5h-1.8v1.3h4.9v3.8h-1.2v-.5h-3.7c0 .4-.1.9-.1 1.2h5.1v1h-5.2c0 .5-.1.9-.2 1.2h6v1h-5.2c1.1 1.3 2.9 2 5.5 2.2-.4.4-.7.8-.9 1.3-2.9-.5-4.8-1.6-5.7-3.5h-.1c-.8 1.7-2.7 2.9-5.9 3.6-.2-.4-.6-.8-.9-1.1 2.8-.6 4.6-1.4 5.4-2.5h-4.8v-1h5.3c.1-.3.2-.7.2-1.2h-4.9v-1h5c0-.4 0-.8.1-1.2h-3.6v.5h-1.2v-3.8h4.9v-1.3h-1.8v.5h-1.2v-2.7h-2.6v-1.1h2.6v-1.4h1.2v1.4h4.7v-1.4zm-6.7 8.4h3.6c0-.4 0-.9 0-1.4h-3.6zm1.9-4.7h4.7v-1.2h-4.7zm6.7 3.3h-3.7v1.4h3.7z" fill="#fafbfc"/><path d="m384.7 21.4h1.3v2.2h2.8v-2.2h1.3v2.2h4.1v9.1h1.7v1.3h-16.9v-1.3h1.7v-9.1h4.1v-2.2zm.3 13.2.7 1.2c-1.8.9-3.8 1.9-6 2.9-.2-.4-.5-.8-.8-1.3 2.4-1 4.4-2 6.1-2.8zm-3.1-6.5h2.8v-3.2h-2.8zm0 4.6h2.8v-3.3h-2.8zm4.1-4.6h2.8v-3.2h-2.8zm0 4.6h2.8v-3.3h-2.8zm3.6 1.9c2.1.9 4.1 1.8 6.1 2.7l-.7 1.3c-2.2-1.1-4.2-2-6.1-2.9zm3.3-9.7h-2.8v3.2h2.8zm-2.8 7.8h2.8v-3.3h-2.8z" fill="#fafbfc"/><g fill="#010104"><path d="m195.05 189.44c-.32-4.92-.99-9.03-.76-13.1.46-8.14 1.56-16.24 2.09-24.37.24-3.67.01-7.43-.5-11.08-1.64-11.81.25-23.48 1.04-35.2.35-5.18.68-10.37 1.3-15.52.92-7.56 2.09-15.1 3.15-22.64.09-.63.2-1.26.25-1.89.6-7.71-2.24-10.81-9.93-10.86-.21 0-.43-.04-.63.01-9.6 2.19-18.54-1.4-27.79-2.77-4.91-.72-10.45.14-15.18 1.78-3.35 1.17-4.21 5.62-4.21 9.34-.01 2.96.8 5.95.53 8.87-.68 7.37-1.85 14.69-2.66 22.05-.83 7.57-1.37 15.17-2.23 22.74-.53 4.71-1.08 9.47-2.27 14.03-.58 2.23-2.67 4.07-4.07 6.09-.47-.1-.93-.2-1.4-.3-.81-6.46-2.18-12.92-2.29-19.39-.17-10.04.53-20.1.87-30.16.09-2.65.37-5.3.25-7.94-.26-5.99.48-11.72 2.56-17.44.89-2.44.07-5.59-.31-8.37-.59-4.3-1.45-8.56-2.22-12.83-.79-4.37.97-5.83 5.4-4.99 6.23 1.17 12.49 2.27 18.79 2.94 6.84.73 13.73.95 20.6 1.39.42.03.89-.03 1.26.13 8.55 3.62 17.55 2.04 26.38 2.28 5.72.16 11.46.21 17.17-.03 3.69-.16 6.87.59 9.63 3.07.77.69 1.74 1.14 3.54 2.28-.19-1.98-.3-3.17-.43-4.55h23.52c4.24 0 8.49.14 12.72-.05 2.98-.13 5.71.28 8.02 2.21 2.5 2.11 4.64 2.01 6.62-.67.37-.5.93-.86 1.39-1.27 3.45 2.29 3.56 3.86.57 6.21-7.09 5.58-9.47 13.52-8.65 21.79.56 5.62.87 11.06.27 16.64-1.51 14.11.32 28.15.89 42.23.46 11.3 2.01 22.65-.3 33.92-.98 4.77-2.73 9.12-7.78 11.95-.36-4.79-.72-9.27-1.02-13.76-1.46-21.68-3.17-43.35-4.19-65.05-.32-6.89 1.4-13.85 1.81-20.8.29-4.83.06-9.71-.14-14.56-.12-3.01-2-5.08-4.88-5.43-3.82-.47-7.81-.94-11.56-.34-6.75 1.08-13.34 1.74-20.19.65-3.8-.6-7.79.1-11.7.11-3.07.01-3.73 1.7-3.91 4.44-.72 11-1.64 21.98-2.51 32.97-.07.94-.15 1.93-.5 2.78-3.19 7.8-4.03 15.95-4.08 24.29-.05 8.99-.1 17.99-.68 26.95-.22 3.5-2.12 6.85-2.8 10.36-.71 3.68-1.04 7.45-1.24 11.2-.14 2.63.26 5.29.35 7.94.21 5.32-2.76 8.59-7.96 11.72z"/><path d="m256.62 366.25c-5.76-17.47-8.46-34.98-6.92-53.3 1.12-13.26.57-26.66.94-39.99.1-3.53.61-7.09 1.39-10.54.89-3.91 2.06-7.8 3.56-11.51 1.67-4.12 3.47-4.69 6.59-2.43 3.47 2.51 5.76 5.62 5.81 10.01.21 21.6.68 43.21.36 64.8-.1 6.44-2.52 12.83-3.79 19.26-1.23 6.22-2.38 12.46-3.47 18.71-.64 3.64-.56 3.66-4.47 4.99z"/><path d="m179.61 327.31c-1.31.21-2.43.39-3.83.61-1.54-8.33-3.05-16.54-4.56-24.74-.25-1.35-.32-2.76-.74-4.06-1.57-4.99-.95-9.7 1.05-14.48.64-1.54.51-3.8-.12-5.4-4.06-10.35.93-18.5 6.21-26.58.33-.5 1.88-.79 2.41-.45 1.6 1.02 3.13 2.27 4.37 3.69.49.57.23 1.84.23 2.79-.03 6.87.29 13.76-.22 20.59-.82 10.96-2.21 21.88-3.33 32.82-.51 4.95-.96 9.9-1.47 15.21z"/><path d="m113.94 272.45c-3.73-4.44-2.33-9.12-.96-13.69 1.5-5 3.28-9.91 5.06-15.21 3.24 2.16 5.31 4.26 4.74 7.25-1.9 9.95 1.22 19.86.01 29.73-1.47 12.06-3.37 24.07-5.37 36.05-.23 1.38-2.32 2.45-3.79 3.9-3.52-5.64-5.1-11.13-5.18-16.85-.11-8.46.31-16.94.65-25.4.04-.99.87-2.06 1.58-2.88.89-1.02 2.02-1.82 3.26-2.9z"/></g></svg>