<svg enable-background="new 0 0 400 400" viewBox="0 0 400 400" xmlns="http://www.w3.org/2000/svg"><path d="m374.8 390.4.4-.4c.7.5 1.3 1 1.8 1.4l-.5.5c-.5-.6-1.1-1.1-1.7-1.5zm1 7.3-.6-.3c.5-1.4 1.1-2.8 1.5-4.3.2.1.4.2.6.3-.5 1.3-1 2.8-1.5 4.3zm-.4-10.3.4-.4c.4.3 1 .8 1.7 1.4l-.5.5c-.4-.5-1-1-1.6-1.5zm2.5.3h1.7v-1h.6v1h3.5v-1h.6v1h1.8v.5h-1.8v1.4h-2v1h3.2v2h-3.2v.9h3.3v.5h-3.4c0 .3-.1.6-.1.9h4v.5h-3.7c.7.9 1.9 1.5 3.8 1.7-.1.2-.2.4-.3.6-2.1-.4-3.5-1.1-4-2.1-.4 1-1.8 1.7-4 2.2-.1-.2-.2-.4-.3-.6 2.1-.4 3.4-1 3.8-1.8h-3.4v-.5h3.6c.1-.3.1-.6.2-.9h-3.3v-.5h3.4c0-.3 0-.6 0-.9h-3.2v-2h3.3v-1h-2.1v-1.4h-1.7v-.5zm1.1 3.5v1h2.7c0-.3 0-.4 0-.4 0-.1 0-.2 0-.2 0-.1 0-.2 0-.3h-2.7zm1.2-3v.9h3.5v-.9zm4.7 3h-2.6v.6.4h2.6z" fill="#fbfafc"/><path d="m393.6 386.7h.6v1.5h2.7v6.1h1.1v.6h-11v-.6h1.1v-6.1h2.7v-1.5h.6v1.5h2.1v-1.5zm-2.7 8.8.4.6c-1.2.6-2.5 1.3-3.8 1.9-.1-.2-.2-.4-.3-.6 1.2-.6 2.5-1.2 3.7-1.9zm-2.2-6.7v2.4h2.1v-2.4zm0 3v2.5h2.1v-2.5zm2.8-3v2.4h2.1v-2.4zm0 3v2.5h2.1v-2.5zm6 6.1c-1.4-.7-2.7-1.3-3.9-1.8l.3-.6c1.5.6 2.7 1.2 3.9 1.7zm-1.2-9.1h-2.1v2.4h2.1zm-2.1 3v2.5h2.1v-2.5z" fill="#fbfafc"/><g fill="#010000"><path d="m292.84 192.31c1.44 2.39 3.36 4.45 4.03 6.87 2.62 9.46 4.99 19 7.08 28.59.42 1.93-.25 4.56-1.34 6.29-4.76 7.55-5.89 15.73-6.1 24.49-.79 34.12-2.07 68.23-2.94 102.35-.11 4.33-3.33 3.58-5.5 4.66s-2.71-.96-3.5-2.19c-2.91-4.58-3.28-9.58-3.11-14.93.12-3.87-1.11-7.82-2.07-11.65-.23-.9-1.7-1.97-2.73-2.13-17.46-2.74-34.9-5.76-52.44-7.86-19.76-2.37-39.54-1.04-59.27 1.41-4.03.5-8.31.47-12.28-.32-7.36-1.47-14.53-.68-21.77.38-4.19.61-8.41 1.06-12.57 1.83-1.14.21-2.72 1.12-3.07 2.08-2.1 5.85-4.13 11.74-5.72 17.74-1.72 6.48-5.3 8.72-11.44 6.33-1.18-.46-2.31-1.48-3.05-2.54-4.67-6.65-4.72-14.05-3.26-21.66 1-5.2 2.33-10.37 2.85-15.61.48-4.81-.03-9.71.06-14.57.34-18 .28-36.03 1.3-54 .65-11.47 2.93-22.85 4.51-34.26.1-.73.5-1.41.59-2.14.35-2.76 1.9-2.9 4.42-2.91 6.3-.03 10.87 2.62 14.39 7.6.48.69 1.25 1.18 1.7 1.89 3.56 5.54 8.66 6.88 15.09 7.06 26.15.71 52.29 1.98 78.43 3.03 19.05.77 38.1 1.48 57.15 2.33 2 .09 3.19-.38 3.91-2.22 1.7-4.32 3.82-8.51 5.1-12.95 2.61-9.16 6-16.46 11.55-22.99zm-177.87 91.1c-.28 0-.55.01-.83.01.58 5.34 1.05 10.7 1.79 16.03.4 2.89 2 4.36 5.32 4.55 6.76.4 13.48 1.43 20.23 2.13 19.59 2.06 39.09 4.91 58.92 4.35 12.99-.37 26.03-.73 39 1.51 7.28 1.26 14.9 1.7 22.05-.75 4.61-1.58 9.35-3.67 13.05-6.72 3.49-2.88 5.76-7.27 8.4-11.12.53-.77.61-2.12.38-3.08-1.25-5.32-2.83-10.57-3.96-15.92-1.09-5.17-1.64-10.44-2.66-15.63-.5-2.57-2.12-4.4-4.6-5.68-10.34-5.35-21.34-7.26-32.88-6.92-9.62.28-19.26.57-28.88.35-5.36-.12-10.73-2.01-16.05-1.83-16.09.54-32.17 1.55-48.24 2.7-7.52.54-14.95 2.01-21.56 5.98-1.56.94-3.44 2.27-3.97 3.84-2.85 8.5-6.78 16.8-5.51 26.2z"/><path d="m206.69 34.85c6.81 4.69 10.04 11.09 10.78 18.43.8 7.98.24 16.09.92 24.09.5 5.84 1.88 11.63 3.2 17.37.66 2.87 2.62 3.35 5.78 2.88 7.56-1.12 13.36-4.54 18.01-10.52 2.46-3.16 5.32-6.09 8.37-8.7 5.52-4.72 8.28-10.8 9.75-17.68.44-2.07 1.11-4.08 1.66-6.13 1.48-5.47 4.67-9.66 9.72-12.87 5.79 8.91 8.74 18.49 6.12 28.93-1.92 7.64-4.92 15.03-7.62 22.46-.41 1.14-1.6 2.23-2.7 2.87-11.53 6.72-23 13.56-34.76 19.86-3.92 2.1-8.59 2.86-12.99 4-1.79.46-2.42 1.15-2.29 3.01.38 5.28.57 10.57.86 16.28 5.5 1.05 10.99 2 16.44 3.18 2.45.53 5.18 1.01 7.07 2.44 1.63 1.23 2.45 3.72 3.24 5.8.62 1.63-.36 2.56-2.1 3.14-6.43 2.13-12.86 4.27-19.15 6.75-7.42 2.93-11.03 11.96-7.93 19.33.27.65 1.38 1.18 2.18 1.35 6.21 1.32 12.47 2.45 18.67 3.82 4.78 1.05 7.69 4.11 8.94 8.88.62 2.38.21 3.86-2.34 4.41-6.61 1.45-13.15 3.39-19.83 4.29-17.14 2.31-34.38 3.28-51.69 2.69-3.27-.11-6.54-.59-9.78-1.07-6.99-1.05-7.58-7.93-5.94-12.57.25-.7 1.43-1.14 2.25-1.57 8.13-4.31 16.99-4.79 25.93-5.03 6.15-.17 9.21-3.09 9.27-9.29.04-3.97-.76-7.97-1.46-11.91-.14-.82-1.42-1.87-2.32-2.04-5.82-1.08-11.64-2.26-17.52-2.82-8.18-.77-10.75-4.41-7.66-12.05.45-1.1 1.88-2.32 3.05-2.54 6.44-1.25 12.92-2.38 19.43-3.18 3.45-.43 5.78-2.06 6.35-5.22.9-5.07 1.29-10.25 1.65-15.4.05-.72-1.21-1.85-2.1-2.25-6.39-2.82-12.85-5.48-19.27-8.24-23.63-10.16-33.18-32.42-30.72-54.24.36-3.14 1.02-6.27 1.82-9.33.25-.96 1.44-2.37 2.16-2.35 1.06.04 2.57.94 3.05 1.89 5.08 10.24 10.17 20.48 14.9 30.89 5.08 11.18 13.21 18.11 25.5 20.06 2.91.46 4.43-.3 5.51-3.09 2.87-7.41 3.95-15.13 4.54-22.98.85-11.31 1.75-22.61 2.64-33.91.01-.49.17-.99.41-2.12z"/><path d="m200.46 266.36c12.07 0 24.14-.08 36.2.04 5.06.05 9.85 1.52 14.04 4.4 1.59 1.09 3.25 2.66 3.92 4.39 1.67 4.3 2.06 7.29-3.34 9.68-7.57 3.35-15.39 3.86-23.34 2.92-20.18-2.39-40.38-1.05-60.58-.57-2.4.06-4.27-.28-5.95-2.07-1.66-1.77-3.55-3.33-5.34-4.99-2.95-2.74-3.63-6.38-3.71-10.14-.01-.67 1.06-1.58 1.84-2.01 5.55-3.06 11.62-2.65 17.66-2.61 9.53.05 19.06.01 28.58.01.02.32.02.64.02.95z"/></g></svg>