<svg enable-background="new 0 0 400 400" viewBox="0 0 400 400" xmlns="http://www.w3.org/2000/svg"><path d="m378.6 9.2.8-1c.9.7 1.9 1.4 2.9 2.3l-.9 1.1c-1.1-.9-2-1.7-2.8-2.4zm.5 10.7c.9-2.1 1.6-4.3 2.3-6.7.4.2.8.4 1.3.6-.7 2.1-1.5 4.3-2.2 6.6zm.4-15.2.9-.9c1 .8 2 1.6 2.8 2.4l-1 1c-1-.9-1.9-1.8-2.7-2.5zm12.5-1.3h1.2v1.4h2.7v1.1h-2.7v2.7h-1.2v-.5h-1.8v1.3h4.9v3.8h-1.2v-.5h-3.7c0 .4-.1.9-.1 1.2h5.1v1h-5.2c0 .5-.1.9-.2 1.2h6v1h-5.2c1.1 1.3 2.9 2 5.5 2.2-.4.4-.7.8-.9 1.3-2.9-.5-4.8-1.6-5.7-3.5h-.1c-.8 1.7-2.7 2.9-5.9 3.6-.2-.4-.6-.8-.9-1.1 2.8-.6 4.6-1.4 5.4-2.5h-4.8v-1h5.3c.1-.3.2-.7.2-1.2h-4.9v-1h5c0-.4 0-.8.1-1.2h-3.6v.5h-1.2v-3.8h4.9v-1.3h-1.8v.5h-1.2v-2.7h-2.6v-1.1h2.6v-1.4h1.2v1.4h4.7v-1.4zm-6.7 8.4h3.6c0-.4 0-.9 0-1.4h-3.6zm1.9-4.7h4.7v-1.2h-4.7zm6.7 3.3h-3.7v1.4h3.7z" fill="#fafbfc"/><path d="m384.7 21.4h1.3v2.2h2.8v-2.2h1.3v2.2h4.1v9.1h1.7v1.3h-16.9v-1.3h1.7v-9.1h4.1v-2.2zm.3 13.2.7 1.2c-1.8.9-3.8 1.9-6 2.9-.2-.4-.5-.8-.8-1.3 2.4-1 4.4-2 6.1-2.8zm-3.1-6.5h2.8v-3.2h-2.8zm0 4.6h2.8v-3.3h-2.8zm4.1-4.6h2.8v-3.2h-2.8zm0 4.6h2.8v-3.3h-2.8zm3.6 1.9c2.1.9 4.1 1.8 6.1 2.7l-.7 1.3c-2.2-1.1-4.2-2-6.1-2.9zm3.3-9.7h-2.8v3.2h2.8zm-2.8 7.8h2.8v-3.3h-2.8z" fill="#fafbfc"/><g fill="#010104"><path d="m282.07 158.62c-.89 4.45-1.89 8.64-2.51 12.88-.63 4.29-.8 8.65-1.34 12.97-.77 6.23 1.27 11.73 4.38 16.88 1.67 2.78 1.95 5.41.79 8.39-.61 1.57-1.16 3.26-1.22 4.91-.05 1.41.21 3.2 1.05 4.22 4.12 5 5.88 10.74 7.13 17.03 1.84 9.21 4.73 18.21 7.06 27.33 1.48 5.8 3.82 11.14 7.18 16.13 1.43 2.13 2.06 4.83 2.87 7.34 2.15 6.65 4.01 13.39 6.36 19.97 2.14 5.99 2.68 12.05 2.94 18.36.24 5.83 2.1 11.57 2.98 17.39 1.05 6.93.55 13.69-2.7 20.13-1.17 2.32-2.69 3.38-5.51 3.24-2.82-6.79-5.69-13.71-8.55-20.62-1.5-3.62-3.22-7.17-4.41-10.88-1.35-4.19-2.21-8.53-3.32-12.8-.34-1.32-.67-2.66-1.25-3.88-9.46-19.89-16.14-40.65-20.79-62.2-1.61-7.45-5.28-14.47-8.24-21.6-3.96-9.52-5.35-19.59-6.58-29.67-.91-7.46-1.26-15-2.06-22.47-.18-1.71-.96-3.49-1.89-4.96-2.6-4.1-3.71-8.55-3.37-13.31.9-12.78 1.86-25.57 3.01-38.33.17-1.85 1.27-3.79 2.42-5.33 2.64-3.54 4.08-7.44 4.14-11.78.13-8.73 2.5-16.71 7.54-23.85 1.45-2.05 1.2-4.17 1.25-6.55.23-10.77-7.35-13.96-15.47-16.76-3.39-1.17-7-1.81-10.25-3.28-2.17-.98-3.87-3-6.14-4.85 5.94-4.86 10.96-9.65 16.68-13.36 2.68-1.73 6.7-1.46 10.14-1.94 6.19-.87 12.38-1.77 18.6-2.35 2.81-.26 5.68.24 8.53.38 8.46.39 16.93.76 25.39 1.16 9.21.43 14.68 5.12 15.77 13.65-.76.4-1.57.85-2.41 1.25-5.74 2.72-11.29 6.01-17.27 8.01-8.93 2.99-13.62 9.31-15.83 17.81-3.01 11.57-6.27 23.14-8.16 34.91-.9 5.6.07 11.64 5.15 16.46 12.63 11.99 24.06 25.11 33.78 39.61 6.66 9.94 10.43 20.97 11.74 32.9.34 3.04-.64 5.45-3.2 6-1.83.4-4.49-.7-6.06-2-2.42-1.99-4.32-4.65-6.26-7.17-6.04-7.88-13.27-14.48-20.95-20.73-3.87-3.16-7.23-7.1-10.24-11.12-2.7-3.6-5.78-6.14-10.9-7.52z"/><path d="m69.52 358.39c-1.37-4.46-1.75-8.9.08-12.93 5.91-13.01 7.5-27.07 10.63-40.78 1.02-4.45 3.4-8.58 4.98-12.92.85-2.33 1.82-4.8 1.85-7.22.16-10.56 1.38-20.9 5.01-30.87.32-.88.53-1.9 1.1-2.59 7.53-9.01 9.79-20.02 11.75-31.11.66-3.74.98-7.56 1.19-11.36.21-3.79-2.58-5.95-6.07-4.39-4.87 2.18-9.72 3.86-13.29 8.89-4.47 6.29-10.53 11.56-16.38 16.73-4.11 3.63-9.29 5.35-16.04 4.24 2.19-5.14 3.8-10.13 6.32-14.61 5.82-10.32 12.17-20.33 18.05-30.62.84-1.47.81-3.96.21-5.62-.94-2.62-.77-4.97.86-6.85 2.53-2.92 5.37-5.6 8.31-8.12 1.75-1.5 3.88-2.58 5.91-3.71 4.58-2.54 7.29-6.15 8.72-11.38.89-3.25 3.93-5.88 5.81-8.9.78-1.26 1.47-2.82 1.5-4.26.14-8.59.08-17.18.06-25.77 0-.83.1-1.82-.29-2.48-4.73-7.91-4.56-16.81-5.42-25.54-.49-5.03-1.46-10.03-2.64-14.95-.36-1.48-1.92-3.02-3.33-3.83-6.7-3.81-14.17-4.63-21.69-5.48-3.89-.44-7.95-1.45-11.4-3.24-4.15-2.15-6.2-7.3-5.94-12.18 3.09 1.32 6.02 2.72 9.08 3.78 1.11.38 2.82.39 3.72-.21 8.78-5.91 18.55-8.45 28.96-9.22 3.69-.27 7.33-1.55 11-1.54 6.41.02 12.9.13 19.19 1.21 11.09 1.89 21.67 5.68 31.83 10.61.47 3.41-1.11 5.19-4.18 6.38-7.08 2.75-14.52 2.59-21.89 3.22-4.07.35-8.1 1.33-12.09 2.28-2.7.64-3.99 2.48-3.55 5.43.57 3.87.99 7.77 1.43 11.66.13 1.16.27 2.35.13 3.49-.43 3.54.33 6.27 3.27 8.84 3.25 2.83 4.66 6.97 4.98 11.37.54 7.28-.31 15.09 2.07 21.73 5.33 14.87 3.43 30.15 4.87 45.23 1.17 12.26-2.78 23.41-5.97 34.78-10.29 36.58-20.65 73.14-30.99 109.71-.31 1.11-.61 2.31-1.25 3.23-5.36 7.74-8.81 16.38-12.16 25.09-3.21 8.25-8.92 13.53-18.3 14.78z"/></g></svg>