<svg enable-background="new 0 0 400 400" viewBox="0 0 400 400" xmlns="http://www.w3.org/2000/svg"><path d="m378.6 9.2.8-1c.9.7 1.9 1.4 2.9 2.3l-.9 1.1c-1.1-.9-2-1.7-2.8-2.4zm.5 10.7c.9-2.1 1.6-4.3 2.3-6.7.4.2.8.4 1.3.6-.7 2.1-1.5 4.3-2.2 6.6zm.4-15.2.9-.9c1 .8 2 1.6 2.8 2.4l-1 1c-1-.9-1.9-1.8-2.7-2.5zm12.5-1.3h1.2v1.4h2.7v1.1h-2.7v2.7h-1.2v-.5h-1.8v1.3h4.9v3.8h-1.2v-.5h-3.7c0 .4-.1.9-.1 1.2h5.1v1h-5.2c0 .5-.1.9-.2 1.2h6v1h-5.2c1.1 1.3 2.9 2 5.5 2.2-.4.4-.7.8-.9 1.3-2.9-.5-4.8-1.6-5.7-3.5h-.1c-.8 1.7-2.7 2.9-5.9 3.6-.2-.4-.6-.8-.9-1.1 2.8-.6 4.6-1.4 5.4-2.5h-4.8v-1h5.3c.1-.3.2-.7.2-1.2h-4.9v-1h5c0-.4 0-.8.1-1.2h-3.6v.5h-1.2v-3.8h4.9v-1.3h-1.8v.5h-1.2v-2.7h-2.6v-1.1h2.6v-1.4h1.2v1.4h4.7v-1.4zm-6.7 8.4h3.6c0-.4 0-.9 0-1.4h-3.6zm1.9-4.7h4.7v-1.2h-4.7zm6.7 3.3h-3.7v1.4h3.7z" fill="#fafbfc"/><path d="m384.7 21.4h1.3v2.2h2.8v-2.2h1.3v2.2h4.1v9.1h1.7v1.3h-16.9v-1.3h1.7v-9.1h4.1v-2.2zm.3 13.2.7 1.2c-1.8.9-3.8 1.9-6 2.9-.2-.4-.5-.8-.8-1.3 2.4-1 4.4-2 6.1-2.8zm-3.1-6.5h2.8v-3.2h-2.8zm0 4.6h2.8v-3.3h-2.8zm4.1-4.6h2.8v-3.2h-2.8zm0 4.6h2.8v-3.3h-2.8zm3.6 1.9c2.1.9 4.1 1.8 6.1 2.7l-.7 1.3c-2.2-1.1-4.2-2-6.1-2.9zm3.3-9.7h-2.8v3.2h2.8zm-2.8 7.8h2.8v-3.3h-2.8z" fill="#fafbfc"/><g fill="#010104"><path d="m231.91 295.13c-.53 4.87-.97 8.93-1.4 12.98-.19.03-.39.06-.58.09-1.36-2.95-2.58-5.98-4.14-8.83-.7-1.28-1.89-2.54-3.18-3.21-4.78-2.5-9.76-4.63-14.52-7.17-2.63-1.4-5.01-1.88-7.73-.42-1.18.64-2.56.92-4.13 1.46-.15-1.39-.27-2.57-.42-4.05-3.25 0-6.43.19-9.56-.08-1.65-.14-3.51-.75-4.78-1.76-4.81-3.83-9.48-7.84-14.07-11.93-1.44-1.28-2.5-1.32-4.15-.44-5.85 3.09-5.81 2.96-10.06-1.99-.82-.96-2.42-1.29-3.7-1.8-.46-.18-1.05-.05-1.58-.03-5.02.27-9.56-.37-14.12-3.27-3.99-2.54-9.06-3.39-13.62-5.06-1.78-.65-3.49-1.51-5.24-2.28-.29.21-.65.34-.78.59-2.86 5.22-8.95 6.57-13.82 3.01-4.19-3.07-8.27-6.3-12.59-9.18-1.31-.87-3.26-1.1-4.9-1.05-1.98.07-4.04.5-5.89 1.22-3.23 1.26-5.08-.12-6.85-2.63-3.68-5.2-5.83-10.64-4.71-17.24.96-5.63 1.36-11.36 1.79-17.07.11-1.47-.33-3.14-1-4.47-3.11-6.12-6.39-12.16-9.73-18.46 3.66-2.21 4.3-5.59 4.67-9.52.45-4.72-2.95-6.1-5.94-8.37 1.13-2.09 2.23-4.11 3.33-6.12 1.11-2.04 2.23-4.07 3.46-6.32-.86-.71-1.63-1.39-2.43-2.02-2.59-2.02-3.58-4.27-2.44-7.74 1.35-4.09.5-8.14-2.23-11.67-6.42-8.3-12.86-16.59-19.14-25-.72-.96-.8-2.63-.67-3.92.14-1.44.74-2.88 1.35-4.22 1.76-3.83 2.08-7.39.03-11.43-2.03-4-.03-9.32 3.75-11.55-.83-.34-1.46-.62-2.1-.84-5.17-1.78-5.2-1.77-5.46-7.31-.32-6.88-.5-13.78-.92-20.65-.13-2.11.4-3.26 2.41-4.12 5.06-2.16 10.03-4.54 15.35-6.99 2.6 4.34 5.44 8.56 7.64 13.08.65 1.34-.16 3.69-.86 5.34-1.13 2.66-.94 4.87 1.05 6.94 3.15 3.25 3.69 6.76 1.46 10.83-2.73 4.98-2.47 9.47 2.07 13.62 2.36 2.15.19 8.01-2.88 8.8-.71.18-1.41.45-2.52.8 8.19 4.93 11.83 13.45 17.72 20.04 2.74 3.07 5.32 6.3 7.97 9.45.48-.35.97-.7 1.45-1.05.22-3.63.44-7.25.65-10.88.06-1.06.09-2.12.12-3.18.22-7.8.83-15.25 4.55-22.65 3.19-6.36 4.02-13.93 5.7-21.01.23-.97-.34-2.53-1.09-3.25-3.24-3.17-3.53-4.2-1.38-8.25.79-1.48 1.71-2.88 2.48-4.16 1.33 1.2 2.52 2.28 4.12 3.73.55-3 .98-5.33 1.54-8.41 2.07 2.48 3.76 4.5 5.5 6.58 1.8-1.42 3.38-2.82 5.12-4.01 4.79-3.28 8.6-2.76 13.08.85 1.57 1.27 4.06 1.54 6.19 1.96 2.59.5 5.25.65 7.87.99.59.08 1.15.31 2.53.71-2.63 2.3-4.84 4.22-7.4 6.46 1.8 1.13 3.02 1.89 4.52 2.83 2.54-3.32 5.74-5.42 10.1-4.33 1.15.29 2.37.91 3.19 1.74 3.77 3.78 8.1 4.16 12.44.93 1.01-.75 2.04-1.47 3.15-2.27 10.57 6.82 21.06 13.59 31.8 20.52 3.68-4.11 8.55-4.19 13.48-3.93.91.05 1.94.19 2.68.66 6.12 3.83 13.26 3.32 19.96 4.64.71.14 1.75-1.38 3.12-2.52-8.01-4.17-5.82-13.02-10.44-19.14 1.4.22 2.19.34 2.98.46 4.5.7 4.69.4 5.94-4.01.73-2.59 2.13-4.99 3.56-8.22 6.37 6.13 12.67 3.59 18.81.62 1.61 4.37-.71 7.24-3.22 10.52 1.27-.07 2.03-.07 2.78-.16 5.33-.65 5.33-.66 8.01 4.23 6.71 12.26 13.31 24.59 20.22 36.74 1.62 2.84 1.65 4.93-.34 7.33-.72.87-1.19 1.96-1.89 3.15 1.01.59 1.91 1.08 2.79 1.61 4.9 2.99 8.09 7.12 8.49 13.02.47 6.86.6 13.77 3.33 20.28.24.57-.41 1.78-.98 2.37-3.37 3.51-2.82 7.83-2.45 12.03.08.95 1.29 1.84 2.08 2.67 10.87 11.6 21.88 23.07 32.56 34.85 2.87 3.16 4.82 7.19 7.07 10.88 1.08 1.76 1.14 3.62-.49 5.23-1.53 1.51-1.6 3.18-.33 4.82 3.03 3.92 5.92 7.98 9.27 11.62 3.76 4.08 7.48 8.07 9.31 13.47 1.13 3.33 1.44 6.39-1.66 8.91-.55.45-.9 1.16-1.4 1.84.98 1.16 1.95 2.28 2.88 3.42 2.26 2.76 3.37 5.6 2.14 9.36-1.46 4.47-1.35 8.92 2.21 12.74 4.29 4.6 5.92 9.85 4.41 16.26-1.06 4.5-1.01 9.26-1.59 13.88-.11.89-.69 2.27-1.34 2.46-5.16 1.5-10.39 2.77-15.61 4.09-2.04.52-3.46-.19-4.28-2.19-.36-.87-.85-1.73-1.46-2.45-4.76-5.71-6.15-11.68-1.89-18.37.55-.87.33-2.43.06-3.58-.46-1.95-1.19-3.84-1.91-5.72-1.07-2.8-1.99-5.36.31-8.25 1.04-1.3 1.17-3.65 1.05-5.48-.33-5.07-.95-10.13-1.61-15.17-.14-1.09-.86-2.14-1.47-3.11-3.77-6.02-7.79-11.88-11.29-18.05-1.8-3.17-4.46-4.31-7.57-4.99-2.37-.52-3.45-1.67-3.03-4.14.61-3.64-.47-6.63-3.56-8.78-2.86-1.99-3.79-4.89-3.96-8.18-.27-5.31-3.37-9.13-7.15-12.27-1.28-1.06-3.78-.57-5.69-.95-1.91-.37-3.97-.6-5.61-1.51-2.14-1.2-1.89-2.88.29-4.06 1.26-.68 2.58-1.26 3.87-1.88-.03-.38-.05-.76-.08-1.14-4.21-.25-8.52-1.18-12.6-.56-4.12.62-4.86 7-1.61 10.84 9.53 11.24 19.13 22.43 28.55 33.76 1.06 1.28 1.55 3.34 1.63 5.06.1 2.41-.8 4.87-.6 7.26.23 2.74 1.08 5.44 1.89 8.09.36 1.17 1.47 2.09 1.94 3.25 1.29 3.2 1.76 6.39-1.19 9.04-2.92 2.63-3.09 5.37-.79 8.54 2.81 3.88 2.7 7.8.98 12.39-2.79 7.41-4.75 15.14-6.78 22.81-.39 1.46.04 3.64.95 4.84 4.42 5.81 3.84 12.56 4.23 19.2.26 4.57-1.13 8.03-4.96 10.8-3.24 2.34-6.02 5.3-9.11 8.09-.92-1.17-1.66-2.2-2.49-3.14-1.4-1.58-2.75-1.8-5.01-1.03-2.27.78-5.32.81-7.54-.08-4.79-1.92-8.17-5.59-9.5-10.8-1.01-3.97-1.99-7.94-3.09-12.35-1.53 1.36-2.75 2.44-4.52 4.01-1.77-8.18-3.38-15.88-5.13-23.55-.26-1.13-.82-2.61-1.71-3.12-6.6-3.75-13.29-7.31-20.34-11.15zm-135.62-52.01c2.88-.3 4.87-.59 6.87-.7 2.3-.12 4.7-.48 6.91-.04 6.1 1.23 12.1 2.95 18.19 4.22 4.86 1.01 9.38 2.7 11.81 7.18 1.61 2.97 3.61 3.38 6.57 3.44 4.15.09 6.45-1.99 7.93-5.79 4.87 3.7 9.48 7.06 13.92 10.63 1.9 1.53 3.74 1.91 6.13 1.56 3.53-.51 7.18-1.06 10.67-.66 4.06.47 7.98 2.05 12.01 2.94 2.09.46 3.2 1.58 4.12 3.43 1.06 2.12 2.11 5.01 3.93 5.8 3.68 1.6 7.88 2.73 11.86 2.73 5.13 0 9.62 1.01 13.72 3.97 1.7 1.23 3.36 2.51 5.13 3.83 1.74-1.72 3.45-3.28 4.99-5 1.12-1.24 2.11-1.74 3.81-1.01 4.17 1.81 8.59 3.11 12.59 5.22 2.49 1.31 4.85 3.39 6.48 5.68 3.36 4.71 6.18 9.8 9.61 15.36 2.28-2.33 4.53-4.13 6.13-6.39 1.75-2.47 3.5-4.45 7.38-4.01-1.11-1.69-1.8-3-2.74-4.1-2.32-2.74-3.04-5.8-2.92-9.38.23-6.99.17-14-.01-20.99-.04-1.64-.63-3.71-1.74-4.78-3.43-3.32-4.1-6.53-.95-10.33 1.5-1.82 1.14-3.36-.44-5.22-6.79-8-13.17-16.35-20.14-24.19-3.26-3.66-4.47-6.56-1.09-10.73 1.74-2.15.3-4.79-2.44-6.84-2.54-1.9-3.96-.94-5.25 1.33-.21.36-.53.65-.98 1.17-4.51-9.41-9.93-17.85-20.41-21.68 1.43-1.64 2.53-2.89 3.78-4.32-5.27-5.65-10.4-11.28-15.69-16.77-1.54-1.6-2.16-3.04-1.64-5.3 1.43-6.14 3.27-12.37-1.19-18.2-.3-.4.14-1.77.65-2.31 1.77-1.92 3.71-3.67 5.76-5.65-7.43-7.02-14.62-13.59-21.52-20.46-2.46-2.45-4.72-3.52-8.05-2.24-2.38.91-4.6.39-6.92-.86-6.24-3.36-12.66-6.39-18.94-9.7-1.89-.99-3.33-1.04-5.21.11-.96.59-2.81.53-3.88 0-5.6-2.77-10.94-6.09-16.65-8.58-2.51-1.09-5.97-1.56-8.47-.73-3.52 1.18-5.86.35-8.41-1.7-.69-.55-1.9-.97-2.71-.77-1.91.48-3.71 1.36-5.71 2.13 1.11 3.04 2.03 5.85 3.17 8.56.72 1.71.42 2.82-.92 4.13-3.62 3.52-7.06 7.21-10.39 10.64 2.35 5.32 5.64 8.46 12.17 6.89-3.52 6.21-6.67 11.69-9.72 17.23-.64 1.16-1.17 2.52-1.25 3.82-.29 4.65-.45 9.32-.5 13.98-.06 5.81 1.33 7.18 7.27 7.11-.66 2.19-1.17 4.33-1.94 6.38-2.71 7.22-3.92 7.8-11.18 5.55-6.86-2.13-11.14-.88-15.46 4.46 1.76 2.39 4.11 4.54 5.14 7.19 1.54 4.01 2.29 8.35 3.1 12.6.23 1.21-.08 3.11-.9 3.81-2.4 2.04-1.73 4.12-.94 6.49.86 2.61 1.71 5.26 2.15 7.96.32 1.98.38 4.19-.15 6.1-1.26 4.54-2.95 8.97-4.64 13.97 6.51 1.27 10.39 4.39 8.14 11.83zm168.85-95.52c1.1-2.94 1.98-5.63 3.12-8.2.8-1.82.74-3.22-.46-4.92-3.17-4.5-5.74-9.46-9.22-13.69-3.96-4.82-5.12-9.35-1.11-14.55.17-.22.15-.59.28-1.13-2.63-1.78-5.28-3.58-7.96-5.39-5.38 7.72-12.59 14.29-9.6 25.01-3.16-2.95-3.16-2.95-5-1.21 2.01 1.18 3.99 2.35 6.17 3.64-1.54 3.66-3.12 7.1-4.41 10.65-.42 1.16-.49 2.71-.09 3.86 3.04 8.69 6.16 17.34 9.45 25.94.49 1.29 1.77 2.56 3.01 3.24 3.11 1.7 6.4 3.05 9.86 4.66-1.92 1.64-3.51 2.99-5.15 4.39 1.01 1.46 1.82 2.63 2.68 3.88 4.32-2.86 8.32-5.51 12.41-8.22-.58-.84-.92-1.37-1.3-1.87-4.34-5.72-4.05-12.08.4-17.86 1.21-1.56 1.63-3.82 2.11-5.83s-.51-3.02-2.65-2.68c-.71.11-1.42.15-2.54.28zm-187.65 19.3h4.97c-1.4-1.84-2.47-3.26-3.86-5.08-.46 2.1-.77 3.52-1.11 5.08z"/><path d="m208.11 182.82c.06 4.28 1.32 8.85-4.25 11.81 4.89 1.79 5.26 5.01 5 9.09-.27 4.26-3.52 6.04-5.9 9.1 7.65 7.38 6.01 16.49 4.3 25.54-.19 1.02-1.45 2.3-2.49 2.63-6.44 2.08-12.94 3.99-19.48 5.76-.87.24-2.23-.41-3.03-1.06-1.13-.91-1.9-2.27-2.93-3.33-1.57-1.62-3.35-2.07-5.74-1.75-3.27.44-6.65.11-10.87.11 2.19-2.78 3.79-4.81 5.69-7.23-2.74-1.87-5.38-3.67-8.16-5.56-1.9 2.28-3.65 4.37-5.72 6.85-3.5-3.94-6.95-7.74-10.26-11.65-.4-.47-.25-1.59-.05-2.33.56-2.12 1.28-4.2 1.99-6.47-3.41-.98-6.62-1.9-9.91-2.84 6.85-4.73 8.01-12.92 12.75-19.28-1.93-1.42-3.69-2.69-5.43-3.99-2.93-2.2-3.18-5.57-.48-8.1 3.09-2.9 6.35-5.63 9.42-8.55 1.42-1.35 2.67-1.45 4.54-.83 9.64 3.2 19.37 6.11 29 9.33 3.04 1.02 5.47.85 7.68-1.53.49-.53 1.17-.89 2.15-1.61.94 2.76 1.8 5.27 2.81 8.23 2.6-3.39 5.53-4.45 9.37-2.34zm-31.36 16.26c-3.44 2.52-6.64 4.61-9.51 7.09-1.17 1.02-1.61 2.88-2.38 4.36 1.43.39 2.88 1.14 4.3 1.1 3.99-.12 7.92-.08 11.14 2.64 1.41 1.19 2.5 1.2 3.91.22 1.01-.7 2.14-1.22 3.42-1.94-3.67-4.53-7.18-8.88-10.88-13.47z"/></g></svg>