<svg enable-background="new 0 0 400 400" viewBox="0 0 400 400" xmlns="http://www.w3.org/2000/svg"><path d="m378.6 9.2.8-1c.9.7 1.9 1.4 2.9 2.3l-.9 1.1c-1.1-.9-2-1.7-2.8-2.4zm.5 10.7c.9-2.1 1.6-4.3 2.3-6.7.4.2.8.4 1.3.6-.7 2.1-1.5 4.3-2.2 6.6zm.4-15.2.9-.9c1 .8 2 1.6 2.8 2.4l-1 1c-1-.9-1.9-1.8-2.7-2.5zm12.5-1.3h1.2v1.4h2.7v1.1h-2.7v2.7h-1.2v-.5h-1.8v1.3h4.9v3.8h-1.2v-.5h-3.7c0 .4-.1.9-.1 1.2h5.1v1h-5.2c0 .5-.1.9-.2 1.2h6v1h-5.2c1.1 1.3 2.9 2 5.5 2.2-.4.4-.7.8-.9 1.3-2.9-.5-4.8-1.6-5.7-3.5h-.1c-.8 1.7-2.7 2.9-5.9 3.6-.2-.4-.6-.8-.9-1.1 2.8-.6 4.6-1.4 5.4-2.5h-4.8v-1h5.3c.1-.3.2-.7.2-1.2h-4.9v-1h5c0-.4 0-.8.1-1.2h-3.6v.5h-1.2v-3.8h4.9v-1.3h-1.8v.5h-1.2v-2.7h-2.6v-1.1h2.6v-1.4h1.2v1.4h4.7v-1.4zm-6.7 8.4h3.6c0-.4 0-.9 0-1.4h-3.6zm1.9-4.7h4.7v-1.2h-4.7zm6.7 3.3h-3.7v1.4h3.7z" fill="#fafbfc"/><path d="m384.7 21.4h1.3v2.2h2.8v-2.2h1.3v2.2h4.1v9.1h1.7v1.3h-16.9v-1.3h1.7v-9.1h4.1v-2.2zm.3 13.2.7 1.2c-1.8.9-3.8 1.9-6 2.9-.2-.4-.5-.8-.8-1.3 2.4-1 4.4-2 6.1-2.8zm-3.1-6.5h2.8v-3.2h-2.8zm0 4.6h2.8v-3.3h-2.8zm4.1-4.6h2.8v-3.2h-2.8zm0 4.6h2.8v-3.3h-2.8zm3.6 1.9c2.1.9 4.1 1.8 6.1 2.7l-.7 1.3c-2.2-1.1-4.2-2-6.1-2.9zm3.3-9.7h-2.8v3.2h2.8zm-2.8 7.8h2.8v-3.3h-2.8z" fill="#fafbfc"/><g fill="#010104"><path d="m146.6 366.32c-.86-.56-1.65-1.08-1.73-1.13-1.88.35-3.5 1.15-4.18.65-.8-.59-1.14-2.32-1.06-3.51.18-2.74.49-5.52 1.22-8.15.55-1.94 1.67-3.8 2.87-5.46 3.33-4.64 6.81-9.18 10.29-13.72 1.48-1.92 3.11-3.72 4.65-5.6.53-.64 1.35-1.32 1.41-2.03.46-5.34 4.26-8.6 7.47-12.21 2.59-2.91 3.16-6.04 1.7-9.76-2.7 4.38-10.25 6.08-15 3.44.86-2.98 3.9-5.98-.06-9.07 2.93-2.23 5.06-5 9.13-3.84.96.28 2.57-.45 3.41-1.22 4.14-3.77 8.25-7.59 12.08-11.67.98-1.04 1.39-3.11 1.24-4.62-.3-3 .1-5.64 1.93-8.07.63-.84 1.12-1.8 1.57-2.76 2.23-4.7.62-7.76-4.52-8.52-.52-.08-1.19.23-1.67.54-.8.52-1.54 1.13-2.22 1.8-3.17 3.07-6.47 5.59-11.33 2.65-.2 1.69-.35 2.89-.49 4.09-.16-.23-.31-.46-.47-.69-2.24 1.02-4.4 2.4-6.75 2.94-1.47.34-3.23-.59-5.12-1.01-.21.79-.51 1.96-.81 3.12-.13-.25-.26-.5-.39-.75-4.5 1.93-9.01 3.83-13.49 5.8-1.28.56-2.45 1.36-3.58-.27-1.09-1.58-3.89-2.42-2.22-5.14 1.23-2.01 2.17-4.49 3.95-5.8 2.62-1.94 3.64-4.12 3.58-7.2-.06-3.26-.27-6.59 2.97-8.87.58-.41.62-1.74.7-2.66.17-2.11.04-4.26.32-6.35.36-2.63.63-5.52 4.65-4.84.57.1 1.29-.72 2.38-1.37-1.66-.61-2.73-1.01-3.91-1.45-.57-2.13.3-3.48 1.88-5.12 4.84-5.01 9.5-10.24 13.87-15.66 1.12-1.39.93-3.84 1.39-6.05.66-.06 1.7-.15 2.79-.25.11-.12.37-.27.37-.42.07-4.52 2.78-7.42 5.86-10.33 3.14-2.97 6.02-6.29 8.63-9.74 2.31-3.05 1.76-4.21-1.76-5.59-2.76-1.08-5.56-2.06-8.26-3.28-2.12-.96-4.1-1.43-6.38-.49-.7.29-1.76-.11-2.58-.41-.67-.25-1.26-.78-1.83-1.25-7.52-6.23-15.97-10.73-25.34-13.41-2.69-.77-4-2.26-4.72-4.86-.85-3.06-2.95-5.88-.01-9.11.62-.68-.41-2.87-.72-4.61.89-.11 1.97-.24 3.46-.42-.21-1.05-.41-2.02-.61-2.99-.32-1.57-1.33-3.18.88-4.39.53-.29.62-1.72.59-2.61-.12-3.64.14-7.06 2.22-10.33 1.33-2.09 2.13-4.69-.19-6.99-.33-.33-.45-1.41-.18-1.73 3.15-3.76 2.32-7.63.12-11.53 3.16-2.15 6.03-4.11 8.33-5.68 2.02 1.04 3.67 1.84 5.26 2.74.81.46 1.62 1.01 2.23 1.69 1.13 1.26 2.09 2.67 3.15 3.99 3.27 4.04 4.15 4.24 8.45 1.98 4.1 6.56 10.02 9.16 14.74 6.3.54 1.85 1.07 3.65 1.67 5.68 5.7-1.77 8.94 3.37 14 4.75 2.31-7.23-.64-14.09-.87-22.03-3.67 5.08-6.09 1.14-8.75.96-2 .23-4.15 1.01-5.95.53-2.11-.56-4.06-5.57-3.67-7.8.45-2.61.88-5.22 1.43-7.81.56-2.62 1.21-5.1-1.52-7.15-.57-.43-.39-2.34-.04-3.39.77-2.33 1.33-4.49-1.19-6.66h1.99c-.19-2.83-.3-5.67-.59-8.48-.12-1.19-.89-2.34-.91-3.51-.07-3 .12-6.01.2-9.02.02-.83-.38-2 .03-2.45 1.89-2.08 2.31-4.1.66-6.52-.19-.28.37-1.35.84-1.75 1.34-1.17 2.82-2.19 4.02-3.1 2.2 1.27 4.11 2.37 6.2 3.58 0 0 .12.37-.02.57-2.36 3.6-2.93 7.03.27 10.58 1.36 1.51.65 2.86-1.23 3.67-1.45.63-2.82 1.45-4.27 2.21.32.77 1.04 1.9.83 2.1-2.22 2.22-.21 3.52.91 5.09 1.1 1.55 1.97 3.27 3.09 4.81 2.04 2.79 4.92 3.27 8.01 1.77 1.16-.56 2.67-.83 3.93-.64 1.28.2 2.41 1.27 3.69 1.72 1.17.4 2.46.47 3.85.72-.09 1.37-.18 2.59-.26 3.81.31.14.62.28.92.41.68-1.28 1.36-2.56 2.27-4.27h12.8c.36-1.96.57-3.84 1.08-5.64.31-1.09 1.07-2.06 1.62-3.09.24-.43.74-.92.67-1.29-.53-2.79-1.24-5.55-1.74-8.35-.17-.94-.11-2.09.3-2.91.24-.48 1.51-.85 2.13-.65 2.4.77 4.76 1.71 7.06 2.76.44.2.74 1.23.69 1.85-.12 1.36-.13 2.95-.84 3.99-1.86 2.71-1.97 4.97 1.18 6.98-5.64 6.05-1.18 10.32 2.2 14.46-3.08 4.19-5.92 8.22-8.95 12.11-2.17 2.78-5.42 4.01-8.72 3.73-1.6-.13-3.03-2.21-4.76-3.6-1.97 3.1-3.94 6.19-6.1 9.57 3.68 2.2 2.25 4.8 1.04 7.8-.57 1.4.52 3.47 1.47 5.05-.67 1.8-1.33 3.6-2.4 6.49 3.02-.33 5.19-.57 7.36-.82.82-.09 1.8-.58 2.42-.29 2.89 1.36 4.49-.04 6.12-2.22 1.05-1.4 2.45-2.63 3.92-3.61 5.28-3.52 10.66-6.89 16.13-10.4 1.52 2.14 3.46 2.78 5.43 1.15.54-.45.08-2.09.08-2.72 4.9-2.6 9.95-5.28 15.04-7.98 3.11 4.18 4.38 8.38 3.8 13.16-.3 2.51.54 4.76 1.32 7.2.77 2.39-.6 5.86-1.91 8.41-.84 1.65-1.16 2.73-.36 4.27.74 1.4 1.64 2.78 2.04 4.29.33 1.26.06 2.68 0 4.03-.07 1.42-.22 2.83-.31 4.24-.12 1.8.39 3.95-.42 5.36-2.75 4.82-5.03 9.6-5.7 15.28-.65 5.51-4.63 7.52-11.85 6.79-.16 2.91-1.49 4.92-4.66 5.52-.44.08-.48 2.23-.34 3.52-1.49 3.1-3.56 1.04-5.55.18-1.29 1.59-2.51 3.11-3.73 4.62-1.41-1.09-2.54-1.96-3.85-2.97-1.27 1.63-2.36 3.04-3.19 4.11-1.55-.43-3.17-1.42-4.07-.97-.95.47-1.66 2.3-1.72 3.57-.24 5.2-1.61 10.64 2.1 14.65-.61 1.85-1.04 3.16-1.47 4.48l.87.36c1.21-.57 2.43-1.15 4.42-2.09-2.29 6.23 1.54 9.9 4.3 13.93 1.27 1.85 2.54 3.6-.73 5.85 4.22 1.02 3.49 7.44 8.56 6.35 1.39 1.9 2.88 3.75 4.17 5.73 4.69 7.18 8.99 14.57 10.71 23.1.2.97-.82 2.2-1.32 3.29-.62 1.36-1.7 2.66-1.86 4.07-.65 5.74-6.35 8.93-11.37 6.3-1.54-.81-2.16-1.53-1.71-3.41.62-2.59-.85-3.86-3.48-2.87-2.44.92-4.3.51-5.96-1.26-7.09-7.58-17.39-8.95-26.07-13.44-.49-.25-1.75.33-2.25.88-1.13 1.25-1.91 2.81-3.01 4.09-1.29 1.51-1.63 2.99-.93 4.91.35.97.24 2.26-.06 3.29-1.64 5.58-3.43 11.11-5.06 16.69-.19.64.01 1.74.47 2.18 2.93 2.81 3.47 6.36 2.75 9.99-.56 2.83.66 4.82 1.72 7.13.67 1.46.52 3.29.71 4.96.09.77-.23 1.91.19 2.28 2.24 2.02 1.3 3.68-.57 5.51 3.2 1.18 3.85 3.14 2.75 6.25-.46 1.31.03 3.51.93 4.66 3.88 5 6.08 10.43 6.56 16.83.21 2.73 2.09 5.33 3.21 8 .26-.06.53-.12.79-.17-.74 1.26-1.48 2.51-2.22 3.76 3.7 3.92 3.35 4.94-3.89 10.64-1.63-2.44-3.25-4.85-5.04-7.52 4.06-3.13 2.18-6.54.57-10.04-2.25-4.9-4.34-9.89-6.49-14.84-1.11-2.54-2.66-4.85-1.22-8 .53-1.16-.47-3.29-1.25-4.72-1.31-2.4-3.01-4.59-4.55-6.88 3.18-2.31 2.94-6.36-.65-9.75-.89 1.39-1.63 2.93-2.72 4.16-2.37 2.66-3.99 5.27-4.98 9.06-1.4 5.34-2.8 11.42-8.04 15.09-1.37.96-2.38 2.43-3.71 3.47-2.08 1.64-3.17 3.58-2.7 6.29.35 2.04-.36 3.64-1.98 5-1.54 1.29-2.85 2.84-4.3 4.24-3.25 3.12-5.23 6.85-5.79 11.36-.42 3.16-1.39 6.16-4.83 8.06zm18.45-198.26c2.95.23 4.63-3.78 7.34-.69-2.54 2.26-2.54 2.26-1.16 4.25 1.27-.62 2.66-1.93 3.77-1.74 4.13.74 8.16 1.97 12.07 2.98.18 1.48.32 2.57.47 3.78 1.86-.98 3.37-1.97 5.03-2.6 2.12-.81 2.22-1.92 1.51-3.93-.62-1.75-1.15-4.04-.51-5.59.84-2.04.56-3.29-.72-4.75-.61-.7-1.06-1.55-1.66-2.47.98-.81 2-1.44 2.71-2.31.59-.71 1.17-1.73 1.15-2.59-.07-2.64-.41-5.28-.69-7.91-.85-8.07-2.42-9.92-10.23-11.76-2.91-.69-5.77-1.17-6.95-4.6-.24-.69-1.66-1.33-2.56-1.37-6.3-.25-10.91-3.42-14.69-8.16-.72-.91-1.42-1.84-2.22-2.88-1.16 1.01-1.85 1.61-2.59 2.24-3.11-2.14-5.39-6.84-10.21-3.01.12.48.27.99.36 1.5.53 2.92 3.87 6.07-.69 8.63-.22.12-.26.83-.17 1.21.48 2 1.03 3.99 1.52 5.85-.59.76-1.89 1.67-2.01 2.71-.56 5.16-1.01 10.35-1.12 15.53-.15 6.97 3.23 11.34 9.81 11.64 5.44.27 9.65 1.95 12.44 6.04zm86.21-57.06c-5.02 2.25-9.8 4.26-14.46 6.52-3.01 1.45-6.19 2.85-7.24 6.6-.2.71-1 1.35-1.67 1.82-3.12 2.19-6.26 4.36-9.48 6.39-.74.47-2.19.8-2.75.41-2.24-1.6-3.83-.69-5.57.79-1.61 1.37-3.31 2.67-5.09 3.81-1.82 1.17-1.32 2.47-.35 3.71.58.75 1.53 1.21 2.48 1.93-1.62.86-3.06 1.63-4.35 2.32 3.41 6.34 3.91 12.59 1.54 19.1-.25.68-.3 1.72.06 2.27 1.82 2.74 2.78 5.3-.86 7.44.81 1.39 1.48 2.52 2.15 3.67 3.52-1.59 6.65-3.17 9.91-4.4 1.46-.55 3.32-.83 4.76-.42 2.31.66 3.91.34 5.09-1.82.75.54 1.42 1.02 1.92 1.38 5.47-5.14 10.82-10.18 16.36-15.39 1.12.62 2.64 1.46 3.98 2.19 2.41-5.2 4.73-10.2 7.28-15.69-1.98-2.3-3.24-5.25-.13-8.78.72-.82.47-3.28-.24-4.45-2.33-3.87-2.37-8.19-1.74-12.14.48-2.94-.37-4.81-1.6-7.26zm-87.9 145.89c1.65-1.74 2.75-3.95 4.28-4.3 3.74-.86 7.67-.86 11.52-1.22.49-.05 1.07-.02 1.44-.27 2.92-1.99 5.81-4.04 8.86-6.19-1.27-1.04-2.22-1.8-3.37-2.74 1.96-3.39 3.83-6.63 5.83-10.08-2.74-2.34-1.75-5.02-.26-7.95.61-1.2.96-3.3.32-4.24-1.86-2.74-1.21-4.99 0-7.66.53-1.16.46-3.31-.29-4.18-1.25-1.44-.73-2.29-.18-3.62.5-1.22.81-2.65.69-3.94-.22-2.54-3.14-3.77-4.88-1.97-3.85 3.96-8.77 7.13-10.12 13.09-.23 1.04-1.15 2-1.94 2.81-6.05 6.23-12.17 12.41-18.21 18.65-.75.78-1.72 1.92-1.65 2.82.37 4.5-1.43 8.25-3.53 11.98-1.82 3.24-2.26 6.57-.15 9.93 3.81-.93 7.18-5.52 11.64-.92zm61.12-34.22c-6.61-4.9-10.54-10.92-10.99-18.82-.12-2.15-1.35-3.31-3.07-4.41-1.02-.65-1.87-1.93-2.28-3.11-1.04-2.97-2.3-4.31-5.86-5.36.76 3.59 3.64 7.38-1.11 10.44 2.16 1.96 1.46 3.94.04 5.86-1.21 1.63-1.08 3.03.52 4.34.54.44.92 1.07 1.48 1.75-.75.46-1.31.8-1.87 1.15.53.83.96 1.49 1.47 2.28-2.47 1.49-3.02 3.27-1.6 5.62 1.51 2.5 2.43 5.03-1.66 6.93 3.24 1.93 2.97 7.15 8.34 6.26-.96-3.82-1.48-7.06 1.04-10.45 1.88-2.52 4.08-2.46 6.33-2.37.88.04 1.7 1.87 2.52 2.9.3.38.54.82.9 1.39 1.85-1.4 3.52-2.67 5.8-4.4zm17.54 29.33c-1.37-1.41-2.94-2.65-4.01-4.23-1.38-2.03-2.09-4.55-3.57-6.48-3.77-4.92-7.8-9.64-11.95-14.71-2.46 5.48-4.75 10.46-6.93 15.49-1 2.32-.09 3.32 2.32 3.25 1.34-.04 2.9.24 4 .93 4.11 2.59 8.05 5.44 12.09 8.13 3.62 2.42 6.37 1.56 8.05-2.38zm-55.87-161.88c3.34-2.17 6.52-2.83 9.65-.01.31.28 1.13.06 1.69-.04 1.65-.29 3.3-.65 5.53-1.09-.02.02.44-1.08 1.16-1.29.96-.29 2.13.12 3.28.23-2.05-5.83-5.98-9.94-9.87-8.93-3.85 1-7.19.36-9.79-.5-2.4 2.19-4.31 3.93-6.3 5.74 1.37 1.73 2.86 3.63 4.65 5.89zm26.19-8.47c.21 2.25.37 4.06.57 6.23 3.01-3.08 2.94-4.09-.57-6.23z"/><path d="m167.12 132.94c4.28 3.18 6.04 7.27 5.8 12.28-.15 3.18-.35 6.35-.55 9.53-.04.63.02 1.47-.35 1.81-.46.43-1.83.73-1.9.6-1.69-3.18-5.92 2.28-7.17-2.13-.49-1.73-1.04-3.45-1.66-5.14-.93-2.5-1.9-4.93.41-7.29.45-.46.51-1.37.59-2.09.5-4.71.74-5.13 4.83-7.57z"/><path d="m232.1 156.19c-3.81.31-7.09.57-10.83.87.96-1.48 2.08-3.2 3.31-5.07-4.87-4.36-2.93-10.1-2.51-15.42.09-1.18 2.48-2.17 3.77-3.22 2.63 2.2 4.87 4.12 7.19 5.95.21.16.9-.28 1.58-.52-.88 6.11-1.74 12.05-2.51 17.41z"/><path d="m179.06 230.04c-.32 5.34-2.45 8.87-5.75 11.74-1.29 1.12-6.92.98-7.73-.54-.68-1.28-.05-3.26.05-4.94.11-1.88.41-3.76.39-5.64-.05-3.81 3.94-8.47 7.65-8.11 1.54.15 3.33 1.71 4.26 3.12.92 1.41.91 3.42 1.13 4.37z"/></g></svg>