<svg enable-background="new 0 0 400 400" viewBox="0 0 400 400" xmlns="http://www.w3.org/2000/svg"><g fill="#010000"><path d="m189.14 166.84c6.13.89 8.77 3.65 8.89 9.63.11 6.04-.32 12.09-.01 18.12.5 9.82 1.29 19.62 2.14 29.42 1.71 19.56.81 38.94-3.74 58.09-.83 3.48-4.24 5.16-7.42 3.55-3.79-1.93-7.7-2.54-11.94-2.51-3.28.02-6.57-.88-9.86-1.35-1.25-.18-2.55-.5-3.78-.35-11.09 1.32-21.95-.91-32.89-1.95-2.35-.22-4.83-.04-7.15.45-4.81 1.02-9.58 1.88-14.41.32-2.44-.79-3.9-2.14-4.44-5.02-3.19-17-5.32-34.13-5.8-51.41-.37-13.23.03-26.48 0-39.71 0-2.12.89-2.78 2.85-3.29 11.4-3.02 22.99-3.19 34.68-3.08 8.99.08 17.98-.69 26.97-.92 5.07-.13 10.18-.24 15.22.22 5.29.48 7.02-.18 8.99-5.17.65-1.66 1.14-3.38 1.7-5.04zm-77.09 100.16c1.58 0 2.2.01 2.82 0 17.16-.24 34.27-.46 51.07 4.27 5.97 1.68 12.3 1.79 18.64-.1 0-1.87.01-3.65 0-5.43-.14-22.77-.3-45.53-.42-68.3-.03-5.06-3.75-7.71-8.76-6.49-4.91 1.19-9.89 2.48-14.89 2.78-3.23.19-6.66-2.17-9.84-1.84-3.39.35-6.48 3.14-9.91 3.77-4.75.87-9.7.51-14.52 1.09-3.95.47-7.83 1.5-11.73 2.38-2.02.46-2.71 1.74-2.67 3.94.19 9 .19 18.01.21 27.02.02 12.17 0 24.34 0 36.91z"/><path d="m139.59 34.81c9.15 3.12 16.74 8.06 22.91 15.16 5.65 6.51 9.49 13.99 11.92 22.22 1.2 4.06 2.64 8.07 3.56 12.19 1.09 4.84 4.3 7.59 8.36 9.74.56.3 1.15.59 1.76.73 9.28 2.06 16.08 7.94 22.89 14.13 6.1 5.55 13.03 10.16 19.32 15.52 3.18 2.7 6.22 5.82 8.46 9.31 2.72 4.22 1.73 6.35-3.14 6.74-6.61.54-13.32.65-19.93.13-9.85-.77-19.63-1.61-29.45.24-1.37.26-2.92-.39-4.65-.66-1.08.21-2.59.91-3.96.7-10.47-1.57-20.86-3.88-31.38-4.81-7.73-.68-13.06-3.79-16.67-10.39-.05-.09-.07-.2-.33-1.04 3.26-.42 6.41-1.24 9.54-1.15 8.88.26 17.77.67 26.63 1.43 7.85.67 11.07-.92 8.09-9.49-1.01-2.9-2.12-5.79-2.8-8.77-1.45-6.28-5.7-9.41-11.6-10.63-4.45-.92-8.99-1.45-13.47-2.23-4.56-.79-6.92-3.01-7.88-6.77-.58-2.28.31-3.4 2.38-3.33 3.56.13 7.12.58 10.67.93 3.15.31 6.28.74 9.44.97 2.84.21 4.23-1.51 3.99-4.1-.24-2.71-.8-5.45-1.66-8.02-1.24-3.71-2.79-7.32-4.41-10.89-.63-1.39-1.69-2.66-2.79-3.75-3.7-3.65-7.63-7.06-11.22-10.81-3.43-3.55-5.22-7.86-4.58-13.3zm72.01 90.76c.2-.44.4-.87.6-1.31-2.37-2.46-4.44-5.36-7.19-7.26-3.97-2.75-8.42-4.81-12.71-7.06-.62-.32-1.63-.3-2.3-.04-2.45.95-3.96 2.51-2.36 5.28 2 3.46-.23 9.34 5.49 10.56 4.18.89 8.53 1.17 12.82 1.3 1.87.05 3.77-.95 5.65-1.47z"/><path d="m290.26 311.45c4.74.01 5.59 2.96 5.09 6.02-1.28 7.8-2.96 15.53-4.62 23.26-.21.98-1.26 1.78-1.92 2.67-.35-.01-.71-.02-1.06-.03-1.07-4.7-2.11-9.4-3.22-14.09-.68-2.87-1.23-5.81-2.25-8.56-3.81-10.33-7.79-20.59-11.71-30.88-.15-.4-.31-.79-.44-1.19-2.93-8.8-5.8-17.62-8.87-26.37-.46-1.32-1.67-2.78-2.91-3.35-5.19-2.39-10.51-4.49-15.8-6.64-9.28-3.77-15.92-9.65-17.68-20.18-1.25-7.47-2.5-14.85-.93-22.38.31-1.51.89-2.96 1.49-4.92 4.83 6.7 9.84 12.63 11.32 20.55.27 1.45.74 2.87 1.09 4.31 1.5 6.1 4.34 10.96 11.06 12.5 2.01.46 3.92 1.38 6.91 2.47-.57-6.72-1.11-12.68-1.56-18.65-.19-2.53-.63-5.16-.13-7.57.35-1.71 1.77-3.68 3.28-4.54 1.88-1.07 3.72-.64 4.73 2.19 3.38 9.46 7.05 18.82 10.8 28.14.92 2.29 2.56 4.28 4.14 6.86 4.35-12.44 1.1-26.17 9.3-36.85.35-.01.69-.03 1.04-.04 1.08 4.78 2.22 9.55 3.22 14.35 2.43 11.64 3.79 23.29 3.08 35.31-.4 6.84 1.9 13.8 2.44 20.75.49 6.31.28 12.68.27 19.02 0 2.8-1.01 5.11-3.86 6.27-.64.23-1.18.78-2.3 1.57z"/><path d="m124.33 330.4c6.72-2.42 12.76-1.19 18.78.66 5.46 1.67 10.88 3.48 16.4 4.93 5.34 1.4 10.31.16 14.66-3.24 3.59-2.81 3.36-6.47.1-9.65-4.83-4.72-9.36-9.74-13.93-14.7-.89-.97-1.42-2.26-2.49-4.01 10.81.81 21.2 2 28.86 8.91 8.38 7.56 18.35 11.49 28.16 16.12 5.45 2.57 10.76 5.45 15.96 8.5 1.49.87 2.81 2.64 3.4 4.29 1.02 2.88-.05 4.27-3.03 4.97-2.16.51-4.38.85-6.49 1.52-4.95 1.56-9.79 1.37-14.96.68-4.76-.63-9.83.4-14.67 1.23-7.06 1.21-13.83.89-20.5-1.9-1.02-.43-2.78-.25-3.68.39-13.08 9.15-28.04 12.59-43.5 14.66-3.13.42-6.17 1.46-9.29 2.03-1.73.31-3.57.47-5.31.25-2.49-.31-4.22-1.52-3-4.9 4.22-.99 8.7-2.12 13.22-3.08 6.4-1.36 12.35-3.62 17.61-7.64 1.66-1.27 3.63-2.16 5.52-3.11 1.69-.85 1.94-2.04 1.25-3.67-1.63-3.84-3.27-4.73-7.39-4.48-6.8.39-11.64-2.91-15.68-8.76zm68.05 7.86c1.62 1.04 2.72 2.34 3.53 2.18 3.83-.79 7.58-1.98 11.95-3.19-1.56-1.2-2.53-2.19-3.7-2.78-.96-.49-2.37-1.03-3.22-.67-2.6 1.07-5.02 2.57-8.56 4.46z"/></g><path d="m361.2 9.6.8-1c.9.7 1.9 1.4 2.9 2.3l-.9 1.1c-1-1-2-1.8-2.8-2.4zm.5 10.6c.9-2.1 1.6-4.3 2.3-6.7.4.2.8.4 1.3.6-.7 2.1-1.5 4.3-2.2 6.6zm.4-15.2.9-.9c1 .8 2 1.6 2.8 2.4l-1 1c-.9-.9-1.8-1.7-2.7-2.5zm12.5-1.2h1.2v1.4h2.7v1.1h-2.7v2.7h-1.2v-.6h-1.8v1.3h4.9v3.8h-1.2v-.5h-3.7c0 .4-.1.9-.1 1.2h5.1v1h-5.2c0 .5-.1.9-.2 1.2h6v1h-5.2c1.1 1.3 2.9 2 5.5 2.2-.4.4-.7.8-.9 1.3-2.9-.5-4.8-1.6-5.7-3.5h-.1c-.8 1.7-2.7 2.9-5.9 3.6-.2-.4-.6-.8-.9-1.1 2.8-.6 4.6-1.4 5.4-2.5h-4.8v-1h5.3c.1-.3.2-.7.2-1.2h-4.9v-1h5c0-.4 0-.8.1-1.2h-3.5v.5h-1.2v-3.8h4.9v-1.3h-1.8v.5h-1.2v-2.7h-2.7v-1h2.6v-1.4h1.2v1.4h4.7v-1.4zm-6.6 8.3h3.6c0-.4 0-.9 0-1.4h-3.6zm1.9-4.6h4.7v-1.3h-4.7zm6.6 3.2h-3.7v1.4h3.7z" fill="#fafafb"/><path d="m385.3 3.8h1.3v2.2h2.8v-2.2h1.3v2.2h4.1v9.1h1.7v1.3h-16.9v-1.3h1.7v-9.1h4.1v-2.2zm.4 13.1.7 1.2c-1.8.9-3.8 1.9-6 2.9-.2-.4-.5-.8-.8-1.3 2.3-1 4.3-1.9 6.1-2.8zm-3.1-6.4h2.8v-3.2h-2.8zm0 4.6h2.8v-3.3h-2.8zm4-4.6h2.8v-3.2h-2.8zm0 4.6h2.8v-3.3h-2.8zm3.7 1.9c2.1.9 4.1 1.8 6.1 2.7l-.7 1.3c-2.2-1.1-4.2-2-6.1-2.9zm3.2-9.7h-2.8v3.2h2.8zm-2.8 7.8h2.8v-3.3h-2.8z" fill="#fafafb"/></svg>