<svg enable-background="new 0 0 400 400" viewBox="0 0 400 400" xmlns="http://www.w3.org/2000/svg"><g fill="#010103"><path d="m70.66 291.59c9.29-2.91 18.36-5.76 27.43-8.59 4.45-1.39 8.86-2.88 13.36-4.07 5.6-1.48 10.52-4.14 15.35-7.32 5.62-3.71 11.51-7.15 17.62-9.99 16.89-7.84 33.89-15.47 50.99-22.84 6.1-2.63 12.68-4.13 18.92-6.47 12.76-4.79 14.95-8.37 15.86-22.22.58-8.82-2.35-17.11-4.69-25.48-3.86-13.79-10.69-25.93-19.5-37.12-3.34-4.24-6.13-8.93-11.06-11.61-3.61-1.96-5.64-4.9-6.13-8.99-.15-1.24-.65-2.43-1.1-4.02 6.52-1.39 12.87-2.87 19.27-4.05 2.94-.54 5.22-1.79 7.35-3.88 10-9.79 20.14-19.44 30.2-29.16.82-.8 1.83-1.66 2.15-2.68 3.65-11.61 9.91-21.92 15.85-32.42 2.74-4.85 4.74-10.12 7.34-15.75 1.14 1.16 2.61 1.99 3.01 3.18 2.35 6.89 4.74 13.78 6.53 20.82 1.29 5.07-.04 10.09-2.32 14.79-3.64 7.53-7.2 15.1-10.97 22.56-1.07 2.12-2.53 4.16-4.21 5.83-4.88 4.86-9.68 9.88-15.05 14.16-4.94 3.93-10.57 7-15.94 10.39-4.09 2.58-4.54 3.23-3.54 7.94.66 3.09 1.62 6.14 2.64 9.14 1.22 3.61 2.58 7.17 4.01 10.7 2.01 4.97 2.8 10.06 2.82 15.47.01 4.38 1.7 8.75 1.8 13.14.1 4.91-.64 9.85-1.22 14.75-.76 6.38-2.01 12.71-2.5 19.11-.35 4.47 2.42 6.79 6.93 5.95 3.38-.62 6.58-2.19 9.9-3.23 3.38-1.06 6.74-2.57 10.2-2.86 7.19-.6 9.72-1.43 13.35-6.12-4.45-3.55-9.45-5.97-14.98-7.24-6.27-1.44-9.72-5.7-11.58-11.46-.27-.82.39-2.7 1.03-2.94 3.63-1.31 7.34-2.83 11.13-3.22 5.18-.53 9.92-1.55 14.1-4.85 1.36-1.08 3.18-1.65 4.87-2.24 8.69-3.03 17.43-5.93 26.11-9.01 2.37-.84 4.74-1.9 6.81-3.31 3.45-2.35 4.14-2.45 7.63.95-1.43 2.16-2.68 4.62-4.45 6.63-8.65 9.89-17.48 19.64-26.14 29.52-1.78 2.04-3.13 4.45-5.24 7.51 5.89 1.39 11.05 2.72 16.26 3.82 4.66.98 9.37 1.67 14.05 2.59 1.22.24 2.44.75 3.54 1.35 1.82 1 2.69 2.59 1.39 4.47-1.06 1.54-1.94 3.5-4.71 2.27-4.4-1.95-5.76-1.1-9.25 2.04-3.08 2.77-6.63 5.39-10.44 6.91-21.23 8.44-42.27 17.37-64.37 23.54-6.87 1.92-13.11 5.96-19.87 8.37-5.74 2.05-11.9 2.88-17.72 4.74-7.24 2.31-14.38 4.97-21.44 7.77-11.91 4.71-23.72 9.66-35.59 14.48-1.06.43-2.24.99-3.32.91-11.12-.86-21.37 2.87-31.52 6.38-9.83 3.39-18.94 1.94-28.08-1.95-3.35-1.48-1.77-4.61-2.87-7.09z"/><path d="m72.52 355.71c5.92-2.46 11.92-4.37 17.35-7.33 12.16-6.64 23.89-14.06 36.09-20.64 7.5-4.05 15.43-7.38 23.35-10.56 24.93-10.04 50.01-19.72 74.92-29.81 11.37-4.6 22.38-10.09 33.74-14.72 13.75-5.61 28.19-8.51 43.04-8.59 5.32-.03 10.68 1.28 15.96 2.26 4.12.76 6.73 3.69 6.86 7.71.18 5.23-.72 10.48-.81 15.73-.12 6.92-3.87 9.66-10.13 12.1-15.88 6.2-32.32 8.95-49.07 11.11-12.67 1.64-25.33 4.01-37.69 7.23-8.63 2.25-16.76 6.48-25.1 9.84-14.92 6.01-29.89 11.89-44.73 18.1-11.02 4.61-21.76 9.89-32.8 14.45-10.74 4.44-21.88 5.57-33.3 2.52-2.01-.54-4.22-.71-6.3-.55-10.99.83-9.63-1.46-11.38-8.85z"/><path d="m104.51 81.77c15.04.68 28.48 4.58 37.74 17.8 6.31 9.02 11.11 18.72 14.52 29.17 4.49 13.79 9.28 27.48 13.47 41.36 2.9 9.61 4.17 19.56 1.53 29.49-1.1 4.16-3.08 8.09-4.63 12.14-2.54 6.62-5.23 13.19-7.5 19.9-1.18 3.47-2.84 6.25-5.95 8.24-1.77 1.13-3.34 2.59-5.15 4.02-2.25-3.28-1.72-6.54-.37-9.7 1.41-3.31 3.08-6.5 4.69-9.72 4.2-8.38 3.55-17.33 2.79-26.19-.84-9.88-3.48-19.33-7.91-28.29-1.43-2.89-1.91-6.26-2.73-9.43-.67-2.58-1.73-4.71-4.46-5.73-2.51-.93-4.3-.64-6.47 1.34-5.15 4.69-10.41 9.41-16.22 13.19-8.44 5.49-17.58 5.39-26.66 1.1-1.05-.5-2.08-1.05-3.13-1.56-4.09-1.99-8.03-3.89-10.23-8.46-2.76-5.74-4.92-11.48-4.45-17.95.08-1.06.09-2.16.41-3.15.42-1.29.96-3.43 1.71-3.55 1.77-.28 4.22-.22 5.49.82 13.38 10.87 28.38 13.43 44.85 9.47 2.13-.51 3.23-1.6 3.84-3.62 1.58-5.28.87-10.38-1.62-15.11-5.23-9.93-10.33-19.99-18.75-27.77-5.29-4.86-7.82-10.43-4.81-17.81z"/><path d="m321.85 98.58c.36 2.68 1.37 5.02.76 6.81-1.23 3.62-2.82 7.35-5.18 10.3-4.1 5.1-9.1 9.47-13.34 14.48-3.48 4.11-7.6 6.8-12.72 8.33-1.79.53-3.42 1.93-4.88 3.21-5.71 5.01-11.21 10.27-17.01 15.17-4.01 3.39-8.9 3.76-13.44 1.46-4.2-2.12-8.13-4.89-11.85-7.8-2.78-2.18-1.38-8.72 1.87-10.15 7.93-3.5 15.84-7.05 23.82-10.46 2.51-1.07 5.23-1.62 7.78-2.61 2.71-1.05 5.58-1.96 7.95-3.57 11.89-8.09 23.63-16.38 36.24-25.17z"/><path d="m83.15 186.14c17.37 8.44 34.86 12.94 53.77 5.61 0 3.25.09 6.09-.06 8.92-.04.79-.63 1.91-1.29 2.24-8.39 4.2-16.76 8.46-25.34 12.24-1.92.84-4.68.08-6.98-.35-9.22-1.73-14.08-9.3-19.74-15.52-3.22-3.53-1.89-8.17-.36-13.14z"/></g><path d="m6.8 9.5c.6.3 1.3.7 2.1 1.1-.4.4-.7.8-.9 1.2-.7-.4-1.3-.8-1.8-1.1s-1.1-.6-1.6-.8c.2-.4.5-.8.7-1.2.4.2.8.5 1.5.8zm.9 6.9c-.3.6-.5 1.1-.7 1.7s-.4 1.1-.6 1.7c-.6-.4-1.1-.7-1.6-1 .7-1 1.2-1.8 1.5-2.4.3-.5.6-1.1.8-1.7.3-.6.5-1.2.8-1.8.3.3.8.6 1.3.8-.7 1.3-1.2 2.2-1.5 2.7zm.1-11c.4.3 1 .7 1.7 1.1-.5.2-.8.6-1.1 1.1-.5-.6-1-1-1.4-1.2s-.9-.6-1.5-.8c.2-.4.5-.7.9-1.1.5.3.9.6 1.4.9zm10.5 13.1c1 .4 2 .6 3.1.7-.4.4-.7.8-.8 1.3-.9-.2-1.9-.6-3-.9-1-.4-2-.9-2.8-1.6-.5.4-1.1.9-1.9 1.3s-1.9.9-3.3 1.2c-.1-.3-.5-.8-1.1-1.3 1 0 2.1-.3 3.2-.8 1.2-.5 1.9-1 2.3-1.7h-3.2c-.4 0-1 0-2 .1v-1.2c1 0 1.7.1 2 .1h3.3v-1h-2.3c-.2 0-.9 0-2 .1v-1.2c1.2 0 1.9.1 2 .1h2.3v-.8h-4.1c0-.7.1-1.2.1-1.6 0-.5 0-1.1-.1-1.8h4.1v-.7h-2.5c0-.6.1-1.1.1-1.6v-.6h-.5c-.4 0-1 0-1.8.1v-1.3c1.2 0 1.9.1 2.1.1h.2c0-.3 0-.8-.1-1.4h1.4c0 .6-.1 1-.1 1.4h3.4c0-.4 0-.8-.1-1.3h1.5c0 .4-.1.9-.1 1.3.7 0 1.5 0 2.5-.1v1.2c-1 0-1.8-.1-2.5-.1v.6c0 .3 0 .8.1 1.5h-2.5v.8h4.1c0 .7-.1 1.3-.1 1.8s0 1 .1 1.5h-4.1v.8h1.4c.8 0 1.8 0 2.9-.1v1.2c-1 0-1.9-.1-2.8-.1h-1.5v1h3.2c.3 0 1 0 2.1-.1v1.2c-1.1 0-1.8-.1-2.1-.1h-3.4l-.1.1c1.4 1 2.4 1.5 3.4 1.9zm-4.1-6.7v-1.3h-2.7v1.3zm2.2-4.1v-1.1h-3.4v1.1zm1.9 4.1v-1.3h-2.8v1.3z" fill="#fcfbfa"/><path d="m37 6.7v2.3 5.4c1 0 1.8 0 2.2-.1v1.3c-.6 0-1.5-.1-2.5-.1h-11.9c-.7 0-1.3 0-1.8.1v-1.3c.5 0 1.1.1 2 .1v-5.2c0-1 0-1.8-.1-2.5h3.7c0-1.3 0-2.1-.1-2.5h1.5c0 .4-.1 1.3-.1 2.5h2.2c0-1.2 0-2.1-.1-2.6h1.5c0 .4-.1 1.3-.1 2.6zm-12.3 13.7c-.3-.4-.7-.8-1.1-1.1 1.1-.4 2.1-.9 2.9-1.3.8-.5 1.5-1 2.1-1.6.4.4.9.8 1.3 1.1-2.5 1.4-4.2 2.4-5.2 2.9zm3.9-10.1v-2.4h-2.2v2.4zm0 4.1v-2.9h-2.2v2.9zm3.5-4.1v-2.4h-2.2v2.4zm0 4.1v-2.9h-2.2v2.9zm.4 2.9 1-1.1c.6.3 1.4.7 2.5 1.3s2 1.1 2.7 1.5c-.4.4-.8.8-1.1 1.3-.8-.8-2.5-1.7-5.1-3zm3.1-7v-2.4h-2.1v2.4zm0 4.1v-2.9h-2.1v2.9z" fill="#fcfbfa"/></svg>