<svg enable-background="new 0 0 400 400" viewBox="0 0 400 400" xmlns="http://www.w3.org/2000/svg"><path d="m143.3 151.69c.79.7 1.71 1.29 2.34 2.11 6.21 8.18 11.14 17.05 13.5 27.11 3.2 13.56 12.53 21.02 24.87 26 4.37-7.27 5.85-14.91 4.8-23.04-1.15-8.93-2.39-17.85-3.65-26.76-.13-.9-.44-1.9-1-2.58-6.41-7.74-9.93-16.89-13.29-26.2-1.93-5.34-4.66-10.4-7.23-15.49-2.23-4.42-6.05-6.8-10.78-8.15-8.97-2.56-18.14-3.04-27.38-3.16-6.61-.08-13.13-.87-19.19-3.73-1.84-.87-3.51-2.12-6.02-3.67 14.72-1.36 28.36-2.49 42.15-1.33 15.73 1.32 31.5 2.26 47.27 2.9 6.42.26 12.89-1.19 19.32-1.05 11.74.26 23.46 1.36 35.21 1.66 10.78.28 21.58-.1 32.37-.03 4.42.03 8.86.38 13.26.87 1.59.18 3.09 1.2 4.63 1.84.02.38.05.77.07 1.15-3.61.68-7.21 1.95-10.82 1.94-10.58-.04-21.16-.9-31.74-.84-7.48.04-14.96 1.01-22.44 1.62-1.96.16-3.04 1.29-3.72 3.27-5.64 16.52-11.3 33.04-17.18 49.47-2.78 7.76-6.33 15.25-9.07 23.03-2.35 6.64-3.1 13.64-2.31 20.69.12 1.07 1.12 2.47 2.08 2.95 5.16 2.56 10.47 3.07 15.95.76 3.51-1.48 7.12-2.71 10.7-4.03 9.19-3.39 15.76-9.3 18.33-19.04 1.29-4.88 3.94-8.62 8.85-10.86 2.5 2.94 3.72 6.54 1.74 9.85-6.18 10.32-11.92 21.24-22.47 27.88-5.5 3.46-11.84 5.6-17.83 8.28-3.48 1.56-6.92 3.26-10.53 4.44-3.24 1.06-5 3.12-5.41 6.25-1.38 10.49-2.94 20.97-3.81 31.51-.82 9.82-.81 19.7-1.26 29.55-.09 1.97.57 3.01 2.39 3.88 6.38 3.07 13.09 3.02 19.91 2.69 3.8-.18 7.63.11 11.43-.1 1.06-.06 2.69-.92 2.99-1.79 2.29-6.58 4.35-13.24 6.41-19.9 1.4-4.54 2.45-9.22 6.26-13.33 2.37 4.49 6.87 7.4 4.7 13.59-1.98 5.66-2.54 11.8-4.24 17.58-1.45 4.94-3.74 9.63-5.43 14.51-1.04 2.99-1.86 6.1-2.38 9.22-1.16 6.87-3.74 13.15-6.88 19.34-1.34 2.65-1.35 5.94-2.26 8.85-.8 2.57-1.59 5.29-3.09 7.45-5.12 7.32-11.24 13.62-20.15 16.22-11.01 3.22-22.04 1.79-33.04-.24-6.89-5.41-15.79-7.8-21.7-14.74-3.42-4.02-4.38-8.86-5.33-13.73-2.66-13.68-1.86-27.46-.95-41.22.42-6.34 1.67-12.64 1.83-18.97.12-4.61-.83-9.26-1.47-13.87-.32-2.33.11-3.76 3.31-3.53.49 3.28 1.03 6.67 1.51 10.07.71 4.93 1.61 9.85 1.99 14.8.23 3.07 1.64 5.21 4.18 6.18 3.6 1.39 7.4 2.75 11.19 3.03 5.68.42 11.43.01 17.14-.34 1.13-.07 2.95-1.31 3.12-2.26.71-3.89 1.25-7.87 1.23-11.81-.04-6.65-.88-13.3-.8-19.95.13-11.55.66-23.1 1.14-34.65.08-1.95-.5-3.03-2.23-4-7.4-4.13-14.61-8.6-22.09-12.59-3.89-2.07-6.38-5.11-8.31-8.84-4.97-9.61-7.37-20.05-9.48-30.54-1.04-5.15-1.61-10.4-2.4-15.6.38-.17.79-.38 1.19-.58zm26.36 147.45c-9.9 0-9.93-.06-16.16 2.91-.97.46-2.02 1.57-2.29 2.58-3.29 12.32-2.53 24.36 3.13 35.89 3.58 7.3 8.55 13.13 17.2 14.5 4.38.69 8.74 1.7 13.15 1.99 10.48.69 19.18-2.89 26.01-11.15 4.68-5.66 8.09-11.77 9.8-18.94 1.1-4.62 2.78-9.1 4.2-13.65 1.2-3.84.57-5.21-3.27-6.54-1.17-.41-2.49-.43-3.74-.58-5.55-.68-11.12-1.19-16.65-2.03-10.64-1.63-20.89-5.75-31.38-4.98zm1.65-191.78c1.17 4.97 1.62 9.85 3.47 14.12 4.51 10.36 9.49 20.52 14.73 30.53.91 1.73 3.91 2.96 6.1 3.27 2.25.32 2.97-2.14 3.58-4.15 3.72-12.14 7.51-24.25 11.27-36.37 1.27-4.09.7-6-3.09-8.08-5.71-3.13-12.04-4.5-18.39-3.7-5.71.71-11.27 2.73-17.67 4.38z" fill="#010100"/><path d="m135.24 38.97c7.47-.54 14.86-.96 22.22-1.61 25.47-2.25 50.98-2.54 76.53-2.44 3.88.02 5.28 1.48 5.74 5.11-9.39 3.54-19.1 6.15-29.19 6.35-6.4.12-12.98-.25-19.2-1.62-7.73-1.7-15.13-1.5-22.88-.38-7.8 1.13-15.8.93-23.72 1.1-4.38.1-8.22-1.08-9.5-6.51z" fill="#010100"/><path d="m199.19 333.17c-9.59.39-18.77.29-27.7-2.25-1.63-.47-3.59-2.08-4.11-3.6-.63-1.86 2.66-4.49 5.05-4.27 6.08.54 12.2.99 18.21 2.03 4.19.72 7.59 3.05 8.55 8.09z" fill="#010100"/><g fill="#fbfafc"><path d="m342.2 3.2-6.3 9.2h6.1v1.2h-8.2v-.5l6.2-9.1h-5.7v-1.2h7.8v.4z"/><path d="m344 13.7v-10.9h3.1c1.6 0 3 .5 4.1 1.4 1.1 1 1.6 2.2 1.6 3.9s-.5 3-1.6 4-2.5 1.5-4.2 1.5h-3zm1.4-9.6v8.4h1.6c1.4 0 2.5-.4 3.2-1.1.8-.8 1.2-1.8 1.2-3.2s-.4-2.4-1.2-3.1-1.8-1-3.1-1z"/><path d="m356.3 2.8v10.9h-1.4v-10.9z"/><path d="m366.6 13.2c-.8.4-1.8.6-3 .6-1.6 0-2.8-.5-3.7-1.5s-1.4-2.3-1.4-3.9c0-1.7.5-3.2 1.6-4.2s2.4-1.6 4-1.6c1 0 1.9.1 2.6.4v1.5c-.8-.4-1.6-.6-2.6-.6-1.2 0-2.2.4-3 1.2s-1.1 1.9-1.1 3.3c0 1.3.4 2.3 1.1 3.1s1.6 1.1 2.8 1.1c1.1 0 2-.2 2.8-.7v1.3z"/><path d="m368.2 13c0-.3.1-.5.3-.6.2-.2.4-.3.6-.3.3 0 .5.1.7.3s.3.4.3.6-.1.5-.3.6c-.2.2-.4.3-.7.3s-.5-.1-.6-.3c-.2-.2-.3-.4-.3-.6z"/><path d="m381.1 13.7h-1.7l-5.5-8.4c-.2-.2-.3-.5-.4-.7 0 .2.1.8.1 1.5v7.6h-1.4v-10.9h1.8l5.3 8.3c.3.4.4.6.4.8 0-.3-.1-.8-.1-1.6v-7.5h1.4v10.9z"/><path d="m389.7 13.7h-5.8v-10.9h5.6v1.2h-4.2v3.5h3.9v1.2h-3.9v3.7h4.4z"/><path d="m398.4 4.1h-3.1v9.6h-1.4v-9.6h-3.1v-1.3h7.7v1.3z"/></g></svg>