<svg enable-background="new 0 0 400 400" viewBox="0 0 400 400" xmlns="http://www.w3.org/2000/svg"><path d="m378.6 9.2.8-1c.9.7 1.9 1.4 2.9 2.3l-.9 1.1c-1.1-.9-2-1.7-2.8-2.4zm.5 10.7c.9-2.1 1.6-4.3 2.3-6.7.4.2.8.4 1.3.6-.7 2.1-1.5 4.3-2.2 6.6zm.4-15.2.9-.9c1 .8 2 1.6 2.8 2.4l-1 1c-1-.9-1.9-1.8-2.7-2.5zm12.5-1.3h1.2v1.4h2.7v1.1h-2.7v2.7h-1.2v-.5h-1.8v1.3h4.9v3.8h-1.2v-.5h-3.7c0 .4-.1.9-.1 1.2h5.1v1h-5.2c0 .5-.1.9-.2 1.2h6v1h-5.2c1.1 1.3 2.9 2 5.5 2.2-.4.4-.7.8-.9 1.3-2.9-.5-4.8-1.6-5.7-3.5h-.1c-.8 1.7-2.7 2.9-5.9 3.6-.2-.4-.6-.8-.9-1.1 2.8-.6 4.6-1.4 5.4-2.5h-4.8v-1h5.3c.1-.3.2-.7.2-1.2h-4.9v-1h5c0-.4 0-.8.1-1.2h-3.6v.5h-1.2v-3.8h4.9v-1.3h-1.8v.5h-1.2v-2.7h-2.6v-1.1h2.6v-1.4h1.2v1.4h4.7v-1.4zm-6.7 8.4h3.6c0-.4 0-.9 0-1.4h-3.6zm1.9-4.7h4.7v-1.2h-4.7zm6.7 3.3h-3.7v1.4h3.7z" fill="#fafbfc"/><path d="m384.7 21.4h1.3v2.2h2.8v-2.2h1.3v2.2h4.1v9.1h1.7v1.3h-16.9v-1.3h1.7v-9.1h4.1v-2.2zm.3 13.2.7 1.2c-1.8.9-3.8 1.9-6 2.9-.2-.4-.5-.8-.8-1.3 2.4-1 4.4-2 6.1-2.8zm-3.1-6.5h2.8v-3.2h-2.8zm0 4.6h2.8v-3.3h-2.8zm4.1-4.6h2.8v-3.2h-2.8zm0 4.6h2.8v-3.3h-2.8zm3.6 1.9c2.1.9 4.1 1.8 6.1 2.7l-.7 1.3c-2.2-1.1-4.2-2-6.1-2.9zm3.3-9.7h-2.8v3.2h2.8zm-2.8 7.8h2.8v-3.3h-2.8z" fill="#fafbfc"/><g fill="#010104"><path d="m201.22 93.68c1.38.49 2.94.57 3.68 1.39 3.11 3.45 5.83 3.59 9.5.52 5.77-4.82 11.63-9.54 17.58-14.15 3.26-2.52 4.53-2.46 6.33 1.33 2.1 4.44 3.68 9.22 4.75 14.02 1 4.51 1.27 9.22 1.43 13.86.17 4.83-.35 5.13-5.5 5.08-.34.96-.71 2-1.21 3.44 4.48-.39 4.28 2.32 4.12 5.25-.28 5.19-.26 10.39-.58 15.57-.08 1.22-.79 2.56-1.57 3.55-3.48 4.43-8.02 7.05-13.7 7.59-.93.09-2.17.19-2.7.79-5.08 5.81-12.35 5.41-18.96 6.8-4.04.85-5.35 2.66-3.5 6.37 1.25 2.5 3.29 4.61 5 6.88 1.41 1.87 2.61 3.57 1.88 6.33-.41 1.57.54 3.69 1.35 5.34.97 1.98 2.47 3.69 3.68 5.56.39.6 1.06 1.55.85 1.92-2.31 4.13 1.18 6.36 2.88 9.17.54.9 1.19 1.74 1.84 2.68-1.02 1.28-2 2.51-2.98 3.74 5.72 7.34 9.3 15.5 11.24 24.42 1.02 4.72.73 9.06-2.98 12.63-.23.22-.4.5-.57.76-2.22 3.46-4.51 6.8-9.61 5.07-.13.87-.35 1.39-.26 1.86.94 5.23-1.24 9.21-4.94 12.61-.54.5-.95 1.15-1.48 1.66-5.31 5.15-6.99 11.3-5.55 18.53 1.08 5.4 1.87 10.86 2.6 16.32.16 1.21-.04 2.86-.76 3.74-2.02 2.45-1.86 4.83-.46 7.33 1.2 2.14 1 3.61-1.88 4.25-3.6-5.07-6.01-10.76-7.63-16.79-2.76-10.24-2.83-20.5-.19-30.8.94-3.66 2.51-6.67 5.97-8.48 3.27-1.72 4.89-4.42 4.91-8.17.01-1.57.55-3.13.72-4.71.2-1.79.82-2.83 2.89-2.99.9-.07 1.98-1.1 2.51-1.98 2.6-4.25 5.13-8.54 7.46-12.94.54-1.03.63-2.64.25-3.75-1.29-3.69-2.84-7.3-4.42-10.89-.44-1.01-1.27-1.88-2.03-2.72-1.77-1.95-1.9-5.35.14-7.06 1.59-1.33 1.43-2.58.31-3.76-3.13-3.32-4.5-7.19-4.97-11.71-.19-1.82-2.16-3.45-3.76-4.94-.09 8.26-4.26 15.06-6.19 22.46-.68 2.62-1.16 5.35-1.33 8.05-.25 3.91-5.39 7.56-8.92 6.01-.52-.23-.92-1.09-1.09-1.73-.95-3.49-1.25-6.87 1.92-9.56.39-.33.61-.86.9-1.28-4.06-5.89-3.85-10.65.04-16.5 5.68-8.55 6.11-18.07 4.27-27.83-.14-.72-1.46-1.71-2.24-1.72-4.08-.07-8.2-.16-12.23.34-3.44.43-6.73 1.88-10.17 2.46-4.99.84-7.23-1.18-7.62-6.09-.24-3.02-1.05-6.02-1.05-9.03 0-1.3 1.38-2.6 2.52-4.57 1.8 3.25 3.3 5.45 4.3 7.87 1.14 2.76 2.8 3.72 5.62 2.79.58-.19 1.25-.11 2.21-.19.11.97.15 1.87.33 2.73.11.51.39 1.31.69 1.36.47.07 1.29-.24 1.5-.64 2.67-5 5.91-9.75 2.61-15.98-1.18-2.22-.7-5.37-.81-8.11-.17-4.32-1.35-6.12-5.75-8.05-3.12 5.3-6.26 10.64-9.51 16.18-2.8-2.77-3.78-5.9-3.96-9.37-.52-9.76.53-11.44 9.57-15.13.15-.06 1.16 2.01 1.77 3.08 1.26-.76 3-1.22 3.68-2.33 1.86-3.04 4.38-4.09 7.75-3.8 1.24.11 2.49.02 4.29.74-2.59 2.5-5.18 5-8.04 7.75 3.23.48 6.11.9 9.64 1.43-2.85 4.04-5.42 7.68-8.18 11.58 4.3 1.74 5.69 4.77 5.14 9.19-.2 1.58 1.18 3.36 1.96 5.35 5.08-4.84 10.73-2.56 15.96-2.91.5-.03 1.1.87 1.58 1.4 2.42 2.66 3.63 2.64 6.19-.05 1.02-1.07 2.08-2.12 3.22-3.06 1.96-1.62 3.94-2 6.4-.61 3.71 2.1 7.37 1.27 10.26-1.89 1.14-1.25 2.26-2.53 3.38-3.8 2.94-3.33 4.2-7.03 2.76-11.44-.46-1.4-.53-2.94-1.03-4.32-1.52-4.21-1.33-8.17.73-12.23.71-1.41.58-3.46.29-5.12-.45-2.59-1.17-5.19-2.17-7.62-.5-1.21-1.77-2.74-2.87-2.9-1.24-.18-2.71.96-4.01 1.67-.52.28-.76 1.13-1.29 1.36-5.12 2.16-7.82 7.01-11.79 10.42-2.76 2.37-6.02 4.16-9.54 6.53-2.28-5.98-6.18-10.67-3.47-17.04.67-1.58.1-3.68.1-6.37z"/><path d="m142.4 126.79c1.74 1.28 3.35 2.47 5.29 3.89-1.21.75-2.28 1.33-3.26 2.02-2.52 1.79-2.49 3.68.03 5.45 3.33 2.33 3.44 2.93 1.18 6.3-1.05 1.57-2.1 3.14-3.49 5.22 1.18.97 2.72 1.7 3.35 2.9.8 1.53 1.44 3.55 1.13 5.18-.76 4.09-.34 4.89 3.89 4.89h6.89c-.34 2.1-.48 3.91-1 5.59-.21.67-1.19 1.4-1.93 1.56-3.72.82-7.47 1.57-11.24 2.06-.75.1-2.05-.8-2.43-1.57-2.55-5.13-3.76-10.57-2.91-16.3 1.72-11.64 1.5-23.21-.53-34.8-.93-5.3-1.41-10.74 1.78-15.67.16-.25.27-.64.2-.91-1.23-4.59 1.76-7.09 4.78-9.48 1.77-1.4 2.4-2.99 2.1-5.22-.26-1.98-.42-4.06-.09-6.01.55-3.27 3.19-4.13 5.54-2.03 3.59 3.22 9.97 3.42 13.64.21.49-.43.36-1.98.02-2.8-.34-.8-1.4-1.25-2.01-1.97-3.38-3.96-2.22-7.5 3.05-8.81.83 2.11 1.65 4.24 2.5 6.37.63 1.58 1.54 2.2 3.44 1.71 4.46-1.14 9.01-1.97 14.44-3.11 0-2.1.11-5-.02-7.89-.35-7.71-1.59-15.43.37-23.1.47-1.82 1.13-3.59 1.83-5.79 4.66 3.98 5.52 8.77 4.86 13.98-.7 5.57-1.66 11.1-2.47 16.66-.61 4.21 2.24 7.65 6.41 8.3 1.55.24 2.98 1.3 4.44 2.04 1.2.6 2.37 1.28 4.17 2.25.32 2.33.74 5.46 1.23 9.01-2.32.28-4.46.53-6.67.79-1.1-2.22-1.96-4.38-3.18-6.31-1.71-2.72-3.24-2.99-5.7-1-2.79 2.26-5.85 2.79-9.25 2.11-1.8-.36-3.44-.66-3.66-3.15-.08-.89-1.6-1.65-2.36-2.37-.58.34-.87.4-.91.55-1.4 4.51-4.81 6.68-9.08 7.87-2.77.77-4.99 2.3-6.4 4.84-1.24 2.24-3.17 3.39-5.64 3.48-2.29.09-3.29 1.33-4.02 3.32-1.05 2.88-2.32 5.68-3.57 8.49-1.28 2.88-2.3 5.41-.55 8.83 1.6 3.12.04 6.62-1.99 9.52-.65.94-1.38 1.83-2.2 2.9z"/><path d="m205.47 309.66c5.14-2.78 8.23-7.25 10.6-12.29.17-.36.52-.87.83-.9 4.88-.51 6.07-4.69 7.51-8.13 2.08-4.98 6.18-7.56 10.28-10.37 1.42-.97 3.13-2.23 3.6-3.71 1.03-3.22 2.94-5.09 5.92-6.45 1.53-.7 2.76-2.18 3.95-3.48 1.41-1.53 2.64-3.24 4.04-4.98 4.33 4.6 5.83 10.1 5.99 15.7.31 10.48.1 20.98-.24 31.46-.06 1.8-1.82 3.54-3.01 5.69 5.86 5.33 5.12 12.31 2.75 19.45-1.66 5.02-3.85 9.89-5.19 14.98-1.4 5.29-2.18 10.76-3.01 16.19-.33 2.17-1 3.35-4.26 2.76.2-3.66.26-7.4.66-11.11.27-2.51.66-5.12 1.61-7.43 2.1-5.09.72-9.98-.17-14.95-.17-.94-.76-2.1-.41-2.78 3.35-6.67.5-13.79 1.58-20.63.62-3.92.32-7.98.66-11.96.15-1.76.74-3.5 1.34-5.18 1.02-2.87.04-4.76-2.64-5.85-1.37-.56-2.81-.96-4.25-1.3-1.76-.41-3.31-.16-4.38 1.58-.55.89-1.28 2.21-2.07 2.32-4.97.66-5.96 4.68-8.14 8.21-4.81 7.8-11.15 14.33-19.87 18.69-1.25-1.88-2.34-3.52-3.68-5.53z"/><path d="m144.76 50.82c6.76 6.41 5.38 14.91 6.12 22.86-4.36 1.14-5.34.85-6.77-2.72-2.65-6.64-2.51-13.34.65-20.14z"/><path d="m190.34 258.23c-.64-4.99-1.55-9.6-1.72-14.25-.1-2.95 1.78-3.71 4.52-2.45 4.76 2.19 7.04 7.49 5.19 12.48-.31.83-1.28 1.6-2.13 2.02-1.58.78-3.29 1.26-5.86 2.2z"/><path d="m162.56 60.63c-3.38-7.15-.83-13.77.55-20.46.41-.11.83-.22 1.24-.33 1.04 2.29 2.61 4.5 2.98 6.9.49 3.17.06 6.48-.01 9.73-.08 3.08-1.63 4.53-4.76 4.16z"/><path d="m185.23 230.58c.36-1.61.72-3.22 1.12-4.99 1.99.13 3.98.11 3.97 2.6-.01 3.36-3.16 1.68-4.53 2.95-.19-.18-.38-.37-.56-.56z"/></g></svg>