<svg enable-background="new 0 0 400 400" viewBox="0 0 400 400" xmlns="http://www.w3.org/2000/svg"><path d="m125.04 195.87c3.55.23 3.55.23 8.52 5.05 1.3-3.93.57-7.78-.94-11.19-2.65-5.97-5.72-11.79-9.04-17.43-2.18-3.72-4.32-3.47-6.89-.12-13.48 17.56-28.42 33.72-46.12 47.14-5.95 4.51-12.56 7.89-20.04 9.15-1.64.28-3.33.27-4.96.39-1.01-2.62.11-4.12 1.74-5.72 16.88-16.59 33.19-33.69 46.7-53.23 5.63-8.15 9.89-17 12.81-26.5.61-2 .25-3.19-1.31-4.62-9.3-8.53-18.59-17.07-27.65-25.84-5.67-5.49-9.77-12.03-10.55-20.13-.26-2.69-.04-5.43-.04-9.27 4.93 1.84 9.14 2.93 12.88 4.9 9.69 5.09 17.81 12.28 24.89 20.52 10.44 12.14 20.58 24.53 30.78 36.87 1.19 1.44 2.18 3.13 2.86 4.87 7.49 19.01 14.9 38.05 22.34 57.07.37.94.82 1.84 1.45 3.25 2.78-9.04 2.63-17.67 1.58-26.29-.86-7.04-1.71-14.13-3.39-21.01-1.42-5.81-4.16-11.28-5.99-17.01-.58-1.81-.8-4.48.15-5.81.8-1.13 3.55-1.33 5.38-1.2 3.86.28 7.28 1.77 10.34 4.34 5.68 4.77 11.63 9.22 17.38 13.91.84.69 1.69 2.05 1.64 3.06-1.05 20.03 4.36 39.31 6.61 58.95.56 4.91 2.55 7.89 6.79 10.35 3.21 1.86 5.95 2.35 9.49 1.51 10.19-2.44 20.39-5.05 30.72-6.66 8.74-1.36 17.67-1.61 26.54-1.98 15.46-.65 30.92-1.06 46.39-1.48 6.92-.19 13.43 1.68 19.63 4.59 5.06 2.38 7.03 5.84 6.7 10.8-.14 2.1-.78 3.11-3.16 3.33-10.44.97-20.94 1.72-31.28 3.41-12.63 2.07-25.09 5.14-37.68 7.5-8.72 1.64-17.49 3.43-26.31 4.04-13.01.9-25.43-2.3-37.27-7.71-1.64-.75-3.28-1.47-4.93-2.19-.18-.08-.41-.03-.61-.04-4.45 4.6-3.54 12.52 1.68 16.06 3.67 2.49 7.22 5.3 10.29 8.49 6.21 6.44 14.09 8.48 22.49 9.79 13.78 2.14 27.46.89 41.2-.36 22.76-2.07 44.92-7.34 67.15-12.24 4.94-1.09 7.54 1.63 5.89 6.6-1.45 4.36-3.86 8.26-7.9 10.84-15.21 9.72-31.71 16.09-49.59 18.55-9.75 1.34-19.57 2.17-29.37 3.13-11.24 1.11-22.14-1.37-33.08-3.31-1.98-.35-3.95-.92-5.95-1.01-10.6-.48-18.73-6.75-27.47-11.59-.87-.48-1.46-1.51-2.08-2.36-7.17-9.59-14.33-19.2-21.49-28.8-.88-1.18-1.78-2.34-3.13-4.1-.94 4.95-2.08 9.24-2.53 13.59-1.36 13.32-7.95 24.46-14.73 35.45-11.56 18.72-25.8 34.99-44.95 46.34-8.74 5.18-17.76 9.9-26.75 14.63-4.93 2.59-9.19 2.63-15.4.74 0-1.99-.19-4.12.09-6.17.13-.95 1.01-2.02 1.85-2.6 21.89-15.31 40.05-34.33 55.26-56.16 12.49-17.93 19.83-37.79 20.87-59.78.01-.2-.09-.4-.24-.98-3.26 0-6.63-.18-9.96.11-1.02.09-2.02 1.37-2.88 2.26-14.57 15.14-29.62 29.77-46.3 42.6-8.37 6.44-17.56 11.45-27.96 13.89-1.83.43-3.72.66-5.92 1.05 2.52-5.84 4.64-11.28 8.99-15.82 15.85-16.53 31.63-33.15 46.91-50.2 6.4-7.14 11.88-15.22 16.97-23.38 1.77-2.84 1.12-7.2 1.55-10.87.13-1.31.22-2.65.34-3.96z" fill="#000001"/><path d="m87.62 69.45c5.52-.88 10.52-1.75 15.54-2.46 12.4-1.76 23.27-7.54 34.34-12.84 12.02-5.76 24.05-11.49 36.08-17.23 3.91-1.87 8.03-2.62 12.34-2.18 7.9.81 15.83 1.41 23.66 2.61 6.11.94 11.28 4.04 15.51 8.69 3.24 3.56 4.53 7.64 3.62 12.29-.8 4.04-2.11 7.99-2.84 12.04-.52 2.86-.9 5.9-.5 8.74.49 3.55 2.65 4.66 5.9 3.27 10.35-4.45 21.37-4.94 32.34-5.87 12.14-1.03 24.27-2.22 36.43-2.96 3.95-.24 8.02.53 11.96 1.22 3.78.66 5.66 3.33 6.23 7.32-8.75 3.17-17.39 6.29-26.03 9.43-16.61 6.04-33.21 12.13-49.86 18.08-1.59.57-3.52.66-5.2.39-5.33-.84-10.61-1.95-16.27-3.02-.78 8.64-1.54 17.05-2.35 26.02 5.38-.39 10.5-.72 15.61-1.12 20.28-1.61 40.56-3.33 60.85-4.81 5.25-.38 10.57-.29 15.83.08 5.03.35 7.47 2.63 7.69 6.08.1 1.69-.42 2.68-2.21 3.21-23.76 6.98-47.5 14.05-71.27 20.99-1.54.45-3.36.23-5.01-.01-5.66-.83-11.28-1.93-16.95-2.63-1.27-.16-3.09.55-3.97 1.5-2.44 2.62-3.4 5.95-2.31 9.44 1.39 4.44 2.99 8.82 4.74 13.13.39.97 1.67 1.84 2.73 2.23 11.41 4.18 23.25 5.23 35.33 5.05 11.64-.17 23.31-.14 34.93.46 7.89.4 15.33-1.65 22.97-2.62 3.78-.48 7.51-1.48 11.3-1.73 1.64-.11 3.83.68 4.91 1.86.82.9.92 3.43.23 4.55-1.55 2.52-3.43 5.16-5.82 6.79-12.29 8.39-25.63 14.36-40.43 16.85-15.47 2.6-30.89 1.99-46.14-1.09-9.1-1.84-17.98-4.74-26.91-7.36-1.33-.39-2.74-1.64-3.44-2.87-13.16-23.12-18.48-47.92-16.72-74.5 1.4-21.15 1.94-42.36 2.72-63.55.05-1.23-.8-2.83-1.74-3.71-2.41-2.27-5.6-2.88-8.63-1.92-5.41 1.71-10.97 3.34-15.93 6-10.36 5.55-20.26 11.95-30.56 17.62-6.96 3.83-13.41 8.19-18.07 14.66-3.58 4.96-8.28 4.73-13.33 3.79-.82-.15-1.59-.59-2.41-.79-6.2-1.59-10.16-5.14-12-11.59-1.68-5.85-4.43-11.39-6.89-17.53z" fill="#000001"/><g fill="#fafbfa"><path d="m37.59 393.81c-.92.31-1.52.05-2-.78-.7-1.2-1.52-2.34-2.47-3.78v4.59c-.55.03-.95.05-1.41.07-.03-.37-.06-.64-.06-.91 0-1.91 0-3.81 0-5.7 1.13-.41 1.77-.03 2.29.91.62 1.11 1.38 2.14 2.31 3.19v-4.2h1.35v6.61z"/><path d="m12.94 393.88v-6.75c1.9.19 3.93-.54 5.37 1.29.8 1.01.78 2.88.03 3.97-1.37 1.97-3.4 1.51-5.4 1.49m1.45-1.22c2.04.12 2.92-.58 2.89-2.21-.03-1.51-.98-2.19-2.89-2z"/><path d="m11.81 393.87h-5.49c.68-2.18 2.47-3.48 3.51-5.45h-3.08v-1.21h5.29c-.71 2.13-2.44 3.48-3.47 5.51.86 0 1.63.04 2.39-.01.79-.05 1.14.21.85 1.16"/><path d="m39.33 393.86v-6.61h3.7v1.07h-2.22v1.52c.68.04 1.34.09 2.07.13v1.07c-.72.05-1.38.09-2.1.14v1.48h2.4v1.19h-3.85z"/><path d="m27.71 388.56c-1.15-.3-2.46-.61-3.1.64-.37.73-.41 1.93-.06 2.67.63 1.35 1.99.93 3.17.68.35.94-.01 1.32-.93 1.46-1.62.25-3.05-.27-3.76-1.48-.73-1.24-.6-3.03.31-4.17.88-1.11 2.71-1.7 4-1.16.32.13.44.74.65 1.12-.1.08-.19.16-.28.24"/><path d="m49.15 387.24v1.07c-.59.02-1.17.05-1.87.08v5.44h-1.48v-5.44h-1.85c-.05-.4-.08-.73-.13-1.15z"/><path d="m20.06 387.21h1.33v6.62h-1.33z"/><path d="m30.68 393.25c-.49.38-.8.79-1.05.76-.32-.05-.6-.45-.9-.7.26-.24.51-.64.8-.67.29-.04.62.3 1.15.61"/></g></svg>