<svg enable-background="new 0 0 400 400" viewBox="0 0 400 400" xmlns="http://www.w3.org/2000/svg"><g fill="#010000"><path d="m148.17 348.12c2.64-.13 5.16-.15 7.65-.4 2.19-.21 4.43-.42 6.5-1.09 2.74-.89 4.34-3.02 4.42-5.99.12-4.26 1.29-8.09 3.85-11.55.71-.96.91-2.3 1.33-3.47.79-2.22 1.56-4.44 2.35-6.66.18-.5.62-1.04.53-1.47-.97-4.3 1.75-7.42 3.33-10.93 2.68-5.96 2.4-12.19 1.19-18.42-.16-.83-.86-1.72-1.56-2.24-10.54-7.77-16.12-18.61-19.18-30.96-1.42-5.75-2.54-11.58-3.75-17.38-.28-1.34-.55-2.74-.5-4.09.26-6.86.53-13.73 1.03-20.58.18-2.39 1.16-4.72 1.56-7.11.49-2.89.72-5.81 1.13-8.71.16-1.12.33-2.29.8-3.3 1.9-4.14 3.98-8.19 5.86-12.34 2.59-5.69 4.06-12.23 7.81-16.98 5.45-6.91 9.06-14.75 13.59-22.1 2.16-3.49 3.71-7.36 5.59-11.03.62-1.21 1.27-2.45 2.15-3.48 3.52-4.1 3.55-4.07.45-8.47 4.67-4.1 8.92-4.06 12.11 1.05 2.29 3.66 3.78 8.03 4.72 12.28 1.72 7.83 4.34 15.05 8.45 22.06 3.85 6.57 5.95 14.17 8.9 21.28.88 2.11 2.12 4.07 3.1 6.14 2.47 5.25 5.51 10.34 7.18 15.84 2.87 9.48 5.33 19.15 7.12 28.89 1.95 10.63 1.82 21.34-2.72 31.53-3.51 7.88-7.79 15.36-14.07 21.31-5.3 5.01-6.06 10.63-4.54 17.27 3.23 14.18 7.68 27.95 13.61 41.23 1.04 2.33 2.49 5.23.06 6.95-2.57 1.82-4.61-.82-6.34-2.62-2.13-2.21-4.22-4.47-6.2-6.82-1.85-2.21-3.34-4.57-2.96-7.75.14-1.17-.37-2.49-.85-3.64-1.53-3.72-3.46-7.3-4.71-11.1-1.07-3.25-1.46-6.73-2.08-10.12-.22-1.24-.03-2.57-.36-3.76-.96-3.49-2-4.23-5.39-3.01-5.9 2.13-11.88 2.86-18.22 1.6-1.78 7.54-3.29 14.78-5.22 21.9-1.96 7.22-4.23 14.37-6.6 21.48-1.65 4.95-1.43 5.93 3.58 6.98 9.11 1.9 18.12 2.6 27.23-.81 3.01-1.13 6.81-.05 10.25-.1 3.55-.05 7.1-.37 10.65-.35 2.26.02 4.52.48 6.78.68 5.07.43 10.17.55 15.19 1.31 3.35.51 6.57 1.91 9.79 3.36-5.38 4.23-11.43 5.86-17.83 6.05-7.73.23-15.47.03-23.21.2-1.78.04-3.54.88-5.3 1.35-2.05-.25-4.31-.9-6.5-.75-10.81.75-21.57.84-32.29-1-.81-.14-1.68-.01-2.51.07-3.88.34-7.55 1.64-11.52-1.04-2.25-1.52-5.94-1.02-9-1.22-5.05-.31-6.69-2.07-6.43-7.97zm19.6-130.72c6.55 1.67 12.65 3.24 18.77 4.74.68.17 1.46-.15 2.2-.18 2.62-.13 5.68-1.18 7.79-.2 10.19 4.73 21.97 3.22 31.99 8.54 3.01 1.6 4.79-.27 4.21-3.78-.59-3.55-1.15-7.1-1.79-10.64-1.6-8.9-2.2-18.05-7.93-25.78-2.42-3.27-4.25-7.1-5.74-10.91-2.27-5.79-3.78-11.88-6.04-17.68-2.49-6.4-5.64-12.5-10.61-17-17.47 21.56-27.28 46.35-32.85 72.89zm12.84 15.32c-2.78 1.07-5.82 2.14-8.77 3.4-6.02 2.58-6.07 2.64-4.09 9.09 1.11 3.64 3.25 7.13 3.57 10.8.62 7.07 4.41 12.21 8.71 17.2 3.95 4.57 8.14 8.92 12.07 13.5 2.9 3.38 4.99 3.47 7.9-.09.67-.82 1.28-1.71 1.74-2.65 1.24-2.52 3.16-4.13 5.87-4.91 2.94-.85 5.29-2.49 6.77-5.3 1.42-2.68 3.33-4.79 6.53-5.54.86-.2 1.56-1.31 2.23-2.09 5.08-5.83 7.6-12.75 9.16-20.24.68-3.29-.55-4.74-3.17-5.39-3.38-.84-6.86-1.3-10.3-1.84-12.55-1.96-25.1-3.9-38.22-5.94z"/><path d="m132.85 171.7c-.14-7.01-.27-13.73-.4-19.93 1.53-2.54 3.26-4.85 4.41-7.42 3.9-8.69 8.18-17.27 11.24-26.26 6.53-19.19 17.2-36.21 26.9-53.76.59-1.07 1.36-2.47 2.36-2.82 3.37-1.18 4.81-3.84 6.26-6.73.64-1.27 1.83-2.28 2.83-3.35 3.73-4.01 7.63-7.87 11.19-12.02 3.18-3.72 5.54-4.74 8.74-2.85.67.39 1.38 1.06 1.63 1.76 6.05 16.74 15.87 31.54 24.25 47.08 1.74 3.22 3.1 6.78 6.73 8.58.44.22.97 1.13.84 1.5-1.01 2.85.84 4.88 1.94 7.08 2.89 5.77 5.95 11.46 8.81 17.25.83 1.68 1.13 3.63 1.85 5.38.59 1.42 1.46 2.73 2.21 4.09 1.36 2.45 3.22 4.75 3.97 7.36 1.17 4.15 1.69 8.5 2.26 12.79.12.9-.7 1.93-1.08 2.9-.87-.43-2.05-.64-2.56-1.34-3.44-4.68-6.96-9.33-10.03-14.25-2.56-4.12-4.54-8.61-6.77-12.93-.29-.56-.49-1.23-.92-1.66-2.15-2.12-3.25-4.87-4.77-7.32-3.98-6.41-7.69-12.86-10.44-19.89-.22-.55-1.5-.95-2.29-.97-4.21-.09-8.43.15-12.63-.07-12.18-.64-24.09 1.19-35.9 3.85-.99.22-2.13 1.32-2.56 2.29-9.46 21.15-18.86 42.33-28.18 63.54-2.48 5.59-4.32 7.45-9.89 8.12zm67.26-118.59c-4.03 4.59-8.96 7.89-11.06 13.68-.7 1.93-2.41 3.46-3.39 5.31-1.67 3.14-3.25 6.35-4.63 9.62-.47 1.11-.5 2.62 1.55 2.64 9.97.12 19.89-.11 29.5-3.32 2.19-.73 2.88-1.96 2.27-3.99-2.74-9.06-7.69-16.79-14.24-23.94z"/><path d="m244.43 153.02c.66.51 2.38 1.16 2.91 2.35 3.39 7.48 6.61 15.05 9.67 22.67 1.07 2.66-.01 3.54-2.92 3.23-5.08-.54-7.1-4.79-8.7-8.34-2.35-5.22-3.39-11.04-4.87-16.64-.65-2.47 1-3.09 3.91-3.27z"/><path d="m157.59 159.8c4.29 5.76.74 11-.04 16.25-5.57.16-5.65.09-5.65-4.97 0-6.55 0-6.55 5.69-11.28z"/></g><path d="m361.2 9.6.8-1c.9.7 1.9 1.4 2.9 2.3l-.9 1.1c-1-1-2-1.8-2.8-2.4zm.5 10.6c.9-2.1 1.6-4.3 2.3-6.7.4.2.8.4 1.3.6-.7 2.1-1.5 4.3-2.2 6.6zm.4-15.2.9-.9c1 .8 2 1.6 2.8 2.4l-1 1c-.9-.9-1.8-1.7-2.7-2.5zm12.5-1.2h1.2v1.4h2.7v1.1h-2.7v2.7h-1.2v-.6h-1.8v1.3h4.9v3.8h-1.2v-.5h-3.7c0 .4-.1.9-.1 1.2h5.1v1h-5.2c0 .5-.1.9-.2 1.2h6v1h-5.2c1.1 1.3 2.9 2 5.5 2.2-.4.4-.7.8-.9 1.3-2.9-.5-4.8-1.6-5.7-3.5h-.1c-.8 1.7-2.7 2.9-5.9 3.6-.2-.4-.6-.8-.9-1.1 2.8-.6 4.6-1.4 5.4-2.5h-4.8v-1h5.3c.1-.3.2-.7.2-1.2h-4.9v-1h5c0-.4 0-.8.1-1.2h-3.5v.5h-1.2v-3.8h4.9v-1.3h-1.8v.5h-1.2v-2.7h-2.7v-1h2.6v-1.4h1.2v1.4h4.7v-1.4zm-6.6 8.3h3.6c0-.4 0-.9 0-1.4h-3.6zm1.9-4.6h4.7v-1.3h-4.7zm6.6 3.2h-3.7v1.4h3.7z" fill="#fafafb"/><path d="m385.3 3.8h1.3v2.2h2.8v-2.2h1.3v2.2h4.1v9.1h1.7v1.3h-16.9v-1.3h1.7v-9.1h4.1v-2.2zm.4 13.1.7 1.2c-1.8.9-3.8 1.9-6 2.9-.2-.4-.5-.8-.8-1.3 2.3-1 4.3-1.9 6.1-2.8zm-3.1-6.4h2.8v-3.2h-2.8zm0 4.6h2.8v-3.3h-2.8zm4-4.6h2.8v-3.2h-2.8zm0 4.6h2.8v-3.3h-2.8zm3.7 1.9c2.1.9 4.1 1.8 6.1 2.7l-.7 1.3c-2.2-1.1-4.2-2-6.1-2.9zm3.2-9.7h-2.8v3.2h2.8zm-2.8 7.8h2.8v-3.3h-2.8z" fill="#fafafb"/></svg>