<svg enable-background="new 0 0 400 400" viewBox="0 0 400 400" xmlns="http://www.w3.org/2000/svg"><path d="m378.6 9.2.8-1c.9.7 1.9 1.4 2.9 2.3l-.9 1.1c-1.1-.9-2-1.7-2.8-2.4zm.5 10.7c.9-2.1 1.6-4.3 2.3-6.7.4.2.8.4 1.3.6-.7 2.1-1.5 4.3-2.2 6.6zm.4-15.2.9-.9c1 .8 2 1.6 2.8 2.4l-1 1c-1-.9-1.9-1.8-2.7-2.5zm12.5-1.3h1.2v1.4h2.7v1.1h-2.7v2.7h-1.2v-.5h-1.8v1.3h4.9v3.8h-1.2v-.5h-3.7c0 .4-.1.9-.1 1.2h5.1v1h-5.2c0 .5-.1.9-.2 1.2h6v1h-5.2c1.1 1.3 2.9 2 5.5 2.2-.4.4-.7.8-.9 1.3-2.9-.5-4.8-1.6-5.7-3.5h-.1c-.8 1.7-2.7 2.9-5.9 3.6-.2-.4-.6-.8-.9-1.1 2.8-.6 4.6-1.4 5.4-2.5h-4.8v-1h5.3c.1-.3.2-.7.2-1.2h-4.9v-1h5c0-.4 0-.8.1-1.2h-3.6v.5h-1.2v-3.8h4.9v-1.3h-1.8v.5h-1.2v-2.7h-2.6v-1.1h2.6v-1.4h1.2v1.4h4.7v-1.4zm-6.7 8.4h3.6c0-.4 0-.9 0-1.4h-3.6zm1.9-4.7h4.7v-1.2h-4.7zm6.7 3.3h-3.7v1.4h3.7z" fill="#fafbfc"/><path d="m384.7 21.4h1.3v2.2h2.8v-2.2h1.3v2.2h4.1v9.1h1.7v1.3h-16.9v-1.3h1.7v-9.1h4.1v-2.2zm.3 13.2.7 1.2c-1.8.9-3.8 1.9-6 2.9-.2-.4-.5-.8-.8-1.3 2.4-1 4.4-2 6.1-2.8zm-3.1-6.5h2.8v-3.2h-2.8zm0 4.6h2.8v-3.3h-2.8zm4.1-4.6h2.8v-3.2h-2.8zm0 4.6h2.8v-3.3h-2.8zm3.6 1.9c2.1.9 4.1 1.8 6.1 2.7l-.7 1.3c-2.2-1.1-4.2-2-6.1-2.9zm3.3-9.7h-2.8v3.2h2.8zm-2.8 7.8h2.8v-3.3h-2.8z" fill="#fafbfc"/><g fill="#010104"><path d="m127.26 344.43c-2.29 2.84-5.25 3.72-6.19 1.74-.56-1.19.85-3.31 1.47-5.33-1.72-.18-4.11-.22-6.37-.76-1.2-.29-2.72-1.22-3.19-2.27-3.24-7.13-6.44-14.29-9.2-21.61-.87-2.3-.38-5.12-.5-7.7-.28.31-.74.83-1.49 1.67-1.12-8.61-2.19-16.87-3.32-25.57-5.07 2.39-9.07.23-13.15-1.95-5.04-2.69-11.05-4.29-15-8.08s-5.88-9.69-8.7-14.67c-.89-1.57-2.1-3.05-2.56-4.73-.61-2.23-1.38-4.87-.73-6.9 1.13-3.53.83-6.6-.55-9.84-.36-.86-.64-2.21-.22-2.87 4.81-7.53 5.55-16.13 6.68-24.62.47-3.57.82-7.16 1.07-10.76.33-4.7.66-9.22-1.61-13.88-1.74-3.57-1.78-7.99-2.44-12.06-.11-.69.46-1.51.79-2.24.12-.27.44-.45.67-.67 6.08-6.02 6.05-5.95 13.94-2.78 1.09.44 2.65-.07 3.92-.41.85-.23 1.57-.94 2.62-1.6-.18 1.45-.17 2.53-.46 3.53-1.21 4.21-.31 7.8 2.61 11.1.64.72.71 2.65.2 3.55-5.04 8.97-3.69 17.33 2.29 25.2 3.17 4.17 6.65 8.1 10 12.14.27-.14.55-.28.82-.43.67-4.05 1.51-8.07 1.97-12.14.53-4.71 1.8-8.88 6.85-11.31-6.64-4.55-7.61-10.41-6.8-17.42.41-3.55-1.14-7.41-2.2-11.02-.48-1.63-.68-2.73.69-3.89.97-.82 1.94-1.72 2.62-2.76 3.14-4.83 7.55-4.95 12.52-3.74 5.96 1.44 7.6.29 8.18-5.87.12-1.27-.69-3.02-1.66-3.93-8.86-8.29-16.98-17.23-23.59-27.42-2.04-3.15-3.39-6.79-4.8-10.31-.88-2.19-.26-4.17 1.33-6.12 4.22-5.17 8.18-10.54 12.22-15.8-2.84-3.34-5.91-6.34-8.22-9.85-1.98-3.02-3.66-6.49-4.47-9.99-1.62-7.04.37-10.85 6.52-14.6 1.62-.99 3.25-1.96 5.1-3.08 1.45 2.69 2.69 5.35 4.24 7.82 6.17 9.76 12.38 19.5 18.72 29.15 1.18 1.8 1.18 3 .05 4.77-4.32 6.78-8.48 13.67-12.84 20.75 6.31 6.48 12.58 12.91 18.85 19.35 4.96 5.09 9.91 10.18 14.86 15.27 2.48 2.55 2.77 5.96.73 9.01-.7 1.04-1.47 2.02-2.49 3.4 4.71.72 9.05 1.42 13.41 2.05 3.24.46 2.63-2.63 4.11-4.31-7.1-4.36-8.32-11-8.27-18.53.02-2.57-2.28-5.1-3.27-7.75-.79-2.12-1.67-4.39-1.66-6.59 0-2.57-.81-4.29-2.94-5.44-2.36-1.26-2.71-3.18-2.93-5.73-.82-9.51.96-18.21 6.41-26.17 1.77-2.59 2.99-5.55 4.54-8.51 1.12.6 2 1.07 3.18 1.7-.9-5.05-1.33-9.61-5.5-13.27-3.86-3.38-6.78-7.84-7.43-13.33-.31-2.61.28-4.31 3.17-4.69 1.25-.16 2.56-.42 3.67-.98 5.01-2.51 9.46-.05 13.97 1.54.55.19 1.23 1.31 1.13 1.86-.94 4.87 2.2 7.86 4.82 11.18 2.28 2.89 4.42 5.92 6.36 9.05 1.11 1.79 1.04 3.68-.61 5.51-1.83 2.03-3.3 4.39-5.04 6.76.99 1.41 1.95 2.78 3.1 4.41-1.18 1.39-2.39 2.83-3.61 4.25-3.92 4.55-7.08 9.54-8.51 15.43-.24.98.29 2.27.75 3.28 1 2.17 2.72 4.13 3.2 6.39 1.19 5.59 2.65 10.88 7.29 14.74.71.59 1.06 1.8 1.24 2.78 1.24 6.45 2.82 12.87 3.42 19.39.46 5 3.38 7.04 7.62 8.98.62-5.56 1.23-10.88 1.78-16.2.05-.46-.12-1.16-.44-1.42-3.66-2.96-3.87-7.36-4.84-11.44-.07-.31-.04-.65-.16-.94-2.46-5.88-1.3-11.46.9-17.17 1.06-2.75 2.1-4.7 5.35-4.64.79.01 1.6-.42 2.97-.81-5.19-4.7-2.56-8.61 1-12.19 6.48-6.52 9.16-14.23 7.64-23.29-.39-2.3-.89-4.75-2.05-6.71-3.14-5.25-6.67-10.27-10.2-15.63 3.88-1.45 2.97-3.76 1.61-6.32-.98-1.85-1.66-3.85-2.53-5.89 3.99-2.89 7.83-5.67 11.75-8.51 3.91 2.71 6.54 5.86 6.64 10.94.05 2.41 1.43 4.8 2.26 7.18.17.49.52.93.85 1.33 9.12 11.16 12.02 24.03 10.49 38.12-.02.21-.07.43-.04.63.48 4.18-.85 7.27-4.37 9.99-4.73 3.66-6.93 8.96-7.28 14.99-.1 1.78-.5 3.54-.79 5.46-3-.47-3.87 1.13-4.04 3.61-.08 1.26-.42 2.51-.78 3.73-.53 1.81-.09 3.1 1.31 4.49 4.45 4.43 5.8 10.47 7.86 16.12.25.68-.21 1.61-.36 2.43-.89 4.77-2.2 9.51-2.55 14.32-.34 4.6 1.7 6.69 6.09 7.95 3.46.99 6.9 2.05 10.4 2.89.83.2 2.27-.04 2.7-.62 2.11-2.87 3.97-5.92 5.9-8.89-4.34-2.96-4.75-6.95-3.9-10.96.94-4.43 2.24-8.85 3.95-13.04 3.26-8.02 6.92-15.88 10.1-23.09-4.12-5.31-8.35-10.17-11.88-15.5-2.94-4.44-3.84-9.43-.23-14.23.25-.33.38-.75.54-1.15.07-.18.08-.39.18-.96-3.6-1.06-3.07-4.04-2.93-6.91.26-5.4.38-10.81.76-16.2.08-1.1.81-2.34 1.59-3.18 2.17-2.31 4.63-4.36 6.79-6.68 3.33-3.57 7.41-5.08 12.56-5.06 1.46 6.58 2.78 13.2 4.46 19.73.74 2.88.33 4.7-2 6.82-5.08 4.63-5.92 11.98-2.76 18.1 3.62 6.99 8.26 13.07 15.07 17.25 2.3 1.41 2.91 3.68 2.73 6.05-.38 5.1-1.38 9.89-4.86 14.12-6.23 7.56-9.71 16.24-9.63 26.29.06 7.96-2.26 15.45-6.1 22.46.16.26.32.52.48.78 1.41-.54 3.04-.79 4.19-1.67 3.87-2.95 7.58-6.13 11.71-9.51 3 2.76 6.38 5.23 8.87 8.4 1.41 1.79 2.44 5.13 1.73 7.08-1.9 5.22-1.36 10.26-.33 15.33 1.38 6.78.72 13-3.66 18.59-.5.64-.73 1.48-1.16 2.39 3.26 2.52 6.43 4.95 9.8 7.55 6.07-6.32 11.86-12.65 17.99-18.63 6.43-6.27 12.94-12.53 19.94-18.15 3.26-2.62 7.69-3.83 11.7-5.41.76-.3 2.47.36 2.98 1.1 5.99 8.7 6.58 18.33 4.48 28.33-.16.78-.75 1.5-1.24 2.18-1.03 1.43-1.71 2.48-.29 4.42.81 1.11.32 3.73-.41 5.28-2.58 5.45-5.37 10.82-8.41 16.03-1.47 2.53-1.63 4.35.82 6.14.58.42.99 1.09 1.71 1.9-.75.88-1.47 1.74-2.22 2.58-6.62 7.45-13.19 14.95-19.92 22.3-1.28 1.4-3.07 2.6-4.86 3.24-10.96 3.93-21.97 7.73-33.02 11.41-2.18.73-3.63 1.9-3.87 4.05-.64 5.65-1.37 11.33-1.49 17-.17 8.14.2 16.28.26 24.43.01 1.14-.42 2.28-.65 3.42-.64 3.21-2.26 5.28-5.79 5.68-6.65.75-12.21 3.69-16.92 8.48-.76.77-2.73 1.03-3.85.65-2.78-.95-5.27-1.07-7.82.56-1.06.68-2.37.96-3.44 1.62-7.99 4.93-16.72 6.19-25.89 5.36-.74-.07-1.67.14-2.18-.23-6.51-4.7-13.95-3.25-20.91-2.51-10.65 1.12-20.6-1.6-30.7-3.77-1.16-.25-2.22-1.19-3.22-1.95-5.76-4.42-11.54-8.86-17.32-13.29zm106.01-98.68c-4.24.34-5.02.84-9.68 6.1-3.53 3.98-4.69 4.47-9.36 1.87-3.57-1.98-6.71-4.76-9.96-7.28-6.05-4.69-5.96-4.69-3.41-12.07.58-1.69 1.32-2.33 3.13-2.3 6.15.1 12.3.11 18.45 0 1.77-.03 2.71.54 3.33 2.16 1 2.6 2.19 5.12 2.97 6.94 4.29-1.67 8.01-3.34 11.87-4.56 3.41-1.08 7.02-1.52 10.47-2.51 1.22-.35 3.16-1.53 3.12-2.24-.1-1.83-.9-3.74-1.86-5.35-.56-.94-1.96-1.38-3.13-2.14 1.36-1.71 2.58-3.17 3.7-4.7.48-.66 1.26-1.61 1.07-2.16-.78-2.32-1.25-5.39-2.96-6.6-3.33-2.37-7.42-5.1-11.67-2.2-2.84 1.94-4.94 1.19-7.11-.41-1.86-1.37-3.58-3-5.15-4.7-4.34-4.67-9.36-8.09-15.51-10.06-6.14-1.97-12.22-4.21-18.12-6.81-5.24-2.31-10.27-2.42-15.93-1.64-12.49 1.72-25.13 2.77-37.17-2.76-.55-.25-1.25-.44-1.81-.32-4.85 1-9.68 2.07-13.66 2.94-1.12 4.27-2.32 7.86-2.92 11.54-.33 2.05.35 4.26.55 6.4.11 1.24.72 2.85.17 3.66-2.65 3.89-2.18 7.96-1.47 12.2.68 4.06 1.34 8.16 1.49 12.27.14 3.67-1.36 6.64-5 8.46-4.83 2.41-9.52 5.11-14.15 7.88-1.91 1.14-3.21 1.21-4.98-.33-3.58-3.14-7.6-5.8-11.07-9.05-2.79-2.61-5.48-2.59-8.56-1.19-.49 7.18-.26 7.71 3.77 8.9-3.03 3.86-3.26 4.82-.06 8.95 2.71 3.49 5.91 6.63 9.08 9.72 3.87 3.78 8.66 4.57 13.87 3.71 1.1-.18 2.49-.3 3.37.2 3.22 1.82 6.31.86 9.5.08 4.42-1.09 4.4-1.04 5.73 3.36 1.29 4.25 2.55 8.51 3.98 12.71.75 2.22 2.2 3.12 4.68 2.03 2.27-1 4.72-1.59 6.51-2.17 1.11 1.68 1.66 3.28 2.78 4.07 5.46 3.83 11.03 7.53 16.67 11.09 3.24 2.05 6.72 2.36 10.21.3 2.89-1.71 4.18-1.34 5.87 1.61.57 1 1.04 2.06 1.61 3.2.5-.43.91-.76 1.29-1.12 5.36-5.16 5.26-4.92 12.1-2.07 2.05.86 4.89.32 7.23-.2 1.61-.36 2.99-1.78 4.6-2.81.96 1.12 2.01 2.06 2.72 3.21 2.01 3.27 4.83 4.11 8.43 3.31 2.99-.67 6.04-1.12 9.04-1.77 4.69-1.02 9.34-1.91 14.05.01.66.27 1.66-.02 2.4-.32 4.78-1.9 6.37-4.85 5.45-9.98-1.56-8.67 1.77-13.54 10.47-15.22 1.45-.28 2.96-.25 4.41-.53 2.2-.42 4.75-.27 5.47-3.36.11-.49 1.54-.9 2.39-.96 5.18-.33 9.93-1.82 14.34-4.57 2.51-1.56 5.18-2.9 7.85-4.18.99-.48 2.36-.97 3.28-.65 4.04 1.41 6.59-.31 8.83-3.43 1.23-1.71 2.96-3.06 4.2-4.76 1.24-1.71 2.14-3.66 3.36-5.8-6.16 0-11.59-.46-16.88.21-2.38.3-4.56 2.73-6.65 4.42-.91.73-1.38 2.02-2.42 3.65-2.13-2.43-4.06-4.64-6.47-7.4-4.89 7.91-11.68 8.61-19.56 7.36-7.8-1.24-15.77-1.49-23.88-2.2.23-3.39.47-6.5.7-9.64zm-21.78 79.26c-.34-.14-.82-.2-1.08-.46-3.78-3.8-7.68-3.39-11.68-.39-.08.06-.21.07-.29.13-1.39 1.01-2.81 1.06-3.97-.23-4-4.46-8.04-3.83-12.17-.25-.08.07-.19.1-.27.17-1.47 1.23-2.91 1.21-4.64.33-3.87-1.96-7.94-3.53-11.73-5.61-3.07-1.69-5.84-2.09-8.71.12-1.69 1.31-3.19.85-4.92-.15-5.04-2.91-10.16-5.68-15.3-8.41-.83-.44-2.13-.89-2.81-.55-2.02 1.03-3.84 2.45-6.14 3.99 2.67 3.4 4.6 7.06 7.57 9.41 6.02 4.77 12.36 9.28 19.04 13.03 3.92 2.2 8.7 3.33 13.22 3.88 4.85.59 9.23.89 9.81 7.34 1.85-1.7 3.31-3.03 4.74-4.35.84.45 1.58.7 2.12 1.17 4.87 4.27 10 4.65 15.49 1.25 2.17-1.34 4.06-.79 6.09.67 1.41 1.01 3.69 2.35 4.91 1.86 10.2-4.09 20.28-8.5 30.31-13 2.53-1.14 2.75-7.22.52-8.87-2.28-1.69-4.64-3.27-6.99-4.93-2.16 1.38-4.29 2.74-6.33 4.04-9.43-6.09-11.29-6.11-16.79-.19z"/><path d="m154.19 255.01c-2.2-2.53-3.99-4.72-5.92-6.78-2.84-3.04-3.06-6.59-.47-9.83.53-.66 1.19-1.26 1.56-2 2.65-5.34 7.12-5.65 12.3-4.88 11.38 1.68 16.75 6.06 18.85 16.02-3.78 2.34-7.59 4.82-11.54 7.04-.73.41-2.22.05-3.06-.45-3.34-2.01-6.56-4.21-10.5-6.78 0 2.01-.41 3.58.09 4.74.9 2.07.07 2.66-1.31 2.92z"/></g></svg>