<svg enable-background="new 0 0 400 400" viewBox="0 0 400 400" xmlns="http://www.w3.org/2000/svg"><path d="m378.6 9.2.8-1c.9.7 1.9 1.4 2.9 2.3l-.9 1.1c-1.1-.9-2-1.7-2.8-2.4zm.5 10.7c.9-2.1 1.6-4.3 2.3-6.7.4.2.8.4 1.3.6-.7 2.1-1.5 4.3-2.2 6.6zm.4-15.2.9-.9c1 .8 2 1.6 2.8 2.4l-1 1c-1-.9-1.9-1.8-2.7-2.5zm12.5-1.3h1.2v1.4h2.7v1.1h-2.7v2.7h-1.2v-.5h-1.8v1.3h4.9v3.8h-1.2v-.5h-3.7c0 .4-.1.9-.1 1.2h5.1v1h-5.2c0 .5-.1.9-.2 1.2h6v1h-5.2c1.1 1.3 2.9 2 5.5 2.2-.4.4-.7.8-.9 1.3-2.9-.5-4.8-1.6-5.7-3.5h-.1c-.8 1.7-2.7 2.9-5.9 3.6-.2-.4-.6-.8-.9-1.1 2.8-.6 4.6-1.4 5.4-2.5h-4.8v-1h5.3c.1-.3.2-.7.2-1.2h-4.9v-1h5c0-.4 0-.8.1-1.2h-3.6v.5h-1.2v-3.8h4.9v-1.3h-1.8v.5h-1.2v-2.7h-2.6v-1.1h2.6v-1.4h1.2v1.4h4.7v-1.4zm-6.7 8.4h3.6c0-.4 0-.9 0-1.4h-3.6zm1.9-4.7h4.7v-1.2h-4.7zm6.7 3.3h-3.7v1.4h3.7z" fill="#fafbfc"/><path d="m384.7 21.4h1.3v2.2h2.8v-2.2h1.3v2.2h4.1v9.1h1.7v1.3h-16.9v-1.3h1.7v-9.1h4.1v-2.2zm.3 13.2.7 1.2c-1.8.9-3.8 1.9-6 2.9-.2-.4-.5-.8-.8-1.3 2.4-1 4.4-2 6.1-2.8zm-3.1-6.5h2.8v-3.2h-2.8zm0 4.6h2.8v-3.3h-2.8zm4.1-4.6h2.8v-3.2h-2.8zm0 4.6h2.8v-3.3h-2.8zm3.6 1.9c2.1.9 4.1 1.8 6.1 2.7l-.7 1.3c-2.2-1.1-4.2-2-6.1-2.9zm3.3-9.7h-2.8v3.2h2.8zm-2.8 7.8h2.8v-3.3h-2.8z" fill="#fafbfc"/><g fill="#010104"><path d="m128 147.6c-.87-4.42-2.42-8.83-2.47-13.26-.11-10.47.48-20.94.83-31.41.05-1.59.35-3.16.45-4.75.44-7.49 2.94-14.06 7.57-20.1 4.95-6.47 9.12-13.53 13.82-20.19 1.36-1.92 3.13-3.93 5.18-4.91 12.3-5.92 24.54-12.04 37.23-16.99 3.88-1.51 9.21-.02 13.71.89 16.89 3.44 24.21 14.1 23.23 32.11-.27 4.91-1.9 9.74-2.76 14.63-.54 3.09-1.14 6.23-1.11 9.34.1 9.1.51 18.2.8 27.24 4.96 1.29 5.44.93 8.47-2.63 3.07-3.61 6.34-7.1 9.9-10.22 1.7-1.49 4.26-2.01 6.71-3.08.69 2.76 1.48 4.88 1.66 7.04.09 1.12-.61 2.61-1.44 3.46-9.31 9.57-17.33 20.02-22.58 32.4-5.77 13.61-5.71 27.75-4.51 42.19.6 7.3-.62 14.74-.83 22.12-.05 1.91.35 3.93 1 5.73.82 2.28 2.15 4.36 3.19 6.57 1.81 3.84 3.92 7.25 7.47 9.98 2.61 2.01 4.18 5.37 6.21 8.13-.22.26-.43.52-.65.79-4.96-.8-9.95-1.45-14.86-2.46-2.46-.51-3.73.36-4.12 2.53-.48 2.67-.96 5.42-.87 8.11.16 4.49-.94 6.35-5.68 7.67-1.37-6.16-2.77-12.3-4.1-18.46-1.6-7.38-3.5-8.85-11.19-9.08-1.61-.05-3.19-.99-4.78-1.51.67-1.69 1.06-3.57 2.08-5.02 2.07-2.94 4.59-5.55 6.71-8.45 3.84-5.24 6.01-11.02 6.28-17.66.81-20.34 2.26-40.65 2.67-60.99.14-6.78-1.44-13.64-7.23-18.91-7.99-7.27-15.16-15.43-23.12-22.74-3.69-3.39-4.1-6.7-2.46-11.1 5.58.9 11.02 1.66 14.41 7.35 1.91 3.2 4.4 6.27 8.47 7.29 1.81.45 3.03.28 4.45-1.23 2.63-2.81 3.99-5.66 3.16-9.64-1.71-8.21.62-15.97 3.46-23.51 1.32-3.52.12-4.95-2.69-7.02-11.33-8.32-23.51-8.54-36.31-4.82-.78.23-1.59.61-2.2 1.13-5.36 4.66-10.66 9.39-16.02 14.05-8.85 7.7-13.13 17.55-14.56 29.08-1.54 12.39-3.58 24.73-5.7 37.03-.82 4.77-2.38 9.43-5.71 13.19-.38.02-.77.05-1.17.09z"/><path d="m164.41 238.43c6.27 3.77 7.93 8.81 8.04 14.42.14 7.09-.26 14.19-.11 21.29.07 3.47.94 6.91 1.28 10.39.21 2.11 1.23 3.48 3.23 3.73 6.28.8 12.57 1.68 18.88 2 1.69.08 3.42-1.86 5.23-2.64 1.57-.68 3.28-1.46 4.93-1.46 4.76 0 9.53.26 14.28.64 1.89.15 2.85-.59 3.86-2.02 3.19-4.53 4.4-9.63 4.28-15.02-.16-7 3.3-11.56 9.39-14.91 5.86 7.05 7.35 14.94 4.38 23.42-2.55 7.28-5.44 14.48-8.73 21.45-2.36 4.99-3.53 10.11-4.32 15.47-.38 2.55-1.35 5.06-2.39 7.45-1.18 2.71-2.82 5.21-4.09 7.89-4.11 8.7-9.45 16.44-16.39 23.2-2.03 1.97-3.12 5.24-3.87 8.11-1.22 4.63-6.83 6.2-10.18 4.37-2.4-1.31-5.1-2.05-7.52-3.32-1.11-.58-2.06-1.71-2.78-2.79-12.13-18.2-17.29-38.63-19.56-60.09-1.21-11.47-3.51-22.83-4.65-34.3-.53-5.38-.12-11.07 1.06-16.35.83-3.8 3.67-7.15 5.75-10.93zm12.3 69.87c.95 11.27 4.74 20.27 9.95 28.72.47.77 1.87 1.29 2.88 1.36 6.29.44 10.74-2.86 13.99-7.75 5.03-7.58 9.88-15.28 14.57-23.06 4.2-6.96 1.79-11.21-6.16-11.29-1.15-.01-2.31.17-3.44.38-3.95.74-7.87 1.63-11.83 2.29-5.86.98-11.66 2-16.84 5.22-2.04 1.28-3.49 2.71-3.12 4.13z"/><path d="m264.91 132.87c5.29 1.16 8.05 4.7 9.05 9.38 1.88 8.81 1.59 17.63-.94 26.33-.57 1.96-1.54 2.58-3.64 2.4-6.79-.57-7.39-.7-9.36-7.39-3.22-10.85-2.81-21.27 4.89-30.72z"/><path d="m160.26 163.24c-7.3-10.59-7.69-21.86-5.52-33.51.38-2.04 3.85-3.92 5.95-3.56 6.65 1.16 9.81 5.46 8.85 12.24-.91 6.38-2.05 12.73-2.89 19.12-.51 3.83-3.96 3.86-6.39 5.71z"/><path d="m121.99 240.96c-2.68.54-5.78 1.16-9.21 1.85-2.85-10.15-3.63-20.05 1.24-29.71.38-.76 1.75-1.48 2.63-1.46 6.52.19 9.18 3.35 8.29 9.81-.87 6.34-1.91 12.67-2.95 19.51z"/><path d="m114.76 306.23c4.16 2.54 5.48 6.21 6.08 10.12 1.27 8.25.56 16.46-1.36 24.54-.23.97-1.21 2.17-2.11 2.48-1.6.56-3.1.01-3.6-1.97-.76-3.06-2.01-6.07-2.24-9.17-.64-8.72 1.14-17.21 3.23-26z"/><path d="m275.89 239.03c4.96 2.22 7.53 5.67 8.43 10.06 1.69 8.29.92 16.47-2.71 24.43-1.87-11.28-3.74-22.57-5.72-34.49z"/></g></svg>