<svg enable-background="new 0 0 400 400" viewBox="0 0 400 400" xmlns="http://www.w3.org/2000/svg"><path d="m378.6 9.2.8-1c.9.7 1.9 1.4 2.9 2.3l-.9 1.1c-1.1-.9-2-1.7-2.8-2.4zm.5 10.7c.9-2.1 1.6-4.3 2.3-6.7.4.2.8.4 1.3.6-.7 2.1-1.5 4.3-2.2 6.6zm.4-15.2.9-.9c1 .8 2 1.6 2.8 2.4l-1 1c-1-.9-1.9-1.8-2.7-2.5zm12.5-1.3h1.2v1.4h2.7v1.1h-2.7v2.7h-1.2v-.5h-1.8v1.3h4.9v3.8h-1.2v-.5h-3.7c0 .4-.1.9-.1 1.2h5.1v1h-5.2c0 .5-.1.9-.2 1.2h6v1h-5.2c1.1 1.3 2.9 2 5.5 2.2-.4.4-.7.8-.9 1.3-2.9-.5-4.8-1.6-5.7-3.5h-.1c-.8 1.7-2.7 2.9-5.9 3.6-.2-.4-.6-.8-.9-1.1 2.8-.6 4.6-1.4 5.4-2.5h-4.8v-1h5.3c.1-.3.2-.7.2-1.2h-4.9v-1h5c0-.4 0-.8.1-1.2h-3.6v.5h-1.2v-3.8h4.9v-1.3h-1.8v.5h-1.2v-2.7h-2.6v-1.1h2.6v-1.4h1.2v1.4h4.7v-1.4zm-6.7 8.4h3.6c0-.4 0-.9 0-1.4h-3.6zm1.9-4.7h4.7v-1.2h-4.7zm6.7 3.3h-3.7v1.4h3.7z" fill="#fafbfc"/><path d="m384.7 21.4h1.3v2.2h2.8v-2.2h1.3v2.2h4.1v9.1h1.7v1.3h-16.9v-1.3h1.7v-9.1h4.1v-2.2zm.3 13.2.7 1.2c-1.8.9-3.8 1.9-6 2.9-.2-.4-.5-.8-.8-1.3 2.4-1 4.4-2 6.1-2.8zm-3.1-6.5h2.8v-3.2h-2.8zm0 4.6h2.8v-3.3h-2.8zm4.1-4.6h2.8v-3.2h-2.8zm0 4.6h2.8v-3.3h-2.8zm3.6 1.9c2.1.9 4.1 1.8 6.1 2.7l-.7 1.3c-2.2-1.1-4.2-2-6.1-2.9zm3.3-9.7h-2.8v3.2h2.8zm-2.8 7.8h2.8v-3.3h-2.8z" fill="#fafbfc"/><g fill="#010104"><path d="m291.53 123.06c-3.42.74-5.32.42-7.27-1.53-5.53-5.54-11.43-10.71-17.02-16.19-7.28-7.13-14.88-13.83-23.93-19.19-.53 1.33-1.01 2.47-1.46 3.63-1.16 3.03-2.47 6.03-3.39 9.14-.38 1.29-.48 3.3.25 4.17 3.45 4.09 7.75 7.37 10.15 12.48.88 1.87 4.12 2.48 5.88 4.11 6.7 6.19 15.03 6.39 23.34 6.65 1.54.05 3.11-.78 4.66-.76 1.69.02 3.38.55 4.99 1.26-9.95 5.15-20.05 8.08-30.44 2.52-4.52-2.42-8.75-5.63-12.58-9.06-3.43-3.08-6.08-7.01-9.18-10.47-1.18-1.32-2.46-2.81-4.01-3.46-3.62-1.52-7.15.99-6.46 4.82 1.17 6.51 2.99 12.9 4.52 19.35.46 1.95.73 3.97 1.38 5.85.26.76 1.25 1.63 2.03 1.78 3.69.71 7.67.56 11.09 1.89 7.05 2.72 13.86 6.08 20.64 9.42 1.45.72 2.39 2.48 3.26 4.15-6.15 1.45-11.15-1.15-16.36-2.96-5.16-1.79-10.45-3.21-15.69-4.79-1.8 5.55 1.15 11.33 6.77 12.31 5.02.88 8.3 4.47 12.36 6.85 3.15 1.84 6.54 3.27 9.8 4.93 1.26.64 2.45 1.39 4.09 2.32-3.58 2.72-6.95 3.2-10.3 1.57-4.88-2.38-10.39-3.83-13.8-8.62-.37-.51-1.19-.71-1.97-1.15-.18.64-.45 1.07-.37 1.4.86 3.42.97 7.39 2.86 10.11 3.41 4.9 3.02 9.89 1.63 14.81-2.01 7.1-4.97 13.93-7.23 20.97-1.67 5.19-3.6 10.46-4.04 15.82-.42 5.04.62 10.29 1.62 15.34 1.89 9.54 4.01 19.06 6.46 28.47.97 3.71 3.23 7.08 4.66 10.7.68 1.71 1.11 3.65 1.11 5.48-.04 10.09-6.31 16.98-12.71 23.65-3.59 3.74-7.53 7.15-11.52 10.46-3.21 2.66-4.21 5.97-4.5 9.95-.7 9.83-1.63 19.65-2.61 29.45-.18 1.74-1.09 3.4-1.67 5.1-.45-.07-.9-.15-1.36-.22 0-2.85-.09-5.71.02-8.56.16-4.1.36-8.21.75-12.3.26-2.7.8-5.39 1.38-8.05.55-2.52.81-4.85-1.83-6.48-8.57 5.68-17.13 11.34-25.69 17.01-.26-.16-.52-.31-.78-.47.41-.81.64-1.81 1.26-2.41 3.68-3.63 7.45-7.17 11.2-10.73.45-.43.95-.98 1.5-1.09 5.29-1.04 7.74-5.57 11.4-9.01-2.11-1.7-4.08-2.25-6.74-1.91-3.05.39-6.22-.07-9.33-.26-2.94-.18-5.88-.49-8.82-.71-3.38-.25-6.78-.29-10.13-.77-1.6-.23-3.09-1.28-4.51-2.41 4.76-1.8 9.35-2.54 14.27-1.54 2.96.6 6.1.22 9.15.4 5.03.3 10.05.91 15.08.98 4.26.06 8.83.7 11.99-3.51.99-1.32 2.29-2.85 3.75-3.29 8.07-2.44 10.6-9.16 12.81-16.11.58-1.82.44-3.88.67-6.21-2.09 0-3.65.06-5.21-.01-4.44-.2-8.88-.6-13.32-.64-3.85-.03-7.69.37-11.54.49-3.07.1-6.13.05-9.2.08-2.36.03-3.97.8-4.37 3.51-.15 1.04-1.32 1.93-2.02 2.89-.8-.74-1.95-1.33-2.35-2.24-1.92-4.45-5.59-5.83-9.97-5.92-14.63-.28-28.45-4.8-42.53-8.03-1.68-.38-3.48-.18-5.2-.42-.96-.13-2.19-.32-2.74-.96-2.85-3.29-6.73-2.96-10.67-3.57-.98 9-1.4 17.93-6.8 26.12-3.25-6.46-2.87-19.73-.55-21.68-.1-2.77-.3-4.91-.24-7.05.14-5.13.22-10.28.65-15.39.38-4.52 1.19-9.01 1.81-13.52.32-.16.65-.32.97-.49.93 1.42 2.42 2.73 2.68 4.26.96 5.61 1.62 11.28 2.15 16.95.21 2.22.26 4.06 3.21 3.8.47-.04 1.15.18 1.43.52 2.4 2.95 5.9 2.95 9.19 3.62 2.07.42 4.12.98 6.12 1.64 8.04 2.68 15.89 5.71 24.65 5.83 5.82.08 11.61 1.7 17.43 2.47.63.08 1.95-.91 2.01-1.5.19-1.87.26-3.86-.18-5.67-3.79-15.36-6.15-30.95-7.71-46.66-.26-2.62-.02-5.29-.12-7.94-.13-3.49-.39-6.97-.52-10.45-.15-3.94-1.41-7.77.16-11.89.81-2.12-.53-4.98-.53-7.5-.01-4.08.25-8.17.46-12.25.15-2.93.4-5.85.63-8.78.21-2.71.52-5.42.63-8.14.08-2.06.41-4.32-.31-6.13-.5-1.26-2.57-2.69-3.94-2.7-17.06-.1-33.69-3.48-50.38-6.33-2.34-.4-4.58-1.57-6.8-2.54-4.91-2.15-7.45-.87-8.32 4.36-.74 4.47-1.31 8.98-2.16 13.43-.17.89-1.26 1.59-1.93 2.38-.72-.76-1.91-1.43-2.07-2.29-.53-2.89-1.15-5.89-.89-8.78.69-7.59 1.81-15.14 2.8-22.71.12-.91.45-1.8 1.31-2.85.79 2.09 1.62 4.18 2.37 6.28 1.35 3.75 4.76 5.98 8.69 6 2.39.01 4.85.23 7.17.81 7.97 1.99 16.09 2.89 24.24 3.78 4.5.49 9.17.28 13.44.94 5.53.85 10.91.75 16.36.76 4.44 0 8.88-.49 13.32-.75 1.59-.09 3.24-.5 4.75-.19 6.72 1.35 13.16-.51 19.66-1.54 1.69-.27 3.43-1.11 4.83-2.13 1.65-1.2 2.21-2.72.68-4.84-3.44-4.76-3.25-10.62-4.25-16.11-.51-2.8-.9-5.62-1.4-8.79-1.59.39-3.2.39-4.32 1.13-6.15 4.06-13.12 4.28-20.07 4.42-5.47.11-11.02.33-16.41-.39-4.56-.61-8.95-2.48-13.4-3.85-.68-.21-1.46-.59-1.87-1.13-3.4-4.55-8.57-7.82-10.04-13.81-.19-.79-1.04-1.54-1.76-2.06-1.71-1.25-3.57-2.29-5.28-3.54-2.61-1.9-5.2-3.28-8.71-2.96-1.94.17-4.02-1.05-6.01-1.74-3.38-1.17-6.76-2.35-10.08-3.67-1.1-.44-2.4-1.09-2.96-2.03-1.55-2.63-3.06-5.35-4.04-8.22-2.76-8.05-5.25-16.19-7.93-24.57.9.44 2.32.86 3.41 1.7 3.6 2.76 6.98 5.87 11.9 6.34 1.39-3.31-.05-6.07-1.15-8.91-1.39-3.59-2.64-7.23-3.95-10.86.3-.3.6-.59.89-.89 1.22.28 2.8.17 3.61.9 7.91 7.17 17.72 9.64 27.8 11.2 9.94 1.54 19.99 2.38 29.94 3.89 3.66.55 7.11 2.3 10.73 3.24 3.91 1.01 7.98 1.46 11.86 2.6 14.92 4.37 29.5 9.55 42.29 18.79 6.52 4.71 13.23 9.14 19.86 13.69.7.48 1.69.83 2.02 1.5 2.09 4.25 6.04 6.68 9.17 9.92 5.13 5.29 9.74 11.09 14.43 16.8 1.31 1.59 2.13 3.63 3.41 5.89zm-97.56 27.79c-.02-.1-.04-.2-.05-.3-.53 0-1.12-.15-1.58.03-1.73.66-4.74 1.2-4.91 2.18-1.21 7.19-2.53 14.48-2.51 21.73.02 12.07.82 24.15 1.65 36.2.5 7.22-1.43 14.64 1.7 21.66.23.52-.12 1.26-.06 1.88.29 2.77.58 5.55.99 8.31.26 1.76.87 3.48 1.1 5.24 1.39 10.34 2.43 20.74 6.54 30.51.86 2.03 1.99 3.09 4.15 3.23 1.8.12 3.6.44 5.4.56 8.66.54 17.33 1.47 25.98 1.41 7.37-.06 9.91-2.88 7.42-10.65-1.65-5.14-3.62-10.18-5.1-15.36-.65-2.27.3-5.18-.74-7.11-2.73-5.08-2.69-10.31-2.36-15.75.34-5.57-.08-11.22.76-16.7.57-3.74 2.99-7.17 4.08-10.88 1.7-5.77 3.09-11.64 4.39-17.52 1.04-4.68 1.35-9.28-.88-13.95-3.86-8.11-7.28-16.44-10.91-24.66-.6-1.35-1.34-2.64-2.07-3.92-.93-1.63-2.19-2-4-1.26-1.94.79-3.97 1.53-6.04 1.85-5.67.89-11.38 1.53-17.07 2.31-1.96.26-3.92.63-5.88.96zm-66.44-104.47c.18 1.55.23 2.69.47 3.8.62 2.89 1.56 5.74 1.92 8.65.37 3.03-1.82 4.41-4.37 2.69-2.81-1.89-5.32-1.12-8.35-.16 2.68 6.1 5.2 12.03 7.94 17.84.45.96 1.83 1.68 2.94 2.1 2.12.81 4.59.66 6.61 1.25 6.99 2.03 13.9 4.52 20.55 7.5 2.54 1.14 5.21 3.69 6.22 6.23 2.78 7.01 7.56 10.56 14.82 12.15 11.3 2.46 22.29 3.2 32.9-2.6.01.08.05-.19-.07-.31-7.19-7.45-7.01-16.97-7.36-26.33-.02-.49.29-1 .45-1.5.93-2.9 1.72-5.85 2.83-8.67 1.07-2.74-.26-3.94-2.51-4.78-4.35-1.63-8.89-2.88-13-4.97-4.49-2.27-10.26 2.52-13.95-2.88-6.36.71-11.6-3.51-18.09-3.61-7.57-.11-15.11-2.86-22.64-4.52-2.35-.5-4.65-1.18-7.31-1.88zm80.34 30.96c.38 4.9.6 8.29.92 11.66.52 5.5 6.2 7.13 8.55 11.27.04.06.2.04.3.08 6.27 2.81 11.2-.85 16.31-3.45.45-.23.83-1.06.84-1.62.03-4.31.02-8.63-.13-12.94-.03-.84-.49-2.07-1.14-2.43-6.84-3.76-13.73-7.44-20.71-10.94-.69-.35-2.75.39-2.99 1.05-1 2.82-1.56 5.78-1.95 7.32z"/><path d="m178.15 354.89c1.2-3.37 4.84-4.36 7.02-7.08.69.82 1.14 1.35 1.87 2.23-2.72 2.08-5.28 4.05-7.85 6.02-.33-.39-.69-.78-1.04-1.17z"/></g></svg>