<svg enable-background="new 0 0 400 400" viewBox="0 0 400 400" xmlns="http://www.w3.org/2000/svg"><path d="m288.42 365.79c-2.6-13.4-5.19-26.8-7.79-40.2-.06-.31-.07-.64-.15-.94-.85-3-.9-6.71-2.75-8.85-3.6-4.14-8.86-6.05-14.35-6.8-7.55-1.02-15.32-1.16-22.65-3.04-11.26-2.88-22.23-6.88-33.3-10.49-7.95-2.59-15.79-5.53-23.81-7.91-11.03-3.27-21.51-7.63-31.19-13.92-1.23-.8-3.24-1.03-4.71-.7-7.65 1.68-15.26 3.56-22.84 5.54-1.14.3-2.58 1.31-2.97 2.34-2.19 5.83-4.38 11.68-6.03 17.68-1.78 6.46-5.65 10.65-12.36 13.46 0-4.55-.15-8.62.05-12.67.14-2.67-.43-4.8-2.72-6.28-2.62-1.69-3.05-4.12-3.03-7.09.11-22.48.06-44.97.06-67.45 0-1.25 0-2.51 0-3.7 5.18-1.17 5.34-1.1 7.35 3.39 4.58 10.24 9.21 20.47 13.68 30.76.85 1.95 1.73 2.39 3.81 1.9 4.87-1.15 9.35-2.63 13.43-5.91 3.29-2.64 7.62-3.99 11.53-5.84 1.04-.49 2.21-.73 3.33-1.05 6.09-1.72 10.73-4.76 11.48-11.77.42-3.95 2.82-6.61 6.22-8.6 11.76-6.85 20.82-16.36 28.09-27.86 4.98-7.87 10.93-15.12 16.2-22.81 5.14-7.51 11.28-14.03 18.34-19.71 4.19-3.37 7.11-7.45 8.21-12.82.57-2.78-.09-4.82-1.73-7.25-3.05-4.51-6.48-6.11-11.58-3.93-3.61 1.54-6.94 1.1-9.82-1.77-2.49-2.48-5.49-3.03-8.73-1.89-2.55.9-4.25.12-5.49-2.16-.4-.73-1.13-1.3-1.52-2.03-2.53-4.82-5.95-7.34-11.66-5.12-.96.37-2.51-.22-3.57-.79-11.67-6.24-23.17-12.82-35-18.73-5.42-2.71-11.45-4.26-17.27-6.12-2.92-.93-5.33-.21-7.46 2.48-3.33 4.2-7.18 7.99-11.24 12.42-1.53-6.98-2.91-13.37-4.34-19.74-.81-3.59-1.35-6.83.92-10.47 2.63-4.21 1.89-9.19.57-13.91-2.03-7.21-1.06-14.03 2.83-20.67 4.42.78 7.66 3.21 9.64 7.02 1.7 3.27 2.94 6.79 4.2 10.26 2.12 5.83 5.46 10.75 10.54 14.36 1.26.89 2.73 1.72 4.22 2.02 20.27 4.08 38.01 13.49 54.36 25.78 10.83 8.14 22.79 13.36 36.34 14.69.84.08 1.69.19 2.53.24.31.02.62-.08 1.17-.15 2.74-7.6 2.59-15.49 2.2-23.45-.21-4.31-.2-8.68.29-12.96.22-1.91 1.53-3.99 2.93-5.41 2.8-2.84 5.1-2.35 7.4.84 2.24 3.12 4.15 6.2 4.1 10.35-.16 13.12 3 25.85 4.86 38.73 2.73 18.81 4.88 37.66 2.23 56.68-.52 3.77-1.2 7.53-1.98 11.26-.16.77-.94 1.62-1.66 2.03-1.54.88-3.24 1.5-4.94 2.26-.28-.44-.56-.77-.72-1.15-4.38-10.53-11.32-13.73-22.09-9.81-2.23.81-4.52 2.4-5.99 4.26-11.6 14.62-22.99 29.4-34.5 44.08-1.29 1.64-2.87 3.1-4.51 4.4-4.97 3.97-10.1 7.73-15.04 11.73-6.07 4.92-9.35 11.34-9.78 19.54 6.02 2.03 12.01 4.04 18 6.07 19.25 6.51 38.41 13.31 57.79 19.43 11.19 3.53 22.69 6.14 34.15 8.7 1.62.36 3.84-1.92 6.76-3.52-6.57-3.37-5.85-7.64-4.46-12.55.83-2.94.24-6.29.22-9.46-.01-1.16-.29-2.32-.34-3.48-.11-2.51-.05-5.03 2.81-6.11 2.41-.91 5.98.4 7.57 2.67 4.39 6.28 6.94 13.38 8.3 20.81 1.68 9.16 2.84 18.42 4.12 27.65.57 4.11.47 8.1-4.27 10.56 6.89 7.65 6.94 16.87 7.09 25.96.04 2.36-1.07 4.78-1.9 7.09-.78 2.18-1.68 4.36-2.89 6.33-.94 1.53-2.43 2.72-3.67 4.06-.36-.29-.74-.54-1.12-.79z" fill="#010000"/><g fill="#fafafb"><path d="m361.2 9.6.8-1c.9.7 1.9 1.4 2.9 2.3l-.9 1.1c-1-1-2-1.8-2.8-2.4zm.5 10.6c.9-2.1 1.6-4.3 2.3-6.7.4.2.8.4 1.3.6-.7 2.1-1.5 4.3-2.2 6.6zm.4-15.2.9-.9c1 .8 2 1.6 2.8 2.4l-1 1c-.9-.9-1.8-1.7-2.7-2.5zm12.5-1.2h1.2v1.4h2.7v1.1h-2.7v2.7h-1.2v-.6h-1.8v1.3h4.9v3.8h-1.2v-.5h-3.7c0 .4-.1.9-.1 1.2h5.1v1h-5.2c0 .5-.1.9-.2 1.2h6v1h-5.2c1.1 1.3 2.9 2 5.5 2.2-.4.4-.7.8-.9 1.3-2.9-.5-4.8-1.6-5.7-3.5h-.1c-.8 1.7-2.7 2.9-5.9 3.6-.2-.4-.6-.8-.9-1.1 2.8-.6 4.6-1.4 5.4-2.5h-4.8v-1h5.3c.1-.3.2-.7.2-1.2h-4.9v-1h5c0-.4 0-.8.1-1.2h-3.5v.5h-1.2v-3.8h4.9v-1.3h-1.8v.5h-1.2v-2.7h-2.7v-1h2.6v-1.4h1.2v1.4h4.7v-1.4zm-6.6 8.3h3.6c0-.4 0-.9 0-1.4h-3.6zm1.9-4.6h4.7v-1.3h-4.7zm6.6 3.2h-3.7v1.4h3.7z"/><path d="m385.3 3.8h1.3v2.2h2.8v-2.2h1.3v2.2h4.1v9.1h1.7v1.3h-16.9v-1.3h1.7v-9.1h4.1v-2.2zm.4 13.1.7 1.2c-1.8.9-3.8 1.9-6 2.9-.2-.4-.5-.8-.8-1.3 2.3-1 4.3-1.9 6.1-2.8zm-3.1-6.4h2.8v-3.2h-2.8zm0 4.6h2.8v-3.3h-2.8zm4-4.6h2.8v-3.2h-2.8zm0 4.6h2.8v-3.3h-2.8zm3.7 1.9c2.1.9 4.1 1.8 6.1 2.7l-.7 1.3c-2.2-1.1-4.2-2-6.1-2.9zm3.2-9.7h-2.8v3.2h2.8zm-2.8 7.8h2.8v-3.3h-2.8z"/></g></svg>