<svg enable-background="new 0 0 400 400" viewBox="0 0 400 400" xmlns="http://www.w3.org/2000/svg"><g fill="#010000"><path d="m290.37 245.05c-14.62-.73-28.67-1.69-42.74-2-5.11-.11-10.25 1.35-15.39 2.07-3.97.55-7.78.26-11.43-1.7-.76-.41-2.14-.11-3.05.28-7.22 3.13-17.45 4.52-25.74-2 5.37-1.31 10.57-2.58 15.78-3.84 3.96-.96 5.49-2.47 5.43-6.5-.05-3.25-.6-6.53-1.23-9.73-1.72-8.71-.32-17.26.7-25.9.79-6.69.74-13.48 1.14-20.22.14-2.27-1.01-3.43-3.03-3.66-3.46-.39-6.94-.55-10.42-.82-5.14-.41-10.28-.83-15.42-1.26-.53-.04-1.08-.34-1.56-.24-9.86 2.14-19.92 1.04-29.85 1.95-8.43.77-16.81 2.09-25.2 3.19-4.37.57-5.91-.32-7.89-4.88.66.03 1.29-.1 1.75.12 2.93 1.35 5.37 1.4 7.1-1.94.3-.59 1.63-.98 2.45-.92 9.74.68 19.14-1.52 28.67-2.99 4.94-.76 10.1-.03 15.16-.17 10.69-.28 21.37-.74 32.05-1 2.03-.05 4.08.45 6.12.68.4.04.91.18 1.2 0 5.47-3.43 11.4-.99 17.1-1.35 3.26-.21 6.57-.21 9.78-.77 3.64-.63 4.38-2.87 2.22-5.9-4.81-6.73-9.76-13.35-14.47-20.14-6.31-9.11-12.14-18.57-15.69-29.1-2.37-7.02-7.42-12.24-10.79-18.54-1.88-3.53-4.39-6.74-6.79-9.96-.96-1.29-2.39-2.24-4.23-3.9-2.28 4.24-4.33 7.89-6.21 11.63-1.47 2.92-2.67 5.98-4.08 8.94-.4.85-.92 1.94-1.67 2.27-3.86 1.67-4.7 5.29-5.62 8.69-2.79 10.28-8.37 19.17-13.71 28.17-1.1 1.85-2.9 3.37-4.58 4.8-3.19 2.72-5.97 5.72-7.39 9.74-1.36 3.84-4.26 5.85-8.28 7.13-.05-.87-.34-1.73-.1-2.4 2.91-7.93 5.74-15.9 8.91-23.73 3.22-7.94 6.75-15.76 10.21-23.61 3.47-7.84 6.87-15.72 10.59-23.44 2.59-5.38 6.3-9.98 7.33-16.36.95-5.92 4.05-11.54 6.52-17.16 2.02-4.61 4.51-9.01 6.8-13.51 3.37 1.15 5.48 2.98 5.67 5.79 1.09 16.02 9.25 29.29 16.38 42.96 8.47 16.24 16.71 32.61 25.62 48.61 5.73 10.29 12.5 20 18.77 30 .79 1.27 1.4 2.65 1.99 3.78-9.37 1.03-18.27 2.06-27.19 2.96-2.3.23-4.64.12-6.96.03-5.57-.21-8.03 2.37-7.38 7.66.87 7.14 2.04 14.28 2.3 21.46.19 5.34-.85 10.72-1.35 16.08-.01.1-.08.22-.06.31 1.68 6.02-1.37 11.44-2.11 17.16-.62 4.79.61 6 5.59 5.88 5.93-.14 11.88-.23 17.78-.79 11.76-1.11 23.46-.92 35.2.26 4.52.45 9.1.3 13.65.51 1.36.06 2.74.32 4.07.64 4.18 1.02 4.23 1.35 4.03 5.61-.34 7.27-1.13 14.61 1.95 21.6.3.69.06 1.66-.06 2.47-.36 2.48-1.23 5.05 1.5 6.86.15.1.29.36.29.55-.03 4.78 1.13 9.66-1.16 14.71 2.75 2.44 1.97 5.75 1.71 9.34-.44 6.2.06 12.46.17 18.69.01.85.31 1.77.07 2.52-2.62 8.08-1.15 16.41-1.6 24.62-.09 1.61-.75 3.2-1.14 4.79-.85 3.49-1.7 6.97-2.56 10.46-.29 1.18-.59 2.36-1.33 3.46-.07-.39-.22-.79-.19-1.18.78-9.45-1.48-18.52-3.43-27.63-.22-1.02-.73-2.4-.29-3.09 3.63-5.71.53-11.56.56-17.33.02-4.09.19-8.19.1-12.28-.16-7.17-.57-14.34-.7-21.51-.19-10.6-.23-21.2-.33-31.8-.02-1.28-.01-2.53-.01-4.18z"/><path d="m177.36 270.08c2.47 3.6 5.15 6.89 5.27 11.88.19 7.55 1.1 15.09 1.71 22.63.26 3.23 1.72 4.92 5.25 4.72 4.94-.29 9.91-.52 14.86-.34 7.7.28 15.4.87 23.09 1.43 3.22.23 7.68-3.09 8.03-6.32 1.27-11.9 2.5-23.8 3.75-35.7.12-1.14.31-2.26.52-3.8 4.19 2.82 7.49 5.78 8.65 10.5.16.65.25 1.86-.04 2.01-2.89 1.48-1.79 3.79-1.65 6.08.1 1.55-.67 3.15-1.05 4.72-.24.98-.66 1.95-.73 2.95-.29 4.39-.58 8.78-.66 13.18-.06 3.13.25 6.26.35 9.39.19 5.49.57 10.98.7 16.45.12 4.89-3.08 8.9-6.95 11.99-2.7 2.16-4.69 1.17-6.21-2.37-2.11.48-4.03.94-5.97 1.33-.61.12-1.31-.11-1.9.06-12.9 3.72-26.14.49-39.15 1.94-3.95.44-7.39-.65-9.34-4.46-.75-1.47-1.47-3.08-1.64-4.69-.71-7.04-.85-14.16-1.85-21.16-1.6-11.14-.06-21.95 2.25-32.77.67-3.16 1.25-6.33 1.87-9.5zm5.68 58.85c-.31.11-.62.22-.93.34 1.11 1.92 2.13 3.9 3.39 5.72.52.76 1.53 1.59 2.37 1.65 6.21.4 12.43.79 18.65.83 6.84.04 13.68-.3 20.51-.49.41-.01.84-.05 1.23-.17 6.36-2.07 10.33-8.91 8.47-15.42-.52-1.81-2.45-3.52-4.15-4.6-1.29-.82-3.26-.63-4.94-.77-7.16-.6-14.32-1.15-21.48-1.71-.73-.06-1.49-.18-2.19-.03-5.55 1.15-11.06 2.46-16.62 3.52-5.37 1.01-5.72 1.61-4.1 6.93.38 1.25-.12 2.79-.21 4.2z"/><path d="m99.87 310.52c1.06-8.37-1.22-16.2-3.56-24.03-.18-.6-.45-1.41-.2-1.85 2.06-3.53.22-6.24-1.33-9.33-.81-1.62-.2-4.04.07-6.05.13-.98.94-1.87 1.45-2.8 3.13-5.72 3.13-5.72-1.19-10.4-2.4-2.59-2.14-4.26 1.15-5.1 7.66-1.94 15.28-4.41 23.39-3.27.41.06.88.14 1.26.02 8.18-2.57 16.61-1.23 24.92-1.76 6.37-.41 12.62-2.48 18.99-3.32 6.7-.88 13.47-1.44 20.22-1.52 1.55-.02 3.13 2.52 5.12 4.25-6.49 2.78-12.52 3.22-18.6 3.56-2.58.14-5.11.96-7.68 1.39-3.19.54-6.38 1.1-9.59 1.46-8.28.93-16.58 1.7-24.86 2.62-6.31.7-12.61 1.53-18.92 2.31-.53.06-1.06.1-1.58.2-6.03 1.07-5.77 1.29-5.46 7.31.61 12.05.97 24.13.81 36.19-.04 3.46-2.21 6.89-3.4 10.34-.34-.07-.67-.14-1.01-.22z"/><path d="m168.69 206.34c-1.6-7.93 1.24-15.02 1.25-22.47 4.32 3.83 4.9 8.28 1.87 12.76 2.18 4.69 1.71 6.54-3.12 9.71z"/><path d="m168.76 229.96c-.28-6.35-.7-12.69-.71-19.04 0-1.08 1.67-2.91 2.74-3.05 1.62-.21 2.7 1.09 2.4 3.19-.81 5.66-1.39 11.36-2.18 17.02-.11.8-.84 1.52-1.29 2.27-.32-.13-.64-.26-.96-.39z"/></g><path d="m361.2 9.6.8-1c.9.7 1.9 1.4 2.9 2.3l-.9 1.1c-1-1-2-1.8-2.8-2.4zm.5 10.6c.9-2.1 1.6-4.3 2.3-6.7.4.2.8.4 1.3.6-.7 2.1-1.5 4.3-2.2 6.6zm.4-15.2.9-.9c1 .8 2 1.6 2.8 2.4l-1 1c-.9-.9-1.8-1.7-2.7-2.5zm12.5-1.2h1.2v1.4h2.7v1.1h-2.7v2.7h-1.2v-.6h-1.8v1.3h4.9v3.8h-1.2v-.5h-3.7c0 .4-.1.9-.1 1.2h5.1v1h-5.2c0 .5-.1.9-.2 1.2h6v1h-5.2c1.1 1.3 2.9 2 5.5 2.2-.4.4-.7.8-.9 1.3-2.9-.5-4.8-1.6-5.7-3.5h-.1c-.8 1.7-2.7 2.9-5.9 3.6-.2-.4-.6-.8-.9-1.1 2.8-.6 4.6-1.4 5.4-2.5h-4.8v-1h5.3c.1-.3.2-.7.2-1.2h-4.9v-1h5c0-.4 0-.8.1-1.2h-3.5v.5h-1.2v-3.8h4.9v-1.3h-1.8v.5h-1.2v-2.7h-2.7v-1h2.6v-1.4h1.2v1.4h4.7v-1.4zm-6.6 8.3h3.6c0-.4 0-.9 0-1.4h-3.6zm1.9-4.6h4.7v-1.3h-4.7zm6.6 3.2h-3.7v1.4h3.7z" fill="#fafafb"/><path d="m385.3 3.8h1.3v2.2h2.8v-2.2h1.3v2.2h4.1v9.1h1.7v1.3h-16.9v-1.3h1.7v-9.1h4.1v-2.2zm.4 13.1.7 1.2c-1.8.9-3.8 1.9-6 2.9-.2-.4-.5-.8-.8-1.3 2.3-1 4.3-1.9 6.1-2.8zm-3.1-6.4h2.8v-3.2h-2.8zm0 4.6h2.8v-3.3h-2.8zm4-4.6h2.8v-3.2h-2.8zm0 4.6h2.8v-3.3h-2.8zm3.7 1.9c2.1.9 4.1 1.8 6.1 2.7l-.7 1.3c-2.2-1.1-4.2-2-6.1-2.9zm3.2-9.7h-2.8v3.2h2.8zm-2.8 7.8h2.8v-3.3h-2.8z" fill="#fafafb"/></svg>