<svg enable-background="new 0 0 400 400" viewBox="0 0 400 400" xmlns="http://www.w3.org/2000/svg"><path d="m378.6 9.2.8-1c.9.7 1.9 1.4 2.9 2.3l-.9 1.1c-1.1-.9-2-1.7-2.8-2.4zm.5 10.7c.9-2.1 1.6-4.3 2.3-6.7.4.2.8.4 1.3.6-.7 2.1-1.5 4.3-2.2 6.6zm.4-15.2.9-.9c1 .8 2 1.6 2.8 2.4l-1 1c-1-.9-1.9-1.8-2.7-2.5zm12.5-1.3h1.2v1.4h2.7v1.1h-2.7v2.7h-1.2v-.5h-1.8v1.3h4.9v3.8h-1.2v-.5h-3.7c0 .4-.1.9-.1 1.2h5.1v1h-5.2c0 .5-.1.9-.2 1.2h6v1h-5.2c1.1 1.3 2.9 2 5.5 2.2-.4.4-.7.8-.9 1.3-2.9-.5-4.8-1.6-5.7-3.5h-.1c-.8 1.7-2.7 2.9-5.9 3.6-.2-.4-.6-.8-.9-1.1 2.8-.6 4.6-1.4 5.4-2.5h-4.8v-1h5.3c.1-.3.2-.7.2-1.2h-4.9v-1h5c0-.4 0-.8.1-1.2h-3.6v.5h-1.2v-3.8h4.9v-1.3h-1.8v.5h-1.2v-2.7h-2.6v-1.1h2.6v-1.4h1.2v1.4h4.7v-1.4zm-6.7 8.4h3.6c0-.4 0-.9 0-1.4h-3.6zm1.9-4.7h4.7v-1.2h-4.7zm6.7 3.3h-3.7v1.4h3.7z" fill="#fafbfc"/><path d="m384.7 21.4h1.3v2.2h2.8v-2.2h1.3v2.2h4.1v9.1h1.7v1.3h-16.9v-1.3h1.7v-9.1h4.1v-2.2zm.3 13.2.7 1.2c-1.8.9-3.8 1.9-6 2.9-.2-.4-.5-.8-.8-1.3 2.4-1 4.4-2 6.1-2.8zm-3.1-6.5h2.8v-3.2h-2.8zm0 4.6h2.8v-3.3h-2.8zm4.1-4.6h2.8v-3.2h-2.8zm0 4.6h2.8v-3.3h-2.8zm3.6 1.9c2.1.9 4.1 1.8 6.1 2.7l-.7 1.3c-2.2-1.1-4.2-2-6.1-2.9zm3.3-9.7h-2.8v3.2h2.8zm-2.8 7.8h2.8v-3.3h-2.8z" fill="#fafbfc"/><path d="m208.38 365.19c0-6.31-.08-12.62.02-18.92.21-12.78.34-25.57.86-38.34.26-6.39 2.28-12.83 1.71-19.08-.62-6.78 3.19-12.64 2.4-19.32-.25-2.12 1.42-4.52 2.39-6.72 1.92-4.33 4.32-8.42 3.97-13.51-.1-1.44 1.62-2.96 2.36-4.51 1.28-2.7 2.5-5.44 3.64-8.21.46-1.11.29-2.61.98-3.47 3.54-4.4 5.27-9.74 5.52-14.99.3-6.23-1.59-12.37-5.87-17.91-1.26 1.93-2.34 3.37-3.21 4.92-7.57 13.46-19.9 18.68-34.5 19.85-3.26.26-6.55.06-9.83.05-7.68-.03-12.87-4.04-16.53-10.44-1.05-1.84-1.9-3.82-3.15-5.51-1.77-2.39-3.97-1.89-6.08.1-5.95 5.61-11.24 12.04-18.75 15.81-2.64 1.33-5.21 2.84-7.93 3.98-.99.41-2.34-.02-3.52-.07.39-.99.71-2 1.17-2.95 1.86-3.89 5.4-5.92 8.67-8.48 6.12-4.78 12.48-9.64 15.16-17.53.17-.49.42-1 .76-1.39 4.08-4.71 3.33-9.24.74-14.66-5.66-11.83-14.05-21.62-21.98-31.81-1.07-1.38-1.7-3.1-2.54-4.66.37-.3.74-.61 1.11-.91 5.53 4.77 11.03 9.58 16.59 14.31 5.52 4.7 7.4 12.41 13.08 16.97l1.29-.39c.31-2.1.63-4.2.92-6.31.24-1.77.42-3.54.64-5.31.97-7.71-1.93-14.55-4.73-21.44-4.45-10.98-10.57-20.97-17.81-30.29-2.01-2.59-4.37-4.9-6.42-7.46-2.44-3.04-3.82-6.53-3.99-11 1.67.9 3.32 1.33 4.3 2.39 6.95 7.41 13.78 14.94 20.6 22.48.84.92 1.42 2.08 2.08 3.16 1.92 3.11 3.92 6.18 5.71 9.37 1.33 2.38 2.25 5 3.57 7.39 5.98 10.81 6.03 22.83 6.68 34.59.23 4.21-1.74 8.67-3.26 12.81-1.52 4.13-1.59 7.93.32 11.86 2.58 5.32 4.88 10.78 7.65 15.99 1.44 2.7 3.75 4.67 7.33 3.29.57-.22 1.27-.22 1.89-.16 8.24.77 15.98-1.65 22.81-5.55 4.25-2.42 7.69-6.97 10.34-11.27 3.07-4.99 4.93-10.72 7.14-16.21.38-.94.04-2.28-.23-3.36-1.52-6.16-3.74-12.23-4.56-18.47-1.3-9.9-2.37-19.88-.73-29.94 1.48-9.08 2.02-18.32 3.85-27.32 1.04-5.09 3.75-9.85 5.87-14.69 2.79-6.39 5.56-12.81 8.71-19.03 1.36-2.69 3.46-5.09 5.54-7.31 9.29-9.89 18.68-19.69 28.1-29.45.59-.61 1.71-.7 2.58-1.03.16.96.47 1.92.42 2.87-.04.68-.45 1.44-.91 1.98-4.89 5.85-9.51 11.96-14.81 17.41-7.07 7.28-11.97 15.85-16.42 24.78-.99 1.99-1.96 3.99-2.79 6.05-.26.65-.07 1.49-.08 2.25.75-.18 1.58-.2 2.23-.56 5.26-2.94 10.41-6.08 15.75-8.85 2.37-1.23 5.11-1.74 8.16-2.73-.56 4.43-2.55 7.44-5.28 9.68-5.87 4.81-12.04 9.25-18.03 13.91-3.35 2.6-6.76 5.17-9.8 8.1-1.46 1.41-2.66 3.52-3.05 5.5-.61 3.08-.54 6.32-.54 9.49 0 1.01.51 2.72 1.12 2.88.96.26 2.41-.24 3.29-.89 7.07-5.21 13.94-10.7 21.12-15.75 2.95-2.08 6.51-3.29 9.88-4.94 1.14 3.14.38 4.87-1.77 6.55-2.64 2.07-4.88 4.65-7.33 6.98-1.68 1.6-3.32 3.26-5.13 4.69-4.9 3.87-9.87 7.67-14.86 11.43-1.25.94-2.61 1.93-4.08 2.32-2.97.8-4.5 2.73-4.17 5.53.99 8.38.5 16.83 2.77 25.18 3.2 11.77 7.27 23.17 11.53 34.58 2.01 5.4 1.96 11.58 2.69 17.43.13 1.06-.36 2.29-.83 3.33-3.46 7.71-6.88 15.44-10.52 23.07-6.88 14.42-9.41 29.97-12.06 45.49-3.06 17.93-3.19 36.06-3.39 54.18-.07 6.64-.41 13.13-5.26 18.33-.43-.09-.86-.15-1.28-.21z" fill="#010104"/></svg>