<svg enable-background="new 0 0 400 400" viewBox="0 0 400 400" xmlns="http://www.w3.org/2000/svg"><path d="m362.1 8.8c1.1.8 2.1 1.6 3.1 2.4l-1 1.1c-1.3-1.1-2.3-2-3-2.5zm1.9 4.8c.5.2.9.4 1.4.5-.6 2.3-1.3 4.5-1.9 6.8l-1.5-.5c.8-2.1 1.4-4.3 2-6.8zm-1-9.4c1.3.9 2.4 1.8 3.4 2.5l-1 1.1c-1.4-1.2-2.4-2.1-3.2-2.6zm3.7 2.2v-1.4h10.3v1.2c-.5 3.6-1.8 6.8-4 9.4 1.5 1.6 3.4 2.8 5.7 3.8-.3.4-.7.8-1.1 1.4-2.3-1.1-4.1-2.5-5.6-4.1-1.6 1.6-3.6 3.1-5.9 4.3-.3-.5-.7-.9-1-1.3 2.4-1.1 4.4-2.5 6-4.1-1.9-2.5-3-5.6-3.3-9.3h-1.1zm8.8 0h-6.4c.3 3.3 1.3 6 3 8.2 2-2.3 3.1-5.1 3.4-8.2z" fill="#fbfcfa"/><path d="m385.3 3.8h1.3v2.2h2.8v-2.2h1.3v2.2h4.1v9.1h1.7v1.3h-16.9v-1.3h1.7v-9.1h4.1v-2.2zm.4 13.1.7 1.2c-1.8.9-3.8 1.9-6 2.9-.2-.4-.5-.8-.8-1.3 2.3-1 4.3-1.9 6.1-2.8zm-3.1-6.4h2.8v-3.2h-2.8zm0 4.6h2.8v-3.3h-2.8zm4-4.6h2.8v-3.2h-2.8zm0 4.6h2.8v-3.3h-2.8zm3.7 1.9c2.1.9 4.1 1.8 6.1 2.7l-.7 1.3c-2.2-1.1-4.2-2-6.1-2.9zm3.2-9.7h-2.8v3.2h2.8zm-2.8 7.8h2.8v-3.3h-2.8z" fill="#fbfcfa"/><path d="m247.08 365.8c-4.23-12.24-8.51-24.16-12.45-36.18-2.08-6.35-3.1-12.9-2.96-19.68.25-12.4.37-24.82-.02-37.22-.32-10.19 1.07-19.98 3.96-29.72 3.01-10.14 5.58-20.42 8.13-30.7.51-2.04.12-4.31.08-6.48-.04-2.58-.01-5.18-.27-7.74-.12-1.2-.52-2.7-1.35-3.43-1.68-1.46-2.55-2.64-1.65-5.06 1.11-2.96-3.05-11.67-5.87-12.94-.73-.33-1.78-.66-2.42-.39-4.13 1.75-8.67 3.04-12.18 5.68-5.57 4.19-10.38 9.37-15.65 13.97-1.08.94-2.82 1.74-4.17 1.62-4.51-.4-9.05-.96-13.46-1.99-4.93-1.15-8.84-.62-11.82 4.01-2.92 4.53-6.51 8.64-9.31 13.23-2.64 4.32-6.25 6.54-11.12 6.76-6.54.31-12.64-.36-18.05-5.07-4.64-4.04-9.58-7.46-12.49-13.23-2.13-4.23-5.23-4.21-7.75-.25-7.72 12.16-9.91 24.98-4.45 38.74 1.14 2.86 1.87 6.09 1.86 9.15-.01 5.47 1.05 10.6 2.45 15.87 1.6 5.98 2.08 12.27 2.81 18.46.3 2.51.71 4.72 2.79 6.46.69.58 1.16 1.77 1.22 2.72.53 7.6 1.05 15.21 1.37 22.82.34 8.2-.13 16.32-3.3 24.05-.2.49-.26 1.16-.62 1.43-1.17.88-2.58 2.37-3.66 2.19-1.05-.18-2.38-2.02-2.61-3.3-1.69-9.49-3.48-18.98-4.57-28.55-.93-8.18-.86-16.47-1.49-24.69-.3-3.95-.73-8.01-1.93-11.75-1.96-6.08-3.64-12.13-3.9-18.56-.07-1.75-.39-3.65-1.2-5.18-5.39-10.25-7.87-20.89-5.45-32.47.95-4.56 1.47-9.22-.87-13.69-.35-.67.17-2 .63-2.85 7.33-13.61 14.62-27.24 22.14-40.74 4.36-7.84 7-16.07 7.3-25.04.11-3.17-2.91-8.28-5.99-8.65-9.27-1.12-14.11-7.65-18.2-14.74-5.61-9.72-9.26-20.27-9.88-31.56-.42-7.49-.08-15.02-.08-22.48 6.28-.34 10.87 5.38 9.25 10.64-.83 2.68-1.72 4.97 1.32 7.15 1.19.86 1.41 3.19 1.9 4.9 1.96 6.96 3.75 13.98 10.39 19.26.82-1.99 1.85-3.77 2.25-5.68.31-1.48.24-3.3-.34-4.68-3.81-8.97-2.51-18.32-2.1-27.55.15-3.27 1.65-6.52 2.77-9.69 1.09-3.09 2.26-6.19 3.82-9.05.75-1.39 2.32-2.62 3.8-3.25 2.05-.86 3.22.82 4.24 2.41 2.21 3.47 3.18 7.11 1.97 11.19-.54 1.82-.83 3.72-1.29 5.57-1.47 5.83.17 11.2 1.94 16.73 1.89 5.91 2.94 12.08 4.37 18.13.27 1.13.41 2.33.93 3.34 1.38 2.68 4.74 2.78 6.37.31 2.98-4.49 4.39-9.13 4.38-14.79-.02-10.88 1.1-21.78 5.28-32.05 1.11-2.73 2.97-5.7 6.13-5.01 3.08.67 3.87 4.06 4.43 7.09.52 2.79-.78 4.73-2.6 6.42-1.69 1.57-1.82 3.21-1.29 5.37.68 2.74 1.09 5.6 1.18 8.42.18 5.62-.27 11.26.13 16.85.54 7.65-2.81 13.48-7.64 18.82-1.14 1.26-2.44 2.37-3.53 3.66-1.37 1.61-2.81 3.21-3.86 5.03-4.23 7.34-.6 15.25 7.79 16.86.93.18 2.63-.71 3.09-1.57 1.19-2.22 1.95-4.67 2.75-7.07 1.04-3.13 3.04-5.23 6.28-6.39 2.48 3.01 4.3 6.06 3.94 10.27-.46 5.38-.47 10.8-.53 16.2-.03 3.12.48 6.23 3.12 8.33 1.08.86 2.54 1.25 4.08 1.97 1.7-4.47 3.39-8.47 4.74-12.57 3.44-10.43 7.95-20.31 14.82-28.95 2.6-3.26 3.43-6.87 3.62-10.87.1-2.08.65-4.15 1.14-6.19 1.08-4.41 2.14-8.83 3.42-13.18.98-3.33 2-6.71 3.49-9.82 1.33-2.78 4.12-3.19 7.08-3.14 2.8.04 3.14 2.19 3.92 3.9 1.71 3.71 1.99 7.41.08 11.3-1.82 3.69-2.52 7.47 1.68 10.41.62.43 1.01 1.62 1 2.45-.12 5.92.1 11.92-2.88 17.36-.9 1.64-.68 2.85.71 4.17 1.98 1.87 3.74 3.97 5.99 6.39 1.96-6.07 3.77-11.66 5.56-17.25 1.97-6.15 3.54-12.46 5.98-18.42 2.82-6.92-.11-12.71-2.49-18.73-.27-.68-.92-1.33-.91-1.98.08-7.37-4.05-13.52-5.83-20.34-1.4-5.39-1.55-10.62.48-16.12 4.6.6 7.86 2.98 9.93 6.98 1.16 2.25 1.99 4.67 3.08 6.96 1.46 3.1 3.74 5.47 7.06 6.44.88.26 2.47-.29 3.06-1.02 1.66-2.04 2.96-4.38 4.43-6.59.88-1.32 1.59-2.9 2.78-3.84 1.76-1.38 3.89-2.28 5.86-3.38.85 1.76 1.97 3.44 2.51 5.29 1.66 5.75.26 11.35-1.37 16.86-1.59 5.37-3.34 10.69-4.89 16.07-.31 1.06-.24 2.34.02 3.44.52 2.17 1.71 3.24 4.19 2.3 5.05-1.91 10.18-3.6 15.24-5.48 1.06-.39 1.96-1.21 2.92-1.84 5.02-3.31 9.91-6.86 15.12-9.84 2.04-1.17 4.78-1.09 7.6-1.66-.72 4.5-1.4 7.99-4.63 10.77-7.53 6.48-14 14.07-22.41 19.68-5.7 3.8-11.54 6.19-18.2 6.35-4.86.11-7.52 2.04-8.41 6.84-.4 2.15-1.1 4.47-2.37 6.18-4.12 5.58-4.61 11.95-4.57 18.44.07 11.55 1.96 22.77 6.8 33.38.26.58.34 1.36.78 1.72 5.52 4.49 4.42 11.74 7.2 17.38.54 1.09-.22 2.87-.48 4.31-.94 5.19-1.98 10.36-2.89 15.56-1.59 9.11-3.18 18.22-4.62 27.35-.45 2.89-.47 5.86-.59 8.79-.52 12.81-.95 25.63-1.53 38.44-.73 15.99-1.91 31.97-2.23 47.97-.13 6.71 1.53 13.44 2.19 20.19.19 1.92-.4 3.9-.45 5.85-.05 1.83-.31 3.86.35 5.46.92 2.33.34 3.78-1.35 5.26zm-22.27-232.27c-2.4 2.01-4.42 3.69-6.43 5.39-3.5 2.94-6.54 2.93-10.15-.04-2.85-2.35-4.89-2.51-7.02.6-1.84 2.69-2.7 6.07-3.9 9.18-1.39 3.62-2.01 7.76-4.18 10.82-2.48 3.52-3.49 7.18-3.86 11.17-.45 4.84 2.2 8.58 5.83 10.99 2.81 1.86 5.78-.65 8.41-2.13 1.1-.62 2.14-1.38 3.09-2.22 4.11-3.66 7.85-7.86 12.35-10.94 5.8-3.97 7.34-9.45 7.47-15.79.13-5.57 1-11.2-1.61-17.03zm-58.3 51.25c-.48-4.78-2.05-8.11-4.98-10.85-2.69-2.52-5.48-1.35-8.3-.47-.2.06-.42.08-.62.11-4.11.63-6.68-2.41-5.02-6.2.79-1.8 2.33-3.25 3.33-4.97.52-.89 1.16-2.38.78-3.01-1.87-3.02-3.93-5.95-6.19-8.7-1.24-1.5-2.99-1.63-4.16.33-1.55 2.61-3.06 5.25-4.44 7.96-1.76 3.45-3.2 7.08-5.11 10.45-1.88 3.32-1.64 8.2 1.01 10.97 5.41 5.67 10.81 11.33 16.23 16.99 2.55 2.66 4.46 3.11 7.34.68 2.79-2.35 5.18-5.24 7.43-8.13 1.33-1.67 2.03-3.83 2.7-5.16z" fill="#010101"/></svg>