<svg enable-background="new 0 0 400 400" viewBox="0 0 400 400" xmlns="http://www.w3.org/2000/svg"><path d="m249.23 34.8c.71 3.02 1.82 6 2.06 9.06.64 8.34.71 16.73 1.41 25.06.47 5.69 1.47 11.35 2.49 16.97 1.83 10.03.93 20.04.45 30.11-.5 10.41-2.59 20.74-.92 31.33.73 4.63-.92 9.64-1.54 14.48-1 7.78-2.06 15.55-3.08 23.32-.91 6.97-3.46 13.28-7.55 18.98-1.79 2.5-3.54 5.03-5.39 7.48-1.96 2.61-4.42 5.07-1.59 8.58.22.28.19.83.16 1.24-1.6 19.2 1.25 38.32 1 57.49-.2 15.52-1.52 31.01-7.08 45.63-4.1 10.76-9.09 21.2-14.16 31.54-1.62 3.3-4.62 6-7.3 8.67-.81.8-2.77 1.06-3.99.74-7.58-1.99-15.1-4.17-22.62-6.39-1.17-.34-2.46-.93-3.23-1.81-3.98-4.54-7.87-9.16-11.66-13.85-4.2-5.21-4.7-11.55-5.48-17.91-1.89-15.24-5.03-30.4-3.92-45.85 1.25-17.32 3.03-34.6 4.44-51.91.13-1.61-.35-3.55-1.21-4.91-4.68-7.43-9.59-14.72-14.38-22.09-.51-.78-1.14-1.77-1.06-2.6.67-6.85-2.65-13.08-3-19.69-.48-9.07-.27-18.18-.31-27.28-.03-5.82.2-11.64-.01-17.45-.59-16.21-1.48-32.41-1.97-48.63-.16-5.49.77-11 .77-16.51 0-5.27-.67-10.54-.8-15.81-.07-2.82.25-5.66.62-8.46.1-.73 1.01-1.35 1.55-2.03.66.58 1.53 1.05 1.95 1.77 4.09 7.09 6.63 14.72 6.78 22.92.17 9.67.73 19.27 3.17 28.68.05.2.11.43.08.63-1.09 7.44 3.03 11.99 8.3 16.47 9.29 7.88 18.12 16.32 27.15 24.52.55.5 1.11.99 1.7 1.44 5.36 4.05 7.05 3.92 11.67-.88 7.41-7.72 12.74-16.88 18.18-25.99 5.59-9.36 11.04-18.84 17.28-27.74 3.74-5.34 4.98-10.84 4.74-16.98-.18-4.66-.87-9.32-.78-13.96.08-4.07.55-8.23 1.59-12.16.62-2.34 2.68-4.3 4.1-6.44.46.06.92.14 1.39.22zm-48.11 128.28c-9.07 12.71-19.16 23.21-25.61 36.44-2.24 4.59-2.6 8.96-2.26 13.85 9.2 2.46 18.26 4.89 27.69-1.83-8.08-1.75-8.61-7.73-9-13.8-.06-.84-.38-1.69-.31-2.52.36-3.96.69-7.93 1.28-11.87.25-1.71 1.46-2.19 3.31-1.73 5.16 1.28 8.07 4.53 8.18 9.85.05 2.21-.42 4.42-.48 6.64-.13 4.65-.19 9.29-.21 13.94-.01 2.64 1.64 3.82 3.91 2.95 2.79-1.07 5.97-2.21 7.87-4.32 5.15-5.73 9.83-11.92 14.47-18.09 2.02-2.69 2.04-7.07.26-8.38-9.53-7.01-19.14-13.91-29.1-21.13zm19.73 74.78c-.54-2.89-.98-5.8-1.64-8.66-.45-1.93-1.69-3.24-3.87-2.91-3.19.48-6.44.81-9.51 1.73-5.77 1.73-11.38 4.08-17.63 2.74-2.37-.51-4.78-1.02-7.2-1.16-7.1-.39-11.59 5.82-9.21 12.09 4.61 12.1 10.69 23.15 20.88 31.52.08.07.16.14.22.23 1.73 2.48 4.09 2.46 6.01.73 2.71-2.45 5.31-5.15 7.41-8.13 3.54-5 6.41-10.48 10.02-15.43 2.84-3.89 4.35-7.93 4.52-12.75zm-41.39 94.86c.45 7.08 5.74 12 11.16 16.82.28.25.8.22 1.21.33 4.66 1.21 8.4-.51 11.32-3.98 3.48-4.13 6.99-8.29 9.93-12.8 1.22-1.87 2.09-5.24 1.22-6.96-3.86-7.63-9.62-13.89-16.11-19.45-1.4-1.2-2.41-1.09-3.62.49-3.66 4.81-7.33 9.62-11.3 14.17-2.7 3.09-3.57 6.61-3.81 11.38zm-19.94-138.24c4.04-.09 5.97-2.58 7.69-5.29 2.77-4.37 5.31-8.9 8.23-13.17 3.41-4.98 7.04-9.82 10.75-14.59 1.69-2.18 1.85-4.37 1.19-6.84-1.1-4.08-4.06-6.56-7.39-8.77-6.34-4.21-12.9-8.1-17.83-14.18-1.27-1.57-3.76-2.16-6.47-3.62v25.86c2.45-4.54.66-10.28 4.64-13.95 5.17.78 6.43 2.93 8.09 11.54 1.18 6.11.01 11.93-5.04 16.57-2.49-2.81-4.79-5.4-7.59-8.54-.48 1.49-1.11 2.42-.99 3.25 1.49 10.48 3.09 20.94 4.72 31.73zm78.91-25.3c.33-4.52.23-9.25 1.13-13.77 1.07-5.38-.2-9.48-4.51-12.74-4-3.03-5.24-6.96-4.4-11.93.5-2.97.09-6.1.09-9.73-5.08 6.39-9.76 12.28-14.43 18.16-.46.58-.96 1.14-1.37 1.75-5.01 7.45-4.41 11.8 2.47 17.61 1.53 1.29 3.22 2.41 4.85 3.59 2.57 1.87 5.37 3.49 7.66 5.65 2.58 2.44 5.2 2.8 8.51 1.41zm-65.15 140.99c2.02-1.48 3.96-2.28 4.97-3.73 3.77-5.41 8.22-10.44 9.52-17.28.43-2.28.03-3.65-1.67-5.15-3.96-3.5-7.72-7.22-11.57-10.85-1.18-1.11-2.37-2.21-3.96-3.69-.82 13.93-1.19 27.08 2.71 40.7zm42.72-6.92c4.53-3.21 6.11-23.43 2.48-30.03-12.23 9.21-13.27 21.02-2.48 30.03zm22.84-198.75c-5.07 4.61-3.56 11.11 3.09 14.3 2.6-4.78 1.17-11.61-3.09-14.3z" fill="#010000"/><g fill="#fafafb"><path d="m361.2 9.6.8-1c.9.7 1.9 1.4 2.9 2.3l-.9 1.1c-1-1-2-1.8-2.8-2.4zm.5 10.6c.9-2.1 1.6-4.3 2.3-6.7.4.2.8.4 1.3.6-.7 2.1-1.5 4.3-2.2 6.6zm.4-15.2.9-.9c1 .8 2 1.6 2.8 2.4l-1 1c-.9-.9-1.8-1.7-2.7-2.5zm12.5-1.2h1.2v1.4h2.7v1.1h-2.7v2.7h-1.2v-.6h-1.8v1.3h4.9v3.8h-1.2v-.5h-3.7c0 .4-.1.9-.1 1.2h5.1v1h-5.2c0 .5-.1.9-.2 1.2h6v1h-5.2c1.1 1.3 2.9 2 5.5 2.2-.4.4-.7.8-.9 1.3-2.9-.5-4.8-1.6-5.7-3.5h-.1c-.8 1.7-2.7 2.9-5.9 3.6-.2-.4-.6-.8-.9-1.1 2.8-.6 4.6-1.4 5.4-2.5h-4.8v-1h5.3c.1-.3.2-.7.2-1.2h-4.9v-1h5c0-.4 0-.8.1-1.2h-3.5v.5h-1.2v-3.8h4.9v-1.3h-1.8v.5h-1.2v-2.7h-2.7v-1h2.6v-1.4h1.2v1.4h4.7v-1.4zm-6.6 8.3h3.6c0-.4 0-.9 0-1.4h-3.6zm1.9-4.6h4.7v-1.3h-4.7zm6.6 3.2h-3.7v1.4h3.7z"/><path d="m385.3 3.8h1.3v2.2h2.8v-2.2h1.3v2.2h4.1v9.1h1.7v1.3h-16.9v-1.3h1.7v-9.1h4.1v-2.2zm.4 13.1.7 1.2c-1.8.9-3.8 1.9-6 2.9-.2-.4-.5-.8-.8-1.3 2.3-1 4.3-1.9 6.1-2.8zm-3.1-6.4h2.8v-3.2h-2.8zm0 4.6h2.8v-3.3h-2.8zm4-4.6h2.8v-3.2h-2.8zm0 4.6h2.8v-3.3h-2.8zm3.7 1.9c2.1.9 4.1 1.8 6.1 2.7l-.7 1.3c-2.2-1.1-4.2-2-6.1-2.9zm3.2-9.7h-2.8v3.2h2.8zm-2.8 7.8h2.8v-3.3h-2.8z"/></g></svg>