<svg enable-background="new 0 0 400 400" viewBox="0 0 400 400" xmlns="http://www.w3.org/2000/svg"><path d="m362.1 8.8c1.1.8 2.1 1.6 3.1 2.4l-1 1.1c-1.3-1.1-2.3-2-3-2.5zm1.9 4.8c.5.2.9.4 1.4.5-.6 2.3-1.3 4.5-1.9 6.8l-1.5-.5c.8-2.1 1.4-4.3 2-6.8zm-1-9.4c1.3.9 2.4 1.8 3.4 2.5l-1 1.1c-1.4-1.2-2.4-2.1-3.2-2.6zm3.7 2.2v-1.4h10.3v1.2c-.5 3.6-1.8 6.8-4 9.4 1.5 1.6 3.4 2.8 5.7 3.8-.3.4-.7.8-1.1 1.4-2.3-1.1-4.1-2.5-5.6-4.1-1.6 1.6-3.6 3.1-5.9 4.3-.3-.5-.7-.9-1-1.3 2.4-1.1 4.4-2.5 6-4.1-1.9-2.5-3-5.6-3.3-9.3h-1.1zm8.8 0h-6.4c.3 3.3 1.3 6 3 8.2 2-2.3 3.1-5.1 3.4-8.2z" fill="#fbfcfa"/><path d="m385.3 3.8h1.3v2.2h2.8v-2.2h1.3v2.2h4.1v9.1h1.7v1.3h-16.9v-1.3h1.7v-9.1h4.1v-2.2zm.4 13.1.7 1.2c-1.8.9-3.8 1.9-6 2.9-.2-.4-.5-.8-.8-1.3 2.3-1 4.3-1.9 6.1-2.8zm-3.1-6.4h2.8v-3.2h-2.8zm0 4.6h2.8v-3.3h-2.8zm4-4.6h2.8v-3.2h-2.8zm0 4.6h2.8v-3.3h-2.8zm3.7 1.9c2.1.9 4.1 1.8 6.1 2.7l-.7 1.3c-2.2-1.1-4.2-2-6.1-2.9zm3.2-9.7h-2.8v3.2h2.8zm-2.8 7.8h2.8v-3.3h-2.8z" fill="#fbfcfa"/><path d="m93.65 51.71c6.8 7.89 10.31 17.03 10.63 27.1.53 17.06.45 34.13.61 51.2.04 4.67.22 5.26 4.94 5.14 7.08-.18 14.16-.84 21.22-1.49 5.91-.55 11.78-1.94 17.68-1.95 5.67-.01 11.35 1.2 17.01 1.99 15.53 2.16 31.02 4.69 46.59 6.45 8.29.94 16.72.56 25.09.83 19.73.63 39.34 2.4 58.67 6.56 2.3.5 3.27-.21 4.15-2.04 2.41-5.05 2.19-10.3 1.06-15.55-4.24-19.61-7.37-39.37-7.76-59.48-.22-11.43 1.43-22.61 5.54-33.35.18-.48.45-.92.78-1.6 5.38 3.47 8.09 8.64 9.32 14.35 1.52 7.12 2.35 14.4 3.23 21.65.88 7.26 1.36 14.56 2.18 21.83.26 2.29.77 4.62 1.59 6.77 5.43 14.25 8.21 29.12 10.22 44.15.44 3.27.34 6.76-.33 9.99-.86 4.15-1.02 8.12.01 12.22 1.92 7.64 2.57 15.4 2.48 23.3-.21 18.03-.03 36.06-.11 54.09-.01 2.19-.34 4.45-.96 6.54-7.68 25.66-15.36 51.32-23.24 76.92-2.3 7.48-5.55 14.67-7.76 22.17-1.26 4.29-1.52 8.92-1.81 13.43-.22 3.39-2.63 5.6-5.78 4.34-3.42-1.37-6.64-2.97-8.8-6.38-4.49-7.06-9.36-13.88-14-20.85-8.27-12.43-12.91-26.09-14.15-40.99-.26-3.1-1.23-6.27-2.55-9.09-1-2.16-3.06-3.84-4.64-5.73-.34.1-.68.21-1.02.31-1.28 4.72-2.54 9.45-3.84 14.17-5.44 19.73-14 38.11-24.17 55.8-1.93 3.36-4.38 5.56-8.47 5.53-1.25-.01-2.59.18-3.74.65-4.99 2.05-7.76-.33-10.58-4.26-8.79-12.22-13.84-25.84-16.65-40.5-2.72-14.14-7.77-27.46-15.06-40.4-.64 1.32-1.14 2.32-1.61 3.34-10.07 21.94-19.96 43.96-30.33 65.76-2.84 5.96-6.96 11.34-10.81 16.76-1.28 1.81-3.36 3.38-5.42 4.23-4.58 1.89-7.36 2.4-11.2-2.07-9.49-10.97-14.98-23.75-18.54-37.55-3.32-12.91-6.9-25.75-9.99-38.72-.84-3.5-.66-7.35-.37-10.99.34-4.32.06-8.25-2.02-12.24-3.6-6.91-3.27-14.66-3.19-22.12.2-18.79 1.81-37.48 6.15-55.82.43-1.83 1.55-3.67 2.82-5.08 3.15-3.49 4.41-7.63 3.83-12.04-1.37-10.48-.27-20.66 2.45-30.79.49-1.81.52-3.77.53-5.67.19-20.15.21-40.29.58-60.44.07-4.16 1.05-8.39 2.16-12.44.98-3.58 3.55-6.18 7.38-7.94zm27.4 104.64c-1.95 4.85-5.43 4.09-8.79 3.48-1.45-.26-2.82-.92-4.26-1.26-3.17-.74-8.06 1.76-8.09 4.29-.11 7.09-.04 14.17-.04 21.27 1.3.33 2.32.64 3.35.84 11.72 2.29 23.58 2.85 35.44 2.14 6.28-.38 12.67-1.35 18.66-3.18 4.33-1.32 7.62-.64 10.95 1.67 1.47 1.01 2.57 2.54 4 3.61.84.63 2.02 1.2 3.03 1.18 19.39-.32 38.77-.69 58.16-1.21 1.43-.04 3.19-.96 4.17-2.04 3.33-3.65 6.38-7.55 9.72-11.57 4.16 4.56 8.05 8.88 12.03 13.11.83.88 1.89 1.71 3.01 2.14 5.97 2.26 12.13 3.11 18.38 1.48 7.77-2.01 14.08.84 20.04 5.42 1.41 1.09 1.37 2.07.71 3.48-2.83 6-7.34 9.42-14.02 10.6-6.62 1.17-13.08 3.22-19.63 4.8-2.72.66-3.33 2.45-3.18 4.94.47 8.04.52 16.11 1.37 24.11 1.87 17.59 4.05 35.17 9.46 52.11 1.39 4.35 3.45 8.48 5.06 12.38 4.47-.63 6.05-2.97 6.98-6.35 2.54-9.29 5.44-18.48 8.02-27.76 7.95-28.69 12.04-57.84 9.83-87.66-.65-8.82-2.14-17.51-7.88-24.73-.78-.98-2.38-1.86-3.61-1.86-6.88 0-13.77.35-20.65.44-11.39.15-22.84 1.84-34.09-1.51-2.52-.75-5.57-2.1-7.65-1.3-2.05.79-3.18 3.96-4.72 6.09-.18.25-.4.47-.72.86-6.73-7.81-15.79-9.67-25.46-10.22-7.72-.44-15.42-1.17-23.12-1.83-3.36-.29-6.77-1.32-10.04-.96-12.74 1.41-25.44 3.18-38.12 4.99-2.94.42-5.66.76-8.3-1.99zm-13.89 176.39c6.55-7.59 10.96-15.85 13.71-24.96 3.18-10.52 5.42-21.38 11.33-30.86 2.91-4.66 5.92-9.1 7.02-14.71.95-4.84 2.67-9.57 4.42-14.21 2.5-6.63 5.42-13.09 8.01-19.69 3.42-8.71.71-14.55-8.14-17.68-1.88-.67-3.86-1.09-5.82-1.53-9.51-2.14-18.98.02-28.45.47-4.05.19-8.1 1.35-12.03 2.49-1.17.34-2.56 2.02-2.76 3.26-.95 5.84-1.93 11.72-2.15 17.62-.92 24.57 1.92 48.85 6.46 72.94 1.73 9.14 4.02 18.16 8.4 26.86zm95.21-14.79c1.92-.99 3.85-1.71 5.43-2.88 1.14-.85 2.34-2.18 2.65-3.5 3.76-15.86 7.27-31.78 11.04-47.64 3.25-13.67 5.23-27.71 11.65-40.47.55-1.1.75-2.44.87-3.69.44-4.9-2.07-8.05-6.81-8.78-3.24-.5-6.56-.78-9.7-1.66-10.11-2.84-20.22-1.81-30.35-.41-5.05.7-7.33 3.61-7.1 8.69.53 11.8 2.61 23.34 5.48 34.77 4.32 17.25 9.01 34.42 10.78 52.2.49 4.99 2.37 9.41 6.06 13.37z" fill="#010101"/></svg>