<svg enable-background="new 0 0 400 400" viewBox="0 0 400 400" xmlns="http://www.w3.org/2000/svg"><path d="m378.6 9.2.8-1c.9.7 1.9 1.4 2.9 2.3l-.9 1.1c-1.1-.9-2-1.7-2.8-2.4zm.5 10.7c.9-2.1 1.6-4.3 2.3-6.7.4.2.8.4 1.3.6-.7 2.1-1.5 4.3-2.2 6.6zm.4-15.2.9-.9c1 .8 2 1.6 2.8 2.4l-1 1c-1-.9-1.9-1.8-2.7-2.5zm12.5-1.3h1.2v1.4h2.7v1.1h-2.7v2.7h-1.2v-.5h-1.8v1.3h4.9v3.8h-1.2v-.5h-3.7c0 .4-.1.9-.1 1.2h5.1v1h-5.2c0 .5-.1.9-.2 1.2h6v1h-5.2c1.1 1.3 2.9 2 5.5 2.2-.4.4-.7.8-.9 1.3-2.9-.5-4.8-1.6-5.7-3.5h-.1c-.8 1.7-2.7 2.9-5.9 3.6-.2-.4-.6-.8-.9-1.1 2.8-.6 4.6-1.4 5.4-2.5h-4.8v-1h5.3c.1-.3.2-.7.2-1.2h-4.9v-1h5c0-.4 0-.8.1-1.2h-3.6v.5h-1.2v-3.8h4.9v-1.3h-1.8v.5h-1.2v-2.7h-2.6v-1.1h2.6v-1.4h1.2v1.4h4.7v-1.4zm-6.7 8.4h3.6c0-.4 0-.9 0-1.4h-3.6zm1.9-4.7h4.7v-1.2h-4.7zm6.7 3.3h-3.7v1.4h3.7z" fill="#fafbfc"/><path d="m384.7 21.4h1.3v2.2h2.8v-2.2h1.3v2.2h4.1v9.1h1.7v1.3h-16.9v-1.3h1.7v-9.1h4.1v-2.2zm.3 13.2.7 1.2c-1.8.9-3.8 1.9-6 2.9-.2-.4-.5-.8-.8-1.3 2.4-1 4.4-2 6.1-2.8zm-3.1-6.5h2.8v-3.2h-2.8zm0 4.6h2.8v-3.3h-2.8zm4.1-4.6h2.8v-3.2h-2.8zm0 4.6h2.8v-3.3h-2.8zm3.6 1.9c2.1.9 4.1 1.8 6.1 2.7l-.7 1.3c-2.2-1.1-4.2-2-6.1-2.9zm3.3-9.7h-2.8v3.2h2.8zm-2.8 7.8h2.8v-3.3h-2.8z" fill="#fafbfc"/><g fill="#010104"><path d="m228.93 121.98c7.52 2 9.69-2.91 12.26-7.74 2.77-5.2 5.44-10.32 4.95-16.45-.32-4.03-6.02-7.28-9.49-5.28-5.86 3.36-11.85 2.13-17.92.89-1.4-.29-2.92.07-4.39.13-1.56.06-3.21.49-4.66.13-7.96-2-10.65 1.43-10.87 8.41-.16 5.13.61 10.4 1.79 15.42.77 3.25 4.31 4.14 7.39 4.41 2.94.26 5.93-.13 8.89-.04 5.35.16 7.24 1.89 8.71 7.03.55 1.91.06 3.02-1.66 3.31-3.8.65-7.63 1.29-11.47 1.46-2.71.12-5.54-1.04-8.17-.66-2.16.31-4.26 1.85-6.08 3.25-.56.43-.1 2.22-.04 3.38.11 2.32.32 4.64.38 6.96.03 1.23-.67 2.69-.21 3.66 1.81 3.82 1.45 7.35-.8 10.65 8.09 5.53 14.29 12.01 14.62 22.5 9.85 4.76 16.67 19.52 15.04 28.42-.62 3.41-1.39 6.99-6.17 7.85 2.11 3.19-.17 5.18-1.46 7.57-3.02 5.59-6.06 11.18-8.63 16.98-1.52 3.43-3.6 5.51-7.31 5.97-1.02.13-2.02.5-3.33.84-.16-.96-.63-1.88-.38-2.5 1.96-4.73 4.01-9.41 6.13-14.07.72-1.6 1.75-3.05 2.54-4.62 1.42-2.82 2.51-5.84 4.22-8.47 2.8-4.31 3.8-8.76 3.06-13.89-.6-4.15-.13-8.48-3.17-11.99-1.97-2.28-3.82-4.67-5.72-7.01-.41.06-.82.12-1.22.18-1.04 3.69-2.93 7.37-2.98 11.08-.2 15.58-9.28 26.35-19.02 36.87-3.45 3.73-6.89 7.48-10.43 11.12-1.21 1.25-2.74 2.19-4.12 3.27-.35-.22-.71-.43-1.06-.65.64-1.59 1.12-3.27 1.96-4.75 1.5-2.66 3.53-5.06 4.77-7.82 4.35-9.73 8.4-19.59 12.68-29.36 4.32-9.88 6.83-20.26 7.97-30.91.31-2.93-.67-6.25-1.87-9.03-1.51-3.47-1.54-4.97 1.79-7.21-1.04-.35-1.88-.66-2.73-.92-3.66-1.1-6-4.83-5.32-8.59.21-1.14.55-2.26.8-3.4 1.14-5.28-.16-8.35-4.69-11.2-1.69-1.06-3.38-2.12-5.5-3.45-1.14 4.09-4.49 3.69-7.56 4.44-6.72 1.63-12.73-.29-18.74-2.74-.63-.26-1.31-.76-1.65-1.34-3.48-5.75-6.63-11.61-5.82-18.7.05-.41.05-.9-.14-1.24-3.93-6.88-1.5-14.87-3.85-22.03-.16-.47-.27-1.28-.02-1.52 2.92-2.72 1.23-5.33.02-8.04-.27-.6-.08-1.46.06-2.16 1.4-7.17 2.82-14.34 4.28-21.5.17-.81.47-1.65.91-2.35 2.2-3.49 4.34-7.03 6.75-10.38 1.14-1.58 2.68-3 4.32-4.06 1.56-1.02 3.24-1.11 4.66.86 1.69 2.34 4.23 3.02 7.27 2.39.26-.82.54-1.7.83-2.59-1.49-.47-2.88-.9-5.08-1.59 5.88-3.51 10.92-3.57 15.24-1.38 3.25-1.42 6.04-2.47 8.67-3.83 3.94-2.03 4.73 2.68 7.69 3.26 3.63-3.69 7.81-1.22 11.73-.24 2.55.63 1.73 2.61.35 4.17-2.46 2.79-11.33 8.5-15.52 9.91-.4-.55-.94-1.09-1.23-1.74-1.66-3.66-4.61-4.04-8.33-4.75-4.87-.92-8.9.49-13.26 1.5-3.4.79-7.03.98-8.67 4.84-.04.09-.11.22-.19.25-6.08 1.9-5.71 8.01-8.04 12.35-.55 1.02-.83 2.18-1.31 3.23-1.84 3.99-4.04 7.93-.63 12.23.41.52.37 1.42.5 2.15.88 4.84 2.54 5.77 7.38 4.09 3.35-1.16 3.89-1.06 6.84 1.59-.48.29-.96.54-1.39.86-.42.32-.77.72-1.26 1.18 2.12 1.74 6.19-.58 7.19 3.12-.23.37-.46.74-.69 1.11-1.33-.89-2.67-1.79-4.22-2.83-1.02 2.32-3.17 2.33-5.83 1.94-5.3-.78-8.73 4.27-7.01 9.25 1.43 4.14 2.36 8.52 2.93 12.87.87 6.57 3.25 8.98 9.88 10.03 6.28 1 11.88-1.23 17.56-3.06 2.46-.79 3.86-2.91 3.73-5.7-.28-6.14-.66-12.28-.84-18.43-.07-2.42-1.26-3.81-3.44-3.55-4.2.51-6.19-1.72-7.66-5.11-.67-1.54-1.6-2.98-2.7-4.99 2.42-.42 4.54-1.02 6.67-1.12 3.92-.18 6.61-1.82 7.99-5.58 1.02-2.78 2.15-5.53 3.38-8.22.87-1.9 1.43-3.62.2-5.66-.42-.7-.23-2.14.22-2.95 2.36-4.21 6.19-6.4 10.73-7.75 2.36 3.76-1.56 4.65-2.73 7.19 5 3.42 4.23 8.61 3.81 13.86-.31 3.88-.06 7.81-.06 12.16 3.17 0 6.63.05 10.08-.05.58-.02 1.5-.61 1.64-1.11.73-2.65 2.51-2.52 4.67-2.25 4.94.62 9.93.85 14.85 1.6 2.94.45 5.76 1.69 8.68 2.34 1.56.34 3.58.75 4.75.06.94-.55 1.3-2.75 1.24-4.18-.16-3.85-1.15-7.32-4.06-10.33-1.61-1.67-2.16-4.44-2.95-6.79-.18-.54.43-1.79.96-2 .59-.24 1.75.09 2.24.59 5.82 5.88 11.04 12.1 11.22 21.01.04 2.01.22 4.02.24 6.04.03 3.28.15 6.53-3.88 8.05-.61.23-.64 2.49-.64 3.81.02 8.1-1.89 15.7-7.8 21.37-2.28 2.18-6.26 2.63-9.53 3.66-.53.17-1.7-.61-2.06-1.24-.9-1.56-1.48-3.28-2.65-6.01zm-41.79-20.14c2.31 3.05 3.79.23 5.69-.23-2.11-3.14-3.77-1.73-5.69.23zm8.89 25.38c.98-1.4 1.71-2.17 2.02-3.08.09-.27-1.34-1.47-1.56-1.35-.86.5-1.65 1.27-2.16 2.12-.15.23.78 1.1 1.7 2.31z"/><path d="m187.55 366.24c-1.23-12.04-3.26-23.83-3.41-35.64-.15-11.88-.73-24.29 7.77-34.53-3.02-1.9-3.13-4.19-2.09-6.86.37-.96.54-2.1.44-3.12-.83-9.16 2.07-17.83 3.47-26.68.48-3.04 4.07-7.13 8.71-5.62 1.09.36 2.51 2.36 2.35 3.39-.59 3.82-1.76 7.56-2.76 11.32-.72 2.74-1.87 5.41-2.21 8.19-2.1 17.35-4.2 34.71-5.9 52.1-.52 5.32.28 10.76.32 16.15.04 4.98.07 9.97-.27 14.93-.31 4.75-2.33 6.51-6.42 6.37z"/><path d="m242.8 62.83c-2.75 0-4.98.18-7.15-.09-.9-.11-1.76-1.12-2.5-1.86-1.57-1.58-2.83-3.58-4.61-4.83-5.1-3.57-6.57-6.31-5.42-12.17 1.44 1.24 2.99 2.07 3.8 3.36 2.35 3.74 5.63 5.79 9.87 6.74 4.35.98 4.65 4.9 6.01 8.85z"/><path d="m213.64 45.84c1.03 2.04 1.65 3.28 2.28 4.51-.25.27-.49.53-.74.8-1-.83-2.14-1.55-2.92-2.55-.22-.26.66-1.38 1.38-2.76z"/></g></svg>