<svg enable-background="new 0 0 400 400" viewBox="0 0 400 400" xmlns="http://www.w3.org/2000/svg"><path d="m378.6 9.2.8-1c.9.7 1.9 1.4 2.9 2.3l-.9 1.1c-1.1-.9-2-1.7-2.8-2.4zm.5 10.7c.9-2.1 1.6-4.3 2.3-6.7.4.2.8.4 1.3.6-.7 2.1-1.5 4.3-2.2 6.6zm.4-15.2.9-.9c1 .8 2 1.6 2.8 2.4l-1 1c-1-.9-1.9-1.8-2.7-2.5zm12.5-1.3h1.2v1.4h2.7v1.1h-2.7v2.7h-1.2v-.5h-1.8v1.3h4.9v3.8h-1.2v-.5h-3.7c0 .4-.1.9-.1 1.2h5.1v1h-5.2c0 .5-.1.9-.2 1.2h6v1h-5.2c1.1 1.3 2.9 2 5.5 2.2-.4.4-.7.8-.9 1.3-2.9-.5-4.8-1.6-5.7-3.5h-.1c-.8 1.7-2.7 2.9-5.9 3.6-.2-.4-.6-.8-.9-1.1 2.8-.6 4.6-1.4 5.4-2.5h-4.8v-1h5.3c.1-.3.2-.7.2-1.2h-4.9v-1h5c0-.4 0-.8.1-1.2h-3.6v.5h-1.2v-3.8h4.9v-1.3h-1.8v.5h-1.2v-2.7h-2.6v-1.1h2.6v-1.4h1.2v1.4h4.7v-1.4zm-6.7 8.4h3.6c0-.4 0-.9 0-1.4h-3.6zm1.9-4.7h4.7v-1.2h-4.7zm6.7 3.3h-3.7v1.4h3.7z" fill="#fafbfc"/><path d="m384.7 21.4h1.3v2.2h2.8v-2.2h1.3v2.2h4.1v9.1h1.7v1.3h-16.9v-1.3h1.7v-9.1h4.1v-2.2zm.3 13.2.7 1.2c-1.8.9-3.8 1.9-6 2.9-.2-.4-.5-.8-.8-1.3 2.4-1 4.4-2 6.1-2.8zm-3.1-6.5h2.8v-3.2h-2.8zm0 4.6h2.8v-3.3h-2.8zm4.1-4.6h2.8v-3.2h-2.8zm0 4.6h2.8v-3.3h-2.8zm3.6 1.9c2.1.9 4.1 1.8 6.1 2.7l-.7 1.3c-2.2-1.1-4.2-2-6.1-2.9zm3.3-9.7h-2.8v3.2h2.8zm-2.8 7.8h2.8v-3.3h-2.8z" fill="#fafbfc"/><path d="m218.76 285.82c-7.37-5.36-7.64-5.69-8.11-10.43h3.85c-.59 3.93 1.84 4.91 5.14 5.84 2.26.64 4.46 2.55 6 4.44 4.32 5.32 8.28 10.93 12.4 16.42.37.5.83.93 1.39 1.55 3.04-2.64 3.07-5.93 2.14-9.06-1.7-5.78-3.76-11.47-5.81-17.14-.41-1.12-1.39-2.08-2.23-2.99-6.09-6.62-12.9-12.72-18.11-19.96-4.26-5.92-9.67-10.81-13.62-16.91-.8-1.23-1.84-2.35-2.91-3.35-3.15-2.95-5.21-2.8-8.47.04-5.41 4.72-10.99 9.26-16.39 13.99-1.13.99-2.17 2.38-2.61 3.78-.82 2.61-1.1 5.38-1.73 8.06-1.64 6.99-3.41 13.95-4.99 20.95-.6 2.66-.9 5.4-1.13 8.13-.07.83.55 1.71.85 2.57.83-.33 1.84-.45 2.45-1.02 3.03-2.79 6.24-5.45 8.83-8.61 3.08-3.77 6.45-6.91 10.94-8.87 2.4-1.05 4.65-2.45 7.74-4.1-.36 2.25-.27 3.98-.91 5.36-2.17 4.61-4.73 8.97-9.53 11.48-.97.51-1.77 1.49-2.42 2.41-5 7.19-9.24 14.85-16.06 20.79-2.82 2.46-3.86 6.95-5.78 10.47-2.51 4.59-4.58 9.26-4.64 14.65-.02 1.4-.7 2.89-1.37 4.18-2.85 5.51-4.61 11.32-5.49 17.47-.72 5.07-3.05 7.28-7.54 7.66 0-4.56-.48-9.17.09-13.65 1.5-11.74 3.45-23.41 5.22-35.11.05-.31.07-.67.24-.92 6.05-9.22 5.28-20.33 8.41-30.37 2.26-7.27 3.87-14.75 5.55-22.18.63-2.76.52-5.68.98-8.49.6-3.72 1.43-7.41 2.16-11.11.12-.62.45-1.27.35-1.85-.62-3.6.36-6.7 1.92-10 .9-1.9.03-4.73-.33-7.09-.41-2.71-1.22-5.37-1.72-8.07-.65-3.51.09-6.73 1.89-8.83-.73-3.39-1.32-6.17-1.92-8.96-.02-.1 0-.22-.03-.32-3.01-9.2-5.75-18.5-9.16-27.55-1.75-4.67-5.25-5.52-8.65-1.96-6.69 7.03-12.93 14.52-18.91 22.17-1.5 1.92-1.37 5.15-1.89 7.79-.74 3.81-1.44 7.62-2.06 11.45-.32 1.95-.33 3.94-.66 5.88-.22 1.26-.76 2.47-1.62 3.61-3.22-7.33-5.07-14.74-4.47-22.57.33-4.33 1.01-8.63 1.5-12.94.12-1.05.32-2.16.09-3.16-1.39-6.04-.22-11.76 1.86-17.41.33-.89.6-1.82.78-2.75 2.64-14.3 9.15-26.75 18.6-37.63 2.65-3.05 6.45-5.06 9.53-7.78 1.59-1.4 3.29-3.1 3.99-5.01 3.53-9.75 8.64-18.63 14.35-27.18 6.94-10.4 14.29-20.52 21.17-30.96 2.36-3.58 3.85-7.74 5.68-11.67 1.67-3.57 6.94-5.37 10.04-2.91 2.42 1.92 4.65 4.39 6.17 7.06 3.14 5.5 6.3 10.53 11.26 14.98 5.2 4.67 9.65 10.74 12.13 17.92 2.16 6.27 5.58 12.09 8.29 18.18 3.04 6.84 3.32 14.09 3.33 21.47 0 6.89 2.21 13.05 8.43 17.04.36.23.85.41 1.02.74 4.87 9.46 14.1 15.85 18.26 25.78 3.88 9.28 5.17 18.94 3.84 28.95-.17 1.3-.33 2.97.3 3.95 3.96 6.17 3.41 13.01 2.98 19.72-.25 3.92-1.5 7.78-2.31 11.67-.38.03-.76.05-1.14.08-.59-1.13-1.53-2.2-1.73-3.39-1.38-8.55-2.61-17.12-3.88-25.69-.02-.1-.04-.24.01-.31 2.31-3.28.34-5.6-1.79-7.84-2.08-2.17-4.14-4.38-6.38-6.37-4.32-3.85-8.93-7.39-13.11-11.39-2.91-2.78-5.94-5.01-10.74-6.12-.65 3.95-1.21 7.74-1.89 11.49-.6 3.3 2 8.18-4.95 8.57 1.27 1.16 2.19 1.74 2.73 2.55.87 1.33 1.98 2.77 2.15 4.26.78 7.16 1.36 14.35 1.84 21.54.13 1.94-.36 3.92-.51 5.89-.09 1.14-.41 2.42-.04 3.42 2.86 7.69 1.97 15.67 2.21 23.59.06 2.11.99 4.19 1.44 6.3 1.16 5.36 2.28 10.73 3.41 16.1.22 1.03.33 2.09.59 3.12 4.69 18.18 6.51 36.84 9.05 55.37.7 5.14-.55 10.52-.56 15.8-.01 3.85.51 7.7.83 11.55.34 4.09.76 8.18 1.02 12.28.04.56-.61 1.17-.94 1.75-.58-.48-1.47-.85-1.69-1.45-2.61-7.27-5.56-14.46-7.52-21.91-1.35-5.15-1-10.73-2.03-16-.49-2.51-2.13-4.96-3.78-7.03-1.96-2.47-4.37-4.63-6.78-6.69-3.84-3.28-6.13-7.32-7.73-12.11-.92-2.74-3.19-5.09-5.12-7.4-1.99-2.38-3.97-4.56-1.53-7.69zm-64.74-150.43c.01.36.02.72.03 1.09.77.47 1.72 1.48 2.29 1.3 2.85-.89 2.98.99 3.26 2.84.21 1.47.38 2.94.61 4.41.61 3.98 2.96 4.89 6.27 2.68 3-2.01 5.38-5.01 9.61-5.05 2.32-.03 5.31-5.47 4.37-7.72-1.79-4.25-3.65-8.55-6.08-12.44-2.98-4.76-3.88-10.1-1.43-13.99 3.64 1.86 6.02 4.85 7.88 8.39 2.02 3.84 4.02 7.7 6.28 11.39 1.79 2.92 5.09 3.39 8.21 1.97 11.01-5.01 22.01-10.01 33.13-14.77 5.35-2.29 6.8-4.28 5.5-10.24-1.95-8.98-5.29-17.3-10.93-24.77-2.59-3.44-3.8-7.9-5.79-11.83-.65-1.29-1.54-2.86-2.73-3.4-5.52-2.52-9.64-6.33-12.19-11.85-.55-1.2-1.39-2.26-2.33-3.74-2.49 3.81-4.25 7.75-7.12 10.56-3.24 3.17-5.35 6.72-6.77 10.83-.88 2.54-1.81 4.84-5.35 4.89 2.8 1.49 2.28 3.55 1.3 5.39-1.64 3.07-3.63 5.96-5.34 9-4.25 7.51-9.51 14.58-10.44 23.57-.05.51-.16 1.15-.48 1.48-3.59 3.7-3.69 8.66-4.79 13.23-.9 3.64-1.31 7.51-6.97 6.78zm31.36 11.83c-1.15.55-1.74.8-2.29 1.11-4.69 2.65-9.45 5.21-14.05 8.01-4.8 2.93-4.8 3.16-3.13 8.63 2.16 7.07 4.35 14.13 6.56 21.19.21.69.47 1.5.98 1.94 4.59 3.95 6.45 9.59 9.2 14.68.64 1.19 1.46 2.31 2.32 3.35 2.68 3.22 5.46 6.36 8.14 9.58 1.56 1.87 2.91 2.69 5.15.67 4.8-4.32 9.83-8.38 14.74-12.57 5.81-4.95 5.96-5.98 1.87-12.66-.5-.81-1.13-1.54-1.62-2.35-1.82-2.97-3.98-5.79-5.34-8.96-4.22-9.91-10.15-18.79-16.3-27.52-1.54-2.2-4.27-3.54-6.23-5.1zm40.56 48.43c.25-1.45.49-2.37.55-3.31.47-7.39.48-14.83 1.43-22.15 1.73-13.32 4.02-26.56 6.03-39.84.19-1.24.26-2.55.07-3.78-.34-2.21-1.31-3.49-3.88-2.27-3.62 1.73-7.19 4.1-11.03 4.72-5.05.81-8.79 2.97-12.31 6.45-1.64 1.63-4.22 2.37-6.45 3.33-2.5 1.08-3.26 2.72-3.01 5.47.45 4.95 3.36 8.54 5.79 12.51 1.66 2.72 2.54 5.91 3.81 8.88.71 1.66 1.18 3.55 2.31 4.87 2.73 3.17 6.28 5.78 5.7 10.72-.07.62.44 1.42.89 1.97 3.15 3.93 6.35 7.82 10.1 12.43zm6.83 63.35c-.93-7.01-1.71-13.71-2.74-20.38-1.56-10.04-1.56-20.13-1.46-30.25.01-.96-.63-2.52-1.31-2.74-.95-.31-2.6 0-3.31.7-3.58 3.52-7.32 6.44-12.29 8.02-8.6 2.73-10.36 10.93-4.07 17.33.45.45.95.85 1.39 1.31 6.99 7.27 13.66 14.76 16.96 24.6.24.7 1.14 1.6 1.81 1.66 1.63.15 3.3-.13 5.02-.25zm-81.98-130.48c-1.84-.08-3.19-.56-3.71-.1-4.02 3.56-8.87 6.71-11.55 11.14-3.38 5.6-5.23 12.2-7.19 18.54-1.1 3.53-1.28 7.43 1.19 11.48 2.79-2.1 5.41-3.85 7.78-5.9 3.2-2.77 6.31-5.65 9.22-8.73 1-1.06 1.81-2.84 1.76-4.25-.31-7.26-1.5-14.57 2.5-22.18zm91.26 11.14c-.33 1.62-.46 3.12-.95 4.49-2.35 6.57 1.15 10.65 5.92 14.21 1.02.76 2.17 1.32 3.2 2.08 3.48 2.57 6.88 5.25 10.43 7.72 1.14.8 2.66 1.05 4.39 1.7-.86-7.45-3.19-13.49-7.28-18.81-1.34-1.75-1.88-3.35-.76-5.48.54-1.04.4-2.44.57-3.67-.33-.12-.67-.23-1-.35-1.27 1.66-2.53 3.33-3.77 4.96-3.88-2.05-5.56-6.79-10.75-6.85zm-62.21 65.71c-.47.1-.93.21-1.4.31-3.95 10.01-4.71 20.31-2.2 30.85.65 2.72 2.53 1.22 3.72.52 7.2-4.25 8.93-12.45 4.04-19.2-2.01-2.77-3.03-5.7-2.98-9.13 0-1.11-.77-2.24-1.18-3.35z" fill="#010104"/></svg>