<svg enable-background="new 0 0 400 400" viewBox="0 0 400 400" xmlns="http://www.w3.org/2000/svg"><path d="m166.3 185.74c2.13-1.67 4.16-3.36 6.31-4.9 1.16-.83 2.52-1.37 3.09-2.17.91-3.47 1.85-6.94 2.73-10.42.69-2.74 1.21-5.52 2.04-8.22.32-1.06 1.22-1.96 1.94-2.87 1.17-1.5 3.01-2.76 3.51-4.44 1.92-6.44 5.77-11.58 9.52-17 2.93-4.24 4.11-9.69 6.11-14.73-4.88-3.53-8.87-8.24-15.26-9.14-1.2-.17-2.35-.91-3.45-1.53-6.36-3.57-11.23-9.53-18.79-11.27-1.97-.45-3.67-2.46-5.29-3.97-5.09-4.72-10.93-7.79-17.79-9.14-2.86-.56-5.57-1.92-8.3-3.06-.82-.34-1.76-1.01-2.09-1.77-1.32-3.04-3.53-2.9-6.24-2.35-1.68.34-3.55.2-5.25-.15-6-1.23-12.02-2.45-17.91-4.1-1.77-.5-3.14-2.4-4.98-3.9 7.64-6.92 14.67-13.79 23.48-17.63 5.17-2.26 9.8-5.35 14.88-7.54 5.05-2.18 10.4-4.04 16.18-3.15.77.12 1.66-.15 2.41-.45 1.67-.66 3.25-1.59 4.95-2.13 1.79-.57 3.93-1.58 5.49-1.07 3.25 1.06 5.79.76 8.11-1.69.18-.19.63-.32.87-.23 4.58 1.6 8.71-.04 12.89-1.65.67-.26 1.63.01 2.39.25 2.52.8 5 1.69 7.93 2.7 1.07-4.11 4.37-3.43 7.42-3.39 1.06.01 2.12.01 3.18 0 4.94-.03 10.14-.98 13.42 4.4.97-.84 1.64-1.32 2.2-1.92 1.85-1.99 3.6-2.25 5.71-.23.91.87 2.41 1.74 3.56 1.65 3.19-.26 5.77.84 8.31 2.52 2.12 1.4 4.44 2.49 6.56 3.89 2.56 1.69 5.07 2.08 8.08 1.13 1.35-.43 3.44-.1 4.59.73 4.09 2.95 8.49 4.44 13.53 4.59 3.82.11 5.06 1.75 5.8 5.47.37 1.85 1.49 3.55 2.31 5.3.49 1.04 1.08 2.03 1.58 3.07 1.93 3.99 3.84 7.98 5.77 11.97.18.38.64.75.61 1.09-.8 7.55 6.11 12.45 6.62 19.62.33 4.63 1.53 9.19 2.05 13.82.66 5.95.37 11.84-1.99 17.49-.57 1.36-.92 2.81-1.38 4.23-2 6.22-4.33 12.17-7.68 17.94-3.93 6.78-6.82 14.4-8.75 22.02-1.22 4.81-.07 10.3.46 15.44.32 3.07 1.58 6.03 2.29 9.07.72 3.08 1.35 6.17 1.88 9.29.49 2.91-.18 6.04 3.11 8.14 1.08.69 1.09 3.27 1.31 5.03.37 2.9 1.1 5.53 3.23 7.73.82.85 1.41 2.17 1.59 3.36.75 4.95 2.89 9.69 1.7 14.99-.38 1.71 1.05 4.02 2.07 5.82 2.32 4.09 3.08 8.39 2.98 13.07-.17 7.95.08 15.9.11 23.85.01 1.26.16 2.68-.33 3.77-2.32 5.19-2.51 10.65-2.55 16.18-.01 1.21-.56 2.43-.98 3.61-1.37 3.88-2.69 7.79-4.24 11.6-.64 1.56-1.89 2.87-2.72 4.36-.59 1.05-1.14 2.21-1.34 3.38-.58 3.39-1.09 6.61-4.87 8.27-1.07.47-1.7 2.31-2.2 3.65-2.29 6.1-5.8 11.3-11.02 15.25-2.75 2.07-5.74 3.55-9.53 3.24 0-2.58-.03-5.07.01-7.57.16-10.91.79-21.85-2.34-32.52-4.96-16.86-10.8-33.29-23.34-46.33-.29-.3-.57-.64-.79-.99-4.15-6.72-9.8-11.12-17.53-13.58-3.82-1.21-6.8-5.03-10.21-7.59-.89-.66-2.02-.98-3-1.55-1.79-1.03-4.24-1.7-5.17-3.26-3.7-6.22-10.12-7.91-16.18-10.97 0 7-.05 13.53.07 20.05.01.72.84 1.66 1.53 2.11 6.12 3.99 12.25 7.98 18.51 11.76 1.67 1.01 3.79 1.24 5.68 1.91 1.18.42 2.45.81 3.43 1.54 2.48 1.84 2.11 5.52-.84 6.17-3.42.75-7.2 1.31-10.56.64-6.51-1.31-12.85-3.53-19.24-5.41-2.48-.73-5.41-1.22-6.43 1.45-1.03 2.69-.78 5.9-.82 8.89-.01.43 1.49 1.07 2.37 1.29 3.84.99 6.69 3.27 9.38 6.13 6.83 7.25 13.91 14.26 20.82 21.44 1.22 1.26 2.07 2.87 2.79 4.55-14.18-3.2-24.82-12.64-37.11-19.59-1.85 6.44-1.67 12.64-.43 18.79.81 4.04 2.26 7.94 3.14 11.97 1.01 4.63 3.97 7.51 7.79 9.88 5.1 3.15 10.94 5.22 14.79 10.22.45.58 1.49.74 2.29 1.01 4.6 1.58 9.2 3.18 13.83 4.68 2.23.72 2.84 2.26 2.75 4.39-.1 2.27-1.66 2.7-3.45 2.91-.53.06-1.11-.01-1.57.19-4.95 2.1-9.61-.26-13.93-1.69s-8.88-3.54-11.63-7.85c-.41-.64-1.3-1.04-2.03-1.4-1.52-.74-3.07-1.44-4.65-2.04-5.17-1.93-8.36-5.27-10.08-10.81-1.9-6.12-5.17-11.8-7.62-17.76-.81-1.97-1.22-4.21-1.31-6.35-.28-6.55-.54-13.12-.34-19.67.11-3.64 1.05-7.28 1.84-10.86 1.6-7.23 3.26-14.46 5.11-21.63.72-2.81 1.87-5.54 3.07-8.19 4.15-9.17 5.68-18.78 5.23-28.77-.03-.63.04-1.46-.32-1.85-3.38-3.67-1.97-7.76-1.59-11.98.26-2.88-.75-6.06-1.86-8.84-1.7-4.23-2.69-8.31-1.69-12.93.48-2.26-.18-4.74-.3-6.76zm52.89-63.32c-1.24 2.35-2.65 5.05-4.08 7.73-3.43 6.43-6.88 12.84-10.31 19.27-1.88 3.54-3.69 7.12-5.61 10.64-.53.97-1.26 1.83-2 2.67-1.01 1.14-2.24 2.11-3.13 3.33-1.36 1.86-2.08 4.58-3.85 5.64-2.3 1.39-2.98 3.01-3.16 5.31-.31 3.8-1.41 7.2-4.5 9.78-.91.76-1.8 2.02-1.93 3.14-1.14 9.91-1.64 19.73 5.59 28 1.32 1.51 2.47 3.19 3.52 4.89 3.95 6.44 9.1 11.67 15.59 15.56 11.06 6.65 22.06 13.4 33.21 19.9 4.43 2.58 7.57 6.12 10.51 10.26 7.4 10.41 13.97 21.15 17.35 33.62 1.18 4.34 1.77 8.58.49 13.06-1.44-.51-3.35-1.98-3.09.9.65 7.34 1.57 14.65 2.44 22.42 2.42-1.94 4.52-3.49 6.44-5.24.59-.54.69-1.62.95-2.48.43-1.43.43-3.18 1.28-4.27 3.85-4.92 5.67-10.51 6.58-16.59.66-4.38 1.25-8.91 2.88-12.97 1.57-3.89 1.95-7.71 1.99-11.73.03-3.36-1.28-6.69-1.43-9.71-.3-6.09-1.14-11.85-3.18-17.52-.11-.29-.07-.63-.15-.94-.98-3.97-1.66-8.05-3.02-11.89-2.71-7.68-5.85-15.21-8.69-22.85-.73-1.96-1.28-4.06-1.47-6.14-.32-3.6-.94-6.92-4.06-9.26-.44-.33-.72-1.03-.86-1.61-1.41-5.62-2.78-11.25-4.16-16.88-.96-3.9-1.49-7.72 1.47-11.14.35-.41.23-1.3.2-1.96-.13-2.58-1.06-5.38-.34-7.68 2.33-7.42 5.14-14.7 7.97-21.96 3.39-8.69 7.13-17.29 4.35-26.95-.31-1.08-.87-3-1.28-2.99-2.21.05-4.64-2.3-6.69.55-1.28 1.78-2.63 3.69-4.39 4.92-6 4.2-12.4 7.11-20.11 5.46-2.45-.52-5.07-.38-7.6-.36-2.63.02-4.96-.44-6.97-2.35-.64-.61-1.85-.66-2.82-.89-1.02-.21-2.06-.35-3.93-.69zm-.21-56.49c.64 10.58 1.14 20.83 1.97 31.06.25 3 1.39 5.94 2.27 8.87.21.7.94 1.7 1.53 1.77 3.87.44 7.77.62 11.66.97 1.67.15 3.48.2 4.92.91 1.55.76 2.67 1 3.94-.25 1.54-1.51 3.17-1.22 5.2-.77 2.33.51 5.15.59 7.31-.27 8.17-3.25 11.7-9.92 10.52-18.95-.76-5.78-3.67-10.68-7.75-14.46-3.58-3.32-8.12-5.63-12.31-8.27-1.48-.93-3.12-1.9-4.8-2.16-2.83-.45-4.95-1.71-6.46-4.05-1.51-2.35-3.71-2.95-6.32-2.67-2 .21-4.01.55-6 .44-4.27-.22-5.15.37-5.65 4.7-.14 1.13-.03 2.31-.03 3.13zm-15.71 29.4c1.22-4.75 2.28-8.47 1.24-12.66-.62-2.52-.09-5.36.12-8.04.16-2.08.81-4.13.91-6.2.11-2.36-.22-4.74-.23-7.12-.01-1.53.22-3.05.31-4.16-8.34-1.18-16.27-2.33-24.21-3.42-2.81-.39-5.72-1.22-8.43-.83-7.52 1.09-14.99 2.56-22.42 4.17-6.36 1.38-12.64 3.15-18.86 4.72-.32 3.48.98 4.85 4.14 4.87 1.61.01 3.71.28 4.71 1.29 1.86 1.87 3.8 2.01 6.06 1.71 3.39-.44 6.32.19 8.09 3.51 1.29 2.41 3.72 2.35 5.96 2.91 3.13.79 6.37 1.55 9.19 3.03 8.44 4.42 16.63 9.3 25.07 13.72 2.48 1.31 5.44 1.66 8.35 2.5z" fill="#010000"/><g fill="#fafafb"><path d="m361.2 9.6.8-1c.9.7 1.9 1.4 2.9 2.3l-.9 1.1c-1-1-2-1.8-2.8-2.4zm.5 10.6c.9-2.1 1.6-4.3 2.3-6.7.4.2.8.4 1.3.6-.7 2.1-1.5 4.3-2.2 6.6zm.4-15.2.9-.9c1 .8 2 1.6 2.8 2.4l-1 1c-.9-.9-1.8-1.7-2.7-2.5zm12.5-1.2h1.2v1.4h2.7v1.1h-2.7v2.7h-1.2v-.6h-1.8v1.3h4.9v3.8h-1.2v-.5h-3.7c0 .4-.1.9-.1 1.2h5.1v1h-5.2c0 .5-.1.9-.2 1.2h6v1h-5.2c1.1 1.3 2.9 2 5.5 2.2-.4.4-.7.8-.9 1.3-2.9-.5-4.8-1.6-5.7-3.5h-.1c-.8 1.7-2.7 2.9-5.9 3.6-.2-.4-.6-.8-.9-1.1 2.8-.6 4.6-1.4 5.4-2.5h-4.8v-1h5.3c.1-.3.2-.7.2-1.2h-4.9v-1h5c0-.4 0-.8.1-1.2h-3.5v.5h-1.2v-3.8h4.9v-1.3h-1.8v.5h-1.2v-2.7h-2.7v-1h2.6v-1.4h1.2v1.4h4.7v-1.4zm-6.6 8.3h3.6c0-.4 0-.9 0-1.4h-3.6zm1.9-4.6h4.7v-1.3h-4.7zm6.6 3.2h-3.7v1.4h3.7z"/><path d="m385.3 3.8h1.3v2.2h2.8v-2.2h1.3v2.2h4.1v9.1h1.7v1.3h-16.9v-1.3h1.7v-9.1h4.1v-2.2zm.4 13.1.7 1.2c-1.8.9-3.8 1.9-6 2.9-.2-.4-.5-.8-.8-1.3 2.3-1 4.3-1.9 6.1-2.8zm-3.1-6.4h2.8v-3.2h-2.8zm0 4.6h2.8v-3.3h-2.8zm4-4.6h2.8v-3.2h-2.8zm0 4.6h2.8v-3.3h-2.8zm3.7 1.9c2.1.9 4.1 1.8 6.1 2.7l-.7 1.3c-2.2-1.1-4.2-2-6.1-2.9zm3.2-9.7h-2.8v3.2h2.8zm-2.8 7.8h2.8v-3.3h-2.8z"/></g></svg>