<svg enable-background="new 0 0 400 400" viewBox="0 0 400 400" xmlns="http://www.w3.org/2000/svg"><path d="m378.6 9.2.8-1c.9.7 1.9 1.4 2.9 2.3l-.9 1.1c-1.1-.9-2-1.7-2.8-2.4zm.5 10.7c.9-2.1 1.6-4.3 2.3-6.7.4.2.8.4 1.3.6-.7 2.1-1.5 4.3-2.2 6.6zm.4-15.2.9-.9c1 .8 2 1.6 2.8 2.4l-1 1c-1-.9-1.9-1.8-2.7-2.5zm12.5-1.3h1.2v1.4h2.7v1.1h-2.7v2.7h-1.2v-.5h-1.8v1.3h4.9v3.8h-1.2v-.5h-3.7c0 .4-.1.9-.1 1.2h5.1v1h-5.2c0 .5-.1.9-.2 1.2h6v1h-5.2c1.1 1.3 2.9 2 5.5 2.2-.4.4-.7.8-.9 1.3-2.9-.5-4.8-1.6-5.7-3.5h-.1c-.8 1.7-2.7 2.9-5.9 3.6-.2-.4-.6-.8-.9-1.1 2.8-.6 4.6-1.4 5.4-2.5h-4.8v-1h5.3c.1-.3.2-.7.2-1.2h-4.9v-1h5c0-.4 0-.8.1-1.2h-3.6v.5h-1.2v-3.8h4.9v-1.3h-1.8v.5h-1.2v-2.7h-2.6v-1.1h2.6v-1.4h1.2v1.4h4.7v-1.4zm-6.7 8.4h3.6c0-.4 0-.9 0-1.4h-3.6zm1.9-4.7h4.7v-1.2h-4.7zm6.7 3.3h-3.7v1.4h3.7z" fill="#fafbfc"/><path d="m384.7 21.4h1.3v2.2h2.8v-2.2h1.3v2.2h4.1v9.1h1.7v1.3h-16.9v-1.3h1.7v-9.1h4.1v-2.2zm.3 13.2.7 1.2c-1.8.9-3.8 1.9-6 2.9-.2-.4-.5-.8-.8-1.3 2.4-1 4.4-2 6.1-2.8zm-3.1-6.5h2.8v-3.2h-2.8zm0 4.6h2.8v-3.3h-2.8zm4.1-4.6h2.8v-3.2h-2.8zm0 4.6h2.8v-3.3h-2.8zm3.6 1.9c2.1.9 4.1 1.8 6.1 2.7l-.7 1.3c-2.2-1.1-4.2-2-6.1-2.9zm3.3-9.7h-2.8v3.2h2.8zm-2.8 7.8h2.8v-3.3h-2.8z" fill="#fafbfc"/><g fill="#010104"><path d="m155.18 367.29c-2.52-8.4-1.67-11.48 4.71-18.32-1.48-2-2.86-4.24-4.6-6.15-15.38-16.83-26.93-35.84-33.25-57.88-4.46-15.54-5.38-31.48-5.68-47.51-.43-22.67 1.96-45.07 6.62-67.24.31-1.48 1.08-3.02 2.06-4.17 4.42-5.18 6.77-11.13 7.44-17.87 1.21-12.2 1.46-24.63 7.02-35.95 4.11-8.35 8.23-16.73 12.88-24.79 5.32-9.21 10.08-18.59 13.13-28.81 2.58-8.63 7.03-16.25 13.33-23.17 3.73 3.63 7.26 7.27 11.03 10.63 1.41 1.25 3.31 2.25 5.15 2.67 5.67 1.29 11.44 2.18 17.14 3.38 1.51.32 3.05.93 4.34 1.77 9.15 5.95 18.03 12.34 27.39 17.92 8.57 5.11 14.16 12.54 17.67 21.38 3.42 8.6 5.67 17.68 8.35 26.57 1.87 6.18 3.23 12.54 5.49 18.56 3.22 8.59 3.63 17.27 2.51 26.22-1.48 11.84-1.29 23.64.51 35.47.52 3.41-.41 7.14-1.12 10.64-3.84 18.73-10.09 36.72-17.41 54.34-.43 1.04-1.52 1.92-2.5 2.58-2.2 1.46-4.65 2.55-6.76 4.12-3.95 2.94-6.29 6.94-6.12 11.97.29 8.53-2.86 15.62-8.28 22.03-6.23 7.36-12.13 15.01-18.32 22.4-1.37 1.64-3.17 3.28-5.11 4.03-7.76 2.99-13.34 8.64-19.08 14.32-7 6.92-14.28 13.75-23.8 17.15-4.71 1.65-9.73 2.46-14.74 3.71zm34.6-53.44 1.5.75c3.37-1.89 6.97-3.47 10.08-5.72 16.53-11.99 28.42-28.19 37.08-46.12 5.99-12.4 8.7-26.48 12.16-39.99 2.83-11.04 1.76-22.77 5.23-33.8.93-2.94-.04-5.84-2-8.35-1.25-1.6-2.49-2.09-4.58-1.45-8.8 2.68-17.73 4.97-26.49 7.77-6.33 2.02-12.48 4.61-18.71 6.97-2.61.99-3.69 2.96-4.28 5.7-4.24 19.66-5.59 39.59-6.44 59.62-.55 13-1.65 25.97-2.51 38.96-.32 5.22-.69 10.44-1.04 15.66zm-29.68-185.44c-.42-.13-.85-.25-1.27-.38-.2.35-.45.67-.6 1.04-5.26 13.51-10.53 27.01-15.75 40.54-.33.85-.45 1.86-.36 2.76.39 3.79 1.09 7.56 1.29 11.36.12 2.23-.01 4.68-.83 6.71-2.5 6.21-4.6 12.4-5.13 19.19-1.54 19.68-.25 39.18 3.26 58.55 3.39 18.72 9.97 36.09 22.46 50.8.6.7 1.76 1.62 2.37 1.44.75-.22 1.63-1.45 1.71-2.3.48-5.66 1.34-11.37.98-16.99-.54-8.5-1.56-16.89 2.23-24.96.41-.88.55-2.09.34-3.03-.89-3.9-1.97-7.77-3.03-11.85-4.31 0-8.52 0-12.96 0-4.94-16.32-3.2-31.7 4.93-46.4.39-.7 1.63-1.31 2.46-1.3 5.53.07 7.9 2.74 8.23 8.2.21 3.47 1.11 6.89 1.69 10.33.38-.05.76-.09 1.14-.14.05-.99.14-1.98.14-2.97.01-8.06.01-16.11.01-24.17 0-6.14-1.2-7.16-7.47-6.34-.42.05-.83.15-1.25.22-4.96.73-9.69.06-14.23-2.14-3.37-1.64-3.61-2.05-2.03-5.49 2.09-4.54 6.01-6.85 10.4-8.79 5.49-2.42 10.83-5.21 16.18-7.94.73-.37 1.66-1.38 1.63-2.05-.29-6.72-.77-13.42-1.24-20.77-3.4 3.61-6.34 6.74-9.16 9.74-6.91-3.46-9.18-8.3-8.1-15.37.89-5.79 1.32-11.66 1.96-17.5zm45.81-52.89c-4.24 8.49-6.6 17.26-4.41 26.68 2.69 11.58 3.68 23.13 1.48 34.95-.96 5.16-1.11 10.52-1.15 15.8-.04 4.41 1.51 8.52 4.29 12.03.48.6 1.32 1.44 1.88 1.37 3.57-.46 7.11-1.14 11.25-1.85-7.2-6.86-7.18-15.48-8.2-23.71-1.07-8.65.14-16.77 5.95-23.84 3.46 1.81 6.73 3.34 9.79 5.21 1.1.67 2.26 2.04 2.47 3.25 1.15 6.66 2.24 13.36 2.93 20.08.84 8.15-1.81 14.81-9.39 18.91-.14.08-.17.36-.62 1.38 1.76.8 3.43 1.96 5.26 2.31 3.84.73 7.75 1.19 11.65 1.48 3.88.28 7.79.32 11.68.25 2.06-.04 3.22-1.13 2.99-3.49-.86-8.95-1.06-18-2.53-26.84-2.36-14.2-5.65-28.26-12.47-41.14-6.95-13.13-17.75-20.94-32.85-22.83zm-23.77-20.47c-.53 1.44-.93 2.41-1.26 3.41-5.76 17.57-11.52 35.14-17.27 52.71-1.78 5.43-1.44 6.53 3.99 7.96 4.28 1.12 7.39 3.23 9.44 7.14.8 1.52 2.02 2.82 3.66 5.05.81-2.42 1.51-3.91 1.78-5.47 1.54-8.75 3.09-17.49 4.42-26.27 1.25-8.24 2.76-16.5 3.16-24.8.36-7.31-2.01-14.15-7.92-19.73z"/><path d="m217.71 207.9c1.79 1.84 4.11 3.41 5.26 5.59 2.75 5.21 5.23 10.61 7.22 16.15.83 2.3.56 5.24.03 7.73-1.15 5.48-2.69 10.89-4.3 16.26-.32 1.06-1.49 2.17-2.54 2.63-2.11.93-4.48 1.29-6.63 2.16-1.86.75-2.65-.03-3.48-1.52-5.06-9.13-5.61-18.79-3.08-28.66 1.73-6.72 4.02-13.3 6.06-19.94.49-.13.97-.27 1.46-.4z"/></g></svg>