<svg enable-background="new 0 0 400 400" viewBox="0 0 400 400" xmlns="http://www.w3.org/2000/svg"><path d="m166.32 362.92c-.9-1.29-1.94-2.25-2.32-3.43-1.52-4.62-2.78-9.33-4.27-13.97-.28-.87-1.15-1.55-1.75-2.31-.67.55-1.47 1-2 1.67-2.46 3.16-4.98 6.28-7.19 9.61-1.02 1.54-1.41 3.5-2.06 5.28-1.04 2.85-2.78 4.86-6.53 5.35.31-1.12.34-1.98.75-2.57 2.97-4.28 5.1-8.85 6.84-13.83 3.91-11.18 9.12-21.92 12.9-33.14 2.52-7.46 5.98-14.91 5.27-23.15-.13-1.51-.8-3.18-1.75-4.35-1.59-1.96-3.73-3.46-5.42-5.36-1.98-2.21-4.19-4.42-5.38-7.05-.68-1.5.08-4.03.92-5.75 1.09-2.24 2.44-4.91 4.45-6.06 7.65-4.37 12.81-11.24 18.73-17.39 5-5.19 10.28-10.11 15.37-15.22 1.1-1.1 1.94-2.48 2.79-3.8 1.94-3 3.88-6.02 5.71-9.09 1.01-1.71 2-3.49 2.63-5.36 1.01-2.97 2.04-6.01 2.44-9.09.26-2.01-.57-4.16-1.07-7.26-2.93 2.67-5.28 4.72-7.51 6.89-2.41 2.34-4.86 4.14-8.27 5.35-5.74 2.03-11.3 3.82-17.48 3.85-2.39.01-4.72 1.78-7.18 2.21-3.01.54-6.14.37-9.17.79-5.16.72-9.91 2.71-14.04 5.83-4.2 3.17-8.15 6.48-14 5.29-3.98-.81-5.71-2.74-4.76-6.64 2.35-9.63 3.75-19.69 9.85-27.93 4.65-6.28 9.62-12.36 14.82-18.19 2.29-2.58 3.1-4.67 1.32-7.74-4.65-8.04-9.08-16.21-13.79-24.21-1.79-3.05-3.87-6-6.24-8.62-3.77-4.17-7.89-8.01-11.84-12.02-.5-.51-1.08-1.12-1.22-1.78-.84-3.79-1.56-7.6-2.32-11.4.26-.24.52-.47.78-.71 1.56.64 3.15 1.22 4.67 1.94 2.42 1.16 3.28.7 3.38-2 .13-3.49.28-6.99.28-10.48 0-3.58.57-6.91 2.78-9.88.57-.76.53-1.99.71-3.01.94-5.17 1.85-10.35 2.83-15.83 2.13.59 3.62 1 5.38 1.48-1.1 7.64-2.16 15.17-3.29 22.69-.08.56-.74 1.01-.94 1.58-.75 2.12-2.2 4.35-1.98 6.38.58 5.25-.21 10.13-2.25 14.88-.74 1.72-.42 2.75.97 4.09 2.66 2.57 4.94 5.52 7.45 8.25 3.6 3.9 5.86 3.57 7.16-1.44 1.72-6.61 2.94-13.36 4.38-20.04.13-.6.31-1.2.52-1.78.87-2.45 1.8-4.88 2.64-7.34.37-1.1.29-2.45.91-3.33.73-1.03 1.92-2.07 3.08-2.31.53-.11 1.9 1.61 2.1 2.65.33 1.72.18 3.59-.07 5.35-.24 1.66-1.31 3.28-1.25 4.89.23 5.85-1.4 11.25-3.44 16.59-1 2.6-2.07 5.18-3.17 7.74-.41.97-.91 1.93-1.51 2.79-3.62 5.24-2.92 9.93 1.26 14.64 1.78 2 2.75 4.73 3.98 7.18 1.27 2.55 2.21 5.29 3.64 7.75 2.35 4.02 5.79 4.82 9.74 2.44s7.99-4.78 10.36-8.91c1.71-2.98 3.07-5.73 2.11-9.86-1.17-4.99-.41-10.49-.13-15.75.16-2.89.56-5.83 1.03-8.71.5-3.11-.43-6.96-3.96-9.42-2.99-2.08-4.47-5.49-6.15-8.88-1.51-3.05-1.76-7.1-5.37-9.33-2.7-1.67-2.39-8.59-1.24-11.68 2.01-5.38 7.3-9.21 7.17-15.53-.01-.47.33-1.01.64-1.42 6.15-8.16 9.29-17.78 13.1-27.08.28-.68.59-1.34.86-1.97 4.72-.01 5.56.73 5.74 5.13.15 3.67-.73 6.68-3.17 9.88-3.14 4.13-4.73 9.41-7.26 14.05-1.21 2.22-3.05 4.1-4.6 6.13-.25.33-.74.67-.72.98.27 4.12-3.2 6.28-4.89 9.35-2.21 4.02-1.89 6.43.83 10.18 2.03 2.8 3.36 6.1 5.27 9.01 1.3 1.99 3.04 3.68 4.95 5.25.85-8.14 2.54-15.55 6.47-23.11 3.33 4.86 5.03 8.99 3.44 14.22-1.56 5.14-1.22 5.67 1.26 8.48 5.34-5.44 10.67-10.87 16.35-16.65.4 3.25.62 5.85-1.36 8.22-2.91 3.49-5.21 7.67-8.66 10.47-4.01 3.26-5.48 7.51-7.15 11.9-.11.3-.2.65-.41.85-4.41 4.04-3.63 9.37-3.76 14.54-.11 4.42-.62 8.84-1.02 14.11 1.66-.71 3.32-.99 4.37-1.95 8.98-8.1 17.53-16.61 24.32-26.72.62-.93 1.75-1.51 2.65-2.26.33.2.66.4 1 .6-1.12 3.67-2.36 7.3-3.3 11.01-.47 1.85-.66 3.86-.49 5.76.63 6.93 1.47 13.83 2.23 20.75-3.1 4.31-.88 9.23-1.44 13.84-.79 6.52-.69 13.16-.75 19.75-.01 1.37 1.46 2.75 1.44 4.11-.1 6.61-.07 13.26-.86 19.8-.83 6.85-4.8 12.31-9.51 17.24-2.32 2.43-4.26 5.23-6.61 7.64-1.2 1.23-2.95 1.92-4.39 2.93-.65.45-1.55 1.05-1.65 1.68-.42 2.74-2.52 3.91-4.38 5.48-7.92 6.68-15.8 13.43-23.46 20.41-.94.86-1.2 3.65-.54 4.87 2.1 3.89 4.77 7.47 7.25 11.16.21.32.74.74.98.66 3.21-1.01 5.97.29 8.75 1.59.33.16.98.14 1.23-.08 3.84-3.45 8.81-1.7 12.71-1.44 4.94.33 9.11-1.86 13.71-1.77 3.91.07 7.46-.16 11.11-2.37 2.46-1.49 6.14-1.04 9.29-1.28 2.62-.2 5.26-.18 7.88-.16.91.01 1.87.2 2.73.51 4.07 1.49 8.17 2.92 12.13 4.66 2.02.89 4 2.15 5.6 3.67 1.78 1.7 3.06 1.17 4.22-.34 1.41-1.85 2.48-3.96 3.87-5.82 1.18-1.58 2.66-2.94 3.95-4.44.67-.78 1.4-1.59 1.77-2.52 1.18-2.95 2.34-5.92 3.25-8.95.76-2.53 2.21-3.98 4.84-4.22 1.82 3.92.48 10.02-2.56 13.54-1.52 1.76-2.42 4.05-3.68 6.05-.66 1.03-1.46 1.98-2.26 2.92-.81.95-1.86 1.73-2.5 2.78-2.3 3.74-4.17 7.23-.11 11.46 2.39 2.49 3.51 6.22 5.07 9.47 3.36 7 3.42 14.13.33 21.21-1.93 4.41-1.83 8.51.67 12.71 4.31 7.23 7.25 14.99 7.56 24.25-.95-.63-2.26-1.05-2.79-1.94-1.92-3.23-3.63-6.59-5.32-9.95-1.16-2.31-2.12-4.73-3.26-7.05-.29-.59-.95-.99-1.43-1.48-.52.57-1.14 1.08-1.53 1.73-1.55 2.63-2.82 5.46-4.62 7.91-1.04 1.42-2.88 2.25-4.35 3.35-.37-.18-.74-.35-1.12-.53.17-1.76-.25-3.93.62-5.2 4.84-7 5.66-15.34 8.14-23.12.86-2.71 1.25-5.57 1.8-8.37 1.91-9.79-8.29-23.61-15.85-27.22-5.61-2.68-11.06-4.53-17.17-5.02-2.38-.19-4.71-1.15-7.05-1.78-2.27-.61-4.56-2.08-6.68.36-.17.2-.63.3-.9.23-4.31-1.12-7.67 1.81-11.51 2.57-3.78.74-7.73.57-11.6.89-2.59.21-5.18.51-7.76.86-3.85.53-7.67 1.27-11.53 1.66-1.88.19-2.92.72-3.78 2.58-3.53 7.68-4.14 16.07-6.23 24.1-.47 1.81-1.15 3.66-2.15 5.23-2.23 3.5-2.66 6.97-1.11 10.86 1.68 4.21 3.04 8.55 4.58 12.82 1.57 4.36 1.58 8.61-1.52 13.3zm38.3-221.98c-2.65 3.1-5.22 6.09-7.77 9.1-6.07 7.16-15.01 10.52-21.89 16.61-4.06-.46-6.16 2.23-8.24 5.03-.32.43-1.12.56-1.73.72-2 .54-2.85 1.67-2.98 3.87-.06 1-1.67 2.74-2.57 2.73-5.94-.07-10.18 2.69-13.74 7.13-2.52 3.14-5.14 6.23-8.02 9.04-4.69 4.57-4.06 10.09-3.27 15.69.1.71.76 1.34 1.16 2.01-.24-.38-.48-.77-.72-1.15 2.39-1.89 4.8-3.76 7.17-5.68 1.53-1.25 3.19-2.41 4.46-3.9 2.33-2.74 4.3-5.79 6.66-8.51 1.21-1.4 2.8-2.59 4.43-3.46 2.19-1.17 3.44-.15 3.17 2.33-.47 4.28-2.53 7.77-5.32 10.96-.97 1.11-1.57 2.54-2.34 3.82.19.27.39.53.58.8 1.16-.23 2.69-.06 3.41-.75 3.01-2.86 6.72-3.02 10.41-3 9.38.07 18.21-1.92 26.74-5.86 5.21-2.4 7.56-6.8 9.28-11.64.93-2.62.27-5.87 1.39-8.36 2.23-4.95 3.38-9.82 2.96-15.3-.43-5.69-.04-11.44-.17-17.16-.04-2.12-.16-4.5-3.06-5.07z" fill="#010000"/><path d="m134.33 58.27c2.77 2.7 3.03 5.21.99 9.15-.83-.29-1.72-.52-2.53-.9-1.28-.61-2.5-1.32-3.75-1.99.88-1.37 1.68-2.82 2.69-4.1.63-.8 1.6-1.35 2.6-2.16z" fill="#010000"/><g fill="#fafafb"><path d="m361.2 9.6.8-1c.9.7 1.9 1.4 2.9 2.3l-.9 1.1c-1-1-2-1.8-2.8-2.4zm.5 10.6c.9-2.1 1.6-4.3 2.3-6.7.4.2.8.4 1.3.6-.7 2.1-1.5 4.3-2.2 6.6zm.4-15.2.9-.9c1 .8 2 1.6 2.8 2.4l-1 1c-.9-.9-1.8-1.7-2.7-2.5zm12.5-1.2h1.2v1.4h2.7v1.1h-2.7v2.7h-1.2v-.6h-1.8v1.3h4.9v3.8h-1.2v-.5h-3.7c0 .4-.1.9-.1 1.2h5.1v1h-5.2c0 .5-.1.9-.2 1.2h6v1h-5.2c1.1 1.3 2.9 2 5.5 2.2-.4.4-.7.8-.9 1.3-2.9-.5-4.8-1.6-5.7-3.5h-.1c-.8 1.7-2.7 2.9-5.9 3.6-.2-.4-.6-.8-.9-1.1 2.8-.6 4.6-1.4 5.4-2.5h-4.8v-1h5.3c.1-.3.2-.7.2-1.2h-4.9v-1h5c0-.4 0-.8.1-1.2h-3.5v.5h-1.2v-3.8h4.9v-1.3h-1.8v.5h-1.2v-2.7h-2.7v-1h2.6v-1.4h1.2v1.4h4.7v-1.4zm-6.6 8.3h3.6c0-.4 0-.9 0-1.4h-3.6zm1.9-4.6h4.7v-1.3h-4.7zm6.6 3.2h-3.7v1.4h3.7z"/><path d="m385.3 3.8h1.3v2.2h2.8v-2.2h1.3v2.2h4.1v9.1h1.7v1.3h-16.9v-1.3h1.7v-9.1h4.1v-2.2zm.4 13.1.7 1.2c-1.8.9-3.8 1.9-6 2.9-.2-.4-.5-.8-.8-1.3 2.3-1 4.3-1.9 6.1-2.8zm-3.1-6.4h2.8v-3.2h-2.8zm0 4.6h2.8v-3.3h-2.8zm4-4.6h2.8v-3.2h-2.8zm0 4.6h2.8v-3.3h-2.8zm3.7 1.9c2.1.9 4.1 1.8 6.1 2.7l-.7 1.3c-2.2-1.1-4.2-2-6.1-2.9zm3.2-9.7h-2.8v3.2h2.8zm-2.8 7.8h2.8v-3.3h-2.8z"/></g></svg>