<svg enable-background="new 0 0 400 400" viewBox="0 0 400 400" xmlns="http://www.w3.org/2000/svg"><path d="m207.97 300.95c0 5.44-.02 10.71.01 15.98.02 3.81.34 7.64.08 11.44-.3 4.47-2.23 8.11-7.27 10.25-1.13-3.02-2.65-5.85-3.23-8.85-2.38-12.25-4.45-24.56-6.73-36.82-.23-1.22-.76-2.74-1.68-3.42-7.21-5.4-14.54-10.64-21.86-15.89-1.11-.79-2.35-1.47-3.62-1.97-2.97-1.18-5.66-1.17-7.96 1.66-2.67 3.28-5.59 6.36-8.41 9.52-.57-.26-1.14-.51-1.7-.77-.05-2.62-.52-5.32-.08-7.86 3.44-19.83 7.08-39.62 10.54-59.44.23-1.3 0-3.12-.78-4.07-3.08-3.72-6.1-7.63-9.81-10.66-5.59-4.56-7.65-10.49-8.3-17.2-.25-2.62 2.38-2.62 3.58-2.25 3.05.95 6.06 2.28 8.75 4 2.83 1.8 5.06 4.56 7.92 6.29 3.51 2.13 5.54 1.38 6.69-2.53 1.34-4.54 1.78-9.33 2.99-13.92 1.24-4.69 3.04-9.23 4.39-13.9 1.95-6.78 1.66-13.04-3.77-18.51-4.52-4.56-8.55-9.62-13.31-15.03-1.53 4.19-2.89 7.8-4.15 11.45-1.21 3.5-3.47 5.71-7.32 6.4-2.94-3.99-3.99-8.62-4.46-13.36-1.36-13.7-.83-27.32 2.53-40.72.3-1.2 1.33-2.56 2.4-3.16 1.77-.98 3.14-.31 4.28 1.68 5.03 8.83 10.08 17.65 15.53 26.23 2.16 3.4 5.35 6.14 8.08 9.18.44-.06.88-.11 1.32-.17.76-3.42 1.87-6.8 2.22-10.26 1.39-13.8 2.74-27.61 3.69-41.44.43-6.31.16-12.71-.25-19.04-.41-6.35 1.13-11.88 4.91-16.98 1.57-2.12 2.99-2.18 5-.92 4.87 3.05 6.15 7.95 6.52 13.12.57 7.93.71 15.88 1.26 23.81.1 1.48 1.25 2.89 1.92 4.33 1.41-.79 3.12-1.31 4.18-2.44 3.76-4.02 7.03-8.54 11.02-12.3 2.18-2.06 5.36-3.19 8.24-4.34 1.75-.69 2.96.09 3.56 2.33 3.57 13.26 3.97 26.8 3.66 40.39-.13 5.92-.93 11.82-1.41 17.73-.21 2.59-1.23 4.42-4.4 4.63-4.08-11.98-8.19-24.04-12.3-36.1-.34-.13-.68-.26-1.02-.4-5.24 8.64-10.98 17.03-15.51 26.03-2.03 4.04-1.59 9.3-2.33 14-1.76 11.17-1.05 22.4-1.17 33.62-.07 6.69-1.91 13.37-3.03 20.04-.89 5.29-1.91 10.57-2.9 16.02 3.4.29 6.17-.08 8.84-2.14 8.29-6.39 16.76-12.56 25.9-19.38-3.14 8.23-4.15 16.24-10.99 21.87-5.62 4.62-10.09 10.63-15.6 15.4-4.97 4.3-5.11 9.06-3.28 14.55 1.94 5.82 4.18 11.55 5.84 17.44 3.24 11.51 6.06 23.14 9.3 34.66.55 1.94 1.93 4.17 3.59 5.18 4.49 2.72 9.18 5.29 14.08 7.15 19.06 7.25 33.08 27.25 33.05 47.73-.01 6.13-.12 12.16 2.38 18.06 1.1 2.59.52 5.89.69 8.78-3.7.62-5.25-.82-6.95-3.08-8.99-12-12.05-26.49-17.18-40.1-2.63-6.99-5.86-13.4-12.5-17.45-4.03-2.46-8.43-3.75-13.68-4.08zm-34.7-73.63c-1.55 4.47-3.21 8.7-4.46 13.04-1.14 3.94-1.9 8-2.73 12.02-.45 2.16.33 3.77 2.24 5.09 3.21 2.23 6.12 4.9 9.39 7.04 2.47 1.62 5.3 2.69 8.68 4.36-1.17-5.35-2.1-9.77-3.11-14.17-1.67-7.31-3.3-14.63-5.13-21.91-.58-2.3-1.47-4.67-4.88-5.47z" fill="#010000"/><g fill="#fafafb"><path d="m361.2 9.6.8-1c.9.7 1.9 1.4 2.9 2.3l-.9 1.1c-1-1-2-1.8-2.8-2.4zm.5 10.6c.9-2.1 1.6-4.3 2.3-6.7.4.2.8.4 1.3.6-.7 2.1-1.5 4.3-2.2 6.6zm.4-15.2.9-.9c1 .8 2 1.6 2.8 2.4l-1 1c-.9-.9-1.8-1.7-2.7-2.5zm12.5-1.2h1.2v1.4h2.7v1.1h-2.7v2.7h-1.2v-.6h-1.8v1.3h4.9v3.8h-1.2v-.5h-3.7c0 .4-.1.9-.1 1.2h5.1v1h-5.2c0 .5-.1.9-.2 1.2h6v1h-5.2c1.1 1.3 2.9 2 5.5 2.2-.4.4-.7.8-.9 1.3-2.9-.5-4.8-1.6-5.7-3.5h-.1c-.8 1.7-2.7 2.9-5.9 3.6-.2-.4-.6-.8-.9-1.1 2.8-.6 4.6-1.4 5.4-2.5h-4.8v-1h5.3c.1-.3.2-.7.2-1.2h-4.9v-1h5c0-.4 0-.8.1-1.2h-3.5v.5h-1.2v-3.8h4.9v-1.3h-1.8v.5h-1.2v-2.7h-2.7v-1h2.6v-1.4h1.2v1.4h4.7v-1.4zm-6.6 8.3h3.6c0-.4 0-.9 0-1.4h-3.6zm1.9-4.6h4.7v-1.3h-4.7zm6.6 3.2h-3.7v1.4h3.7z"/><path d="m385.3 3.8h1.3v2.2h2.8v-2.2h1.3v2.2h4.1v9.1h1.7v1.3h-16.9v-1.3h1.7v-9.1h4.1v-2.2zm.4 13.1.7 1.2c-1.8.9-3.8 1.9-6 2.9-.2-.4-.5-.8-.8-1.3 2.3-1 4.3-1.9 6.1-2.8zm-3.1-6.4h2.8v-3.2h-2.8zm0 4.6h2.8v-3.3h-2.8zm4-4.6h2.8v-3.2h-2.8zm0 4.6h2.8v-3.3h-2.8zm3.7 1.9c2.1.9 4.1 1.8 6.1 2.7l-.7 1.3c-2.2-1.1-4.2-2-6.1-2.9zm3.2-9.7h-2.8v3.2h2.8zm-2.8 7.8h2.8v-3.3h-2.8z"/></g></svg>