<svg enable-background="new 0 0 400 400" viewBox="0 0 400 400" xmlns="http://www.w3.org/2000/svg"><g fill="#010105"><path d="m75.74 340.59c1.7-7.58 1-14.97-.83-22.18-4-15.75-3.14-31.48-.89-47.33 1.4-9.85 2.21-19.79 3.44-29.67.9-7.25-.98-14.13-2.68-20.99-1.61-6.5-2.4-12.87-.23-19.31 1.34-3.99.87-7.6-1.49-11.08-1.72-2.53-2.32-4.78-.46-8.01 1.43-2.48 1.64-6.25 1.08-9.19-1.81-9.46-.65-18.77.25-28.17.82-8.54 1.11-17.13 1.78-25.69 1.35-17.21 2.79-34.42 4.21-51.62.19-2.32.83-4.64.76-6.94-.42-12.37 12.11-22.65 23.67-23.75 14.45-1.37 28.92-1.46 43.45-.88 18.77.74 37.37 2.83 56.01 4.88 6.68.73 13.53-.03 20.3-.22 14.4-.41 28.81-1.48 43.2-1.18 13.93.29 28-.01 41.72 3.17 2.63.61 5.1 2.02 7.56 3.22 3.39 1.66 5.06 4.26 4.08 8.18-.25 1.02-.45 2.14-.3 3.15.81 5.3-2.39 7.28-6.66 9.04-9.49 3.91-19.26 4.77-29.3 3.48-8.4-1.08-16.77-2.45-25.18-3.37-3.22-.35-6.59-.12-9.81.4-14.59 2.38-28.88-.38-43.26-2.13-23.38-2.84-46.84-4.54-70.39-2.78-11.55.87-22.96 2.71-33.08 8.97-.94.58-2.2 2.15-1.98 2.85 1.75 5.66.81 11.29.54 17-.85 18.1-1.28 36.22-2.06 54.32-.2 4.71-.62 9.53-1.81 14.07-1.54 5.88-1.89 11.66-.81 17.56 1.52 8.28.13 16.45-.63 24.67-1.15 12.4-.26 24.71 1.04 37.1.98 9.3.75 18.84 0 28.19-.77 9.7-.79 19.17 1.29 28.72 2.97 13.64-.09 26.59-6.07 38.8-3.46 7.04-9.61 9.18-16.46 6.72z"/><path d="m197.54 99.65c5.79.83 11.36 1.55 16.89 2.47.94.16 2.1.97 2.55 1.81 4.31 8.09 6.02 16.53 4.11 25.75-1.59 7.66-2.5 15.46-3.51 23.22-.28 2.17-.92 3.81-2.78 5-5.26 3.37-10.48 6.79-15.73 10.17-.8.52-1.62 1.01-2.47 1.43-7.75 3.79-11.04 9.34-10.17 18.52 1.39 14.64 1.82 29.43 1.71 44.15-.07 10.45-1.63 20.9-2.63 31.33-1.6 16.77-3.55 33.52-4.8 50.32-.42 5.62.93 11.37 1.36 17.07.1 1.32-.02 2.76-.46 4-3.01 8.48-6.2 16.89-9.18 25.38-.72 2.05-1.79 2.56-3.74 2.11-1.44-.33-2.94-.73-4.39-.67-5 .22-7.37-2.87-8.18-7.02-1.18-5.98-2.61-12.11-2.4-18.13 1.36-38.88 2.95-77.75 4.88-116.61.67-13.53 2.43-27.01 3.94-40.49.28-2.5-.48-3.57-2.45-4.7-7.35-4.2-14.56-8.65-21.92-12.84-8.66-4.94-10.69-13.38-11.36-22.18-1.14-15.1.56-30.05 3.85-44.82.07-.29.28-.56.61-1.18 5.84 1.54 11.76 3.01 17.6 4.75.63.19 1.23 1.91 1.14 2.86-.81 9.17-1.84 18.31-2.65 27.48-.36 4.08-.94 8.26-.43 12.27.91 7.12 5.18 10.68 13.25 11.63.46-3.59 1.38-7.22 1.28-10.82-.21-7.72-.84-15.44-1.5-23.14-.85-9.83-.18-19.29 5.69-27.7 3.18-4.55 4.13-4.87 9.5-3.36 7.12 2.01 11.01 6.6 12 13.95 1.42 10.57-.2 20.89-2.16 31.24-.57 3.04-.1 6.3.08 9.44.13 2.15 1.14 4.41 3.47 4.17 2.19-.23 5.37-1.19 6.14-2.79 2.21-4.61 4.15-9.59 4.86-14.61.93-6.57.63-13.32.72-19.99.01-.89-.52-2.09-1.2-2.65-2.24-1.83-2.34-4.04-1.52-6.82z"/><path d="m248.65 94.65c3.05 8.38 3.16 16.93 3.11 25.53-.04 6.87-.35 13.79.43 20.58.65 5.66 4.01 9.93 10.97 11.19.76-4.55 2.06-8.98 2.14-13.43.15-9.32-.77-18.66-.41-27.96.22-5.94 1.85-11.83 3.02-17.71.54-2.73 2.43-2.76 5.02-2.65 8.41.36 10.82 7.56 15.03 12.65.67.81.28 2.65.12 3.98-1.36 11.58-2.71 23.15-4.24 34.71-.37 2.83.36 4.36 3.29 4.1.92-.08 2.04-.83 2.59-1.61 6.01-8.54 9.19-18.3 11.89-28.25 1.66-6.13 3.13-12.17 2.37-18.76-.31-2.68 2.15-5.72 3.54-8.5.21-.41 1.48-.5 2.23-.41 11.5 1.38 17.69 9.72 14.44 21.34-3.9 13.93-9.01 27.53-13.68 41.24-.38 1.13-1.4 2.09-2.26 2.99-6.15 6.43-12.47 12.71-18.45 19.29-3.96 4.35-5.61 9.43-5.29 15.67 1.32 26.16 1.6 52.38-.24 78.51-1.24 17.63-3.68 35.18-5.82 52.73-1.61 13.25-3.68 26.44-5.37 39.68-.32 2.49-1.1 3.54-3.68 3.5-2.64-.04-5.31.17-7.91.59-2.34.38-3.8-.51-4.3-2.58-1.41-5.83-3.83-11.74-3.67-17.56.41-14.91 1.93-29.79 3.13-44.67 1.12-13.82 2.69-27.61 3.58-41.45 1.61-25.07 2.82-50.17 4.34-75.25.22-3.69-1.13-6.55-3.73-8.67-4.01-3.27-8.19-6.39-12.56-9.14-15.09-9.49-20.6-23.04-17.23-40.28 1.76-9.03 4.06-17.96 6.01-26.95.42-1.92 1.28-2.62 3.24-2.51 2.73.18 5.48.06 8.35.06z"/><path d="m220.64 365.91c-5.62 1.5-9.02-.19-11.8-4.55-5.95-9.34-6.49-19.29-5.13-29.93 1.63-12.8 3.31-25.7 3.35-38.56.06-21.02 1.28-41.92 3.07-62.83.17-2.03.97-4.16 2-5.94 3.5-6.07 1.9-11.58-1.41-17.01-.72-1.18-1.83-2.27-2.07-3.54-.53-2.83-.94-5.76-.8-8.61.12-2.46 1.45-3.69 4.5-3.14 4.77.87 9.68.93 14.51 1.46 5.68.61 9.86 3.55 12.55 8.57 1.41 2.64 1.3 5.33-1.1 7.19-5.22 4.04-6.19 9.16-5.55 15.45.46 4.53-1.12 9.23-.93 13.83.96 22.58-2.59 44.78-5 67.09-1.65 15.36-2.65 30.8-4.1 46.19-.46 4.91-1.41 9.77-2.09 14.33z"/><path d="m118.22 345.8c-3.07-4.91-4.18-9.98-2.92-15.21 2.17-9.01 2.18-18.02 1.21-27.16-1.73-16.32-.17-32.62.64-48.92.95-19.06 1.95-38.12 2.38-57.19.13-5.56 2.15-9.17 6.48-12.01.27-.17.5-.53.76-.55 4.87-.39 9.58.38 13.63 3.12 3.22 2.18 3.77 5.73 3.28 9.4-.53 3.99-1.37 7.95-1.7 11.95-.51 6.11-1.18 12.27-.93 18.38.53 13.14-1.01 26.02-3.86 38.78-1.68 7.52-2.66 14.96-.51 22.55.37 1.29.23 2.74.23 4.11.01 11.98.01 23.97.01 35.95 0 5.82-5.08 12.64-10.67 14.35-2.62.81-5.25 1.61-8.03 2.45z"/><path d="m301 250.84c0-23.7 0-40.55 0-57.41 0-4.43 4.9-7.7 8.91-5.8 2.28 1.08 4.48 2.4 6.53 3.88 2.62 1.9 4.05 4.6 4.08 7.89.03 3.28-.09 6.57-.09 9.85 0 5.08.21 10.16.05 15.23-.33 10.9-.65 21.81-1.31 32.69-1.26 20.73-2.92 41.44-4.1 62.18-.56 9.82-.11 19.69-.63 29.51-.27 5.11-1.63 10.16-2.55 15.22-.3 1.66-1.3 2.15-3.08 2.39-4.99.69-7.68-1.02-9.81-5.82-2.05-4.62-2.42-8.93-2.01-13.78 2.91-34.22 5.31-68.47 4.01-96.03z"/></g><path d="m377.9 391.2c-.2.3-.4.5-.6.8-.7-.6-1.4-1-2.2-1.5.2-.3.4-.5.5-.8.6.4 1.4.8 2.3 1.5zm-1.8 6.1c-.2-.2-.5-.4-.9-.6.4-.6.8-1.2 1.2-1.9s.7-1.3.9-1.9c.3.3.5.5.8.7-.7 1.3-1.4 2.6-2 3.7zm2.2-9c-.3.3-.5.5-.6.8-.6-.6-1.3-1.1-2-1.5.3-.3.5-.5.6-.7.6.5 1.3.9 2 1.4zm.3.2v-.9h2 4.5c-.3 1.3-.6 2.5-1 3.6s-.9 2.1-1.4 3c.4.5 1 1 1.6 1.4s1.2.8 1.9 1.1c-.3.2-.5.4-.8.8-.4-.3-1-.7-1.6-1.2s-1.2-1.1-1.6-1.6c-.5.6-1.1 1.1-1.7 1.6s-1.4.9-2.1 1.4c-.1-.3-.3-.5-.7-.8.6-.2 1.2-.5 1.9-1s1.4-1.1 2-1.8c-.5-.8-.9-1.6-1.2-2.5s-.6-2-.8-3.2c-.4.1-.7.1-1 .1zm2.5 2.7c.3 1 .7 1.7 1 2.2.3-.5.6-1.1 1-2s.6-1.9.9-3h-3.2-.4c.1.9.3 1.8.7 2.8z" fill="#fafbfa"/><path d="m396.5 388.5v1.5 3.6h1.5v.9c-.4 0-1 0-1.7 0h-7.9c-.5 0-.9 0-1.2 0v-.9h1.3v-3.5c0-.7 0-1.2 0-1.6h2.4c0-.8 0-1.4 0-1.7h1c0 .3-.1.8-.1 1.7h1.5c0-.8 0-1.4 0-1.7h1c0 .3-.1.9-.1 1.7zm-8.2 9.2c-.2-.3-.5-.5-.8-.8.8-.3 1.4-.6 1.9-.9s1-.7 1.4-1.1c.3.3.6.5.9.8-1.6 1-2.8 1.6-3.4 2zm2.6-6.8v-1.6h-1.5v1.6zm0 2.7v-1.9h-1.5v1.9zm2.4-2.7v-1.6h-1.5v1.6zm0 2.7v-1.9h-1.5v1.9zm.2 2 .7-.8c.4.2.9.5 1.6.8s1.3.7 1.8 1c-.3.3-.5.5-.8.8-.4-.3-1.5-1-3.3-1.8zm2-4.7v-1.6h-1.4v1.6zm0 2.7v-1.9h-1.4v1.9z" fill="#fafbfa"/></svg>