<svg enable-background="new 0 0 400 400" viewBox="0 0 400 400" xmlns="http://www.w3.org/2000/svg"><path d="m165.78 365.46c1.47-7.66 2.61-15.41 4.51-22.97 2.55-10.16 5.66-20.17 8.6-30.23.28-.97.84-1.96 1.53-2.71 5.63-6.16 9.06-13.5 11.52-21.34 1.39-4.44.65-8.15-2.64-11.95-5.18-5.99-9.78-12.53-14.21-19.12-1.22-1.82-.83-4.68-1.44-6.99-.37-1.41-.9-3.27-1.97-3.91-4.35-2.59-5.72-6.69-6.17-11.22-1.21-12.32.78-24.27 4.42-36.01.19-.6.35-1.32.78-1.72 4.58-4.28 5.77-10.22 7.9-15.72 2.44-6.32 4.93-12.62 10.07-17.42.85-.79 1.29-2.16 1.61-3.34 1.58-5.82 3.11-11.66 4.52-17.53.39-1.6.42-3.32.41-4.98-.03-3.35-1.65-5.3-5.69-5.26-1.98 3.04-4.16 6.39-6.36 9.73-.52.79-.96 1.98-1.7 2.23-3.85 1.32-4.66 4.96-6.39 7.9-5.58 9.49-11.24 18.93-16.7 28.49-4.73 8.27-9.66 16.48-13.64 25.11-1.92 4.15-2.9 9.29-2.52 13.83 1.29 15.61 3.39 31.16 5.12 46.74.3 2.73.58 5.52.3 8.22-.13 1.27-1.6 2.41-2.47 3.61-1.06-.79-2.55-1.34-3.12-2.39-4.67-8.62-6.75-18.03-7.69-27.67-1.28-13.1-1.91-26.29.05-39.34.98-6.53 3.43-12.84 5.16-19.27 1.36-5.07 3.68-9.59 6.75-13.88 6.1-8.53 12.09-17.16 17.81-25.95 3.68-5.66 6.78-11.69 10.21-17.51.73-1.25 1.7-2.38 2.67-3.46 5.22-5.83 10.72-11.44 15.63-17.52 3.02-3.74 4.02-8.4 4.11-13.4.15-8.14 1.33-16.26 1.39-24.4.08-11.23-.49-22.46-.77-33.69-.04-1.69-.01-3.38-.01-5.43 3.96 1.44 6.05 4.34 6.81 7.9 1.26 5.89 2.24 11.86 2.94 17.84 1.52 12.91 4.09 25.74 2.31 38.91-.82 6.05-.64 12.25-.68 18.39-.03 5.32 2.47 9.45 6.49 12.88 8.06 6.87 16.11 13.77 23.94 20.9 4.75 4.32 8.5 9.44 9.44 16.1.09.62.18 1.36.56 1.8 3.6 4.28 2.75 9.31 2.53 14.25-.73 16.54-.42 33.03 1.04 49.54 1.18 13.4-.73 26.65-3.97 39.69-.16.66-.55 1.27-1.22 2.8-.57-1.84-.97-2.83-1.18-3.87-.58-2.94-.68-6.04-1.7-8.81-1.35-3.64-2.02-7.22-2.09-11.11-.24-13.14-.95-26.27-1.14-39.42-.12-8.15.44-16.31.58-24.46.06-3.27-.01-6.57-.35-9.83-.76-7.25-4.29-12.84-10.16-17.24-5.33-3.99-10.24-8.54-15.42-12.73-2.1-1.7-4.45-3.1-6.69-4.63-.4.13-.8.26-1.2.39-.11 2.96-.86 6.07-.19 8.85.98 4.06 2.41 8.24 4.65 11.73 5.18 8.06 8.56 16.68 10.67 25.97 1.29 5.65 3.98 11.01 5.01 16.69 2.06 11.27.76 22.47-3.38 33.12-3.86 9.95-8.51 19.58-12.52 29.48-4.05 9.98-3.89 10.04 3.19 18.01 4.79 5.39 9.38 10.98 14.41 16.13 3.46 3.53 7.56 6.43 11.31 9.69 1 .87 2.19 1.87 2.57 3.05 2.64 8.22 7.42 15.14 12.71 21.81 3.01 3.79 5.04 8.07 5.17 13.93-1.41-.26-3.04-.05-3.76-.77-7.53-7.45-15.06-14.9-22.27-22.65-3.58-3.86-6.36-8.45-9.73-12.53-3.09-3.74-6.44-7.25-9.74-10.81-2.23-2.4-4.58-4.68-6.85-7.04-.81-.84-1.46-1.82-2.3-2.63-5.19-5.05-6.83-4.85-10.7 1.17-5.51 8.57-8.65 18.11-11.28 27.85-.69 2.55-1.5 5.07-2.21 7.61-1.61 5.79-3.3 11.57-4.74 17.41-.84 3.42-2.31 6.27-4.95 8.65-1.46 1.32-2.47 3.13-3.79 4.61-.83.93-1.87 1.66-2.82 2.48-.28-.23-.58-.43-.88-.63zm36.07-194.84c-9.64 10.99-17.28 22.17-21.28 35.57-2.51 8.43-4.12 16.9-2.59 25.66 2.07 11.89 8.84 21.13 17.03 29.51 3.17 3.25 5.66 3.16 8.7-.32.97-1.1 1.75-2.39 2.5-3.66 5.55-9.41 10.36-19.19 13.35-29.72.89-3.15 1.21-6.61 1.04-9.89-.15-3.01-1.01-6.08-2.08-8.93-4.06-10.89-8.25-21.74-12.61-32.52-.81-2.05-2.6-3.7-4.06-5.7z" fill="#010000"/><g fill="#fafafb"><path d="m361.2 9.6.8-1c.9.7 1.9 1.4 2.9 2.3l-.9 1.1c-1-1-2-1.8-2.8-2.4zm.5 10.6c.9-2.1 1.6-4.3 2.3-6.7.4.2.8.4 1.3.6-.7 2.1-1.5 4.3-2.2 6.6zm.4-15.2.9-.9c1 .8 2 1.6 2.8 2.4l-1 1c-.9-.9-1.8-1.7-2.7-2.5zm12.5-1.2h1.2v1.4h2.7v1.1h-2.7v2.7h-1.2v-.6h-1.8v1.3h4.9v3.8h-1.2v-.5h-3.7c0 .4-.1.9-.1 1.2h5.1v1h-5.2c0 .5-.1.9-.2 1.2h6v1h-5.2c1.1 1.3 2.9 2 5.5 2.2-.4.4-.7.8-.9 1.3-2.9-.5-4.8-1.6-5.7-3.5h-.1c-.8 1.7-2.7 2.9-5.9 3.6-.2-.4-.6-.8-.9-1.1 2.8-.6 4.6-1.4 5.4-2.5h-4.8v-1h5.3c.1-.3.2-.7.2-1.2h-4.9v-1h5c0-.4 0-.8.1-1.2h-3.5v.5h-1.2v-3.8h4.9v-1.3h-1.8v.5h-1.2v-2.7h-2.7v-1h2.6v-1.4h1.2v1.4h4.7v-1.4zm-6.6 8.3h3.6c0-.4 0-.9 0-1.4h-3.6zm1.9-4.6h4.7v-1.3h-4.7zm6.6 3.2h-3.7v1.4h3.7z"/><path d="m385.3 3.8h1.3v2.2h2.8v-2.2h1.3v2.2h4.1v9.1h1.7v1.3h-16.9v-1.3h1.7v-9.1h4.1v-2.2zm.4 13.1.7 1.2c-1.8.9-3.8 1.9-6 2.9-.2-.4-.5-.8-.8-1.3 2.3-1 4.3-1.9 6.1-2.8zm-3.1-6.4h2.8v-3.2h-2.8zm0 4.6h2.8v-3.3h-2.8zm4-4.6h2.8v-3.2h-2.8zm0 4.6h2.8v-3.3h-2.8zm3.7 1.9c2.1.9 4.1 1.8 6.1 2.7l-.7 1.3c-2.2-1.1-4.2-2-6.1-2.9zm3.2-9.7h-2.8v3.2h2.8zm-2.8 7.8h2.8v-3.3h-2.8z"/></g></svg>