<svg enable-background="new 0 0 400 400" viewBox="0 0 400 400" xmlns="http://www.w3.org/2000/svg"><path d="m196.32 275.75c0 2.95.1 5.91-.02 8.85-.27 6.98-.66 13.96-.97 20.94-.23 5.17-.71 10.35-.55 15.51.16 5.04-.42 9.83-1.8 14.7-.9 3.16-.77 6.69-.69 10.04.13 6.22-1.71 11.9-4.25 17.43-.51 1.1-1.47 1.98-2.75 3.65-.52-2.43-1.18-4.11-1.19-5.79-.06-14.18-.07-28.35.05-42.53.08-9.53.47-19.07.56-28.6.02-2.27-.1-4.79-1.06-6.76-1.35-2.78-2.78-5.18.46-7.87-.3-.24-.6-.48-.9-.71-.85.49-1.95.77-2.5 1.49-3.78 4.94-7.51 9.93-11.13 14.99-1.32 1.84-2.38 3.88-3.39 5.92-3.45 6.9-7.97 12.65-15.48 15.31-.37-.2-.74-.4-1.11-.6.81-1.85 1.24-4.04 2.51-5.49 5.46-6.23 8.92-13.58 12.67-20.84 5.25-10.15 10.78-20.17 16.43-30.11 1.49-2.61 1.68-4.98 1.25-7.82-1.12-7.42-2.46-14.87-2.78-22.35-.5-11.52-.13-23.07-.29-34.6-.1-7.33-.1-8.03 2.84-14.01-1.23.52-2.06.87-2.64 1.11-5.45-7.28-10.9-14.44-16.18-21.72-1.15-1.59-1.63-3.65-2.49-5.46-1.46-3.08-1.79-6.85-5.38-8.64-.39-.2-.6-.85-.8-1.34-4.63-11.47-9.92-22.7-11.6-35.18-.5-3.67-2.2-7.18-3.35-10.76-.32.02-.64.03-.97.05-2.22 3.58-4.46 7.15-6.66 10.73-.21.34-.44.83-.35 1.17.98 4.19-1.76 6.94-3.77 10-7.89 12.02-9.72 24.85-4.9 38.47 3.29 9.27 6.74 18.49 10.1 27.74.25.69.55 1.47.45 2.15-.23 1.42-.71 2.8-1.09 4.2-1.19-.63-2.61-1.01-3.52-1.91-5.94-5.93-8.41-13.56-10.09-21.5-.7-3.3-1.67-6.3-5.25-8.03-.82 1.94-1.58 3.77-2.38 5.59-1.02 2.32-1.69 4.92-3.18 6.89-4.43 5.87-6.93 12.52-9.03 19.45-.85 2.8-2.32 5.47-3.9 7.95-.88 1.38-2.57 2.23-3.9 3.33-.37-.2-.74-.39-1.1-.59.37-1.96.58-3.96 1.14-5.87 1.3-4.45 2.68-8.88 4.2-13.26.43-1.26 1.68-2.24 2.11-3.5 1.35-3.98 2.65-8 3.67-12.07 1.13-4.51 1.92-9.1 2.92-13.91-1.2-1.12-2.27-1.47-3.68.28-1.98 2.48-4.14 4.83-6.38 7.08-2.53 2.55-5.56 4.17-9.5 4.21-.14-2.96.3-5.48 2.29-7.9 7.12-8.68 14.03-17.53 21.03-26.31.66-.82 1.31-1.73 2.15-2.32 4.49-3.12 6.8-7.53 8.34-12.66 2.22-7.41 5.54-14.32 9.54-21.02 3.72-6.24 6.24-13.18 9.29-19.82.52-1.14 1.06-2.27 1.56-3.34 3.95.34 6.07 1.9 6.99 5.99 2.84 12.59 5.53 25.28 9.54 37.53 3.47 10.61 8.5 20.72 13.19 30.89 1.32 2.86 3.85 5.15 5.82 7.7.29-.13.59-.26.88-.4-.34-5.85-.48-11.72-1.08-17.54-1.06-10.38-.47-20.61.79-30.99.95-7.87 3.22-14.96 6.53-22.01 1.96-4.17 2.97-8.79 4.6-13.13 1.26-3.34 2.63-6.66 4.28-9.82 2.6-4.96 5.93-9.57 8.11-14.69 2.69-6.32 8.49-8.7 14.4-8 9.66 1.14 18.67 4.6 27.21 9.22 2.42 1.31 4.9 2.62 7.03 4.33 3.6 2.89 7.54 2.89 11.71 2.11 7.7-1.43 15.38-3.1 23.31-1.93 3.83.57 5.42 1.54 7.57 5.6-3.77.41-7.24.88-10.72 1.14-3.8.28-7.66.07-11.4.65-2.33.37-4.48 1.82-7.29 3.03 1.46 1.53 2.25 2.35 3.03 3.17 6.95 7.43 14.16 14.64 20.71 22.41 2.61 3.09 3.82 7.39 5.48 11.22.25.58-.35 2.18-.8 2.29-.83.2-2.24-.05-2.71-.66-5.23-6.64-12.53-10.71-19.05-15.75-3.33-2.57-6.33-5.57-9.5-8.35-1.34-1.17-2.61-2.56-4.16-3.34-2.33-1.17-4.44-.86-5.83 1.84-2.33 4.52-4.77 8.98-7.27 13.4-1.92 3.39-4.39 6.19-9.04 6.92-.18-1.68-.67-3.24-.45-4.7.69-4.65 1.19-9.22 3.82-13.54 2.36-3.87 3.41-8.59 4.68-13.03.32-1.1-.34-3.1-1.25-3.84-6.44-5.26-13.45-9.78-21.55-11.84-7.33-1.87-7.48-1.77-10.88 5.33-4.33 9.07-8.64 18.17-12.48 27.45-2.86 6.91-4.69 14.25-7.49 21.19-4.38 10.83-1.52 21.72-.82 32.58.61 9.51 1.54 19 2.45 28.49.16 1.71.94 3.36 1.43 5.03.53 1.82 1.11 3.62 1.56 5.45.49 2.04.85 4.12 1.46 7.13 1.38-2.64 2.29-4.47 3.28-6.25 4-7.21 7.93-14.46 12.1-21.57 1.49-2.54 3.58-4.72 5.4-7.06 7.3-9.36 14.53-18.78 21.95-28.04 1.75-2.18 4.04-3.99 6.3-5.68 1.72-1.29 3.12-.76 4.3 1.31 7.27 12.73 11.46 26.59 15.19 40.63.62 2.35 1.32 4.7 2.24 6.94 1.58 3.83 4.09 6.68 8.11 8.43 8.25 3.58 16.39 7.45 24.47 11.41 3.11 1.53 6.06 3.48 8.84 5.57.86.65.93 2.37 1.36 3.59-1.14.24-2.43.95-3.4.65-5.55-1.72-11.01-3.74-16.53-5.54-4-1.3-8.06-2.43-12.9-3.88.92 4.65 1.63 8.56 2.48 12.44 1.39 6.3 3.11 12.54 4.24 18.88.69 3.89.26 7.82-3.9 10.38-5.7-10.14-9.82-20.65-13.02-31.55-.83-2.83-1.57-5.66-4.32-7.54-6.27 9.82-6.49 22.81-17.09 30.38-2.49-4.64-1.53-9.21.51-12.7 2.42-4.14 3.28-8.38 4.12-12.84.42-2.24 1.05-4.56 2.15-6.53 1.56-2.81 2.09-5.59 1.92-8.78-.13-2.43.62-4.9.92-7.36.12-1.02.36-2.13.09-3.07-3.06-10.69-6.19-21.35-9.34-32.01-.26-.87-.79-1.65-1.18-2.44-.48.15-.75.15-.85.28-8.68 11.43-18.56 22.17-25.64 34.52-6.2 10.81-15.24 19.84-19.51 31.77-.14.4-.28.94-.59 1.1-3.65 1.94-3.03 5.2-2.38 8.24 1.95 9.11-.57 18.17-.06 27.24.37 6.54 1.08 13.07 1.82 19.59.12 1.1 1.06 2.17 1.77 3.14 2.48 3.39 5.87 6.4 7.39 10.16 5.73 14.27 14 27.06 22.23 39.89 5.28 8.22 10.38 16.52 13.02 26.03.78 2.79 1.15 5.7 1.89 9.45-1.51-.78-2.23-.95-2.65-1.4-12.48-13.23-22.27-28.23-29.28-45.03-1.3-3.12-2.4-6.38-4.11-9.27-1.46-2.45-3.67-4.45-5.55-6.65-.45.23-.83.41-1.21.6z" fill="#010000"/><g fill="#fafafb"><path d="m361.2 9.6.8-1c.9.7 1.9 1.4 2.9 2.3l-.9 1.1c-1-1-2-1.8-2.8-2.4zm.5 10.6c.9-2.1 1.6-4.3 2.3-6.7.4.2.8.4 1.3.6-.7 2.1-1.5 4.3-2.2 6.6zm.4-15.2.9-.9c1 .8 2 1.6 2.8 2.4l-1 1c-.9-.9-1.8-1.7-2.7-2.5zm12.5-1.2h1.2v1.4h2.7v1.1h-2.7v2.7h-1.2v-.6h-1.8v1.3h4.9v3.8h-1.2v-.5h-3.7c0 .4-.1.9-.1 1.2h5.1v1h-5.2c0 .5-.1.9-.2 1.2h6v1h-5.2c1.1 1.3 2.9 2 5.5 2.2-.4.4-.7.8-.9 1.3-2.9-.5-4.8-1.6-5.7-3.5h-.1c-.8 1.7-2.7 2.9-5.9 3.6-.2-.4-.6-.8-.9-1.1 2.8-.6 4.6-1.4 5.4-2.5h-4.8v-1h5.3c.1-.3.2-.7.2-1.2h-4.9v-1h5c0-.4 0-.8.1-1.2h-3.5v.5h-1.2v-3.8h4.9v-1.3h-1.8v.5h-1.2v-2.7h-2.7v-1h2.6v-1.4h1.2v1.4h4.7v-1.4zm-6.6 8.3h3.6c0-.4 0-.9 0-1.4h-3.6zm1.9-4.6h4.7v-1.3h-4.7zm6.6 3.2h-3.7v1.4h3.7z"/><path d="m385.3 3.8h1.3v2.2h2.8v-2.2h1.3v2.2h4.1v9.1h1.7v1.3h-16.9v-1.3h1.7v-9.1h4.1v-2.2zm.4 13.1.7 1.2c-1.8.9-3.8 1.9-6 2.9-.2-.4-.5-.8-.8-1.3 2.3-1 4.3-1.9 6.1-2.8zm-3.1-6.4h2.8v-3.2h-2.8zm0 4.6h2.8v-3.3h-2.8zm4-4.6h2.8v-3.2h-2.8zm0 4.6h2.8v-3.3h-2.8zm3.7 1.9c2.1.9 4.1 1.8 6.1 2.7l-.7 1.3c-2.2-1.1-4.2-2-6.1-2.9zm3.2-9.7h-2.8v3.2h2.8zm-2.8 7.8h2.8v-3.3h-2.8z"/></g></svg>