<svg enable-background="new 0 0 400 400" viewBox="0 0 400 400" xmlns="http://www.w3.org/2000/svg"><path d="m378.6 9.2.8-1c.9.7 1.9 1.4 2.9 2.3l-.9 1.1c-1.1-.9-2-1.7-2.8-2.4zm.5 10.7c.9-2.1 1.6-4.3 2.3-6.7.4.2.8.4 1.3.6-.7 2.1-1.5 4.3-2.2 6.6zm.4-15.2.9-.9c1 .8 2 1.6 2.8 2.4l-1 1c-1-.9-1.9-1.8-2.7-2.5zm12.5-1.3h1.2v1.4h2.7v1.1h-2.7v2.7h-1.2v-.5h-1.8v1.3h4.9v3.8h-1.2v-.5h-3.7c0 .4-.1.9-.1 1.2h5.1v1h-5.2c0 .5-.1.9-.2 1.2h6v1h-5.2c1.1 1.3 2.9 2 5.5 2.2-.4.4-.7.8-.9 1.3-2.9-.5-4.8-1.6-5.7-3.5h-.1c-.8 1.7-2.7 2.9-5.9 3.6-.2-.4-.6-.8-.9-1.1 2.8-.6 4.6-1.4 5.4-2.5h-4.8v-1h5.3c.1-.3.2-.7.2-1.2h-4.9v-1h5c0-.4 0-.8.1-1.2h-3.6v.5h-1.2v-3.8h4.9v-1.3h-1.8v.5h-1.2v-2.7h-2.6v-1.1h2.6v-1.4h1.2v1.4h4.7v-1.4zm-6.7 8.4h3.6c0-.4 0-.9 0-1.4h-3.6zm1.9-4.7h4.7v-1.2h-4.7zm6.7 3.3h-3.7v1.4h3.7z" fill="#fafbfc"/><path d="m384.7 21.4h1.3v2.2h2.8v-2.2h1.3v2.2h4.1v9.1h1.7v1.3h-16.9v-1.3h1.7v-9.1h4.1v-2.2zm.3 13.2.7 1.2c-1.8.9-3.8 1.9-6 2.9-.2-.4-.5-.8-.8-1.3 2.4-1 4.4-2 6.1-2.8zm-3.1-6.5h2.8v-3.2h-2.8zm0 4.6h2.8v-3.3h-2.8zm4.1-4.6h2.8v-3.2h-2.8zm0 4.6h2.8v-3.3h-2.8zm3.6 1.9c2.1.9 4.1 1.8 6.1 2.7l-.7 1.3c-2.2-1.1-4.2-2-6.1-2.9zm3.3-9.7h-2.8v3.2h2.8zm-2.8 7.8h2.8v-3.3h-2.8z" fill="#fafbfc"/><path d="m218.11 66.01c.26-.25 1.06-1.01 2-1.91.4.54.72.93 1 1.35 3.93 5.75 7.76 11.58 11.82 17.25 7.04 9.85 8.01 20.71 5.61 32.15-.19.91-1.05 1.8-1.81 2.45-5.45 4.72-10.99 9.33-16.44 14.05-4.04 3.51-7.65 7.39-9.14 12.71-.23.82.2 2.39.84 2.79 16.87 10.56 30.54 24.86 44.92 38.32 1.36 1.27 2.51 3.01 4.84 2.18.24-.09.62.11.9.25 3.66 1.78 7.56 10.96 6.15 15.49-1.62-.57-3.41-.85-4.8-1.74-7.31-4.7-14.4-9.74-21.8-14.29-5.21-3.2-8.89-7.8-12.66-12.36-3.48-4.22-7.76-7.11-12.84-9-4.46-1.66-8.86-3.47-13.76-5.4-.43 1.9-1.01 3.57-1.16 5.28-.78 9.18-1.34 18.39-2.2 27.56-.5 5.28 1.86 9.48 4.58 13.51 4.75 7.02 9.74 13.88 14.57 20.84.77 1.11 1.6 2.38 1.77 3.66.55 4.16 2.26 7.74 5.15 10.66 4.01 4.05 4.01 9.38 4.94 14.42 2.77 15.1 5.45 30.22 8.16 45.34.13.73.41 1.5.28 2.19-1.82 9.92 1.56 19.29 2.84 28.9.78 5.85 1.15 11.79 1.19 17.69.03 6.28-.24 6.28-7.1 7.63-2.27-7.76-6.84-14.66-7.67-23.18-.64-6.56-2.94-12.94-4.44-19.42-.54-2.34-1.43-4.78-1.22-7.09.76-8.65-2.7-16.41-4.55-24.52-.4-1.76-.14-3.68-.12-5.53.02-1.04.48-2.16.24-3.11-3.3-12.69-6.57-25.39-10.16-37.99-.78-2.75-2.49-5.43-4.35-7.64-3.35-3.99-7.43-4.12-11.25-.69-3.6 3.23-7.14 6.55-10.5 10.02-.83.86-1.08 2.47-1.21 3.77-1.26 12.54-2.69 25.06-3.5 37.63-.34 5.21.64 10.53 1.16 15.78.39 3.9 1.2 7.76 1.45 11.66.12 1.93-.29 4.03-1 5.84-3.15 8.13-1.64 16.55-1.77 24.85-.13 9.07-.13 18.15-.19 27.16-3.5.67-5.07-.38-6.29-2.79-3.31-6.56-4.71-13.57-5.38-20.78-1.22-13.17-3.46-26.36-3.36-39.53.15-20.54 1.88-41.07 3-61.6.06-1.12.53-2.25.95-3.32 6.32-15.93 12.67-31.85 18.99-47.77.23-.58.49-1.22.46-1.82-.34-6.76-.74-13.52-1.12-20.36-3.59-.35-6.1.64-8.63 3.09-9.29 9.01-18.95 17.63-30.36 23.96-2.92 1.62-6.11 2.76-9.35 4.19-.32-6.27 1.91-10.47 7.06-12.6 3.54-1.46 5.72-3.61 6.48-7.39.26-1.27 1.1-2.51 1.91-3.58 5.26-6.92 10.68-13.64 18.32-18.26 3.93-2.37 5.14-6.25 3.96-11.01-9.12-.14-15.43-6.24-22.6-10.63-1.96-1.2-4.45-1.54-6.69-2.3-2.25-.76-4.85-1.05-6.66-2.4-7.36-5.53-11.55-12.97-11.43-22.31.08-6.02.74-12.03 1.28-18.04.11-1.21.67-2.46 1.32-3.51 3.28-5.32 6.41-10.76 10.1-15.79 1.67-2.28 4.61-3.59 6.81-5.53 1.93-1.7 4.26-3.38 5.26-5.6 1.76-3.88 4.95-5.65 8.33-7.37 2.27-1.16 3.97-2.65 4.84-5.13.33-.93 1.04-1.9 1.84-2.47 4.49-3.2 9-6.36 13.64-9.33.83-.53 2.5-.49 3.42-.02 3.19 1.65 6.41 3.35 9.26 5.51 7.01 5.31 14.01 10.65 20.59 16.46 2.36 2.13 3.52 5.6 5.28 8.52zm-43.68-6.82c-2.5 2.05-4.88 3.67-6.87 5.69-9.3 9.43-18.5 18.96-27.71 28.48-4.28 4.42-4.02 10.76.48 14.95 2.79 2.6 5.51 5.27 8.31 7.86.58.53 1.44 1.25 2.07 1.16 5.85-.88 10.11 2.24 14.46 5.35 2.14 1.53 4.39 3.02 6.81 3.99 2.86 1.15 6.1 1.08 8.4-1.14 2.22-2.15 1.84-5.11 1.27-8.07-.76-3.91-1.29-7.92-1.43-11.9-.38-10.69-.33-21.41-.81-32.1-.24-4.98-1.41-9.86-4.98-14.27zm25.99 65.46c5.24-4.73 9.75-9.05 14.53-13.04 4.93-4.11 5.89-9.35 4.83-15.17-1.59-8.69-6.77-15.42-12.74-21.52-2.49-2.54-5.67-4.41-9.07-6.98-3.35 19.54-1.61 37.82 2.45 56.71zm-31.29 116.57c1.81-1.28 3.49-2.47 5.3-3.74-.75-2.02-1.45-3.88-2.29-6.12-2.27 3.12-5.19 5.47-3.01 9.86zm65.42 74.14c3.87-2.69 4.27-4.76 1.46-6.42-.45 1.99-.89 3.9-1.46 6.42z" fill="#010104"/></svg>