<svg enable-background="new 0 0 400 400" viewBox="0 0 400 400" xmlns="http://www.w3.org/2000/svg"><path d="m378.6 9.2.8-1c.9.7 1.9 1.4 2.9 2.3l-.9 1.1c-1.1-.9-2-1.7-2.8-2.4zm.5 10.7c.9-2.1 1.6-4.3 2.3-6.7.4.2.8.4 1.3.6-.7 2.1-1.5 4.3-2.2 6.6zm.4-15.2.9-.9c1 .8 2 1.6 2.8 2.4l-1 1c-1-.9-1.9-1.8-2.7-2.5zm12.5-1.3h1.2v1.4h2.7v1.1h-2.7v2.7h-1.2v-.5h-1.8v1.3h4.9v3.8h-1.2v-.5h-3.7c0 .4-.1.9-.1 1.2h5.1v1h-5.2c0 .5-.1.9-.2 1.2h6v1h-5.2c1.1 1.3 2.9 2 5.5 2.2-.4.4-.7.8-.9 1.3-2.9-.5-4.8-1.6-5.7-3.5h-.1c-.8 1.7-2.7 2.9-5.9 3.6-.2-.4-.6-.8-.9-1.1 2.8-.6 4.6-1.4 5.4-2.5h-4.8v-1h5.3c.1-.3.2-.7.2-1.2h-4.9v-1h5c0-.4 0-.8.1-1.2h-3.6v.5h-1.2v-3.8h4.9v-1.3h-1.8v.5h-1.2v-2.7h-2.6v-1.1h2.6v-1.4h1.2v1.4h4.7v-1.4zm-6.7 8.4h3.6c0-.4 0-.9 0-1.4h-3.6zm1.9-4.7h4.7v-1.2h-4.7zm6.7 3.3h-3.7v1.4h3.7z" fill="#fafbfc"/><path d="m384.7 21.4h1.3v2.2h2.8v-2.2h1.3v2.2h4.1v9.1h1.7v1.3h-16.9v-1.3h1.7v-9.1h4.1v-2.2zm.3 13.2.7 1.2c-1.8.9-3.8 1.9-6 2.9-.2-.4-.5-.8-.8-1.3 2.4-1 4.4-2 6.1-2.8zm-3.1-6.5h2.8v-3.2h-2.8zm0 4.6h2.8v-3.3h-2.8zm4.1-4.6h2.8v-3.2h-2.8zm0 4.6h2.8v-3.3h-2.8zm3.6 1.9c2.1.9 4.1 1.8 6.1 2.7l-.7 1.3c-2.2-1.1-4.2-2-6.1-2.9zm3.3-9.7h-2.8v3.2h2.8zm-2.8 7.8h2.8v-3.3h-2.8z" fill="#fafbfc"/><path d="m237.59 301.11c.57-4.38.42-8.27-3.03-11.96-2.51-2.68-3.64-6.62-5.45-9.97-1.8-3.32-3.27-6.93-5.61-9.82-3.52-4.33-5.52-9.29-7.05-14.44-3.01-10.14-7.75-19.22-15.45-26.54-6.32-6.01-9.15-13.8-11.94-21.72-.9-2.54-2.41-4.9-3.82-7.23-3.5-5.77-7.15-11.46-10.67-17.22-6.29-10.31-12.56-20.62-18.75-30.98-3.91-6.53-7.93-13.01-11.43-19.76-2.99-5.77-6.14-11.33-10.43-16.24-2.23-2.55-4.63-5.07-6.29-7.98-3.41-6-8.9-7.22-15.02-7.5-5.55-.25-7.45-1.89-8.85-7.84 4.59-1.97 9.14-4.26 13.92-5.82 1.9-.62 4.36.25 6.52.66 5.39 1.04 7.86-.41 7.98-5.9.14-6.75-.55-13.52-.77-20.29-.09-2.73-.15-5.51.24-8.2.47-3.3 2.55-5.23 6.07-5.37.21.27.57.53.56.77-.11 4.39 1.16 7.99 5.25 10.31.74.42 1 1.81 1.36 2.79 2.58 7.06 5.21 14.1 7.65 21.21.66 1.91 1.44 2.65 3.59 2.45 8.55-.8 17.11-1.45 25.67-1.97 1.85-.11 2.55-1.07 2.62-2.46.43-7.69.71-15.39 1.09-23.08.25-5.05.43-10.12.97-15.14.18-1.69 1.31-3.31 2.12-4.9 1.19-2.34 3.04-2.64 5.33-1.59 2.14.98 3.22 2.55 2.45 4.83-1.81 5.31-.9 10.32.84 15.48 2.44 7.22 4.54 14.55 6.6 21.89.53 1.89 1.44 2.48 3.26 2.63 10.98.87 21.93 2.1 32.92 2.64 4.81.24 9.69-.79 14.51-1.45.74-.1 1.72-1.29 1.92-2.14 1.57-6.78 3.11-13.57 4.4-20.4.92-4.88 1.15-9.9 2.26-14.73.58-2.52 2.38-4.75 3.84-7.5 6.17 6.7 7.59 14.13 7.85 21.99.15 4.55.53 9.09.7 13.64.25 6.5 3.25 11.28 8.89 14.41 4.44 2.46 6.97 6.11 7.11 11.22.03 1.23-.22 2.51-.55 3.71-4.7 16.7-9.72 33.32-14.05 50.12-2.51 9.72-3.55 19.81-5.93 29.57-2.39 9.78-5.6 19.33-12.76 26.98-1.55 1.66-3.07 2.47-5.23 2.17-4.26-.6-7.95-1.82-10.94-5.49-9.37-11.51-19.16-22.68-28.65-34.09-2-2.41-3.5-5.24-5.13-7.94-2.94-4.87-5.66-9.88-8.75-14.65-1.84-2.83-2.68-5.66-2.02-9.06 3.23-.04 5.86.68 8.29 3.07 7.85 7.74 15.79 15.42 24.02 22.75 5.04 4.49 7.99 10.36 11.83 15.65 2.76 3.81 5.92 6.9 11.34 7.35.96-5.52 2.07-10.97 2.83-16.48 1.07-7.71 2.73-15.18 6.93-21.9 3.23-5.17 4.55-10.96 4.65-16.97.13-7.93.07-15.86-.15-23.79-.03-1.24-1.14-2.59-2.06-3.63-5.15-5.86-11.73-7.03-19.36-7.1-15.77-.13-31.53-1.38-47.3-1.99-2.69-.1-5.44.56-8.11 1.11-7.68 1.57-15.29 3.5-23 4.83-5.82 1.01-11.76 1.33-17.65 1.94-1.04.11-2.09.13-3.09.19-1.3 3.68-1.02 6.66 1.34 9.9 13.17 18.07 26.42 36.09 38.99 54.58 7.43 10.93 13.39 22.83 20.45 34.02 8.75 13.87 18.01 27.42 26.94 41.18 2.92 4.5 6.07 8.98 8.1 13.89 5.57 13.47 12.89 25.96 20.08 38.56 3.43 6.02 5.14 12.67 4.99 19.75-.22 10.92-.33 21.83-.3 32.75.01 3.46.64 6.93 1 10.62-1.61.49-3.31 1.01-5.23 1.6-7.27-10.68-13.76-21.59-14.87-34.9-.59-7.04-1-7.85-8.05-8.08-10.24-.34-20.51-.01-30.75.43-4.53.19-5.16.91-4.93 5.58.32 6.53 1.4 13.02 2.07 19.53.42 4.09 1.02 8.21.92 12.3-.11 4.37-2.24 7.85-6.71 10.02-.53-1.25-1.04-2.36-1.48-3.49-4.81-12.44-9.71-24.85-14.35-37.35-1.02-2.75-2.69-4.04-5.31-4.05-7.08-.04-14.17-.06-21.23.26-4.32.2-8.64.92-12.91 1.68-1.1.2-2.63 1.29-2.9 2.26-1.44 5.28-2.71 10.63-3.72 16.01-.92 4.95-2.75 7.47-6.4 7.98-1.87.26-3.08-.17-4.08-2.03-5.28-9.81-7.16-20.51-8.74-31.34-.98-6.72-.2-13.19 1.02-19.83.84-4.53-.34-9.41-.49-14.13-.56-17.68-1.27-35.31 1.59-52.95 1.52-9.36.88-19.05 1.79-28.54.97-10.11 2.57-20.16 3.99-30.22.31-2.23 3.39-4.29 5.56-3.47 2.39.9 4.98 2.09 6.65 3.91 8.47 9.31 15.39 19.72 20.39 31.29 7.24 16.77 16.39 32.5 25.3 48.39 3.32 5.93 5.24 12.65 7.69 19.05 1.06 2.78-.16 4.48-2.8 5.72-5.88 2.76-10.98.51-15.94-2.27-2.76-1.54-5.26-3.56-7.85-5.4-2.15-1.53-3.66-3.45-3.65-6.7 2.85-.46 5.64-.92 8.43-1.34 4.19-.63 5.44-2.47 4.62-6.51-.6-2.94-1.58-5.53-3.62-7.91-1.49-1.74-2.01-4.29-3.05-6.44-1.18-2.44-2.04-5.19-3.77-7.17-6.91-7.9-14.11-15.54-21.18-23.31-.56-.62-.9-1.44-1.34-2.17-.44.11-.88.21-1.33.32-.94 2.83-2.52 5.61-2.71 8.49-.87 12.68-1.87 25.4-1.82 38.1.07 15.04 1.13 30.08 1.89 45.11.05 1.04.92 2.33 1.8 3 3.03 2.32 6.5 2.65 10.25 2.09 4.9-.73 9.85-1.27 14.79-1.54 15.39-.86 30.69.89 46 1.98 6.72.51 22.62-.53 25.78-2.34z" fill="#010104"/></svg>