<svg enable-background="new 0 0 400 400" viewBox="0 0 400 400" xmlns="http://www.w3.org/2000/svg"><path d="m378.6 9.2.8-1c.9.7 1.9 1.4 2.9 2.3l-.9 1.1c-1.1-.9-2-1.7-2.8-2.4zm.5 10.7c.9-2.1 1.6-4.3 2.3-6.7.4.2.8.4 1.3.6-.7 2.1-1.5 4.3-2.2 6.6zm.4-15.2.9-.9c1 .8 2 1.6 2.8 2.4l-1 1c-1-.9-1.9-1.8-2.7-2.5zm12.5-1.3h1.2v1.4h2.7v1.1h-2.7v2.7h-1.2v-.5h-1.8v1.3h4.9v3.8h-1.2v-.5h-3.7c0 .4-.1.9-.1 1.2h5.1v1h-5.2c0 .5-.1.9-.2 1.2h6v1h-5.2c1.1 1.3 2.9 2 5.5 2.2-.4.4-.7.8-.9 1.3-2.9-.5-4.8-1.6-5.7-3.5h-.1c-.8 1.7-2.7 2.9-5.9 3.6-.2-.4-.6-.8-.9-1.1 2.8-.6 4.6-1.4 5.4-2.5h-4.8v-1h5.3c.1-.3.2-.7.2-1.2h-4.9v-1h5c0-.4 0-.8.1-1.2h-3.6v.5h-1.2v-3.8h4.9v-1.3h-1.8v.5h-1.2v-2.7h-2.6v-1.1h2.6v-1.4h1.2v1.4h4.7v-1.4zm-6.7 8.4h3.6c0-.4 0-.9 0-1.4h-3.6zm1.9-4.7h4.7v-1.2h-4.7zm6.7 3.3h-3.7v1.4h3.7z" fill="#fafbfc"/><path d="m384.7 21.4h1.3v2.2h2.8v-2.2h1.3v2.2h4.1v9.1h1.7v1.3h-16.9v-1.3h1.7v-9.1h4.1v-2.2zm.3 13.2.7 1.2c-1.8.9-3.8 1.9-6 2.9-.2-.4-.5-.8-.8-1.3 2.4-1 4.4-2 6.1-2.8zm-3.1-6.5h2.8v-3.2h-2.8zm0 4.6h2.8v-3.3h-2.8zm4.1-4.6h2.8v-3.2h-2.8zm0 4.6h2.8v-3.3h-2.8zm3.6 1.9c2.1.9 4.1 1.8 6.1 2.7l-.7 1.3c-2.2-1.1-4.2-2-6.1-2.9zm3.3-9.7h-2.8v3.2h2.8zm-2.8 7.8h2.8v-3.3h-2.8z" fill="#fafbfc"/><path d="m133.5 161.11c-6.21-1.67-5.51 4.67-8.53 6.55-1.26-2.18-2.43-4.44-3.82-6.55-2.18-3.32-4.28-4.05-8.11-3.11-3.28.81-3.28.81-8.93-1.77-10.37 9.79-19.41 21.9-36.41 21.75 2.65-3.73 5.12-7.61 8.01-11.14 3.56-4.33 7.61-8.25 11.19-12.57 2.75-3.32 4.29-7.26 4.53-11.66.11-2.08-.43-3.64-2.33-4.8-5.61-3.42-11.1-7.01-16.71-10.42-7.21-4.38-10.73-9.05-11.93-16.85 4.3.24 8.45.32 12.57.73 5.97.59 11.66 2.11 16.45 6.04.89.73 1.96 1.26 3.01 1.76 3.84 1.83 6.51.82 8.15-3.08 2.64-6.25 1.94-12.66.88-19.09-.55-3.34-1.41-6.68-1.51-10.03-.16-5.78 4.97-8.59 9.94-5.63.6.36 1.05 1.28 1.22 2.02 2.38 10.53 5.15 21.01 6.83 31.66.75 4.76-.47 9.91-1.28 14.8-.47 2.81.23 4.79 2.3 6.38 6.55 5.03 13.3 9.81 19.66 15.07 2.94 2.43 5.47 5.53 7.58 8.73 1.98 3 4.3 4.81 7.81 5.19 1.95-2.07 2.21-4.3.99-6.76-.57-1.14-.99-2.38-1.73-3.39-8.44-11.63-8.92-24.93-8.66-38.59.29-15.42 6.86-28.6 13.34-41.98 5.79-11.96 12.88-22.9 22.87-31.76 2.59-2.3 5.72-3.99 8.51-6.08 2.39-1.79 4.82-1.64 7.05-.05 3.78 2.69 7.69 5.3 11.03 8.49 11.39 10.86 19.48 24.16 25.15 38.59 3.36 8.55 4.06 18.14 6.07 27.23 1.19 5.36.77 10.51-1.28 15.57-.48 1.18-.96 2.36-1.29 3.59-1.49 5.55-1.06 10.46 3.48 14.81 8.8 8.42 17.73 16.77 24.06 27.38.38.63.88 1.2 1.38 1.75 4.88 5.42 6.47 5.61 11.6.65 6.02-5.82 12.02-11.68 17.73-17.8 4.75-5.09 8.54-10.92 9.22-18.08.24-2.53.03-5.4-.93-7.71-3.72-8.97-3.71-18.05-1.94-27.37 1.32-6.95 2.26-13.98 3.49-20.95.21-1.2.83-2.44 1.58-3.42 1.92-2.52 5.68-2.26 7.05.58 4.55 9.44 6.63 19.16 2.77 29.42-.33.88-.54 1.8-.8 2.67 4.56 2.47 4.82 2.58 7.33-1.59 3.71-6.16 7.1-12.52 10.63-18.79 3.01-5.34 5.21-7.63 8.79-8.99 1.61 4.45 1.38 9.01.42 13.41-2.8 12.81-7.71 24.88-14.2 36.22-3.42 5.97-3.36 12.06-1.48 18.08.8 2.55 3.74 4.46 5.76 6.6 2.34 2.48 3.44 5.29 2.61 8.75-3.29 1.16-5.95.96-8.99-1.49-3.81-3.07-8.43-5.14-12.84-7.73-4 4.86-7.46 9.58-11.46 13.78-4.06 4.26-8.69 7.99-13 12.01-2.09 1.94-4.24 3.87-6 6.1-3.45 4.35-4.67 8.97-2.89 14.73 3.6 11.62 6.86 23.38 9.49 35.26 1.41 6.35 1.24 13.04 1.73 19.59.22 2.96.23 5.94.52 8.89.62 6.39.13 12.6-1.82 18.79-1.1 3.49-1.29 7.28-1.77 10.95-.09.7.21 1.84.7 2.12.55.31 1.62.07 2.3-.27 4.99-2.49 9.85-5.24 14.91-7.56 5.73-2.63 8.51-6.6 8.21-12.95-.38-8.15-1.01-16.29-1.31-24.45-.34-9.13 1.11-17.96 5.33-26.17.74-1.45 1.8-2.97 3.11-3.85 2.93-1.97 5.34-1.07 6.8 2.11 3.13 6.79 2.28 13.88 1.56 20.95-.29 2.84-.71 5.66-.95 8.51-.08.92 0 2.01.44 2.78.63 1.09 1.52 2.45 2.58 2.75.78.22 2.25-.84 2.96-1.71 3.34-4.11 6.35-8.5 9.82-12.49 2.31-2.65 5.19-4.8 7.82-7.17.44.14.88.28 1.32.42.24 2.29 1.1 4.73.6 6.85-1.21 5.12-2.61 10.29-4.74 15.07-3.19 7.14-6.94 14.05-10.73 20.9-1.42 2.57-1.06 4 1.15 5.79 3.95 3.2 7.69 6.67 11.42 10.13 3.17 2.94 4.92 6.55 4.74 11.02-.07 1.79-.84 2.62-2.52 2.36-2.49-.38-5.16-.5-7.4-1.52-6.34-2.89-12.56-6.08-18.72-9.35-3.52-1.87-7.42-1.9-10.71.5-6.43 4.68-12.79 9.45-19.3 14.01-1.36.95-3.22 1.44-4.91 1.64-2.41.27-4.87.1-7.31.06-5.44-.08-9.19 2.59-11.88 7.12-1.77 2.99-3.53 6.01-5.49 8.88-1.39 2.03-3.39 2.79-6.01 2.8-1.93.01-4 .89-5.75 1.85-7.59 4.19-15.08 8.56-22.62 12.85-.36.2-.79.4-1.18.4-11.19-.01-22.32 3.28-33.55.83-5.37-1.17-10.79-2.31-15.97-4.07-2.08-.71-3.82-2.9-5.23-4.78-.5-.66.45-2.41.78-3.84-.6.1-1.35.07-1.96.34-5.51 2.46-10.74 1.57-15.09-2.68-2.05-2-4.19-3.93-6.03-6.11-1.46-1.72-2.67-1.54-4.61-.77-8.64 3.42-17.36 6.66-26.1 9.81-5.3 1.91-10.77 2.12-16.26.69-4.33-1.12-8.43-.13-12.34 1.61-.92.41-1.63 1.79-2.01 2.87-2.77 8.01-6.67 15.14-14.38 19.46-1.45.81-3.01 1.41-4.55 2.12-1.55-2.42-2.11-4.22.08-6.6 4.2-4.56 3.86-10.48 4.05-16.24.14-4.23-1.51-6.6-5.42-8.3-7.18-3.13-14.16-6.71-21.13-10.27-6.6-3.37-10.86-8.72-12.35-16.04-.26-1.28-.18-3.57.5-3.92 1.38-.72 3.42-.9 4.94-.45 3.44 1.02 6.82 2.36 10.05 3.93 3.68 1.78 7.14 4 10.75 5.92 1.05.56 2.29 1.11 3.43 1.09 5.2-.11 5.59-.62 7.05-5.73 1.78-6.22.85-12.4.07-18.6-.87-6.91 2.52-11.71 9.08-13.1 1.62-.34 2.5 0 3.2 1.58 2.72 6.09 5.61 12.1 8.33 18.19.49 1.11.63 2.45.65 3.69.07 5.3.27 10.62-.05 15.9-.22 3.59 1.54 5.21 4.42 6.37 4.45 1.79 9.03 1.49 13.44.3 8.47-2.3 16.83-5.02 25.26-7.5 2.44-.72 3.31-2.62 2.85-4.63-1.33-5.84-3.04-11.58-4.62-17.36-.77-2.83-2.22-5.65-2.26-8.48-.1-7.18.7-14.38.65-21.56-.09-13.81 3.61-27.01 5.94-40.43.45-2.58.28-5.3.09-7.94-.46-6.37.55-12.39 3.31-18.19 1.36-2.86 2.3-5.92 3.38-8.9 2.14-5.93.06-10.26-5.9-12.21-3.71-1.22-7.55-2.12-11.16-3.58-3.99-1.61-4.22-2.52-2.56-6.48.78-1.85 1.8-3.58 2.85-5.66zm140.41 99.07c-1.15-10.5-1.89-21.18-3.62-31.7-1.4-8.51-3.17-17.18-9.81-23.63-2.53-2.46-3.8-5.47-4.7-8.8-1.32-4.9-2.04-10.23-4.54-14.48-5.56-9.44-12.9-17.54-21.82-24.12-3.07-2.27-6-3.17-9.56-1.04-1.88 1.12-4.1 1.68-6.17 2.5-10.97 4.37-21.65 9.94-34.1 8.26-.79-.11-1.66.3-2.48.48-4.07.88-6.6 2.84-8.02 7.27-8 25.11-13.58 50.72-16.17 76.93-1.92 19.44.84 38.17 9.71 55.87 4.28 8.54 10.28 14.84 19.23 18.38 3.13 1.24 6.24 2.78 8.93 4.77 4.96 3.65 10.59 5.3 16.47 6.13 16.9 2.38 31.71-2.95 44.48-13.63 9.83-8.23 17.34-18.28 18.8-31.67 1.14-10.42 2.23-20.83 3.37-31.52zm-108.78-169.79c.02 3.54 1.65 6.16 4.18 8.32 2.66 2.27 5.34 4.51 8.05 6.72 3.81 3.12 6.05 2.49 7.75-2.19 3.61-9.94 7.2-19.89 10.78-29.84 2.35-6.53-.79-14.2-7.02-17.35-1.43-.72-2.42-.75-3.47.71-1.92 2.66-3.91 5.29-6.13 7.7-5.77 6.26-9.09 13.97-12.96 21.36-.7 1.37-.8 3.04-1.18 4.57zm45.75-.97c-3.9 6.1-7.9 11.86-11.34 17.93-1.67 2.95-2.76 6.43-3.24 9.79-.27 1.89.73 4.49 2.05 5.96 3.18 3.51 6.67 6.85 10.5 9.61 1.51 1.09 4.54 1.16 6.37.43 1.73-.69 3.96-3.03 3.97-4.66.09-8.14-.4-16.28-.85-24.42-.31-5.76-2.71-10.59-7.46-14.64zm-45.39 55.99c5.85-4.14 8.13-10.04 7.98-16.5-.17-7.43-6.31-10.61-11.75-14.1-5.54 8.64-3.92 22.28 3.77 30.6zm18.02 6.33c4.02-.55 7.22-.7 10.25-1.51 1.91-.51 4.99-1.95 5.02-3.04.05-1.95-1.37-4.49-2.98-5.78-1.65-1.33-4.64-2.54-6.38-1.93-3.92 1.37-6.23 4.87-6.93 9.04-.17 1.02.68 2.2 1.02 3.22zm-43.15 117.97c1.46-1.29 2.68-2.02 3.39-3.08 1.09-1.64 1.86-3.5 2.72-5.29 1.13-2.37 1.13-4.45-1.21-5.56-7.42 2.29-5.99 7.64-4.9 13.93z" fill="#010104"/></svg>