<svg enable-background="new 0 0 400 400" viewBox="0 0 400 400" xmlns="http://www.w3.org/2000/svg"><path d="m95.6 363.89c-3.01-3.26-3.89-7.05-3.24-11.04 1.2-7.36.2-14.57-.82-21.82-2.47-17.56-1.83-35.1.44-52.62 1.28-9.86 3.01-19.64 2.81-29.69-.11-5.32 1.6-10.65 2.27-16 .69-5.48 1.25-11.01-1.29-16.24-.78-1.6-1.84-3.07-3.75-5.46 1.67-1.27 3.32-2.58 5.02-3.81 1.92-1.39 2.36-3.26 2.3-5.54-.42-15.63-2.38-31.04-6.2-46.2-.23-.92-.5-1.86-.52-2.8-.33-14.2-1.1-28.4-.81-42.59.29-14.41 1.48-28.85 7.1-42.4 1.96-4.72 3.88-9.32 4.25-14.49.07-1.03 1.43-2.25 2.5-2.87 5.89-3.46 12.47-5.14 19.14-5.17 11.73-.06 23.46.66 35.2 1.04 2.86.09 4.46 1.53 5.64 4.16 2.96 6.61 3.74 12.8-2.02 18.42-.73.72-1.26 1.73-1.66 2.69-3.27 7.96-.93 14.49 8.73 13.97 13.1-.7 26.15-2.34 39.25-3.12 6.4-.38 12.88.04 19.28.6 2.64.23 4.02-.24 5.31-2.54 3.38-5.99 3.42-12.37 2.61-18.87-.81-6.47.72-12.34 3.74-18.03 1.6-3.02 3.94-4.32 7.13-4.31 6.03.02 12.07.1 18.09.27 6.65.19 13.09-.61 19.16-3.55 4.47-2.17 9.76-.67 11.98 3.71 5.44 10.74 9.02 22.09 7.88 34.24-3.27 34.92-7.09 69.79-10.2 104.72-.89 9.99-.2 20.13-.03 30.19.46 27.67 1.04 55.33 1.5 82.99.03 1.65-.38 3.36-.83 4.97-2.6 9.27-5.05 18.6-7.99 27.76-2.13 6.62-2.45 13.35-1.98 20.1.48 6.81-1.46 12.78-4.91 18.38-.81 1.31-2.45 2.12-3.86 3.28-3.59-4.45-4.6-9.29-5.07-14.25-.74-7.91-1.23-15.85-1.98-23.76-.13-1.38-1-2.69-1.57-4.01-.16-.37-.49-.69-.79-.99-16.19-16.76-23.92-38.18-32.56-59.1-.89-2.15-1.98-4.24-2.66-6.46-1.69-5.54-4.81-9.47-10.34-11.89-1.96-.86-3.13-4-4.18-6.31-1-2.21-2.1-3.07-4.68-3.09-13.14-.13-26.27-.6-39.41-.76-1.41-.02-3.38.81-4.19 1.91-20.92 28.42-41.81 56.88-62.49 85.48-4.19 5.8-4.47 12.86-4.29 19.83.09 3.48.24 7-.18 10.43-.53 4.47-2.79 7.61-6.83 10.64zm88.64-148.97c3.71 0 7.42-.06 11.13.01 10.53.21 20.91-.46 31.02-3.84 8.18-2.73 16.7-3.73 25.31-4.06 3.38-.13 6.75-.62 10.1-1.11 4.82-.71 9.58-2.33 12.65-6 1.68-2.02 1.35-5.72 1.92-8.67.08-.42.16-.83.2-1.26.49-5.59 1.43-11.18 1.36-16.76-.1-8.45-1.02-16.88-1.38-25.33-.22-5.19-1.74-7.15-6.98-7.57-2.2-.18-4.51-.22-6.65.22-9.89 2.06-19.78 2.92-29.95 2.44-7.54-.35-15.17 1.72-22.75 1.67-10.04-.06-20.08-1.01-30.1-1.79-19.43-1.52-38.86-3.1-58.28-4.82-9.01-.8-9.86-.4-12.31 8.53-3.16 11.51-1.71 22.91.93 34.25 2.2 9.44 5.24 18.56 11.25 26.37.71.92 1.85 1.77 2.95 2.07 3.47.94 7 1.67 10.53 2.37 16.19 3.25 32.6 3.62 49.05 3.28zm83.59-84.92c2.8-.45 5.06-.56 7.13-1.25 1.24-.41 3-1.63 3.12-2.65.7-5.97 1.59-12.02 1.26-17.98-.4-7.07-1.94-8.13-8.81-7.79-6.2.31-12.93-.22-18.42 2.04-5.68 2.34-10.59 2.31-16.04.97-1.44-.35-2.89-.66-4.35-.91-6.15-1.04-12.29-2.86-18.45-2.91-11.95-.1-23.91.81-35.87 1.28-20.11.79-40.22 1.54-60.33 2.4-1.06.05-2.85.78-3.01 1.49-1.09 4.8-2.32 9.65-2.53 14.53-.17 3.95 1.56 4.97 5.58 5.21 17.13 1 34.24 2.37 51.38 2.95 17.13.58 34.28 1.29 51.42-.73 10.71-1.26 21.48-2.18 32.21.4 5.34 1.28 10.79 2.04 15.71 2.95zm-25.69 104.62c.28 1.36.36 2.55.76 3.6 5.01 13.02 9.9 26.09 15.19 38.99 2.4 5.86 5.57 11.4 8.53 17.02.43.82 1.6 1.25 2.42 1.86.5-1 1.02-2 1.5-3.02.08-.17 0-.42.01-.63.8-17.13 1.56-34.27 2.43-51.4.32-6.34 1.05-12.65 1.31-18.99.13-3.28-1.4-5.89-4.62-7.24-.33.24-.61.39-.83.61-.98.97-1.95 1.94-2.91 2.94-6.69 6.99-12.85 14.75-23.79 16.26zm-130.71 53.82c.26-.15.49-.21.6-.35 11.37-14.65 22.75-29.28 34.06-43.97 1.85-2.4 1.6-5.35-.12-7.38-1.68-1.99-4.16-3.77-6.63-4.55-8.81-2.78-17.77-5.1-27.24-7.75 0 3.97.14 8.49-.03 13-.54 14.58.67 29.25-2.61 43.68-.59 2.63-.14 5.28 1.97 7.32zm15.77-198.42c4.83-1.02 9.68-1.92 14.46-3.15 1.29-.33 3.03-1.46 3.34-2.58 1.53-5.36 2.83-10.81 3.83-16.29.51-2.78-1.01-4.36-4.07-4.88-7.81-1.34-15.64-2.74-23.31-4.69-3.25-.83-5.28-.36-6.78 2.4-.56 1.03-1.01 2.3-.97 3.44.19 4.55.61 9.09.92 13.63.79 11.45.78 11.45 12.58 12.12zm136.93-7.2c4.94.65 9.76.46 14.1-2.32.9-.58 2.01-1.55 2.16-2.47.63-4.06 1.36-8.19 1.29-12.27-.11-6.38-2.81-9.55-9.01-10.92-3.48-.77-7.19-1.42-10.67-1.03-2.38.27-5.88 1.98-6.53 3.86-1.62 4.74-2.08 9.91-2.69 14.94-.74 6.15 2.37 9.64 8.5 9.98.95.04 1.9.15 2.85.23zm-72.27 138.4c2.08 3.15 3.49.83 5.4-.01-.79-.98-1.41-1.74-2.06-2.55-1.22.94-2.21 1.69-3.34 2.56z" fill="#010000"/><g fill="#fafafb"><path d="m361.2 9.6.8-1c.9.7 1.9 1.4 2.9 2.3l-.9 1.1c-1-1-2-1.8-2.8-2.4zm.5 10.6c.9-2.1 1.6-4.3 2.3-6.7.4.2.8.4 1.3.6-.7 2.1-1.5 4.3-2.2 6.6zm.4-15.2.9-.9c1 .8 2 1.6 2.8 2.4l-1 1c-.9-.9-1.8-1.7-2.7-2.5zm12.5-1.2h1.2v1.4h2.7v1.1h-2.7v2.7h-1.2v-.6h-1.8v1.3h4.9v3.8h-1.2v-.5h-3.7c0 .4-.1.9-.1 1.2h5.1v1h-5.2c0 .5-.1.9-.2 1.2h6v1h-5.2c1.1 1.3 2.9 2 5.5 2.2-.4.4-.7.8-.9 1.3-2.9-.5-4.8-1.6-5.7-3.5h-.1c-.8 1.7-2.7 2.9-5.9 3.6-.2-.4-.6-.8-.9-1.1 2.8-.6 4.6-1.4 5.4-2.5h-4.8v-1h5.3c.1-.3.2-.7.2-1.2h-4.9v-1h5c0-.4 0-.8.1-1.2h-3.5v.5h-1.2v-3.8h4.9v-1.3h-1.8v.5h-1.2v-2.7h-2.7v-1h2.6v-1.4h1.2v1.4h4.7v-1.4zm-6.6 8.3h3.6c0-.4 0-.9 0-1.4h-3.6zm1.9-4.6h4.7v-1.3h-4.7zm6.6 3.2h-3.7v1.4h3.7z"/><path d="m385.3 3.8h1.3v2.2h2.8v-2.2h1.3v2.2h4.1v9.1h1.7v1.3h-16.9v-1.3h1.7v-9.1h4.1v-2.2zm.4 13.1.7 1.2c-1.8.9-3.8 1.9-6 2.9-.2-.4-.5-.8-.8-1.3 2.3-1 4.3-1.9 6.1-2.8zm-3.1-6.4h2.8v-3.2h-2.8zm0 4.6h2.8v-3.3h-2.8zm4-4.6h2.8v-3.2h-2.8zm0 4.6h2.8v-3.3h-2.8zm3.7 1.9c2.1.9 4.1 1.8 6.1 2.7l-.7 1.3c-2.2-1.1-4.2-2-6.1-2.9zm3.2-9.7h-2.8v3.2h2.8zm-2.8 7.8h2.8v-3.3h-2.8z"/></g></svg>