<svg enable-background="new 0 0 400 400" viewBox="0 0 400 400" xmlns="http://www.w3.org/2000/svg"><path d="m248.97 242.58c7.91.47 15.73.83 23.52 1.47 2.7.22 5.44.88 7.96 1.85 1.13.44 1.78 2.13 2.65 3.26-1.04.75-2.01 2.02-3.12 2.16-2.91.36-5.9.52-8.81.23-4.08-.41-7.73-.13-10.83 2.97-.69.69-2.15 1.15-3.11.96-4.39-.88-8.43.27-12.34 1.92-5.19 2.2-10.33 2.02-15.81 1.1-4.84-.81-9.88-.5-14.83-.53-1.94-.01-3.36-.57-5.1-1.58-3.2-1.85-6.96-2.86-10.6-3.77-.91-.23-2.25 1.29-3.41 2.01-3.88-2.85-9.18-4.81-7.66-12.04h21.44c-2.89-10 .92-18.6 2.55-27.45.68-3.71-.7-7.01-4.22-7.87-12.61-3.07-18.28-12.66-21.26-23.77-2.48-9.23-3.34-18.93-4.45-28.48-.38-3.23.84-6.62 1.05-9.96.28-4.52.27-9.06.44-13.6.06-1.78-.03-3.65.46-5.32 1.03-3.49 4.59-4.46 7.54-2.35 8.7 6.21 18.14 6.34 27.86 3.12 3.52-1.17 4.48-3.8 4.2-7.51-.62-8.36-6.91-11.16-13.19-14.07-.76-.35-1.6-.54-2.42-.76-5.61-1.52-9.56-4.76-11.25-10.52-1.11-3.8-3.25-6.88-5.88-9.95-4.92-5.74-6.17-13.02-5.6-20.34.53-6.94 1.93-13.82 2.97-20.72.24-1.58.85-3.07 2.75-2.65 1.22.27 2.85.94 3.34 1.92 3.31 6.65 4.75 13.79 4.6 21.2-.03 1.33-.29 2.89-1.03 3.94-2.33 3.34-1.09 6.38.21 9.58 3.23 7.98 9.79 12.89 16.29 17.83 2.27 1.73 4.74 3.19 7.36 4.92 3.32-4.54 4.6-9.71 5.29-15.04 1.27-9.85.66-19.67-.87-29.46-.34-2.19-.72-4.49-.37-6.62.22-1.35 1.74-2.5 2.67-3.73.94.76 2.15 1.35 2.78 2.31 4.03 6.08 5.56 12.72 5.5 20.1-.06 7.78 1.08 15.58 1.76 23.36.08.92.41 1.92.93 2.67 1.15 1.68 2.58 1.77 3.86.13.71-.91 1.27-1.96 1.77-3.01 1.98-4.1 4.78-7.49 8.65-9.9 2.22-1.38 3.09-3.25 2.9-5.83-.49-6.97-.86-13.96-1.35-20.93-.4-5.56-.35-11.04 2.31-16.13 1.61-3.09 3.81-3.21 5.55-.19.81 1.41 1.26 3.17 1.39 4.81.75 9.62 1.36 19.24 2 28.87.06.94.28 2.1-.15 2.81-2.75 4.53-2.08 9.43-1.63 14.25.49 5.27-.38 9.82-4.73 13.38-1.87 1.53-3.47 3.43-5.02 5.31-2.17 2.62-4.72 4.51-8.13 5.09-1.95.33-2.45 1.37-2.8 3.39-.52 2.99-2.02 5.81-3.18 8.9 6.7 2.21 13.74 4.43 20.69 6.92 1.78.64 3.53 1.88 4.8 3.28 3.42 3.76 6.52 7.81 9.86 11.65 1.28 1.48 1.96 2.83 1.16 4.82-1.16 2.86-1.08 5.82.16 8.66 1.67 3.83 1.22 7.59-.02 11.42-1.7 5.23-3.5 10.46-2.94 16.14.07.71-.65 1.74-1.29 2.25-5.21 4.18-10.44 8.33-15.79 12.33-1.11.83-2.7 1.11-4.11 1.43-2.04.47-4.12.74-6.58 1.16 4.22 12.43 1.55 25.03 2.66 38.2zm-48.26-73.27c-.37 1.3-.68 2.29-.94 3.3-2.46 9.49 1.07 14.36 10.71 15.22 5.35.47 10.65 1.39 15.99 2.05.93.12 1.91.06 2.83-.08 7.63-1.2 15.26-2.4 22.88-3.69.97-.16 2.23-.57 2.71-1.3 2.21-3.34 5.8-6.06 5.16-10.83-.11-.79.6-1.76 1.09-2.55 1.28-2.07 2.79-4.01 3.93-6.15.53-.99.82-2.44.52-3.47-1.38-4.66-3.02-9.25-4.54-13.87-.65-1.97-1.93-2.75-4.02-2.88-1.16-.07-2.33-.94-3.38-1.63-.66-.43-.98-1.55-1.65-1.76-4.85-1.54-9.8-2.59-14.16 1.11-2.14 1.81-4.19 1.74-6.43.7-1.43-.66-2.85-1.43-4.13-2.35-2.21-1.57-3.95-1.55-6.03.49-3.03 2.99-6.39 4.64-11.16 3.27-3.66-1.05-8.4-.06-10.27 3.21-1.93 3.38-2.31 7.99-.17 11.94.44.81 1.98 1.64 2.84 1.48 2.91-.55 5.72-1.66 8.62-2.33 11.83-2.7 23.79-4.14 35.91-2.79 3.53.39 6.94 1.85 10.59 2.87-4.62 7.04-10.44 10.44-18.19 10.5-3.59.03-7.31-.15-10.75.69-7.83 1.92-15.49 1.52-23.2-.31-1.44-.34-2.91-.52-4.76-.84zm28.31 33.88c-4.21 6.37-5.15 10.66-4.64 19.78.27 4.88-.22 9.46-3.67 13.36-1.71 1.94-1.18 6.48.7 6.84 3.72.72 7.5 1.21 11.27 1.53 1.96.17 3.3-.89 3.8-3.03 2.5-10.61 2.03-21.06-2.11-31.14-1.07-2.57-3.35-4.65-5.35-7.34zm9.99-4.51c-.33 2.03-.53 3.28-.81 4.98 1.83-.64 3.07-1.07 4.72-1.65-1.38-1.17-2.38-2.03-3.91-3.33z" fill="#010000"/><path d="m112.3 208.8c4.98-1.73 5.79-1.69 7.19 2.69 2.28 7.14 3.99 14.46 5.91 21.71 1.57 5.95 4.59 10.86 10.33 14.45.83-1.64 1.83-3.11 2.35-4.74 2.32-7.25 4.64-14.51 6.63-21.85.43-1.6.03-3.89-.86-5.32-3.87-6.17-8.09-12.11-12.12-18.18-.74-1.12-1.38-2.38-1.76-3.66-2.81-9.66-5.59-19.32-8.23-29.03-.42-1.54-.5-3.45.01-4.93 1.67-4.87 1.47-9.73.79-14.71-.76-5.6-1.51-11.65 1.7-16.45 3.85-5.77 4.61-11.72 4.49-18.29-.1-5.4 4.19-9.09 6.47-13.56.22-.42 1.48-.59 2.16-.44 3.39.73 5.71 2.8 6.54 6.18.66 2.66.88 5.43 1.47 8.12 1.87 8.57 4.02 17.09 5.69 25.7 1.92 9.89 2.11 19.74-1.54 29.44-2.46 6.54-4.58 13.2-6.62 19.88-.48 1.56-.45 3.53.06 5.08 1.59 4.82 3.46 9.55 5.38 14.26.75 1.84 1.78 3.6 2.93 5.22 4.36 6.13 8.83 12.19 13.25 18.28.44.6 1.27 1.25 1.22 1.81-.54 6.1 4.38 11.22 2.76 17.64-4.07-.35-8.33-.59-9.68-6.07-.28-1.12-1.27-2.24-2.23-2.98-2.18-1.7-4.32-1.22-5.31 1.29-4.52 11.43-5.74 22.95-.5 34.53 2 4.42 4.1 8.8 5.73 13.98-2.39-.79-4.88-1.36-7.15-2.42-2.28-1.07-4.33-2.63-7.38-4.53-.52 5.16-1.09 9.73-1.38 14.31-.17 2.63.16 5.3.21 7.95.09 4.68-1.55 8.69-5.36 12.13 4.9 4.23 4.23 9.53 3.28 14.8-1.29 7.15-.03 14.14 1.07 21.15.87 5.57-1.62 10.84-6.81 13.82 0-6.53.13-12.83-.06-19.12-.08-2.81-.92-5.59-1.18-8.4-.2-2.12 0-4.27-.01-6.41-.01-1.21.14-2.47-.18-3.6-.49-1.72-1.19-3.41-2.05-4.99-2.27-4.18-3.29-8.36-.97-12.89.39-.77.4-1.88.23-2.76-1.61-8.46-1.49-16.89 1.18-25.08 2.59-7.95.59-15.07-4.82-20.56-7.06-7.16-8.32-16.32-10.53-25.19-1.4-5.6-1.8-11.45-2.61-17.2-.1-.72-.24-1.8.15-2.17 3.1-2.91 2.2-5.92.16-8.89zm24.4-38.85c5.21-2.55 8.06-6.82 8.24-12.23.18-5.32-.39-10.76-1.36-16.01-.88-4.78-3.89-8.47-8.69-10.13-1.41-.49-3.57-.8-4.57-.07-2.21 1.6-3.39 6.61-2.11 8.04 2.37 2.65 2.36 5.72 2.46 8.92.25 7.45.76 14.84 6.03 21.48z" fill="#010000"/><g fill="#fafafb"><path d="m361.2 9.6.8-1c.9.7 1.9 1.4 2.9 2.3l-.9 1.1c-1-1-2-1.8-2.8-2.4zm.5 10.6c.9-2.1 1.6-4.3 2.3-6.7.4.2.8.4 1.3.6-.7 2.1-1.5 4.3-2.2 6.6zm.4-15.2.9-.9c1 .8 2 1.6 2.8 2.4l-1 1c-.9-.9-1.8-1.7-2.7-2.5zm12.5-1.2h1.2v1.4h2.7v1.1h-2.7v2.7h-1.2v-.6h-1.8v1.3h4.9v3.8h-1.2v-.5h-3.7c0 .4-.1.9-.1 1.2h5.1v1h-5.2c0 .5-.1.9-.2 1.2h6v1h-5.2c1.1 1.3 2.9 2 5.5 2.2-.4.4-.7.8-.9 1.3-2.9-.5-4.8-1.6-5.7-3.5h-.1c-.8 1.7-2.7 2.9-5.9 3.6-.2-.4-.6-.8-.9-1.1 2.8-.6 4.6-1.4 5.4-2.5h-4.8v-1h5.3c.1-.3.2-.7.2-1.2h-4.9v-1h5c0-.4 0-.8.1-1.2h-3.5v.5h-1.2v-3.8h4.9v-1.3h-1.8v.5h-1.2v-2.7h-2.7v-1h2.6v-1.4h1.2v1.4h4.7v-1.4zm-6.6 8.3h3.6c0-.4 0-.9 0-1.4h-3.6zm1.9-4.6h4.7v-1.3h-4.7zm6.6 3.2h-3.7v1.4h3.7z"/><path d="m385.3 3.8h1.3v2.2h2.8v-2.2h1.3v2.2h4.1v9.1h1.7v1.3h-16.9v-1.3h1.7v-9.1h4.1v-2.2zm.4 13.1.7 1.2c-1.8.9-3.8 1.9-6 2.9-.2-.4-.5-.8-.8-1.3 2.3-1 4.3-1.9 6.1-2.8zm-3.1-6.4h2.8v-3.2h-2.8zm0 4.6h2.8v-3.3h-2.8zm4-4.6h2.8v-3.2h-2.8zm0 4.6h2.8v-3.3h-2.8zm3.7 1.9c2.1.9 4.1 1.8 6.1 2.7l-.7 1.3c-2.2-1.1-4.2-2-6.1-2.9zm3.2-9.7h-2.8v3.2h2.8zm-2.8 7.8h2.8v-3.3h-2.8z"/></g></svg>