<svg enable-background="new 0 0 400 400" viewBox="0 0 400 400" xmlns="http://www.w3.org/2000/svg"><path d="m378.6 9.2.8-1c.9.7 1.9 1.4 2.9 2.3l-.9 1.1c-1.1-.9-2-1.7-2.8-2.4zm.5 10.7c.9-2.1 1.6-4.3 2.3-6.7.4.2.8.4 1.3.6-.7 2.1-1.5 4.3-2.2 6.6zm.4-15.2.9-.9c1 .8 2 1.6 2.8 2.4l-1 1c-1-.9-1.9-1.8-2.7-2.5zm12.5-1.3h1.2v1.4h2.7v1.1h-2.7v2.7h-1.2v-.5h-1.8v1.3h4.9v3.8h-1.2v-.5h-3.7c0 .4-.1.9-.1 1.2h5.1v1h-5.2c0 .5-.1.9-.2 1.2h6v1h-5.2c1.1 1.3 2.9 2 5.5 2.2-.4.4-.7.8-.9 1.3-2.9-.5-4.8-1.6-5.7-3.5h-.1c-.8 1.7-2.7 2.9-5.9 3.6-.2-.4-.6-.8-.9-1.1 2.8-.6 4.6-1.4 5.4-2.5h-4.8v-1h5.3c.1-.3.2-.7.2-1.2h-4.9v-1h5c0-.4 0-.8.1-1.2h-3.6v.5h-1.2v-3.8h4.9v-1.3h-1.8v.5h-1.2v-2.7h-2.6v-1.1h2.6v-1.4h1.2v1.4h4.7v-1.4zm-6.7 8.4h3.6c0-.4 0-.9 0-1.4h-3.6zm1.9-4.7h4.7v-1.2h-4.7zm6.7 3.3h-3.7v1.4h3.7z" fill="#fafbfc"/><path d="m384.7 21.4h1.3v2.2h2.8v-2.2h1.3v2.2h4.1v9.1h1.7v1.3h-16.9v-1.3h1.7v-9.1h4.1v-2.2zm.3 13.2.7 1.2c-1.8.9-3.8 1.9-6 2.9-.2-.4-.5-.8-.8-1.3 2.4-1 4.4-2 6.1-2.8zm-3.1-6.5h2.8v-3.2h-2.8zm0 4.6h2.8v-3.3h-2.8zm4.1-4.6h2.8v-3.2h-2.8zm0 4.6h2.8v-3.3h-2.8zm3.6 1.9c2.1.9 4.1 1.8 6.1 2.7l-.7 1.3c-2.2-1.1-4.2-2-6.1-2.9zm3.3-9.7h-2.8v3.2h2.8zm-2.8 7.8h2.8v-3.3h-2.8z" fill="#fafbfc"/><g fill="#010104"><path d="m227.94 297.34c-2.47-1.15-4.86-1.98-6.93-3.29-7.96-5.05-15.78-10.32-23.75-15.36-2.52-1.6-4.42-3.43-5.31-6.36-.34-1.13-1.19-2.76-2.07-2.95-2.24-.47-5.19-1.14-6.8-.1-2.15 1.39-1.59 4.47-.23 6.66 3.36 5.4 6.91 10.67 10.34 16.02.67 1.05 1.45 2.19 1.64 3.38.83 5.2 4.26 9.09 6.37 13.61 3.42 7.31 5.85 15.15 8.05 22.95 2.58 9.14 3.18 18.78 6.95 27.66.81 1.9.5 4.27.74 6.83-3.15-.31-5.71-.34-8.13-.93-.85-.2-1.67-1.67-1.99-2.72-4.09-13.47-8.09-26.97-12.11-40.46-.3-1.01-.45-2.11-.92-3.03-6.98-13.7-13.87-27.46-21.09-41.03-3.1-5.83-5.75-11.5-4.26-18.37.58-2.67.75-5.51.58-8.23-.53-8.14 2.42-15.34 5.57-22.54 1.27-2.9 2.5-5.86 3.3-8.92 1.14-4.34-.5-6.43-4.91-6.92-1.05-.12-2.11-.15-3.17-.24-3.98-.33-4.92-1.4-5.86-5.2-.64-2.58-2.23-4.93-2.86-7.51-.9-3.67-1.4-7.45-1.91-11.2-1.35-10.02.73-19.74 3.25-29.3 2.64-10.01 5.62-19.97 9.1-29.71 1.41-3.95 4.39-7.4 6.97-10.84 1.52-2.03 3.28-1.63 4.1.86.5 1.52.46 3.34.22 4.97-.52 3.57.06 6.5 2.8 9.19 3.32 3.26 6.33 6.87 9.19 10.54 2.22 2.83 4.8 4.68 9.2 4.95 1.88-3.88 3.92-8.12 5.99-12.34 2-4.08 3.64-5.41 8.09-6.45-.65 5.11-1.29 10.07-1.93 15.04-.16 1.26-.35 2.52-.51 3.78-.54 4.4-1.22 8.56-4.09 12.39-3.62 4.84-3.88 15.03 2.34 20.73 6.84 6.28 12.31 13.63 17.34 21.42 2.91 4.51 6.71 8.45 10 12.72 1.54 2 2.9 4.16 4.24 6.31 1.38 2.22 1.31 4.13-1.35 5.47-2.34 1.18-4.74.43-6.34-1.7-3.23-4.3-6.6-8.49-10.02-12.64-.79-.96-1.92-1.66-2.97-2.36-4.94-3.27-6.27-2.88-8.76 2.34-4.84 10.15-7.82 21.21-14.74 30.35-2.35 3.1-4.86 6.09-7.33 9.1-.67.82-1.53 1.47-2.18 2.3-2.58 3.33-2.47 4.6.73 7.23 3.22 2.65 5.92 6.14 10.59 6.53.71.06 1.39.9 2.03 1.44 7.15 5.96 14.26 11.98 21.45 17.88 2.54 2.07 3.12 4.36 1.35 8.05zm-47.56-44.11c4.97.85 6.23.02 7.47-3.99 1.29-4.2 2.12-8.69 4.22-12.45 4.33-7.75 9.18-15.19 11.71-23.84.55-1.89 1.6-3.69 2.68-5.36 4.54-7 4.08-12.94-1.75-18.88-1.38-1.4-3.03-2.53-4.67-3.88-4.13 4.8-6.83 9.94-7.26 16.1-.49 7.12-1.2 14.15-5.84 20.08-.62.79-.89 1.92-1.14 2.93-1.57 6.14-3.29 12.26-4.54 18.47-.7 3.48-.6 7.11-.88 10.82zm-1.93-106.37c-6.26 9.47-3.74 20.9 5.79 26.08 1.35.73 3.65.92 4.97.26 3.3-1.65 5.31-9.14 3.52-12.41-3.33-6.08-8.29-10.53-14.28-13.93zm-9.23 42.71c.06 1.13.04 1.87.15 2.6.55 3.46 1.41 3.68 4.86 3.03 3.78-.72 4.47-3.74 5.72-6.4 2.81-6 1.89-8.09-4.25-10.12-3.03-1-4.74-.07-5.36 3.15-.51 2.67-.79 5.4-1.12 7.74z"/><path d="m254.95 156.27c-.97 5.25-1.69 10.52-3.08 15.6-.33 1.22-2.77 2.19-4.41 2.64-1.86.52-2.67-.91-3.17-2.67-3.1-11-5.23-22.1-2.49-33.46.93-3.85 2.87-7.44 4.31-11.17.82-2.11 2.29-1.87 3.4-.62.99 1.11 1.76 2.66 2.02 4.13.49 2.8.75 5.67.74 8.51-.02 5.2-.11 10.37 2.19 15.23.27.57.34 1.23.49 1.81z"/><path d="m202.71 82.69c-3.85-2.86-5.4-6.26-5.44-10.58-.1-10.31.82-20.47 3.89-30.35.7-2.26 1.87-4.38 2.83-6.56 3.95 1.88 4.88 4.09 4.65 9.07-.25 5.47-.77 11.01-.21 16.42.7 6.81-1.62 12.91-3.24 19.19-.29 1.09-1.65 1.91-2.48 2.81z"/><path d="m147.98 94.19c5.25 4.4 6.17 10.22 5.16 16.2-1.25 7.38-3.12 14.67-5.04 21.92-.74 2.79-2.14 6.21-5.56 5.85-1.07-.11-2.47-4.32-2.41-6.62.32-12.82 1.39-25.55 7.85-37.35z"/></g></svg>