<svg enable-background="new 0 0 400 400" viewBox="0 0 400 400" xmlns="http://www.w3.org/2000/svg"><path d="m362.1 8.8c1.1.8 2.1 1.6 3.1 2.4l-1 1.1c-1.3-1.1-2.3-2-3-2.5zm1.9 4.8c.5.2.9.4 1.4.5-.6 2.3-1.3 4.5-1.9 6.8l-1.5-.5c.8-2.1 1.4-4.3 2-6.8zm-1-9.4c1.3.9 2.4 1.8 3.4 2.5l-1 1.1c-1.4-1.2-2.4-2.1-3.2-2.6zm3.7 2.2v-1.4h10.3v1.2c-.5 3.6-1.8 6.8-4 9.4 1.5 1.6 3.4 2.8 5.7 3.8-.3.4-.7.8-1.1 1.4-2.3-1.1-4.1-2.5-5.6-4.1-1.6 1.6-3.6 3.1-5.9 4.3-.3-.5-.7-.9-1-1.3 2.4-1.1 4.4-2.5 6-4.1-1.9-2.5-3-5.6-3.3-9.3h-1.1zm8.8 0h-6.4c.3 3.3 1.3 6 3 8.2 2-2.3 3.1-5.1 3.4-8.2z" fill="#fbfcfa"/><path d="m385.3 3.8h1.3v2.2h2.8v-2.2h1.3v2.2h4.1v9.1h1.7v1.3h-16.9v-1.3h1.7v-9.1h4.1v-2.2zm.4 13.1.7 1.2c-1.8.9-3.8 1.9-6 2.9-.2-.4-.5-.8-.8-1.3 2.3-1 4.3-1.9 6.1-2.8zm-3.1-6.4h2.8v-3.2h-2.8zm0 4.6h2.8v-3.3h-2.8zm4-4.6h2.8v-3.2h-2.8zm0 4.6h2.8v-3.3h-2.8zm3.7 1.9c2.1.9 4.1 1.8 6.1 2.7l-.7 1.3c-2.2-1.1-4.2-2-6.1-2.9zm3.2-9.7h-2.8v3.2h2.8zm-2.8 7.8h2.8v-3.3h-2.8z" fill="#fbfcfa"/><g fill="#010101"><path d="m226.39 176.8c1.95.21 3.92.42 5.32.57 2.27 3.07 3.94 6.27 6.46 8.52 3.7 3.3 6.06-1.23 7.74-1.91 1.77-2.96 2.96-5.02 4.24-7.02.68-1.07 2.13-2.03 2.15-3.06.11-5.09.97-10.54-.52-15.2-2.4-7.5-6.48-14.46-9.73-21.7-.61-1.36-.61-3-1.06-5.4-2.88-2.6-6.54-4.56-12.07-3.54-4.25.78-8.92-1.02-13.43-1.28-8.03-.46-16.07-.63-24.11-.92-5.95 4.11-12.83.56-19.12 2.31-2.48.69-5.31.05-7.9.47-2.93.48-5.8 1.38-8.63 2.32-.74.25-1.37 1.24-1.77 2.03-2.92 5.7-7.1 10.32-11.44 14.99-1.96 2.12-2.24 6.32-2.27 9.59-.05 4.72.54 9.46 3.59 13.56 1.06 1.43.92 3.7 1.79 5.33.81 1.51 2.01 3.21 3.47 3.89 2.17 1.02 2.43-1.45 3.02-2.72 3.2-6.78 6.26-13.63 9.41-20.44.38-.82.99-1.54 1.46-2.26.45.19.7.21.82.36 4.03 5.01 4 5 .77 10.58-1.12 1.93-3.06 3.68-1.68 6.32.12.23.07.67-.07.92-3.18 5.55-6.21 11.19-9.64 16.58-1.65 2.6-8.14 1.85-9.77-.75-2.65-4.22-5.25-8.45-5.88-13.56-.09-.71-.38-1.45-.77-2.05-3.62-5.46-3.56-11.37-2.25-17.45.66-3.09 1.46-6.06 5.34-6.76-.28-.22-.56-.43-.84-.65.81-1.26 1.77-2.45 2.41-3.79 2.98-6.25 6.04-12.47 8.74-18.85 1.52-3.59 2.52-7.42 3.49-11.21 1.53-5.95.14-11.64-1.65-17.36-2.75-8.8-6.52-17.49-5.06-27.06.29-1.89 1.39-3.66 2.12-5.48l1.32.15c.74 2.78 1.44 5.58 2.23 8.35.48 1.67.87 3.42 1.67 4.94 2.94 5.59 5.29 11.28 4.9 17.81-.22 3.7-.11 7.42-.02 11.13.09 3.39 2.65 4.91 5.67 3.41 3.42-1.69 6.49-3.62 8.66-7.11 1.18-1.9 3.95-2.8 6.32-4.37-.77-3.4 2.41-5.29 4.49-7.62 2.22-2.5 3.52-5.05 3.58-8.48.07-3.91.9-7.8 1.06-11.71.1-2.38-.42-4.78-.68-7.18-.1-.93-.51-1.89-.37-2.78 1.3-8.36 2.69-16.7 4.07-25.04.05-.3.21-.58.38-1.04 2.89.02 5.79-.01 7.14 3.29 1.1 2.7-.28 6.83-2.7 8.81-1.43 1.18-3.23 2.27-1.33 4.58.31.38-.37 1.59-.7 2.8 4 .44 3.55 3.3 3.19 6.25-.91 7.33-2.02 14.67-2.39 22.03-.09 1.87 1.87 4.68 3.65 5.63 3.32 1.78 5.86 3.99 7.78 7.15.64 1.06 1.56 2.03 2.55 2.77 3.96 2.99 7.59 6.15 10.87 10.03 3.32 3.92 8.36 6.37 13.26 9.9.67-1.99 1.34-3.56 1.73-5.19.87-3.66 1.64-7.34 2.39-11.03.74-3.63 1.43-7.27 2.09-10.91.73-3.99 1.92-7.69 4.42-11.06 1.52-2.04 2.02-4.82 3.13-7.2.98-2.1 2.18-4.11 3.69-6.01 2.86 4.57 2.28 9.07.68 13.48-1.61 4.44-3.8 8.69-5.16 13.2-1.02 3.36-2.46 5.95-6.33 7.22 4.45 1.21 3.95 4.5 4.09 7.54.21 4.66.45 9.32.83 13.97.12 1.43.73 2.83 1.19 4.21 1.01 3.07 1.76 6.27 3.2 9.14 1.88 3.77 1.28 8.32 4.73 11.74 1.97 1.95 2.31 5.57 3.36 8.44.44 1.19.67 2.48 1.24 3.6 2.74 5.42 2.74 10.54-.93 15.66-1.04 1.45-.97 3.65-1.65 5.41-.43 1.12-1.39 2.03-1.95 3.12-.34.67-.63 1.56-.49 2.26.51 2.57-.36 4.73-2.16 6.32-2.75 2.44-5.5 5.03-8.7 6.74-3.67 1.97-6.22.49-8.08-3.16-.81-1.59-2.29-2.83-3.49-4.21-.53-.61-1.41-1.09-1.61-1.78-1.21-4.05-2.23-8.19-3.5-13.12zm-11.38-58.05c.25-.47.5-.93.74-1.4-1.75-1.99-3.31-4.2-5.28-5.94-5.47-4.82-11.17-9.36-16.65-14.17-3.84-3.37-6.94-2.54-8.24 2.35-.28 1.04-1.05 2.05-1.84 2.82-4.82 4.72-10.3 8.75-13.91 14.71-.91 1.49-3.44 2.07-5.3 2.9-1.36.6-2.84.93-4.33 1.4.69 3.06 1.89 4.17 4.64 3.16 1.18-.43 3.25-.82 3.78-.22 1.49 1.68 2.71.87 4.17.37 6.46-2.23 12.68-5.34 19.83-5.02 4.02.18 8.05.11 12.07-.06 3.46-.15 6.89-.59 10.32-.9z"/><path d="m223.9 366.5c-5.68-4.57-9.81-10.77-15.99-16.07-1.73 1.64-3.76 3.33-5.53 5.27-1.99 2.18-3.53 4.81-5.68 6.8-1.34 1.24-3.43 1.68-5.18 2.48-.34-.3-.67-.61-1.01-.91 1.88-3.77 3.79-7.53 5.64-11.32 2.21-4.53 5.29-8.93 6.15-13.71.45-2.5 1.5-7.29-2.93-9.32-.55-.25-.73-1.63-.83-2.51-.81-7.01-.04-13.89 1.13-20.84 1.63-9.6 2.57-19.31 3.94-28.95.33-2.31 1.19-4.54 1.88-7.09-.3.01-1 .04-1.92.08.49-5.65 1.19-11.42 1.45-17.22.25-5.8.06-11.61.06-17.01-.46-.57-.56-.83-.71-.87-7.34-1.94-11.09-7.37-14.76-13.6-4.02-6.82-6.53-13.54-5.66-21.5.38-3.46-.01-6.99.1-10.49.04-1.45.51-2.89.7-4.34.27-2.05.47-4.12.17-6.3 3.98-3.56 4.96-8.49 5.4-13.65.04-.42.03-.92.26-1.23 1.73-2.44 3.51-4.84 5.28-7.26 2.15 1.73 4.53 3.24 6.41 5.23 4.28 4.52 8.29 9.34 10.84 15.08 2.18 4.89 3.97 9.95 5.83 14.98 1.13 3.07 2.1 6.2 3.06 9.32.3.97.62 2.06.46 3.02-.55 3.42-.98 6.92-2.04 10.2-2.26 6.95-3.49 14.32-7.33 19.64-.21 2.24-.35 3.64-.47 5.04-.17 1.87-.56 3.76-.46 5.62.28 5.4 1.01 10.78 1.09 16.17.11 6.86-.22 13.72-.43 20.58-.03.91-.84 1.84-.74 2.7.25 2.21.26 4.7 1.33 6.51 4.32 7.3 7.63 15.02 8.45 23.4.42 4.37-.57 9.12-1.96 13.36-1.14 3.47-3.97 6.35-5.79 9.64-1.85 3.34-1.36 6.76.67 9.88 2.83 4.35 5.93 8.53 8.67 12.93.98 1.57 1.24 3.58 1.83 5.39-.47.29-.93.58-1.38.87zm-19.72-140.59c1.25-1.13 2.79-1.91 3.33-3.12 2.06-4.66 6.04-8.56 5.14-14.43-.54-3.52-.3-7.2-.05-10.78.31-4.4-.26-8.33-3.61-11.58-.85-.82-1.13-2.23-1.65-3.38-1.88-4.17-3.8-8.32-8.65-10.21-3.69 5.09-5.55 10.83-5.83 17.08-.8 17.35.19 20.5 11.32 36.42zm3.7 77.95c-.24.8-.39 1.29-.53 1.78-1.19 4.15-2.38 8.29-3.53 12.27 1.21.88 2.19 2.03 3.39 2.34 1.28.33 3.56.39 4.05-.34 4.28-6.31 3.16-11.52-3.38-16.05z"/></g></svg>