<svg enable-background="new 0 0 400 400" viewBox="0 0 400 400" xmlns="http://www.w3.org/2000/svg"><path d="m378.6 9.2.8-1c.9.7 1.9 1.4 2.9 2.3l-.9 1.1c-1.1-.9-2-1.7-2.8-2.4zm.5 10.7c.9-2.1 1.6-4.3 2.3-6.7.4.2.8.4 1.3.6-.7 2.1-1.5 4.3-2.2 6.6zm.4-15.2.9-.9c1 .8 2 1.6 2.8 2.4l-1 1c-1-.9-1.9-1.8-2.7-2.5zm12.5-1.3h1.2v1.4h2.7v1.1h-2.7v2.7h-1.2v-.5h-1.8v1.3h4.9v3.8h-1.2v-.5h-3.7c0 .4-.1.9-.1 1.2h5.1v1h-5.2c0 .5-.1.9-.2 1.2h6v1h-5.2c1.1 1.3 2.9 2 5.5 2.2-.4.4-.7.8-.9 1.3-2.9-.5-4.8-1.6-5.7-3.5h-.1c-.8 1.7-2.7 2.9-5.9 3.6-.2-.4-.6-.8-.9-1.1 2.8-.6 4.6-1.4 5.4-2.5h-4.8v-1h5.3c.1-.3.2-.7.2-1.2h-4.9v-1h5c0-.4 0-.8.1-1.2h-3.6v.5h-1.2v-3.8h4.9v-1.3h-1.8v.5h-1.2v-2.7h-2.6v-1.1h2.6v-1.4h1.2v1.4h4.7v-1.4zm-6.7 8.4h3.6c0-.4 0-.9 0-1.4h-3.6zm1.9-4.7h4.7v-1.2h-4.7zm6.7 3.3h-3.7v1.4h3.7z" fill="#fafbfc"/><path d="m384.7 21.4h1.3v2.2h2.8v-2.2h1.3v2.2h4.1v9.1h1.7v1.3h-16.9v-1.3h1.7v-9.1h4.1v-2.2zm.3 13.2.7 1.2c-1.8.9-3.8 1.9-6 2.9-.2-.4-.5-.8-.8-1.3 2.4-1 4.4-2 6.1-2.8zm-3.1-6.5h2.8v-3.2h-2.8zm0 4.6h2.8v-3.3h-2.8zm4.1-4.6h2.8v-3.2h-2.8zm0 4.6h2.8v-3.3h-2.8zm3.6 1.9c2.1.9 4.1 1.8 6.1 2.7l-.7 1.3c-2.2-1.1-4.2-2-6.1-2.9zm3.3-9.7h-2.8v3.2h2.8zm-2.8 7.8h2.8v-3.3h-2.8z" fill="#fafbfc"/><path d="m240.94 316.58c2.51 3.69 2.06 7.48 1.41 11.43-1.37 8.39-5.32 15.46-11.45 21.05-3.79 3.45-8.58 5.79-12.82 8.77-2.58 1.81-5.23 3.02-8.46 3.02-4.96-.01-9.8.49-13.04 5.64-3.8-4.99-9.27-8.12-9.06-14.86.01-.2-.06-.43-.17-.61-5.55-8.96-2.2-18.55-1.88-27.89.11-3.16 1.01-6.29 1.23-9.45.51-7.3 3.94-13.58 7.34-19.7 1.62-2.92 4.75-5.47 7.8-7.01 6.5-3.29 13.37-5.87 20.14-8.61 2.03-.83 4.22-1.29 6.35-1.86 22.7-6.06 34.77-21.2 32.41-44.32-.53-5.2-2.85-10.19-3.89-15.36-2.15-10.65-7.09-19.99-13.76-28.28-8.62-10.72-17.69-21.1-26.96-31.26-3.68-4.03-8.28-7.27-12.74-10.5-2.37-1.71-5.32-2.63-8.68-4.22 0 4.8-.08 8.5.06 12.19.03.82.75 1.68 1.32 2.39 4.28 5.39 8.51 10.84 12.94 16.11 5.15 6.13 7.13 13.41 7.74 21.1.18 2.25-.72 4.84-1.82 6.9-4.75 8.91-6.61 18.48-7.15 28.41-.16 2.86.42 5.38 2.74 7.42 1.24 1.09 2.05 2.66 3.01 4.05 1.3 1.87 2.6 2.31 4.25.31 2.78-3.34 5.53-6.73 8.55-9.84 1.86-1.92 4.21-3.38 6.45-5.13 1.92 2.76 2.24 5.02.77 7.54-3.09 5.31-5.96 10.7-11.34 14.27-2.92 1.94-4.18 4.94-3.56 8.6.22 1.32.04 2.7.04 4.23-1.33 0-2.56 0-4.2 0-.13-5.87-3.95-9.92-7.65-13.98-5.89-6.46-7.29-14.9-10.21-22.67 2.76-3.52.96-7.76 1.84-11.59.22-.93.13-1.93.18-2.9-1.01-.05-2.31-.54-2.98-.08-4.38 2.97-9.54 2.58-14.36 3.56-10.61 2.16-10.66 1.72-11.29 13.09-.5 9.15-.92 18.28-4.84 26.69-1.46 3.14-4.14 5.73-6.31 8.53-1.15 1.48-2.44 2.86-3.59 4.34-3.5 4.48-6.68 9.27-10.58 13.37-1.77 1.86-4.9 2.53-7.52 3.44-.73.25-2.39-.36-2.63-.98-.37-.91-.19-2.38.33-3.26 2.68-4.53 2.25-7.27-1.52-10.77-1.05-.97-1.59-2.65-2.01-4.11-.99-3.41-1.95-6.84-2.57-10.32-.67-3.74-.97-7.56-1.35-11.35-.28-2.73-.42-5.48-.63-8.2 4.48-1.28 5.25-1.11 6.56 3.13 1.62 5.25 2.74 10.65 4.17 15.96 1.12 4.15 2.24 8.34 6.39 11.24 1.17-2.21 2.09-4.22 3.26-6.06.94-1.47 2.26-2.68 3.3-4.09.66-.9 1.33-1.9 1.59-2.95 2-8.01 3.96-16.03 5.79-24.09.41-1.81.19-3.76.35-5.64.13-1.52.48-3.02.58-4.54.08-1.2.27-2.55-.17-3.59-1.5-3.53-1.94-7.13-1.29-10.87.17-1.01.34-2.3 1.02-2.9 2.34-2.06 1.98-4.38 1.27-6.93-1.27-4.57.07-8.38 3.14-11.95 1.49-1.73 2.19-4.14 3.27-6.23 1.11-2.14 1.96-4.5 3.46-6.33 3.48-4.25 7.17-8.37 10.99-12.32 6.81-7.03 7.98-14.18 4.29-23.19-2.88-7.04-5.22-14.32-7.49-21.59-.77-2.47-.56-5.24-.82-7.87-.3-3.07-1.8-4.94-5.1-4.84-4.33.13-8.67.39-13 .42-3.37.03-6.83.23-10.07-.47-2.25-.49-4.2-2.38-6.12-4.11 9.72-3.82 19.62-4.72 30.27-4.62-.38-4.54-.27-8.82-1.18-12.87-1.56-6.92-1.86-13.83-1.25-20.82.17-1.95-.37-3.2-2.16-4.06-3.24-1.55-6.43-3.22-9.63-4.85-2.22-1.13-4.27-2.41-4.49-6.13 2.8-.33 5.66-1.12 8.42-.87 2.58.24 4.52-.11 6.09-2.14 1.42-1.84 3.14-2.27 5.3-1.34 7.26 3.13 14.42.74 21.5-.68 8.62-1.73 17.01-.96 25.39 1.18 2.65.68 3.52 4.51 1.14 6.25-1.62 1.18-4.01 1.95-5.99 1.83-3.61-.23-4.81.16-5.67 3.74-.91 3.79-1.67 7.36-4.89 10.34-1.43 1.33-1.57 5.37-.71 7.55 1.4 3.52 2.27 6.74 1.14 10.4-.37 1.21-.65 2.47-.76 3.73-.36 4.09.99 6.21 5 7.14 4.74 1.1 9.58 1.78 14.33 2.84 2.93.65 6.13 1.12 7.54 4.87-3.36 2.19-6.95 2.28-10.64 1.75-3.45-.5-6.88-1.37-10.34-1.45-4.78-.1-6.22 1.28-7.52 5.87-1.79 6.32-3.6 12.63-5.34 18.96-.3 1.1-.43 2.29-.42 3.43.04 3.25-.71 6.11-4.17 8.37 2.89 2.17 5.34 4.5 8.21 6.06 11.31 6.16 22.54 12.62 31.19 22.22 5.05 5.61 8.35 12.79 12.5 19.22.53.82 1.3 1.72 2.16 2.06 2.46.96 3.5 2.75 3.31 5.19-.21 2.75 1.07 4.5 3.08 6.14 7.19 5.86 11.41 13.59 13.17 22.57.49 2.48-.27 5.21-.42 7.82-.06 1.03-.49 2.51.02 3.03 2.4 2.43 1.67 5.31 1.55 8.1-.22 4.87-.08 9.82-.91 14.59-1.26 7.27-5.18 13.41-10.29 18.61-3.61 3.67-7.53 7.13-11.7 10.14-2.13 1.53-5.18 1.73-7.71 2.79-1.47.62-2.74 1.73-4.07 2.66-.5.35-.87.95-1.42 1.17-6.22 2.57-12.47 5.05-18.69 7.62-5.28 2.18-9.08 5.48-9.97 11.65-.47 3.29-2.46 6.36-2.95 9.65-.86 5.85-4.26 11.24-3.09 17.47.22 1.15-.09 2.6-.65 3.65-2.16 4-2.39 8.27-2.19 12.65.16 3.42 2.28 5.07 5.61 4.27 5.87-1.41 11.78-2.65 17.59-4.28 5.51-1.54 10.1-4.39 13.08-9.69 2.82-5.02 5.73-9.85 5.91-15.85.06-2.61 1.48-4.58 4.47-5.46zm-50.38-153.07c-2.63 2.8-4.72 5.95-7.61 7.91-6.56 4.45-10.12 10.48-11.48 18.08-.33 1.87-1.13 3.67-1.33 5.54-.28 2.6-.31 5.25-.23 7.86.08 2.62 1.66 3.95 4.25 4.12 5.16.33 10.2-.19 14.74-2.79 3.2-1.84 6.47-1.83 9.78-.99 3.09.78 4.35.25 5.05-2.87.37-1.65.25-3.51.99-4.94 2.74-5.32 1.21-9.95-1.67-14.61-2.1-3.4-4.3-6.84-5.68-10.55-1.32-3.52-3.25-5.81-6.81-6.76zm12.07-119.21c-.3-.4-.61-.81-.91-1.21-8.12 1.03-16.23 2.06-23.95 3.04 1.3 9.68 2.35 19.04 3.9 28.32.67 4.02 2.36 7.87 3.6 11.79.89 2.84 3.18 2.71 5.42 2.4 2.11-.29 3.77-1.1 4.13-3.63 1-6.91 3.73-13.35 3.65-20.69-.06-6.66 2.66-13.35 4.16-20.02zm-15.81 58.9c.83 3.75 1.68 7.99 2.77 12.17.16.61 1.5 1.28 2.26 1.24.56-.03 1.54-1.16 1.53-1.8-.06-4.94-.17-9.89-.6-14.81-.09-1.05-1.42-2.28-2.49-2.82-.44-.23-2 .95-2.5 1.8-.59 1.03-.59 2.4-.97 4.22z" fill="#010104"/></svg>